
<svg fill="#0000000D" height="350" viewBox="0 0 700 350" width="700" xmlns="http://www.w3.org/2000/svg" xmlns:xlink="http://www.w3.org/1999/xlink"><defs><g id="a" transform="matrix(.0884828 -.06095482 .06095482 .0884828 -26.256105 187.952774)"><path fill="none" d="M115.119 39.0917C166.168 185.512 127.433 334.925 101.684 391.328M312.522 31.7279C257.127 184.44 299.159 340.274 327.099 399.101M325.554 76.5828L277.554 62.7242M317.418 117.545L264.418 103.686M316.107 158.491L257.107 146.613M318.503 199.462L252.503 193.523M319 236.5H253M328.58 278.516L262.58 283.466M327.871 318.617L274.871 329.506M334.677 350.661L281.677 363.53M100.446 76.5828L148.446 62.7242M107.582 117.13L160.582 103.272M108.893 158.633L167.893 146.754M106.497 199.129L172.497 193.19M107 236.722H173M102.42 275.344L168.42 280.294M98.1286 313.061L151.129 323.95M88.3228 343.793L141.323 356.661M434.693 218C434.693 333.98 339.175 428 221.347 428C103.519 428 8 333.98 8 218C8 102.02 103.519 8 221.347 8C339.175 8 434.693 102.02 434.693 218Z" stroke="#e8e8e8" stroke-width="15"/></g><g id="b" transform="matrix(.12278117 -.04547451 .04547451 .12278117 149.932678 220.158539)"><path d="M394.745 397.875C373.542 419.239 348.852 435.997 321.335 447.723C292.876 459.828 262.673 466 231.481 466C200.336 465.953 170.133 459.828 141.674 447.675C114.157 435.949 89.4674 419.191 68.3114 397.828C47.1083 376.465 30.4757 351.589 18.8375 323.864C6.77533 295.19 0.649994 264.712 0.649994 233.285C0.649994 201.905 6.77533 171.426 18.7904 142.705C30.4285 114.98 47.0612 90.1042 68.2643 68.7411C89.4674 47.378 114.157 30.6199 141.627 18.8939C170.086 6.78813 200.336 0.616563 231.528 0.616563C262.673 0.616563 292.923 6.78813 321.429 18.8939C348.946 30.6199 373.636 47.378 394.839 68.7411C416.042 90.1042 432.675 114.98 444.313 142.705C456.281 171.426 462.406 201.905 462.406 233.285C462.406 264.665 456.281 295.143 444.266 323.817C432.58 351.636 415.948 376.465 394.745 397.875ZM103.744 413.447C105.817 415.061 107.89 416.77 110.011 418.289C121.225 426.217 133.617 432.626 146.245 437.943C173.102 449.289 202.315 455.223 231.528 455.223C250.988 455.223 270.919 452.565 289.672 447.39C282.227 444.352 273.18 438.608 257.961 425.505C245.286 426.882 232.517 426.929 219.654 425.695C202.88 424.081 186.012 420.33 169.521 414.444C154.631 409.174 142.852 403.145 134.889 398.54C122.733 402.955 106.995 408.13 99.2208 410.646C100.352 410.313 102.896 412.83 103.744 413.447ZM314.032 355.292L274.547 246.72L179.84 228.395L101.53 309.859C106.807 346.794 131.921 379.551 131.921 379.551C132.062 379.646 148.459 391.561 174.751 400.819C190.064 406.231 205.707 409.696 221.256 411.168C233.978 412.355 246.606 412.165 259.139 410.646L314.032 355.292ZM19.7328 241.07C17.3298 225.261 16.7643 208.931 18.0365 192.457C16.1518 196.255 14.644 199.483 13.5132 202.094C12.0525 212.301 11.3458 222.745 11.3458 233.427C11.3458 266.184 18.3663 297.279 31.0411 325.288C29.6275 310.619 30.3343 295.427 31.3238 283.891C25.8581 270.042 21.9944 255.834 19.7328 241.07ZM38.8627 156.472C36.6481 164.733 34.0095 176.744 32.6902 191.175C31.2296 207.459 31.6536 223.647 34.1037 239.124C35.9413 250.992 38.9098 262.528 42.9619 273.637C58.9349 287.215 80.0909 295.19 91.7761 298.846L168.626 218.9L160.568 131.264L85.4623 106.008C66.3796 120.155 50.7364 138.955 38.8627 156.472ZM267.055 29.6229C250.328 18.5616 208.016 15.9505 190.865 15.2859C171.971 18.8464 153.548 24.9705 136.255 33.3733C121.131 40.6843 106.76 49.7992 93.6609 60.4333C93.8964 60.8605 91.6348 84.1701 91.729 92.6678L167.589 118.161L255.087 80.0398L267.149 29.7653C267.102 29.6704 267.055 29.6229 267.055 29.6229ZM412.508 106.957C399.456 88.0154 383.86 70.3552 365.06 56.9677C347.438 44.4347 323.879 40.162 302.912 36.6965C301.31 36.4591 281.285 33.136 281.143 33.8006L269.081 84.1226L330.711 148.829L412.367 156.425C413.639 143.322 415.288 124.238 416.23 112.559C414.958 110.66 413.78 108.809 412.508 106.957ZM413.78 172.756C413.498 172.281 413.215 171.711 412.885 171.142L331.607 163.593L287.834 240.69L327.413 349.547L383.295 345.987C395.169 335.97 405.723 324.814 414.628 312.803C425.795 297.706 434.465 281.138 440.402 263.573C434.182 209.263 419.859 182.203 413.78 172.756ZM442.899 295.048C438.093 304.4 432.486 313.372 426.125 321.918C416.089 335.448 404.168 347.933 390.598 358.995C388.101 371.338 381.316 390.802 363.081 411.215C363.411 410.978 363.741 410.693 364.118 410.456C365.249 409.649 366.285 408.747 367.416 407.892C379.997 397.923 391.446 386.624 401.577 374.234C420.377 351.114 434.606 324.291 442.946 295.522C442.899 295.332 442.899 295.19 442.899 295.048Z"/></g>
<g id="c" transform="matrix(.12519453 .02911501 -.02911501 .12519453 226.403687 30.496746)"><path d="M332.839 5.27158C327.42 5.62424 319.764 6.15093 315.889 6.49901L308.836 7.19976L322.602 15.6224C371.381 45.8092 408.114 82.2247 435.472 127.942C441.322 137.684 441.924 138.472 442.355 136.278C442.611 134.876 443.388 124.168 443.904 112.32C445.368 83.8873 444.075 46.1572 441.407 38.6094C438.484 30.0082 435.988 26.0602 429.706 19.6574C419.213 8.9539 412.33 6.32039 391.339 5.26699C374.39 4.30519 347.719 4.39222 332.839 5.27158Z" fill="black" fill-opacity="0.06"/>
<path d="M251.112 18.8742C197.43 34.9317 152.094 63.3643 107.015 109.347C62.1955 155.152 33.7199 202.276 18.2339 256.681C16.5995 262.471 15.2211 268.438 15.1358 269.931C15.0505 273.353 30.1055 304.593 38.1919 317.669C44.7294 328.198 53.2469 340.486 54.0192 340.486C54.2796 340.399 57.032 335.838 60.1256 330.218C65.7156 320.041 84.2998 290.642 91.0976 281.253L94.7121 276.252L85.1663 266.419C76.9945 257.996 75.6161 256.063 75.6161 253.695C75.6161 249.921 78.8848 246.587 82.5846 246.587C84.9059 246.587 86.7154 247.993 94.2002 255.536L103.144 264.403L105.039 261.857C106.157 260.455 109.772 255.802 113.211 251.414L119.317 243.519L109.34 233.25C100.221 223.861 99.3592 222.634 99.3592 219.735C99.3592 217.28 99.9609 216.048 101.856 214.381C105.901 210.785 108.308 211.926 119.061 222.895L128.526 232.458L136.442 223.069L144.358 213.68L134.467 203.499C125.778 194.462 124.66 192.969 124.66 190.249C124.66 186.301 127.583 183.406 131.544 183.406C134.04 183.406 135.589 184.634 144.017 193.061C149.266 198.328 153.823 202.715 154.083 202.715C154.339 202.715 158.299 198.589 162.942 193.5L171.374 184.198L161.73 174.283C153.298 165.507 152.18 164.014 152.18 161.294C152.18 157.346 155.103 154.451 159.063 154.451C161.559 154.451 163.194 155.679 171.621 164.193L181.342 174.022L188.05 167.793C191.75 164.459 195.881 160.424 197.255 158.931L199.836 156.21L190.632 146.647C182.285 138.133 181.427 136.818 181.427 133.924C181.427 129.71 183.834 127.255 188.05 127.255C190.888 127.255 192.091 128.135 200.869 136.997L210.505 146.739L219.193 139.017L227.881 131.295L218.847 121.906C210.33 113.131 209.813 112.43 209.813 109.009C209.813 106.201 210.33 105.061 212.049 103.655C216.351 100.233 217.9 101.021 228.739 111.99L238.89 122.171L247.749 114.889C252.652 110.941 257.039 107.341 257.555 106.902C258.072 106.462 255.059 102.78 249.985 97.5998C240.094 87.4184 239.061 84.9636 243.187 80.75C247.659 76.1883 249.294 76.889 260.137 87.8581L269.773 97.5128L282.933 88.2978C296.699 78.5562 316.397 65.7459 326.203 60.2178C329.386 58.3767 331.968 56.5309 331.968 56.0913C331.968 54.9508 311.579 41.4353 298.85 34.1531C286.202 26.9579 263.837 15.8147 262.117 15.8147C261.52 15.888 256.532 17.2071 251.112 18.8742Z" fill="black" fill-opacity="0.06"/>
<path d="M332.323 72.9273C314.34 83.7224 285.609 102.761 280.877 107.149C280.36 107.589 283.198 111.271 287.93 116.185C294.553 123.033 295.846 124.787 295.846 127.155C295.846 130.928 292.577 134.263 288.878 134.263C286.556 134.263 284.747 132.857 277.262 125.4L268.399 116.538L259.365 123.646C254.377 127.594 250.075 131.281 249.729 131.721C249.384 132.247 252.482 136.108 256.613 140.322C263.235 147.078 264.012 148.218 264.012 151.117C264.012 153.572 263.496 154.804 261.776 156.118C257.389 159.627 255.239 158.752 246.119 149.711L237.687 141.375L229.345 148.836C224.787 152.958 221.002 156.558 221.002 156.911C221.002 157.176 224.271 160.859 228.317 165.072C234.769 171.741 235.631 173.06 235.631 175.867C235.631 179.289 233.309 182.449 230.728 182.623C226.772 182.884 225.223 181.922 217.823 174.461L209.997 166.478L200.878 175.08C195.89 179.907 191.759 183.942 191.759 184.208C191.759 184.382 195.028 188.069 199.073 192.282C205.525 198.951 206.387 200.27 206.387 203.077C206.387 206.498 204.066 209.659 201.399 209.833C197.614 210.094 195.98 209.132 189.011 202.024L181.526 194.476L179.631 196.23C178.599 197.109 174.728 201.405 170.858 205.619L163.975 213.341L171.46 221.063C177.481 227.383 178.859 229.311 178.859 231.505C178.859 235.54 177.997 237.033 175.074 238.261C171.289 239.928 169.138 238.7 161.222 230.713L154.254 223.783L146.329 233.072L138.328 242.461L146.069 250.535C154.842 259.659 155.79 262.292 151.749 266.332C147.793 270.458 145.126 269.492 136.694 261.065L129.209 253.604L121.984 262.993C117.943 268.26 114.329 272.995 113.983 273.696C113.467 274.484 115.703 277.383 121.553 283.351C131.445 293.441 132.392 295.9 128.176 300.201C124.045 304.414 121.553 303.448 112.519 294.32C108.389 290.106 104.689 286.951 104.177 287.299C101.941 288.705 79.7469 323.627 69.6803 341.618L63.3988 352.765L67.7002 357.854C70.0216 360.574 76.5635 367.417 82.1535 372.949C106.759 397.255 136.352 417.966 171.707 435.517L185.814 442.451L191.579 440.958C200.954 438.59 217.644 432.883 228.658 428.235C273.221 409.544 312.19 380.937 352.797 336.973C391.766 294.938 417.489 249.399 431.341 198.502L434.264 187.707L430.995 179.985C413.273 139.095 386.692 102.061 355.204 74.4204C349.785 69.6801 345.137 65.8192 344.881 65.8192C344.536 65.8192 338.946 69.0664 332.323 72.9273Z" fill="black" fill-opacity="0.06"/>
<path d="M6.45214 321.438C4.90309 327.406 3.9557 367.861 4.81778 390.587C5.67986 412.699 5.93579 415.072 7.83057 420.508C13.681 436.566 26.5853 448.061 42.4126 451.396C55.2315 454.203 116.309 454.029 135.58 451.222L139.711 450.608L132.397 446.307C121.212 439.813 99.5343 424.809 89.0412 416.473C58.0647 391.727 32.6019 362.594 12.5585 328.899C7.91139 321.09 6.87869 319.863 6.45214 321.438Z" fill="black" fill-opacity="0.06"/>
</g>
<g id="d" transform="matrix(.11718018 0 0 .11718018 294 290)"><path d="M260.54,523.351c15.186,0,281.329-10.509,281.329-54.889s-142.357-22.481-142.242-60.396c-0.115-14.048,57.671-9.353,42.218-36.529c-13.626-22.577-199.99-19.852-199.99-19.852s-39.159,0.191-85.948,5.977V196.849c53.646-26.479,195.505-108.64,125.106-103.686c-59.89,4.217-102.386-16.61-125.106-31.958V32.862c0-7.927-6.426-14.344-14.344-14.344s-14.344,6.417-14.344,14.344V361.85C64.729,372.426,0,394,0,438.101C0,523.351,245.364,523.351,260.54,523.351z M127.22,400.531v14.831c0,7.928,6.426,14.344,14.344,14.344
s14.344-6.416,14.344-14.344v-15.443c25.484,2.189,44.628,11.484,44.628,22.615c0,12.766-25.149,23.112-56.18,23.112c-31.031,0-56.18-10.347-56.18-23.112C88.176,412.225,104.576,403.504,127.22,400.531z"/></g>
<g id="e" transform="matrix(.13658373 -.01422747 .01422747 .13658373 58.353432 -12.071168)"><path d="M296.24 302.556l2.132 1.955 89.385-1.716c2.083-.04 3.775-1.704 3.743-3.757l-.308-19.706c-.032-2.057-1.782-3.661-3.869-3.621l-73.728 1.416L118.487 15.623c-4.789-6.419-13.874-7.74-20.293-2.951l-.11.083-.746.568c-6.33 4.817-7.597 13.834-2.84 20.209L293.144 299.78a10.479 10.479 0 003.096 2.776z" stroke="#030303" stroke-width="2" fill="#FFF"/><path d="M101.76 302.556l-2.132 1.955-89.385-1.716c-2.083-.04-3.775-1.704-3.743-3.757l.308-19.706c.032-2.057 1.782-3.661 3.869-3.621l73.728 1.416L279.513 15.623c4.789-6.419 13.874-7.74 20.293-2.951l.11.083.746.568c6.33 4.817 7.597 13.834 2.84 20.209L104.856 299.78a10.479 10.479 0 01-3.096 2.776z" stroke="#030303" stroke-width="2" fill="#FFF"/></g><g id="f" transform="matrix(.28124121 0 0 .28124121 103.000008 113)"><path d="M109 221.76C50.0964 221.76 2.18001 172.525 2.18001 112C2.18001 104.989 2.85581 98.112 4.07661 91.4592L3.68421 90.9664C3.88041 90.8096 4.05481 90.6528 4.25101 90.496C14.0174 40.2304 57.2686 2.24002 109 2.24002C167.904 2.24002 215.82 51.4752 215.82 112C215.82 172.525 167.904 221.76 109 221.76ZM199.971 150.55C199.819 114.934 168.928 107.341 155.935 105.75C166.77 144.099 163.674 180.947 161.32 197.613C178.498 186.48 192.123 170.038 199.971 150.55ZM151.946 202.989C153.734 193.469 160.513 150.595 147.346 106.198C122.298 113.008 118.745 131.757 114.014 157.248C110.809 174.518 107.169 193.894 95.6366 212.173C100.018 212.778 104.466 213.136 109 213.136C124.391 213.136 138.953 209.485 151.946 202.989ZM86.6332 210.47C98.863 192.73 102.525 173.062 105.774 155.635C110.482 130.301 114.951 106.333 144.687 97.9552C142.485 91.7504 139.891 85.5456 136.795 79.4528C75.1446 110.141 37.3216 159.443 29.103 170.89C42.7716 190.467 63.0892 204.826 86.6332 210.47ZM24.198 163.229C35.7084 147.75 73.4442 101.584 132.675 71.9264C130.364 67.9616 127.813 64.064 125.023 60.2336C108.804 68.5216 93.5656 69.7984 78.807 71.0304C58.3804 72.7328 37.278 74.5696 11.9682 95.2C11.0744 100.666 10.5948 106.266 10.5948 112C10.573 130.682 15.5434 148.198 24.198 163.229ZM14.933 82.2304C38.5642 65.7664 58.642 64.064 78.1312 62.4288C92.1704 61.2416 105.512 60.1216 119.638 53.312C108.259 39.6256 93.3912 27.2608 74.0982 17.472C45.9108 28.4928 23.8928 52.416 14.933 82.2304ZM85.4124 13.8208C102.918 23.8784 116.63 36.0192 127.356 49.28C131.846 46.7264 140.675 40.768 142.964 32.1664C144.338 27.0816 143.095 21.5712 139.367 15.792C129.797 12.5888 119.595 10.8416 109 10.8416C100.869 10.864 92.9552 11.8944 85.4124 13.8208ZM150.769 20.4512C152.164 25.2 152.273 29.904 151.052 34.496C148.131 45.3824 138.43 52.64 132.588 56.1568C135.4 60.1216 137.994 64.1536 140.327 68.2304C155.02 61.4656 170.956 55.776 188.047 51.8112C178.389 38.4608 165.571 27.6192 150.769 20.4512ZM193.104 59.5168C175.621 63.3024 159.358 68.9696 144.403 75.8016C147.891 82.7232 150.769 89.7792 153.167 96.8128C160.535 97.3728 181.202 100.195 195.154 114.822C199.841 119.728 203.263 125.507 205.465 132.026C206.729 125.552 207.405 118.854 207.405 112C207.427 92.8032 202.195 74.8384 193.104 59.5168Z"/></g><pattern id="g" height="350" patternUnits="userSpaceOnUse" width="350"><use x="-350" xlink:href="#a" y="-350"/><use xlink:href="#a" y="-350"/><use x="350" xlink:href="#a" y="-350"/><use x="-350" xlink:href="#a"/><use xlink:href="#a"/><use x="350" xlink:href="#a"/><use x="-350" xlink:href="#a" y="350"/><use xlink:href="#a" y="350"/><use x="350" xlink:href="#a" y="350"/></pattern><pattern id="h" height="350" patternUnits="userSpaceOnUse" width="350"><use x="-350" xlink:href="#b" y="-350"/><use xlink:href="#b" y="-350"/><use x="350" xlink:href="#b" y="-350"/><use x="-350" xlink:href="#b"/><use xlink:href="#b"/><use x="350" xlink:href="#b"/><use x="-350" xlink:href="#b" y="350"/><use xlink:href="#b" y="350"/><use x="350" xlink:href="#b" y="350"/></pattern><pattern id="i" height="350" patternUnits="userSpaceOnUse" width="350"><use x="-350" xlink:href="#c" y="-350"/><use xlink:href="#c" y="-350"/><use x="350" xlink:href="#c" y="-350"/><use x="-350" xlink:href="#c"/><use xlink:href="#c"/><use x="350" xlink:href="#c"/><use x="-350" xlink:href="#c" y="350"/><use xlink:href="#c" y="350"/><use x="350" xlink:href="#c" y="350"/></pattern><pattern id="j" height="350" patternUnits="userSpaceOnUse" width="350"><use x="-350" xlink:href="#d" y="-350"/><use xlink:href="#d" y="-350"/><use x="350" xlink:href="#d" y="-350"/><use x="-350" xlink:href="#d"/><use xlink:href="#d"/><use x="350" xlink:href="#d"/><use x="-350" xlink:href="#d" y="350"/><use xlink:href="#d" y="350"/><use x="350" xlink:href="#d" y="350"/></pattern><pattern id="k" height="350" patternUnits="userSpaceOnUse" width="350"><use x="-350" xlink:href="#e" y="-350"/><use xlink:href="#e" y="-350"/><use x="350" xlink:href="#e" y="-350"/><use x="-350" xlink:href="#e"/><use xlink:href="#e"/><use x="350" xlink:href="#e"/><use x="-350" xlink:href="#e" y="350"/><use xlink:href="#e" y="350"/><use x="350" xlink:href="#e" y="350"/></pattern><pattern id="l" height="350" patternUnits="userSpaceOnUse" width="350"><use x="-350" xlink:href="#f" y="-350"/><use xlink:href="#f" y="-350"/><use x="350" xlink:href="#f" y="-350"/><use x="-350" xlink:href="#f"/><use xlink:href="#f"/><use x="350" xlink:href="#f"/><use x="-350" xlink:href="#f" y="350"/><use xlink:href="#f" y="350"/><use x="350" xlink:href="#f" y="350"/></pattern></defs>

<rect fill="url(#g)" height="100%" width="100%"/><rect fill="url(#h)" height="100%" width="100%"/><rect fill="url(#i)" height="100%" width="100%"/><rect fill="url(#j)" height="100%" width="100%"/><rect fill="url(#k)" height="100%" width="100%"/><rect fill="url(#l)" height="100%" width="100%"/></svg>
