
<svg width="581" height="599" viewBox="0 0 581 599" fill="none" shape-rendering="crispEdges" xmlns="http://www.w3.org/2000/svg">
<g filter="url(#filter0_d)">
<path d="M556 323V21H290.5H25V323L292 562L556 323Z" fill="#FFFCFC"/>
<path d="M566.5 21V10.5H556H290.5H25H14.5V21V323V327.693L17.9969 330.823L284.997 569.823L292.04 576.128L299.047 569.784L563.047 330.784L566.5 327.658V323V21Z" stroke="black" stroke-width="21"/>
</g>
<g filter="url(#filter1_d)">
<path d="M288 518L525 291.508V98" shape-rendering="geometricPrecision"  stroke="black" stroke-width="20"/>
</g>
<path d="M66.8 165H51.2L72.4 109H88.4L109.6 165H94L90.4 155H70.4L66.8 165ZM74 144.6H86.8L80.4 125.8L74 144.6ZM127.997 153.8H157.197V165H113.597V109H127.997V153.8ZM177.216 153.8H206.416V165H162.816V109H177.216V153.8ZM55.12 233.4C69.7333 234.2 79.6267 234.6 84.8 234.6C86.0267 234.6 86.9867 234.253 87.68 233.56C88.4267 232.813 88.8 231.827 88.8 230.6V223.4H70.4C64.8 223.4 60.72 222.147 58.16 219.64C55.6533 217.08 54.4 213 54.4 207.4V205C54.4 199.4 55.6533 195.347 58.16 192.84C60.72 190.28 64.8 189 70.4 189H98.48V200.2H73.6C70.4 200.2 68.8 201.8 68.8 205V206.6C68.8 209.8 70.4 211.4 73.6 211.4H88C93.2267 211.4 97.0667 212.627 99.52 215.08C101.973 217.533 103.2 221.373 103.2 226.6V230.6C103.2 235.827 101.973 239.667 99.52 242.12C97.0667 244.573 93.2267 245.8 88 245.8C85.28 245.8 82.4 245.747 79.36 245.64L72 245.32C66.56 245.053 60.9333 244.68 55.12 244.2V233.4ZM110.394 189H143.994C149.594 189 153.647 190.28 156.154 192.84C158.714 195.347 159.994 199.4 159.994 205V213C159.994 218.6 158.714 222.68 156.154 225.24C153.647 227.747 149.594 229 143.994 229H124.794V245H110.394V189ZM145.594 205C145.594 201.8 143.994 200.2 140.794 200.2H124.794V217.8H140.794C143.994 217.8 145.594 216.2 145.594 213V205ZM167.191 189H200.791C206.391 189 210.444 190.28 212.951 192.84C215.511 195.347 216.791 199.4 216.791 205V212.2C216.791 216.627 216.044 220.067 214.551 222.52C213.111 224.973 210.791 226.6 207.591 227.4L217.591 245H201.991L192.791 228.2H181.591V245H167.191V189ZM202.391 205C202.391 201.8 200.791 200.2 197.591 200.2H181.591V217H197.591C200.791 217 202.391 215.4 202.391 212.2V205ZM269.169 245H224.769V189H269.169V200.2H239.169V211H262.769V222.2H239.169V233.8H269.169V245ZM285.55 245H269.95L291.15 189H307.15L328.35 245H312.75L309.15 235H289.15L285.55 245ZM292.75 224.6H305.55L299.15 205.8L292.75 224.6ZM363.547 189C369.574 189 374.134 190.573 377.227 193.72C380.374 196.813 381.947 201.373 381.947 207.4V226.6C381.947 232.627 380.374 237.213 377.227 240.36C374.134 243.453 369.574 245 363.547 245H332.347V189H363.547ZM367.547 207.4C367.547 202.6 365.147 200.2 360.347 200.2H346.747V233.8H360.347C365.147 233.8 367.547 231.4 367.547 226.6V207.4ZM388.245 233.4C402.858 234.2 412.752 234.6 417.925 234.6C419.152 234.6 420.112 234.253 420.805 233.56C421.552 232.813 421.925 231.827 421.925 230.6V223.4H403.525C397.925 223.4 393.845 222.147 391.285 219.64C388.778 217.08 387.525 213 387.525 207.4V205C387.525 199.4 388.778 195.347 391.285 192.84C393.845 190.28 397.925 189 403.525 189H431.605V200.2H406.725C403.525 200.2 401.925 201.8 401.925 205V206.6C401.925 209.8 403.525 211.4 406.725 211.4H421.125C426.352 211.4 430.192 212.627 432.645 215.08C435.098 217.533 436.325 221.373 436.325 226.6V230.6C436.325 235.827 435.098 239.667 432.645 242.12C430.192 244.573 426.352 245.8 421.125 245.8C418.405 245.8 415.525 245.747 412.485 245.64L405.125 245.32C399.685 245.053 394.058 244.68 388.245 244.2V233.4Z" fill="black"/>
<path d="M241.2 324.4H254.8V335.6H241.2V349.2H230V335.6H216.4V324.4H230V310.8H241.2V324.4ZM300.388 371.6H285.988V302H300.388V371.6ZM331.556 335.6V324.4H364.356V335.6H331.556Z" fill="black"/>
<defs>
<filter id="filter0_d" x="0" y="0" width="581" height="598.255" filterUnits="userSpaceOnUse" color-interpolation-filters="sRGB">
<feFlood flood-opacity="0" result="BackgroundImageFix"/>
<feColorMatrix in="SourceAlpha" type="matrix" values="0 0 0 0 0 0 0 0 0 0 0 0 0 0 0 0 0 0 127 0"/>
<feOffset dy="4"/>
<feGaussianBlur stdDeviation="2"/>
<feColorMatrix type="matrix" values="0 0 0 0 0 0 0 0 0 0 0 0 0 0 0 0 0 0 0.25 0"/>
<feBlend mode="normal" in2="BackgroundImageFix" />
<feBlend mode="normal" in="SourceGraphic" result="shape"/>
</filter>
<filter id="filter1_d" x="277.091" y="98" width="261.909" height="435.23" filterUnits="userSpaceOnUse" color-interpolation-filters="sRGB">
<feFlood flood-opacity="0" result="BackgroundImageFix"/>
<feColorMatrix in="SourceAlpha" type="matrix" values="0 0 0 0 0 0 0 0 0 0 0 0 0 0 0 0 0 0 127 0"/>
<feOffset dy="4"/>
<feGaussianBlur stdDeviation="2"/>
<feColorMatrix type="matrix" values="0 0 0 0 0 0 0 0 0 0 0 0 0 0 0 0 0 0 0.25 0"/>
<feBlend mode="normal" in2="BackgroundImageFix" />
<feBlend mode="normal" in="SourceGraphic" result="shape"/>
</filter>
</defs>
</svg>
