<svg xmlns="http://www.w3.org/2000/svg" height="261.96" width="197.951"><path d="M28.947 228.36c0 1.44-.12 4.08-3.12 5.04a12.373 12.373 0 0 1-3 .36h-2.4v-15.72h3.6c1.92.12 3.96.12 4.56 1.92a17.516 17.516 0 0 1 .36 2.4v6Zm-8.4 9.6h2.52c3.24.12 6 .48 7.08 3.24a12.815 12.815 0 0 1 .36 3v6.48c0 3.12-.24 4.56-1.44 5.52-.72.6-1.56.84-3.84.96h-4.68Zm12.12-1.08a7.061 7.061 0 0 0-2.4-1.32 5.971 5.971 0 0 0 2.88-3.48 11.947 11.947 0 0 0 .36-3.24v-6.96c-.12-1.92-.24-4.08-1.68-5.64a7.58 7.58 0 0 0-5.88-2.28h-9.36a.802.802 0 0 0-.72.84v45.96c0 .48.24.84.72.84h9.6a9.594 9.594 0 0 0 6.48-2.16c2.16-2.04 2.52-4.44 2.52-7.08v-7.92c0-2.64 0-5.52-2.52-7.56Zm19.68-13.44v7.2c0 .96 0 3-2.28 3.72a5.774 5.774 0 0 1-2.52.48h-5.16v-16.8h5.28a6.406 6.406 0 0 1 3 .6c1.56.84 1.56 2.88 1.68 4.8Zm-1.32 15.12c.36-.12.6-.24.96-.36a7.574 7.574 0 0 0 4.8-5.28 11.617 11.617 0 0 0 .36-3.12v-7.56c-.12-1.32-.12-4.44-2.76-6.6-2.16-1.68-4.56-1.68-6.96-1.8h-9a.672.672 0 0 0-.6.72v46.08a.672.672 0 0 0 .6.72h3.24a.692.692 0 0 0 .72-.72v-21.72h3.84l8.16 21.96a.746.746 0 0 0 .72.48h3.36a.774.774 0 0 0 .72-.72c0-.24 0-.36-.12-.48Zm13.44-14.52c0-2.64.72-4.44 2.4-5.52a5.349 5.349 0 0 1 3.12-.96 5.12 5.12 0 0 1 2.76.72 4.92 4.92 0 0 1 1.8 1.8c.84 1.68 1.08 3.84 1.08 7.44v22.44c-.12 2.4-.24 5.04-2.4 6.6a4.7 4.7 0 0 1-3.12 1.08 5.15 5.15 0 0 1-5.04-3.12 16.126 16.126 0 0 1-.48-5.04Zm12-8.88a10.757 10.757 0 0 0-6.36-1.8h-.24c-4.44 0-8.04 2.28-9.24 6a21.269 21.269 0 0 0-.84 4.8v26.64c.12 2.52.24 5.4 2.28 8.04 2.28 2.76 6.12 3.12 7.68 3.12 5.64 0 7.92-3 8.64-4.32 1.32-2.04 1.44-4.08 1.56-6.48v-25.32c.12-3.72.12-8.04-3.48-10.68Zm10.92 8.88c0-2.64.72-4.44 2.28-5.52a5.541 5.541 0 0 1 3.12-.84 4.606 4.606 0 0 1 2.88.72 4.921 4.921 0 0 1 1.8 1.8c.84 1.56.96 3.84.96 7.44v22.32c0 2.52-.12 5.16-2.28 6.72a4.619 4.619 0 0 1-3.12.96 5.369 5.369 0 0 1-5.16-3 16.127 16.127 0 0 1-.48-5.04Zm11.88-8.88a10.376 10.376 0 0 0-6.24-1.8h-.24c-4.56 0-8.04 2.28-9.36 6a20.22 20.22 0 0 0-.72 4.8v26.64c.12 2.64.12 5.52 2.16 8.16 2.4 2.76 6.12 3 7.8 3 5.52 0 7.92-3 8.64-4.32 1.32-2.04 1.44-4.08 1.56-6.36v-25.44c0-3.72 0-8.04-3.6-10.68Zm16.2 17.52 9.6-18.12a.545.545 0 0 0 0-.6.66.66 0 0 0-.6-.36h-3.6a.66.66 0 0 0-.6.36l-10.2 19.8V214.2a.692.692 0 0 0-.72-.72h-3.24a.774.774 0 0 0-.72.72v46.08a.692.692 0 0 0 .72.72h3.12a.793.793 0 0 0 .84-.72V243l2.52-4.8 7.8 22.32a.987.987 0 0 0 .72.48h3.48a.802.802 0 0 0 .72-.84c0-.12-.12-.24-.12-.36Zm27.6 24.36h-11.28v-42.48a.774.774 0 0 0-.72-.72h-3.24a.774.774 0 0 0-.72.72v46.08a.774.774 0 0 0 .72.72h15.24a.774.774 0 0 0 .72-.72v-2.88a.774.774 0 0 0-.72-.72Zm17.16-43.2h-3.48a.81.81 0 0 0-.72.48l-6.6 19.68-6.6-19.68a.658.658 0 0 0-.72-.48h-3.36a.66.66 0 0 0-.6.36 1.082 1.082 0 0 0-.12.6l9 25.56v20.28a.802.802 0 0 0 .84.72h3.12a.692.692 0 0 0 .72-.72v-20.28l9.36-25.56a.545.545 0 0 0 0-.6 1.595 1.595 0 0 0-.84-.36Zm21.24 0h-3.24a.623.623 0 0 0-.48.24.91.91 0 0 0-.24.48l.24 33.6c0 .96.12 1.8.12 2.76v1.56l-9.6-38.04a.643.643 0 0 0-.6-.6h-4.8a.774.774 0 0 0-.72.72v46.08a.692.692 0 0 0 .72.72h3.12c.24 0 .36 0 .48-.12.12-.24.24-.36.24-.6l-.24-32.64v-4.44l9.24 37.32a.658.658 0 0 0 .72.48h4.8a.793.793 0 0 0 .84-.72v-46.08a.6.6 0 0 0-.6-.72Zm16.44-186.48V21.6l-2.28-1.2c-1.68-.84-40.92-20.4-95.4-20.4h-2.52c-54.48 0-93.72 19.56-95.28 20.4l-2.4 1.2v5.64c-.36 23.16 2.4 82.08 38.4 127.8 29.16 37.2 56.64 45.72 59.64 46.56l1.2.36 1.2-.24c1.2-.36 29.16-8.52 59.16-46.56 35.88-45.72 38.76-104.64 38.28-127.8Z"/><path d="M99.267 195.84c-2.28-.6-28.2-8.64-56.28-44.28C6.147 104.64 6.027 43.32 6.267 28.8v-3.12a.118.118 0 0 0 .12-.12v-.12l.84-.36c2.04-.84 6.36-2.76 12.72-5.04a228.386 228.386 0 0 1 78-13.8h2.52a227.793 227.793 0 0 1 77.64 13.8c6.36 2.28 10.8 4.2 12.72 5.04l.84.36v.12l.12.12v3.12c.36 14.52.24 75.84-36.72 122.76-28.08 35.64-53.64 43.68-55.8 44.28Zm57.6-42.72c35.28-44.76 38.04-102.48 37.56-125.16v-4.2l-.72-.36c-1.56-.84-40.08-19.92-93.48-19.92h-2.64c-53.4 0-91.8 19.08-93.48 19.92l-.72.36v3.96c-.48 22.8 2.28 80.52 37.56 125.28 28.44 36.24 54.84 44.64 57.84 45.36l.36.12.36-.12c1.32-.24 28.08-8.16 57.36-45.24Z" fill="#fff"/><path d="M167.187 54.6c-13.08-13.56-14.52-15.72-14.52-21.36 0-5.52 2.4-6.24 4.8-6.24a16.921 16.921 0 0 1 4.44.72c9.48 2.76 9.48 7.92 9.48 11.76V45a1.069 1.069 0 0 0 .6.96c2.4.72 3.48 1.2 5.88 2.04a.726.726 0 0 0 .96-.12.906.906 0 0 0 .48-.84v-4.56c0-5.76 0-15.48-16.92-20.4-11.88-3.36-18 .24-18 10.56 0 8.52 5.28 13.56 14.04 22.08l1.68 1.68c10.32 10.2 12.36 13.44 12.36 19.8 0 2.4-.36 3.96-1.08 4.92-.72 1.08-1.8 1.44-3.6 1.44a18.953 18.953 0 0 1-5.16-.84c-4.56-1.32-7.8-3.12-9.84-5.28-2.4-2.64-2.4-4.92-2.4-9.48v-4.8c0-.48-.24-.96-.72-.96-2.64-.6-3.84-.84-6.24-1.32a.795.795 0 0 0-.84.24 1.792 1.792 0 0 0-.36.84v8.64c0 8.04 6.72 14.28 19.2 17.88a32.248 32.248 0 0 0 9.24 1.56c9.72 0 9.72-8.04 9.72-11.4.12-8.88-4.44-14.04-13.2-23.04Zm-26.4-36.84a224.136 224.136 0 0 0-37.92-3.6.9.9 0 0 0-1.08 1.08v3.84a1.16 1.16 0 0 0 1.08 1.08c5.88 0 9 .24 14.64.6v56.88a1.05 1.05 0 0 0 .96 1.08c2.52.24 3.72.24 6.24.6h.12a.66.66 0 0 0 .6-.36.726.726 0 0 0 .36-.72V21.6c5.64.6 8.88 1.08 14.76 2.16a1.143 1.143 0 0 0 .84-.24 1.09 1.09 0 0 0 .36-.84v-3.84a1.465 1.465 0 0 0-.96-1.08Zm-44.28-3.48a203.64 203.64 0 0 0-31.92 2.88.946.946 0 0 0-.96.96V79.8a1.369 1.369 0 0 0 .36.72 1.706 1.706 0 0 0 .72.24h.12A214.12 214.12 0 0 1 96.387 78a1.058 1.058 0 0 0 .96-1.08v-3.84a1.037 1.037 0 0 0-.36-.72.726.726 0 0 0-.72-.36 202.481 202.481 0 0 0-24.48 1.8V49.44a180.456 180.456 0 0 1 20.04-1.68.883.883 0 0 0 .96-.96v-3.84a1.706 1.706 0 0 0-.24-.72.882.882 0 0 0-.72-.24 180.7 180.7 0 0 0-20.04 1.56v-21.6a183.988 183.988 0 0 1 24.6-1.8.98.98 0 0 0 1.08-.96v-3.84a.726.726 0 0 0-.36-.72.66.66 0 0 0-.6-.36Zm-40.92 4.44c-2.4.48-3.6.72-6 1.32a.927.927 0 0 0-.84.96l.48 44.76c0 3 .12 5.76.24 8.28-6-15.6-12.36-31.68-18.84-47.88a1.052 1.052 0 0 0-1.2-.6c-3.6 1.2-5.4 1.8-8.88 3.24a1.045 1.045 0 0 0-.72.96v61.68a.81.81 0 0 0 .48.72c.12.24.36.24.6.24a.44.44 0 0 0 .36-.12c2.16-.84 3.36-1.2 5.52-2.04a.913.913 0 0 0 .72-.96c-.12-14.52-.12-29.16-.24-43.68 0-3.84 0-6-.12-8.76 6.24 16.2 12.48 31.92 18.36 46.92a.896.896 0 0 0 1.2.6c3.72-.84 5.64-1.32 9.36-2.04a1.018 1.018 0 0 0 .84-.96V19.68a1.296 1.296 0 0 0-.36-.84 1.354 1.354 0 0 0-.96-.12Zm78 139.56c-.6.48-1.2.84-1.92 1.32-1.68 1.2-3.48 2.16-5.16 3.24a28.693 28.693 0 0 1-2.52 1.56c-6.12 3.84-13.56 8.04-21.36 10.44a55.63 55.63 0 0 1-6.48 1.56 29.44 29.44 0 0 1-5.52.48h-.36a41.158 41.158 0 0 1-6.72-.6 47.244 47.244 0 0 0 26.52 1.32 46.518 46.518 0 0 0 14.28-6.24 30.976 30.976 0 0 0 9.48-13.2c-.12 0-.24 0-.24.12Zm-41.76 16.32a41.787 41.787 0 0 0 14.4-4.44 12.498 12.498 0 0 0 2.16-1.2c.6-.24 1.2-.6 1.8-.84 4.2-2.16 8.64-4.56 14.04-7.56 2.04-.96 3.84-2.04 5.76-3.12l2.16-1.2c.84-.48 1.68-.84 2.4-1.32.12-.12.12-.12.24-.12a45.895 45.895 0 0 0 1.44-8.28c-5.4 2.64-13.44 5.04-25.2 7.44-15 3-29.76 1.68-42.96-3.96-8.88-3.72-13.08-8.88-14.76-11.64a48.16 48.16 0 0 0 1.08 6 46.582 46.582 0 0 0 19.2 27v-.12l1.2.72a20.657 20.657 0 0 0 3.96 1.68 34.898 34.898 0 0 0 8.64 1.2c1.44 0 2.88-.12 4.44-.24Zm47.04-19.44c-.12-.12-.12-.12-.24-.12a2.312 2.312 0 0 0-1.08.36c-.12.12-.24.24-.36.24-.12.12-.24.12-.36.24a38.38 38.38 0 0 1-4.44 8.52 42.66 42.66 0 0 0 6.6-8.88h-.12Zm1.8-11.4c-.24.24-.36.24-.48.48a3.731 3.731 0 0 0-.72.48 41.197 41.197 0 0 1-1.68 8.52c1.44-.48 2.04.12 2.16.48 0 .12 0 .12.12.12a43.553 43.553 0 0 0 4.56-15 11.839 11.839 0 0 1-3.96 4.92Zm-1.2-2.4c.12-.12.24-.12.36-.24a14.359 14.359 0 0 0 5.04-7.68 42.89 42.89 0 0 0-1.44-11.04.623.623 0 0 0-.24-.48 14.994 14.994 0 0 1-4.92 9.36 41.334 41.334 0 0 1 1.2 10.08Zm-68.76 5.52c10.92 3.6 16.92 4.68 24.84 4.68 2.88 0 6.24-.12 10.32-.48 11.64-.96 23.88-4.8 30.48-8.04a52.083 52.083 0 0 0-.96-9.6 12.328 12.328 0 0 1-6.84 1.68c-2.76 0-6-.48-11.4-1.8-6.36-1.56-15.36-6.96-23.4-11.64-4.32-2.64-8.52-5.04-11.88-6.72-13.08-6.48-20.52-5.52-22.44-5.16a45.347 45.347 0 0 0-6.36 26.28c.96 1.2 5.4 6.72 17.64 10.8Zm6.72-37.32a175.556 175.556 0 0 1 16.32 8.28c9.72 5.16 19.68 10.56 26.52 12.24 6 1.56 10.92 1.32 14.4-.36v-.24c-.12-.24-.12-.48-.24-.72-2.88-12.36-18.36-39.48-45.24-39.48-1.08 0-2.16.12-3.36.12a45.116 45.116 0 0 0-24.72 17.64 15.311 15.311 0 0 1 3.96-.6c3.48.12 7.56 1.2 12.36 3.12Zm60 18.24a13.594 13.594 0 0 0 1.56-2.4c3.24-6.24.48-13.2-.84-15.6a46.068 46.068 0 0 0-43.68-21.84c18.36.96 36.12 17.4 42.96 39.84Z" fill="#fff"/><path d="M117.027 142.56c0-3.36 0-8.28-3.96-12.12a8.663 8.663 0 0 0 1.08-2.4 16.867 16.867 0 0 0 .72-5.64v-9.36c-.12-3.48-.6-7.08-3.48-10.2-2.52-2.88-6.36-4.44-10.92-4.44h-12.48a5.486 5.486 0 0 0-3.72 1.56 5.081 5.081 0 0 0-1.44 3.6l.12 60.48a4.983 4.983 0 0 0 2.52 4.44 5.34 5.34 0 0 0 2.76.84h12.72a16.694 16.694 0 0 0 11.4-3.96h.12c4.2-3.72 4.56-8.16 4.68-12.36v-.12Z" fill="#fff"/><path d="M100.227 127.68c-.96.36-1.56.36-3.84.48h-2.4c-.36 0-.48-.12-.48-.48v-19.44a.44.44 0 0 1 .48-.48h3.84a10.624 10.624 0 0 1 4.92.84 2.58 2.58 0 0 1 1.08 1.44 12.22 12.22 0 0 1 .48 3.24v8.16c-.12 1.8-.24 5.04-4.08 6.24Zm4.44 31.32c-.96.72-2.16 1.08-5.04 1.2h-5.4a.672.672 0 0 1-.6-.72v-24.12c0-.12 0-.36.36-.36h2.52c2.64.12 5.4.24 7.2 1.44a5.017 5.017 0 0 1 2.16 2.76 13.483 13.483 0 0 1 .48 3.84v8.88c.12 3.96-.12 5.88-1.68 7.08Zm9.12-15.96c0-3.48 0-7.56-3.48-10.44a9.591 9.591 0 0 0-2.64-1.56 8.491 8.491 0 0 0 3.36-4.56 14.304 14.304 0 0 0 .6-4.56v-9.6c-.12-2.64-.36-5.76-2.64-8.16-1.8-2.04-4.8-3.12-8.4-3.12h-13.08a1.466 1.466 0 0 0-1.08.48 1.675 1.675 0 0 0-.36 1.08v63a1.829 1.829 0 0 0 .72 1.32 1.734 1.734 0 0 0 .84.24h13.2a13.966 13.966 0 0 0 9.36-3.12c3.12-2.88 3.48-6.24 3.6-10.08Z"/></svg>