<svg xmlns="http://www.w3.org/2000/svg" height="261.74" viewBox="0 0 270.047 261.739" width="270.05"><path fill="#a1a1a4" d="M263.87 42.231c-6.069 15.967-14.016 32.657-17.99 39.521-6.72 11.488-20.086 18.352-27.888 21.025 0 0-3.83 9.248-7.803 14.306h15.967v21.675l15.317 7.297-15.317 7.659v18.352l-14.811 9.103s-11.777-1.445-17.557-2.095l-46.818 27.094c-9.248 42.411-11.632 54.621-11.632 54.621s-2.24-11.632-11.632-54.621l-46.823-27.09c-5.708.65-17.557 2.095-17.557 2.095l-14.811-9.103v-18.352l-15.317-7.587 15.317-7.297v-21.82h15.967c-3.901-4.84-7.875-14.45-7.875-14.45-4.624-1.59-9.248-3.685-13.222-6.213-6.358-3.974-11.488-9.248-14.811-14.667C18.649 70.34 11.063 53.506 7.017 42.163 4.27 35.299.947 24.823.947 24.823s8.743 4.118 11.344 5.419C8.173 17.67 4.488 1.052 4.488 1.052s59.895 39.522 101.94 73.118l.65-.506v-2.24c0-.506 0-1.3.29-2.384.505-1.445 1.589-3.035 3.973-4.624-3.035-2.384-8.742-6.07-9.248-6.72-3.974-3.54-4.769-7.513-4.48-9.392l.65-4.48 22.76 16.907c12.427-3.54 21.169-1.879 27.744 0l22.759-16.906.65 4.48c.289 2.094-.29 5.924-4.48 9.392-.505.505-6.069 4.335-9.248 6.719 2.53 1.59 3.54 3.179 3.974 4.624.29 1.084.29 1.878.29 2.384v2.24l.65.506c43.132-34.391 102.09-73.045 102.09-73.045s-3.035 13.728-7.804 29.189c2.385-1.084 11.343-5.42 11.343-5.42-1.59 8.382-5.13 17.34-5.13 17.34z"/><path fill="#1d1160" class="st0" d="M66.483 119.61H47.337v20.736l-11.488 5.563 11.488 6.07v18.351l12.716 7.803c4.624-.65 10.548-1.445 17.557-2.095l48.913 28.178 8.959 40.966c0-.144 9.104-40.966 9.104-40.966l48.912-28.178c6.864.795 12.933 1.445 17.557 2.095l12.572-7.803v-18.352l11.488-5.924-11.488-5.708V119.61h-19.146s3.035-2.89 6.72-9.248c1.59-2.673 3.034-6.07 4.768-9.898 13.872-4.119 24.06-13.077 28.54-21.675 11.92-21.675 20.88-48.408 20.88-48.408s-5.13 2.528-11.344 5.563c4.913-15.317 8.092-28.394 8.092-28.394S207.3 43.892 164.455 77.994l-3.685-2.24c0-.289.145-3.323.145-3.685 0 0 .506-3.54-5.925-5.708-.505-.144-.794-.289-1.083-.289 3.034-2.384 7.947-5.924 11.343-8.308 5.563-3.83 4.913-8.092 4.913-8.092l-20.374 15.172c-15.606-5.13-28.683 0-28.683 0l-20.374-15.172s-.65 4.118 4.913 8.092c3.54 2.384 8.453 5.924 11.488 8.308-.29.145-.795.29-1.084.29-6.358 2.24-5.925 5.707-5.925 5.707 0 .29.145 3.324.145 3.685l-3.685 1.879C63.721 43.612 8.956 7.343 8.956 7.343s3.035 13.077 8.092 28.394c-6.72-3.18-11.343-5.564-11.343-5.564s8.887 26.805 20.736 48.408c4.335 8.743 14.667 17.557 28.539 21.675 0 0 2.384 5.42 4.335 9.248 2.529 4.913 7.153 10.115 7.153 10.115z"/><path fill="#00788c" d="M251.37 22.506c-39.45 24.131-74.63 51.226-92.99 66.037-.14.65-.5 1.301-.65 1.734 19.3-12.571 52.75-34.392 90.32-58.812 0 0 0 .795 3.32-8.959zm-232.07.072c3.179 9.537 3.324 8.959 3.324 8.959 37.57 24.204 71.238 46.241 90.533 58.813-.36-.506-.51-1.157-.65-1.807C94.368 73.732 59.109 46.637 19.3 22.578zm116.64 44.381c-3.11-.018-6.38.342-9.64 1.137 3.4 4.768 2.9 11.488 2.9 11.488-1.31-6.069-5.28-8.887-7.66-10.188-.94.289-2.03.579-3.33 1.084 2.53 1.012 5.57 3.541 7.66 8.309 1.01 2.384 1.59 11.489 6.72 13.729-4.26 3.973-9.54 2.889-13.51-.651 4.91 10.693 13.22 14.813 16.4 16.113 2.82-2.17 4.26-8.743 2.89-15.462 5.13-2.24 5.78-11.345 6.72-13.729 2.1-4.985 5.13-7.225 7.66-8.309-1.08-.289-2.24-.795-3.32-1.084-2.39 1.229-6.36 4.263-7.66 10.188 0 0-.44-6.72 2.89-11.488-2.64-.723-5.6-1.119-8.72-1.137zm72.01 34.591-3.69 1.08c-12.42 3.32-35.83 6.5-35.83 6.5 11.27.15 21.02 1.09 26.44 1.74 1.16-1.45 2.53-3.04 3.04-4.48 0 0-.51 4.26-1.45 7.01-1.07 3.52-2.58 6.49-3.14 7.15.96-.71 9.64-7.4 14.63-19zm-14.63 19-.18.14c.03.01.1-.04.18-.14zM62.8 101.62c5.419 12.43 14.812 19.15 14.812 19.15s-1.879-3.33-3.324-7.3c-.939-2.67-1.445-7.01-1.445-7.01.506 1.3 1.951 3.04 3.035 4.48 5.419-.65 15.1-1.44 26.445-1.73 0 0-23.555-3.33-35.838-6.51l-3.685-1.08zm19.435 63.58c-1.734.15-3.322.29-4.912.51l33.31 19.29c-1.81-1.95-3.25-3.83-4.48-5.93L82.235 165.2zm106.43 0-23.92 13.87c-1.08 2.1-2.53 3.98-4.48 5.93l33.31-19.29c-1.59-.22-3.18-.36-4.91-.51zm-55.27 1.16c-6.72.14-11.78.94-15.32 1.87.79.94 1.73 1.74 2.53 2.53 3.97 3.83 7.51 5.57 7.51 10.84 0 1.59-.79 3.04-1.88 4.12-.65.94-1.95 1.59-3.03 2.24-.29.22-.8.36-1.08.5 4.47 2.75 7.65 3.83 8.95 4.34 0 0-2.52.43-5.56.14 1.01 1.59 1.95 3.04 2.89 4.77.8-.29 3.32-1.73 6.86-1.73 3.69 0 6.07 1.44 6.58 1.73.79-1.73 1.95-3.18 2.89-4.77-2.89.51-5.56-.14-5.56-.14 1.3-.51 4.62-1.45 8.95-4.34-.28-.21-.79-.36-1.08-.5-.94-.51-2.09-1.3-3.03-2.24-1.09-1.08-1.88-2.38-1.88-4.12 0-5.13 3.54-7.01 7.51-10.84.8-.79 1.59-1.73 2.53-2.53-3.68-.93-8.6-1.73-15.32-1.87l-1.73 22.18h-.15l-1.58-22.18zm-17.34 2.24c-3.33 1.3-5.28 2.53-6.36 3.32 2.38 2.24 6.86 5.13 14.81 6.86-.87-2.38-3.4-4.98-6.07-7.8l-2.38-2.38zm38.72.14-2.38 2.38c-2.6 2.68-5.13 5.28-6.07 7.81 8.09-1.74 12.43-4.63 14.81-6.87-.94-.93-3.04-2.24-6.36-3.32zm-44.94 6.14c2.24 4.34 5.42 8.31 9.39 10.84.15.07 4.63-1.37 5.57-3.32-10.55-2.39-14.96-7.52-14.96-7.52zm51.3.07s-4.34 5.28-14.96 7.52c.94 1.88 5.57 3.32 5.57 3.32 3.97-2.89 7.3-6.5 9.39-10.84z"/><path fill="#fff" d="M248.41 31.393c-37.57 24.348-71.1 46.241-90.31 58.812-.8 2.095-1.59 3.829-2.53 5.563l75.86-41.254-59.1 42.699 2.89-.506 31.21-3.035s21.17-2.095 33.02-17.846c5.56-8.598 14.95-33.306 14.95-33.306l-13.94 7.007c4.48-10.548 7.95-18.134 7.95-18.134zm-225.78.144s3.323 7.442 7.947 17.99l-13.654-6.863s9.392 24.709 14.883 33.307c11.849 15.75 33.017 17.845 33.017 17.845l31.213 3.036 2.889.505-59.1-42.699 75.648 41.254a43.522 43.522 0 0 1-2.53-5.562A25881.776 25881.776 0 0 0 22.63 31.537zM123.78 84.93c.07 0-5.06 8.599 4.48 8.093 0 0-3.83-2.53-4.48-8.093zm23.62 0c-.65 5.563-4.48 8.093-4.48 8.093 9.4.506 4.48-8.093 4.48-8.093zm-63.289 30.42v8.31l1.157 1.08h5.707v-3.03h-2.239v.93h-2.168v-5.05h2.168v.65h2.239v-2.89h-6.864zm12.139 0v9.39h2.24v-3.03h2.67v3.03h2.24v-9.39h-2.24v4.26h-2.67v-4.26h-2.24zm12.28 0v9.25h2.39v-3.04h2.74v3.04h2.17v-8.17l-1.08-1.08h-6.22zm7.3 9.25v.14l.07-.14h-.07zm18.5-9.25v9.39h5.78v-2.1h-3.4v-7.29h-2.38zm10.4 0v8.31l1.08 1.08h6.22v-8.31l-1.09-1.08h-6.21zm12.43 0v2.24h2.09v7.15h2.53v-7.15l1.88-.15v-2.09h-6.5zm11.27 0v2.24h2.09v7.15h2.53v-7.15l1.74-.15v-2.09h-6.36zm11.77 0v9.39h6.87v-2.1h-4.63v-1.44h4.63v-2.17h-4.63v-1.44h4.63v-2.24h-6.87zm-58.95.21v9.25h2.38v-3.25h1.74l1.44 3.18h2.39l-1.52-3.18h.94v-4.91l-1.09-1.09h-6.28zm-10.33 1.81h2.74v2.24h-2.74v-2.24zm12.71.07h2.75v1.88h-2.75v-1.88zm23.34.08h2.67v5.12h-2.67v-5.12zm48.41 7.08 2.53 2.89v15.17l13.22 5.71v8.45s-3.04-.29-6.87-.94v-2.67l-6.35-.8v8.6c7 .79 13.51 1.73 19.57 2.89-.14-4.77-.14-11.78-.14-15.25 2.1-.93 3.97-1.87 5.93-2.88-6.36-3.04-12.72-5.57-19.3-8.1v-7.29h6.87v2.67h6.5v-8.45h-21.96zm-142.26.14v18.79s-5.275 2.52-5.275 2.67l5.275 2.74v15.32c2.095-.29 4.118-.79 6.358-1.08v-14.67l7.296-3.03v16.4c2.096-.29 4.118-.65 6.358-.8v-36.34h-6.358v13.08l-7.296 3.03v-16.11H53.12zm47.393 5.42 2.53 3.03v25.15c2.24-.15 4.12-.15 6.36-.29v-9.76h-.07c1.59 0 3.03-.14 4.77-.14 1.3 3.03 2.38 6.5 3.53 9.54 2.24 0 4.12-.15 6.36-.15-1.3-3.03-2.38-6.5-3.54-9.54h2.53v-14.95l-2.89-2.89h-19.58zm-24.924.14 2.385 2.89v23.92l2.529 3.03c5.563-.65 11.632-1.08 17.701-1.44v-25.36l-3.035-3.04h-19.58zm100.5 0v5.93h5.56v23.12c2.38.14 4.62.29 7.01.65v-23.77h5.56v-5.93h-18.13zm-50.72.08 2.52 3.03v24.35h6.51c-.07-.22-.07-21.53-.07-21.53h7.29v21.38c2.24 0 4.48 0 6.72.15v-24.35l-3.03-3.03h-19.94zm25.5.14 2.38 3.03v24.57c6.51.14 13.08.51 19.29.94v-6.5h-.14v-.08c-4.12-.14-8.31-.5-12.43-.65v-4.48c4.12.15 8.31.29 12.43.51v-6.36c-4.12-.14-8.31-.14-12.43-.29v-4.76h12.43v-5.93h-21.53zm-66.542 5.71h7.297v16.54c-2.529.15-4.768.29-7.297.51v-17.05zm25.002 0h7.29v5.71c-2.52 0-4.77 0-7.29.14v-5.85zm26.01 66.25c-3.04 0-3.83.8-4.77 1.45l4.91 19.72 4.63-19.58c-.65-.79-1.74-1.59-4.77-1.59z"/></svg>