<svg xmlns="http://www.w3.org/2000/svg" xml:space="preserve" height="257.93" viewBox="0 0 127 257.935" width="127"><g fill-rule="evenodd"><path d="m66.817 1.092-3.02 6.628c-2.54 5.561-3.744 11.394-4.34 17.369-.577 5.847-.577 12.001-.608 18.48l-.476 51.519c-18.586 7.7-35.943 18.862-46.257 27.359-.23.364-5.224 8.078-8.062 12.478l13.94-3.438-3.238 4.083c-19.618 24.64-12.855 40.355-12.022 42.07l.047.095.038.095c2.036 5.694 6.72 10.056 13.94 12.943 4.747 1.89 10.616 2.645 17.94 2.298 7.366-.34 15.1-1.962 22.82-4.454l-.039 5.053c-6.618 3.61-11.95 9.923-14.795 17.52a32.427 32.427 0 0 0-1.928 9.43c-.024.535-.014 2.344-.209 4.805-.188 2.322-.57 5.254-1.415 8.195l-.465 1.662-1.747 4.093c.17.693 4.9-.896 7.027-1.662.322-.115.796-.318 1.434-.664 1.13-.632 2.601-1.671 4.406-3.41 1.094-1.057 2.08-2.274 2.906-3.38.802-1.07 1.543-2.133 2.194-3.02.93-1.282 1.796-2.573 2.659-3.789l.066 10.959.038 7.283v1.956a18.61 18.61 0 0 0-1.13 1.833c-.978 1.8-3.376 7.648-3.637 10.93-.06.784 2.255.67 5.622.475.461-.018 1.125-.08 1.927-.19 1.544-.207 3.624-.588 5.726-1.244 3.768-1.173 9.807-3.875 10.646-9.952l.304-2.156.133-1.101c7.457-6.875 9.49-14.265 9.192-20.446a25.651 25.651 0 0 0-.997-5.888l2.896.494 3.4.589.598-3.41c2.018-11.656-4.592-21.328-17.72-23.237v-6.675l.01-1.947c12.903-6.211 24.875-14.218 33.864-22.022l2.886-14.985c-2.06 1.143-4.567 2.431-4.567 2.431l-.076.038a504.843 504.843 0 0 1-32.107 12.753l.019-47.747c2.14-1.21 4.236-2.267 6.23-3.105 6.192-2.614 11.016-4.048 12.876-3.58 1.86.462 1.3 2.573 1.3 2.573-.57 1.793-1.27 3.627-2.468 5.973-.669 1.32-5.025 10.776-7.863 16.343 8.752-4.996 27.536-17.061 41.223-25.042v-7.691c-.62-.626-1.804-1.833-1.804-1.833-12.137-11.542-30.593-11.606-49.496-6.391l.01-46.741c.03-6.473.098-12.644-.418-18.376-.52-5.869-1.673-11.544-4.206-16.704l-3.21-6.533zM58.109 124.19l-.37 41.395c-11.883 3.592-18.6 4.541-23.59 3.38l-.057-.01-.664-.199-.057-.029a4.007 4.007 0 0 1-2.593-3.504c-.28-11.68 22.224-35.994 22.45-36.237a81.265 81.265 0 0 1 4.88-4.796z" fill="#ffb81c"/><path d="M94.983 87.822c-6.513.192-13.397 1.43-20.341 3.38v10.873c14.221-6.812 30.405-8.774 19.43 12.735l28.935-17.749c-7.347-6.99-17.169-9.56-28.024-9.24zm-36.627 9.126c-18.41 7.718-35.483 18.769-45.165 26.78 6.205-1.733 12.543-3.096 18.822-4.53-69.032 66.007 1.137 92.277 75.464 29.486-26.273 11.535-47.424 17.939-47.424 17.939-54.417 16.94-37.01-18.428-12.164-44.892 1.75-1.866 5.685-5.618 10.322-9.326l.143-15.46z" fill="#6f2633"/><path d="M106.964 158.502c-18.968 16.47-48.11 31.731-72.342 32.862-5.676.267-11.912-.067-17.236-2.188-7.275-2.911-11.304-7.117-13.024-12.04 2.242 2.954 5.664 5.494 10.55 7.451 5.325 2.127 11.566 2.456 17.237 2.188 26.152-1.221 58.01-18.89 76.645-36.782l-1.83 8.509zm-87.742-29.077c-3.775.918-7.597 1.866-11.013 2.705.48-.632 3.993-5.446 4.79-6.503 4.168-.966 8.447-1.933 12.33-2.832a123.855 123.855 0 0 0-6.107 6.63m105.33-30.993.08 6.078-35.73 21.618c.389-.39 4.424-8.187 4.655-8.734l30.996-18.962zm-46.81 4.481c-1.015.425-2.06.912-3.106 1.434v5.877a59.362 59.362 0 0 1 5.58-2.722c6.423-2.705 11.924-4.425 14.95-3.446.45-7.19-7.347-5.391-17.424-1.143m-19.55 12.268c-3.216 2.632-6.188 5.379-8.661 8.035-6.996 7.524-23.138 27.118-22.895 37.42.067 2.692 1.021 4.576 2.577 5.853-.06-.401-.09-.82-.11-1.27-.242-10.296 15.906-29.896 22.901-37.414 1.811-1.945 3.884-3.939 6.127-5.902l.06-6.722zm12.969 78.244-.006-10.132c-1.61.73-3.24 1.428-4.868 2.091l-.025 10.423c-.006 2.03-3.294 2.37-3.16.863l.06-10.064c-.735.28-1.476.553-2.211.814l-.043 8.266-.413.285c-6.443 3.015-11.797 8.965-14.477 16.118-.03.085-.067.176-.097.267a28.7 28.7 0 0 0-1.72 8.4c-.055 1.094.079 7.402-1.745 13.778.006-.025 1.69-.28 4.941-3.416 1.8-1.732 3.416-4.187 4.698-5.956 2.972-4.078 5.349-8.241 8.862-10.028l.024 3.653c.043 6.97.14 25.89.128 25.975-.025.104-3.003 3.246-3.422 8.637-.018.225 14.653-.815 15.704-8.412 0 0-2.826-1.853-2.734-1.92 20.657-14.331 9.17-31.531 9.17-31.531 5.003.717 7.78 1.197 9.105 1.428 1.799-10.393-4.376-18.944-17.771-19.54m-7.956 54.262c.025.164-1.86 1.306-3.555 3.914.748-1.945 1.629-3.902 2.923-5.586 2.11.462 4.443-.844 6.394-1.695-2.57 3.245-4.127 2.978-5.762 3.367m-.273-4.018.115-29.695c.231-.23 2.024-1.057 2.741-1.112l-.249 30.522c-.006 1.264-2.613 1.252-2.607.285m6.102-3.403c6.43-15.474 1.744-26.973 1.805-27.173 7.943 1.167 10.575 18.427-1.805 27.173m8.284-5.938c3.032-6.43 3.932-17.74-3.088-22.791l2.395.024c7.044 5.64 3.92 20.202.693 22.767m9.122-24.359c-11.553-3.16-25.064-.328-31.215 7.117-2.546 3.05-4.825 7.554-9.31 12.192.96-5.58.911-7.39 1.075-9.403.724-8.921 5.373-16.433 14.672-20.888h.018c0 .097-.006.188.006.28.182 1.464 2.237 2.418 4.6 2.126 1.903-.237 3.398-1.209 3.817-2.346a.56.56 0 0 1 .03-.048c3.331.723 6.267 2.467 7.55 4.48-5.987-.262-14.739 1.7-21.935 10.027 9.888-7.852 21.254-7.895 28.547-6.06.249-4.37-5.707-9-9.007-10.817 5.944 1.938 12.3 7.129 11.152 13.34m-23.16-46.164.578-103.775.128-27.01c.504.955 2.388 4.71 2.558 17.997l-.182 111.761a430.28 430.28 0 0 0 4.79-1.64l.048-118.49c.067-12.715.298-24.25-4.267-33.53-4.661 10.216-4.576 21.72-4.643 34.441l-1.015 120.89c.547-.17 1.216-.389 2.006-.644" fill="#041e42"/></g></svg>