<svg xmlns="http://www.w3.org/2000/svg" height="257.64" width="248.161"><path d="M239.16 132.24c1.44-3.48 6.84-16.8 6.84-16.8l-22.8 12.6c-.12.12-6.84 3.72-16.44 7.92a333.105 333.105 0 0 0 13.32-40.44c8.04-30.6 12.36-64.32 12.48-65.76l1.8-13.56s-42.96 11.88-47.04 12.96C172.08 10.8 148.56 0 123.96 0 99.12 0 75.6 10.92 60.36 29.4c-4.2-1.2-47.16-13.2-47.16-13.2L15 29.76c0 .48 4.56 35.04 12.96 66.12A368.165 368.165 0 0 0 41.4 135c-10.2-4.44-18.84-8.4-19.08-8.52L1.2 116.4s5.04 12.72 6.48 16.2c-.36 0-7.68-2.88-7.68-2.88l7.08 18.96v-.12c.48 1.44 3.48 9.48 26.28 70.8l3.24 8.4s5.04-1.68 6.6-2.16c1.2 3.36 4.56 12.24 4.56 12.24l9.24-4.68c6.96-3.6 22.08-9.72 34.2-11.64 14.52 19.8 25.8 30.12 26.4 30.48l6.24 5.64 6.12-5.64c.6-.48 12-11.16 26.16-30.36a92.494 92.494 0 0 1 31.08 10.44l9 4.92 3.96-9.36a17.005 17.005 0 0 1 .96-2.4c.72.12 5.04 1.68 5.04 1.68l3.36-8.4c.6-1.68 15.24-35.64 29.28-68.52l9.36-21.84c.12 0-9 4.08-9 4.08Z" fill="#fff"/><path d="M225 131.4a231.704 231.704 0 0 1-25.2 11.4 331.06 331.06 0 0 0 16.68-48.24c8.04-30.6 12.36-64.92 12.48-65.28l.96-8.04-7.8 2.16S126 49.92 123.24 50.76c-2.76-.72-105.6-29.4-105.6-29.4l1.08 8.04c0 .36 4.44 34.56 12.84 65.52 5.16 18.72 11.04 33.24 16.8 46.92-13.8-5.4-27.48-11.88-27.6-12l-12.48-5.88 5.04 12.72c12.24 30.6 18.48 47.4 26.4 68.76l10.08 27.24 5.4-2.76c8.16-4.08 24.84-10.68 37.8-12.36 14.76 20.64 26.52 31.2 27.12 31.68l3.6 3.36 3.6-3.36c.6-.48 12.48-11.76 27-31.68 15.12 1.56 28.08 7.68 34.68 11.28l5.4 2.88 2.28-5.52c6-14.52 35.64-87.48 36-88.2l5.76-14.16Z"/><path d="M235.8 134.88c-.24.12-24 10.2-43.44 15 7.56-17.4 14.16-33.12 20.4-56.28 8.04-30.36 12.24-64.44 12.36-64.8l.24-2.4-2.28.6s-99.12 27.36-99.96 27.6c-.72-.24-101.04-28.2-101.04-28.2l.24 2.4c.12.36 4.56 34.44 12.84 65.04 5.52 20.16 11.88 35.4 18.12 50.04 0 0 1.08 2.64 2.04 4.92-16.8-4.2-39.6-12.24-39.84-12.36l-3.24-1.08 1.2 3.12c9.96 26.52 15.12 40.68 20.52 55.8l10.92 30.24 1.44-.48a313.139 313.139 0 0 1 48.12-10.2c14.52 20.88 27.96 32.64 28.08 32.76l1.08.84 1.08-.84a228.675 228.675 0 0 0 27.84-32.64c12.84.84 36.96 6.36 46.08 9.84l1.44.6.6-1.44c6-14.4 36.96-85.32 37.2-85.92l1.56-3.72Z" fill="#fff"/><path d="m186.96 154.44 1.32-2.88c8.4-19.32 15-34.56 21.36-58.8 6.72-25.56 10.92-53.76 12-61.92-4.44 1.2-98.04 27-98.04 27l-.48.12s-92.76-25.8-97.32-27c1.2 8.28 5.4 36.48 12.48 62.28 5.4 19.92 11.76 34.92 17.88 49.56l4.44 10.68L96 210.6l.6.84c12.12 17.76 23.52 28.8 27 31.92 3.36-3.12 14.4-14.16 26.88-31.68l.48-.72Z" fill="#c4ced4"/><path d="M56.4 119.76c-.96-1.32-5.04-7.8-5.04-18.6v-.96a69.878 69.878 0 0 1-4.32-24.12c0-20.04 8.64-38.16 22.56-51.36a79.852 79.852 0 0 1 108.72 0A70.049 70.049 0 0 1 201 76.08a66.416 66.416 0 0 1-3.48 21.36 67.498 67.498 0 0 1-11.04 37.32 7.59 7.59 0 0 1-1.44 1.08h-.12c-.12.12-.12.12-.12.36 0 0-.24.84-.48 1.56l.24-.12-.36.48a72.95 72.95 0 0 1-59.04 29.52c-32.04.12-59.16-20.04-68.76-47.88Z"/><path d="M227.88 141.24c-.48.12-48.96 21-104.64 20.76-48.96-.24-104.52-21.12-105-21.36L6.6 136.2l4.2 11.16c0 .36 0 .36 26.28 70.8L39 223.2l5.16-1.56a270.015 270.015 0 0 1 78.96-12.24c33.96 0 63.6 6.96 75.84 11.16l5.16 1.68 2.04-5.04c.84-1.92 18-42 29.4-68.64l5.64-13.08Z" fill="#007dc5"/><path d="m228.36 147.96-4.92 1.8s-10.92 4.08-11.04 4.08a22.04 22.04 0 0 0-7.56 3.96 18.716 18.716 0 0 0-3.12 3.6 2.884 2.884 0 0 0 .24-.96l1.56-4.08-4.2 1.2-9.96 2.64c-.96.24-7.8 1.56-9.84 2.04l-2.28.36-11.64 2.04c-.6 0-5.04.84-7.44 3.12a17.178 17.178 0 0 0-1.32 1.8l.72-3.96-3 .36-9.36.84-.36 2.4a5.543 5.543 0 0 0-.84-.84c-1.8-1.32-4.8-1.32-5.64-1.2l-13.8.36-11.16-.12a11.113 11.113 0 0 0-6.48 2.4c-.36.36-.6.84-.96 1.2v-2.16l-.12-1.92s-11.28-1.08-11.64-1.08l-13.68-1.68.6 3 .12.84c-3.12-3.6-7.92-4.8-8.16-4.92-.12 0-14.04-3.12-14.04-3.12l.96 3.6.6 2.64a15.304 15.304 0 0 0-1.2-2.04 16.068 16.068 0 0 0-7.8-5.88c-3.48-1.2-10.44-2.88-10.68-2.88l-3.96-.96c-3.6-1.56-11.64-4.08-14.28-5.04l-4.44-1.44 1.68 4.44 23.04 62.16s9.12-2.52 9.6-2.64c0 0 9.48-2.28 10.2-2.4.36-.12 9.96-1.8 9.96-1.8v-.12c2.64-.36 7.92-1.2 8.4-1.2.48-.12 5.04-.84 7.68-1.08l9.6-.96c.96-.12 4.08-.36 5.76-1.8a4.493 4.493 0 0 0 1.44-1.56l.12 2.64 11.4-.36c.48-.12 3.48-.36 5.4-2.28a5.221 5.221 0 0 0 .72-.84l-.12 3s8.76.24 9.24.24l10.32.24 7.44.6 9.48 1.08a12.719 12.719 0 0 0 6.72-1.32c.24-.24.48-.36.72-.6l-.72 2.76 9.6 1.68v-.12c.36.12 7.08 1.32 8.64 1.56l.96.36c.24 0 5.04 1.2 8.64.72 4.44-.48 9-4.08 11.04-8.76l9.6-21.96c.12-.48 13.56-31.68 13.56-31.68Z" fill="#fff"/><path d="m143.04 201.48 6 .48 5.76-33.72-7.68.72-4.08 32.52zM168 170.76l-2.88 12 7.44-.12L177.6 165l-11.64 1.92s-4.2.72-6.12 2.64c-2.64 2.64-3.24 7.44-3.24 7.44l-4.68 25.2 7.44.84a10.673 10.673 0 0 0 5.52-.96c1.8-.84 2.88-2.88 3.48-4.68s2.4-9 2.4-9h-6.84l-1.56 7.2a7.274 7.274 0 0 1-1.2 2.76 3.663 3.663 0 0 1-3.12 1.2l4.92-22.44a19.46 19.46 0 0 1 1.92-4.68 3.707 3.707 0 0 1 3.12-1.68Zm12.96 12.6 6.36-20.4-6.6 1.44-11.52 39.84 5.16.72 5.4-16.92 1.56-.12s1.08.36 1.08 1.32a7.093 7.093 0 0 1-.48 2.16l-4.56 14.04 6 1.2L188.4 192a9.755 9.755 0 0 0 .6-3.6 6.817 6.817 0 0 0-1.2-3.24s1.2 0 2.88-1.68c1.68-1.56 1.68-2.88 2.04-4.08.48-1.2 7.2-19.56 7.2-19.56l-8.76 2.16-5.04 16.44a9.19 9.19 0 0 1-1.2 2.88c-.84 1.2-1.44 1.68-1.92 1.68a7.191 7.191 0 0 1-2.04.36Zm30.12-20.16-5.64 15.12 7.68-.36 11.04-25.92-11.04 3.96a22.42 22.42 0 0 0-6.84 3.6 30.683 30.683 0 0 0-5.64 7.92c-.6 1.44-3.12 7.08-3.48 8.88-.48 1.8-4.2 11.76-4.2 11.76h8.76l-3.72 9.96a11.01 11.01 0 0 1-1.92 4.08 5.736 5.736 0 0 1-3.48 2.04l4.92-12.72h-5.4l-5.88 15.84a25.506 25.506 0 0 0 7.68.84c3.48-.36 7.44-3.12 9.24-7.44 1.92-4.2 8.16-18.72 8.16-18.72l-10.44.6 3.24-9.24s2.16-5.4 3.72-7.2a12.5 12.5 0 0 1 3.24-3ZM21.96 151.56 44.4 211.8l6.6-1.92-16.68-48.72s2.52.24 4.68 4.08a40.277 40.277 0 0 1 3.72 9.12c.6 2.4 11.16 34.92 11.16 34.92l6.72-1.56-12.84-42.84s1.56 0 3.24 2.88a27.19 27.19 0 0 1 2.4 5.28l9.84 34.2 6.48-1.32-8.28-31.68s-1.92-5.64-3.96-8.52a12.914 12.914 0 0 0-6.72-5.16c-3.24-1.08-10.44-3-10.44-3l1.08 3.24a21.374 21.374 0 0 0-4.68-3.84c-1.8-1.08-14.76-5.4-14.76-5.4Zm52.56 33-3.6-15.6a8.709 8.709 0 0 1 3.36 1.68c1.32 1.2 1.68 4.56 1.68 4.56l1.8 9.36Zm7.44 19.2 5.64-.72-4.8-25.08s-1.08-5.52-2.52-7.8c-2.52-3.72-7.8-5.16-7.8-5.16l-10.32-2.04 10.68 42.24 6.36-.96-3.96-15.84h3.72Zm1.44-36.96 7.2 36 7.56-.84s3.6-.12 4.56-.96a5.376 5.376 0 0 0 2.04-3.96l-.84-28.08-7.44-.72 2.64 26.52s.24 2.4-.96 3.6a2.42 2.42 0 0 1-2.16.84l-3.84-31.44Zm24.48 34.44 9-.36a7.62 7.62 0 0 0 4.08-1.68 8.033 8.033 0 0 0 1.8-3.96l.12-5.04h-6.12l.12 5.04a3.36 3.36 0 0 1-.72 2.4c-.6.6-2.64.6-2.64.6v-10.2h9.36l.24-3h-9.72v-8.88a2.325 2.325 0 0 1 .72-1.92 4.15 4.15 0 0 1 2.76-.6v9.12h6.48l.84-13.08-10.8-.24a8.497 8.497 0 0 0-4.8 1.8c-2.28 2.04-1.92 6.72-1.92 6.72Zm28.68-26.76-.48 7.92a2.872 2.872 0 0 1-.48 1.56 2.015 2.015 0 0 1-.96.72l-2.16-.12.6-11.64 1.56-.12a2.379 2.379 0 0 1 1.32.36c.6.24.6 1.32.6 1.32Zm6-3.84c-1.2-1.2-4.08-1.08-4.08-1.08l-11.76.36-1.2 30.96 5.88.12.72-12.72s1.92-.6 2.88.72a2.794 2.794 0 0 1 .48 1.8l-.72 10.2 5.76.36 1.08-10.32a5.982 5.982 0 0 0-.24-3.12 3.25 3.25 0 0 0-1.8-1.56s.84 0 2.04-1.32a5.705 5.705 0 0 0 1.32-3.48l.72-7.2c-.12 0 .24-2.4-1.08-3.72Zm-5.04 44.28 7.32-1.8-7.44-.72c-.36 0-7.32-.6-10.8-.6l-3.48-10.44-1.2 3.48c-.12.24-1.68 4.56-2.52 6.96-4.08 0-9.48.48-9.6.48l-7.92.84 7.68 1.68c2.4.48 7.2 2.16 7.56 4.2-.6 2.4-2.16 6.6-2.16 6.6l-1.56 3.84s8.4-5.88 9.6-6.6c1.2.72 9.36 6.48 9.36 6.48s-3.36-9.72-3.6-10.56c.84-1.2 5.04-3 8.76-3.84Z"/><path d="M126.72 218.64c.6-2.04 4.08-3.6 6.84-4.56-2.76-.24-6.24-.48-8.04-.48h-.36s-1.44-3.96-2.16-6c-.6 1.8-1.56 4.44-1.92 5.64l-.12.48h-.48c-1.92 0-4.68.12-6.72.24 2.4 1.08 5.28 2.64 5.64 4.92v.36c-.36 1.32-1.08 3.6-1.68 5.16 1.92-1.44 5.4-3.84 5.4-3.84s3.72 2.52 5.64 3.84c-.84-2.04-2.04-5.4-2.04-5.4ZM51 76.2c0-37.92 32.76-68.76 72.96-68.76s72.96 30.84 72.96 68.76c0 37.8-32.64 68.64-72.96 68.64C83.76 144.84 51 114 51 76.2Z" fill="#fff"/><path d="m79.92 35.4 3-2.52c2.04-1.56 2.64-3.72 1.56-5.04-1.44-1.8-3.72-1.2-6.12.6l-2.4 2.04Zm-.24-5.4.12-.12c.96-.72 1.68-.84 2.28-.12.48.6.12 1.44-.72 2.04l-.12.24Zm18.36-6.96 2.16-.96.6.6 3.12-1.32-5.28-4.56L95.4 18l-.36 6.96 3.12-1.2Zm-.12-1.68-.12-1.92v-.12a3.181 3.181 0 0 0 .6.72l.72.84Zm15.36-8.4 3.12-.36.48 4.2 2.64-.24.24 2.04-5.76.6-.72-6.24zm17.88-.36 3.24.48-.72 4.2 2.64.36-.36 2.04-5.64-.84.84-6.24zm18 10.2 2.16.96-.12.84 3.12 1.44-.36-7.08-3.24-1.32-5.28 4.56 3.12 1.44Zm1.08-1.08 1.32-1.56v.12c0 .36-.12.48-.12.84l-.12 1.08ZM164.76 30l.12.24a5.034 5.034 0 0 0 1.08 1.68c.24.24.72.48.84.24s-.12-.6-.24-.72l-.48-.48c-.84-.96-1.32-1.92-.72-2.76.96-1.08 3-.6 4.44.6a10.137 10.137 0 0 1 1.8 2.16l-1.68.72a3.37 3.37 0 0 0-1.2-1.44c-.12-.24-.6-.48-.72-.24s.12.48.36.72l.36.48c.96.96 1.32 2.04.6 2.88-.96 1.08-2.88.48-4.32-.72a7.33 7.33 0 0 1-2.16-2.52Zm20.4 28.56c-.48-.36-1.44-.96-1.44-.96a1.437 1.437 0 0 1-.48-.48 7.502 7.502 0 0 0-.48-1.68 71.567 71.567 0 0 0-23.52-19.56 11.157 11.157 0 0 0-3.12-.84.918.918 0 0 1-.6-.24 7.818 7.818 0 0 0-2.76-1.8 73.143 73.143 0 0 0-27.72-5.4 70.024 70.024 0 0 0-8.76.6l3.84-5.16c-15.12-.48-26.04 11.4-26.04 11.4a79.867 79.867 0 0 0-10.44 5.76 17.1 17.1 0 0 0-10.2 9.24c-2.04 1.56-6 6.84-6 6.84a23.157 23.157 0 0 0-2.64 2.04 28.4 28.4 0 0 0-6.96 13.44.44.44 0 0 0-.12.36c-.12.36-.12.84-.24 1.32-.12.96-.36 1.8-.48 2.76l.12-.12a.526.526 0 0 1-.12.36A38.105 38.105 0 0 0 55.68 81c-.12.6-2.28 6.84-2.28 6.84-5.4 18.96 1.8 30.36 3 32.16 9.6 27.84 36.72 47.76 68.52 47.76a72.789 72.789 0 0 0 59.04-29.52 5.59 5.59 0 0 0 .48-1.8.827.827 0 0 1 .36-.6c.96-.48 1.32-.84 1.32-.96a67.499 67.499 0 0 0 11.04-37.32 66.707 66.707 0 0 0-12-39Z"/><path d="M94.8 44.88c.12-.24.36-.36.48-.48l.36-.36h.12a25.71 25.71 0 0 1 .84-6.48c6.6-9.12 17.4-11.52 17.4-11.52 1.32-.48.48.12.48.12-6.84 7.68-6.12 13.92-6.12 13.92l6.6 23.64s-5.28-1.92-9.36-10.08c-1.92 16.56 13.8 30 13.8 30 .6.6-.48-.12-.48-.12-3.84-1.92-8.4-6.12-9.6-7.2.24 1.32 7.92 39.48 8.04 39.72a2.488 2.488 0 0 0 .24.72l2.52-6.48 2.28 19.32c-10.08 9.24-20.64 5.64-21.24 5.4a6.233 6.233 0 0 1 .36.6s8.64 16.8 43.8 15.12c0 0 .84 0 .72.12a.372.372 0 0 0-.24.12 8.357 8.357 0 0 1-1.68.36c-42.36 11.28-64.32-24.72-65.28-26.28a37.043 37.043 0 0 1-3.48-6.12c0-.12 0-.36.12-.12 0 0 4.44 4.56 17.28 5.76h.12c-9.84-10.8-14.04-18.72-14.64-19.92 0 0-1.2-1.8-2.64-6.84 0 0 .12-.24.12 0 .48.96 3.84 5.76 7.8 6.84-3.36-5.4-5.52-13.92-5.76-15.12 4.56 6.36 12.72 6.84 12.72 6.84a.118.118 0 0 0-.12-.12v.12C77.04 83.04 79.92 68.64 85.32 58.2a57.376 57.376 0 0 1 9.48-13.32Z" fill="#fff"/><path fill="#c4ced4" d="m134.64 132.6-8.76 9.12 10.8-8.28-5.64-19.2 2.52-23.04-4.32 21.96 5.4 19.44zm-2.16-46.8a.91.91 0 0 0 .48-.24 7.972 7.972 0 0 0 2.4-1.92 12.48 12.48 0 0 0 3.48-9.24 24.332 24.332 0 0 0-1.2-7.2c-.12 3.24-1.08 15.12-5.16 18.6Zm4.08-39.24c3-4.56 8.04-4.92 10.2-4.92a16.367 16.367 0 0 0-5.04-.84 14.402 14.402 0 0 0-5.16.84q-1.44.54-1.8.72a36.625 36.625 0 0 1 1.8 4.2Zm-7.68 12.24.12-.12Zm3.72-2.52a.118.118 0 0 1 .12.12v1.32c0 9.84-2.52 20.64-3.6 24.48a56.527 56.527 0 0 0 4.8-23.04 50.512 50.512 0 0 0-.72-8.64 23.975 23.975 0 0 0-.48-2.52c-.96 7.44-3.84 10.8-3.84 10.8l-.12.12c-.12 0-.12 0-.24-.12a46.93 46.93 0 0 0-10.44-12.72 29.046 29.046 0 0 0-5.52-3.84c8.88 19.2 11.52 33.96 12.24 38.88v-1.68a102.965 102.965 0 0 0-2.04-17.76c-.96-5.16-2.04-8.88-2.04-8.88v-.24h.24c3.96 3.12 6.84 11.88 7.2 13.56a23.783 23.783 0 0 0 2.64-5.28c.72-2.28 1.44-4.44 1.44-4.44Z"/><path d="M57.84 96.24c0 9.12 1.56 18.6 9.48 30.84 7.56 15.72 21.24 24.12 27.72 27.36 2.16.96 3.48 1.56 3.48 1.56a65.857 65.857 0 0 0 28.32 6.48 68.084 68.084 0 0 0 37.32-11.52c1.92-1.32 3-2.16 3-2.16l.84-.84c0 .12-.24.24-.36.24l-.72.48c-14.04 8.16-26.88 10.68-37.44 10.68-16.56 0-27.12-6.12-27.12-6.12-35.04-18.24-35.52-49.92-35.52-49.92a.118.118 0 0 1 .12-.12h.24c4.44 8.76 9.96 11.64 12.36 12.6a4.352 4.352 0 0 0 .84.36C70.2 103.44 67.32 92.64 67.32 84.6c0-10.8 5.16-16.8 5.16-16.8l.12-.12a.118.118 0 0 1 .12.12 54.155 54.155 0 0 0-.96 9.96 36.69 36.69 0 0 0 1.44 10.68 26.78 26.78 0 0 0 1.08 2.76 53.92 53.92 0 0 1-.48-7.44 58.654 58.654 0 0 1 17.04-41.4c-2.28.96-4.92 3.36-7.08 5.64-2.4 2.4-4.32 4.8-4.32 4.8h-.12c-.12 0-.12 0-.12-.12a13.012 13.012 0 0 1 1.8-5.4 22.216 22.216 0 0 0-4.44 6.48 28.453 28.453 0 0 0-1.8 4.56v.12A49.886 49.886 0 0 0 67.2 70.2a37.692 37.692 0 0 0-2.16 5.64c-.12.48-.24.72-.24.84 0 0 0 .12-.24.12s-.12-.12-.12-.24v-.12a2.615 2.615 0 0 1 .12-.72c0-4.56 1.92-9.48 2.64-11.4-5.28 5.64-6.6 13.44-6.6 19.56a43.744 43.744 0 0 0 1.2 10.32 76.84 76.84 0 0 0 1.32 11.64c.84 3.6 1.44 6.24 1.44 6.24a5.14 5.14 0 0 1 .36 1.2v.12h-.12c-.24 0-.24-.12-.36-.24-.12 0-.12-.12-.24-.36l-.24-.48c-3.84-5.76-5.64-15.12-6-17.4a4.923 4.923 0 0 0-.12 1.32Z" fill="#c4ced4"/><path d="M175.8 55.92s-17.04-22.8-49.08-22.8H126a.624.624 0 0 0-.48.24c0 .24.24.36.48.48a58.547 58.547 0 0 1 7.2 6.72v.12l.12-.12a12.157 12.157 0 0 1 2.04-.72 22.026 22.026 0 0 1 5.52-.72 21.544 21.544 0 0 1 10.32 2.64c-1.68.84-9.6 4.8-11.4 9.48l.12.12s8.04 7.2 24.6 7.2a55.108 55.108 0 0 0 8.64-.6 5.142 5.142 0 0 0 1.44-.24c.72-.24 1.56-.48 1.56-1.32a2.238 2.238 0 0 1-.36-.48Zm-34.44 31.92c-.12-.12-.24-.12-.24 0-.12 0-.12.12 0 .12a4.33 4.33 0 0 1 .48.6c.96 1.32 2.76 4.44 2.76 9.96a34.72 34.72 0 0 1-3.72 14.88 26.783 26.783 0 0 0-.6-5.28c-.6-3.12-1.68-6.36-4.2-7.08h-.24l-1.44 13.56 5.4 20.16-10.68 8.64c-.12 0-.12 0-.12.12a.118.118 0 0 0 .12.12 41.218 41.218 0 0 0 11.28 1.32 67.771 67.771 0 0 0 13.56-1.44 2.568 2.568 0 0 0 1.68-1.56 69.213 69.213 0 0 0 1.2-13.32c.12-11.88-2.4-28.8-15.24-40.8Z" fill="#007dc5"/><path d="M159 141.96c-.24-.12-.24-.36-.24-.72v-.6a33.677 33.677 0 0 0 .84-4.44 67.199 67.199 0 0 0 .84-11.16c0-12.12-2.88-29.04-16.44-42.12a.419.419 0 0 0-.24-.12l-.36-.36a.419.419 0 0 1 .12-.24h.24a1.606 1.606 0 0 1 .6.12 15.237 15.237 0 0 1 6.12 3.84c-.12-.6-.36-1.92-.72-3.6a23.192 23.192 0 0 0-4.2-7.92l-.36-.36c-.12-.24-.24-.24-.24-.48v-.24h.24c.12 0 .24.12.6.36.84.36 34.92 16.8 36.12 49.92v.6a4.643 4.643 0 0 1-1.2 3.36c-.36.36-8.4 10.44-20.4 14.16a1.521 1.521 0 0 1-.72.24c-.12 0-.48 0-.6-.24Z" fill="#007dc5"/><path d="M184.56 117.72c-.72-27.36-26.64-45.96-39.6-53.64a59.052 59.052 0 0 0-7.2-3.84l-.6-.24h.84a10.912 10.912 0 0 1 8.16 3.72 12.831 12.831 0 0 0-.6-3.48l-.24-.36.36.12c3.72 1.44 8.4 1.92 13.08 1.92a89 89 0 0 0 12.24-.96c3.24-.36 5.4-.84 5.4-.84h.48c1.92 0 2.52 1.08 2.52 1.2 4.44 4.92 9.84 16.2 10.8 29.76.12 1.68.12 3.36.12 4.92 0 10.2-2.16 18.12-3.72 21.36-.6 1.2-1.08 1.8-1.56 1.8-.36-.12-.48-.6-.48-1.44Z" fill="#007dc5"/><path d="m109.8 29.28.12-.12c-.36.12-7.44 2.28-9.48 12.84 0 0 0 .24.12 0 .6-.96 2.76-4.32 4.8-3.36v-.24c.12-.84.84-4.56 4.44-9.12Zm-5.28 96.12c-1.56-3-11.28-24.24-11.28-24.24-3 1.08-6.72-1.44-6.72-1.44 4.8 12.6 16.08 23.64 17.88 25.68.24.36.24.24.24.24-.12 0-.12-.24-.12-.24ZM94.8 56.52c-8.76 19.92 10.92 28.2 11.28 28.32L105 80.16l-.6-2.52a7.34 7.34 0 0 0-1.44-.6c-.12 0-.24-.12-.36-.24a.917.917 0 0 1-.6-.24c-8.64-4.56-7.8-15.48-7.2-19.08v-.36a2.112 2.112 0 0 0 .12-.72c0-.24 0 0-.12.12Z"/><path d="m107.76 112.68-1.44-25.08 8.52 27.96s-2.76-6.6-7.08-2.88Zm7.08-48.96-6.48-23.64v.48l1.8 15a1.456 1.456 0 0 1 .12.6c0 .84-.48 1.92-4.56-2.28-.12-.24-.24-.24-.24-.24 4.08 8.28 9.36 10.08 9.36 10.08Zm-15.48 4.32a7.778 7.778 0 0 1-.84-3.48 7.462 7.462 0 0 1 2.76-5.64l.12-.12a38.552 38.552 0 0 1 0-6c-2.16 3.12-6.72 10.68-1.2 16.56-.12-.12-.24-.24-.24-.36a11.068 11.068 0 0 1-.6-.96Z" fill="#c4ced4"/><path d="M105.12 71.04a31.974 31.974 0 0 1-3.72-12.12v-.12a7.553 7.553 0 0 0-2.76 5.76 9.97 9.97 0 0 0 .72 3.36 4.317 4.317 0 0 1 .6 1.08c.12 0 .24.24.24.36l.36.36a7.335 7.335 0 0 0 5.04 2.16 2.66 2.66 0 0 1-.48-.84Z"/><path d="M112.92 115.92s-4.2-1.08-3.84 7.56a1.706 1.706 0 0 1 .24-.72c1.2-2.88 2.4-3.96 3.48-4.08.84 0 1.56.84 2.04 1.92a30.61 30.61 0 0 1 1.32 3.96 19.995 19.995 0 0 1 .72 3.48 12.383 12.383 0 0 1 .12 2.28v.12c.12-.96 1.92-12.84-4.08-14.52Z" fill="#c4ced4"/><path d="M117 130.44c-.12-1.08-.12-1.8-.24-2.4-.12-.96-.36-2.16-.6-3.36a20.423 20.423 0 0 0-1.44-4.08c-.48-1.08-1.2-1.8-2.04-1.8-1.08 0-2.16 1.2-3.48 3.96a2.225 2.225 0 0 1-.24.84l2.16 4.44s1.2-12.12 5.88 2.4Z"/></svg>