<svg xmlns="http://www.w3.org/2000/svg" height="299.611" width="299.611"><path d="M149.88 0a149.989 149.989 0 0 1 149.731 149.806c0 82.618-67.187 149.805-149.73 149.805A149.783 149.783 0 0 1 43.893 43.893 148.83 148.83 0 0 1 149.881 0" fill="#ffc627"/><path d="M149.88 287.702c75.952 0 137.747-61.795 137.747-137.896 0-75.952-61.795-137.822-137.746-137.822C73.779 11.91 11.984 73.78 11.984 149.731c0 76.101 61.795 137.97 137.897 137.97" fill="#8b2332"/><path d="M22.171 149.73c0-70.333 57.3-127.559 127.635-127.559a127.597 127.597 0 0 1 0 255.194C79.472 277.44 22.17 220.14 22.17 149.731" fill="#0d2240"/><path d="m250.325 96.325 2.847-1.573-9.139-14.231-2.546 1.872c-15.58-19.7-43.294-41.646-69.66-44.942 19.85 9.064 42.17 32.209 55.803 50.036l-14.307 10.411 1.723 2.622-64.716 42.02-64.716-42.02 1.723-2.622-14.382-10.411C86.663 69.66 108.91 46.515 128.833 37.45c-26.291 3.296-54.005 25.243-69.51 44.867l-2.696-1.947-9.139 14.156 2.847 1.648-.075.15c-11.385 22.396-19.775 56.926-11.61 82.243-.225-21.871 11.535-51.907 22.096-71.906l15.43 8.688 1.573-2.471 60.072 37.75-79.247 51.534-.15-.15-10.636 2.846.15.3c-.525 1.947.45 5.618 2.696 9.138 2.247 3.595 5.094 5.917 7.266 6.367l.15.3 7.04-8.54-.074-.15 157.82-99.246 1.573 2.472 15.505-8.689c10.561 20 22.32 50.11 22.171 71.907 8.09-25.392-.374-59.997-11.76-82.393" fill="#ffc627"/><path d="m242.16 202.013-.149.15-72.88-47.339-12.734 7.565 79.172 49.81-.074.15 7.04 8.54.225-.3c2.097-.375 4.944-2.771 7.266-6.367 2.172-3.52 3.22-7.116 2.696-9.138l.15-.3-10.711-2.771ZM162.764 50.185l-5.468 7.191-7.565-18.127v83.667l25.467-32.658 25.617 6.666-38.051-46.739z" fill="#ffc627"/><path fill="#fff" d="M162.764 69.809V50.185l-5.468 7.191 5.468 12.433zm-13.033-30.56-46.215 56.402 20.373-5.243 25.842 32.508V39.249z"/><path d="M122.616 250.176a40.003 40.003 0 0 1 23.894-11.011v-12.509h-34.53a37.842 37.842 0 0 0 10.636 23.52m23.819 11.609v-14.83a32.628 32.628 0 0 0-17.977 8.239 39.01 39.01 0 0 0 17.977 6.591" fill="#ffc627"/><path d="M154.15 185.01v14.756a31.678 31.678 0 0 0 17.902-8.24 39.163 39.163 0 0 0-17.902-6.516m23.82 11.61a39.71 39.71 0 0 1-23.82 10.936v11.385h34.455a39.072 39.072 0 0 0-10.636-22.321m-31.534 3.146V185.01a38.121 38.121 0 0 0-17.902 6.591 32.308 32.308 0 0 0 17.902 8.165" fill="#fff"/><path d="M154.15 226.656v12.509a39.184 39.184 0 0 1 23.82 11.01 37.527 37.527 0 0 0 10.71-23.519h-34.53Z" fill="#ffc627"/><path d="M111.98 218.941h34.455v-11.385a40.31 40.31 0 0 1-23.894-10.936 38.98 38.98 0 0 0-10.561 22.321" fill="#fff"/><path d="M154.15 261.785a38.121 38.121 0 0 0 17.902-6.591 31.905 31.905 0 0 0-17.902-8.24v14.831Z" fill="#ffc627"/></svg>