<svg xmlns="http://www.w3.org/2000/svg" height="283.77" width="283.77"><path d="M283.77 141.885A141.885 141.885 0 1 1 141.885 0 141.859 141.859 0 0 1 283.77 141.885" fill="#b5b3b3"/><path d="M279.681 141.885A137.796 137.796 0 1 1 141.885 4.09a137.78 137.78 0 0 1 137.796 137.796" fill="#1d428a"/><path d="M259.384 141.885A117.523 117.523 0 1 1 141.836 24.387a117.511 117.511 0 0 1 117.548 117.498" fill="#c8102e"/><path d="M141.885 24.387a117.499 117.499 0 1 0 117.499 117.498A117.638 117.638 0 0 0 141.885 24.387m-110.7 120.947h21.628v-6.897H31.185c.099-2.611.197-5.223.493-7.784 7.636-38.575 54.143-68.381 110.207-68.381s102.522 29.756 110.208 68.38c.246 2.562.394 5.173.492 7.785h-21.627v6.897h21.578c-.099 2.61-.197 5.222-.493 7.784-7.685 38.575-54.143 68.38-110.207 68.38s-102.522-29.756-110.207-68.38a100.167 100.167 0 0 1-.444-7.784m110.7-114.198a110.917 110.917 0 0 1 103.212 70.647C225.39 74.835 186.52 56.458 141.885 56.458S58.331 74.835 38.674 101.784a110.867 110.867 0 0 1 103.211-70.647m0 221.548a110.917 110.917 0 0 1-103.211-70.647C58.38 208.985 97.25 227.36 141.885 227.36s83.555-18.376 103.212-45.324a110.967 110.967 0 0 1-103.212 70.647" fill="#fff"/><path fill="#fff" d="M92.225 182.283h8.277v-37.294h-8.277v37.294zm31.826-37.294h-.246c-2.316 0-10.839-.05-12.465 0h-.443c-2.512 0-4.089 1.182-4.483 3.35a5.073 5.073 0 0 0-.05.64c0 .099-.59 7.095.1 9.065 1.132 3.203 3.694 4.385 6.108 5.124.099 0 .148.05.246.05l.444.147a.991.991 0 0 1 .542.443l.049 13.45h-6.848l.05 4.976h9.015c3.153-.148 5.271-1.527 6.109-3.892.246-1.823.246-14.336.098-16.948a3.278 3.278 0 0 0-1.428-2.512 12.381 12.381 0 0 0-1.33-.887c-.493-.246-1.035-.542-1.528-.739-1.97-.936-4.138-2.02-4.138-4.532v-2.119h6.503a3.42 3.42 0 0 0 3.104-1.872 5.493 5.493 0 0 0 .69-1.97 8.352 8.352 0 0 0 0-1.577Zm37.984-.049a20.544 20.544 0 0 0-5.37.492c-4.09.986-6.06 3.695-6.06 8.326v22.22c0 5.665 4.09 6.847 10.198 6.847 7.39 0 11.627-2.611 11.627-7.193v-23.155c0-7.537-4.779-7.537-10.395-7.537m-2.71 8.424a12.773 12.773 0 0 1 .247-2.315l.147-.148a8.825 8.825 0 0 1 1.183-.099h.147c2.809.05 2.907.887 2.907 5.961v15.568a13.375 13.375 0 0 1-.05 1.38 5.37 5.37 0 0 1-.147 1.28l-.148.149c-.492.049-.985.098-1.478.098a3.058 3.058 0 0 1-2.217-.69c-.64-.69-.69-1.822-.64-3.153V155.63c0 .099 0-1.675.05-2.266m32.367 7.488c-3.99-14.385-10.346-15.962-12.957-15.962a6.41 6.41 0 0 0-1.133.099l-.197.05v37.293h8.424v-15.026l5.863 15.026h8.572V144.99h-8.523v15.863ZM82.077 144.94l-20.988.049h-.246v.246a5.48 5.48 0 0 0 4.73 5.469v31.628h8.621V166.47h7.242c3.843 0 6.01-2.513 6.01-6.897v-1.33c0-10.642-.443-12.76-5.37-13.302m-3.35 16.602h-4.68v-10.838s2.562-.05 2.907 0c.936.098 1.774.492 1.774 1.576.049.345 0 9.262 0 9.262m69.316-16.554h-19.46v5.863h5.567v31.48h8.573v-31.53h.295a4.608 4.608 0 0 0 3.597-1.379 6.048 6.048 0 0 0 1.428-4.188Zm74.835 0h-.246c-2.316 0-10.839-.05-12.465 0h-.443c-2.512 0-4.089 1.182-4.483 3.35a5.073 5.073 0 0 0-.05.64c0 .099-.59 7.095.1 9.065 1.132 3.203 3.694 4.385 6.108 5.124.099 0 .148.05.246.05l.444.147a.991.991 0 0 1 .542.443l.049 13.45h-6.848l.05 4.976h9.015c3.153-.148 5.271-1.527 6.109-3.892.246-1.823.246-14.336.098-16.948a3.278 3.278 0 0 0-1.428-2.512 12.38 12.38 0 0 0-1.33-.887c-.493-.246-1.035-.542-1.528-.739-1.97-.936-4.138-2.02-4.138-4.532v-2.119h6.503a3.42 3.42 0 0 0 3.104-1.872 5.493 5.493 0 0 0 .69-1.97 8.352 8.352 0 0 0 0-1.577Zm-76.313-23.056h1.43c1.379.049 3.694.443 3.694 2.956 0 1.182.099 4.926.148 6.306v.541a21.812 21.812 0 0 0 .197 2.365c.591 2.168 2.266 3.498 4.926 3.744h2.414v-13.301a7.19 7.19 0 0 0-1.527-3.892l-.197-.247a7.193 7.193 0 0 0 1.872-5.32v-1.281c0-10.297-.394-12.366-5.222-12.908h-16.06v36.457h8.325Zm.05-15.224h1.675c2.167.05 3.005.05 2.906 3.892 0 3.055 0 3.252-.049 4.78v.295a2.078 2.078 0 0 1-.443 1.232.973.973 0 0 1-.69.295h-3.4Zm51.532-5.764h-8.129v36.457h8.129v-36.457zm-77.791 36.506h8.326v-30.79h.296a4.718 4.718 0 0 0 3.547-1.33 5.908 5.908 0 0 0 1.38-4.09v-.246h-18.968v5.715h5.42Zm87.447 0h8.326v-30.79h.295a4.568 4.568 0 0 0 3.547-1.38 5.908 5.908 0 0 0 1.38-4.09v-.246h-18.968v5.715h5.42Zm-97.251-5.912h-8.72v-8.867h6.011v-7.883h-6.011v-8.227h8.72v-5.617H93.753l-.05 36.457h16.849v-5.863zM83.16 100.945H62.37l-.049.247a5.507 5.507 0 0 0 1.084 3.793 5.143 5.143 0 0 0 3.892 1.675v30.693h15.47c3.546 0 5.911-3.005 5.911-7.44v-16.897c0-9.361 0-11.873-5.518-12.07m-2.906 30.593h-4.631V106.66a12.133 12.133 0 0 1 3.498.148c1.084.443 1.034 2.414 1.034 2.463.345 2.907.148 20.002.099 22.268m95.033-30.594a20.75 20.75 0 0 0-5.37.493c-4.04.936-6.01 3.646-6.01 8.129v21.726c0 5.567 4.04 6.7 10.1 6.7 7.34 0 11.577-2.562 11.577-6.996v-22.662c0-7.39-4.779-7.39-10.297-7.39m-2.759 8.277a12.16 12.16 0 0 1 .247-2.266l.148-.148a8.174 8.174 0 0 1 1.182-.099h.148c2.808.05 2.857.887 2.857 5.863v15.272a12.005 12.005 0 0 1-.05 1.33 4.964 4.964 0 0 1-.147 1.232l-.148.148c-.492.05-.985.099-1.478.099a2.735 2.735 0 0 1-2.167-.69c-.64-.69-.69-1.774-.64-3.055v-15.42c.048 0 .048-1.675.048-2.266"/></svg>