<svg xmlns="http://www.w3.org/2000/svg" height="296.97" width="223.967"><path d="m150.403 137.953.32-26.57c0-12.446-13.006-14.52-22.58-14.441 6.382-2.154 14.122-5.745 19.707-11.809 5.904-5.425 10.053-13.085 9.335-23.776-1.197-18.032-23.777-26.969-61.117-23.378a14.243 14.243 0 0 1-1.835.16A192.651 192.651 0 0 0 85.616 0L83.78 1.835a250.888 250.888 0 0 0-9.655 39.096 297.298 297.298 0 0 0-37.899 8.936l-1.835 1.835s18.032-1.595 38.537-1.356c-2.313 23.378.08 45.559 0 87.447-33.191-.957-62.314 4.548-69.415 13.484-2.314 1.915-3.59 4.07-3.51 6.304.398 10.133 30.558 19.468 72.925 23.058l1.836 57.607 1.835-1.835 2.952-39.096a5.304 5.304 0 0 1 .24-1.676c.877.16 1.754 1.277 1.754 3.272l1.277 51.463 1.835-1.836 3.192-41.888a9.364 9.364 0 0 1 .24-2.314c.877.16 1.754 1.436 1.675 3.83l1.436 53.617 1.835-1.835 2.553-78.032c4.867.16 9.814.24 14.92.24q8.02 0 15.798-.24l2.554 81.383 1.835-1.835 2.154-42.607a8.03 8.03 0 0 1 .24-2.154c.797.16 1.595 1.436 1.595 3.67l2.234 59.761 1.835-1.835 2.234-51.622a5.83 5.83 0 0 1 .32-1.835c1.037 0 2.154 1.276 2.154 3.75l1.835 68.378 1.835-1.836 2.713-114.575c36.223-3.191 63.75-10.452 70.612-18.91 2.234-1.914 3.51-3.909 3.51-5.903-.478-11.011-34.069-19.628-73.564-17.793M72.61 168.67c-29.042-2.793-48.67-8.697-48.67-16.117a3.079 3.079 0 0 1 .479-1.596c6.782-4.787 27.686-7.819 48.59-10.93 0 8.217-.16 17.154-.399 26.968Zm59.203-100.054c1.117 8.219-1.277 14.442-5.506 19.15-7.58 6.861-19.468 9.973-29.122 11.409.16-15.479-.08-31.596-1.436-47.394 18.67 1.995 34.707 6.702 36.064 16.835m-5.506 101.65c-4.548.16-9.175.24-13.962.24-5.586 0-11.09-.08-16.357-.32l.24-6.622c-.48-16.756.558-37.82.877-60.32 13.644 1.596 30 5.426 29.76 15Zm72.288-12.926c-6.782 5.346-24.734 9.495-48.51 11.57l.318-28.565c27.208 3.511 49.309 7.5 49.309 14.043a5.053 5.053 0 0 1-1.117 2.952"/><path d="M223.967 155.905c-.478-11.17-34.069-19.787-73.564-17.872l.32-26.57c-.08-16.436-22.58-14.84-30.16-13.803 8.856-1.596 38.457-9.016 36.622-36.144-1.197-18.032-23.777-26.968-61.117-23.378a14.245 14.245 0 0 1-1.835.16A192.651 192.651 0 0 0 85.616.16c-5.187 16.117-8.218 28.803-9.894 40.611a287.953 287.953 0 0 0-39.495 9.256S54.26 48.43 74.765 48.67c-2.314 23.697.08 46.197 0 89.363-39.256-1.357-73.325 6.223-72.926 17.872.319 10.133 30.558 19.468 72.926 23.059L76.6 236.57l2.952-39.096c.08-4.867 3.75-4.388 3.75-.239l1.356 51.463 3.192-41.888c-.08-5.665 3.91-5.346 3.75-.32l1.436 53.618 2.553-79.948c5.426.16 11.01.32 16.676.32q8.018 0 15.798-.24l2.553 81.384 2.154-42.607c0-5.426 3.67-5.186 3.67-.32l2.234 59.762 2.234-51.623c.16-5.106 4.23-4.867 4.309 0l1.835 68.378 2.713-116.17v-.08c43.085-3.59 74.202-12.926 74.202-23.059m-90.32-89.123c3.033 22.5-19.946 29.92-36.462 32.394a490.155 490.155 0 0 0-1.596-49.468c19.468 1.915 36.623 6.542 38.059 17.074M23.94 152.554c0-6.862 25.452-10.532 50.904-14.362 0 8.218-.16 17.155-.399 26.968l.08 3.75c-30.16-2.792-50.585-8.776-50.585-16.356m72.048 17.633.24-6.622c-.48-17.314.638-39.096.877-62.315 13.883 1.437 31.835 5.187 31.516 15.24l-.479 53.777q-7.66.24-15.798.24c-5.585-.08-11.01-.16-16.356-.32m54.096-1.277.399-30.638c28.005 3.59 51.064 7.66 51.064 14.282 0 7.58-21.064 13.644-51.463 16.356" style="fill:#ce1141"/></svg>