<svg xmlns="http://www.w3.org/2000/svg" height="262.68" width="262.68"><path d="M262.68 131.304A131.34 131.34 0 1 1 131.376 0 131.31 131.31 0 0 1 262.68 131.304Z" fill="#bec0c2"/><path d="M255.163 131.304a123.732 123.732 0 1 1 0-.11v.11Z" fill="#002d62"/><path d="M131.376 13.317a117.988 117.988 0 1 0 117.916 117.987A117.957 117.957 0 0 0 131.376 13.317Z" fill="#fdbb30"/><path d="M212.134 131.304c0 45.534-36.226 82.477-80.758 82.477-44.675 0-80.759-36.943-80.759-82.477S86.701 48.9 131.376 48.9c44.603 0 80.758 36.871 80.758 82.405Z" fill="#002d62"/><path d="M206.98 131.304c0 42.599-33.793 77.107-75.604 77.107-41.74 0-75.604-34.508-75.604-77.107s33.793-77.107 75.604-77.107 75.604 34.508 75.604 77.107Z" fill="#fff"/><path fill="#002d62" d="m48.469 108.251-.787 3.007-24.127-5.943.787-3.078 24.127 6.014zm3.365-37.086 10.382 7.947-1.79 2.362-19.689-15.106 1.003-1.36 14.247 3.723-10.739-8.234 1.79-2.362L66.726 73.17l-.931 1.431-13.961-3.436zm25.416-38.16 4.869-2.506c2.076-1.074 4.653-1.002 6.014 1.575 3.078 6.157 4.51 8.806 7.66 14.82a4.057 4.057 0 0 1-2.147 5.585l-5.084 2.577ZM90.21 51.19l1.289-.716a2.063 2.063 0 0 0 1.159-2.677q-.038-.095-.085-.187c-2.578-5.011-4.44-8.591-7.017-13.674a1.951 1.951 0 0 0-2.601-.921q-.06.029-.12.062l-1.503.787Zm38.016-7.589-3.079.215-1.432-24.843 3.294-.215 1.217 24.843zm36.226 6.587 1.074-4.797-4.152-1.575-2.506 4.224-2.935-1.146 13.245-21.55 3.078 1.146-4.725 24.843Zm3.437-16.968-.143-.072-5.083 8.377 3.365 1.217Zm33.506 26.633-9.593 9.021-2.077-2.148 18.114-17.039 1.074 1.145-5.943 13.603 9.952-9.379 2.004 2.148-18.113 17.039-1.145-1.217 5.727-13.173zm12.386 46.25 4.367-2.22-1.432-4.224-4.868.788-1.002-3.007 25.13-3.365 1.073 3.079-22.194 12.1Zm15.393-7.947-.143-.215-9.666 1.36 1.146 3.365Zm-196.67 84.983L31 180.275l21.98-11.384 3.651 6.945c.716 1.432.358 2.506-.716 3.078-3.937 2.005-5.942 3.08-9.88 5.155a2.001 2.001 0 0 1-2.864-1.002l-2.219-4.296Zm10.81-5.656 1.79 3.365 8.807-4.654-1.79-3.365Zm21.98 45.176 2.434-4.296-3.58-2.792-3.65 3.222-2.435-1.933 19.044-16.61 2.578 2.076-11.813 22.337Zm8.52-15.178-.143-.215-7.303 6.443 2.792 2.22Zm35.582 26.275 3.15.787-1.575 6.372a1.977 1.977 0 0 1-2.344 1.525l-.09-.021c-2.22-.501-3.723-.931-6.014-1.504a2.018 2.018 0 0 1-1.527-2.41q.01-.048.024-.096l4.94-20.118a1.977 1.977 0 0 1 2.344-1.524l.09.02c2.22.502 3.794 1.003 6.085 1.504a2.028 2.028 0 0 1 1.439 2.482l-.007.024-1.217 5.012-3.15-.716 1.074-4.439-3.723-.86-4.582 18.902 3.723.859Zm45.749 8.52-8.018 1.503-4.296-24.485 7.875-1.432.43 2.649-4.797.787 1.432 8.019 4.51-.788.43 2.649-4.439.788 1.575 8.52 4.725-.788.573 2.578zm36.585-15.608-2.72 1.718-13.962-20.547 6.802-4.654a1.9 1.9 0 0 1 2.935.573c1.933 2.792 3.222 4.653 5.155 7.517a1.955 1.955 0 0 1-.573 2.936l-.358.286 9.093 7.804-2.936 2.004-10.238-9.02-.071-1.146 2.148-1.432-4.51-6.587-3.366 2.291Zm25.273-37.515 4.94 3.15 1.432-2.291-4.797-3.079-9.236.501a2.559 2.559 0 0 1-1.647-.358c-1.79-1.145-2.577-1.718-4.582-2.864a1.943 1.943 0 0 1-.597-2.682l.025-.038c.93-1.647 1.79-2.864 2.792-4.439a1.882 1.882 0 0 1 2.792-.573l4.367 2.792-1.718 2.65-3.794-2.435-1.432 2.363 3.723 2.29 8.806-.572a3.316 3.316 0 0 1 2.22.501c2.29 1.504 3.078 1.933 5.512 3.437a2.013 2.013 0 0 1 .716 2.72 94.003 94.003 0 0 1-2.864 4.44 1.9 1.9 0 0 1-2.792.572l-5.441-3.508Z"/><path d="m107.248 84.481-20.476 92.787h40.523s4.51-18.472 4.868-20.118h17.541c13.173.071 23.913-4.367 31.144-12.887 13.245-14.39 10.954-35.368 1.002-47.396a36.818 36.818 0 0 0-28.853-13.388h-45.534Z" fill="#bec0c2"/><path d="m129.228 153.498-4.868 20.118H91.355l19.044-86.342h42.527a33.044 33.044 0 0 1 26.06 12.1c9.45 11.383 10.381 30.355-.93 42.598-6.945 8.09-17.183 11.741-28.352 11.598Z" fill="#002d62"/><path d="M105.96 107.034h18.614c2.148 0 4.44 1.718 3.508 4.51a27.003 27.003 0 0 0-1.36 5.513c-.143 1.36 1.432 2.29 2.291 2.29h38.017c.716 0 1.074-.214 1.074-.572a11.453 11.453 0 0 0-.215-2.434c-.143-.788-.215-1.002-.93-1.002-4.726 0-6.659-2.148-11.67-5.298-4.94-3.222-12.243-5.084-18.544-5.084h-30.499Zm23.053 24.556a32.5 32.5 0 0 1-1.646-4.653c-.43-1.933-2.148-3.508-5.084-3.508h-19.975l.573-2.22 64.793.072c.573 0 .501.286.43 1.002 0 .716-.215 2.005-.287 2.792-.071.86-.716.645-1.288.645a10.453 10.453 0 0 0-5.8 1.575c-2.648 2.076-8.448 5.656-11.598 6.587-3.508 1.002-16.323 5.011-20.118-2.291Z" fill="#fdbb30"/><path d="M98.8 139.752h33.793a6.122 6.122 0 0 1 3.794 1.146 30.867 30.867 0 0 0 10.525 5.226c1.718.573 4.797-.143 7.517-1.646 6.73-3.867 11.097-11.098 12.6-15.823.359-1.217-.357-1.145-1.216-1.074-2.864.215-5.871 2.792-9.809 5.37-4.009 2.434-11.956 4.868-19.617 4.868H99.301Zm49.687-45.319a6.6 6.6 0 0 1 3.078.143c6.516 2.578 12.53 9.236 15.107 16.324.501 1.432.644 2.22 0 2.29-2.936.359-4.224-1.145-7.804-3.436a40.363 40.363 0 0 0-11.025-5.298c-4.368-1.36-12.243-1.646-13.174-1.646-1.002 0-.93-.43-.501-.86a26.516 26.516 0 0 1 14.319-7.517Zm30.785 24.342a.692.692 0 0 1-.644.645h-7.446c-.93 0-.93-.43-.93-1.003a10.838 10.838 0 0 1-.215-2.29c0-.574-.287-1.29.573-1.647a11.768 11.768 0 0 0 4.868-4.654c.215-.573.716-1.504 1.217-.716 1.862 2.792 2.434 6.229 2.577 9.665Zm-2.649 13.317c-.071.286-.644.5-.716 0a11.398 11.398 0 0 0-5.44-5.8c-.502-.286-.502-.644-.502-1.217.072-.5.287-2.219.358-2.863 0-.573.287-1.003.716-1.003h7.732c.215 0 .573.287.573.43a24.341 24.341 0 0 1-2.72 10.453Z" fill="#fdbb30"/><path d="M156.577 146.554c-.573.143-1.79-.072.072-1.146 5.584-3.293 10.667-10.882 11.956-15.32.573-1.72.573-1.79 1.289-1.576a7.813 7.813 0 0 1 3.293 2.792c1.002 1.432 1.503 4.296.859 5.012a26.428 26.428 0 0 1-17.469 10.238Zm14.247-34.58c-1.288.716-1.575.5-1.861-.43-2.434-8.52-9.665-14.892-12.6-16.825-.502-.286-.43-.572 0-.5 7.016 1.002 13.96 4.796 17.397 10.022 2.076 3.007-1.647 7.017-2.936 7.733Z" fill="#fdbb30"/></svg>