<svg xmlns="http://www.w3.org/2000/svg" height="215.681" width="283.7"><path d="M4.088 93.434A12.574 12.574 0 0 0 0 103.088v71.122a12.592 12.592 0 0 0 14.136 12.953c6.353-.542 12.756-1.034 19.11-1.477v-13.447c-6.354.345-12.757.69-19.11 1.084v-69.349c6.353.394 12.756.739 19.11 1.084V91.61a1246.88 1246.88 0 0 1-19.11-1.477 12.169 12.169 0 0 0-10.048 3.3m46.249-.738c-4.728-.296-9.457-.591-14.185-.936v93.73q15.515-1.109 31.03-1.823v-12.855c-5.615.197-11.23.394-16.845.64Zm19.653 90.823q7.24-.369 14.48-.59V94.37l-14.48-.591Zm41.274-88.41c-7.98-.147-15.959-.394-23.938-.64v88.36l14.235-.442v-37.482c3.25 0 6.452 0 9.653-.05a14.951 14.951 0 0 0 10.048-3.595 11.12 11.12 0 0 0 4.236-8.816v-24.726a11.31 11.31 0 0 0-4.236-8.767 14.93 14.93 0 0 0-9.998-3.842m0 37.335c-3.251 0-6.453 0-9.654-.05v-24.971l9.654.148Zm125.744 8.964a12.149 12.149 0 0 0 4.236-9.408v-26.547a11.244 11.244 0 0 0-4.236-9.063 13.33 13.33 0 0 0-9.999-3.35c-7.979.444-15.909.838-23.888 1.134v88.853c4.729.197 9.506.394 14.235.64v-38.22q5.91 19.134 11.82 38.86c4.729.247 9.457.542 14.235.887a4167.938 4167.938 0 0 0-12.412-40.585 13.23 13.23 0 0 0 6.009-3.201m-19.652-34.97c3.201-.099 6.452-.247 9.653-.345v26.055c-3.201.05-6.452.05-9.653.05Zm-65.015-11.033q-11.969.074-23.937 0v86.538c4.777-.049 9.506-.049 14.283-.049v-37.039h9.703a14.913 14.913 0 0 0 10.048-3.546 11.12 11.12 0 0 0 4.236-8.816v-24.824A10.908 10.908 0 0 0 162.438 99a14.454 14.454 0 0 0-10.097-3.595m0 37.039h-9.703v-24.676c3.25 0 6.452 0 9.703-.05Zm17.14 49.646c10.393.197 20.736.493 31.128.887v-12.659c-5.615-.147-11.23-.295-16.844-.394v-25.02c3.201 0 8.964.049 12.215.049v-12.609c-3.202 0-8.965.05-12.215.05v-25.021c5.615-.099 11.23-.247 16.844-.394V94.32q-15.514.591-31.128.887v86.883M283.7 117.322v-14.234a12.859 12.859 0 0 0-14.136-12.954c-3.99.345-7.979.64-11.968.936a15.114 15.114 0 0 0-10.097 4.728 13.125 13.125 0 0 0-4.088 9.604V132a12.525 12.525 0 0 0 4.088 9.457 14.39 14.39 0 0 0 10.097 3.99l11.968.147v27.73c-3.99-.246-7.979-.443-11.968-.69V159.04l-14.185-.443v13.299a13.374 13.374 0 0 0 4.088 9.703 15.408 15.408 0 0 0 10.097 4.58c3.99.296 7.979.64 11.968.936a12.564 12.564 0 0 0 9.95-3.202 12.39 12.39 0 0 0 4.186-9.752v-28.468a13.352 13.352 0 0 0-4.187-9.999 13.054 13.054 0 0 0-9.949-4.088l-11.968.148v-27.188c3.99-.197 7.979-.443 11.968-.69v13.89c4.729-.098 9.457-.295 14.136-.443" fill="#061922"/><path d="M14.973 91.66c5.615.493 11.476.937 17.387 1.38v-.591c-6.059-.443-12.215-.936-18.224-1.429a12.003 12.003 0 0 0-1.33-.049 11.235 11.235 0 0 0-8.028 3.103 11.68 11.68 0 0 0-3.793 8.964v71.122a12.023 12.023 0 0 0 2.463 7.635 12.423 12.423 0 0 1-1.823-6.797v-71.073a11.795 11.795 0 0 1 3.842-9.112 11.418 11.418 0 0 1 8.176-3.152 11.94 11.94 0 0 1 1.33 0m34.428 2.512v-.591c-4.088-.247-8.225-.493-12.313-.788v91.71l.64-.05v-91.02h.099c3.743.246 7.634.492 11.574.739m34.133 1.674v-.59c-4.137-.149-8.373-.346-12.609-.543v87.82l.64-.05v-87.13h.099c3.89.198 7.88.346 11.87.493m28.566.838a14.291 14.291 0 0 1 7.635 2.216 14.366 14.366 0 0 0-8.471-2.857c-7.635-.147-15.368-.345-22.953-.64v86.44h.64v-85.75h.1c7.634.246 15.416.443 23.05.59m116.731-2.068a12.16 12.16 0 0 1 6.797 1.872 12.023 12.023 0 0 0-7.635-2.463 6.28 6.28 0 0 0-.935.05c-7.536.442-15.269.787-23.002 1.083v87.03l.64.05v-86.49h.099c7.782-.295 15.564-.689 23.1-1.132h.936m-86.095 2.414c3.497 0 7.043 0 10.49-.05h.148a14.24 14.24 0 0 1 7.684 2.069 13.559 13.559 0 0 0-8.521-2.71h-.148c-3.497 0-7.043.05-10.49.05-4.089 0-8.325 0-12.511-.05v84.618h.64V96.98h.099c4.186 0 8.422.05 12.609.05m56.937-1.725c-9.654.345-19.505.64-29.208.838v85.06h.64v-84.47h.1c9.406-.196 19.01-.442 28.517-.787v-.64Zm70.776-3.645a11.13 11.13 0 0 1 1.281-.049 11.495 11.495 0 0 1 6.206 1.675 11.017 11.017 0 0 0-7.043-2.315 10.296 10.296 0 0 0-1.231.05c-3.99.344-7.98.64-11.969.935a14.255 14.255 0 0 0-9.457 4.433 12.312 12.312 0 0 0-3.841 8.964v26.597a11.164 11.164 0 0 0 2.462 7.29 11.606 11.606 0 0 1-1.822-6.453V106.19a12.496 12.496 0 0 1 3.891-9.111 14.545 14.545 0 0 1 9.604-4.482c3.94-.247 7.93-.591 11.92-.936" fill="#bec0c2"/><path d="M0 202.58a1148.733 1148.733 0 0 1 283.7 0v-4.926a1236.444 1236.444 0 0 0-283.7 0v4.926Z" fill="#1d428a"/><path d="M34.231 215.681a426.065 426.065 0 0 1 215.238 0v-4.63a437.396 437.396 0 0 0-215.238 0v4.63" fill="#c8102e"/><path d="M113.677 81.465A1138.267 1138.267 0 0 1 0 72.994v4.925c40.092 4.63 80.48 7.29 120.917 7.98a49.084 49.084 0 0 1-7.24-4.434m56.346 0a49.084 49.084 0 0 1-7.24 4.433c40.437-.69 80.825-3.35 120.917-7.979v-4.925a1138.272 1138.272 0 0 1-113.677 8.471" fill="#1d428a"/><path d="M104.22 72.009a428.34 428.34 0 0 1-69.989-12.117v4.63a443.85 443.85 0 0 0 73.979 12.116 51.805 51.805 0 0 1-3.99-4.63m75.26.001a45.058 45.058 0 0 1-4.04 4.679 442.195 442.195 0 0 0 73.98-12.117v-4.63a431.108 431.108 0 0 1-69.94 12.068" fill="#c8102e"/><path d="M98.113 43.737a43.737 43.737 0 1 1 43.737 43.737 43.733 43.733 0 0 1-43.737-43.737" fill="#fff"/><path d="M141.85 0a43.737 43.737 0 1 0 43.737 43.737A43.764 43.764 0 0 0 141.85 0m31.62 19.455a39.487 39.487 0 0 1 8.226 22.361h-16.5a39.902 39.902 0 0 1 8.275-22.36m-63.192 0a39.487 39.487 0 0 1 8.225 22.36h-16.5a39.413 39.413 0 0 1 8.275-22.36m0 48.563a39.487 39.487 0 0 1-8.226-22.361h16.5a40.132 40.132 0 0 1-8.274 22.361m33.492 15.564V72.156h-3.842v11.427a39.46 39.46 0 0 1-27.139-12.56 43.114 43.114 0 0 0 9.556-25.365v-3.842a43.114 43.114 0 0 0-9.556-25.365 39.556 39.556 0 0 1 27.14-12.56v11.328h3.84V3.891a39.46 39.46 0 0 1 27.14 12.56 43.114 43.114 0 0 0-9.556 25.365v3.842a43.114 43.114 0 0 0 9.556 25.366 39.46 39.46 0 0 1-27.14 12.56m29.7-15.565a39.136 39.136 0 0 1-8.225-22.361h16.5a39.636 39.636 0 0 1-8.274 22.361" fill="#061922"/><path fill="#c8102e" d="M132.147 25.415v36.497h19.455v-5.024h-14.283V25.415h-5.172z"/><path d="M158.251 37.63V22.607c0-2.265-.886-3.152-3.152-3.152h-26.547c-2.217 0-3.103.936-3.103 3.152v42.26c0 2.265.886 3.152 3.103 3.152h26.547c2.217 0 3.152-.936 3.152-3.152V49.795h-5.27V63.39H130.72V24.036h22.262V37.63h5.27Z" fill="#1d428a"/><path d="M151.602 55.46V25.414h-12.658l-.148 30.044h5.073l.099-9.358h2.561l-.05 9.358Zm-5.073-14.333h-2.561V30.439h2.561Z" fill="#c8102e"/></svg>