<svg xmlns="http://www.w3.org/2000/svg" height="197.714" width="163.917"><path d="M32.955 187.278a4.168 4.168 0 0 0-4.154-4.154h-7.758v14.59h3.399v-4.566H27.6a1.885 1.885 0 0 1 1.82 1.854v2.678h3.398v-2.678a5.22 5.22 0 0 0-1.064-3.158 4.18 4.18 0 0 0 1.201-2.952v-1.614Zm-4.154-.755a.762.762 0 0 1 .756.755v1.648a.85.85 0 0 1-.859.858h-4.256v-3.227h4.36Zm80.637 11.191H97.355v-14.59h3.398v11.191h8.685v3.399zm33.642-11.191v-3.399h-12.084v14.59h12.084v-3.399h-8.685v-2.368h7.483v-3.399h-7.483v-2.025h8.685zm-76.415 11.191H53.552l7.518-11.191h-6.694v-3.399h13.079l-7.518 11.191h6.728v3.399zm21.078 0H74.629l7.518-11.191h-6.694v-3.399h13.079l-7.518 11.191h6.729v3.399zm30.174-14.59h3.398v14.589h-3.398zm-75.934 0h3.398v14.589h-3.398z" fill="#12173f"/><path fill="#12173f" d="M41.983 183.124h3.398v14.589h-3.398zm57.74-31.959H87.296v26.707h6.145v-8.582h6.282a7.501 7.501 0 0 0 7.484-7.483v-3.159a7.501 7.501 0 0 0-7.484-7.483Zm1.34 10.642a1.34 1.34 0 0 1-1.34 1.338h-6.282v-5.835h6.282a1.34 1.34 0 0 1 1.34 1.338Z"/><path d="M90.626 177.872h-.515V153.98h9.612a4.674 4.674 0 0 1 4.669 4.668v3.159a4.673 4.673 0 0 1-4.669 4.668h-9.097Zm0-11.912h9.097a4.146 4.146 0 0 0 4.154-4.153v-3.159a4.146 4.146 0 0 0-4.154-4.153h-9.097Z" fill="#5d76a9"/><path fill="#12173f" d="M52.213 157.31v-6.145H31.96v26.707h20.219v-6.11H38.104v-4.154h11.912v-6.145H38.104v-4.153h14.109z"/><path fill="#5d76a9" d="M52.213 154.495v-.515H34.774v21.077h17.405v-.48h-16.89v-9.784h14.727v-.515H35.289v-9.783h16.924z"/><path d="M76.552 151.2h-21.18v26.672h6.144v-20.528h5.115v20.563h6.145v-20.563h3.776a1.34 1.34 0 0 1 1.339 1.339v19.19h6.144v-19.19a7.501 7.501 0 0 0-7.483-7.484" fill="#12173f"/><path d="M76.552 154.014H58.186v23.858h.515V154.53h10.745v23.377h.515V154.53h6.59a4.146 4.146 0 0 1 4.154 4.154v19.19h.515v-19.19a4.673 4.673 0 0 0-4.668-4.669" fill="#5d76a9"/><path d="M21.18 151.2H0v26.672h6.145v-20.528h5.115v20.563h6.144v-20.563h3.776a1.34 1.34 0 0 1 1.34 1.339v19.19h6.144v-19.19a7.501 7.501 0 0 0-7.484-7.484" fill="#12173f"/><path d="M21.18 154.014H2.815v23.858h.515V154.53h10.745v23.377h.514V154.53h6.591a4.146 4.146 0 0 1 4.154 4.154v19.19h.515v-19.19a4.673 4.673 0 0 0-4.669-4.669" fill="#5d76a9"/><path fill="#12173f" d="M133.948 151.165h6.145v26.707h-6.145z"/><path fill="#5d76a9" d="M136.763 151.165h.515v26.707h-.515z"/><path fill="#12173f" d="M123.856 151.165v10.298h-7.655v-10.298h-6.111v26.707h6.111v-10.264h7.655v10.264h6.11v-26.707h-6.11z"/><path fill="#5d76a9" d="M126.637 151.165v13.113h-13.251v-13.113h-.481v26.707h.481v-13.079h13.251v13.079h.514v-26.707h-.514z"/><path d="M11.912 197.714H4.154A4.168 4.168 0 0 1 0 193.56v-6.282a4.168 4.168 0 0 1 4.154-4.154h3.604a4.168 4.168 0 0 1 4.154 4.154v.687H8.513v-.687a.762.762 0 0 0-.755-.755H4.154a.762.762 0 0 0-.756.755v6.282a.762.762 0 0 0 .756.755h4.36v-1.338H6.487v-3.399h5.424Z" fill="#12173f"/><path d="M11.912 197.714H4.154A4.168 4.168 0 0 1 0 193.56v-6.282a4.168 4.168 0 0 1 4.154-4.154h3.604a4.168 4.168 0 0 1 4.154 4.154v.687H8.513v-.687a.762.762 0 0 0-.755-.755H4.154a.762.762 0 0 0-.756.755v6.282a.762.762 0 0 0 .756.755h4.36v-1.338H6.487v-3.399h5.424Zm147.748 0h-3.639a4.168 4.168 0 0 1-4.153-4.154v-.515h3.398v.515a.762.762 0 0 0 .755.755h3.64a.762.762 0 0 0 .754-.755v-.618l-6.316-1.682a3.132 3.132 0 0 1-2.197-2.986v-.893a4.256 4.256 0 0 1 4.257-4.257h3.536a4.168 4.168 0 0 1 4.153 4.154v.687h-3.398v-.687a.762.762 0 0 0-.755-.755h-3.536a.85.85 0 0 0-.858.858v.687l6.316 1.682a3.132 3.132 0 0 1 2.197 2.986v.824a4.146 4.146 0 0 1-4.154 4.154m-3.295-19.876h-12.599v-8.48h6.145v2.37h6.454a1.392 1.392 0 0 0 1.407-1.408v-1.236l-10.024-3.09a5.592 5.592 0 0 1-3.982-5.355v-1.922a7.552 7.552 0 0 1 7.552-7.552h12.599v8.822h-6.145v-2.677h-6.454a1.392 1.392 0 0 0-1.407 1.407v1.545l9.99 3.055a5.633 5.633 0 0 1 4.016 5.424v1.545a7.574 7.574 0 0 1-7.552 7.552" fill="#12173f"/><path d="M156.365 175.023h-9.784v-5.699h.515v5.184h9.269a4.22 4.22 0 0 0 4.222-4.222v-1.545a2.39 2.39 0 0 0-1.682-2.266l-10.333-3.192a2.79 2.79 0 0 1-1.99-2.678v-1.922a4.747 4.747 0 0 1 4.737-4.738h9.783v6.008h-.55v-5.493h-9.268a4.22 4.22 0 0 0-4.222 4.223v1.922a2.287 2.287 0 0 0 1.613 2.197l10.333 3.193a2.874 2.874 0 0 1 2.025 2.746v1.545a4.646 4.646 0 0 1-4.668 4.737" fill="#5d76a9"/><path d="M146.787 32.836a21.8 21.8 0 0 0 2.712-10.299A22.72 22.72 0 0 0 139.304 4.07c-8.308-5.63-20.735-6.42-29.557 4.12a56.061 56.061 0 0 0-27.737 3.466 55.987 55.987 0 0 0-27.737-3.467C45.45-2.35 32.989-1.562 24.716 4.068a22.633 22.633 0 0 0-10.195 18.47 22.208 22.208 0 0 0 2.712 10.298c-6.66 9.577-11.26 20.974-11.26 32.543 0 13.937 5.973 21.146 8.205 24.235l1.785-1.785c6.316 16.066 17.095 24.717 30.14 32.578 0 0 .274-1.58.549-3.021 14.04 12.152 20.734 9.166 35.324 25.677 14.555-16.443 21.42-13.628 35.323-25.677.275 1.407.55 3.02.55 3.02 5.801-3.5 22.176-12.289 30.14-32.577l1.785 1.785c1.373-1.888 8.204-9.508 8.204-24.235.069-11.569-4.531-22.931-11.19-32.543" fill="#707271"/><path d="M142.77 33.042c13.389-20.563-16.992-41.95-31.684-21.25a52.211 52.211 0 0 0-29.076 3.57 52.211 52.211 0 0 0-29.076-3.57c-14.727-20.7-45.073.687-31.685 21.25-15.242 20.94-13.731 41.605-6.66 51.32l2.918-2.918s4.154 20.185 26.124 33.47l.79-4.36c13.525 14.453 25.883 14.11 37.555 27.326 11.671-13.182 24.03-12.873 37.555-27.325l.79 4.36c21.97-13.251 26.123-33.47 26.123-33.47l2.918 2.917c7.174-9.749 8.685-30.346-6.591-51.32" fill="#12173f"/><path d="M82.147 109.902s-10.538.172-12.118 1.133c0 0-1.819 3.124 12.118 3.09 13.25-.069 11.294-2.472 11.397-2.85a42.477 42.477 0 0 0-11.397-1.373m-9.131-12.255s1.648-4.771 3.398-3.26c2.438 2.093 5.596 6.35 5.596 6.796v5.664l-3.845.206a86.607 86.607 0 0 0-9.337 1.751c-9.818-24.304-4.36-42.67-1.75-49.261-9.716 2.094-11.295-9.578-11.295-9.578a7.69 7.69 0 0 1 4.188 1.03 48.61 48.61 0 0 1 8.102 5.252c.72.55 1.373 1.099 1.99 1.614 6.626 5.561 11.981 4.428 11.981 4.428v23.79c-.034.034-19.326-1.476-9.028 11.568m18.091 0c12.29-12.46-7.758-11.74-9.028-11.534 2.06.103 17.576.206 9.028 11.534" fill="#5d76a9"/><path d="M99.243 59.955c11.053 29.762-2.953 48.918-3.056 49.02 8.685-22.793 3.124-41.708-.686-48.745a31.072 31.072 0 0 1-4.291.068 39.617 39.617 0 0 0 4.84-3.536c.138-.137.275-.24.446-.411a28.197 28.197 0 0 1 8.274-5.287A17.719 17.719 0 0 1 108.992 50s-1.03 9.818-9.75 9.955" fill="#5d76a9"/><path d="M116.75 21.439s4.497-11.26 18.331-8.548c0 0-12.701-8.342-21.524 6.728 0 0-12.667-5.938-31.547 2.232 0 0-17.748-6.248-31.239-2.712 0 0-7.86-13.663-18.949-8.033s-5.286 18.606-3.364 22.004c0 0-18.366 18.71-11.466 41.812l3.708-4.6s5.286 25.197 18.88 33.127l.824-6.18S54.616 114.4 71.3 121.678c1.579.755 10.435 5.15 10.71 7.312v-11.98s-11.569.96-14.658-4.395c-2.094-3.638-15.414-27.394-8.822-52.281 0 0-6.42-.962-7.621-11.775a22.679 22.679 0 0 0-10.71-1.854s10.607-3.33 20.562.515 12.633 13.663 19.36 9.337l1.855-27.634L84 56.556c6.728 4.326 9.406-5.458 19.361-9.337 9.955-3.845 20.597-.515 20.597-.515a31.838 31.838 0 0 0-11.088-4.36c-5.699-1.132-14.075 2.507-14.075 2.507s1.168-7.827 4.978-12.015c3.296-3.605 10.71-4.394 12.976-11.397Zm-85.889 9.509c-.412-3.776 4.36-7.484 4.36-7.484-1.957-2.025-5.39-.274-5.39-.274 3.09-6.077 10.058-3.09 10.058-3.09-2.643-3.227-8.204-3.02-8.204-3.02 6.9-6.866 15.242 3.604 15.242 3.604-7.415 1.682-16.066 10.264-16.066 10.264Z" fill="#5d76a9"/><path d="M68.073 56.282c-1.064-.343-2.815.755-3.81 2.677-3.296-.96-4.429-4.53-4.292-7.93a48.61 48.61 0 0 1 8.102 5.253m32.405 2.678c-1.03-2.026-2.917-3.124-3.982-2.61a28.197 28.197 0 0 1 8.274-5.286c.137 3.398-.996 6.969-4.291 7.895" fill="#fb2"/></svg>