<svg xmlns="http://www.w3.org/2000/svg" height="276.254" width="200.005"><path d="M25.68 78.374c.6-6.84 25.08-15.84 64.92-17.28a23.681 23.681 0 0 0-9.24 15.48l-.36 2.88a30.3 30.3 0 0 1-1.2 5.52c-1.56 3.96-5.88 7.32-10.44 9.72-15.96-1.92-29.4-5.4-37.2-9.6-4.32-2.16-6.72-4.68-6.48-6.72Zm152.4-2.04c1.56 1.68 1.44 2.76 1.44 3.12-.12 1.92-2.52 4.32-6.6 6.36-8.52 4.44-23.16 7.8-40.44 9.6a24.181 24.181 0 0 1 2.52-1.32l.24-.12c5.04-2.04 10.68-4.32 10.92-12.6.12-1.32.12-5.28.84-6.72.96-1.92 3.36-4.68 5.4-5.52l-3.48-.6h-.48a8.439 8.439 0 0 0 2.52-3c14.16 3 23.64 6.96 27.12 10.8Zm17.28-10.32c-7.32-8.28-23.88-14.88-45-18.84 0-2.4 1.56-3.48 4.2-5.4a46.018 46.018 0 0 0 4.44-3.48c6.84-6.6-1.2-16.44-1.44-16.92l-4.44-5.4 1.08 6.96c.72 4.68-.96 6.36-6.24 9.96a20.905 20.905 0 0 0-1.68 1.44 33.072 33.072 0 0 0-.72-11.04c-.96-4.32-3.12-6.12-3.12-6.12l-.6 6.36c0 .12-.48 5.04-7.08 11.04a23.068 23.068 0 0 0 1.56-2.04c3.24-4.8 2.28-10.08 1.2-16.32l-.24-1.32c-1.08-6.36.6-10.44 1.68-11.16 1.08-1.32 3.24-3.48 3.24-3.48s-1.08-.48-4.32-.12c-4.08.6-11.04 3.12-10.92 8.76a24.847 24.847 0 0 0 1.68 6.84c.72 2.28 1.44 4.44.72 5.4-.48.84-1.92 1.56-4.32 2.04-9.84 1.8-17.28 6.24-21 12.72a21.38 21.38 0 0 0-2.64 6.96c-24.12.12-47.04 3.12-64.68 8.52-19.92 6.12-30.84 14.52-31.68 24.24-.48 5.16 1.92 12.48 14.64 19.56h-.12l3.6 1.8 1.92.84a111.272 111.272 0 0 0 20.52 6.72 43.088 43.088 0 0 0-7.56 5.4 53.43 53.43 0 1 0 86.28 52.08c4.32-12.84 3.84-26.64 3.6-31.92-.48-11.88 5.4-18.48 9.12-21.36 16.8-2.16 31.8-5.88 42.84-10.8l1.8-.84 3.84-1.8-.12-.12c9-5.04 14.04-10.8 14.52-17.04.48-4.32-1.08-8.4-4.56-12.12ZM53.28 241.094l6.84-27.72H48.84L42 241.094h11.28zm24.6-21 .72 11.4h-5.88l5.88 9.6h10.32l-1.56-27.72H70.44s-13.92 27.72-13.8 27.72h10.8Zm-26.04 46.68-2.4 9.48H60l6.84-27.84H56.28l-2.52 10.8h-7.92l2.52-10.8H37.8l-6.84 27.84h10.56l2.28-9.48h8.04zm25.2 3.12.72-3.72h13.08l1.68-6.12H79.44l.84-4.08h13.08l2.04-7.56H71.64l-6.96 27.84h23.76l1.68-6.36H77.04zm67.92-28.8 6.84-27.72h-11.28l-6.84 27.72h11.28zm18.6-6.24c1.56 2.04 3.24 6.12-3.72 9.24-8.16 3.72 0 13.08-11.04 13.08h-4.56l-4.68 19.08h-11.28l4.56-19.08h-7.68l2.4-8.76h19.68c11.52 0 3.36-8.04 9.36-9.12 4.08-.72 6.6-1.44 6.96-4.44Zm-141-7.2-1.8-14.28H6.84L0 241.094h10.32l3.72-14.52h.12l2.04 14.52h6l8.4-14.52h.12l-3.36 14.52h9.72l6.84-27.72H30.6l-8.04 14.28zm91.8 0-1.8-14.28H98.64l-6.84 27.72h10.32l3.72-14.52h.12l2.04 14.52h6l8.4-14.52h.12l-3.36 14.52h9.72l6.96-27.72H122.4l-7.92 14.28h-.12zm-1.68 27.6.72 11.4h-5.88l5.88 9.6h10.32l-1.56-27.84h-16.92s-13.92 27.84-13.8 27.84h10.8Z"/><path d="M20.64 154.934a33.982 33.982 0 0 0 13.44 21.12 32.241 32.241 0 0 0 7.8 4.08c-1.68-2.88-3.72-5.88-5.76-8.88-3.84-5.64-7.8-11.52-10.32-17.76a36.815 36.815 0 0 1-2.16-20.04 51.182 51.182 0 0 0-3.12 17.76c0 1.32.12 2.52.12 3.72Z" fill="#98002e"/><path d="M29.28 152.174c2.4 5.88 6.24 11.52 9.96 16.92a143.545 143.545 0 0 1 7.8 12.6 69.295 69.295 0 0 0 7.2 1.08 59.363 59.363 0 0 1-6.6-12.6c-7.44-18.48-6.48-41.28 2.76-54.48a49.892 49.892 0 0 1 17.76-15.36c6.24-3.36 10.2-4.44 14.28-6.84 4.32-2.52 6.6-6.84 3.72-16.56a18.801 18.801 0 0 1-.72-6.84 18.462 18.462 0 0 0-2.16 6.72 52.994 52.994 0 0 1-1.8 8.88c-3.84 10.08-22.44 15.6-24.84 16.44a47.298 47.298 0 0 0-17.28 9.24 37.037 37.037 0 0 0-10.08 40.8Z" fill="#98002e"/><path d="m107.04 61.094.36 1.8c.48 3.6-.6 6.48-4.8 7.08-4.44.72-6-3.12-6.36-6.24 0-1.2.12-2.04.12-2.64H94.2a25.844 25.844 0 0 0-5.16 3.96c-.84 1.92-1.92 4.56-.24 10.68 2.88 10.92 1.56 17.52-7.08 21.24-11.16 4.8-18.36 7.68-27.84 19.68-4.56 5.64-7.08 15.24-7.44 24.72a69.217 69.217 0 0 0 4.8 27.36 63.646 63.646 0 0 0 7.8 14.16 57.846 57.846 0 0 0 9-1.2 23.565 23.565 0 0 1-5.64-13.92c-1.08-17.76 8.4-25.2 23.04-36.84l6.6-5.52c26.16-22.2 18.48-44.76 21.36-64.08a56.347 56.347 0 0 0-6.36-.24Z" fill="#98002e"/><path d="M117.48 61.454a96.467 96.467 0 0 0-1.44 12c-1.08 16.8-.48 35.88-21.84 54.72l-6.36 5.16c-14.28 11.4-22.44 18.6-21.84 34.08a18.47 18.47 0 0 0 5.88 13.08 58.284 58.284 0 0 0 11.76-4.92c18.48-10.56 30.12-26.28 34.56-46.44 2.76-12.72 2.76-23.04 2.64-31.44 0-4.2.6-12.36.6-12.36.6-5.16 1.32-12.6 7.44-22.08.24-.36.36-.6.6-.96-3.72-.36-7.8-.6-12-.84Z" fill="#98002e"/><path d="M123.72 115.454c-.6 3.12-.72 6.48-1.08 9.84-.24 1.2-.48 2.52-.6 3.72a3.503 3.503 0 0 1-.24 1.08c-4.56 21.24-16.68 37.68-36.24 48.72a63.136 63.136 0 0 1-10.08 4.68c5.76 3.72 12.36 4.92 16.92 4.2 17.52-2.52 26.04-13.92 30.12-26.16 4.2-12.48 3.72-25.8 3.48-31.32-.6-18.48 13.56-25.32 13.56-25.32-10.92-.6-14.64 4.2-15.84 10.56Z" fill="#98002e"/><path d="M112.08 183.494a35.427 35.427 0 0 1-18.24 7.8 29.136 29.136 0 0 1-22.2-6.12c-.24-.12-.24-.24-.48-.36a60.82 60.82 0 0 1-9.12 1.68c6.96 7.56 16.32 11.88 28.68 12.6h.12a51.1 51.1 0 0 0 21.48-15.72c-.12 0-.12.12-.24.12Zm-65.04 12.72a25.382 25.382 0 0 0-2.76-11.52 50.167 50.167 0 0 1-12.48-5.52 37.441 37.441 0 0 1-6.12-5.52 51.117 51.117 0 0 0 21.36 22.56Z" fill="#98002e"/><path d="M82.68 201.494a45.906 45.906 0 0 1-18.12-7.92 44.814 44.814 0 0 1-7.32-6.96 39.12 39.12 0 0 1-8.4-.84 25.503 25.503 0 0 1 1.8 12.36 50.515 50.515 0 0 0 21.36 4.56 52.864 52.864 0 0 0 10.68-1.08c.12-.12 0-.12 0-.12Zm59.88-126.48c-1.2 3.96-5.16 3.48-6.36 1.32-1.8-3.36-1.08-6 .84-7.8 1.8-1.8 4.92-2.76 7.92-4.2h.12c-3.48-.6-7.2-1.08-11.04-1.56-.12.12-.12.12-.24.12a10.489 10.489 0 0 1-.96 1.2 43.612 43.612 0 0 0-7.68 21.6l-.12 1.68a68.752 68.752 0 0 0-.36 10.44v1.68c-.12 1.44-.12 2.88-.12 4.2.12-.6.12-.72.12-.48 1.68-5.64 4.92-9 9.48-10.92 5.04-1.92 9.84-3.72 10.08-10.92.12-3 .36-6 .96-7.44a7.257 7.257 0 0 1 3.48-3.6c-2.4-.12-5.04.84-6.12 4.68Z" fill="#98002e"/><path d="M148.44 46.694c.36-4.8 4.92-5.64 9.36-9.72 5.64-5.4-1.8-14.28-1.8-14.28.96 6-1.8 8.28-6.84 11.88a6.626 6.626 0 0 0-3 4.68 48.84 48.84 0 0 1-.72 7.08 25.566 25.566 0 0 1 3 .36Z" fill="#f9a01b"/><path d="M148.44 46.694c.36-4.8 4.92-5.64 9.36-9.72 5.64-5.4-1.8-14.28-1.8-14.28.96 6-1.8 8.28-6.84 11.88a6.626 6.626 0 0 0-3 4.68 48.84 48.84 0 0 1-.72 7.08 25.566 25.566 0 0 1 3 .36Z" fill="none" stroke="#f9a01b" stroke-width=".12"/><path d="M132.96 38.414a46.51 46.51 0 0 0-3.72 3.12c-.84.84-1.68 1.56-2.4 2.4 4.92.36 9.72.96 14.4 1.56 2.88-5.4 4.32-11.4 2.52-21.84 0 0-.36 7.08-10.8 14.76Z" fill="#f9a01b"/><path d="M132.96 38.414a46.51 46.51 0 0 0-3.72 3.12c-.84.84-1.68 1.56-2.4 2.4 4.92.36 9.72.96 14.4 1.56 2.88-5.4 4.32-11.4 2.52-21.84 0 0-.36 7.08-10.8 14.76Z" fill="none" stroke="#f9a01b" stroke-width=".12"/><path d="M105.36 42.854c5.64.12 11.16.24 16.68.72a2.617 2.617 0 0 1 .48-.6c3.6-3.84 9.24-7.2 12.24-11.52s1.8-9.72.6-16.2c-1.92-11.16 2.88-13.2 2.88-13.2s-9.48 1.32-9.24 6.72c.24 7.32 7.8 14.16-3.6 16.32-12.48 2.28-20.28 9-21.96 17.88a10.981 10.981 0 0 1 1.92-.12Z" fill="#f9a01b"/><path d="M105.36 42.854c5.64.12 11.16.24 16.68.72a2.617 2.617 0 0 1 .48-.6c3.6-3.84 9.24-7.2 12.24-11.52s1.8-9.72.6-16.2c-1.92-11.16 2.88-13.2 2.88-13.2s-9.48 1.32-9.24 6.72c.24 7.32 7.8 14.16-3.6 16.32-12.48 2.28-20.28 9-21.96 17.88a10.981 10.981 0 0 1 1.92-.12Z" fill="none" stroke="#f9a01b" stroke-width=".12"/><path d="M105.36 45.734c-52.32-.48-95.88 12.96-97.32 30.12-.6 6.84 5.52 13.2 16.44 18.48a116.358 116.358 0 0 0 25.32 8.16 75.42 75.42 0 0 1 6.24-2.28 67.4 67.4 0 0 0 8.4-3.12c-14.64-2.04-26.4-5.4-33.72-9.36-5.4-2.88-8.28-6.12-7.92-9.6.96-11.52 37.56-20.4 81.6-20.04 44.16.48 79.08 10.2 78 21.6-.24 3.24-3.24 6.12-8.16 8.76-9.24 4.92-25.44 8.52-45.24 10.32a23.978 23.978 0 0 0-1.8 3.12c9-3.36 19.44 1.68 19.44 1.68a9.494 9.494 0 0 1 1.2.6c13.08-2.4 24.36-5.76 32.76-9.72 9.96-4.68 16.08-10.56 16.56-16.68 1.44-17.16-39.6-31.44-91.8-32.04Z" fill="#fff"/></svg>