<svg xmlns="http://www.w3.org/2000/svg" xml:space="preserve" height="351.825" viewBox="0 0 295.202 365.4" width="284.233"><path d="M147.771 364.086c-80.4 0-145.8-65.4-145.8-145.8 0-39.3 15.5-76.2 43.6-103.9.2-.2.5-.4.7-.6-9.7-14.6-15.1-31.7-11-52.4 7.6-38.1 38.4-49.6 39.7-50.1.5-.2 1-.3 1.5-.3 1.6 0 3.2.9 4 2.4.5.9.6 2 .4 3 10.1-8.5 19.7-12.2 23.7-13.5.5-.1.9-.2 1.4-.2 1.7 0 3.4 1 4.1 2.6.9 2.1.2 4.5-1.8 5.7-9.2 5.5-17.2 13.1-23.2 21.7 7.3-1.7 12.1-1.9 13.8-1.9h.9c2.2.1 4 1.9 4.2 4.1s-1.2 4.2-3.4 4.8c-.1 0-12.2 3.1-25.5 12.6-2.5 7.7-3.8 15.7-3.8 23.8 0 15.4 4.9 31.3 13.5 43.4 2 2.8 3.9 5.3 6 7.5-.8-15.9 3.9-40.5 32.5-51.9.5-.2 1.1-.3 1.7-.3 1.7 0 3.2.9 4 2.5 1.1 2.1.3 4.6-1.7 5.9l-.2.1c-4.3 2.8-8 6.4-10.8 10.6 3-.9 5.6-1.2 7.3-1.4h.8c1.9 0 3.6 1.2 4.2 3 .7 2-.1 4.2-1.8 5.3l-.3.2c-9.1 5.3-14.2 11.4-15.1 18.2-1 7.4 3.1 14.4 6 18.4 7.7-8.9 12.6-24 14-29.7.5-2 2.3-3.4 4.4-3.4h.5c2.3.3 4 2.2 4 4.4.1 18.7-4.9 31.5-10 39.6 7.7 3.8 15.1 4.1 16.8 4.1h1c1.6 0 9.1-.2 16.8-4.1-5.1-8.2-10.1-21-10-39.6 0-2.3 1.7-4.2 4-4.4h.5c2 0 3.9 1.4 4.4 3.4 1.4 5.7 6.4 20.8 14 29.7 3-4 7-11 6-18.4-.9-6.8-6-13-15.1-18.2-.1 0-.3-.2-.3-.2-1.8-1.1-2.6-3.4-1.9-5.3.6-1.8 2.3-3 4.2-3h.8c1.8.2 4.3.5 7.3 1.4-2.8-4.2-6.5-7.8-10.8-10.6l-.2-.1c-2-1.2-2.7-3.8-1.7-5.9.8-1.6 2.4-2.5 4-2.5.6 0 1.1.1 1.7.3 28.5 11.4 33.2 36 32.5 51.9 2.1-2.2 4-4.7 6-7.5 8.6-12.2 13.5-28 13.5-43.4 0-8.1-1.3-16.1-3.8-23.8-13.4-9.6-25.3-12.6-25.5-12.6-2.2-.5-3.6-2.6-3.4-4.8s2-4 4.2-4.1h.9c1.7 0 6.6.2 13.8 1.9-6.1-8.7-14.1-16.2-23.2-21.7-2-1.2-2.7-3.6-1.8-5.7.7-1.6 2.4-2.6 4.1-2.6.5 0 .9.1 1.4.2 4 1.3 13.6 5 23.7 13.5-.2-1-.1-2 .5-3 .8-1.5 2.3-2.4 4-2.4.5 0 1 .1 1.5.3 1.3.5 32.1 12 39.7 50.1 4.1 20.7-1.3 37.8-11 52.4.3.2.5.4.7.6 28.1 27.7 43.6 64.6 43.6 103.9.4 80.4-65 145.8-145.4 145.8z" class="st0" fill="#eee1c6"/><path fill="#00471b" d="M105.971 7.285c-10.1 3.2-30.6 13.7-42.6 39.6-4.8 3.3-8.9 7.5-13.4 13 4.6-21.1 15.7-36.2 26.5-44.2 0 0-29.6 10.7-36.8 46.7-8.4 41.9 25.1 68.101 52.2 90.601l-20.6-8.4c-1.4-.6-2.401.8-2.101 2.4l.601 5.1c.3 2.8 2.4 16.999 10.2 21.299 1.6.9 4.499 2.002 13.1 2.602l15.5 1-2.6 8.7 15.2 24.3-7.8-8.2-15.9 56.5 43.6 35.9-13.6-61.7 20.3 24.7 20.1-24.7-13.6 61.7 43.6-35.9-15.9-56.5-7.8 8.2 15.2-24.3-2.6-8.7 15.5-1c8.5-.6 11.4-1.701 13.1-2.601 7.8-4.3 9.899-18.5 10.199-21.3l.6-5.099c.3-1.6-.7-3-2.1-2.4l-20.6 8.4c27.1-22.5 60.599-48.702 52.199-90.602-7.2-36-36.8-46.698-36.8-46.698 10.9 8 21.9 22.999 26.5 44.199-4.4-5.5-8.5-9.7-13.4-13-12.1-25.9-32.5-36.4-42.6-39.6 13.1 7.9 24 19.6 30.6 33.1-15.1-5.4-24.2-4.899-24.2-4.899s13.5 3.3 28.2 14.2c2.9 8.4 4.5 17.3 4.5 26.6 0 16.3-5.3 33.1-14.4 46-5.1 7.2-10.1 12.2-16.2 16.8 2-5.1 9.801-44.6-27.6-59.6l.3.2c8.9 5.7 15.4 14.6 18 25.1-6.8-6.6-13.998-7.2-17.798-7.7.1 0 .099.1.199.1 34.7 20 7.1 47.1 7.1 47.1-10.9-9.2-17.3-29.7-18.7-35.3-.1 21.7 7.1 34.7 12 41-11.2 7.7-23.7 7.2-23.7 7.2s-12.5.5-23.7-7.2c4.9-6.3 12.1-19.3 12-41-1.4 5.6-7.799 26.1-18.699 35.3 0 0-27.6-27.1 7.1-47.1.1 0 .1-.1.2-.1-3.8.5-11 1.2-17.8 7.7 2.7-10.5 9.2-19.4 18-25.1l.3-.2c-37.4 15-29.6 54.5-27.6 59.6-6.1-4.6-11.1-9.602-16.2-16.802-9.1-12.8-14.4-29.6-14.4-46 0-9.3 1.6-18.3 4.5-26.6 14.7-10.9 28.2-14.199 28.2-14.199s-9.1-.501-24.2 4.899c6.7-13.5 17.6-25.198 30.6-33.098zm-57.3 110.3c-26 25.7-42.2 61.3-42.2 100.7 0 77.9 63.401 141.3 141.3 141.3 77.9 0 141.3-63.4 141.3-141.3 0-39.4-16.099-74.999-42.199-100.7l-3.1 3.8c25 24.7 40.399 59 40.399 96.9 0 75.3-61.1 136.4-136.4 136.4-75.3 0-136.4-61.1-136.4-136.4 0-37.9 15.5-72.2 40.4-96.9l-3.102-3.8zm6.8 7.2c-24.1 23.9-39.1 57-39.1 93.5 0 72.4 58.9 131.4 131.4 131.4 72.4 0 131.4-58.9 131.4-131.4 0-36.5-14.9-69.499-39-93.299l-3.398 3.6c22.9 22.9 37.398 54.799 37.398 89.699 0 8.1-.8 16-2.2 23.6l-39.1-10.799c-6.2 41.8-42.2 74-85.7 74-43.3 0-79.3-31.9-85.6-73.5l-38.1 10.3c-1.4-7.7-2.2-15.5-2.2-23.6 0-34.8 14.7-67.2 37.6-90.1l-3.4-3.4z"/><path fill="#eee1c6" d="M58.772 61.086c-1.3 1.4-2.6 2.799-3.8 4.299-11.6 15.1 5.5 42.102 5.5 42.102s-6.4-29.2-1.7-46.4zm177.9 0c4.9 17.2-1.6 46.4-1.6 46.4s17.1-27.002 5.401-42.102c-1.2-1.5-2.5-2.999-3.8-4.299z"/><path fill="#fff" d="M76.471 151.886s1.501 12.702 6.801 15.602c3.6 2 12.3 1.798 20 2.398-8.5-3.3-21-12.3-26.8-18zm142.6 0c-5.9 5.7-18.299 14.7-26.799 18 7.6-.6 16.4-.399 20-2.399 5.3-2.9 6.8-15.602 6.8-15.602zm-45.979 19.076a1.214 1.214 0 0 0-.62.125c-4.2 1.9-8.3 3.799-10.5 4.799-.9.4-1.101 1.6-.401 2.2 2.1 2.1 6.001 4.1 10.7.5 2.5-1.9 2.5-4.7 2.2-6.5-.15-.6-.75-1.087-1.379-1.124zm-50.64.086c-.624.014-1.207.463-1.282 1.138-.3 1.8-.299 4.6 2.201 6.5 4.6 3.6 8.6 1.6 10.7-.5.6-.7.4-1.799-.5-2.199-2.2-1-6.4-2.9-10.5-4.8-.2-.1-.412-.144-.62-.14zm20.618 9.738-4.1 13.39s-1.399 5.3-7.199 9l-2.5 11 6.1 8.3h6.5l-6-8.9 1-5.5c2.7 2.9 6.6 4.8 10.9 4.8 4.3 0 8.198-1.8 10.898-4.8l1 5.5-6 8.9h6.5l6.101-8.3-2.5-11c-5.8-3.7-7.2-9-7.2-9l-4.1-13.4-4.7 2.3-4.701-2.3zm-4.1 46.79 4.2 5.7h9.2l4.2-5.7h-17.6zm100.4 11.699-3.5 11.5-1 3.201 13.1 3.899 3.301 1 3.1-10.2 8.1 2.401-1.7 5.7-3.5-1.1-1.4 4.5 4.9 1.5 3.299 1 4.4-14.801-3.3-.7-10.898-3.3-3.301-1-3.1 10.2-7-2.099 1.7-5.701 3.5 1 1.4-4.5-4.801-1.5-3.299-1zm-183.2.701-29 10 1.5 4.5 18.3-6.3-6.5 5.4 8.4.3-18.2 6.3 1.5 4.5 29-10-1.6-4.5-8.4-.3 6.5-5.399-1.5-4.5zm177.2 15.8-2.4 4.4 5.6 7.6-7.5-4-2.2 4.201 27.1 14.4 2.2-4.2-11.8-6.3 14.2 1.8 2.302-4.4-19.5-2.6-8-10.9zm-170.2 2.9-27.199 14.2 2.2 4.2 27.2-14.2-2.2-4.2zm4.301 8.4-24.9 17.9 8.6 12 4-2.9-5.8-8.201 20.9-14.898-2.8-3.9zm157.9 3.6-9.6 12 2.7 2.2 21.1 16.9 2.1-2.6 7.5-9.4-2.7-2.1-4.5-3.801-2.901 3.701 3.5 2.799-3.7 4.701-16.2-12.9 3.7-4.699 3.401 2.7 2.899-3.7-4.6-3.602-2.7-2.2zm-149.8 7.7-19.6 23.7 3.2 3.2 8.4-5.799-5.7 8.5 3.2 3.2 23.4-19.9-2.9-3.1-9.9 8.1 7.1-10.9-1.1-1.1-10.8 7.201 7.9-10-3.2-3.101zm137.6 7.102-3.7 3 16.7 19.5-4.6 3.799-16.5-19.6-3.6 3.1 19.5 23.5 2.7-2.3 6.701-5.6 2.5-2.1-19.7-23.3zm-122.3 7.5-.1.1-16.4 25.699 4 2.5 7.2-11.3 5 3.2-7.2 11.301 4 2.5 13.9-21.701 1.6-2.5.9-1.4.1-.1-13-8.299zm104.4 6.1-10.602 5.699 14.5 26.801 10.602-5.701 1.299-4.5-4.5-8.299-2.7-1.201.5-3-4.7-8.6-4.399-1.199zm-103.1.6 5 3.199-4 6.3-5-3.198 4-6.301zm14 3.1-11.1 28.4 3.3 1.3 8.2 3.1 3.1 1.199 11-28.5-4.5-1.7-9.2 23.9-5.6-2.1 9.2-23.899-4.4-1.701zm90.301 1.3 3.5 6.5-5.3 2.799-3.5-6.5 5.3-2.799zm-23.199 4.7-14.5 2.8 5.899 29.9 14.5-2.8-.899-4.801-9.9 1.9-1.702-8.4 9.801-1.899-.9-4.701-9.799 1.9-1.4-7.199 9.798-1.9-.898-4.801zm-49.2.3-5.3 30.2 4.7.8 2.3-13.201 2.7 14 4.9.9-3.6-19.299 7.899-11-4.899-.9-5.5 7.7 1.5-8.401-4.7-.8zm31.4 2.799-14.7.201.5 30.5 14.7-.201-.1-4.898-10 .298-.1-8.6 10-.198-.102-4.801-10 .199-.1-7.398 10-.202-.099-4.9zm46.698 2.9 4.102 7.5-5.301 2.801-4.1-7.5 5.3-2.8z"/></svg>