<svg xmlns="http://www.w3.org/2000/svg" xml:space="preserve" height="269.42" viewBox="0 0 269.354 269.421" width="269.35"><g transform="matrix(1.25 0 0 -1.25 -248.16 827.57)"><ellipse rx="106.94" ry="106.97" transform="scale(1 -1)" cy="-554.27" cx="306.25" fill="#9ea2a2"/><ellipse rx="103.17" ry="103.19" transform="scale(1 -1)" cy="-554.42" cx="306.79" fill="#0c2340"/><path d="M307.05 622.65a68.058 68.058 0 0 1-15.411-1.678c-.46-1.49-1.086-4.393-.039-7.033.63-1.591 1.854-2.881 3.577-3.884 4.725 1.924 9.856 3.89 14.805 5.547 6.25 2.28 11.802 3.537 16.117 4.203-.116.032-.226.074-.341.106a69.095 69.095 0 0 1-9.227 2.016c-3.173.466-6.34.705-9.48.723zm-20.175-2.94a68.714 68.714 0 0 1-26.336-14.96c.33 0 .701-.011 1.05-.019 6.473.384 15.685.119 20.95-.094 2.222 1 4.926 2.188 7.927 3.46-1.307 1.213-2.3 2.632-2.944 4.272-1.02 2.603-.98 5.246-.647 7.342zm48.6-3.441-.003-.08c-.188.005-14.558.334-32.344-8.29-.313-.183-.62-.379-.923-.585 5.571-1.631 10.174-1.965 13.48-2.19.778-.055 1.47-.102 2.07-.158l.494-.043a95.877 95.877 0 0 0 8.687-1.156c2.63 3.223 5.807 5.23 7.945 5.705 2.523-.945 3.811-2.418 4.729-4.519 3.494-1.466 5.834-4.045 7.375-7.128 8.085-3.521 16.214-8.734 22.427-16.455-6.51 15.054-18.367 27.686-33.936 34.898zm-37.052-12.297c-1.47-1.626-2.68-3.343-3.59-4.786 1.846-1.922 5.374-5.615 7.123-7.581a155.495 155.495 0 0 0 9.05-5.891c4.781 5.383 9.029 9.751 13.219 14.136-2.035.29-4.143.532-6.34.72l-.546.046c-.566.056-1.221.098-1.953.15-3.766.254-9.75.719-16.962 3.206zm-38.034-3.616a62.408 62.408 0 0 1-4.38-.14 67.88 67.88 0 0 1-13.339-21.9c6.948 7.21 17.4 14.878 29.008 12.608.918 1.63 1.847 3.261 2.692 4.743-3.625 2.377-5.89 4.1-12.138 4.66a69.74 69.74 0 0 1-1.843.029zm88.453-7.917c2.074-9.293-.28-19.85-.28-19.85s5.053-2.925 6.28-8.502c.005-.003.674-.287 1.205-1.108 1.411-1.731 3.213-5.726.317-13.58 0 0-1.718 3.666-5.355-.282a123.3 123.3 0 0 1-.914-1.297c6.926-9.531 12.202-19.478 14.888-29.188a68.464 68.464 0 0 1 7.3 16.534 68.206 68.206 0 0 1 2.49 24.778c-1.758 8.107-7.484 23.04-25.93 32.494zm-63.494-1.59c-1.87-.893-3.92-1.934-5.895-3.077 5.563-3.65 9.703-9.82 12.853-17.07 4.423 1.536 7.476 1.568 7.476 1.568a296.323 296.323 0 0 0 8.288 10.087 151.232 151.232 0 0 1-8.95 5.81c-3.274 1.179-11.091 2.314-13.772 2.682zm-18.389-3.888c-12.171-.406-22.927-13.106-27.269-18.991-3.035-14.77-1.02-29.574 4.972-42.473a220.466 220.466 0 0 1 9.264 9.254c-.23 9.804 1.084 19.255 3.953 28.288a80.182 80.182 0 0 0 9.094 19.306c.524 1.034 1.399 2.653 2.437 4.529a17.68 17.68 0 0 1-2.451.087zm8.377-1.827c-1.042-.755-1.983-1.528-2.775-2.306-7.957-11.193-13.622-25.81-14.17-43.258 8.498 9.357 15.493 18.027 20.264 22.619 3.306 3.177 6.647 5.351 9.671 6.84-3.164 7.297-7.342 13.257-12.99 16.105zm72.117-41.319c-4.458-7.242-6.648-14.055-6.897-26.008-.137-6.548 3.09-11.592 5.486-19.377a68.188 68.188 0 0 1 15.62 15.266c-1.973 9.776-7.111 20.113-14.21 30.12z" fill="#236192"/><path d="M334.69 606.49c-1.314.038-3.002-1.139-5.072-4.91 4.417 4.731 8.305 1.683 8.305 1.683-.473 1.123-1.544 3.178-3.233 3.227zm-41.386-.934-9.48-4.758s-6.785.56-10.352.664c3.253-2.098 6.077-4.51 6.077-4.51l-4.195-6.959 8.947 4.866s5.646-.951 10.788-2c-2.939 3.357-6.513 5.84-6.513 5.84l4.728 6.856zm3.816-40.947c-5.167-2.582-12.937-10.327-12.937-10.327 3.746 2.548 11.53 3.698 11.53 3.698.162 3.194 1.407 6.628 1.407 6.628z" fill="#78be20"/><path d="M306.56 631.3c-38.221 0-70.98-28.596-76.208-66.511-2.17-15.744.498-31.412 7.553-45.283.883.735 1.762 1.487 2.631 2.248-6.472 13.085-8.896 27.796-6.856 42.577 4.997 36.265 36.328 63.61 72.88 63.61a74.48 74.48 0 0 0 10.147-.699c19.461-2.683 36.73-12.805 48.625-28.506 11.896-15.698 16.971-35.063 14.287-54.523-2.96-21.474-15.154-39.817-32.194-51.211.23-1.143.434-2.346.603-3.61 18.474 11.84 31.75 31.388 34.92 54.362 2.803 20.349-2.504 40.597-14.942 57.01-12.438 16.416-30.492 27-50.84 29.804a77.84 77.84 0 0 1-10.607.732zm33.645-31.925c.153-.48-.02-2.168-.156-3.497 0 0-.013.02-.02.028-3.084-.56-9.883.209-12.088 1.366-8.359-8.966-17.472-21.44-24.33-32.897-2.974-6.057-5.89-13.166-6.618-18.941 0 0-.947 2.612-1.17 6.095-3.797-1.466-16.696-7.805-19.458-27.247 0 0 8.201 8.46 17.266 11.758 0 0-5.742-15.037 5.217-41.684 0 0 4.436 16.341 13.713 20.462 5.619-27.903 22.09-28.359 26.894-47.345 0 0 5.032 9.835-1.025 26.55 0 0 2.09-.58 3.86-2.669 0 0-.275 4.889-4.846 15.438-2.978 5.649-3.912 13.267-3.912 13.267-2.675-2.423-3.358-10.61-3.358-10.61-8.177 22.184 15.032 44.167 19.267 47.411 2.069 1.586 3.342 1.61 4.112 1.232.797 1.65.725 2.709-.232 3.398 0 0-.405.276-.494.322-2.464 1.315-6.878-2.516-9.76-4.102-2.88-1.586-7.077-4.967-9.128-.31-2.05 4.655 2.665 11.938 4.297 16.52 3.603 10.132 3.735 16.095 2.974 19.322 3.33-3.759 4.376-10.967 4.376-10.967s1.238 13.534-5.38 17.098zm-72.152-77.281s-15.472-11.338-31.294-12.245c0 0 15.658-3.69 22.278-.984-.636.415-1.347 1.016-2.053 1.915 0 0 6.395 4.117 11.034 11.231.009.026.024.056.034.083z" fill="#9ea2a2"/><path d="m314.73 650.41-.377-2.837 3.613-.48-1.342-10.127 2.91-.388 1.343 10.13 3.612-.48.375 2.837-10.134 1.345zm-25.088-1.158-.419-.07-3.653-14.017 3.183.55 1.819 6.878 4-5.875 3.206.553-8.136 11.981zm43.513-2.353-3.719-12.54 2.814-.835 3.72 12.538-2.815.837zm-56.7-.69-9.475-3.835 1.072-2.652 3.376 1.366 3.835-9.469 2.722 1.099-3.833 9.473 3.377 1.366-1.074 2.651zm69.4-3.563-6.116-11.711 2.588-1.353 2.817 5.397 1.335-4.999.337-.178 4.858 1.769-2.819-5.397 2.61-1.364 6.115 11.712-.395.206-8.614-3.145-2.32 8.798-.018.064-.378.2zm-87.909-6.066a6.718 6.718 0 1 1 0-13.436 6.718 6.718 0 1 1 0 13.436zm0-3.053a3.667 3.667 0 1 0-.002-7.332 3.667 3.667 0 0 0 .002 7.332zm108.39-3.494-1.916-2.204-1.306-1.503-.104-.12-1.81-2.083-1.553-1.791-1.917-2.203 2.205-1.916 1.912-1.66c.837-.728 1.82-1.13 2.842-1.163a4.009 4.009 0 0 1 3.164 1.392c.7.805 1.036 1.823.966 2.867a3.947 3.947 0 0 1 1.953 1.236c.824.947 1.16 2.114.945 3.275-.174.945-.695 1.801-1.548 2.54l-1.628 1.418-2.205 1.916zm.287-4.118 1.632-1.417c.685-.596.787-1.152.312-1.699-.583-.67-1.312-.285-1.822.158l-1.533 1.331 1.411 1.627zm-124.33-1.592-.257-.005c-1.463-.044-2.842-.761-4.097-2.13-.792-.866-1.276-1.89-1.367-2.885-.11-1.165.32-2.226 1.24-3.068 1.425-1.305 3.1-1.393 5.12-.266l1.407.778c.729.41 1.2.566 1.59.206.467-.423.355-1.024-.33-1.784a.064.064 0 0 0-.02-.022c-.906-.988-1.931-1.062-2.623-1.033l-.25.011-.319-3.26.277-.015c1.086-.058 3.214.176 5.232 2.385l.057.06c1.025 1.141 1.571 2.27 1.628 3.357.06 1.13-.41 2.155-1.392 3.054-1.457 1.334-3.043 1.36-5.3.097l-1.575-.88c-.58-.327-.915-.34-1.238-.043-.378.347-.308.88.186 1.428l.005.008c.567.617 1.189.934 1.964.995l.261.019-.198 2.992zm121.12-2.118 1.8-1.564c.741-.641.915-1.406.446-1.945-.47-.537-1.227-.515-1.888.06l-1.912 1.663 1.555 1.786zm16.958-5.73-10.256-8.12 5.518-6.972 2.289 1.813-3.694 4.669 1.717 1.358 3.181-4.02 2.291 1.812-3.183 4.018 1.69 1.34 3.695-4.67 2.271 1.8-5.518 6.971zm-151.24-4.4-4.93-7.395 10.88-7.256 4.933 7.396-2.428 1.621-3.305-4.954-1.822 1.212 2.846 4.267-2.43 1.62-2.844-4.265-1.795 1.195 3.303 4.955-2.408 1.605zm162.01-11.105-11.73-5.781 1.296-2.635 5.43 2.675-3.71-6.164 1.547-3.136s2.683 4.518 2.873 4.816c1.123-1.187 2.965-1.347 4.597-.546 2.447 1.208 3.218 3.632 1.858 6.388l-2.16 4.383zm-1.284-3.908.828-1.683c.594-1.205.314-2.04-.751-2.565-1.08-.532-1.929-.252-2.522.953l-.83 1.682 3.275 1.613zm-170.82-1.873-1.119-2.74 6.32-2.58-9.213-4.202-.179-.441 12.21-4.99 1.106 2.706-6.349 2.592 9.255 4.219.178.443-12.209 4.993zm179.46-10.255-11.697-7.77.11-.452 7.874-1.83-6.18-5.19.109-.457 13.952-1.578-.728 3.011-6.715.792 5.524 4.631-.106.444-7.04 1.655 5.624 3.723-.727 3.02zm-186.55-10.664-.455-2.92 6.743-1.054-7.997-6.212-.072-.474 13.03-2.039.454 2.89-6.773 1.06 8.03 6.236.074.473-13.034 2.04zm137.05-6.066c.644-.996.667-2.372.59-3.252.865.213 1.511.245 1.991.213-.142.396-.41.99-.893 1.578-.687.835-1.688 1.46-1.688 1.46zm-6.825-1.317c.719-2.128.567-4.282.392-5.477a35.425 35.425 0 0 0 2.755 1.731c-.153.362-.386.88-.74 1.508-.666 1.195-2.407 2.238-2.407 2.238zm54.461-6.392a6.72 6.72 0 0 1-6.719-6.72 6.715 6.715 0 0 1 6.72-6.716 6.717 6.717 0 0 1 6.72 6.715 6.72 6.72 0 0 1-6.72 6.72zm0-3.055a3.665 3.665 0 1 0 0-7.331 3.665 3.665 0 1 0 0 7.33zm-173.6-3.852-13.075-.312.07-2.936 13.073.312-.068 2.936zm.583-10.77-12.925-2.73.094-.438 7.904-4.647-5.314-7.388-.039-.053.09-.419 12.924 2.73-.603 2.858-5.955-1.258 3.011 4.206-.081.375-4.455 2.625 5.958 1.258-.61 2.881zm165.54-2.65-1.981-8.492 2.898-.676 1.316 5.632 9.837-2.295.669 2.86-12.74 2.971zm9.465-16.35-14.47-.654-.157-.396 10.025-10.455 1.2 2.999-4.905 5.154 7.097.33 1.21 3.022zm-19.437-11.055-4.753-7.514 2.466-1.56 3.184 5.032 1.85-1.169-2.739-4.334 2.466-1.561 2.744 4.333 1.822-1.152-3.183-5.033 2.444-1.547 4.753 7.514-11.053 6.991zm-6.623-13.927c-.233 0-2.33-.017-3.76-.712a7.095 7.095 0 0 1-1.94-1.366c-.684-.686-1.167-1.494-1.395-2.353-.378-1.438.038-2.943 1.084-3.933 1.006-.947 2.418-1.248 3.781-.803.45.147.977.406 1.586.706.717.352 1.798.908 2.297.936 1.204.07 1.175-1.663-.365-2.417-.572-.276-1.552-.562-2.061-.626l.368-2.944c.202.024 1.983.264 3.249 1.045 2.165 1.337 2.588 3.043 2.644 3.942.056.848-.298 2.1-1.213 2.98-.773.743-1.815 1.087-2.931.972-1.026-.107-2.232-.702-3.297-1.225-.467-.228-.947-.465-1.2-.549-.33-.107-.608-.06-.822.141-.201.19-.372.556-.252 1.016.183.684.84 1.361 1.761 1.809.617.3 1.838.414 2.461.414l.005 2.967z" fill="#fff"/></g></svg>