<svg xmlns="http://www.w3.org/2000/svg" height="220.781" width="295.701"><defs><style>.cls-1{fill:#8c734b}.cls-2{fill:#0a2240}.cls-3{fill:#ce0e2d}.cls-4{fill:#fff}</style></defs><path class="cls-1" d="m294.008 84.486.931.339V68.148a22.525 22.525 0 0 0-1.354-7.789 27 27 0 0 0-3.894-7.195 31.292 31.292 0 0 0-5.249-5.334 29.953 29.953 0 0 0-5.672-3.47c-1.27-.847-3.81-2.032-10.666-4.826-5.842-2.286-15.238-5.841-27.429-9.397a358.588 358.588 0 0 0-41.227-9.65c-.085-.17-10.751-13.46-26.751-6.604-.508.254-1.1.508-1.609.762-2.37 1.186-4.486 2.201-8.55 1.1-2.37-.676-5.418-2.115-4.232-7.449a5.817 5.817 0 0 1 2.709-3.64 4.084 4.084 0 0 1 3.301-.423c2.116.592 3.048 1.778 2.71 3.555a2.06 2.06 0 0 1-1.27 1.609 2.45 2.45 0 0 1-2.202-.424 1.703 1.703 0 0 0-1.947 2.794 5.556 5.556 0 0 0 5.418.762 5.278 5.278 0 0 0 3.217-4.148c.254-1.355.593-5.757-5.08-7.365a7.593 7.593 0 0 0-5.925.677 9.352 9.352 0 0 0-4.233 5.841v.17a18.87 18.87 0 0 0-1.693-2.032L147.808 0l-5.502 5.672a18.87 18.87 0 0 0-1.693 2.032v-.17a9.821 9.821 0 0 0-4.233-5.84 7.289 7.289 0 0 0-5.926-.678c-5.672 1.693-5.333 6.095-5.08 7.365a5.954 5.954 0 0 0 3.217 4.148 5.556 5.556 0 0 0 5.418-.762 1.703 1.703 0 1 0-1.947-2.794 2.223 2.223 0 0 1-2.2.424 2.465 2.465 0 0 1-1.27-1.609c-.34-1.777.592-2.963 2.708-3.555a4.084 4.084 0 0 1 3.302.423 6.505 6.505 0 0 1 2.709 3.64c1.27 5.333-1.778 6.857-4.233 7.45-4.063 1.1-6.18.085-8.55-1.1-.508-.255-1.1-.509-1.608-.763-16-6.857-26.667 6.434-26.836 6.604a.083.083 0 0 1-.085.084A366.68 366.68 0 0 0 56.211 29.8a313.546 313.546 0 0 0-38.01 13.968L16 44.783v.338a9.523 9.523 0 0 0-2.878.931c-3.556 1.609-7.027 3.387-10.498 5.08L0 52.486v9.058a11.021 11.021 0 0 0 1.27 5.503 3.04 3.04 0 0 0 .592.847v10.074a14.136 14.136 0 0 0-1.777 6.687 9.07 9.07 0 0 0 1.777 5.672v20.995l.254.592a23.175 23.175 0 0 0 13.46 13.037l-.253.17s5.248 8.465 13.375 10.243l-1.524.677s5.757 9.312 16.847 11.26l-1.609.761a33.205 33.205 0 0 0 18.37 9.143 91.466 91.466 0 0 0 174.221 0 33.205 33.205 0 0 0 18.37-9.143l-1.608-.762c11.09-1.947 16.846-11.259 16.846-11.259l-1.523-.677c8.127-1.778 13.375-10.243 13.375-10.243l.508-.678a24.062 24.062 0 0 0 14.73-21.587V92.19a33.823 33.823 0 0 0-1.693-7.704ZM193.692 19.64q-9.905-1.524-20.318-2.286c.17-.084.424-.169.593-.254a18.785 18.785 0 0 1 19.725 2.54ZM121.48 17.1a1.364 1.364 0 0 1 .592.339c-6.942.508-13.799 1.354-20.402 2.37 3.81-2.963 10.836-6.603 19.81-2.709Z"/><path class="cls-2" d="m286.304 77.375 4.91 1.947V68.148a21.491 21.491 0 0 0-1.1-6.519 24.113 24.113 0 0 0-3.302-6.18 26.47 26.47 0 0 0-4.571-4.656 24.725 24.725 0 0 0-5.164-3.132c-.931-.677-3.47-1.947-10.243-4.571-5.757-2.286-15.069-5.757-27.09-9.312-19.725-5.926-49.439-12.868-80.423-13.291a6.74 6.74 0 0 0-4.825-4.318c-.254-4.063-3.217-7.195-3.81-7.873l-2.878-2.963-2.878 2.963c-.593.593-3.555 3.81-3.81 7.873a6.618 6.618 0 0 0-4.825 4.233c-30.476.508-59.597 7.28-78.983 13.037a315.898 315.898 0 0 0-37.503 13.799v2.285s-.254-.169-.423-.254a4.613 4.613 0 0 0-1.862-.423 7.45 7.45 0 0 0-2.794.677 388.083 388.083 0 0 0-10.328 4.995l-.592.254v6.857a6.628 6.628 0 0 0 .846 3.64 3.985 3.985 0 0 0 1.1 1.27v12.444A11.686 11.686 0 0 0 3.98 84.74a5.088 5.088 0 0 0 1.778 4.233v21.756a19.641 19.641 0 0 0 13.63 11.429c.253.084.507.084.761.169h.085a21.308 21.308 0 0 0 5.333.423c-1.862.931-3.64 1.778-5.503 2.794 0 .085 5.503 9.058 18.54 7.788-2.201 1.016-4.317 2.117-6.519 3.132 0 .085 6.265 8.89 20.148 8.72a177.8 177.8 0 0 0-5.079 2.624 27.518 27.518 0 0 0 16.677 6.773 87.758 87.758 0 0 0 168.126 0 28.358 28.358 0 0 0 16.677-6.773s-1.947-1.016-5.08-2.624c13.8.254 20.064-8.55 20.149-8.72a228.465 228.465 0 0 0-6.519-3.132c13.122 1.27 18.54-7.619 18.54-7.788-1.863-.931-3.64-1.863-5.503-2.794a18.692 18.692 0 0 0 10.92-2.54 20.424 20.424 0 0 0 10.752-17.354V92.19c-.17-6.857-5.588-14.815-5.588-14.815Z"/><path class="cls-3" d="M206.136 162.03c1.608 1.27 3.301 2.54 4.91 3.81 0-.17-19.47 5.333-33.439-.762l-1.524-.762a29.502 29.502 0 0 1-56.888 0c-.508.254-.931.508-1.524.762-13.883 6.095-33.439.593-33.439.762 1.609-1.27 3.302-2.54 4.91-3.81a39.277 39.277 0 0 1-17.354-1.608 81.906 81.906 0 0 0 151.533 0 37.05 37.05 0 0 1-17.185 1.608Z"/><path class="cls-4" d="M139.597 28.952a6.602 6.602 0 0 1-3.217-3.555c-49.1 1.27-98.116 18.878-97.946 19.555a4.758 4.758 0 0 0-3.302 3.894v1.778a309.484 309.484 0 0 1 104.55-20.91Zm120.549 17.27c.085-.677-51.301-19.556-101.078-20.825a6.942 6.942 0 0 1-3.217 3.555v.677a317.624 317.624 0 0 1 107.597 22.18v-1.778a4.77 4.77 0 0 0-3.302-3.81Z"/><path class="cls-3" d="M153.142 20.063c-3.217-.423-3.725 4.148-3.81 5.672h-1.016c0-4.317 2.117-6.095 2.117-8.973s-2.625-5.587-2.625-5.587-2.624 2.709-2.624 5.587 2.032 4.656 2.032 8.973H146.2c-.085-1.524-.593-6.095-3.81-5.672-3.47.424-3.047 5.164 0 5.588 0 0-.592-2.117 1.1-2.117 1.27 0 1.61 1.44 1.694 2.201h-1.524v1.693h3.386a3.209 3.209 0 0 1-1.523 2.117 1.848 1.848 0 0 0 1.439 1.016 3.302 3.302 0 0 0 .846 2.031 3.151 3.151 0 0 0 .847-2.031 1.848 1.848 0 0 0 1.439-1.016 3.209 3.209 0 0 1-1.524-2.117h3.302v-1.693h-1.44c.085-.762.424-2.2 1.694-2.2 1.693 0 1.1 2.116 1.1 2.116 2.963-.424 3.302-5.164-.084-5.588"/><path class="cls-4" d="M137.396 53.164V42.582a7.677 7.677 0 0 0-.847-3.81 6.669 6.669 0 0 0-2.2-2.624 8.353 8.353 0 0 0-3.302-1.44 16.323 16.323 0 0 0-4.149-.253 13.4 13.4 0 0 0-4.148.846 11.956 11.956 0 0 0-3.386 1.863 7.777 7.777 0 0 0-2.2 2.963 9.813 9.813 0 0 0-.847 3.978v10.667a2.618 2.618 0 0 0-1.947 2.455 1.988 1.988 0 0 0 1.947 2.032v11.936a7.897 7.897 0 0 0 .846 3.81 6.417 6.417 0 0 0 2.201 2.54 8.143 8.143 0 0 0 3.386 1.354 17.286 17.286 0 0 0 8.297-.508 10.296 10.296 0 0 0 3.301-1.778 7.485 7.485 0 0 0 2.201-2.878 9.406 9.406 0 0 0 .847-3.894V57.904a2.433 2.433 0 0 0 2.116-2.285 2.295 2.295 0 0 0-2.116-2.455Zm-5.841 16.423a4.414 4.414 0 0 1-.424 1.947 4.307 4.307 0 0 1-1.1 1.354 8.04 8.04 0 0 1-1.44.847 5.466 5.466 0 0 1-1.608.338 11.345 11.345 0 0 1-1.693-.084 4.763 4.763 0 0 1-1.524-.593 3.744 3.744 0 0 1-1.1-1.185 4.15 4.15 0 0 1-.424-1.947V43.682a4.414 4.414 0 0 1 .424-1.947 4.307 4.307 0 0 1 1.1-1.354 4.439 4.439 0 0 1 1.524-.847 6.016 6.016 0 0 1 1.693-.339 4.948 4.948 0 0 1 1.609.17 3.221 3.221 0 0 1 1.439.677 4.948 4.948 0 0 1 1.1 1.185 4.414 4.414 0 0 1 .423 1.947ZM24.804 81.777c0 .085 0 .17-.085.085l-.169-.17c-.17-.508-7.11-23.703-7.534-24.719-.339-1.1-.593-1.608-.593-1.693a.878.878 0 0 0-.508-.677 1.185 1.185 0 0 0-1.016.169c-2.116 1.016-4.148 1.947-6.264 2.963v1.947a2.894 2.894 0 0 0 .254 1.44 1.733 1.733 0 0 0 .677.676 1.674 1.674 0 0 0 .931.17V79.66a4.024 4.024 0 0 0-1.777 3.132 1.276 1.276 0 0 0 1.777 1.354v24.974c1.609-.762 3.217-1.524 4.91-2.286V75.513c0-.254 0-.34.085-.34l.085.086a16.38 16.38 0 0 0 .592 1.608c.339 1.016 7.196 23.873 7.28 24.042a7.077 7.077 0 0 0 .593 1.355.677.677 0 0 0 1.016.169c1.1-.423 2.201-.931 3.302-1.355a2.489 2.489 0 0 0 1.016-.846 2.116 2.116 0 0 0 .338-1.185v-23.45a3.727 3.727 0 0 0 1.609-2.793 1.406 1.406 0 0 0-1.609-1.524V53.925a2.124 2.124 0 0 1 .17-.846c.084-.17.253-.423.338-.593a9.369 9.369 0 0 0 .931-1.354 3.255 3.255 0 0 0 .424-1.778v-1.693c-2.286.931-4.572 1.862-6.858 2.878v31.238Zm231.871.423c0 .085 0 .085-.085 0s-.084-.169-.169-.254c-.17-.592-.423-1.693-.931-3.386-.423-1.693-1.016-3.64-1.609-5.841s-1.185-4.571-1.862-6.942c-.677-2.455-1.27-4.656-1.862-6.688s-1.1-3.724-1.44-5.164a17.798 17.798 0 0 1-.592-2.2 2.624 2.624 0 0 0-.508-1.101 3.044 3.044 0 0 0-1.016-.677c-2.2-.678-4.317-1.44-6.518-2.117v1.947a5.091 5.091 0 0 0 .254 1.693 3.96 3.96 0 0 0 .677 1.186 3.609 3.609 0 0 0 1.016.93v13.8a1.605 1.605 0 0 0-1.863 1.693 3.251 3.251 0 0 0 1.863 2.793v20.233c1.693.508 3.386 1.1 5.079 1.608V66.031c0-.254 0-.338.085-.254 0 .085.084.085.084.254a19.57 19.57 0 0 0 .593 2.117c.423 1.354.846 3.047 1.44 5.079s1.184 4.233 1.862 6.603 1.27 4.571 1.862 6.688 1.1 3.894 1.524 5.333q.635 2.286.762 2.54a16.405 16.405 0 0 0 .592 1.862 1.976 1.976 0 0 0 1.016 1.016l3.302 1.27a.87.87 0 0 0 1.015-.085 1.156 1.156 0 0 0 .339-.931V78.729a1.406 1.406 0 0 0 1.608-1.523 3.591 3.591 0 0 0-1.608-2.794v-13.46a1.094 1.094 0 0 1 .17-.677l.338-.339a2.86 2.86 0 0 0 .931-.593 1.842 1.842 0 0 0 .423-1.439v-1.693c-2.285-.931-4.656-1.778-6.941-2.624V82.2Zm28.952 4.402a26.936 26.936 0 0 0-2.624-4.486q-1.27-1.778-2.794-3.556a1.074 1.074 0 0 0 .085-.508 4.108 4.108 0 0 0-2.201-3.301 1.552 1.552 0 0 0-1.355-.085c-.169-.17-.338-.423-.508-.593a37.014 37.014 0 0 1-2.624-3.301 5.107 5.107 0 0 1-1.1-2.71v-9.227a1.092 1.092 0 0 1 .423-.93 1.858 1.858 0 0 1 1.016-.424 6.365 6.365 0 0 1 1.27 0 7.45 7.45 0 0 1 1.27.423c.338.17.761.424 1.27.677.423.34.93.678 1.27 1.016a6.067 6.067 0 0 1 .93 1.27 3.12 3.12 0 0 1 .424 1.44v2.2a5.236 5.236 0 0 0 .93 2.794 5.473 5.473 0 0 0 2.371 2.032c.847.423 1.693.762 2.455 1.185V66.2a14.281 14.281 0 0 0-.677-4.232 15.931 15.931 0 0 0-2.032-3.725 14.854 14.854 0 0 0-3.047-3.048 17.498 17.498 0 0 0-3.81-2.285 15.017 15.017 0 0 0-3.81-1.186 5.905 5.905 0 0 0-3.047.254 4.308 4.308 0 0 0-2.032 1.863 7.636 7.636 0 0 0-.762 3.725v7.619a10.605 10.605 0 0 0 1.016 4.571 20.795 20.795 0 0 0 2.625 4.063 45.195 45.195 0 0 0 3.301 3.725 2.504 2.504 0 0 0-.17.847 3.86 3.86 0 0 0 2.202 3.217 1.508 1.508 0 0 0 1.693-.085 20.555 20.555 0 0 1 2.37 3.386 7.787 7.787 0 0 1 1.016 3.81v10.92a1.675 1.675 0 0 1-.423 1.185 3.379 3.379 0 0 1-1.1.593 4.101 4.101 0 0 1-1.44 0 5.139 5.139 0 0 1-1.524-.423 7.375 7.375 0 0 1-1.523-.931c-.508-.424-1.016-.847-1.44-1.27a9.242 9.242 0 0 1-1.1-1.44 3.45 3.45 0 0 1-.423-1.523v-2.54a3.784 3.784 0 0 0-.762-2.37 5.397 5.397 0 0 0-2.286-1.693c-.931-.339-1.778-.762-2.709-1.1v4.401a10.503 10.503 0 0 0 .847 4.233 12.312 12.312 0 0 0 2.2 3.64 17.834 17.834 0 0 0 3.218 2.963 36.019 36.019 0 0 0 3.894 2.286 20.757 20.757 0 0 0 3.894 1.27 6.74 6.74 0 0 0 3.217-.085 3.668 3.668 0 0 0 2.2-1.693 6.028 6.028 0 0 0 .847-3.471V91.174a9.852 9.852 0 0 0-.93-4.572ZM88.888 61.375c-.254 2.032-.508 4.064-.677 6.095-.254 2.032-.423 3.725-.677 5.334-.17 1.523-.339 2.793-.508 3.724-.085.932-.17 1.44-.254 1.44q-.762-4.064-1.27-7.365c-.339-2.201-.762-4.572-1.27-7.28-.423-2.71-.931-5.334-1.354-7.958-.508-2.625-.932-4.995-1.355-7.28-.423-2.202-.762-3.98-1.1-5.25-.085-.423-.424-.677-1.1-.846a5.024 5.024 0 0 0-1.948 0 10.82 10.82 0 0 0-1.862.762 1.88 1.88 0 0 0-1.1 1.354c-.34 1.355-.678 3.217-1.101 5.672-.424 2.37-.847 4.995-1.355 7.873-.423 2.794-.931 5.672-1.354 8.55s-.847 5.588-1.27 7.958c-.339 2.37-.762 5.08-1.27 8.042 0 0-.085-.423-.254-1.354s-.254-2.117-.508-3.556c-.17-1.439-.339-3.132-.593-4.994s-.507-3.81-.677-5.757c-.508-4.571-2.455-21.164-2.455-21.164l-7.11 2.032v1.778a2.514 2.514 0 0 0 .422 1.524 1.99 1.99 0 0 0 .847.677c.17.084.339.254.508.338a1.275 1.275 0 0 1 .339.678c.592 4.656 1.1 8.973 1.523 13.037a3.182 3.182 0 0 0-1.439 2.54 1.636 1.636 0 0 0 1.947 1.692v.254c.254 2.201.508 4.402.762 6.519s.508 3.979.677 5.672q.381 2.54.508 4.063a10.549 10.549 0 0 1 .17 1.693 1.073 1.073 0 0 0 .338.762.75.75 0 0 0 .932.17l6.603-1.778a2.032 2.032 0 0 0 1.016-.593 4.259 4.259 0 0 0 .677-1.27c1.693-9.904 3.301-19.724 4.994-29.544 1.609 9.058 3.217 18.2 4.91 27.343a2.05 2.05 0 0 0 .678.931 1.313 1.313 0 0 0 1.016.17l6.603-1.27a1.388 1.388 0 0 0 .93-.593 2.917 2.917 0 0 0 .424-.93q0-.128.254-1.779t.508-4.317c.254-1.778.423-3.725.677-6.01q.381-3.302.762-6.858v-.254A2.804 2.804 0 0 0 96 59.512a1.838 1.838 0 0 0-1.439-1.862c.508-4.233 1.016-8.804 1.609-13.714a2.535 2.535 0 0 1 .338-.846 3.681 3.681 0 0 1 .508-.593 2.919 2.919 0 0 0 .847-1.1 3.58 3.58 0 0 0 .423-1.694v-1.777c-2.455.423-4.825.761-7.196 1.27.339 0-1.608 17.354-2.2 22.18Zm145.946 6.18a3.343 3.343 0 0 0-1.947-2.794c-.254-1.608-.508-3.217-.847-4.825a167.978 167.978 0 0 0-1.015-5.926 65.242 65.242 0 0 0-.762-4.402c-.17-1.1-.339-1.778-.339-1.947a4.303 4.303 0 0 0-.931-2.116 3.927 3.927 0 0 0-2.201-1.355c-2.625-.677-5.249-1.354-7.873-1.947v1.354a3.956 3.956 0 0 0 1.439 3.471.66.66 0 0 1 .254.593 3.175 3.175 0 0 1-.085.846s-.084.508-.254 1.355-.423 2.032-.677 3.47-.592 3.048-.931 4.91c-.17.932-.339 1.779-.508 2.71a1.781 1.781 0 0 0-2.286 1.778 3.16 3.16 0 0 0 1.44 2.455c-1.101 5.672-3.81 19.47-3.81 19.47l5.587 1.27s1.609-9.481 1.693-9.65c.085-.762.424-1.101 1.016-.932 2.201.508 4.487 1.1 6.688 1.693a1.985 1.985 0 0 1 .846.424 1.462 1.462 0 0 1 .424 1.1c0 .17 1.27 10.413 1.27 10.413 1.947.592 3.894 1.1 5.84 1.693 0 0-2.37-14.392-3.64-21.503 1.101-.169 1.609-.761 1.609-1.608Zm-5.926 4.402c-.17.17-.338.17-.677.085-1.863-.508-3.64-.932-5.503-1.44a.98.98 0 0 1-.592-.423.658.658 0 0 1-.17-.677s.085-.339.17-.931.254-1.355.338-2.286c.17-.931.339-1.947.508-3.132s.424-2.37.677-3.556c.593-3.217 1.186-6.433 1.778-9.735h.085c.593 3.555 1.185 7.026 1.778 10.582.254 1.354.423 2.624.677 3.894.17 1.27.339 2.455.508 3.386.17 1.016.254 1.863.423 2.54a9.577 9.577 0 0 0 .17 1.016c.084.338 0 .592-.17.677Zm-65.354 1.608a1.77 1.77 0 0 0-.508-.338c-.169-.085-.169-.339-.169-.762v-9.99a11.88 11.88 0 0 0-.677-3.978 5.736 5.736 0 0 0-2.032-2.794c-.423-.423-.508-.846-.085-1.185a6.473 6.473 0 0 0 2.032-2.455 7.381 7.381 0 0 0 .762-3.386v-4.572a14.618 14.618 0 0 0-.508-3.978 8.02 8.02 0 0 0-1.693-3.133 8.563 8.563 0 0 0-2.963-2.116 11.012 11.012 0 0 0-4.402-.847 300.767 300.767 0 0 0-12.36 0v1.694a3.558 3.558 0 0 0 .424 1.862 3.22 3.22 0 0 0 .93.931.845.845 0 0 1 .424.339 1.69 1.69 0 0 1 .17.762v13.29a2.348 2.348 0 0 0-1.863 2.286 2.192 2.192 0 0 0 1.862 2.201V77.63h5.842V58.412c0-.508.254-.846.761-.846 1.27 0 2.455 0 3.725.084a3.34 3.34 0 0 1 2.794 1.185 5.187 5.187 0 0 1 .846 3.217v12.783a3.095 3.095 0 0 0 .762 2.117 3.133 3.133 0 0 0 2.286.846c1.693.085 3.302.17 4.995.254v-2.285a2.514 2.514 0 0 0-.424-1.524c-.254-.17-.592-.424-.93-.678Zm-6.603-24.973a5.187 5.187 0 0 1-.846 3.217 3.34 3.34 0 0 1-2.794 1.185c-1.27 0-2.54 0-3.81-.084a1.203 1.203 0 0 1-.508-.17.466.466 0 0 1-.254-.423V39.788a.825.825 0 0 1 .932-.847c1.185 0 2.37 0 3.555.085a3.173 3.173 0 0 1 2.794 1.27 5.354 5.354 0 0 1 .846 3.217v5.08Zm25.312 13.884c-.593.169-.931.762-.931 1.608 0 .254.085 10.074-.085 10.328a.769.769 0 0 1-.592.254c-1.778-.17-3.471-.339-5.249-.508a.637.637 0 0 1-.593-.423 2.504 2.504 0 0 1-.169-.847c0-10.666 0-21.333-.085-32.084a1.821 1.821 0 0 1 .17-.847.845.845 0 0 1 .423-.338 3.22 3.22 0 0 0 .931-.931 2.44 2.44 0 0 0 .508-1.609v-1.778a198.217 198.217 0 0 0-9.99-.762v1.778a2.86 2.86 0 0 0 .509 1.693 12.061 12.061 0 0 0 .931 1.016c.17.17.339.254.508.423a1.821 1.821 0 0 1 .17.847v13.29a2.108 2.108 0 0 0-1.863 2.117 2.54 2.54 0 0 0 1.862 2.37v20.233c5.249.339 10.497.847 15.746 1.44.423.084.762.084 1.185.169a1.93 1.93 0 0 0 .931-.254 1.207 1.207 0 0 0 .508-1.016v-16c-.846-.085-1.693-.17-2.54-.339a6.45 6.45 0 0 0-2.285.17ZM52.486 48.846a.311.311 0 0 0-.254.085h-.084c-6.095 1.947-12.19 4.063-18.201 6.434v1.693a2.983 2.983 0 0 0 .338 1.693 1.224 1.224 0 0 0 .847.592l.508.254a.913.913 0 0 1 .254.762v13.206a3.605 3.605 0 0 0-1.778 2.963 1.398 1.398 0 0 0 1.778 1.524V98.2a7.323 7.323 0 0 0 1.44-.592 174.489 174.489 0 0 1 7.787-2.794c1.1-.423 2.201-.762 3.387-1.1.846-.255 1.693-.593 2.54-.847.338-.085.677-.254 1.015-.339h.085a1.128 1.128 0 0 0 .423-.254 2.873 2.873 0 0 0 .508-.508 2.023 2.023 0 0 0 .423-1.185V78.306c-.846.254-1.608.508-2.455.762a6.512 6.512 0 0 0-2.285 1.185 2.302 2.302 0 0 0-.847 2.032c0 .254.085 6.35-.085 6.603a1.138 1.138 0 0 1-.592.508c-.762.254-1.44.508-2.201.762l-3.048 1.016c-.423.17-.677 0-.677-.593V77.036a1.075 1.075 0 0 1 .846-1.1c2.286-.847 4.572-1.609 6.858-2.37a1.075 1.075 0 0 0 .846-1.101v-3.302c0-.338-.085-.508-.339-.592a.723.723 0 0 0-.592 0c-2.286.762-4.571 1.524-6.857 2.37-.593.17-.847 0-.847-.508v-12.19a.961.961 0 0 1 .254-.677c.17-.254.339-.424.508-.424a140.29 140.29 0 0 1 5.503-1.862c.084 0 .17.085.254.17.17.169.084 6.348.084 6.602 0 .932.254 1.355.847 1.44a5.977 5.977 0 0 0 2.286-.34c.846-.253 1.608-.507 2.455-.761V49.862a.889.889 0 0 0-.424-.762c0-.17-.254-.254-.508-.254Zm156.274-8.719a.311.311 0 0 0-.254-.085h-.084c-6.265-1.185-12.53-2.286-18.794-3.132v1.693a4.074 4.074 0 0 0 .339 1.862 2.188 2.188 0 0 0 .93 1.016l.509.508a1.264 1.264 0 0 1 .254.847v13.206a1.897 1.897 0 0 0-1.863 1.947 2.73 2.73 0 0 0 1.863 2.455v20.148l1.524.254 8.127 1.27c1.185.169 2.285.423 3.47.592.847.17 1.693.339 2.625.508a4.289 4.289 0 0 0 1.1.17h.508a.915.915 0 0 0 .593-.254 1.092 1.092 0 0 0 .423-.932V69.84c-.847-.169-1.693-.338-2.455-.507a5.172 5.172 0 0 0-2.286 0c-.592.169-.846.677-.846 1.608 0 .254.084 6.434-.085 6.603a.523.523 0 0 1-.592.17c-.762-.17-1.524-.254-2.286-.424-1.016-.169-2.117-.338-3.132-.508-.508-.084-.678-.423-.678-.93V62.305c0-.508.339-.762.932-.677 2.37.423 4.74.762 7.11 1.27.593.085.847-.085.847-.677v-3.217a.825.825 0 0 0-.339-.762 4.855 4.855 0 0 0-.592-.339c-2.37-.423-4.656-.846-7.027-1.27-.592-.084-.93-.423-.93-.93V43.512a.769.769 0 0 1 .253-.593.714.714 0 0 1 .593-.17c1.862.34 3.81.593 5.672 1.017l.254.254c.17.254.084 6.349.084 6.603a2.356 2.356 0 0 0 .847 1.947 6.116 6.116 0 0 0 2.286.847c.846.169 1.693.338 2.455.507V41.396a1.543 1.543 0 0 0-.424-.93c-.338-.085-.592-.255-.93-.34ZM99.978 172.866l4.148 3.979a3.565 3.565 0 0 1 1.44 2.878 3.093 3.093 0 0 1-.932 1.693 2.811 2.811 0 0 1-1.778.932c-1.185.169-2.031-.593-2.878-1.44l-2.37-2.285-2.455 2.54-1.693-1.609Zm-1.27 4.572 2.117 2.031c.508.508 1.27 1.27 2.116.339a1.34 1.34 0 0 0 .423-1.016c0-.423-.254-.677-1.016-1.354l-1.862-1.863Zm12.36 5.079 7.45 4.487-.847 1.439-5.418-3.302-1.1 1.778 5.248 3.132-.846 1.44-5.249-3.133-1.185 1.947 5.672 3.386-.847 1.44-7.703-4.572Zm12.952 6.942 2.201.762-2.37 7.195 4.91 1.609-.508 1.608-7.111-2.37Zm12.783 3.471 2.286.338-1.44 9.228-2.285-.34Zm19.809 6.772a4.047 4.047 0 0 1-1.1 2.032 6.28 6.28 0 0 1-4.317 1.608c-3.302.17-5.672-1.524-5.842-4.74-.169-3.471 2.625-5.08 5.503-5.165 1.1-.084 4.148.085 5.503 2.71l-2.54.423a2.947 2.947 0 0 0-2.878-1.355 3.263 3.263 0 1 0 .254 6.519 2.912 2.912 0 0 0 2.878-1.863Zm8.297-8.127 2.455-.677 6.941 7.703-2.54.762-1.269-1.439-4.571 1.355-.254 1.947-2.455.762Zm2.2 2.286a1.169 1.169 0 0 1-.253-.339.44.44 0 0 1-.17-.339v.762l-.508 3.387 3.133-.932Zm9.228-6.434 2.032-1.185 6.603 2.116c.847.254.931.339 1.862.677-.508-.762-.677-.93-1.1-1.608l-2.455-4.064 1.947-1.185 4.825 8.043-2.116 1.1-6.688-2.116c-.677-.254-1.016-.339-1.778-.678a7.311 7.311 0 0 1 .847 1.355l2.624 4.402-1.947 1.1Zm19.217-5.672a3.38 3.38 0 0 0 3.301-1.1c.424-.424 1.609-1.694.847-2.54-.508-.508-1.016-.17-1.44.17-.338.168-1.946 1.354-2.285 1.608-.762.508-2.54 1.693-4.063.169a2.413 2.413 0 0 1-.678-1.185c-.338-1.44.678-2.879 1.778-3.894a7.55 7.55 0 0 1 2.963-1.863 4.226 4.226 0 0 1 2.117 0l-1.186 1.947a1.513 1.513 0 0 0-1.1 0 6.62 6.62 0 0 0-1.609 1.016c-.761.677-1.354 1.609-.761 2.201.423.423.93.17 1.523-.17.339-.169 1.947-1.27 2.286-1.523.931-.593 2.54-1.608 3.979-.17 2.116 2.117-.423 4.741-1.27 5.503-1.1 1.1-2.963 2.54-5.503 1.693Zm-58.582-44.698s-33.438-11.175-18.878-46.814c0 0-35.386 1.439-83.808 20.994 0 0-3.387 1.44-5.418 2.116a11.34 11.34 0 0 1-9.736-.254S63.407 89.904 120.38 84.571c7.534-.678 8.466.423 6.518 3.217-1.608 2.455-21.925 28.274 10.074 49.269Z"/><path class="cls-1" d="M107.258 100.317c-28.613 3.724-56.634 13.714-56.634 13.714 4.74 8.465 17.693 4.91 17.693 4.91 24.296-6.857 35.132-9.228 38.603-9.905a44.357 44.357 0 0 1 .338-8.72Zm.17 13.968a310.91 310.91 0 0 0-45.037 12.613s6.35 7.28 19.048 3.64c10.666-3.047 24.296-7.364 28.36-8.719a35.802 35.802 0 0 1-2.371-7.534Zm4.486 11.597c-4.317 1.355-25.904 8.381-35.047 11.937 0 0 5.249 7.026 20.317 1.1 10.498-4.148 16.339-6.603 18.879-7.619a33.89 33.89 0 0 1-4.149-5.418Zm7.535 8.381c-3.81 1.609-17.778 7.789-25.905 11.683 0 0 10.244 4.994 23.027-2.878l7.957-5.25a39.367 39.367 0 0 1-5.08-3.555Zm8.973 5.587c-2.54 1.61-13.206 8.297-18.37 12.106 0 0 8.804 3.64 17.862-4.91 2.963-2.793 4.572-4.317 5.418-5.248a45.404 45.404 0 0 1-4.91-1.947Z"/><path class="cls-4" d="M158.475 137.057s33.439-11.175 18.878-46.814c0 0 35.386 1.439 83.809 20.994 0 0 3.386 1.44 5.418 2.116a11.34 11.34 0 0 0 9.735-.254S232.04 89.904 175.067 84.571c-7.534-.678-8.465.423-6.518 3.217 1.608 2.455 21.926 28.274-10.074 49.269Z"/><path class="cls-1" d="M188.189 100.317c28.613 3.724 56.634 13.714 56.634 13.714-4.74 8.465-17.693 4.91-17.693 4.91-24.296-6.857-35.132-9.228-38.602-9.905a44.357 44.357 0 0 0-.34-8.72Zm-.169 13.968a310.91 310.91 0 0 1 45.036 12.613s-6.349 7.28-19.047 3.64c-10.667-3.047-24.296-7.364-28.36-8.719a35.803 35.803 0 0 0 2.37-7.534Zm-4.487 11.597c4.317 1.355 25.904 8.381 35.047 11.937 0 0-5.248 7.026-20.317 1.1-10.497-4.148-16.339-6.603-18.878-7.619a33.89 33.89 0 0 0 4.148-5.418Zm-7.534 8.381c3.809 1.609 17.777 7.789 25.904 11.683 0 0-10.243 4.994-23.026-2.878l-7.958-5.25a39.365 39.365 0 0 0 5.08-3.555Zm-8.974 5.587c2.54 1.61 13.206 8.297 18.37 12.106 0 0-8.804 3.64-17.862-4.91-2.963-2.793-4.571-4.317-5.418-5.248 1.524-.508 3.217-1.185 4.91-1.947Z"/><path class="cls-4" d="M175.067 156.443a27.344 27.344 0 1 1-27.343-27.344 27.332 27.332 0 0 1 27.343 27.344Z"/><path class="cls-1" d="M169.395 162.115a21.672 21.672 0 1 1-21.671-21.672 21.732 21.732 0 0 1 21.671 21.672Z"/><path class="cls-2" d="M147.724 126.983a29.545 29.545 0 1 0 29.544 29.545 29.572 29.572 0 0 0-29.544-29.545Zm24.804 24.72a26.013 26.013 0 0 1-13.291 16.592c.508-3.64 2.116-7.196 3.725-10.92 2.37-5.419 4.994-11.26 3.81-17.524a25.902 25.902 0 0 1 5.756 11.851Zm-37.757-16.847a26.329 26.329 0 0 1 11.09-3.556v39.704a26.41 26.41 0 0 1-5.841-1.1c-.17-4.91-2.201-9.482-4.233-13.969-3.217-7.45-6.01-13.883-1.016-21.079Zm5.08 38.772a35.236 35.236 0 0 0 6.095 1.016v7.026a24.983 24.983 0 0 1-9.312-2.54 10.187 10.187 0 0 0 3.217-5.502Zm9.735 1.016a24.163 24.163 0 0 0 6.095-1.016 10.187 10.187 0 0 0 3.217 5.503 26.69 26.69 0 0 1-9.312 2.54Zm5.841-4.74a22.296 22.296 0 0 1-5.84 1.1V131.3a23.837 23.837 0 0 1 11.089 3.556c4.995 7.196 2.201 13.714-1.1 21.08-1.948 4.486-3.98 9.057-4.149 13.967Zm-26.75-29.969c-1.101 6.265 1.438 12.106 3.809 17.524 1.608 3.725 3.217 7.365 3.725 11.005a25.315 25.315 0 0 1-13.291-16.677 24.732 24.732 0 0 1 5.756-11.852Zm-5.842 20.995a28.75 28.75 0 0 0 13.46 11.513 1.074 1.074 0 0 1-.084.508c-.254 1.862-1.863 3.386-2.963 4.233a25.348 25.348 0 0 1-10.413-16.254Zm39.28 16.254a7.577 7.577 0 0 1-2.963-4.233 1.074 1.074 0 0 0-.085-.508 29.23 29.23 0 0 0 13.46-11.513 25.026 25.026 0 0 1-10.412 16.254Z"/><path class="cls-2" d="M156.528 88.634s-.254.931-.762.931a33.484 33.484 0 0 1-5.841-2.624c-.762-.423-1.778-1.016-2.117-1.185 0 0-1.523.762-2.2 1.185a33.484 33.484 0 0 1-5.842 2.624c-.592 0-.762-.93-.762-.93s-9.312 5.586-9.312 21.078c0 11.513 6.01 16.762 6.01 16.762l.847 3.302h22.519l.846-3.302s6.01-5.249 6.01-16.762c-.169-15.407-9.396-21.079-9.396-21.079Z"/><path class="cls-4" d="M160.93 105.904a16.383 16.383 0 0 0-4.064-11.005s-.084 1.354-2.37-.17a11.889 11.889 0 0 0-6.772-2.116 12.158 12.158 0 0 0-6.857 2.116c-2.201 1.524-2.286.17-2.286.17a16.557 16.557 0 0 0-4.064 11.005c0 3.979 1.016 5.926 1.355 6.518a12.431 12.431 0 0 0 23.619.17c.17-.254 1.439-2.117 1.439-6.688Z"/><path class="cls-2" d="M152.718 116.655a3.325 3.325 0 0 1 .762-4.233s4.91 1.016 4.995-5.418a4.064 4.064 0 0 1 .592-2.031s-1.27-1.1-3.978.93-4.148 7.79-5.672 6.435c-1.44-1.355-.931-8.89-1.693-9.143-.762.254-.254 7.788-1.693 9.143s-2.963-4.402-5.672-6.434-3.98-.931-3.98-.931a4.064 4.064 0 0 1 .593 2.031c.085 6.434 4.995 5.418 4.995 5.418a3.391 3.391 0 0 1 .847 4.148.083.083 0 0 1-.085.085c-5.841-6.264-9.227-5.418-7.534 1.609 1.608 6.857 7.957 36.317 8.888 43.174-.169 6.18-.846 8.38-1.015 8.804l-.593 1.27.677 1.439a21.02 21.02 0 0 1 2.117 4.063l2.37 6.096 2.37-6.096a21.08 21.08 0 0 1 2.117-4.148l.762-1.354-.678-1.355c-.169-.423-.846-2.54-1.015-8.465.846-6.095 7.28-36.487 8.888-43.513 1.778-6.857-1.608-7.704-7.365-1.524Z"/><path class="cls-3" d="M143.745 147.385c-2.117-11.005-3.725-19.047-5.08-24.973-1.015-4.487 1.694-2.71 3.133.084Zm7.957 0c2.117-11.005 3.725-19.047 5.08-24.973 1.016-4.487-1.693-2.71-3.132.084Zm-11.174-37.079a.678.678 0 0 1-.508-.931c.085-.17.17-.254.254-.424a5.53 5.53 0 0 0-1.016-.93s-.677 3.131 2.117 2.793a3.86 3.86 0 0 0-.339-.677c-.085.169-.339.169-.508.169Zm15.662-2.286a5.315 5.315 0 0 0-1.017.931.72.72 0 0 1 .254.424.8.8 0 0 1-.508.93.743.743 0 0 1-.592-.084 3.859 3.859 0 0 0-.339.678c2.878.338 2.201-2.879 2.201-2.879Zm-7.112 43.428c.931-16.93 2.286-28.952 2.286-30.476a9.44 9.44 0 0 0-.254-1.947l-1.016 3.217-.339-5.672a8.726 8.726 0 0 0-2.031-1.862h-.085a10.335 10.335 0 0 0-1.947 1.862l-.339 5.672-1.016-3.217a5.841 5.841 0 0 0-.254 1.947c0 1.524 1.355 13.46 2.286 30.476.931 16.931-1.185 20.064-1.185 20.064a39.64 39.64 0 0 1 2.54 4.91 39.64 39.64 0 0 1 2.54-4.91c0 .084-2.117-3.048-1.186-20.064Z"/></svg>