<svg xmlns="http://www.w3.org/2000/svg" height="198.842" width="274.32"><path d="M110.76 138.48c14.64-2.28 29.4-1.56 42.24 3.84l1.56-3.48c-20.76-6.6-47.04-6.36-66.36 4.32l5.52-12.84c-24.6 6.6-40.92 20.52-57.6 34.68 12.12-28.56 38.4-51.96 68.04-60.6l-1.44 4.8c26.04-8.52 54.6-10.2 77.64-6.36l-5.4-7.08 13.32 3.48 8.52-12.84 3.36 15.84 13.08 4.2s-9.48 3.96-9.12 4.2c49.44 20.28 33.6 87.96-13.32 88.2-23.76.24-42.24-21.24-41.4-43.68-12.24-7.92-24.24-11.76-38.64-16.68Z" fill="#c2ccd2"/><path d="M101.4 48.36v-.12a7.128 7.128 0 0 1 2.4-4.68 8.8 8.8 0 0 1 4.56-1.44s1.44-.12 2.76-.12l4.32-.36v30.6l-3.72.24c-2.28.12-3.6.24-6.12.36l-4.2.36Zm-20.76-.84a20.571 20.571 0 0 1 4.68-13.68 19.949 19.949 0 0 1 13.08-6c10.08-.84 20.28-1.44 30.36-1.68l7.44-.12v85.8l-.12 7.32-7.44-.12c-1.32 0-11.28.36-13.08.36h-.24l-7.92.84V120l-5.04.24c-.72 0-12.72 1.2-13.2 1.32L80.64 123Zm184.08 91.56s-9.96-3.12-11.4-3.48c-.12 0-.12 0-.12-.12-4.56-1.32-8.64-2.4-11.52-3.24l-5.28-1.32a20.089 20.089 0 0 1-16.68-20.88v-55.8c0-5.4 1.68-10.44 5.64-13.56a13.946 13.946 0 0 1 9-2.88 27.398 27.398 0 0 1 5.28.6c.72.24 2.64.72 5.76 1.56 3 .84 6.84 2.04 10.68 3.12 7.68 2.16 15.24 4.32 15.24 4.32l2.88.84v37.92l-24.24-7.56-.36-2.4s-.72-4.44-1.44-8.52v42.48l.12.24s-.12.12.72.36c0 0 1.56.36 2.52.6.72-2.76 1.44-5.76 1.44-5.76l.96-4.2 20.28 6 .12 34.32Z" fill="#c2ccd2"/><path d="M.12 59.16a14.65 14.65 0 0 1 4.44-10.2 20.08 20.08 0 0 1 7.44-4.8c11.16-3.6 27-6 27.72-6.12l4.2-.6a20.639 20.639 0 0 1 5.88-2.28c5.4-1.08 22.08-4.2 22.8-4.32l8.64-1.68v87.24l-.12 6.48-6.48.72c-.48 0-12.6 2.16-13.2 2.28l-9 2.04v-14.16l-25.08 6v14.28l-5.52 1.32c-.12 0-1.92.6-3.84 1.2-2.04.6-4.32 1.32-6 1.8a10.055 10.055 0 0 0-2.04.72L0 142.68V59.16Zm211.08 66.48h-.24c-.12 0-.24-.12-.36-.12a9.48 9.48 0 0 1-1.56-.36 35.88 35.88 0 0 1-4.32-.72c-3-.48-6.24-1.08-6.48-1.08l-3-.24-3.48-.36V30l7.92.6c.84.12 2.52.36 5.04.84 2.4.36 5.28.84 7.2 1.2a19.674 19.674 0 0 1 2.88.48l5.52 1.44v93Zm-28.2-4.2c-.84-.12-5.88-.6-11.04-1.08-5.04-.36-10.44-.72-14.04-.96l-3.72-.12c-5.4-.24-10.08-1.92-13.44-5.28-3.36-3.48-4.92-8.16-4.92-13.56V42.36c0-4.56 1.32-8.88 4.56-11.88 3.96-3.72 8.76-4.08 11.76-4.08h3.24c.96 0 2.28.12 4.2.24h2.16l-.12.12c2.16.12 4.68.36 8.16.6 11.28.84 14.28 1.2 15.96 1.56a6.04 6.04 0 0 1 1.56.48l4.2 2.04v30.24l-24-3.12-.6-2.76s-.6-3-1.2-5.76h-1.08l.12 10.92v2.4h1.68a17.916 17.916 0 0 1 3.12.24c1.44.12 3.24.24 5.04.36 3.72.36 7.8.84 9.84 1.08a5.38 5.38 0 0 1 1.44.12l5.76 1.32-.12 56.64Z" fill="#c2ccd2"/><path d="M107.04 67.2a23.304 23.304 0 0 1 2.88-.24V47.52a9.773 9.773 0 0 1-1.08.12q-1.26 0-1.44.36c-.24.12-.24.12-.36.6Zm-24-19.68c-.12-9.72 5.88-16.56 15.72-17.28 9.96-.84 20.16-1.44 30.24-1.68l4.92-.12v88.32l-5.04-.12c-1.32 0-12.72.36-13.56.6l-5.4.48V85.2a23.304 23.304 0 0 0-2.88.24v27.72l-.12 4.68-4.56.12c-.96 0-12.6 1.2-13.44 1.44l-5.76.84Zm182.52 89.28s-8.76-2.76-11.16-3.36c-.24-.12-.36-.12-.48-.24-4.92-1.44-9.36-2.64-12.36-3.36l-4.68-1.2c-9.48-2.16-14.88-9-14.76-18.6V54.36c0-5.16 1.44-9.12 4.68-11.76a12.007 12.007 0 0 1 7.44-2.4 22.835 22.835 0 0 1 4.8.6c1.56.36 31.56 9 31.56 9l1.2.24v32.88L252 76.8l-.12-.96s-1.56-9.6-2.16-13.68c-1.2-.36-2.16-.6-2.76-.72l-.6-.24-.6-.24v49.2a2.378 2.378 0 0 0 .36 1.32 3.119 3.119 0 0 0 2.16 1.56s2.64.72 5.04 1.32c.72-3.24 1.8-8.16 1.8-8.16l.48-1.68 16.2 4.92v29.28ZM2.52 59.16c.24-7.08 6.24-11.4 10.2-12.72 10.92-3.48 26.64-5.88 27.48-6l4.68-.84a20.356 20.356 0 0 1 5.52-2.16c5.4-1.08 21.96-4.2 22.8-4.44l5.76-.96v84.24l-.12 4.32-4.32.6c-.96 0-12.6 2.04-13.44 2.28l-6.12 1.32V56.64h-.12c-1.68.48-2.04.84-2.4 2.76v51.84l-23.76 5.64V62.52a.593.593 0 0 1-.36.12 5.487 5.487 0 0 0-2.4 1.08 1.734 1.734 0 0 0-.72 1.68v62.76l-.12 3.84-3.72.84c-.84.24-11.28 3.48-12 3.72l-6.72 2.52V59.16Zm209.16 64.08c-.84-.24-12.48-2.16-13.32-2.28l-3-.24-1.44-.12V32.64l5.4.48c1.32.12 13.44 2.16 14.76 2.52l3.72.96v87.96Zm-49.32-25.68a6.087 6.087 0 0 0 .24 1.08c.12.12.36.36 1.56.48a8.082 8.082 0 0 1 1.2.12V82.68a20.829 20.829 0 0 0-2.16-.12l-.84-.12Zm21 21.48c-2.28-.48-18-1.68-25.2-2.04l-3.84-.24c-4.92-.12-9-1.68-11.76-4.56-2.76-2.76-4.2-6.96-4.2-11.76V42.36c0-4.2 1.2-7.68 3.72-10.2 3.24-3 7.44-3.36 10.2-3.36h3.12c2.04 0 5.88.36 14.16.96 11.4.84 14.4 1.2 15.84 1.44a8.27 8.27 0 0 1 .96.36l2.88 1.44v26.04l-19.68-2.64-.24-1.08s-.96-4.68-1.56-7.56h-1.08c-.12 0-3.12-.24-3.12-.24h-.48a1.3 1.3 0 0 0-.72.12V66l4.08-.12h.12c.96 0 5.28.36 9.6.72 4.44.36 8.4.84 9.36.96l3.84.84-.12 51.84Z"/><path d="M112.56 44.76v24.72c-2.04.12-6 .36-8.28.48v-21.6c.24-1.44.72-3.12 4.32-3.36 0 0 2.16-.24 3.96-.24ZM129 32.04v-.84c-10.08.24-20.04.72-30 1.56-8.52.84-13.32 6-13.2 14.64V117l2.52-.48c.84-.12 13.08-1.32 13.8-1.44h2.04v-32.4c2.04-.12 6-.48 8.28-.6v32.52l2.52-.24c.6-.12 12-.6 13.68-.6h.12l1.44.12h.84V31.2h-2.28Zm140.16 79.32L257.64 108l-.12.84s-1.44 6.24-2.04 9c-4.56-1.32-6.6-1.92-7.68-2.16a6.028 6.028 0 0 1-3.96-2.88 7.048 7.048 0 0 1-.72-2.64V60.6a4.443 4.443 0 0 1 .48-1.8c.24-.36.6-.48 1.32-.48a8.258 8.258 0 0 1 1.56.24h.24c.12 0 2.04.6 5.4 1.56.48 2.88 2.28 14.04 2.28 14.04v.6l14.64 4.44v-27l-.6-.24s-28.56-8.16-30.12-8.4a17.726 17.726 0 0 0-4.2-.6 9.166 9.166 0 0 0-5.76 1.8c-2.52 1.92-3.72 5.28-3.72 9.6v55.68c-.12 8.4 4.32 13.92 12.6 15.96h.48c.96.24 8.88 2.4 16.8 4.56l11.64 3.6 2.76.84ZM50.88 40.2a15.503 15.503 0 0 0-7.8 4.2v-1.8l-2.52.36c-.72.12-16.44 2.64-27 6-3.36 1.2-8.16 4.92-8.28 10.2v76.2l3-1.2c.6-.24 11.64-3.6 12.36-3.84l1.08-.24.6-.12V65.4c0-3.24 3-4.68 5.04-5.4a37.662 37.662 0 0 1 3.84-.72v54.24l18.36-4.32V59.16c.48-3 1.8-4.44 4.56-5.16.48-.12 2.04-.36 3.48-.6v68.16l2.76-.72c.6-.12 12.96-2.28 13.8-2.28l1.2-.12h.84V35.28l-2.64.48S56.28 39 50.88 40.2Zm148.2-4.44-1.56-.12-.84-.12v82.56l.72.12 1.32.12c.6.12 12.96 2.04 13.68 2.28l2.76.6V38.52l-1.68-.48c-1.08-.24-13.32-2.28-14.4-2.28ZM166.56 68.4h-.12l-1.32.12h-.72v11.52h.72s1.68.12 2.88.24v21.96c-1.8-.24-4.08-.36-4.08-.36a4.38 4.38 0 0 1-3.72-1.92 5.358 5.358 0 0 1-.6-2.4V47.64a3.142 3.142 0 0 1 .6-2.04 3.554 3.554 0 0 1 2.76-.84h.96c.36 0 2.4.12 6 .48.48 2.16 1.8 8.16 1.8 8.16l.12.48 14.76 1.92V34.56l-1.32-.6c-.6-.24-1.2-.48-15.96-1.56-8.76-.72-12.48-.96-14.16-.96h-3c-2.4 0-5.76.36-8.16 2.64-2.04 1.92-3 4.68-3 8.28v58.08c0 8.4 4.8 13.44 13.32 13.68h.48c2.16 0 25.8 1.68 29.04 2.28l2.64.48.12-46.44-1.8-.36c-1.2-.24-16.56-1.68-18.24-1.68Z" fill="#fff"/><path d="m266.88 113.04-7.68-2.28-2.28 9.96c-4.92-1.56-9.96-2.88-9.96-2.88a8.103 8.103 0 0 1-5.28-4.08 7.883 7.883 0 0 1-.96-3.6V60.6a5.358 5.358 0 0 1 .96-3.12c.72-.96 2.28-2.04 5.28-1.08a73.184 73.184 0 0 1 7.08 2.04l2.28 14.52 10.44 3.24V53.88s-27.6-7.92-28.8-8.28c-7.32-1.8-11.04 1.2-11.04 8.76v55.68c0 7.56 3.72 12 11.04 13.8 0-.12 9.24 2.4 17.16 4.68l11.76 3.48ZM40.92 53.52v-8.28s-16.08 2.52-26.64 6c-2.76.84-6.72 3.96-6.72 8.04v72.96c.84-.36 11.76-3.72 12.6-3.96V65.52c0-4.44 3.6-6.6 6.72-7.56 1.68-.48 6.72-1.2 6.72-1.2v54l13.92-3.36V59.04c.48-3.84 2.52-6.36 6.24-7.2 3.6-.6 6.24-.96 6.24-.96v67.8c.72-.24 13.2-2.28 14.04-2.4V37.92s-17.28 3.24-22.68 4.32a13.902 13.902 0 0 0-10.44 11.28Zm157.92 62.64c.96 0 13.08 2.04 13.92 2.28V40.32c-.84-.24-13.08-2.28-13.92-2.28ZM87.96 47.52v66.84c.96-.12 13.2-1.32 14.16-1.32v-32.4c4.2-.36 8.4-.6 12.6-.84v32.4c.96-.12 13.44-.6 14.28-.6V33.36c-9.96.24-19.92.84-29.88 1.68-7.32.72-11.16 5.04-11.16 12.48Zm14.16.84c.12-1.56.96-5.16 6.24-5.52 2.16-.24 4.2-.36 6.36-.48v29.28c-4.2.24-8.52.6-12.72.84V48.36ZM166.56 78c.84 0 3.72.24 3.72.24v26.28c-2.16-.12-4.32-.36-6.48-.48-3.12-.24-4.68-1.68-5.4-3a6.712 6.712 0 0 1-.84-3.48v-36.6c0-6.96-.12-12.12-.12-12.6v-.72a5.54 5.54 0 0 1 1.2-3.48c1.08-1.2 2.88-1.8 5.28-1.56 0-.12 3.6.24 7.92.6l1.92 8.76 10.68 1.44V36.12c-.84-.36-29.76-2.64-29.76-2.28h-.48c-2.4-.12-6.12-.24-8.52 1.92-1.56 1.44-2.28 3.72-2.28 6.72v57.96c0 7.44 3.72 11.16 11.28 11.52 0-.24 26.04 1.56 29.76 2.28 0-.84.12-41.04.12-41.88-.96-.12-16.92-1.68-17.76-1.68V78Z" fill="#0b77bd"/><path d="M40.92 53.52v-8.28s-16.08 2.52-26.64 6c-2.76.84-6.72 3.96-6.72 8.04v72.96c.84-.36 11.76-3.72 12.6-3.96V65.52c0-4.32 3.6-6.6 6.72-7.56 1.68-.48 6.72-1.2 6.72-1.2v54l13.92-3.36V59.04a7.793 7.793 0 0 1 6.24-7.2c3.6-.6 6.24-.96 6.24-.96v67.8c.72-.24 13.2-2.28 14.04-2.4V37.92s-17.28 3.24-22.68 4.32a13.902 13.902 0 0 0-10.44 11.28Zm157.92 62.64c.96 0 13.08 2.04 13.92 2.28V40.2c-.84-.24-13.08-2.16-13.92-2.28ZM166.56 78c.84 0 3.72.24 3.72.24v26.28c-2.16-.12-4.32-.36-6.48-.48-3.12-.24-4.68-1.68-5.4-3a7.187 7.187 0 0 1-.96-3.48v-36.6c0-6.96-.12-12.12-.12-12.6v-.72a5.54 5.54 0 0 1 1.2-3.48c1.08-1.2 2.88-1.8 5.28-1.56 0-.12 3.6.24 7.92.6l1.92 8.76 10.68 1.44V36.12c-.96-.36-29.76-2.64-29.76-2.28h-.6c-2.16-.12-6-.24-8.4 1.92-1.56 1.44-2.28 3.72-2.28 6.72v57.96c0 7.32 3.72 11.16 11.28 11.52 0-.24 26.04 1.56 29.76 2.28V72.36c-.84-.12-16.8-1.68-17.76-1.68Z" fill="#0b77bd"/><path d="M89.52 22.2a.426.426 0 0 1-.24.36c-.12.24-.48.36-.96.48a5.921 5.921 0 0 0-1.8.36h-.24c-.24 0-.24-.12-.24-.12a.118.118 0 0 0-.12-.12V9.48s0-.12.24-.36a1.676 1.676 0 0 1 .96-.48c.48 0 1.08-.24 1.56-.24.12 0 .24-.12.36-.12a.525.525 0 0 1 .36.12.118.118 0 0 1 .12.12Zm4.8-16.8a2.389 2.389 0 0 0-1.44-.96 2.584 2.584 0 0 0-1.32-.24 9.263 9.263 0 0 0-1.8.24c-1.44.24-3 .6-4.44.72a8.032 8.032 0 0 0-2.88 1.08 4.606 4.606 0 0 0-1.32 1.32 4.963 4.963 0 0 0-.6 2.28v14.52a3.141 3.141 0 0 0 .6 2.04 2.389 2.389 0 0 0 1.44.96h1.08c.72 0 1.32-.12 1.92-.12 1.56-.36 3-.6 4.56-.84a16.196 16.196 0 0 0 2.88-.96 6.845 6.845 0 0 0 1.32-1.32 3.702 3.702 0 0 0 .6-2.16V7.44a2.773 2.773 0 0 0-.6-2.04Zm68.4-2.88a3.192 3.192 0 0 0-1.32-1.2 8.26 8.26 0 0 0-3-.72c-3-.24-6-.36-8.88-.36h-.96V22.2h.84c1.32.12 2.64.12 3.96.24h.84V3.96c.6 0 1.2.12 1.8.12 2.16.24 1.8.96 1.92 1.08v17.4h.72c1.32.12 2.52.24 3.84.36l.84.12V4.56a2.586 2.586 0 0 0-.6-2.04Zm12.72 17.88a6.767 6.767 0 0 1-.84.12.9.9 0 0 1-.6-.12 10.564 10.564 0 0 1-2.04-.24V5.64c.6 0 1.2.12 1.8.12a4.048 4.048 0 0 1 1.44.48c.36.24.48.36.48.96v12.6c-.12.48-.12.48-.24.6Zm5.16-15.84a4.975 4.975 0 0 0-1.44-1.32 6.78 6.78 0 0 0-2.88-.84c-1.2-.24-7.32-.96-8.88-1.08l-.96-.12v22.2h.72c3 .36 6 .72 8.88 1.08a5.382 5.382 0 0 0 1.32.12 5.326 5.326 0 0 0 1.56-.24 3.446 3.446 0 0 0 1.56-.96 3.595 3.595 0 0 0 .72-2.16V6.72a4.491 4.491 0 0 0-.6-2.16Zm-73.68 6.12a1.185 1.185 0 0 1-.24.72 7.067 7.067 0 0 1-1.56.6 7.083 7.083 0 0 0-1.68.24V6a10.503 10.503 0 0 0 1.92-.24h.84c.48 0 .72 0 .72.12.12.12 0 0 .12.24v3.72a2.703 2.703 0 0 0-.12.84Zm5.64 11.88v-7.32a2.358 2.358 0 0 0-1.08-2.04c-.12 0-.12-.12-.36-.12a2.775 2.775 0 0 0 1.32-2.28V5.16a3.595 3.595 0 0 0-.72-2.16 3.06 3.06 0 0 0-1.44-.96 7.263 7.263 0 0 0-1.8-.24 4.502 4.502 0 0 0-1.2.12c-2.88.36-5.88.72-8.76 1.08l-.72.12V25.2l.96-.12a37.294 37.294 0 0 1 3.84-.48l.72-.12v-8.64a11.96 11.96 0 0 0 1.92-.24h.72a1.148 1.148 0 0 1 .84.24c.12 0 .12.12.12.48V24l1.08-.12c1.2-.12 2.52-.24 3.72-.36l.84-.12Zm15.36-4.92v-2.88h-.84l-3.36.24-1.32 3.96h-1.44V.6H120c-1.2.12-2.64.24-3.84.36h-.84v22.2l.96-.12c3.6-.24 7.32-.48 10.92-.6h.72v-4.8Zm12-7.44h-3.72V4.44c0-.12 0-.24.24-.48a3.406 3.406 0 0 1 1.68-.36h1.8Zm4.8-10.2h-9a7.5 7.5 0 0 0-3 .48 4.535 4.535 0 0 0-1.44 1.08 3.692 3.692 0 0 0-.72 2.28V22.2h.96c1.2 0 2.52-.12 3.84-.12h.84V13.8h3.72v8.16h.84c1.2 0 2.64 0 3.84.12h.96V0Zm48 23.16v.12a.525.525 0 0 1-.36.12.44.44 0 0 1-.36-.12 8.165 8.165 0 0 0-1.8-.24c-.48-.12-.84-.36-.84-.6a.372.372 0 0 1-.12-.24V8.4h.84c.48.12 1.08.24 1.56.36a1.789 1.789 0 0 1 .96.36.423.423 0 0 1 .12.48Zm4.92-15.48a3.47 3.47 0 0 0-1.32-1.32 8.21 8.21 0 0 0-2.88-1.2c-1.44-.24-3-.6-4.44-.84a8.501 8.501 0 0 0-1.68-.12 4.5 4.5 0 0 0-1.32.12 3.274 3.274 0 0 0-1.56.84 3.95 3.95 0 0 0-.72 2.28v14.52a3.702 3.702 0 0 0 .6 2.16 4.606 4.606 0 0 0 1.32 1.32 11.536 11.536 0 0 0 2.88.96c1.56.24 3 .48 4.44.84a11.966 11.966 0 0 0 1.92.24 3.322 3.322 0 0 0 1.08-.12 2.51 2.51 0 0 0 1.56-.84 3.276 3.276 0 0 0 .6-2.16V9.84a4.707 4.707 0 0 0-.48-2.16Z"/><path fill="#fff" d="m105.96 127.8 2.76-1.32 2.4 2.04-.48-3 2.64-1.56-3-.6-.72-3-1.44 2.76-3-.36 2.16 2.28-1.32 2.76z"/><path d="M199.2 110.64c2.76-1.2 7.8-3.36 7.8-3.36l.36-.12-.36-.12s-8.16-2.76-9.84-3.24c-.36-1.92-1.56-10.8-1.56-10.8l-.12-.36-3 4.8s-1.68 2.76-2.64 4.2c-1.92-.6-10.32-2.64-10.32-2.64l-.48-.24.36.48s3.36 4.32 5.4 7.08a133.283 133.283 0 0 0-29.4-2.88c-3.72 0-7.56.12-11.64.36a163.026 163.026 0 0 0-44.76 9l1.68-5.04-.36.12c-22.56 7.08-47.28 28.32-58.2 49.2l.24.12c15.36-14.4 36.36-26.04 55.08-30.24l-4.92 11.4.36-.12c8.64-4.2 20.16-6 31.68-6 11.88 0 23.76 1.92 33 5.28l-3.48 7.68c-8.4-3.84-20.52-6.36-30.72-6.36-1.8 0-3.48 0-5.16.12v.36c12 3.36 24.24 7.2 34.08 15a17.723 17.723 0 0 0-.12 2.52c0 20.52 17.76 39.24 38.76 39.24h.48c22.92-.24 40.08-21.36 40.08-43.44-.12-16.08-9.36-32.76-32.28-42Z"/><path d="M186.6 148.44c-8.4 0-17.04-3.12-25.56-6.24a34.489 34.489 0 0 0-3.36 14.88 31.6 31.6 0 0 0 .96 8.16h2.16a96.742 96.742 0 0 0 48.12-12.96 83.152 83.152 0 0 0-5.76-8.64 30.222 30.222 0 0 1-16.56 4.8Z" fill="#c2ccd2"/><path d="M160.2 168.36h-.6c5.16 13.44 17.04 22.2 31.44 22.44 4.68-11.4 9.72-23.76 21.48-29.64-.6-1.92-1.32-3.96-2.16-6a99.534 99.534 0 0 1-50.16 13.2Zm35.64-41.76a40.567 40.567 0 0 0-8.64-2.64c-1.44.24-3.48.36-5.04.6 8.76 3.48 15.24 7.68 21.6 15a31.904 31.904 0 0 0 8.28-9.24c-5.88-5.76-17.04-12.84-45-15 11.76 2.76 22.56 6.6 28.92 11.04Zm-78.12-3.96h5.52c19.8 0 50.28 2.28 62.16 16.32l-.24.24c-4.08-2.16-12.24-6-17.4-6h-.36a41.014 41.014 0 0 0-4.8 6.24c7.92 3 15.96 5.88 23.88 5.88a27.65 27.65 0 0 0 14.88-4.08c-13.8-15-36.96-21.6-58.92-21.6a108.944 108.944 0 0 0-24.72 3Zm93.6 28.08a48.033 48.033 0 0 0 10.2-8.88 35.265 35.265 0 0 0-7.56-9.6 34.127 34.127 0 0 1-8.4 9.72 52.539 52.539 0 0 1 5.76 8.76Z" fill="#c2ccd2"/><path d="M194.4 190.68a34.742 34.742 0 0 0 18.72-7.8 36.034 36.034 0 0 0 1.2-9.48 45.699 45.699 0 0 0-.84-9c-10.56 5.04-14.88 16.08-19.08 26.28Zm22.92-15.24v3.12a37.208 37.208 0 0 0 7.44-17.4 43.682 43.682 0 0 0-8.76 1.8 55.167 55.167 0 0 1 1.32 12.48Zm-4.44-21.84c.84 2.04 1.68 4.2 2.52 6.36a44.767 44.767 0 0 1 9.72-1.8v-.72a32.929 32.929 0 0 0-2.16-12.24 61.41 61.41 0 0 1-10.08 8.4Z" fill="#c2ccd2"/><path d="M225.12 158.16a45.837 45.837 0 0 0-9.84 1.8 58.397 58.397 0 0 0-2.52-6.36 63.366 63.366 0 0 0 10.2-8.4 39.234 39.234 0 0 1 2.16 12.24Zm-11.16-26.04a37.943 37.943 0 0 1 7.56 9.72 51.094 51.094 0 0 1-10.2 8.76 82.095 82.095 0 0 0-5.64-8.64 34.468 34.468 0 0 0 8.28-9.84Zm-46.8-16.92c27.84 2.16 39 9.36 45 15a32.087 32.087 0 0 1-8.28 9.24 54.27 54.27 0 0 0-21.6-14.88 37.469 37.469 0 0 1 4.92-.72 68.045 68.045 0 0 1 8.76 2.64l.12-.24c-6.36-4.44-17.16-8.28-28.92-11.04Zm-6.36 50.04h-2.16a32.514 32.514 0 0 1-.96-8.28 33.975 33.975 0 0 1 3.36-14.76c8.52 3.12 17.04 6.24 25.56 6.24a31.261 31.261 0 0 0 16.56-4.8 50.592 50.592 0 0 1 5.76 8.52 96.862 96.862 0 0 1-48.12 13.08Z" fill="#c2ccd2"/><path d="M191.04 190.8c-14.4-.24-26.28-9-31.44-22.44h.6a99.855 99.855 0 0 0 50.16-13.2 50.924 50.924 0 0 1 2.16 6c-11.76 5.88-16.92 18.24-21.48 29.64Zm26.28-12.24v-3.12a55.167 55.167 0 0 0-1.32-12.48 42.032 42.032 0 0 1 8.76-1.8 36.187 36.187 0 0 1-7.44 17.4Zm-15.96-37.32a27.257 27.257 0 0 1-14.76 4.08c-8.04 0-16.08-2.88-23.88-5.88a40.328 40.328 0 0 1 4.68-6.24h.48c5.04 0 13.32 3.72 17.4 6l.24-.24c-11.88-14.04-42.36-16.32-62.16-16.32h-5.64a103.631 103.631 0 0 1 24.84-2.88c21.84 0 45.12 6.48 58.8 21.48Z" fill="#c2ccd2"/><path d="M213.12 182.88a34.742 34.742 0 0 1-18.72 7.8c4.2-10.2 8.52-21.24 18.96-26.28a45.88 45.88 0 0 1 .96 9 36.034 36.034 0 0 1-1.2 9.48Zm-27.6-69.24 6.12-2.04 4.56 5.16-.48-6.84 5.88-2.52-6.48-2.16-.96-6.72-3.36 5.52-6.48-1.68 4.32 5.52-3.12 5.76z" fill="#c2ccd2"/><path fill="#fff" d="m153.36 118.56 4.2-2.16 3.48 3.24-.72-4.68 4.08-2.4-4.68-.72-.96-4.68-2.16 4.2-4.68-.48 3.24 3.36-1.8 4.32zm-47.4 9.24 2.76-1.32 2.28 2.04-.36-3 2.64-1.56-3.12-.6-.6-3-1.44 2.76-3-.36 2.04 2.28-1.2 2.76z"/><path d="M210.72 169.68v-.48l-3.84 6.48 1.08-5.76-.24-.12c-5.76 6.96-7.92 11.88-9.72 18v.36l.24-.12a37.812 37.812 0 0 0 11.16-5.88c.96-2.04 1.32-6.24 1.32-11.4Zm-12.96-15.12a111.714 111.714 0 0 1-20.28 2.04 22.192 22.192 0 0 1-2.88-.12l14.28-4.32v-.24c-9.48-.48-16.8-.6-26.04-4.92l-.12-.12-.12.12a21.235 21.235 0 0 0-2.16 9.48 19.363 19.363 0 0 0 .84 5.88h1.08c4.08 0 21.12-.36 35.4-7.56Zm3.12 11.64c-7.2 5.4-12.72 9.72-23.28 11.64 9.84-5.04 16.44-8.64 22.68-15l-.24-.24c-11.04 6.48-25.44 9.24-35.52 9.6h-.36l.24.24c8.28 13.2 18.84 14.4 22.32 14.4h1.2v-.12c4.56-7.08 7.44-13.92 13.2-20.4Z" fill="#0b77bd"/><path d="M193.44 122.16a4.548 4.548 0 0 0-1.56-.72c8.52 2.52 14.28 5.76 17.52 8.28a13.817 13.817 0 0 1-1.68 2.04 43.996 43.996 0 0 0-14.28-9.6Zm26.28 47.88v-.6a33.315 33.315 0 0 0 .84-6.84 4.975 4.975 0 0 1 1.92-.36 42.944 42.944 0 0 1-2.76 7.8Zm3.6-15a21.38 21.38 0 0 0-3.12.48 32.556 32.556 0 0 0-1.08-4.92 18.551 18.551 0 0 0 3.24-2.88 24.518 24.518 0 0 1 .96 7.32ZM219.6 141c-1.08.96-1.92 1.92-2.88 2.76a33.32 33.32 0 0 0-3.6-6.36c.72-.96 1.44-1.8 2.04-2.76a30.525 30.525 0 0 1 4.44 6.36Z" fill="#fff" fill-rule="evenodd"/></svg>