<svg xmlns="http://www.w3.org/2000/svg" height="262.44" width="258.553"><path d="M258.097.72a2.179 2.179 0 0 0-1.68-.72H94.297c-19.32 0-31.2 8.4-35.28 24.72L.097 259.68a2.194 2.194 0 0 0 .36 1.92 2.1 2.1 0 0 0 1.68.84h176.64c10.08 0 20.16-8.16 22.44-18l57.24-241.8a2.194 2.194 0 0 0-.36-1.92Z" fill="#63727a"/><path d="M2.137 260.28h176.64c9.12 0 18.36-7.44 20.4-16.32l57.24-241.92H94.297c-15 .12-28.68 5.04-33.24 23.28Z"/><path d="M38.497 164.76h153.24c7.68 0 15.24-6.12 17.04-13.68l32.16-139.2h-140.4c-17.16 0-24.84 5.4-28.32 19.68Zm153.24 1.92H36.097l34.2-135.6c4.44-17.52 15.24-21 30.24-21h142.8l-32.76 141.48c-1.92 8.28-10.32 15.12-18.84 15.12Z" fill="#63727a"/><path fill="#fff" d="m61.537 242.64 4.32 5.88h32.28l13.08-51.84h-13.2l-11.28 44.52h-11.76l11.28-44.52h-16.68l-1.08.84 3.36 4.56-10.32 40.56zm1.08-27.84 3.12-12.48-4.32-5.88h-26.4l-7.2 5.88-4.44 17.4 22.32 9.36-3 12.12h-11.64l1.32-5.64-11.64-5.4-3.12 12.48 4.2 5.88h26.52l7.2-5.88 4.44-17.52-22.32-9.36 3-12h11.64l-1.44 5.76 11.76 5.28zm91.2-12.48-4.32-5.88h-32.16l-13.08 51.84h13.2l11.16-44.52h11.76l-11.16 44.52h16.56l1.08-.96-3.24-4.44 10.2-40.56zm40.92 12.48 3.12-12.48-4.32-5.88h-26.4l-7.2 5.88-4.44 17.4 22.32 9.36-3 12.12h-11.76l1.44-5.64-11.64-5.4-3.12 12.48 4.2 5.88h26.52l7.2-5.88 4.44-17.52-22.32-9.36 3-12h11.64l-1.44 5.76 11.76 5.28z"/><path fill="#bec0c2" d="m20.737 230.16 4.8 7.2-1.08 4.2 2.4 3.24h18.72l3.72-2.88 6.24.72-7.2 5.88h-26.52l-4.2-5.88 3.12-12.48z"/><path fill="#bec0c2" d="m42.697 241.2 6.6.72 3.72-14.76-22.56-9.48 3.72-14.64-6.36-.72-4.44 17.4 22.32 9.36-3 12.12zm13.68-41.16h-18.24l-3.96 3 6.48.72h11.64l-1.44 5.76 6.96-2.16 1.08-3.96-2.52-3.36zm96.48 30.12 4.8 7.2-1.08 4.2 2.4 3.24h18.72l3.72-2.88 6.24.72-7.2 5.88h-26.52l-4.2-5.88 3.12-12.48z"/><path fill="#bec0c2" d="m174.817 241.2 6.6.72 3.72-14.76-22.56-9.48 3.72-14.64-6.36-.72-4.44 17.4 22.32 9.36-3 12.12zm13.68-41.16h-18.36l-3.84 3 6.48.72h11.64l-1.44 5.76 6.96-2.16.96-3.96-2.4-3.36zm-120-2.52 10.32 2.52-10.44 41.52 2.4 3.24h21.6l5.76 3.72h-32.28l-4.32-5.88 10.32-40.56-3.36-4.56z"/><path fill="#bec0c2" d="m98.017 196.68 5.64 3.36-11.28 44.76-5.64-3.6 11.28-44.52zm25.08 3.36-5.76-3.6-13.08 51.84h13.2l-5.76-3.48 11.4-44.76zm13.44 44.76 10.44-41.4-2.4-3.36h-21.48l5.52 3.72h11.76l-11.16 44.52h16.56l1.08-.96-10.32-2.52z"/><path d="m41.137 180.84-3.48.96 1.08-4.56h3.24Zm-6.24-6.24-.36.24 1.08 1.44-3.36 13.68h4.68l.24-.36-1.08-1.32.84-3.6 7.2-2.28 1.44-6-1.44-1.8Zm38.16 0h-3.48l-1.32 5.52-3.36.84 1.56-6.36h-4.56l-.36.24 1.08 1.44-3.36 13.68h3.48l1.44-6.12 3.36-.72-1.68 6.84h4.56l.36-.36-1.08-1.32 3.36-13.68zm20.52 12.84h-3.24l2.52-10.32h3.24Zm-1.56-12.84-2.28 1.8-2.88 11.64 1.44 1.92h6.24l2.28-1.92 2.88-11.64-1.44-1.8Zm60.72 1.8-1.44-1.8h-8.28l-3.72 15.36h3.48l3.12-12.84h3.24l-3.12 12.84h4.56l.36-.36-1.08-1.32 2.88-11.88zm21.36-1.8h-4.68l-.36.24 1.2 1.44-3.36 13.68h4.56l.36-.36-1.08-1.32 3.36-13.68zm24.6 13.8-1.8-6 6.12-7.8h-3.36l-3.48 4.68-1.2-4.68h-4.56l-.36.24 1.8 1.44 1.8 6.24-5.76 7.44h3.24l3.36-4.56 1.2 4.56h4.56l.36-.36-1.92-1.2zm-77.16-.96h-3.96l.96-3.96h3.24l.6-2.52h-3.24l.96-3.84h3.72l.96 1.32.36-.24.84-3.6h-9.84l-.36.24 1.08 1.44-3.36 13.68h9l.84-3.6-.24-.24-1.56 1.32z" fill="#fff"/><path fill="#f9a01b" d="m42.697 162.24 87.48-47.88-59.4 47.88 72.12-41.4-1.2 8.4 12-6.72 27.12 25.68 14.4-43.44 20.88-1.32-10.56-26.28 18.84-14.76-24.48-9.6 6.24-26.28-20.76 9.48-10.8-22.56L157.897 30l-30-13.44-4.08 26.76-26.76 5.88 15.84 9.48-15.96 8.04 13.56 1.2-55.68 43.2 56.04-29.76-60 45.72 63.84-33.24-68.28 51.24 75.24-40.08-78.96 57.24z"/><path d="M202.777 77.52a43.537 43.537 0 1 1-41.76-45.36 43.599 43.599 0 0 1 41.76 45.36Z" fill="#e56020"/><path d="M164.617 113.28a43.53 43.53 0 0 1-29.52-73.8 43.602 43.602 0 0 0 22.32 79.8 43.856 43.856 0 0 0 33.12-13.2 42.57 42.57 0 0 1-25.92 7.2Z" fill="#b95915"/><path d="M202.777 76.2a28.571 28.571 0 0 0-.12-4.56 20.075 20.075 0 0 0-9-3.6c-.72 0-1.32-.12-2.04-.12a51.494 51.494 0 0 0-1.92-8.52 5.381 5.381 0 0 0 1.32.12c3.12.24 6.12.6 9.12 1.08a28.296 28.296 0 0 0-1.44-3.36c-3.24-.48-6.72-.84-10.2-1.08a51.205 51.205 0 0 0-3.96-8.16 11.43 11.43 0 0 0 5.76-2.88c-.84-.84-1.68-1.56-2.52-2.4a9.197 9.197 0 0 1-5.28 2.28c-.36-.48-.72-.96-.96-1.32a49.346 49.346 0 0 0-10.2-9.84 41.242 41.242 0 0 0-10.32-1.68h-.48A42.724 42.724 0 0 1 177.817 45a86.271 86.271 0 0 1-15-3.48c-1.56-.48-3-.84-4.44-1.32a61.686 61.686 0 0 0-20.64-2.4 44.376 44.376 0 0 0-10.2 8.04c5.52-2.28 16.56-6.12 30-2.4 1.44.36 2.88.72 4.44 1.2 5.88 1.8 12.6 3.72 18.36 3.72a57.185 57.185 0 0 1 4.08 7.56 32.582 32.582 0 0 0-3.36-.12c-28.08-.48-51.96 7.8-65.28 21.24a41.951 41.951 0 0 0 .84 7.8c3.72-5.4 9.36-10.32 16.56-14.4 13.44-7.56 31.44-11.52 50.52-11.28.72 0 1.32.12 2.04.12a52.14 52.14 0 0 1 2.16 8.52c-12.36.6-20.28 8.16-29.52 16.44-8.16 7.32-18.24 14.64-32.88 19.08a42 42 0 0 0 4.56 4.68c13.8-5.52 22.92-14.16 30.72-21.12 8.88-7.92 16.44-15.48 27.48-15.84a40.695 40.695 0 0 1 0 9.36c-1.44 17.04-11.4 31.56-24.84 38.76a44.526 44.526 0 0 0 9.96-2.16c1.08-.96 2.16-1.92 3.12-2.88a52.92 52.92 0 0 0 15.48-33.36 42.8 42.8 0 0 0 0-9.6c.6.12 1.2.12 1.68.24a16.383 16.383 0 0 1 9.12 4.8Z"/></svg>