<svg xmlns="http://www.w3.org/2000/svg" height="228.92" width="268.498"><path d="M178.387 31.203a41.412 41.412 0 0 0-5.908-7.112 34.131 34.131 0 0 0-2.983-2.696L190.948 0H128.6l-24.09 24.09-.058.058a53.242 53.242 0 0 0-5.908 7.113 49.1 49.1 0 0 0-4.417 8.202 48.074 48.074 0 0 0 0 37.398 46.43 46.43 0 0 0 4.417 8.145 41.412 41.412 0 0 0 5.908 7.113 27.358 27.358 0 0 0 2.983 2.753L86.04 116.267h62.349l24.148-24.206a47.222 47.222 0 0 0 10.267-15.2 48.074 48.074 0 0 0 0-37.398 42.412 42.412 0 0 0-4.416-8.26Z"/><path d="M169.725 26.901c-.917-.975-1.95-1.892-2.925-2.753l-26.156 26.27a8.387 8.387 0 0 1 3.557 2.066 8.172 8.172 0 0 1 0 11.414l-48.526 48.526h5.736l45.6-45.658a12.17 12.17 0 0 0 .115-17.093l2.81-2.81a16.046 16.046 0 0 1-.035 22.692l-.022.022-42.79 42.847h5.679l39.98-39.98a20.218 20.218 0 0 0 .057-28.45l2.81-2.81a24.112 24.112 0 0 1-.029 34.1l-.028.028-37.112 37.112h5.679l34.3-34.301a28.163 28.163 0 0 0 .058-39.807l2.868-2.868a32.23 32.23 0 0 1-.115 45.543l-31.432 31.433h5.736L164.104 83.8a36.16 36.16 0 0 0 .084-51.137l-.026-.027 2.868-2.868a40.228 40.228 0 0 1-.115 56.9l-25.697 25.755h5.679l22.886-22.887a44.4 44.4 0 0 0-.058-62.636Z" fill="#fff"/><path d="M107.376 89.423a32.57 32.57 0 0 0 2.925 2.696l26.156-26.156a7.761 7.761 0 0 1-3.556-2.065 8.066 8.066 0 0 1-.007-11.407l.007-.007L181.427 3.9h-5.679l-45.715 45.716a12.117 12.117 0 0 0-.057 17.093l-2.868 2.81a15.995 15.995 0 0 1 .02-22.62l.094-.094L170.07 3.9h-5.679l-40.037 40.037a20.166 20.166 0 0 0-.057 28.45l-2.868 2.81a24.217 24.217 0 0 1 .057-34.128L158.712 3.9h-5.678l-34.358 34.358a28.163 28.163 0 0 0-.057 39.808l-2.868 2.868a32.283 32.283 0 0 1 .057-45.543l31.49-31.49h-5.678L112.997 32.58a36.212 36.212 0 0 0-.114 51.164l-2.811 2.868a40.228 40.228 0 0 1 .048-56.89l.01-.01L135.94 3.9h-5.679l-23 23.001a44.209 44.209 0 0 0 .114 62.521Z" fill="#cf0a2c"/><path d="M60.342 213.892h-3.04v-3.097h9.521v3.097h-3.097v15.028h-3.384v-15.028zm10.841-3.097h7.514l2.237 2.237v6.309l-1.893 1.778 2.007 7.744h-3.384l-1.893-7.4H74.51v7.457h-3.384v-18.125Zm5.62 8.145.69-.803v-3.958l-.69-.803h-2.236v5.564Zm10.957-8.145h4.875l2.753 18.125h-3.327l-.459-4.187h-2.925l-.516 4.187h-3.212Zm1.204 11.127h2.18l-1.09-9.005Zm10.267 4.417h2.008v-12.963h-2.008v-2.581h7.399v2.581h-1.95v12.963h1.95v2.581h-7.399v-2.581zm12.103-15.544h3.441v15.142h3.844v2.983h-7.285v-18.125zm18.928 0h7.4l2.18 2.237v4.818l-1.779 1.778 1.778 1.778v5.277l-2.18 2.18h-7.399Zm5.335 7.57.86-.86v-3.212l-.745-.688h-2.065v4.818h1.95Zm.115 7.86.745-.69v-3.728l-.86-.803h-2.008v5.163h2.123Zm9.177-15.43h3.327v15.142h3.958v2.983h-7.285v-18.125zm13.709 0h4.933l2.753 18.125h-3.327l-.516-4.187h-2.868l-.516 4.187h-3.212Zm1.319 11.127h2.18l-1.147-9.005Zm10.21 4.532 4.646-12.562h-4.531v-3.097h8.202v2.409l-4.589 12.619h4.589v3.097h-8.317v-2.466zm13.02-15.659h7.973v2.982h-4.531v4.417h4.13v2.983h-4.13v4.76h4.589v2.983h-8.031v-18.125zm12.963 0h7.515l2.237 2.237v6.309l-1.779 1.778 1.95 7.801h-3.383l-1.836-7.4h-1.32v7.4h-3.383Zm5.622 8.145.688-.803v-3.958l-.688-.803h-2.237v5.564Zm8.604 7.8v-3.269h3.326v1.893l.804.803h1.204l.688-.803v-3.442l-.573-.573h-3.556l-1.836-1.951v-6.366l2.18-2.237h4.99l2.18 2.237v3.212h-3.385v-1.893l-.688-.746h-1.147l-.803.746v3.384l.631.516h3.556l1.836 1.893v6.596l-2.18 2.18h-5.048l-2.179-2.18zM36.595 141.333c0-10.497-5.678-13.996-16.749-13.996H0l8.661 8.661v63.267h10.726v-31.547h.574c10.84 0 16.462-3.327 16.749-13.307v-13.078Zm-17.208-5.335h2.41c2.466 0 4.072.803 4.072 3.557v15.601c0 2.639-.746 3.958-4.531 3.958h-1.836v-23.116Zm32.523 4.36c0-3.614 1.147-4.417 3.327-4.417 2.122 0 3.212.803 3.212 4.417v45.83c0 3.67-1.147 4.416-3.212 4.416-2.18 0-3.327-.746-3.327-4.416Zm3.212 58.85c6.654 0 13.996-2.696 13.996-12.045V139.44c0-9.407-7.4-12.103-13.996-12.103-6.539 0-13.938 2.696-13.938 12.103v47.723c0 9.35 7.4 12.045 13.938 12.045Zm127.968-59.195h.631l2.065 27.648h-5.105Zm-3.441 36.251h7.055l2.294 22.944h10.784l-8.145-71.87h-16.118l-8.145 71.87h9.693Zm78.18 9.006c0 4.646-1.32 5.334-4.072 5.334h-2.582v-54.606h2.582c2.695 0 4.072.746 4.072 5.335Zm10.669.918v-42.56c0-12.677-4.474-16.29-15.086-16.29H240.45v71.87h15.2c8.432 0 12.849-6.195 12.849-13.02ZM84.375 135.941h2.581c2.41 0 4.073.803 4.073 3.556v14.856c0 2.639-.803 4.646-4.589 4.646h-2.065Zm.172 31.662c4.99-.23 6.597 1.492 6.597 5.793v25.812h10.382s.229-7.743 0-28.507c-.058-6.482-4.13-7.457-4.13-7.457 4.703-2.008 4.13-4.36 4.13-9.694l-.058-13.938c0-9.292-5.047-12.275-13.651-12.275H73.649v71.871h10.84v-31.605Zm78.295 23.001h-13.651v-63.267h-10.784v71.871h24.435v-8.604z"/><path d="M113.915 135.998v63.21h10.726v-63.21h9.235v-8.661H98.658l8.718 8.661h6.539zm100.149 23.345 12.103 39.865h9.751v-71.871h-9.694v40.324l-12.16-40.324h-9.694v71.871h9.694v-39.865z"/></svg>