<svg xmlns="http://www.w3.org/2000/svg" height="226.764" width="198.769"><defs><clipPath id="a"><path fill="none" d="M.001 0H198.77v226.764H.001z"/></clipPath></defs><g clip-path="url(#a)"><path d="m198.769 0-28.447 28.559-23.774-23.745-23.884 23.748L98.93 4.814 75.204 28.56 51.462 4.814 27.741 28.571 0 .569v126.453c0 54.995 44.12 99.742 99.083 99.742a99.823 99.823 0 0 0 99.686-99.742Z" fill="#fff"/></g><g clip-path="url(#a)"><path d="M8.873 144.34a90.955 90.955 0 0 0 13.839 33.292c4.133-7.249 12.403-16.254 28.645-20.08a154.068 154.068 0 0 1-3.302-13.212H8.873Z" fill="#5c6670"/></g><g clip-path="url(#a)"><path d="M29.192 186.201a92.11 92.11 0 0 0 69.473 32.605 85.523 85.523 0 0 1-7.336-4.217c-11.295-7.3-26.824-21.51-36.85-47.85-15.78 3.44-22.46 12.385-25.287 19.462" fill="#5c6670"/></g><g clip-path="url(#a)"><path d="M64.202 165.356c7.116 17.891 17.868 31.639 31.98 40.867a71.942 71.942 0 0 0 24.169 10.147 92.286 92.286 0 0 0 39.94-20.604c-9-.986-18.226-6.165-27.967-11.627-15.208-8.536-34.148-19.159-59.718-19.159-2.76 0-5.582.133-8.404.376" fill="#5c6670"/></g><g clip-path="url(#a)"><path d="M102.65 97.807H69.77v39.148h13.66v-31.402h10.26v31.403h13.018V103.29c0-2.983-1.823-5.484-4.059-5.484" fill="#5b2b82"/></g><g clip-path="url(#a)"><path d="M112.464 97.807v33.583c0 2.99 1.808 5.565 4.037 5.565h32.849v-23.768l-13.115-.015V129.2h-10.258v-23.837h23.373v-7.556h-36.886Z" fill="#5b2b82"/></g><g clip-path="url(#a)"><path fill="#5b2b82" d="m33.415 97.807-7.43 15.809h-4.291V97.807H8.097v39.148h13.597v-15.752h4.291l7.43 15.752h13.584l-9.581-19.546 9.581-19.602H33.415z"/></g><g clip-path="url(#a)"><path fill="#5b2b82" d="M50.617 97.807h14.076v39.148H50.617z"/></g><g clip-path="url(#a)"><path d="M190.709 108.394V97.807h-36.091v17.885c0 2.982 1.81 5.404 4.035 5.404h18.39v8.532h-22.425v7.327h36.11v-17.97c0-2.78-1.536-5.393-3.604-5.393h-18.96v-8.198h9.485v3.001h13.06Z" fill="#5b2b82"/></g><g clip-path="url(#a)"><path fill="#5b2b82" d="M152.314 58.103h-11.525l23.77-23.781-18.011-17.979-23.884 23.743L98.93 16.343l-41.728 41.76H45.678l23.729-23.817-17.945-17.943-23.721 23.743L8.098 20.587v70.036h182.608v-70.94l-38.392 38.42z"/></g><g clip-path="url(#a)"><path d="M47.99 83.098a1.847 1.847 0 0 0 1.837 1.846H60.09v-2.758h-8.363v-8.942h8.363v-2.75h-12.1Z" fill="#fff"/></g><g clip-path="url(#a)"><path d="M31.26 70.493v14.45h3.733v-3.78h4.63v3.78h3.736V72.334a1.885 1.885 0 0 0-2.052-1.841Zm8.364 7.92h-4.631v-5.166h4.63Z" fill="#fff"/></g><g clip-path="url(#a)"><path d="M182.091 70.493h-8.466a1.835 1.835 0 0 0-1.832 1.829v10.777a1.847 1.847 0 0 0 1.832 1.843h8.466a1.85 1.85 0 0 0 1.832-1.85v-10.77a1.833 1.833 0 0 0-1.832-1.83m-1.92 11.673h-4.613V73.24h4.614Z" fill="#fff"/></g><g clip-path="url(#a)"><path d="M14.517 77.254a1.844 1.844 0 0 0 1.84 1.838h6.523v3.093h-8.363v2.757h12.1v-6.766a1.83 1.83 0 0 0-1.644-1.826l-.102-.009h-6.625v-3.098h8.37v-2.75h-12.1Z" fill="#fff"/></g><g clip-path="url(#a)"><path d="M91.402 70.493H81.147v14.45h3.736v-3.78h4.63v3.78h3.74V72.334a1.852 1.852 0 0 0-1.85-1.841m-1.89 7.92h-4.63v-5.166h4.63Z" fill="#fff"/></g><g clip-path="url(#a)"><path fill="#fff" d="M155.517 73.24h4.189v11.702h3.728V73.24h4.184v-2.747h-12.101v2.747z"/></g><g clip-path="url(#a)"><path d="M116.785 70.493H98.208v14.45h3.735V73.246h4.58v11.699h3.786v-11.7h4.577v11.699h3.737V72.332a1.847 1.847 0 0 0-1.838-1.84" fill="#fff"/></g><g clip-path="url(#a)"><path d="M149.89 70.493h-10.256v14.45h3.734V73.246h4.63v11.699h3.736V72.332a1.847 1.847 0 0 0-1.843-1.84" fill="#fff"/></g><g clip-path="url(#a)"><path d="M123.71 83.098a1.844 1.844 0 0 0 1.837 1.846H135.8v-2.758h-8.354V79.09h8.354v-2.745h-8.354v-3.1h8.354v-2.75h-12.09v12.604Z" fill="#fff"/></g><g clip-path="url(#a)"><path d="M74.49 79.686h1.999V72.33a1.895 1.895 0 0 0-2.052-1.838H64.388v14.45h3.733v-5.257h2.709l2.236 5.257h3.638Zm-1.738-2.748h-4.63v-3.694h4.63Z" fill="#fff"/></g><g clip-path="url(#a)"><path d="M70.613 155.427c19.455-.396 38.695 4.475 63.246 18.465 18.146 10.34 26.119 13.476 31.56 12.137 5.013-1.233 9.663-4.195 17.869-21.536a90.314 90.314 0 0 0 6.474-20.148H57.774c.92 3.998 1.822 7.975 3.029 11.633a88.455 88.455 0 0 1 9.81-.551" fill="#5c6670"/></g></svg>