<svg xmlns="http://www.w3.org/2000/svg" height="173.88" width="385.393"><path d="M146.778 111.267h8.408l-2.53 6.367Zm-10.041 28.572-13.388 19.837 21.96-7.184 8.897 21.388 6.694-23.02 24.735 6.367-16-18.531 19.184-15.919-17.143 1.061 11.347-12.734h22.123l25.306-44.817V36.735h-17.96l-8.57 15.266-1.633 11.51-12.899 22.94h-11.836l11.592-20.49V36.816h-18.613L162.206 52l-1.47 11.592-20.244 36.163 3.102 8-3.919-4.244 1.633 21.796-23.592 1.061Z" fill="#fff"/><path d="M40.899 86.45c-7.266 1.878-14.695 3.919-21.878 5.878-.817.245-1.551.571-2.286.735V74.777c1.143-.327 2.122-.654 3.265-.898 5.96-1.796 11.919-3.347 17.878-4.898.98-.327 2.123-.49 3.102-.817v9.96c5.633-1.47 11.184-2.776 16.735-4V61.96c-1.96-2.857-3.837-5.796-5.878-8.898-1.387.327-2.857.735-4.245 1.061h-.244c-11.919 2.857-23.756 6.041-35.511 9.633a11.623 11.623 0 0 0-1.306.408 45.738 45.738 0 0 0-4.408 1.388c-2.041 4.163-4 8.327-5.878 12.327v24.571a1874.14 1874.14 0 0 1 8.898 6.205c2.449-.735 4.816-1.551 7.265-2.205 7.51-2.285 15.021-4.245 22.45-6.204.816-.163 1.632-.408 2.449-.571v19.02c-.98.245-2.123.49-3.102.817-6.205 1.55-12.409 3.184-18.531 5.061-1.062.245-2.123.572-3.184.898v-9.96c-5.47 1.634-11.02 3.348-16.49 5.062v12.245c1.96 2.776 3.837 5.551 5.796 8.327 1.388-.408 2.857-.898 4.327-1.306a9.871 9.871 0 0 1 1.469-.408 547.069 547.069 0 0 1 36.082-9.796 89.305 89.305 0 0 1 4.49-1.062c2.04-3.918 3.918-7.918 5.96-11.755V91.512c-2.94-2.286-5.96-4.735-8.899-7.021-3.02.653-5.714 1.388-8.326 1.96Zm344.494 20.98c-2.939-3.918-5.877-7.918-8.816-11.837-2.613-.816-5.306-1.633-7.919-2.449-7.265-2.122-14.53-4.163-21.878-5.96-.816-.162-1.55-.407-2.367-.57v-18.45c1.061.327 2.122.49 3.184.817 5.959 1.55 12 3.102 17.96 4.898.979.244 2.122.571 3.101.898v9.877c5.551 1.633 11.02 3.347 16.49 5.062V77.552c-1.877-4-3.837-8-5.714-12-1.47-.408-2.857-.898-4.327-1.306-.081 0-.081 0-.163-.082-11.755-3.673-23.592-6.939-35.51-9.714a7.64 7.64 0 0 0-1.307-.327c-1.55-.408-3.02-.735-4.571-1.143a587.65 587.65 0 0 0-6.041 9.143v24.572c3.02 3.674 5.959 7.347 8.98 11.02 2.448.654 4.98 1.225 7.346 1.797q11.266 2.938 22.531 6.122c.817.163 1.551.49 2.286.653v19.02a44.326 44.326 0 0 1-3.102-.897c-6.204-1.796-12.408-3.429-18.53-5.061-1.062-.245-2.123-.49-3.185-.817v-9.959c-5.55-1.47-11.102-2.776-16.653-4v12.245c1.878 3.837 3.837 7.755 5.878 11.592 1.388.245 2.939.653 4.326.98.49.081.898.245 1.388.326 12.164 2.939 24.245 6.123 36.164 9.878 1.551.408 2.939.898 4.326 1.306 1.96-2.776 5.796-8.572 5.796-8.572.327.327.327-16.49.327-24.898ZM117.144 57.47v21.307c-1.387.245-2.53.326-3.918.49-7.265.979-14.53 2.04-21.715 3.183V57.225c7.266-1.224 14.45-2.204 21.715-3.102 1.388-.245 2.53-.326 3.918-.49Zm5.96-16.49c-.572.082-.898.082-1.47.163-15.755 1.796-31.429 4.245-47.02 7.184v75.511c5.55-1.142 11.265-2.122 16.897-3.02V94.45c10.041-1.55 20.164-3.02 30.123-4.245.572-.081.898-.081 1.47-.163 1.47-.245 3.02-.327 4.49-.49 2.122-4 4.326-7.837 6.53-11.755V50.695c-2.122-3.429-4.245-7.02-6.53-10.45-1.47.327-3.02.49-4.49.735Zm166.614 37.715c-7.347-1.143-14.775-2.204-22.122-3.02V53.389c7.51.897 14.857 1.959 22.367 3.183 1.225.163 2.53.408 3.755.572V79.43c-1.306-.327-2.694-.49-4-.735Zm14.858 8.49c2.04-.816 4-1.47 6.04-2.286V58.776c-3.591-4.163-7.102-8.326-10.693-12.49-16.327-2.775-32.736-5.061-49.226-6.53v75.51c5.633.49 11.348 1.062 16.98 1.797V87.51c4.327.49 8.735 1.143 13.062 1.715 1.387.163 2.938.408 4.326.571 2.94.408 5.796.98 8.735 1.306v29.552c.327 0 .571.163.898.163 5.388.898 10.612 1.796 16 2.776V91.51a103.843 103.843 0 0 1-6.122-4.326ZM71.185 21.143c-2.45.408-4.735.898-7.102 1.388a3.11 3.11 0 0 0-.817.245v-6.041c.327-.082.735-.082.98-.163 1.959-.409 3.918-.735 5.877-1.143.327-.082.735-.082 1.062-.163v3.183c1.796-.245 3.592-.653 5.47-.98v-3.918c-.654-1.061-1.225-1.959-1.96-2.939a8.043 8.043 0 0 1-1.388.164h-.082c-3.918.734-7.755 1.47-11.592 2.285a3.536 3.536 0 0 1-.408.082c-.49.082-.98.163-1.387.245-.572 1.388-1.307 2.53-1.96 3.918v8c1.062.735 1.96 1.47 2.94 2.286l2.448-.49c2.45-.49 4.898-.898 7.266-1.469.326 0 .571-.082.816-.082v6.123c-.245.082-.653.082-.98.163-2.04.408-4.081.817-6.122 1.143-.245.082-.653.082-.98.163V29.96c-1.796.408-3.673.653-5.388 1.06v4c.653.98 1.225 1.878 1.96 2.858.49-.082.898-.163 1.387-.245.245 0 .327-.081.49-.081 4-.817 7.837-1.551 11.755-2.286.49-.082 1.062-.163 1.47-.245.571-1.225 1.306-2.45 1.877-3.755V23.02c-.98-.817-1.877-1.633-2.938-2.368-.898.164-1.796.245-2.694.49Zm19.592 1.47q1.592-6 2.939-12.246c1.06 3.756 1.959 7.592 2.938 11.348-1.877.326-3.918.653-5.877.898ZM89.96 8c-2.204 8.49-4.408 16.98-6.775 25.47 1.714-.327 3.428-.653 5.224-.816.49-1.96.898-3.837 1.388-5.633 2.612-.408 5.225-.817 8-1.225.49 1.715.898 3.51 1.388 5.225 1.796-.327 3.755-.49 5.551-.817-2.204-7.836-4.408-15.673-6.775-23.428-2.694.408-5.307.816-8 1.224Zm35.511 11.592c-2.775-5.143-5.714-10.204-8.571-15.347-1.878.163-3.837.408-5.796.653v24.49c1.632-.163 3.265-.408 4.898-.571V12.408c2.857 5.143 5.632 10.368 8.49 15.51 1.959-.244 3.836-.407 5.877-.652V2.776c-1.633.244-3.265.326-4.898.57Zm30.123-3.755c.98-3.918 1.96-8 3.02-11.919.98 3.837 1.878 7.756 2.94 11.674-2.042.082-4 .163-5.96.245Zm-.816-14.776c-2.286 8.327-4.572 16.654-6.776 24.899 1.714-.082 3.429-.164 5.225-.327.49-1.796.898-3.673 1.387-5.551 2.694-.163 5.388-.245 8-.408.572 1.877.98 3.673 1.47 5.47 1.877-.082 3.755-.164 5.633-.164-2.204-8.082-4.572-16.082-6.776-24.164-2.857 0-5.551.082-8.163.245Zm37.225 15.184c-2.857-5.47-5.796-10.776-8.653-16.163-1.878 0-3.837.081-5.715.081v24.49c1.633 0 3.184-.081 4.817-.081V8.082c2.857 5.47 5.714 10.775 8.49 16.245h5.877V0h-4.816ZM204.82 4.49c2.285 0 4.489.163 6.693.245v20c1.796.163 3.674.163 5.47.245V4.898c2.204.163 4.49.245 6.694.327V.898c-6.286-.327-12.572-.49-18.858-.653Zm68.816 16.735c-2.857-5.796-5.632-11.51-8.571-17.307-1.96-.244-3.837-.408-5.796-.571v24.49c1.633.163 3.265.245 4.898.49V11.919c2.775 5.796 5.633 11.51 8.49 17.388 1.877.244 3.837.49 5.714.734V5.551c-1.55-.245-3.184-.408-4.816-.653v16.327Zm12.735-10.858c1.47.245 2.776.409 4.164.654v16.898c-1.388-.245-2.694-.408-4.164-.653v3.755c4.572.653 9.143 1.306 13.715 2.122v-3.755c-1.47-.163-2.776-.408-4.163-.653V11.837c1.387.163 2.693.408 4.163.653V8.735c-4.572-.653-9.143-1.388-13.715-2.123ZM245.8 7.674V22.53c-.49 0-.899-.082-1.388-.082-1.96-.245-3.837-.326-5.796-.408-.49 0-.898-.081-1.388-.081V5.633c.49 0 .898.081 1.388.081 1.959.164 3.836.327 5.796.409.49 0 .898.081 1.387.081Zm3.346-5.307c-.49 0-.98-.081-1.469-.081-4-.327-7.837-.572-11.755-.898h-.49c-.572 0-1.061-.082-1.551-.082-.735 1.061-1.388 2.286-2.123 3.429v17.224c.735 1.143 1.388 2.531 2.123 3.674.49 0 .98.163 1.55.163h.49c3.92.245 7.756.49 11.756.898.49 0 .98.082 1.47.082.734-1.143 1.469-2.286 2.122-3.429V6.123c-.653-1.225-1.388-2.45-2.123-3.756Zm72.899 15.837v14.858c-.49-.082-.898-.245-1.47-.327-1.877-.408-3.836-.653-5.713-1.061a9.492 9.492 0 0 0-1.47-.327V15.021a9.492 9.492 0 0 0 1.47.326c1.877.408 3.836.735 5.714 1.143.571.082.98.163 1.47.245Zm5.307-.816c-.654-1.306-1.388-2.776-1.96-4.082-.571-.081-1.06-.163-1.55-.245-3.837-.816-7.674-1.55-11.674-2.285-.164 0-.327-.082-.49-.082a9.492 9.492 0 0 1-1.47-.327 35.709 35.709 0 0 0-2.04 3.266v17.225c.734 1.306 1.387 2.612 2.04 3.918.49.082.98.245 1.47.327a2.887 2.887 0 0 1 .49.081c3.918.735 7.837 1.388 11.673 2.204a8.671 8.671 0 0 0 1.551.327c.653-1.143 1.388-2.123 1.96-3.266ZM163.431 64.654l-19.919 35.429 3.347 8.245h12.327l-5.633 14.286-10.531-11.429 1.225 16.817-18.368.816 14.613 10.204-10.368 15.429 16.735-5.388 6.857 16.572 5.307-18.123 18.612 4.735-12.082-13.878 14.776-12.245-15.265.98 16.571-18.776h21.796l24.082-42.694v-25.96h-13.551l-7.837 13.796-1.306 11.184-13.959 24.898h-18.286l13.633-24.082V39.756h-14.123l-7.51 13.714-1.143 11.184z"/><path fill="#c4ced4" d="M222.452 43.511h-6.367l-4.898 8.571h6.612l4.653-8.571zm-41.225 0h-6.776l-4.816 8.571h7.184l4.408-8.571zm-12.816 54.694-14.205 32.409-6.367-6.857.653 8.653-9.551.408 7.592 5.388-5.307 8 8.654-2.857 3.592 8.571 2.693-9.387 9.715 2.53-6.286-7.265 7.674-6.368-10.776.735h-.735l22.368-33.796h19.429l17.225-30.776h-6.694l-14.45 25.388h-34.776l14.531-25.388h-6.775l-17.552 30.776h19.348v-.164zm6.612-42.612h-6.286l-.816 7.428h6.449l.653-7.428zm41.388 0h-6.204l-.816 7.428h6.367l.653-7.428z"/><path d="M151.186 140.247a2.79 2.79 0 0 0 2.857-2.721q.002-.068 0-.136a2.84 2.84 0 0 0-2.822-2.857h-.035a2.858 2.858 0 0 0 0 5.714Z"/></svg>