<svg xmlns="http://www.w3.org/2000/svg" height="302.811" width="302.811"><defs><style>.cls-1{fill:#fff}.cls-2{fill:#bd1b21}</style></defs><path class="cls-1" d="M302.811 151.406A151.406 151.406 0 1 1 151.406 0 151.46 151.46 0 0 1 302.81 151.406"/><path d="M151.406 294.938A143.607 143.607 0 0 1 48.854 50.973a142.848 142.848 0 0 1 101.038-43.2h1.615a143.607 143.607 0 0 1 102.552 243.964 142.848 142.848 0 0 1-101.038 43.201h-1.615"/><path class="cls-1" d="m165.537 52.891-4.946 5.047h-14.03l-5.047-5.047V25.133l5.047-5.047h13.929l5.047 5.047Zm-14.535-24.629-1.514 1.514v18.27l1.514 1.514h5.148l1.514-1.514v-18.27l-1.514-1.514Zm95.486 89.935-6.661-2.321-6.057-12.617 2.322-6.662 25.032-12.012 6.662 2.322 6.056 12.617-2.321 6.662Zm15.948-23.72-2.018-.706-16.453 7.873-.707 2.018 2.221 4.644 2.019.706 16.553-7.873.707-2.019ZM91.348 73.785l.101 7.066-9.79 9.992-7.066.101-19.885-19.279-.101-7.065 9.69-9.993 7.066-.101ZM63.59 67.123v2.12L76.712 81.96h2.12l3.533-3.634v-2.12L69.243 63.49h-2.12Zm153.324-30.988-14.636 34.723-6.056-2.625-1.615-24.628-8.58 20.288-6.662-2.725 14.737-34.722 8.176 3.431.101 21.601 7.772-18.27 6.763 2.927zm-97.001 7.874-1.716 5.854 10.498 10.396-7.369 3.23-9.79-9.387-3.533 1.615 4.946 11.406-6.763 2.927-14.838-34.722 16.15-7.066 6.864 2.726ZM104.47 47.44l5.955-2.624a15.53 15.53 0 0 0 .808-1.918l-2.019-4.744-2.019-.807-5.955 2.624Zm142.018 22.509-4.946-4.845L220.749 86.2l-5.551-5.551 20.793-21.096-4.946-4.845 5.653-5.754 15.443 15.141-5.653 5.854zM45.22 91.449l-2.826 6.258 27.051 12.113-3.23 7.267-27.051-12.112-2.827 6.258-7.469-3.331 8.882-19.784 7.47 3.331zm206.82 96.294-3.735 7.066-2.624-1.414-.707 1.414-2.321 4.44.605 2.02 3.735 1.917-.505-.302 2.02-.606 4.44-8.479 6.965-2.12 11.305 5.956 2.12 6.763-6.46 12.415s-6.864 2.12-6.864 2.019l-5.652-3.029 3.734-7.065 2.826 1.514 3.029-5.854-.606-2.02-3.028-1.614-2.019.605-4.34 8.277-7.066 2.12-11.305-5.955-2.22-6.965 6.46-12.415 6.863-2.019Zm-193.9 26.042-5.956-1.312-9.589 11.204-3.734-7.066 8.68-10.397-1.816-3.431-11.104 5.753-3.431-6.46 33.51-17.361 8.177 15.645-2.322 6.965Zm-4.542-15.14 3.028 5.753 2.018.605 4.543-2.422.605-2.019-3.028-5.753Zm53.9 60.763-5.45 13.021-6.562-2.725 14.535-34.924 15.948 6.662 2.625 6.863-5.249 12.718-5.249 2.827Zm2.826-6.762 5.35 2.22 1.918-.807 2.018-4.744-.807-1.918-5.35-2.22Zm54.405.201-6.863.101.302 29.676-7.873.101-.302-29.676-6.864.101-.101-8.176 21.701-.202v8.075zm43.908 12.416-2.826 6.46-13.122 4.946-6.46-2.928-9.79-25.94 2.926-6.46 13.021-4.946 6.46 2.927Zm-22.307-17.866-.909 1.918 6.46 17.159 1.918.908 4.744-1.816.909-1.918-6.46-17.059-1.918-.908Zm49.964-18.674.1 6.057 13.123 6.863-6.057 5.148-12.112-6.157-2.927 2.523 8.075 9.489-5.552 4.744-24.427-28.768 13.425-11.405 7.368.706Zm-13.728 7.672 4.946-4.24.202-2.12-3.33-3.936-2.12-.202-4.946 4.24ZM76.308 259.711l-5.854-5.45 2.725-5.552-8.075-7.47-5.35 3.23-5.955-5.45 34.117-20.49 5.955 5.45Zm.202-17.967 5.148-10.497-9.993 5.955Z"/><path class="cls-2" d="M180.778 227.31q.152.303.303.303a9.096 9.096 0 0 0 1.312-.202l.808-.403 2.422-.909 5.956-2.826 1.009-.505.505-.202.605-.403 1.01-.606 1.21-.707 1.616-1.009 2.826-2.019 1.413-1.11 1.918-1.413 1.817-1.312.807-.606 1.212-1.11 1.211-1.212 2.019-2.12 2.321-2.22 2.625-3.028 1.413-1.918.504-.706 1.615-1.918 3.029-4.441.807-1.413 2.019-4.038 1.11-2.22 2.019-4.038 1.11-2.423 1.211-3.734s1.413-4.946 2.12-7.57a.762.762 0 0 0-.1-.808c-.405-.606-.707-1.312-1.111-2.019-.202-.303-.505-.706-.707-1.01s-.706-.907-.908-1.21l-.707-.707c-.605-.605-1.211-1.211-1.716-1.615a1.81 1.81 0 0 1-.706-.505 23.282 23.282 0 0 0-5.249-3.129l-2.423-.908a16.138 16.138 0 0 0-2.12-.505.981.981 0 0 0-.908.101c-.302.202-.302.606-.302 1.01-.101 1.009-.101 2.12-.202 3.23s-.202 2.12-.303 3.23c-.101 1.009-.101 1.917-.202 2.927a25.242 25.242 0 0 1-.606 3.835c-.403 2.322-.908 4.744-1.413 7.066a6.75 6.75 0 0 1-.504 1.918 15.98 15.98 0 0 0-.909 3.129 36.828 36.828 0 0 1-2.019 6.46 24.78 24.78 0 0 1-2.22 5.047.37.37 0 0 0-.101.303c-.505 1.11-.909 2.22-1.413 3.23a18.82 18.82 0 0 0-1.01 2.018 20.318 20.318 0 0 1-1.413 2.524c-.807 1.312-1.716 2.523-2.422 3.835a23.48 23.48 0 0 1-1.716 2.625 1.627 1.627 0 0 0-.404.706 16.088 16.088 0 0 1-1.514 2.12c-1.01 1.312-2.12 2.624-3.23 3.936-.707.808-1.413 1.515-2.12 2.322-.605.707-1.312 1.413-2.018 2.12a2.202 2.202 0 0 1-.505.403 10.69 10.69 0 0 0-1.211 1.01 15.064 15.064 0 0 1-2.726 2.321c-.403.303-.908.606-1.312.909a16.946 16.946 0 0 1-3.432 2.12m53.093-63.491a.352.352 0 0 0 .101-.2 3.569 3.569 0 0 1 .101-.607l.606-5.147.303-4.845v-5.451l-.606-5.45s-.707-4.946-1.211-7.369a2.45 2.45 0 0 0-1.413-1.716 6.955 6.955 0 0 0-.808-.303c-.505-.202-1.11-.403-1.615-.605-1.211-.303-2.422-.707-3.634-.909-1.514-.202-2.927-.404-4.44-.504-1.212-.101-2.423-.202-3.635-.202h-2.523c-.505 0-1.11 0-1.312.302a2.526 2.526 0 0 0 0 1.514c.202 1.212.404 1.817.605 2.928a74.582 74.582 0 0 1 1.313 10.497c.1 1.615.202 3.23.202 4.744v1.211a1.902 1.902 0 0 0 .201.808.72.72 0 0 0 .606.303c.303.1.606.1.908.202s.909.201 1.212.302c1.413.505 2.927 1.01 4.24 1.514a24.596 24.596 0 0 1 2.825 1.414c.101.1.202.1.303.201.505.404 1.11.808 1.615 1.212a15.316 15.316 0 0 1 3.634 3.129c.202.202.404.504.605.706.404.303 1.01 1.615 1.515 2.12.201.1.201.202.302.202m-36.438-58.039a5.332 5.332 0 0 0 1.312-.1c.303 0 .505 0 .707-.304a.755.755 0 0 0-.202-.706c-.101-.202-1.01-1.918-1.01-1.918l-.908-1.413-3.836-5.552-.807-.908-.707-1.01-1.21-1.413-3.13-3.431-1.312-1.313-4.845-4.44-3.937-3.029-1.413-.707-4.643-2.826-3.23-1.716-.605-.303-2.625-1.009-3.936-1.413-.303-.1-1.211-.304-.303-.1-1.11-.303-2.322-.404h-1.11l-2.12-.404-2.524-.202-.908-.1h-1.514l-2.624.1-2.524.303h-2.019l-1.715.202-1.817.404-1.413.403-2.221.404h-.505l-2.12.707-1.21.302-.707.404-1.817.505-.909.505-1.11.403-2.725 1.11-3.432 1.313-1.11.504-2.423 1.313-2.12 1.413-1.917 1.01-.707.403-2.12 1.11-.302.202-2.423 1.918-2.019 1.312-.403.303-2.22 1.817-.808.706s-1.212 1.01-1.212 1.212l.808-.303s1.514-.606 1.615-.606h.303l2.22-.908h.303l2.423-1.01 1.312-.403 1.312-.505 1.817-.606 4.441-1.716h.404l2.22-.807 1.817-.707.202.202 3.432.101 2.22.202h.102l4.44.303 6.158.303v.1l2.22 1.918h.202l2.221 2.12.202-.1 3.028.1.1-.1 7.672.403v.202l3.432 2.018h.101l6.056 2.928v.302l3.432-1.312 5.047 1.716.807 1.413 1.817.101 1.817 2.019h.202l1.413 1.615v.1h.202l3.937.91 1.514 2.22 3.633 1.312a56.498 56.498 0 0 0 5.956 1.211 17.728 17.728 0 0 0 5.854.404m34.319 23.317a17.217 17.217 0 0 0-.505-1.817l-.202-.606-.202-.807-.605-1.918-.606-1.716-1.918-4.24-.807-2.018-1.11-2.423-1.313-2.12-.303-.605-.908-1.716-.808-1.312-.302-.404-5.552-7.47s-.505-.605-.807-.908q-.152-.302-.303-.303s-1.716 2.726-2.423 3.533-2.12 2.12-2.12 2.12-1.21 1.01-1.412 1.11a9.1 9.1 0 0 1-1.11.707l-1.212.706s-.908.404-1.11.505-.303.101-.404.202-.101.202-.101.404.1.303.202.504c.505 1.11 1.01 2.12 1.514 3.23a40.828 40.828 0 0 1 2.019 4.845 10.507 10.507 0 0 1 .605 1.615c.505 1.413.909 2.827 1.312 4.24.202.605.404 1.211.606 1.918.202.605.303 1.312.505 1.917a.768.768 0 0 0 .807.606h1.211c1.514 0 2.928-.101 4.442-.101.403 0 3.33.303 3.33.303s1.01.1 1.515.202c1.11.202 2.22.504 3.33.706a12.353 12.353 0 0 1 2.726.909 6.529 6.529 0 0 0 1.312.403 2.29 2.29 0 0 1 .404.101q.303-.151.303-.302"/><path class="cls-2" d="M212.473 96.294a2.96 2.96 0 0 0-.404-.807l-.303-.505-.807-.909-.505-.807-1.01-1.01-.302-.302c-1.716-1.413-5.249-4.24-5.249-4.24l-1.01-.807-1.816-1.615-9.085-5.45-7.166-3.433-3.836-1.514-1.413-.504-4.744-1.615-3.33-.808-3.23-.706h-.505l-.303.302.1.101a1.242 1.242 0 0 0 .505.202l3.028 1.211a15.53 15.53 0 0 0 1.918.808 5.07 5.07 0 0 1 1.312.505l4.543 2.725a15.138 15.138 0 0 1 2.523 1.918 8.546 8.546 0 0 0 1.918 1.413c.303.202.605.505.908.706.202.101.303.303.505.404a27.722 27.722 0 0 1 2.624 2.22 32.193 32.193 0 0 0 2.625 2.625 20.175 20.175 0 0 1 2.422 2.625 20.183 20.183 0 0 0 1.918 2.22c1.312 1.312 2.322 2.826 3.533 4.24a2.112 2.112 0 0 0 .404.605c.807 1.211 1.514 2.524 2.422 3.634a22.16 22.16 0 0 1 1.716 2.523 14.137 14.137 0 0 0 1.01 1.615.875.875 0 0 0 .706.404 1.242 1.242 0 0 0 .505-.202l.605-.303s.808-.403 1.11-.504a6.029 6.029 0 0 0 1.11-.606c.203-.202 1.111-.807 1.515-1.211a12.83 12.83 0 0 0 1.413-1.615l.707-.909 1.21-2.018a2.036 2.036 0 0 0 .203-.606m-3.836 30.281c-.505-1.514-.908-2.927-1.413-4.441a38.519 38.519 0 0 0-1.312-3.634c-.303-.706-.505-1.514-.808-2.22-.1-.404-.303-.707-.404-1.11a50.14 50.14 0 0 0-2.523-5.25c0-.1-.1-.201-.202-.302a.788.788 0 0 0-.404-.404c-.201-.101-.403 0-.807 0-.808.1-1.716.202-2.12.202s-1.918.1-3.129.202l-.303-.101h-1.514l-3.936-.505c-1.413-.202-4.744-1.01-4.744-1.01l-2.423-.807-2.927-1.01-.202.102-4.643-.404-.1.101-2.625-2.019h-.303l-1.615-1.514-.1-.303-1.818-.302-.202.1-1.514-.504-.202-.202-3.431.202-3.13-1.211-10.699.605-.202-.1-2.018.1-.202.202-5.249.404-.101-.101-7.47 4.34-.1.303-.303.303-.202-.101-3.735-.404-.201.101h-6.662l-.101-.1-1.918-.102-.606-.303-6.964 5.45v.102l-2.423 1.918-2.725-1.313-.202.101-1.01-.302s-5.046 1.312-4.945 1.312L97 111.939l-.303-.303-.909.909-1.917.908v.202l-3.735 2.826-5.35 3.836-6.056 4.441-2.725 2.019-.101 1.11-1.11 2.625-.505 2.22-.707 4.542-.404 2.02-.201 2.422-.606 4.946-.303 10.9.303.606.202 3.029s0 .504.202.504l13.323-13.727 4.34-1.716 3.634-.202 2.221-2.523.202-.505.303.1 5.955-.706.303-.202h2.22l.303.101.707-.908 2.725-1.615 2.826-2.019 8.075.101.101.202 3.13.303 2.422-.505 4.542-4.643h.1l3.635-3.432 5.35-.706.201-.101.202.202 2.826 1.312.202-.202 2.524-.303.1-.101 2.322-.404.202-.1 2.523 2.119.101-.202 5.25-.1.403-.304 4.138.202.202.101.606-.202.1-.202 1.717-.706h.202l1.917-.909.202-.201 2.019-.808.1-.202 5.653-2.22v-.101l1.01-.303.202-.202.302.303 1.615.807h.505l1.817 1.01.1-.202.607-.303h.1l.909-.404v-.1l1.312-.304 3.432.909.707-.202.605.404 2.524.403 2.422.909 1.413-.101.505.303.404-.202s4.845-.606 7.267-.808c1.615-.1 3.13-.302 4.744-.403.908-.101 1.817-.202 2.624-.303.606.505.808.303.606-.303"/><path class="cls-2" d="M212.17 151.305c0-.303-.101-.505-.101-.909a25.517 25.517 0 0 1-.101-2.826c0-.303-.101-.606-.101-.908-.101-1.11-.101-2.322-.202-3.432-.1-1.514-.404-2.927-.606-4.34l-.605-3.331c-.202-1.212-.404-2.221-.707-3.432s-.504-1.313-1.716-1.212a.37.37 0 0 0-.303.101c-.403.101-1.11.101-1.514.202-2.321.303-4.542.404-6.964.707l-6.763 2.321-9.79-.302-1.111-.303v.202l-2.927 2.12h-.404l-2.322 2.119-.1.303-5.855.807-5.35 4.139h-.605l-2.827 1.716-1.11.1-1.11.909-.303-.202-5.45-.404-.909 1.11v.203l-4.744 5.147-.101.303h-.202l-6.056 6.864h-1.615l-.101.202-4.946.807h-.404l-.1.202-8.177 4.542-3.633-.403-.808.302-3.634-.201-3.633 3.936-2.12.404-1.211-.101-1.312.505-.808-.101v.201l-4.441 3.432-.404.101-6.965 5.45.101.304-4.34 10.497.202.404-7.167.606-2.321 2.018-.202.808 3.23 4.441 2.322 3.634 2.018 2.624 3.331 3.634a.498.498 0 0 0 .101.303c.101 0 .404 0 .404.1l2.019.707 2.422.808a.099.099 0 0 0 .101.1h.202l4.037 1.616h.303l.202.303h.404l.908.605 1.716-.908h.101l.808-.505 6.157 1.514 4.542-2.321 9.993-1.01 4.138-6.56 1.817-1.818h.202l1.413-1.312v-.202l2.524-2.321 1.21-1.211.304-.202 1.413-1.413 1.11-1.11.303-.102-.303-1.01 1.11-4.238 2.22-.707.102-.101.706-.101v-.404l3.029-4.845.302-.1 1.212-2.423 2.018-1.11.303-.303.404.1 1.211-.706h.101l2.22-1.01.203-.302 7.368-3.331h.404l.1-.404.304-.202.706-2.523 2.322-1.01 2.725-.302 2.422-1.716 3.432.1.303.304.202-.202 4.845-2.12v-.606l1.211-2.22 2.423-.606.1-.202 3.23-.706 1.212-1.514h.202a5.77 5.77 0 0 1 .807-.707l2.22.303.102.101 1.211.202.808.1s3.33-1.513 4.643-2.119c.605-.202 1.11-.404 1.716-.606.807-.302 1.514-.504 2.321-.807.404-.101.808-.202 1.11-.303l1.514-.303 1.817-.302 1.11-.101a5.691 5.691 0 0 1 .707-.101.961.961 0 0 0 .707-.202c.202-.202.202-.404.303-.606a3.11 3.11 0 0 1-.202-1.11"/><path class="cls-2" d="M212.069 157.765a1.357 1.357 0 0 0-.202-.909 1.11 1.11 0 0 0-.606-.303c-.202 0-1.009.101-1.009.101l-1.413.202a.91.91 0 0 0-.505.101c-.807.202-1.716.404-2.523.606a21.565 21.565 0 0 0-2.726.908c-.908.404-2.018.707-2.927 1.212-.303.201-3.533 1.715-4.946 2.422l-1.816 1.918-.101.404-.202-.101-1.11.1-.102.102-3.734 1.21v.405l-.404.403v.202l-1.716 3.028h-.202v.303a13.084 13.084 0 0 0-.706 1.211l-7.873 5.047h-.202l-1.212 1.01-.807 3.33-.808.707-3.028 11.406.404 1.312-4.542 2.22h-.707l-.908 3.937-.101.101-1.11 3.634.1.202-.504 3.129-.202.202.101.303-4.34 6.964-.303.101-1.11 1.716v.303l-3.735 5.249-3.937 2.321.202.303-.202 1.615.303.606-.605.202-2.827 1.716-.303-.101-4.239 2.523-.505.807a8.834 8.834 0 0 0 1.615.202l2.726.202 1.817.101h6.359l5.854-.706 3.533-.606 2.624-.707 2.826-.807 3.634-1.413.303-.202 1.01-.606a38.815 38.815 0 0 0 4.239-2.523c2.22-1.716 4.542-3.432 6.662-5.35.706-.706 1.413-1.312 2.12-2.019.706-.605 1.311-1.312 2.018-2.018.1-.101.303-.202.303-.404a4.163 4.163 0 0 1 1.01-1.312 6.53 6.53 0 0 0 .807-.909 9.671 9.671 0 0 1 1.716-1.817 17.547 17.547 0 0 0 1.312-1.514c.706-1.009 1.312-2.018 2.019-3.028.908-1.312 1.816-2.624 2.624-4.037a176.539 176.539 0 0 1 2.422-4.441 45.958 45.958 0 0 0 2.02-3.836c.908-2.22 1.917-4.34 2.724-6.662a55.282 55.282 0 0 0 2.221-7.267c.505-1.817.808-3.735 1.413-5.45.101-.203.101-.506.202-.707.303-1.514.505-3.029.707-4.442l.605-4.239c.101-1.01.303-1.918.404-2.927.1-1.312.202-2.725.202-4.038v-.403a2.053 2.053 0 0 1-.101-.505"/></svg>