<svg xmlns="http://www.w3.org/2000/svg" height="121.68" width="280.8"><path d="m237 107.16 29.16-66.72H131.04l-5.64 12.84-3.96-12.84h-27S76.56 81.12 71.4 92.88a36.98 36.98 0 0 0 .84-7.32v-.96c1.92-4.56 17.76-40.8 21-48.12h74.16L183.36 0H95.28L66.36 66.24A36.021 36.021 0 1 0 36 121.68a36.075 36.075 0 0 0 29.4-15.12l-6.12 14.16h14.76l8.76-19.92h16.56l6 19.92H261l5.88-13.56ZM88.56 87.12l3.96-9 2.64 9Zm51.72 15.6-14.76-48.84h36.24c-10.8 24.36-17.4 39.48-21.48 48.84Zm55.92 4.44h-17.04L202.32 54h17.16C207 82.44 200.04 98.28 196.2 107.16Z" fill="#fff"/><path d="M2.16 87.24a34.073 34.073 0 0 0 10.2 22.68A31.72 31.72 0 0 0 23.4 87.24Z" fill="#0d2240"/><path d="M26.4 87.24a35.393 35.393 0 0 1-11.76 24.72 34.185 34.185 0 0 0 19.92 7.56V87.24Z" fill="#ffa400"/><path d="M2.16 84.24H23.4A32.071 32.071 0 0 0 12.36 61.2a34.157 34.157 0 0 0-10.2 23.04Z" fill="#0d2240"/><path d="M14.64 59.28A34.775 34.775 0 0 1 26.4 84.24h8.04V51.6a35.092 35.092 0 0 0-19.8 7.68Z" fill="#ffa400"/><path d="M69.84 87.24H48.6a31.719 31.719 0 0 0 11.04 22.68 34.636 34.636 0 0 0 10.2-22.68Z" fill="#0d2240"/><path d="M45.6 87.24h-8.16v32.16a32.66 32.66 0 0 0 19.92-7.56 34.414 34.414 0 0 1-11.76-24.6Zm11.76-27.96a35.126 35.126 0 0 0-19.92-7.68v32.64h8.16a34.775 34.775 0 0 1 11.76-24.96Z" fill="#2b5134"/><path d="m96.6 2.16-30 68.88a38.005 38.005 0 0 0-7.08-9.84 32.292 32.292 0 0 0-11.04 23.04h21.36l21.72-49.92h63.6L169.2 2.16Z" fill="#0d2240"/><path fill="#2b5134" d="m165.84 34.32 14.04-32.16h-6l-14.04 32.16h6z"/><path d="M106.92 118.56h25.32l-22.8-75.96H95.76L62.4 118.56h10.08s3.72-8.52 8.76-19.92h19.68Zm-21.6-29.28c2.52-5.64 5.04-11.64 7.56-17.28l5.28 17.28Z" fill="#0d2240"/><path fill="#2b5134" d="m134.52 110.88 3.48-8.04-18.24-60.24h-6l20.76 68.28z"/><path d="m222.96 109.2 29.28-66.6h-42.6l-4.08 9.24h17.28c-8.88 20.16-29.28 66.6-29.28 66.6h66l4.08-9.24Z" fill="#0d2240"/><path fill="#2b5134" d="m177.72 105 27.24-62.4h-6L171.72 105h6zm57.84 0 27.24-62.4h-6L229.56 105h6z"/><path d="M194.4 42.6h-62.04l-4.08 9.24H165c-8.88 20.16-29.28 66.6-29.28 66.6h53.52l3.96-9.24h-27.96Zm-3.24-13.2h-7.8l12-27.24h-5.88L177 30.24c-.96 2.16 0 3.96 2.28 3.96h11.52a7.079 7.079 0 0 0 5.76-3.96l12.48-28.08h-5.76Zm43.32-27.24H214.2l-2.16 4.92h7.92l-12 27.24h5.76l12-27.24h6.6l2.16-4.92zm8.16 8.04-3.48 14.04h-5.52Zm6.48-8.04h-5.76l-21.72 32.16h5.4l3.24-4.92h7.68l-1.08 4.92h5.76Zm25.92 0-6 13.56h-7.8l6-13.56h-5.88L247.2 34.32h5.76l6-13.68h7.92l-6 13.68h5.76L280.8 2.16h-5.76z" fill="#0d2240"/></svg>