<svg xmlns="http://www.w3.org/2000/svg" height="157.91" width="183.88" viewBox="0 0 183.877 157.912"><path d="M147.883.856 99.379.891.863 156.761h77.734l-11.141-23.424 24.008-40.305c.627 2.486 1.883 7.409 2.072 8.16-1.228 2.13-19.795 34.255-19.795 34.255l28.65-23.68c.456.558 20.293 24.61 20.293 24.61s-9.328-31.144-9.955-33.262c.474-.76 3.587-5.733 5.563-8.894l8.488 39.207-16.965 23.336h72.924L147.879.864zm-40.26 65.061h4.527l5.567 25.688h-25.4l15.307-25.688z" fill="#e3d4ad"/><path d="M104.553 3.813 106.635 7h36.119l31.992 143.61h-51.973l11.609-15.701-16.666-74.553-13.779-.004-44.465 73.135 8.299 17.064H16.279l-5.057 3.133h62.102l-9.828-20.262 42.17-70.322h9.184l15.922 71.029-14.305 19.576 62.307-.016-33.32-149.85-40.89-.026zm-3.34.362-94.74 149.45 46.437-29.23 5.381-3.41-9.576-22.775 30.504-19.119-10.485-18.795 29.504-14.242-9.517-16.768 22.712-10.095-8.3-12.196-1.92-2.825z"/><path d="m106.633 7 8.9 13.667-22.44 10.096 9.665 16.736L73.27 61.608l9.868 18.29-30.512 19.228 9.398 23.06-45.748 28.366h51.492l-8.297-17.064 44.465-73.135 13.78.004 16.667 74.553-11.61 15.7h51.972L142.753 7h-36.119zM95.176 94.77s1.434 5.642 1.76 6.9c-.872 1.505-11.63 20.111-11.63 20.111s15.335-12.676 17.509-14.469c1.503 1.819 12.336 14.955 12.336 14.955s-5.359-17.909-5.871-19.615c.793-1.272 4.931-7.883 4.931-7.883H95.176z" fill="#a71930"/></svg>