<svg xmlns="http://www.w3.org/2000/svg" height="189.74" width="200" viewBox="0 0 200 189.737"><path fill="#df4601" d="M85.21 187.453c-22.06 0-42.711-7.978-56.635-22.059-12.516-12.516-19.087-29.413-19.244-48.812l-6.258 1.095-.312-1.095c-.157-.783-4.538-19.87 16.427-36.766C13.556 66.674 8.236 42.58 30.139 23.963c2.347-2.347 3.912-3.285 5.007-4.224.625-.47 1.095-.782 1.564-1.095 1.252-3.442 3.755-6.571 5.007-7.823C48.6 3.625 57.362 2.53 57.674 2.373c1.252-.156 2.504-.313 3.755-.313 6.728 0 10.639 2.816 12.36 4.068.156.156.156.156.313.156.782.157 1.72.313 2.972.313s2.973.157 5.163.313c12.36 1.565 22.842 7.353 31.29 16.897 2.816-.313 14.08-1.878 19.713-3.13 2.816-.625 5.788-1.25 8.605-1.877 13.767-2.972 26.753-5.788 36.14-5.788 1.408 0 2.66 0 3.754.156h.157c6.727 1.252 11.89 4.85 14.08 10.17 4.694 11.264 1.721 20.025-10.169 29.568-14.237 11.421-34.575 17.366-46.153 20.026.157.939.47 2.66 1.252 5.476 2.816-.313 5.789-.313 8.605-.313 23.154 0 38.017 8.448 38.956 16.74.156 2.816-1.878 6.102-6.728 7.51-20.808 5.475-25.032 15.645-30.507 39.425-3.286 14.08-11.578 25.814-24.407 33.95-11.42 7.666-26.283 11.733-41.615 11.733"/><path fill="#fff" d="M61.43 3.312c6.883 0 10.794 3.285 12.202 4.224 1.878.626 3.912.156 8.449.782 7.822 1.095 20.182 4.38 30.977 17.053 0 0 13.924-1.877 20.495-3.129 16.583-3.442 33.324-7.51 44.432-7.51 1.251 0 2.503 0 3.598.157 7.04 1.252 11.42 5.163 13.142 9.544 4.85 11.577.938 19.556-9.7 28.16-13.298 10.64-32.698 16.897-46.622 20.183 0 0 .156 2.19 1.72 7.666a99.169 99.169 0 0 1 9.388-.47c22.528 0 36.922 8.136 37.704 15.645.157 2.19-1.564 5.007-5.945 6.258-21.434 5.633-25.97 16.428-31.446 40.364-6.728 29.413-35.202 44.432-64.77 44.432-36.767 0-74.94-23.154-74.784-71.028l-6.57 1.095s-4.694-19.4 16.74-36.14c-3.912-8.761-13.612-35.045 10.169-55.227 3.754-3.598 5.162-4.067 6.883-5.475 1.096-3.286 3.442-6.415 4.85-7.667 6.728-6.883 15.176-7.978 15.176-7.978 1.565-.783 2.816-.94 3.911-.94m0-2.346c-1.251 0-2.66.157-3.911.313-.782.156-9.543 1.408-16.584 8.761-1.251 1.252-3.754 4.38-5.163 7.98-.312.312-.782.625-1.251.938-1.252.782-2.66 1.877-5.163 4.224-10.795 9.074-16.27 20.338-16.27 33.637 0 7.196 1.564 14.862 4.693 22.685C7.14 88.264 3.23 97.495 1.822 104.066c-1.565 7.353-.313 12.672-.313 12.829l.47 2.19 2.19-.313 3.91-.626c.47 19.087 7.198 35.67 19.714 48.187 14.236 14.237 35.2 22.372 57.417 22.372 15.488 0 30.507-4.068 42.241-11.577 12.986-8.292 21.59-20.339 24.876-34.732 5.475-23.78 9.387-33.324 29.569-38.487 5.632-1.564 7.979-5.476 7.666-8.761-.47-4.694-5.007-9.23-12.203-12.516-5.163-2.347-14.394-5.163-28.005-5.163-2.503 0-5.006.157-7.666.313-.313-1.408-.626-2.347-.782-3.285 11.89-2.817 31.446-8.918 45.37-20.026 12.36-9.856 15.489-19.087 10.483-30.977-2.347-5.632-7.823-9.7-15.02-10.952h-.313c-1.251-.156-2.503-.156-3.91-.156-9.544 0-22.53 2.816-36.297 5.789-2.816.625-5.789 1.251-8.605 1.877-5.32 1.095-15.489 2.503-18.93 2.973-8.136-9.857-18.774-15.489-31.29-17.21-2.19-.313-3.912-.313-5.32-.313-1.095 0-1.877 0-2.503-.156 0 0-.156 0-.156-.157C72.694 3.938 68.47.965 61.429.965"/><path d="M159.519 95.304c-23.155 12.83-21.59 29.413-47.561 36.297-29.413 7.666-53.193-12.047-35.983-15.958 4.067-.782 4.537-3.286.156-2.503-10.326.625-23.624 5.945-11.108 26.596 0 0 1.721.782 2.503 0 0 0-4.693-10.482-1.095-13.455 16.584 15.802 53.506 18.618 76.66-12.203 7.823-10.325 16.897-16.27 25.658-19.869-14.08-3.442-30.038-3.755-38.8-1.095-1.094-13.924-1.877-17.835-4.536-23.78-1.252-2.66-1.408-4.224 4.693-5.945 3.755-1.096 19.4-4.694 32.855-10.795 9.543-4.381 16.114-9.231 17.835-10.952 1.408-1.252 6.415-6.884 4.537-11.42s-6.414-4.85-11.89-4.381c-4.694.469-6.884.625-36.14 7.04-15.332 3.129-24.093 3.285-29.57 5.006 0 0-7.196-17.522-31.133-18.304-3.129 0-8.135-.626-10.638-3.13-2.66-2.033-7.353-1.72-11.265.47-2.972 1.564-5.475 4.068-5.945 6.414-1.095 4.068-2.503 3.755-8.135 8.449-7.04 5.788-23.155 18.617-5.32 51.315-16.27 9.387-18.617 20.339-18.617 20.339l7.51-.47c-1.096 2.034-2.034 8.762-2.034 11.734-.157 17.053 5.006 31.134 15.488 41.772 11.421 11.578 28.787 18.305 47.248 18.305 12.986 0 25.502-3.442 35.201-9.544 4.381-2.816 8.292-6.258 11.265-10.169-37.235 23.155-71.341 3.442-78.225-16.27-6.727-19.244 5.32-34.107 20.651-30.508 21.434 5.163 32.698 2.19 35.984-8.136 2.66.939 8.761.783 12.516-1.095 5.632-2.503 18.617-7.197 37.235-3.755"/><path fill="#fff" d="M111.108 66.475a6.021 6.021 0 0 0-1.96.2c-5.163 1.407-7.51 9.387-5.476 17.834 2.347 8.449 8.292 14.236 13.454 12.828s7.51-9.388 5.32-17.835c-1.916-7.393-6.71-12.746-11.336-13.027zm-53.277 4.893c-12.673 5.945-24.876 7.351-24.876 7.351l2.191 4.538 22.686-11.89zm31.39 3.752a6.18 6.18 0 0 0-1.977.315c-5.006 1.564-6.886 9.7-4.226 17.991s9.074 13.77 14.08 12.049c5.007-1.565 6.886-9.7 4.227-17.992-2.328-7.255-7.411-12.355-12.104-12.363z"/><path d="M106.007 78.924a3.116 3.116 0 0 0-.927.266c-2.503 1.252-2.973 5.162-1.252 8.76 1.72 3.755 5.164 5.633 7.51 4.538 2.504-1.251 2.971-5.162 1.25-8.76-1.506-3.149-4.327-5.099-6.582-4.804zm-19.98 7.471a3.753 3.753 0 0 0-2.066.462c-2.503 1.408-2.973 5.788-.782 9.542s5.942 5.79 8.445 4.382 2.973-5.79.783-9.546c-1.643-2.933-4.166-4.723-6.38-4.84z"/><path fill="#df4601" d="M58.989 20.072c-2.298.09-4.707 1.536-6.008 6.396l11.734-4.382s-2.772-2.128-5.726-2.014zm23.247 5.143c-1.565.156-2.97.783-3.753 2.035-.938 1.252-1.252 3.129-.626 4.693-1.408 3.442-1.254 7.508-.315 10.637 1.095 3.286 2.662 5.634 4.853 6.729 1.251.782 2.816.78 3.91.467 1.565-.47 2.66-1.564 3.441-3.285 1.721-3.598 1.408-8.917.156-12.516.626-.469 1.408-1.563 1.72-2.502l-1.093-.312c-.313.626-.625 1.251-1.094 1.72-1.878-5.162-4.54-7.823-7.2-7.666zm.158 2.347c1.878 0 3.596 3.6 4.535 6.728-1.408.626-2.501.625-3.596.156-1.252-.47-2.348-1.566-2.974-2.817-.469-1.096-.47-2.346.156-3.285.313-.47 1.097-.782 1.88-.782zm96.829 4.61c-2.581-.22-30.189 19.014-30.189 19.014 18.299-6.102 33.005-15.332 30.345-18.93-.029-.05-.088-.076-.17-.083zm-11.877.554s-29.882 6.57-48.656 8.916c-20.182 2.347-38.174 16.27-38.174 16.27-7.666 5.007.158 5.006 12.048 6.57 18.305.47 29.88-3.44 45.682-12.827 14.55-10.17 29.1-18.93 29.1-18.93zm-73.843.156c-.157 0-.314.313-.47.626-.314.626-.47 1.563-.157 2.032 0 .156.313.156.783 0a.334.334 0 0 0 .311-.312c.313-.313.316-.94.16-1.253-.157-.156-.314-.155-.627-.155 0-.313 0-.47.156-.939h-.156zm2.814 1.564-1.261.937c-.156.47-.315 1.409-.315 2.191l-.156 2.503c-.157 1.565-.468 2.816-1.25 3.285l-.314 1.408h.155c.94-.47 1.566-1.408 2.035-2.973l.156-1.409.156-1.25v-.314l.16-1.25c0-.313.155-.625.155-.938v-.159l.156.159c.313.47 1.25 1.252 1.72 1.564l.156.156h-.156c-1.564.626-1.877 1.722-1.564 2.191.156.313.47.626.626.782.313.157.783.154 1.253-.158.938-.47 1.562-1.564 1.25-2.659v-.156l-.156-.47c-.157-.47-.313-.78-.783-1.25l-1.096-.943-.315-.312a.859.859 0 0 1-.467-.782v-.156h-.16zm-16.28.937c2.347 1.408 4.536 1.408 7.196 0 .47 1.721.938 4.07.938 5.947 0 1.564-.156 3.597-.938 4.849-.47.782-.938 1.093-1.72 1.25-2.504.469-4.694-3.283-5.476-6.1-.47-1.877-.47-4.068 0-5.946zm17.992 3.13h.155s0 .155.156.155c0 .47 0 .94-.156 1.097-.156.313-.313.467-.626.623s-.626.001-.782-.155c-.313-.157-.313-.47-.156-.783s.626-.625 1.409-.938z"/></svg>