<svg xmlns="http://www.w3.org/2000/svg" xml:space="preserve" height="128" width="126.67" viewBox="0 0 126.667 128"><path fill="#fff" d="M.233 63.434c0-34.803 28.197-63 63-63s63 28.197 63 63c0 34.802-28.197 63.003-63 63.003s-63-28.2-63-63.003z"/><path fill="#0e3386" d="M4.331 63.236c0-32.5 26.402-58.9 58.902-58.9s58.902 26.4 58.902 58.9-26.402 58.895-58.902 58.895c-32.598 0-58.902-26.395-58.902-58.895z"/><path fill="#fff" d="M63.233 106.737c24 0 43.5-19.5 43.5-43.5s-19.5-43.5-43.5-43.5-43.5 19.5-43.5 43.5 19.402 43.5 43.5 43.5z"/><path d="M63.233 25.031c-21.098 0-38.197 17.1-38.197 38.205 0 21.1 17.1 38.195 38.197 38.195 12.5 0 23.5-5.998 30.5-15.195L82.331 75.533c-4.098 6.303-11.098 10.5-19.197 10.5-12.599 0-22.803-10.198-22.803-22.797.099-12.605 10.303-22.803 22.902-22.803 8.303 0 15.5 4.402 19.5 11L93.93 40.531c-7-9.4-18.099-15.5-30.697-15.5zm-6.803 28.1v13.805c0 1.902-2.894 1.902-2.894 0V53.133h-6.902v13.604c0 4.5 1.1 6.6 4.402 6.6h7.098c4 0 5.197-1.205 5.197-6.205v-14h-6.9zm9.4 0v20.205h10.804c3.795 0 5.797-.705 5.797-5.205 0-1.697-.002-3.696-1.897-4.795 1.395-.704 1.897-2 1.897-4.5 0-4.704-1.699-5.705-5.797-5.705H65.83zm24 0c-3 0-4.695 1.205-4.794 4.705-.105 3.5 0 2 0 3.295 0 1.303-.205 4.205 3.795 4.205h5c1.401 0 1.1 1.698 1.1 1.698v1.097c0 1.205-2.395 1.205-2.895.303-.401-.598-.205-1.697-.205-1.697h-6.795c0 1.395-.803 6.697 3.394 6.697 3.606-.098 7.705-.098 7.705-.098 3.697 0 5.598-1 5.598-4.302v-4.5c0-2.401-1.696-3.903-4.098-3.903h-4.902c-1.303 0-1-1.894-1-2.5 0-.894 2.803-1.197 2.803.303v.903h7.295c0-4.705-.9-6.206-5.598-6.206h-6.402zm-16.794 4.705c2.099 0 2.894 0 2.894.795v1.106c0 1-1.697.894-2.894.894v-2.795zm1.262 8.181c1.046-.008 1.232.069 1.533.819.099.197 0 .795 0 1.097 0 1-1.4.903-2.9.903v-2.803c.575 0 1.018-.013 1.367-.016z" fill="#cc3433"/></svg>