<svg xmlns="http://www.w3.org/2000/svg" width="181" height="250" style="enable-background:new 0 0 181 250" xml:space="preserve"><path style="fill:#fff" d="M31.204 25.047c-6.213 6.6-12.199 19.699-13.058 28.58a81.215 81.215 0 0 0-.413 7.943c0 8.902 1.822 15.717 5.791 22.359 4.985 8.312 12.873 15.148 22.815 19.762 9.38 4.351 22.886 10.413 24.498 11.072.553.221 1.269.558 2.033.932-3.097 2.244-4.919 3.561-6.389 4.635-8.359-1.907-18.873-.442-21.316.137-9.931 2.349-19.038 6.826-25.648 12.599-6.734 5.889-11.78 12.651-13.492 18.098-1.91 6.053-1.296 10.355 1.825 12.778 4.59 3.576 10.521-.084 12.459-1.296 3.998-2.528 11.354-7.152 20.621-8.521 8.064-1.201 18.877-.101 23.845 3.145v8.785c-1.196 1.096-2.471 2.26-2.471 2.26-1.253 1.254-1.917 2.965-1.917 4.74 0 .827.142 1.67.442 2.481.843 2.259 2.739 3.213 2.739 3.213 16.033 9.765 16.028 9.765 26.815 16.344-.153.058-.474.068-.595.121-1.422.627-4.719 2.691-4.719 8.454v23.465l13.947 13.326c3.087 3.097 6.089 3.603 8.054 3.471 2.444-.147 4.656-1.338 6.221-3.355l15.037-19.293c4.262 6.594 10.982 16.981 10.982 16.981-.073-.116.158.363.158.363.779 1.675 2.407 5.151 6.21 6.136 1.686.438 4.361.49 7.464-1.765 4.171-3.033 13.868-10.597 15.532-12.262l.306-.311c1.148-1.127 2.897-2.854 2.897-5.693V202.33c0-2.407-1.291-5.452-4.256-6.643-2.16-.869-4.636-.869-7.596 1.538-1.312 1.075-3.565 2.702-6.848 5.184-1.901-3.034-2.912-4.656-4.351-6.948 2.818-3.555 9.528-12.009 13.273-16.738.484.384 1.464 1.153 1.464 1.153l.164.11c3.944 2.628 6.952 1.654 8.391.838 3.918-2.213 3.997-7.143 3.929-8.597l.011-18.814-11.856-12.262c-1.717-1.938-4.113-2.934-6.578-2.729-2.519.206-4.847 1.628-6.205 3.804-.638.916-6.273 8-12.125 15.29v-24.619c.727-.727 1.475-1.479 1.475-1.479 1.059-.922 3.466-3.897 3.466-7.374a7.24 7.24 0 0 0-.469-2.56c-.69-1.822-2.323-3.882-5.952-4.735 1.064-4.119 1.491-8.101 1.533-11.172.005-.29.011-.574.011-.864 0-8.217-1.901-15.143-5.631-20.605-4.456-6.495-7.896-8.675-12.657-11.699l-1.232-.779C114.291 68.09 85.2 52.8 83.962 52.146l-11.156-5.525c-7.295-3.692-7.816-6.278-7.816-7.679 0-.09.005-.169.01-.248.164-.848 2.149-3.914 6.315-3.914 4.272 0 7.269.137 12.894 2.022 8.906 2.986 9.159 6.616 9.165 7.959-.026.326-.295 4.087-.295 4.087l18.524 12.657 27.763-35.648-22.543-15.08-2.981 2.992c-1.006 1-1.633 1.569-2.001 1.849l-1.606-.274-4.973-1.886C97.436 10.299 84.336 5 72.412 5c-20.843 0-31.788 9.908-41.208 20.047"/><path style="fill:#c4cdd3" d="M33.993 27.744C28.376 33.717 22.764 45.979 21.99 53.98c-.256 2.681-.396 5.172-.396 7.495 0 8.169 1.644 14.379 5.225 20.358 4.569 7.621 11.851 13.91 21.063 18.188 9.802 4.545 22.923 10.423 24.361 11.014 2.686 1.09 6.758 3.308 7.832 4.456-1.406 1.017-12.146 8.807-12.831 9.302-7.063-2.292-18.172-1.012-21.322-.264-9.312 2.202-17.813 6.363-23.939 11.713-6.118 5.347-10.832 11.583-12.31 16.276-1.338 4.266-1.196 7.068.442 8.338 1.578 1.227 4.135.727 7.812-1.549 3.926-2.48 12.078-7.601 22.227-9.112 7.511-1.122 15.075-.253 20.737 1.153 0 0 4.372 1.349 7.833 3.677v12.988c-.601.538-3.676 3.355-3.676 3.355-.511.506-.722 1.19-.722 1.844 0 .379.074.748.195 1.063.279.759 1.022 1.144 1.022 1.144l38.223 23.297 10.666-8.138c.616 1.037 1.406 2.349 1.839 3.07-.827 1.017-10.619 12.983-11.825 14.453-1.38-1.222-8.543-7.611-8.543-7.611-2.128-1.959-3.787-1.669-4.583-1.322-1.443.633-2.27 2.35-2.27 4.709v21.759l12.768 12.204c2.022 2.018 3.787 2.359 4.919 2.286 1.259-.079 2.412-.711 3.255-1.785 0 0 14.754-18.946 18.604-23.882 1.453 2.244 14.137 21.864 14.137 21.864l.427.854c.637 1.358 1.591 3.402 3.534 3.908 1.228.315 2.581-.059 4.04-1.117 4.15-3.028 13.71-10.513 15.069-11.877l.315-.312c.938-.927 1.681-1.664 1.681-2.797v-22.443c0-1.059-.596-2.391-1.754-2.881-.774-.332-2.038-.405-3.624 1.122.074-.063-7.7 5.81-10.34 7.806-1.021-1.633-7.6-12.119-8.279-13.204.863-1.075 16.444-20.722 17.64-22.223 1.18.933 4.509 3.545 4.509 3.545 1.696 1.127 3.076 1.358 4.182.732 1.976-1.117 1.881-4.478 1.859-4.856v-17.387l-10.829-11.214c-.874-.985-2.002-1.476-3.191-1.375-1.228.1-2.413.837-3.087 1.912-.574.911-8.949 11.377-14.838 18.709-1.532-1.223-3.703-2.102-4.877-2.491v-29.396c.39-.39 2.876-2.913 2.876-2.913.405-.357 2.064-2.275 2.064-4.281 0-.385-.053-.769-.195-1.148-.632-1.669-2.57-2.512-5.762-2.512-.053 0-1.054.089-2.022.184 2.349-5.325 3.033-11.05 3.092-15.106.01-.269.016-.532.016-.801 0-7.39-1.659-13.552-4.936-18.33-3.977-5.805-6.795-7.601-11.478-10.571l-1.248-.795c-5.414-3.45-34.405-18.688-35.637-19.331-.026-.016-11.087-5.494-11.087-5.494-8.717-4.414-10.108-8.238-10.108-11.435 0-.147 0-.29.011-.432.089-2.634 3.861-7.764 10.424-7.764 4.561 0 8.006.158 14.211 2.233 8.064 2.708 11.982 6.626 11.982 11.988-.005.005-.137 1.907-.137 1.907l13.437 9.181 22.738-29.191-16.129-10.787-.621.616c-3.466 3.471-3.604 3.439-7.312 2.702-.969-.195-3.055-1.043-5.704-2.112-7.563-3.055-20.225-8.174-31.375-8.174-19.236 0-29.086 8.88-38.277 18.772m34.121 99.048 14.458-10.497v-.537c-.168-2.439-7.089-5.646-9.528-6.7-1.375-.59-14.695-6.526-24.266-10.971-8.822-4.093-15.789-10.097-20.134-17.35-3.171-5.304-5.92-12.183-4.532-26.557.722-7.479 6.173-19.389 11.435-24.982C44.417 19.659 53.887 11.1 72.27 11.1c10.734 0 23.159 5.02 30.586 8.017 2.85 1.159 4.92 1.991 6.089 2.223 4.071.816 5.151.669 8.586-2.676 1.19.795 11.224 7.511 12.799 8.559-1.274 1.638-18.988 24.376-20.104 25.82-1.375-.938-9.924-6.779-10.782-7.369l.053-.769c0-6.374-4.52-11.087-13.431-14.074-6.494-2.18-10.266-2.349-14.885-2.349-8.011 0-12.431 6.395-12.546 9.813-.211 5.525 3.276 9.797 11.267 13.847.016 0 11.077 5.483 11.077 5.483.279.147 30.123 15.822 35.453 19.23l1.259.8c4.594 2.923 7.132 4.524 10.872 9.976 3.123 4.577 4.661 10.598 4.54 17.893-.063 4.261-.742 10.466-3.565 15.87l-.911 1.733 5.63-.527c2.022.011 3.397.421 3.666 1.143.354.938-.832 2.691-1.274 3.081l-3.677 3.745.074.342v31.387l.764.232c1.701.495 4.698 1.706 5.52 2.839l.816 1.122.869-1.08c1.518-1.88 14.812-18.403 15.67-19.763.326-.516.9-.874 1.465-.927.516-.037.995.185 1.427.669 0 0 8.807 9.128 10.298 10.661v16.581c0 .079.005.163.005.253 0 1.037-.253 2.396-.785 2.696-.337.189-1.048-.037-1.886-.601 0-.005-6.114-4.804-6.114-4.804l-19.89 25.066 10.309 16.439 12.288-9.286c.764-.732 1.228-.864 1.422-.785.253.11.458.601.458.927v22.443c0 .248-.489.728-1.048 1.285l-.332.327c-1.19 1.19-10.466 8.485-14.821 11.65-.917.664-1.675.928-2.26.78-.964-.253-1.639-1.696-2.128-2.75l-.569-1.105-15.759-24.382-20.453 26.251c-.326.411-.879.917-1.706.964-.99.063-2.123-.516-3.276-1.664 0 0-11.514-11.009-12.151-11.608v-20.854c0-1.712.521-2.549 1-2.765.537-.232 1.401.126 2.302.953.016.016 10.208 9.102 10.208 9.102l14.185-17.329-3.84-6.395s-10.355 7.906-11.388 8.702c-1.206-.732-37.055-22.581-37.112-22.617a.778.778 0 0 1-.074-.316c0-.143.037-.279.095-.343l4.288-3.908.016-.479v-14.648l-.495-.311c-2.892-1.854-5.23-3.213-9.402-4.267-7.037-1.78-15.333-2.091-21.111-1.169-10.577 1.686-19.006 6.862-23.046 9.417-3.89 2.407-5.104 1.886-5.386 1.67-.587-.464-.869-2.313.295-6.021 1.346-4.276 5.928-10.286 11.669-15.312 5.875-5.13 14.05-9.123 23.036-11.245 3.529-.837 14.505-1.928 20.71.332l.537.189.448-.322z"/><path style="fill:#231f20" d="M168.279 238.003h-1.602v4.367h-1.09v-4.367h-1.591v-.948h4.282m7.264 5.315h-1.079v-4.225h-.026l-1.533 4.225h-1.053l-1.485-4.225h-.026v4.225h-1.085v-5.315h1.88l1.238 3.472h.026l1.274-3.472h1.869v5.315zm-7.399-69.406v-15.943l-9.972-8.965-27.615 34.284-3.877-6.188c3.36-2.513 7.701-5.736 8.186-5.979.79-.4 2.781-1.591 3.781-1.591.901 0-1.4-3.987-7.974-3.987v-35.279l3.787-4.187s-4.609.727-6.784.063c-.459-.142-1.228-.511-2.176-1a29.746 29.746 0 0 0 3.182-6.826c4.52-14.295 1.559-27.489-9.17-35.622-7.527-5.704-38.461-21.358-38.461-21.358s-18.714-9.17-20.731-11.188c-1.443-1.443-4.377-3.687-4.377-10.761 0-4.219 4.693-8.87 6.715-9.823 3.245-1.538 4.303-2.265 10.861-2.36 3.713-.052 7.164.838 7.627.89 4.082.432 13.747 3.619 18.74 10.366 1.901 1.907 2.281 7.5 2.281 7.5l7.779 4.983L126.89 27.87l-9.176-6.178c-2.591 2.792-7.568 2.986-9.56 1.996-1.996-1-19.104-7.232-21.532-8.006-4.583-1.464-14.548-2.56-19.926-1.765-5.383.801-14.216 2.434-21.132 9.771-8.064 8.564-8.169 15.443-8.169 19.13 0 5.783 1.496 13.426 7.969 19.899 9.339 9.333 23.518 15.18 26.71 16.944 5.672 3.134 23.528 12.478 26.104 13.979 10.971 6.379 15.153 13.158 13.963 21.727-.063.421-.195.816-.29 1.217-4.804-2.823-11.556-7.079-14.269-9.786 0 0-1.638 1.743-2.691 2.786l-7.953 5.957c.938-3.866 1.048-10.476.885-11.135-.206-.8-.8-7.179-6.378-11.161-3.787-2.707-12.257-7.774-19.531-11.361-3.124-1.543-13.284-7.685-18.14-11.73 0 0-8.367-7.8-9.663-12.588-2.497-5.483-2.597-18.435-1.298-19.731 0 0-3.187 3.587-5.38 10.766-1.069 3.503-1.793 8.069-1.793 11.161 0 5.178.893 14.248 6.582 21.922 2.501 3.382 6.428 7.227 10.579 9.976 5.083 3.35 10.197 5.32 10.54 5.567 1.396.996 14.553 6.547 15.749 7.148 1.19.6 7.221 3.402 8.501 4.087 4.545 2.428 6.884 3.987 8.317 7.854L72.27 126.529s.6 1.09.6 2.786v1.29c-1.838-.605-3.708-1.138-5.578-1.459-8.965-1.527-14.421-1.433-21.521.321-7.875 1.944-16.144 5.12-23.916 12.895-8.777 8.774-8.669 14.658-8.669 14.658l8.765-5.172c7.334-4.125 16.984-6.584 23.821-6.584 16.291 0 24.745 4.703 27.099 7.321v15.796c0 3.14-.942 3.534-1.643 4.135-.269.231-.495.247-1.443.896 0 0 1.201.447 1.496.748.795.595 31.824 19.336 31.824 19.336l12.014-8.802 5.932 9.449-16.486 20.474-11.361-10.366v19.336l12.957 11.962 22.87-28.717 18.777 29.907 15.153-12.151v-19.136l-12.156 9.165-12.32-19.646 22.28-27.984M90.71 129.916l7.078-5.183c1.923 1.601 4.188 3.055 6.442 4.351-.147.131-.269.231-.269.231s-8.159 6.984-13.252 7.7v-7.099zm12.394 45.439-12.394-7.568v-18.778c5.193-.921 17.86-6.957 24.413-13.515.084 1.237.058 13.784.037 22.285l-7.611-12.12-11.588 8.238v14.748l6.41-4.251 4.804 7.653-4.071 3.308z"/></svg>