<svg xmlns="http://www.w3.org/2000/svg" height="120" width="176" xml:space="preserve"><path style="fill:#c6011f;fill-opacity:1;fill-rule:nonzero;stroke:none" d="M740.23 0c366.76 0 576.76 239.262 576.76 456.762C1316.99 716.988 1026.76 900 716.25 900c-248.98 0-421.48-146.988-516.02-258.75C71.25 487.5 0 468.012 0 468.012 99.77 380.23 146.988 336.02 193.52 285.738 323.98 144.77 431.988 0 740.23 0" transform="matrix(.13333 0 0 -.13333 0 120)"/><path style="fill:#000;fill-opacity:1;fill-rule:nonzero;stroke:none" d="M733.52 61.48c-266.25 0-371.25 114.032-494.258 245.282C188.98 360.738 156.762 408.75 75 469.488l16.48-38.976c78.75-64.492 111.02-111.024 162.04-165C377.27 135 480 32.269 746.25 32.269c233.238 0 413.98 115.461 498.75 257.219l-12.73 30c-84.77-142.5-265.508-258.007-498.75-258.007" transform="matrix(.13333 0 0 -.13333 0 120)"/><path style="fill:#000;fill-opacity:1;fill-rule:nonzero;stroke:none" d="M740.23 728.238c-260.23 0-362.218-172.5-362.218-255.738 0-48.012 14.258-90 37.5-126.02C399.77 375.738 396.02 420 396.02 448.52c0 83.242 98.242 249.718 353.242 249.718 153.008 0 268.468-70.508 307.498-131.988h192.73c-3.75 6.762-11.99 30-11.99 30h-184.49c-38.24 61.48-159.772 131.988-312.78 131.988" transform="matrix(.13333 0 0 -.13333 0 120)"/><path style="fill:#fff;fill-opacity:1;fill-rule:nonzero;stroke:none" d="M239.262 306.762C362.27 175.512 467.27 61.481 733.52 61.481c233.242 0 413.98 115.507 498.75 257.269H1050c-85.512-64.488-189.77-116.988-322.5-116.988-122.27 0-250.512 50.968-311.988 144.718-24.032 36.02-37.5 78.008-37.5 126.02 0 83.238 101.988 255.738 363.008 255.738 152.96 0 274.49-70.508 312.73-131.988h183.75c-85.51 168.75-306.02 270-526.48 270-216.758 0-381.758-125.23-477.04-237.73C108.012 480 75 469.488 75 469.488c81.762-60.738 113.98-108.75 164.262-162.726" transform="matrix(.13333 0 0 -.13333 0 120)"/><path style="fill:#000;fill-opacity:1;fill-rule:nonzero;stroke:none" d="M848.98 489.77h-41.25v19.492h-60.742v-39.774h20.282v19.492h39.718l21.024-19.492h41.25v54.032l-20.282 20.23zM678.75 361.48l19.488-20.23h171.024v53.238L848.98 414.77v-53.29z" transform="matrix(.13333 0 0 -.13333 0 120)"/><path style="fill:#000;fill-opacity:1;fill-rule:nonzero;stroke:none" d="M746.988 435v-39.77h20.282v19.54h50.23v34.492l-20.23 20.226V435Zm-68.238 74.262 19.488-20.282h7.5v20.282zm-233.98 0L465 488.98h6.762v20.282zm0-147.782L465 341.25h95.23V375L540 395.23v-33.75zm146.25 82.5 21.71-48.75h11.25l-12.73 28.52 30.738 25.512v39.718l-20.226 20.282v-39.774zM513.012 435v-39.77h20.226v20.282h26.992L551.25 435Zm122.218-73.52h-51.71l19.492-20.23h52.5V375l-20.282 20.23zm-54.718 127.5v11.25L570 509.262h-56.988V468.75h20.226v20.23z" transform="matrix(.13333 0 0 -.13333 0 120)"/><path style="fill:#fff;fill-opacity:1;fill-rule:nonzero;stroke:none" d="M746.988 509.262h60.742V489.77h41.25v53.98H678.75v-34.488h26.988V395.23H678.75v-33.75h170.23v53.29h-41.25v-19.54h-60.742V435h50.282v34.488h-50.282zM635.23 395.23h-22.5l-20.968 49.54 30 24.718v39.774l-41.25 34.488H444.77v-34.488h26.992V395.23H444.77v-33.75H540v33.75h-27.73V435h38.98l8.98-20.23 23.29-54.032h51.71zm-101.992 73.52h-20.226v39.77H570l10.512-9.032V476.25l-9.774-8.238h-37.5z" transform="matrix(.13333 0 0 -.13333 0 120)"/><path style="fill:#000;fill-opacity:1;fill-rule:nonzero;stroke:none" d="m892.5 509.262 19.488-20.282h7.5v20.282zm128.98-20.282v11.25l-10.46 9.032H960V395.23h20.23v93.75z" transform="matrix(.13333 0 0 -.13333 0 120)"/><path style="fill:#000;fill-opacity:1;fill-rule:nonzero;stroke:none" d="m1061.99 395.23-40.51-33.75H892.5l19.488-20.23h116.252l54.03 44.262V488.98l-20.28 20.282zm135 39.77h-51.76l-40.46 34.488 64.49-54.718h38.24v11.25zm71.25-20.23L1248.01 435v-38.98l-40.51-35.282h-51.76l-10.51 9.774v-9.774h-40.46l19.49-20.226h41.25v9.718l10.51-8.98h39.72l52.5 43.52zm-60.74 75v10.46l-10.51 9.032h-40.51l-10.46-9.032v-22.5l10.46-8.242h9.77V480l10.51 8.98h30l20.97-19.492h40.51v54.032l-20.23 20.23v-53.98zm-52.5-94.54h11.25l-21.02 19.54v-11.25z" transform="matrix(.13333 0 0 -.13333 0 120)"/><path style="fill:#fff;fill-opacity:1;fill-rule:nonzero;stroke:none" d="M1061.99 395.23v114.032l-41.25 34.488H892.5v-34.488h26.988V395.23H892.5v-33.75h128.98zm-81.76 0H960v114.032h51.02l10.46-9.032v-96.71l-9.72-8.29zm165-24.718 10.51-9.774h51.76l40.51 35.282V435l-41.25 34.488h-50.28l-10.46 8.242v22.5l10.46 9.032h40.51l10.51-9.032v-10.46h40.51v53.98h-40.51v-8.98l-10.51 8.98h-50.97l-41.25-34.488v-39.774L1145.23 435h51.76l10.51-8.98v-22.5l-9.77-8.29H1155l-9.77 8.29v11.25h-40.46v-54.032h40.46z" transform="matrix(.13333 0 0 -.13333 0 120)"/><path style="fill:#000;fill-opacity:1;fill-rule:nonzero;stroke:none" d="M1207.5 120h-12.73V84.77h-9.03V120h-12.73v7.5h35.23V120Zm59.26-36.02h-9.03v34.54L1245 83.98h-8.24l-11.99 34.54V83.98h-9.03v43.52h15l9.77-28.52 10.51 28.52h15V83.98Z" transform="matrix(.13333 0 0 -.13333 0 120)"/></svg>