<svg xmlns="http://www.w3.org/2000/svg" version="1.2" xml:space="preserve" width="343" height="289"><defs><clipPath id="a" clipPathUnits="userSpaceOnUse"><path d="M0 1020h1020V0H0Z"/></clipPath></defs><g clip-path="url(#a)" transform="matrix(.40366 0 0 -.4033 -34.367 350.183)"><path style="fill:#00385d;fill-opacity:1;fill-rule:nonzero;stroke:none" d="m0 0 79.817-40.796L125-21.722c26.32-8.918 54.523-13.753 83.856-13.753 144.248 0 261.182 116.935 261.182 261.182 0 75.13-31.723 142.852-82.504 190.501l2.687 59.151s0 26.606-19.512 31.927l-471.812 168.505-56.759-10.643s-1.774-39.022 26.606-69.175l-188.015 67.401-60.307-10.642s-5.321-63.855 58.533-101.103c0 0-8.869-54.985 51.438-90.46 0 0-7.095-51.438 42.57-79.818 0 0-8.869-40.795 49.664-79.818l72.723-214.621 78.044-39.021 39.022 12.416Z" transform="translate(464.824 192.503)"/><path style="fill:#e50022;fill-opacity:1;fill-rule:nonzero;stroke:none" d="m0 0-15.963-92.233 58.533-28.38 58.533 258.965-99.329 40.794-10.643-37.248 33.702-30.153-8.87-47.891S12.417 51.438-1.773 49.665l-67.402-14.19-53.212 150.767 99.329 147.219 145.445-56.759 1.775 51.438s3.546 14.19-14.191 21.285l-156.088 56.759-148.993-207.526 69.175-200.431 65.628-33.702Z" transform="translate(498.525 291.831)"/><path style="fill:#fff;fill-opacity:1;fill-rule:nonzero;stroke:none" d="m0 0-31.927-8.868-95.782 40.795 28.38 8.869z" transform="translate(643.084 450.58)"/><path style="fill:#fff;fill-opacity:1;fill-rule:nonzero;stroke:none" d="m0 0-39.022-12.416L8.869-140.125l35.474 8.869z" transform="translate(432.01 484.281)"/><path style="fill:#fff;fill-opacity:1;fill-rule:nonzero;stroke:none" d="m0 0-28.38-8.869-308.629 111.745 31.927 7.095z" transform="translate(671.464 746.793)"/><path style="fill:#fff;fill-opacity:1;fill-rule:nonzero;stroke:none" d="m0 0-28.379-7.095L104.65-56.759s7.095 0 14.19-10.642l27.493 9.755s0 7.095-21.285 12.416z" transform="translate(692.748 739.698)"/><path style="fill:#fff;fill-opacity:1;fill-rule:nonzero;stroke:none" d="m0 0-26.605-37.249-164.957 58.534s-23.059 19.51-24.833 56.759z" transform="translate(632.441 729.056)"/><path style="fill:#fff;fill-opacity:1;fill-rule:nonzero;stroke:none" d="M0 0s1.774-30.153 14.19-53.212l-51.438 17.737S-78.044-5.321-81.591 28.379z" transform="translate(403.63 812.42)"/><path style="fill:#fff;fill-opacity:1;fill-rule:nonzero;stroke:none" d="M0 0s-5.32 10.643-26.605 15.964l-134.804 49.664 30.154 8.869L15.964 21.285s12.416-3.548 14.19-10.642z" transform="translate(634.215 642.143)"/><path style="fill:#fff;fill-opacity:1;fill-rule:nonzero;stroke:none" d="m0 0-31.927-8.869-335.235 120.614 37.248 7.095z" transform="translate(479.9 723.734)"/><path style="fill:#fff;fill-opacity:1;fill-rule:nonzero;stroke:none" d="m0 0-40.795-54.986-117.067 46.117s-78.044 24.832-78.044 92.234z" transform="translate(439.105 705.997)"/><path style="fill:#fff;fill-opacity:1;fill-rule:nonzero;stroke:none" d="m0 0-90.46 33.701S-94.007-30.153 28.38-72.723C28.38-72.723 4.435-50.551 0 0" transform="translate(189.01 794.684)"/><path style="fill:#fff;fill-opacity:1;fill-rule:nonzero;stroke:none" d="m0 0-30.153-40.795-58.534 21.284s-58.532 23.058-60.306 78.044z" transform="translate(391.214 638.595)"/><path style="fill:#fff;fill-opacity:1;fill-rule:nonzero;stroke:none" d="M0 0s-3.547-28.38 21.285-60.307c0 0-86.913 19.511-94.008 94.008 0 0 50.552-25.72 72.723-33.701" transform="translate(228.031 702.45)"/><path style="fill:#fff;fill-opacity:1;fill-rule:nonzero;stroke:none" d="m0 0-26.606-35.475s-44.343 19.512-47.891 67.402z" transform="translate(352.192 585.383)"/><path style="fill:#fff;fill-opacity:1;fill-rule:nonzero;stroke:none" d="M0 0s-5.321-24.832 21.285-56.759c0 0-76.27 21.284-79.818 81.591z" transform="translate(266.166 619.971)"/><path style="fill:#fff;fill-opacity:1;fill-rule:nonzero;stroke:none" d="m0 0 24.833 30.154s-51.439 21.284-67.402 30.153c0 0 .886-39.909 42.569-60.307" transform="translate(293.66 505.565)"/><path style="fill:#e50022;fill-opacity:1;fill-rule:nonzero;stroke:none" d="M0 0c3.547 19.511-10.643 24.832-10.643 24.832l-147.219 54.985-25.719-38.134 28.38-8.869S-77.157 41.683-4.435 2.661z" transform="translate(802.72 645.69)"/><path style="fill:#fff;fill-opacity:1;fill-rule:nonzero;stroke:none" d="M0 0c-1.15.665 2.66.032 3.993.032 135.764 0 245.822-110.059 245.822-245.822 0-135.765-110.058-245.822-245.822-245.822-26.632 0-52.274 4.235-76.291 12.068l66.092 272.332-118.84 47.891-56.759-17.738-14.19-56.758 33.701-31.928-5.321-33.7s-1.774-8.869-12.416-8.869l-46.117 134.803 69.175 104.65 113.519-46.117L7.984-95.467l3.547 78.044S9.754-5.636 0 0" transform="translate(669.688 664)"/><path style="fill:#e50022;fill-opacity:1;fill-rule:nonzero;stroke:none" d="M0 0c7.095-3.547 1.773-17.737 1.773-17.737h3.548C10.643-12.416 7.095 0 7.095 0c3.548 0 17.737 19.512 17.737 19.512h-7.095C14.189 10.643 0 0 0 0" transform="translate(862.14 297.152)"/><path style="fill:#e50022;fill-opacity:1;fill-rule:nonzero;stroke:none" d="M0 0h-5.321s-3.547-14.189-14.19-19.511c0 0 7.982-7.981 2.66-18.624l4.435-.886s5.321 17.737-1.773 19.51c0 0 12.416 7.095 14.189 19.511" transform="translate(864.8 315.776)"/><path style="fill:#e50022;fill-opacity:1;fill-rule:nonzero;stroke:none" d="M0 0s-3.2-16-12.8-22.4c0 0 11.199-8 5.6-18.4l4.8 1.6S-1.2-23.6-6.8-22c0 0 11.199 12 12 21.6z" transform="translate(838.296 314.44)"/><path style="fill:#e50022;fill-opacity:1;fill-rule:nonzero;stroke:none" d="M0 0h-5.6c-.799-14.4-8.799-23.2-8.799-23.2 7.2-2.401 8.799-17.601 8.799-17.601h4c2.401 8-7.2 18.401-7.2 18.401C-5.6-20 0 0 0 0" transform="translate(820.695 308.84)"/><path style="fill:#e50022;fill-opacity:1;fill-rule:nonzero;stroke:none" d="M0 0s9.601 20.8 5.601 24L0 22.399S-.8 1.6-6.399-2.4c0 0 16.799-8.8 12-16L11.2-16S9.2-6.8 0 0" transform="translate(791.895 277.64)"/><path style="fill:#e50022;fill-opacity:1;fill-rule:nonzero;stroke:none" d="M0 0s8 17.601 5.2 26l-6.399-3.199S-2 1.2-6-2c0 0 16.801-6.399 15.2-14.399l4.401 2S10.4-2.399 0 0" transform="translate(770.695 266.04)"/><path style="fill:#e50022;fill-opacity:1;fill-rule:nonzero;stroke:none" d="M0 0s8 17.6 5.2 26l-6.399-3.2S-2 1.2-6-2c0 0 16.801-6.4 15.2-14.4l4.401 2S10.4-2.4 0 0" transform="translate(750.695 255.64)"/><path style="fill:#e50022;fill-opacity:1;fill-rule:nonzero;stroke:none" d="M0 0c3.2 6.399.8 24 .8 24l-6.4-3.2c4-8.8-1.6-23.2-1.6-23.2 6.801-2 18-13.201 18-13.201l6 2.801C14.4-5.601 0 0 0 0" transform="translate(731.895 245.64)"/><path style="fill:#e50022;fill-opacity:1;fill-rule:nonzero;stroke:none" d="M0 0s1.6 20.8-.801 21.601L-6 18.8s4-10.4-.801-21.6c0 0 16.801-5.599 20-14.4l4 2.4S8-1.6 0 0" transform="translate(711.496 237.24)"/><path style="fill:#e50022;fill-opacity:1;fill-rule:nonzero;stroke:none" d="M0 0s4 19.199 0 24l-5.199-2.801S-.399 4.399-6.8-2c0 0 16-4 20.8-13.601l6 2.8S8.801.8 0 0" transform="translate(690.695 226.84)"/><path style="fill:#e50022;fill-opacity:1;fill-rule:nonzero;stroke:none" d="M0 0s1.601 20.8-.8 21.6L-6 18.8s4-10.401-.8-21.6c0 0 16.8-5.6 20-14.4l4 2.4S8-1.601 0 0" transform="translate(673.895 219.64)"/><path style="fill:#e50022;fill-opacity:1;fill-rule:nonzero;stroke:none" d="M0 0c3.2 8-2.4 23.2-2.4 23.2L-7.2 20c5.6-3.2 1.6-21.6 1.6-21.6C0-3.2 13.6-15.2 13.6-15.2l4.8 1.6C16-4.8 0 0 0 0" transform="translate(655.096 211.24)"/><path style="fill:#e50022;fill-opacity:1;fill-rule:nonzero;stroke:none" d="M0 0c.8 6.4-1.601 22.4-1.601 22.4L-7.2 19.2c4.8-2.4 2.399-20.8 2.399-20.8C0-2.4 13.6-14.4 13.6-14.4l4 1.6C13.6-6.4 0 0 0 0" transform="translate(637.496 206.44)"/><path style="fill:#e50022;fill-opacity:1;fill-rule:nonzero;stroke:none" d="M0 0c3.2 4.8-1.6 21.6-1.6 21.6l-5.6-3.2c5.6-4.8 1.6-20 1.6-20 5.6 0 18.4-12.8 18.4-12.8l4.801 1.6C14.4-5.6 0 0 0 0" transform="translate(619.895 202.44)"/><path style="fill:#e50022;fill-opacity:1;fill-rule:nonzero;stroke:none" d="M0 0s-.8-21.6 3.2-25.6l4 2.4S2-7.6 3.2 4.8c0 0-8.8-.8-13.599 8L-13.6 9.6S-8-2.4 0 0" transform="translate(880.695 522.44)"/><path style="fill:#e50022;fill-opacity:1;fill-rule:nonzero;stroke:none" d="M0 0s-2.4-22.4-.801-25.601L4-22.4S2.8-2 4 5.6c0 0-12.801.8-16 10.4l-3.2-4S-4.801.8 0 0" transform="translate(869.496 505.64)"/><path style="fill:#e50022;fill-opacity:1;fill-rule:nonzero;stroke:none" d="M0 0s-5.601-18.4-2.4-24l5.599 2.399S1.199-9.2 5.6 4C5.6 4-8 8-11.2 18.399l-4.8-3.2S-6.4 2.399 0 0" transform="translate(853.496 492.84)"/><path style="fill:#e50022;fill-opacity:1;fill-rule:nonzero;stroke:none" d="m0 0 5.6.8C4 10.399 12 26.399 12 26.399-2 28.399-4.801 44-4.801 44l-6.399-2.4c.8-10.4 16-18.4 16-18.4C.8 14.399 0 0 0 0" transform="translate(829.496 461.64)"/><path style="fill:#e50022;fill-opacity:1;fill-rule:nonzero;stroke:none" d="M0 0h-7.601C-8.4-12 7.6-21.601 7.6-21.601c-8-4-8-21.599-8-21.599h7.2c-1.6 8.8 9.599 24 9.599 24C2.399-18 0 0 0 0" transform="translate(804.296 501.64)"/><path style="fill:#e50022;fill-opacity:1;fill-rule:nonzero;stroke:none" d="M0 0h8c-.8 8.8 12 21.6 12 21.6C9.2 27.6 5.601 44 5.601 44H.8c-4-5.601 12-22.4 12-22.4C7.2 19.2 0 0 0 0" transform="translate(775.895 457.64)"/><path style="fill:#e50022;fill-opacity:1;fill-rule:nonzero;stroke:none" d="M0 0h7.2s6.401 16 14 19.6c0 0-12 11.2-11.2 24.799L2 46s4-20 10.4-25.601C12.4 20.399-.8 7.2 0 0" transform="translate(749.895 459.64)"/><path style="fill:#e50022;fill-opacity:1;fill-rule:nonzero;stroke:none" d="m0 0 8-.8s4.4 15.601 16.801 19.2c0 0-12 16-9.601 26.401l-8 1.599S11.2 24 16 20C16 20 1.601 8 0 0" transform="translate(720.695 464.04)"/><path style="fill:#e50022;fill-opacity:1;fill-rule:nonzero;stroke:none" d="M0 0s-12 12.8-8.8 28.8l-8.8 2.4s2.4-25.599 8.8-28.8c0 0-16-10.4-16.8-19.2L-18-18S-13.2-4.399 0 0" transform="translate(719.096 487.24)"/><path style="fill:#e50022;fill-opacity:1;fill-rule:nonzero;stroke:none" d="m0 0 7.2-2.399s10 15.599 17.6 16c0 0-9.6 19.199-7.199 30.399L10.4 45.601s.8-20.8 6.4-28c0 0-13.6-8-16.8-17.601" transform="translate(667.895 480.04)"/><path style="fill:#e50022;fill-opacity:1;fill-rule:nonzero;stroke:none" d="m0 0 7.6-2.801s8.799 15.2 18.799 16.401c0 0-8 14.4-6.399 29.6l-6.4 2.4s-.8-23.201 4-28c0 0-12.8-7.201-17.6-17.6" transform="translate(642.296 488.84)"/><path style="fill:#e50022;fill-opacity:1;fill-rule:nonzero;stroke:none" d="m0 0 6.399-3.2S14.8 12.4 25.6 14.4c0 0-8 18.4-4.8 28l-7.2 2.4s1.599-24 4.799-27.2c0 0-15.2-8-18.399-17.6" transform="translate(617.496 497.64)"/><path style="fill:#e50022;fill-opacity:1;fill-rule:nonzero;stroke:none" d="m0 0-7.2 1.6s0-21.6 4-25.6c0 0-14.401-8-17.6-18.399L-14.4-44s7.6 15.6 19.2 16.8c0 0-8 22.4-4.8 27.2" transform="translate(614.296 547.24)"/><path style="fill:#e50022;fill-opacity:1;fill-rule:nonzero;stroke:none" d="m0 0-7.2.8s-2.401-18.4 3.2-24c0 0-16.8-12.8-16.8-20l6.8-1.2s8.8 17.6 18.8 18.8c0 0-8 11.2-4.8 25.6" transform="translate(590.296 553.64)"/><path style="fill:#e50022;fill-opacity:1;fill-rule:nonzero;stroke:none" d="M0 0h-8s-2.4-18.4 3.2-22.4c0 0-16.8-12-19.2-20.8l7.2-.8S-6-27.6 3.2-24.8C3.2-24.8-4-6.4 0 0" transform="translate(567.096 558.44)"/><path style="fill:#e50022;fill-opacity:1;fill-rule:nonzero;stroke:none" d="m0 0-7.199.8S-9.6-16-5.6-20.8c0 0-14.4-11.2-17.599-21.6l6-.4s8.8 18.4 18.8 20.4C1.601-22.4-5.6-8.8 0 0" transform="translate(544.695 559.24)"/><path style="fill:#e50022;fill-opacity:1;fill-rule:nonzero;stroke:none" d="M0 0h-6.399s-3.201-17.6 0-22.4c0 0-13.601-10.4-15.201-19.2h5.201S-9.2-26 0-22.4C0-22.4-5.6-8 0 0" transform="translate(523.895 560.04)"/><path style="fill:#e50022;fill-opacity:1;fill-rule:nonzero;stroke:none" d="M0 0h-6.4s-3.2-16.8.8-21.6c0 0-11.2-10.4-13.6-19.2h5.2s6.4 15.6 14 20C0-20.8-6.4-8 0 0" transform="translate(504.696 557.64)"/></g></svg>