<svg xmlns="http://www.w3.org/2000/svg" height="200.82" width="167" viewBox="0 0 167 200.822"><path d="M64.543 1.27c-18.784 0-34.819 6.883-45.988 19.029C7.217 32.646.735 49.449.735 69.69c0 13.968 4.047 29.751 13.285 42.303 9.226 12.549 24.13 21.66 45.822 21.66.374 0 .732-.03 1.104-.037v39.465c0 14.6-3.2 17.6-16.631 17.6v9.404h60.629v-9.404c-12.48 0-17.122-1.798-17.122-16.598v-26.801h8.481s31.254 52.813 32.105 52.81c2.212-.006 37.326-.022 37.326-.022v-9.354s-7.056 1.159-13.617-4.56c-6.797-6.685-19.204-41.8-29.455-44.111 3.757-1.889 27.405-7.397 27.51-32.965-.105-27.643-25.704-36.6-51.309-36.6-5.44 0-15.359.401-25.441 1-12.797.8-19.359 1.4-29.107 2.199v9.402c13.749 0 16.631 3.2 16.631 18.2v17.886c-18.946-4-31.387-25.084-31.387-54.717 0-31.374 14.741-53.436 36.273-53.436 8.1 0 15.221 3.238 20.891 9.108 5.674 5.867 9.719 14.37 11.502 24.695h7.61l-1.45-42.31h-6.002c-.643 2.027-1.452 2.836-2.918 2.836-4.043 0-13.592-6.074-30.922-6.074zm23.279 80.811h7.838c15.518 0 23.686 10.399 23.686 26.195 0 20.605-8.315 29.606-31.523 29.205v-6.605c.608-.022 1.223-.06 1.816-.06 1.953 0 3.727.001 5.184.41 1.619.2 3.243.602 4.695 1.21l.494-1.414c4.69-13.763 8.581-28.744 9.873-40.287h-7.611c-3.87 10.373-8.698 18.14-14.451 23.326V82.08z" fill="#336"/><path d="M40.34 13.94S7.467 26.824 7.436 68.713c-.04 42.915 31.691 51.021 31.691 51.021S22.79 99.221 22.84 66.293c.06-35.453 17.5-52.354 17.5-52.354zm40.973 68.566-13.816.957v107.19h13.816V82.503zm35.436.941s9.115 5.823 9.104 26.408c0 20.39-9.522 26.125-9.522 26.125s25.757-5.305 25.688-26.36c-.07-23.9-25.27-26.173-25.27-26.173zm-.02 60.715s-1.944.77-4.617 1.528c-2.93.844-8.933 1.795-8.933 1.795 8.18 11.4 25.979 43.227 25.979 43.227l19.699.047s-4.111-3.27-9.852-14.766c-5.328-12.75-15.3-28.33-22.275-31.84z" fill="#c4ced4"/></svg>