<svg xmlns="http://www.w3.org/2000/svg" height="191.46" width="132" viewBox="0 0 132 191.464"><path d="M1.777.957c-.84-.036-1.085.788-.05 3.04 7.66 16.651 23.574 27.011 41.468 31.61-10.298 8.93-16.37 14.19-17.72 25.493-8.81.654-18.233 7.1-21.22 13.082-3.4 6.811 1.637 6.947 5.055 4.601 4.374-2.992 10.574-4.142 15.876-3.912l-.01 8.551c-8.806.656-17.478 7.1-20.46 13.082-3.4 6.806 1.636 6.946 5.052 4.606 4.377-2.996 10.117-4.606 15.418-4.378v25.778c0 10.12-5.06 15.18-8.06 17.95-2.981 2.76-1.336 5.64 3 3.9 9.097-3.64 18.547-12.26 20.7-25.4 3.48.44 7.657.48 10.594.01v3.54c0 10.12-5.063 15.18-8.053 17.95-.046.04-.076.08-.123.13-9.68.84-18.34 4.11-25.236 9.47-15.696 12.25-18.11 35.27-15.696 40.36.148.33 8.842-28.45 34.66-31.51 14.959-1.76 33.322 2.71 48.966 16.29 9.662-16.11 26.012-25.31 45.102-28.56-6.45-7.33-8.05-10.55-8.29-18.84V52.322c.47-6.444 2.08-8.515 6.76-12.888-10.44-3.91-22.41-16.104-28.85-28.993-32.214 16.57-68.116 16.57-95.256-7.363C4.056 1.89 2.618.994 1.777.958zm91.057 32.959 9.206 9.199v22.612c-10.326 3.115-25.22 3.001-34.513-.332v-2.948c0-8.007.671-18.151 7.256-24.549 6.29-.67 12.401-1.988 18.051-3.982zm-39.23 3.734c4.422.574 8.882.819 13.308.741-4.852 4.234-8.997 8.168-11.783 12.742-3.689-1.224-7.073-1.947-10.363-2.129 2.127-4.275 5.171-8.265 8.838-11.354zm-8.62 17.748c2.706-.017 5.34.402 7.67 1.235-.73 2.339-1.197 4.845-1.183 7.689l-.045 47.818c-2.596.56-6.585.63-10.14.29V62.447c0-2.198.347-4.527.978-6.885a25.708 25.708 0 0 1 2.72-.164zm22.543 17.823c9.293 3.329 24.187 3.443 34.513.33v21.972c-10.326-3.113-25.22-2.999-34.513.332V73.221zm16.87 27.879c6.176-.06 12.481.69 17.643 2.25v32.74c-6.445 1.83-14.264 6.43-21.169 12.42-9.99-4.95-19.838-7.51-29.03-8.03 8.253-5.55 15.686-15.33 15.686-28.33v-8.46c4.647-1.67 10.693-2.54 16.87-2.59z" fill="#0c2c56"/></svg>