<svg xmlns="http://www.w3.org/2000/svg" height="203" width="202.6" viewBox="0 0 236.139 237.079"><path fill="#002d62" d="M118.04 1.78C53.675 1.78 1.49 54.07 1.49 118.58c0 64.474 52.183 116.78 116.55 116.78 64.377 0 116.56-52.3 116.56-116.78 0-64.51-52.18-116.8-116.56-116.8"/><path fill="#eb6e1f" d="M118.04 7.165c-61.524 0-111.4 49.875-111.4 111.4 0 61.527 49.876 111.39 111.4 111.39 61.523 0 111.4-49.863 111.4-111.39 0-61.529-49.88-111.4-111.4-111.4"/><path fill="#002d62" d="M225.03 118.57v.01c0 59.08-47.906 106.99-106.99 106.99-59.085 0-106.99-47.91-106.99-107 0-59.093 47.9-106.99 106.98-106.99 52.625 0 96.369 38 105.3 88.046a106.536 106.536 0 0 1 1.684 18.946"/><path fill="#eb6e1f" d="M118.04 47.095c-39.474 0-71.471 32.002-71.471 71.483 0 39.467 31.997 71.45 71.472 71.45 39.485 0 71.47-31.983 71.47-71.45 0-39.48-31.985-71.484-71.47-71.484"/><path fill="#002d62" d="m158.12 171.78-4.816-14.816h-18.468l21.842 15.857c-10.9 7.788-24.23 12.37-38.643 12.37-14.398 0-27.738-4.582-38.622-12.37l21.843-15.857H89.77l-12.697 17.573.896-2.758c-16.124-12.166-26.55-31.454-26.55-53.2 0-6.986 1.07-13.7 3.067-20.02l34.92 25.393v-4.42l-26.665-19.396-10.986-3.54h3.385c8.97-25.653 33.166-44.137 61.752-44.62l1.143-3.55v65.29h13.973v-13.89l-9.038-3.23V85.138h7.006l-10.782-33.16c28.59.492 52.783 18.966 61.736 44.617h3.406l-10.975 3.55h-26.66v23.786l34.9-25.352a66.325 66.325 0 0 1 3.067 20c0 21.734-10.43 41.034-26.548 53.2"/><path fill="#eb6e1f" d="M132.01 142.28v-13.894h-21.596l-6.335 8.776v5.117l9.022 3.24v2.82l4.94-3.592 4.93 3.593v-2.82"/><path d="m118.045 48.426-1.148 3.552-10.782 33.16 6.994.003v11.457l-9.029 3.228v13.885h13.965V48.428zM51.753 96.6l10.978 3.54 26.677 19.398V99.826l-9.035-3.228h-28.62zm103.974 0-9.024 3.228v.321h26.663l10.975-3.55h-28.614zm-51.648 31.798v8.766l6.33-8.766h-6.33zm-14.67 13.885-2.098.73v.01l2.098-.74zm-6.62 14.686-4.81 14.818-.908 2.755 12.71-17.573H82.79z" fill="#f4871e"/><path d="m114.313 18.269-2.687 2.671v7.735l2.687 2.66h5.968l.56.57v4.742l-.56.557h-5.114l-.794-2.092h-2.747v5.698h10.156l2.67-2.682v-7.715l-2.673-2.692h-5.972l-.552-.55v-4.73l.552-.557h5.115l.802 2.083h2.73v-5.698h-10.14zm-18.622 2.199-6.346 1.984.853 2.713 1.654.205 4.44 14.16-.377.71-4.382 1.36-.719-.343-4.432-14.16 1.246-1.104-.865-2.726-6.339 1.993.846 2.694 1.677.228 4.877 15.59 3.35 1.738 7.266-2.256 1.75-3.367-4.88-15.592 1.234-1.113-.853-2.714zm44.976.11-1.85 5.953 2.57.794 1.582-2.252 2.114.667-4.58 14.708-1.672.221-.835 2.694 6.346 1.976.844-2.715-1.236-1.118 4.587-14.685 2.11.664.025 2.746 2.573.806 1.863-5.965-14.44-4.494zm31.349 13.341-3.73.69-9.788 14.12.687 3.743 6.243 4.324v-.002l3.739-.687 9.779-14.117-.67-3.725-6.26-4.346zm-108.054.078L57.72 38.32l-.69 3.734 9.812 14.13 3.734.688 6.254-4.357.66-3.7-9.795-14.14-3.734-.677zm107.225 3.767 3.804 2.616.13.785-8.081 11.672-.776.139-3.793-2.63-.135-.771 8.084-11.672.767-.14zm-106.394.063.794.14 8.08 11.651-.135.794-3.787 2.62-.777-.12-8.1-11.65.143-.805v-.002l3.782-2.628zm127.348 12.649-2.235 1.738.385 1.62-12.21 9.516-1.48-.762-2.247 1.75 4.103 5.255 2.242-1.75-.399-1.64 8.326-6.48-7.755 12.952 2.6 3.335 14.989-11.695 1.48.782 2.247-1.76-4.104-5.243-2.22 1.759.375 1.622-8.326 6.478 7.774-12.95-3.545-4.528zm-148.417.269-4.08 5.246 2.23 1.739 1.488-.76 4.687 3.622-3.433 4.432-4.687-3.65.385-1.617-2.23-1.75-4.104 5.259 2.246 1.738 1.485-.753 12.222 9.485-.381 1.622 2.235 1.736 4.088-5.256-2.236-1.726-1.487.76-4.683-3.64 3.433-4.417 4.679 3.647-.386 1.63 2.247 1.74 4.087-5.259-2.228-1.738-1.503.776-12.215-9.497.38-1.63-2.237-1.739zm36.65 34.393v11.458l2.9-2.069 9.044 3.237-2.906 2.06v42.453l-9.038 3.244v11.446l2.9-2.929h26.92v-6.492l2.918-2.025-9.028-3.242-2.918 2.04v-18.852h33.769l-2.92 2.92v13.892l-9.03 3.242v11.446l2.915-2.929h26.914v-6.492l2.91-2.025-9.021-3.242-2.922 2.04V97.767l9.033-3.239v-6.471l2.91-2.915h-32.742v11.457l2.916-2.07 9.035 3.238-2.92 2.06v13.883h-27.931l-2.918 2.917V97.768l9.029-3.239v-6.471l2.917-2.918H80.375zM223.35 99.623zm-46.157 69.81-7.22 7.104-.025 3.807 5.418 5.495 3.798.032 4.247-4.174h.785l3.328 3.348v.794l-3.643 3.593-2.044-.91-1.948 1.898 4.001 4.076 7.231-7.122.028-3.809-5.425-5.47-3.784-.057-4.254 4.204h-.8l-3.322-3.38.012-.803 3.654-3.573 2.032.922 1.941-1.92-4.01-4.054zm-116.288 1.94v.002l-15.566 11.36-1.56-.557-1.987 2.017 4.763 4.678 1.976-2.028-.584-1.555 1.982-1.437 4.126 4.053-1.405 2.005-1.555-.545-1.974 2.017 4.752 4.655 1.984-2.016-.584-1.547 11.07-15.78-5.438-5.322zm-.349 4.713 1.06 1.049-5.458 7.79-3.266-3.23 7.664-5.61zm95.919 10.168-6.798 3.422-1.172 3.616 7.732 15.34 3.604 1.17 6.798-3.421 1.18-3.593-7.74-15.343-3.604-1.19zm-76.655.13-3.577 1.191-3.467 6.907 1.19 3.607 5.34 2.65.244.771-2.112 4.218-.757.246-4.57-2.297.204-2.22-2.43-1.233-2.563 5.116 9.064 4.562 3.604-1.202 3.465-6.92-1.197-3.584-5.329-2.683-.25-.75 2.12-4.236.749-.238 4.576 2.286-.212 2.231 2.422 1.225 2.564-5.107-9.079-4.54zm76.949 3.776.75.246 6.401 12.68-.258.753-4.112 2.069-.746-.245-6.401-12.662.246-.76 4.12-2.082zm-58.163 4.076-.955 6.15 2.655.426 1.234-2.477 2.187.365-2.365 15.204-1.6.47-.444 2.79 6.588 1.028.428-2.799-1.389-.91 2.361-15.238 2.19.333.422 2.715 2.68.43.947-6.17-14.939-2.317zm35.373.527-11.529 1.822.44 2.801 1.61.459 2.414 15.278-1.39.936.446 2.799 6.567-1.05-.436-2.79-1.603-.449-.927-5.86 3.251-.504 2.553 5.322-1.16.805.45 2.787 6.572-1.04-.44-2.79-1.773-.515-2.666-5.557 1.872-2.596-1.195-7.639-3.056-2.22zm-.924 3.81.636.471.741 4.667-.456.644-4.977.761-.912-5.76 4.968-.784z" fill="#fff"/><path fill="#e7e9ea" d="M155.72 96.596V85.14l-2.911 2.927v6.46l-9.033 3.238v46.55l2.928-2.038V99.824m9.017 45.692-2.912 2.028v6.49h-26.912l-2.923 2.93h32.748m-51.641-28.57h27.93l2.92-2.93h-33.768v18.86l2.918-2.048v-5.117m9.028 11.178v-2.82l-2.912 2.027v6.49H83.273l-2.906 2.93h32.742m-20.792-59.2-9.043-3.24-2.896 2.072 9.034 3.228m36.485-5.299-2.923 2.07 9.034 3.23 2.924-2.06m-21.823-1.169V85.14l-2.912 2.927v6.46l-9.034 3.238v18.86l2.918-2.906V99.823"/></svg>