<svg xmlns="http://www.w3.org/2000/svg" xml:space="preserve" height="148.07" viewBox="0 0 128.358 148.068" width="128.36"><path d="M34.608 25.593v50.58l26.713 15.635 26.711-15.635v-50.58H34.608zm62.77 49.549c-1.967.064-3.835 2.033-3.8 5.46 0 0-.011 19.098.001 20.95.011 1.856 0 2.514.055 2.923.035.267.093.509.147.752a31.36 31.36 0 0 1-1.223 1.1c-3.013 2.537-3.512 1.644-3.787-.643l.01-14.308-4.875 1.246s-.032.457-.024 1.064c-.644-.607-1.9-.75-2.853-.724-5.76.142-10.157 9.749-8.596 17.09-1.008 1.152-2.437 2.466-4.043 3.902l.018-16.969-4.944 1.375-.045 12.84c-.006.226-.015.716-.021 1.397-.653 2.44-2.606 3.764-3.635 3.611-1.047-.155-1.348-1.948-1.324-2.783l.004-13.715-4.694 1.191c.114 5.48-2.058 7.841-4.523 8.73-.795-3.102-2.646-5.569-5.59-6.04-1.452-.23-2.687.153-3.574.877-6.486 2.106-7.739 12.778-4.985 17.218 1.62 2.7 3.725 3.289 4.875 3.4 6.766.658 10.049-6.449 9.694-12.683 1.703-.551 3.117-1.542 3.95-2.816l-.091 4.062c.015 2.716.37 6.69 3.467 6.7 2.353.003 4.619-1.715 6.507-3.864-.002.631-.007 1.293-.007 1.97-3.233 3.117-6.273 6.585-7.522 10.216-.08.232-.15.475-.217.72-5.452 1.475-10.038 2.665-12.836 3.291-16.99 3.812-21.849 8.491-22.632 14.305 5.926-6.636 12.88-4.057 14.846-2.875.474-1.027 2.935-4.572 8.9-6.86a386.845 386.845 0 0 1 11.24-4.097c-.012 4.923 2.217 10.018 6.903 9.22 3.611-.615 6.27-3.023 6.223-12.615l.002-.537c20.17-6.527 40.29-12.102 54.252-16.927 7.24-2.507 5.718-11.137-.7-13.659.423-1.809.354-3.81-.185-5.772-1.843-6.697-.461-9.013.805-10.148-14.934-1.96-14.984 20.646-21.895 23.006-1.17.399-2.302-.6-2.412-2.1 9.684-11.567 8.018-27.65-.473-28.468a3.01 3.01 0 0 0-.392-.014zm2.094 4.021c.845.064 1.953 1.146 2.574 3.348 1.4 4.97-.017 11.498-3.715 17.229.007-5.528.02-17.475 0-18.924-.015-1.136.484-1.702 1.141-1.652zm17.396 6.801c-1.817 1.76-.035 6.77.194 10.877.007.134 0 .262.006.39-1.437-.215-2.976-.228-5.05.026-1.662.2-2.853.77-3.648 1.506 1.996-4.99 5.07-12.239 8.498-12.799zm-96.494 7.662c-.478-.005-.965.008-1.459.041-16.35 1.075-21.068 15.813-15.758 17.1 4.042.971 6.084-2.85 6.412-5.597-1.014.945-3.284 1.645-2.879-1.6.381-3.09 5.595-7.061 12.217-7.56 4.623-.33 8.383 3.672 8.605 8.244.19 4.022-2.385 7.736-6.142 9.293-1.624-.444-3.489-.412-5.715.195-.119-8.433.848-13.144 3.386-15.868-1.47.5-3.08 1.394-4.44 2.979-4.8 5.752-3.154 22.437-4.323 28.045-.53 3.021-3.849 4.618-5.395 1.941-3.402 5.035 2.307 9.254 6.797 6.862 2.132-1.133 5.22-4.142 4.645-11.422-.321-4.07-.536-7.604-.631-10.69 1.37-.316 3.624-.242 5.267 2.823 1.863 3.47 6.472 18.783 17.452 13.3 2.521-1.257 3.226-3.075 3.584-4.923.138-.693-.28-.734-.746-.213-2.66 2.48-7.878 3.007-11.256-3.621-1.747-3.428-3.457-6.154-5.58-7.84 5.42-1.968 9.12-6.595 8.832-11.516-.333-5.594-5.7-9.888-12.873-9.968zm61.15 1.737c1.239-.095 2.358.702 2.608 1.763.02 3.422-.071 6.597-.065 7.655.02 2.797-2.043 6.19-4.267 6.06-3.263-.187-3.461-8.652-1.026-13.341.752-1.448 1.787-2.063 2.75-2.137zm33.782 3.988c.23-.011.462-.011.695.002h.031c.237.01.479.038.73.075l.026.003c.028.004.062.012.092.016-.373 1.712-1.334 2.999-3.244 3.389-4.24.865-4.088-2.794-.83-3.21.648-.081 1.195-.16 1.7-.214.018 0 .035-.004.05-.004.245-.026.48-.046.714-.055l.036-.002zm5.781 1.545c.235.105.482.217.74.336 5.065 2.33 3.87 7.869.067 9.006-10.139 3.03-33.36 9.754-53.512 15.355l.008-8.678c1.772-1.566 3.556-3.058 5.139-4.473.59 1.67 6.695 4.952 10.56-2.137 1.783 5.53 8.04-1.077 9.488-2.195.36-.275.697-.565 1.038-.85 2.035 2.974 6.511 2.183 9.072-.283 1.335-1.285 2.663-3.457 3.555-5.445.213 2.121 2.583 4.13 6.85 3.664 3.464-.381 5.753-2.042 6.995-4.3zm-78.173 5.426c.224.007.46.055.698.146 1.212.463 2.103 1.873 2.627 3.633-1.76-.02-3.25-.48-3.674-.725-2.233-1.276-1.217-3.107.35-3.055zm-3.418 3.638c.416.545.973 1.053 1.727 1.488a10.723 10.723 0 0 0 5.51 1.442c.267 3.755-.94 7.731-4.037 7.74-4.647.011-4.58-7.946-3.2-10.67zm23.967 11.65c-.007 1.928-.01 3.802-.012 5.346-1.561.43-3.099.85-4.598 1.26.028-.062.047-.127.073-.19.975-2.213 2.612-4.359 4.537-6.415zm-.016 9.233c-.006 6.012-.254 7.805-1.916 8.242-2.106.551-3.396-2.892-3.424-6.441 1.777-.61 3.555-1.209 5.34-1.801z" fill="#004687"/><path d="M35.693.918a3.172 3.172 0 1 0 0 6.344 3.172 3.172 0 0 0 0-6.344zm17.253 0a3.172 3.172 0 1 0 0 6.344 3.172 3.172 0 0 0 0-6.344zm17.056 0a3.174 3.174 0 0 0-3.174 3.172A3.173 3.173 0 1 0 70.002.918zm17.027 0a3.172 3.172 0 1 0 0 6.344 3.172 3.172 0 0 0 0-6.344zM34.567 9.301v14.86h53.486V9.337H86.06c0 4.173-3.384 7.569-7.555 7.569-4.173 0-7.53-3.397-7.53-7.57H68.96c0 4.173-3.38 7.57-7.556 7.57-4.171 0-7.528-3.413-7.528-7.586l-2.029.019c0 4.173-3.379 7.566-7.555 7.566-4.173 0-7.539-3.407-7.539-7.578l-2.187-.025z" fill="#c09a5b"/><path d="M62.743 34.93v.448h-.71c-1.097 0-2.46-.001-4.266 2.238-2.32 2.862-6.92 9.8-6.92 9.8a7.742 7.742 0 0 1 1.576.302c1.258-1.874 4.558-6.75 6.408-9.037 1.811-2.238 3.17-2.239 4.268-2.239h.71v-1.511h-1.066zm-12.217.008v.463c-1.63.123-3.293 1.114-3.293 3.791l-.003 9.01.789-.447.275-.387.006-7.108c0-2.678 1.663-3.67 3.293-3.79v-1.532h-1.066zm3.202.467v1.037c.51 0 1.016.01 1.45.078.067-.807-.585-1.05-1.45-1.115zm-13.514.014v1.021l.576.016c.704-.007 1.436.15 2.065.521-.603-1.003-1.614-1.462-2.641-1.558zm42.697 8.128v10.315h-.595c.062.422.101.79.12 1.066h1.542v-11.38H82.91zm-8.963 1.633c-6.423-.196-7.626 7.232-7.716 12.3-.127 7.477 1.875 11.872 4.476 14.077-2.06-2.442-3.518-6.592-3.41-13.011.09-5.067 1.294-12.497 7.715-12.3 1.798.053 3.154.633 4.19 1.462-1.105-1.382-2.759-2.45-5.254-2.527zm-23.496 4.574c-1.481-.069-2.613.768-3.205 1.344L47.2 54.06l.028 5.262c0 1.725.697 2.74 1.623 3.283-.339-.56-.557-1.276-.557-2.217l-.027-5.261.048-2.96c.94-.915 3.239-2.493 6.139-.06-1.487-1.696-2.85-2.298-4.002-2.351zm6.516 1.038c2.741 3.094 4.237 7.299 5.387 8.134-.02-.129-.022-.263-.038-.394-1.186-2.007-2.797-5.445-5.35-7.74zm-5.47 13.37v.481H40.213v1.067h12.348v-1.5l-.575-.02a4.668 4.668 0 0 1-.49-.027zm31.908 2.2c.015.024.032.04.047.066.835 1.478-.667 8.489-8.493 8.489-3.447 0-6.204-1.371-8.484-3.453 2.479 2.668 5.548 4.515 9.55 4.515 7.824 0 9.327-7.009 8.49-8.486-.337-.592-.723-.948-1.11-1.131zM81.21 68.3c.064.18.173.357.326.523-.004-.263-.12-.414-.326-.523z"/><path d="M83.45 66.43c-.013-.023-.03-.04-.044-.064-1.839-3.094-5.06.536-2.241 1.906.017.009.028.021.045.03.207.112.323.263.327.525.005.186-.036.414-.174.763-1.439 3.637-6.73 5.295-10.655 1.972-2.601-2.205-4.604-6.6-4.477-14.076.09-5.07 1.292-12.498 7.716-12.302 2.495.077 4.15 1.147 5.254 2.528 1.69 2.114 2.087 4.963 2.166 6.156h1.544v-11.38h-1.787c-.321 1.313-.536 2.5-2.929 1.839-2.394-.657-3.432-.554-4.268-.59-7.358-.323-12.399 7.96-11.61 14.797.016.134.019.267.038.398-1.152-.837-2.647-5.043-5.39-8.135-1.232-1.391-2.722-2.543-4.544-3.075a7.71 7.71 0 0 0-1.576-.302s4.602-6.94 6.921-9.802c1.807-2.237 3.17-2.237 4.266-2.237h.71v-1.514H52.659v1.514c.367 0 .73.004 1.069.028.865.065 1.518.308 1.45 1.115-.023.276-.105.601-.324 1.03-.844 1.673-4.76 7.272-6.56 9.817-.096.138-.191.271-.275.388l-.79.448.004-9.01c0-2.677 1.662-3.67 3.292-3.792v-1.529H39.146v1.5l.577.018c.161-.003.325.013.489.028 1.027.099 2.039.555 2.644 1.559.338.56.558 1.275.558 2.216v20.13c0 2.894-1.947 3.822-3.691 3.803l-.577.019v1.499h12.35v-1.499l-.578-.02c-.704.01-1.436-.15-2.067-.52-.928-.543-1.623-1.56-1.623-3.282l-.03-5.263.047-2.961c1.055-1.025 3.811-2.868 7.207 1.008.093.103.183.196.276.31 3.24 3.956 5.984 13.786 11.746 19.046 2.283 2.085 5.037 3.452 8.487 3.452 7.823 0 9.326-7.01 8.489-8.489" fill="#fff"/></svg>