<svg xmlns="http://www.w3.org/2000/svg" height="171.005" width="165"><path d="M152.557 72.12c-4.738 7.18-17.784 12.208-55.72 26.02.327-2.405.947-6.742 1.42-9.657.839-1.494 1.859-3.098 2.952-4.701l.292-.438a31.453 31.453 0 0 1 2.697-3.389c.874 1.458 2.223 3.426 5.029 3.353 9.402-.255 13.52-17.857 14.978-24.745a10.302 10.302 0 0 0 2.295.256c-.656 2.223-5.903 14.14 1.057 16.144 6.924 2.04 11.188-17.128 12.427-21.283 4.228 4.883 3.17 10.022 1.02 11.079-1.093.546-2.332-1.13-3.57.036-1.823 1.75-.62 4.628 1.894 5.066 3.608.583 5.977-1.859 8.346-4.373.765-.766 3.571-2.479 5.284-1.24 2.624 1.786.729 6.16-.401 7.872ZM90.386 86.588c-3.827.729-2.588-14.213 3.097-14.905 1.094-.11 2.223 1.202 2.005 3.389a33.382 33.382 0 0 1-1.13 6.013c-.729 2.26-1.931 5.138-3.972 5.503ZM112.652 63.3c2.843 1.421-2.113 7.398-4.373 9.84.365-5.503 3.098-10.496 4.373-9.84ZM92.244 99.67s-1.312.583-1.931.801c.874-1.275 2.442-4.227 2.77-4.773-.146.983-.839 3.972-.839 3.972Zm-6.377 17.784c-2.515.437-1.24-5.94.729-9.002 2.55-.984 4.7-2.004 4.7-2.004-1.311 6.305-2.44 10.46-5.43 11.006Zm-9.84-34.439c-.036.656-.765 6.341-.947 6.961-.693 2.879-2.15 4.956-4.191 4.847-3.499-.11-1.932-14.869 3.061-14.359a2.167 2.167 0 0 1 2.077 2.551Zm-22.85 20.335c-2.842-.583-2.732-8.2-.765-11.552 1.276 2.332 4.665 2.588 6.706 2.296.146 3.316-2.405 9.949-5.94 9.256Zm5.832-12.827a5.341 5.341 0 0 1-1.823.145c-1.42-.145-2.478-.838-2.587-1.42-.692-3.244 4.264-2.77 4.41 1.275Zm98.25-26.421c-1.677-4.774-8.055-3.827-9.658-2.333 0-6.268-3.17-7.98-6.487-11.844-.729-2.696 1.421-3.607 1.713-5.903.583-4.701-6.779-3.353-4.701 6.268-.875 4.482-5.613 18.221-8.09 18.586-1.422.182-1.531-2.114-.766-4.847.729-2.733 4.665-7.69 2.223-10.204-1.421-1.458-4.045.729-6.414-.583 0 0 .073-1.968-.546-2.697a1.696 1.696 0 0 0-2.333 0c-1.785 1.385-1.858 5.175-.91 7.07-.73 4.7-1.313 6.596-3.609 12.9-2.332 6.524-7.908 9.621-9.183 5.65 11.151-10.715 8.673-14.833 6.924-16.29-2.88-2.37-11.771 1.894-12.208 15.414a12.72 12.72 0 0 0 .182 1.932 116.82 116.82 0 0 0-4.373 5.649c.91-5.977 2.186-14.687 2.624-17.894a12.471 12.471 0 0 1-4.702 1.75l-.328 2.222c-2.368-3.57-13.447-.218-13.046 17.274-.547 5.394-3.426 5.977-3.535 4.701-.364-6.377 3.608-25.218 4.956-32.033a12.51 12.51 0 0 1-4.628 1.495s-3.426 17.346-3.498 17.346a4.501 4.501 0 0 0-4.374-.91c-4.154.983-7.397 6.85-7.616 10.568a9.702 9.702 0 0 1-2.442 1.822c-.51-2.223-1.53-4.264-3.826-4.956-7.544-2.296-13.74 8.892-11.735 19.424a8.868 8.868 0 0 0 3.572 4.81c5.32 2.624 12.244-4.555 12.317-15.743a6.983 6.983 0 0 0 1.968-2.041c-.474 3.39.583 9.73 4.41 10.277 4.118.62 6.414-4.3 7.033-6.378a3.478 3.478 0 0 0 3.28 2.296c3.535-.146 4.628-4.628 5.284-6.56 3.098 4.957 8.127.401 9.257-2.514l-.401 2.405c-2.843 3.426-8.127 11.917-8.127 11.917-9.84 3.571-28.972 10.641-36.844 22.449a27.416 27.416 0 0 1 11.917.364c1.276-3.462 9.074-10.423 20.554-14.25-2.806 5.686-2.26 14.068 2.55 13.995 8.31-.182 11.043-14.468 12.21-19.898 7.397-3.17 20.59-8.272 34.401-14.176 12.791-5.503 31.159-14.723 27.004-26.53ZM7.077 124.926c-.547-1.349 3.134-4.556 6.414-4.702-1.276 2.187-5.904 6.05-6.414 4.702ZM.154 93.62c-.583 5.357.4 8.965 4.555 10.678 3.061 1.275 6.596-1.421 7.58-2.952a11.948 11.948 0 0 0 1.895-5.138s-5.794 5.575-9.147.473c-1.931-2.951-.911-11.698 10.459-17.893 11.37-6.159 17.019-1.13 17.019-1.13 6.851 3.863 7.143 15.343 5.138 24.235-1.53 6.632-4.665 13.593-11.807 14.905-2.66.474-3.681.182-6.123.11a38.715 38.715 0 0 0 3.098-12.829c1.713-20.918 3.972-22.922 6.05-26.056-15.452 7.871-11.006 34.584-14.031 38.993C3.506 118.694.919 127.95 3.178 129.408c1.713 1.093 9.403-.984 14.65-9.475 3.79-.073 15.926 3.28 23.324-10.204 4.992-9.11 6.596-25.036-1.458-32.908-11.552-11.37-37.718.255-39.54 16.8Z" fill="#005a9c"/><path d="M112.87 27.478a13.642 13.642 0 0 0 5.905-7.471 13.434 13.434 0 0 0-.474-9.548 13.623 13.623 0 0 0-5.43 17.019Z" fill="#fff"/><path d="M101.61 28.79a12.638 12.638 0 0 0 4.191.692 13.602 13.602 0 0 0 5.138-1.02 15.752 15.752 0 0 1 6.378-19.898A13.627 13.627 0 0 0 105.8 2.187a14.21 14.21 0 0 0-5.284 1.02 15.506 15.506 0 0 1 .546 11.079 15.618 15.618 0 0 1-6.887 8.71 13.542 13.542 0 0 0 7.434 5.794Z" fill="#fff"/><path d="M99.023 13.63a13.576 13.576 0 0 0-.401-9.44 13.635 13.635 0 0 0-5.43 16.874 13.466 13.466 0 0 0 5.83-7.434Z" fill="#fff"/><path d="M116.66 29.92a1.053 1.053 0 0 0-1.238.874l-4.118 22.412a1.083 1.083 0 0 0 .838 1.276h.219a1.089 1.089 0 0 0 1.057-.875l4.118-22.412a1.108 1.108 0 0 0-.875-1.276Zm-8.964 5.101a1.083 1.083 0 0 0-1.275.839l-5.03 22.412a1.102 1.102 0 0 0 .839 1.275c.072 0 .145.037.218.037a1.089 1.089 0 0 0 1.057-.875l4.993-22.376a1.086 1.086 0 0 0-.802-1.312Zm-5.066 72.667a1.127 1.127 0 0 0-1.275.875l-4.009 20.809a1.071 1.071 0 0 0 .875 1.239.462.462 0 0 0 .219.036 1.088 1.088 0 0 0 1.02-.911l4.045-20.772a1.108 1.108 0 0 0-.875-1.276Zm-15.743 20.554a1.14 1.14 0 0 0-1.312.838l-3.17 14.25a1.086 1.086 0 0 0 .802 1.311h.255a1.046 1.046 0 0 0 1.02-.838l3.207-14.286a1.05 1.05 0 0 0-.802-1.275Zm13.302-93.877a1.111 1.111 0 0 0-1.349.73l-8.49 27.477a1.035 1.035 0 0 0 .692 1.348.542.542 0 0 0 .328.073 1.082 1.082 0 0 0 1.02-.765l8.491-27.478a1.117 1.117 0 0 0-.692-1.385Zm-25.802 83.527a1.077 1.077 0 0 0-1.348.693l-2.04 6.596a1.117 1.117 0 0 0 .692 1.384c.109 0 .218.037.328.037a1.05 1.05 0 0 0 1.02-.765l2.04-6.597a1.077 1.077 0 0 0-.692-1.348Zm-3.972 12.864a1.068 1.068 0 0 0-1.348.73l-11.48 37.098a1.077 1.077 0 0 0 .693 1.348 1.063 1.063 0 0 0 .328.073 1.179 1.179 0 0 0 1.057-.765l11.443-37.135a1.077 1.077 0 0 0-.693-1.349Zm14.65-79.226a.97.97 0 0 0 .437.11 1.07 1.07 0 0 0 .984-.657l8.018-18.294a1.077 1.077 0 0 0-1.968-.875L84.518 50.11a1.118 1.118 0 0 0 .547 1.421Zm-33.49 76.602a1.066 1.066 0 0 0-1.422.547l-5.794 13.229a1.055 1.055 0 0 0 .546 1.421.97.97 0 0 0 .438.11 1.11 1.11 0 0 0 .984-.657l5.794-13.228a1.055 1.055 0 0 0-.547-1.422Zm37.39-105.938a1.073 1.073 0 0 0-1.458.4L76.319 42.711a1.107 1.107 0 0 0 .4 1.494 1.462 1.462 0 0 0 .547.11 1.002 1.002 0 0 0 .911-.547L89.365 23.65a1.073 1.073 0 0 0-.4-1.457ZM58.424 79.19l16.509-29.519a1.085 1.085 0 0 0-.437-1.457 1.073 1.073 0 0 0-1.458.4L56.53 78.17a1.054 1.054 0 0 0 .438 1.457.837.837 0 0 0 .51.146 1.092 1.092 0 0 0 .947-.583Zm-25.4 43.658a1.128 1.128 0 0 0-1.494.438L22.967 138.7a1.085 1.085 0 0 0 .437 1.458 1.286 1.286 0 0 0 .51.109 1.018 1.018 0 0 0 .948-.547l8.564-15.415a1.073 1.073 0 0 0-.401-1.458Zm68.038-108.562a15.506 15.506 0 0 0-.546-11.079 14.21 14.21 0 0 1 5.284-1.02 13.627 13.627 0 0 1 11.516 6.377 15.752 15.752 0 0 0-6.378 19.898 13.602 13.602 0 0 1-5.138 1.02 12.638 12.638 0 0 1-4.19-.692 13.542 13.542 0 0 1-7.435-5.795 15.618 15.618 0 0 0 6.887-8.71Zm-8.272-2.66a13.696 13.696 0 0 1 5.83-7.435 13.567 13.567 0 0 1 .402 9.439 13.466 13.466 0 0 1-5.831 7.434 13.736 13.736 0 0 1-.401-9.439Zm25.984 8.381a13.642 13.642 0 0 1-5.904 7.47 13.623 13.623 0 0 1 5.43-17.018 13.434 13.434 0 0 1 .474 9.548ZM119.83 8.6a15.798 15.798 0 1 0-18.877 22.267 15.755 15.755 0 0 0 19.861-10.204A15.617 15.617 0 0 0 119.83 8.6Z" fill="#ef3e42"/><path d="M161.74 74.38h-.692v-.62h.583c.255 0 .583 0 .583.292 0 .255-.182.328-.473.328Zm.985-.292c0-.692-.401-.802-.984-.802h-1.24v2.588h.547v-1.02h.437l.583 1.02h.584l-.62-1.02a.672.672 0 0 0 .692-.766Z" fill="#005a9c"/><path d="M161.522 76.53a1.932 1.932 0 0 1 0-3.863 1.931 1.931 0 1 1 0 3.863Zm0-4.41A2.46 2.46 0 1 0 164 74.598a2.458 2.458 0 0 0-2.478-2.478Z" fill="#005a9c"/></svg>