<svg xmlns="http://www.w3.org/2000/svg" width="187" height="250" style="enable-background:new 0 0 187 250" xml:space="preserve"><path style="fill:#fff" d="M103.311 244.824h68.396c-6.314-4.291-11.898-11.805-14.387-20.408l-19.12-65.604c-2.067-7.066 1.294-14.127 6.668-18.904-7.63-2.351-14.397-7.636-16.521-14.951l-10.716-36.725c15.228-5.098 25.146-14.116 25.146-24.599 0-13.685-16.931-24.893-40.507-28.1L93.313 4.824H83.294l-8.946 30.715c-23.587 3.207-40.54 14.409-40.54 28.094 0 10.483 9.941 19.501 25.18 24.599l-10.705 36.725c-2.112 7.315-8.902 12.601-16.532 14.951 5.363 4.777 8.747 11.838 6.679 18.904L19.3 224.416c-2.533 8.604-8.073 16.117-14.365 20.408h68.396c-5.596-4.291-8.648-11.805-6.138-20.408l1.681-5.706h38.903l1.659 5.706c2.5 8.604-.552 16.117-6.125 20.408m-20.89-72.587 5.905-20.298 5.894 20.298H82.421z"/><path style="fill:#003263" d="M160.205 240.174c-3.272-4.263-5.86-9.228-7.387-14.431L133.82 160.57c-2.997-10.34 2.565-17.693 3.295-18.865-6.602-3.572-11.434-9.019-13.27-15.449L112.29 86.59c16.3-4.34 27.413-12.982 27.413-22.957 0-12.612-17.859-23.14-41.513-25.468L89.841 9.491h-3.03l-8.349 28.674c-23.676 2.322-41.546 12.85-41.546 25.468 0 9.975 11.125 18.617 27.425 22.957l-11.556 39.666c-1.869 6.431-6.68 11.877-13.281 15.449.741 1.172 6.314 8.525 3.284 18.865L23.8 225.743c-1.515 5.203-4.114 10.168-7.387 14.431h47.363c-3.815-8.438-1.813-14.586-.1-20.375l1.681-5.761h45.915l1.691 5.761c1.681 5.789 3.693 11.938-.121 20.375m-36.691-63.271 12.175-41.689 12.131 41.689H76.151z"/><path style="fill:#cd1141" d="M100.899 73.839h.011L94.817 52.9l1.194 4.169a138.853 138.853 0 0 0-7.686-.232v13.585l36.481 125.059 8.382 28.686 14.421 8.631c-1.007-2.189-1.913-4.434-2.599-6.734l-18.158-62.147c-2.854-9.715-1.283-13.906.785-19.768-5.452-4.186-9.079-9.632-10.849-15.769L103.01 81.044c-.011 0-.022.006-.033.006M92.595 45.259l-4.269-14.642v14.547c1.438.001 2.864.04 4.269.095M43.219 224.925l11.656 7.873c-.63-3.92-.033-9.078 1.083-12.739l3.871-13.38-8.006-11.197"/><path style="fill:#cd1141" d="m66.331 184.269 21.995-75.308V70.422L51.822 195.481h72.986l-14.553-11.212"/><path style="fill:#8f0028" d="m88.326 108.961 21.929 75.308 14.553 11.212L88.326 70.422"/><path style="fill:#8f0028" d="m147.61 232.798-14.421-8.631-8.382-28.686H51.822L88.326 70.422V56.837c2.621 0 5.197.094 7.686.232L94.817 52.9a28.17 28.17 0 0 0-.984-.044 105.005 105.005 0 0 0-5.507-.149c-2.223 0-4.39.072-6.502.193L75.72 73.839l-2.079 7.21c-.011 0-.022 0-.022-.006l-13.79 47.336c-1.77 6.137-5.363 11.583-10.848 15.769 2.057 5.861 3.638 10.053.796 19.768l-18.18 62.147a44.532 44.532 0 0 1-2.61 6.734h25.888l-11.656-7.873 8.604-29.443 8.006 11.197h56.961l3.926 13.38c1.04 3.661 1.637 8.819 1.04 12.739M88.326 30.618 84.057 45.26c1.404-.055 2.831-.094 4.269-.094"/><path style="fill:#c4cdd3" d="M75.72 73.839c-13.215-1.581-22.604-5.568-22.604-10.207 0-5.341 12.363-9.787 28.708-10.732 2.112-.122 4.28-.193 6.502-.193 1.88 0 3.715.055 5.507.149.332.011.664.022.984.044 16.333.946 28.708 5.38 28.708 10.732 0 4.639-9.4 8.625-22.615 10.207h-.011l2.079 7.21c.011 0 .022-.006.033-.006 17.019-2.554 29.228-9.361 29.228-17.411 0-9.582-17.406-17.472-39.645-18.374-1.404-.055-2.831-.094-4.269-.094s-2.864.039-4.269.094c-22.283.901-39.655 8.792-39.655 18.374 0 8.05 12.186 14.862 29.216 17.411 0 .006.011.006.022.006"/><path style="fill:#003263" d="M173.531 234.385h-2.024v5.519h-1.371v-5.519h-2.023v-1.199h5.419m9.177 6.717h-1.371v-5.347h-.033l-1.946 5.347h-1.327l-1.868-5.347h-.033v5.347h-1.371v-6.718h2.366l1.56 4.385h.044l1.614-4.385h2.366v6.718z"/></svg>