<svg xmlns="http://www.w3.org/2000/svg" viewBox="0 0 778.7 815.7" style="enable-background:new 0 0 778.7 815.7" xml:space="preserve"><path d="M567 170.9h-.6c-2.5-.1-5-.1-7.5-.1-13.9 0-25.4 1.2-31 1.8l-3-.5c-18.4-8.7-37.7-11.6-37.7-11.6l-1.2-2.4c-17.4-36-48-89.7-95-140.8-5.1-5.2-8.1-8-11.4-10.8-1.4 4.4-2.7 8.7-3.9 13.2-3.6 12.3-6.3 28.3-5.7 55.7.2 11.7-1.5 42.9-15.3 67.6-8.3 14.8-21.3 27-42.2 41.2l-.2.1-9.6 6c-9.9 5.8-23.3 13.9-33.9 21.8-32.9 24.6-56 53.3-71.2 83.5-31.8 8.5-64.7 20.4-97.2 36.8-.2.1-.4.1-.6.2.1 0 .2 0 .3-.1-.2.1-.3.2-.5.2h.1c.3-.1.6-.2 1-.3 6.1-1.1 38.3-6.6 85.1-8.9h.5-.4c-24 70.4-10.1 144.5 18.7 192 .4.7.8 1.4 1.2 2.2 5.3 9.3 11.4 18.1 18.4 26.2h.1c-12.7 8.2-24 19.1-40.3 38.5-.1.1-.2.2-.3.4l-19.9 26.4-15.8-75H96.1l.2.3c.4.6.7 1.5 1 2.2v.1-.1c-.2-.7-.5-1.5-1-2.2l-.2-.3-6.4 6.4.2.3c.4.7.6 1.5.8 2.2 1.4 4.7 1 10.8-1 18.5l-43.2 139C39.1 723.7 9 742.3 8.7 742.5L6.4 744l2.7.2c.1 0 4.6.4 11.4.4 5.9 0 13.6-.3 21.7-1.5 23.3-3.3 39-11.7 47.1-25.2 1.1-1.7 3.2-5.3 4.6-7.8v-.1c6.5-10.4 9.8-21.5 11.1-25.8l14.4-47.2v.1l17.6 83 5.8-4.4v-.2l51.2-68.7.1.1-1.8 5.8-23.4 75.3-.4 1.1h57.2l6.7-6.7-.3-.2.2-.2c-1-3.6-1.7-6.1-2.3-8.8-.7-4-.7-5.6-.1-9.4.3-2.4 1-5 2-8.4L267.8 580c.2-.5.3-1 .5-1.5 0-.1 0-.1.1-.2 0 .1-.1.2-.1.3 6.3 3.8 12.8 7.3 19.5 10.6h.1c2.5 8.9 10.7 15.1 19.9 15.1 3.6 0 7.1-1 10.2-2.7 16 5.4 33.9 9.8 54 12.5.2-.1.5-.3.7-.4h.2c-.2.1-.5.3-.7.4-.9.5-1.7 1.1-2.6 1.7-.1.1-.2.2-.3.2-3.7 2.1-7.2 4.5-10.6 7.2-10.1 7.7-17.2 17-22.5 26.5-5.1 9.2-8.4 19.1-9.6 28.7-4.8 3-9.9 4.6-14.5 4.6-3.1 0-5.6-.9-6.8-2.5-1.1-1.5-1.3-3.9-.5-6.6l20.6-67.6h-28.3c-4.1 0-8.3 1.8-11.6 4.8l-.2.2c-3.4 1.5-6.4 3.7-8.9 6.4-2.7 2.8-4.4 5.8-5.2 8.4l-12.4 40.7c-4.3 14.1-2.3 27.8 5.6 38.6 8.7 11.9 24.9 18 36.3 18 8.8 0 16-1.6 22.9-5.2 4.2-2 8.2-4.7 12.3-8.3l.7-.5c3 4.1 6.8 7.7 11.2 10.3 6.3 3.7 13.5 5.6 21.4 5.6 11.4 0 22.4-3.7 32.8-10.9 4.4 31.1 11.1 51.7 21.8 66.5 9.5 13.2 19.8 17.9 21.8 18.7.1 0 2.6 1.2 6 2.4 8.1 2.7 16.7 5.2 21 6.4.1 0 .1.1.2.1l.3.1-11.3-20.3-3.1-5.8c-.5-1-11.8-23.5-13.5-57.8 4.8-.6 9.6-1.7 14.3-3.1h37.8l8.8-6.6 18.2-59.6c1-3.6 3.9-7.7 7.9-10.9l.1-.1c3.3-1.2 6.3-1.2 7.8.2 1.6 1.5 1.8 4.8.6 8.8L520 721.7h42l8.1-6.6h-.2.3l17.8-58.4v-.2c1-3.9 4-8.1 7.8-11.6.3-.2.6-.3.8-.4 3.4-1.5 6.6-1.4 8.2.1 1.6 1.5 1.8 4.8.6 8.8l-4.4 14.4c-4.8 16.2-2.9 31.3 5.3 42.4 2.4 3.1 5.2 6.5 11.6 10.2 5.9 3.4 12.9 5.1 20.8 5.1 12 0 25.4-3.9 39.9-11.7 8.1 7.9 19.5 12.4 31.5 12.5h25.7l6.8-6.4h.1l10.5-34.4h-31.5c-3.1 0-5.6-.9-6.8-2.5-1.1-1.5-1.3-3.9-.5-6.6l21.2-69.8h-28.3c-2.7 0-5.5.8-8 2.2-5.4 1-9.1 3.4-11.7 6.2-3.8 3.7-5.2 8.5-6.1 11.4l-14 46.4c-1 3.1-2.8 6.1-5.4 9 0 0-.1 0-.1.1-4.3 2.4-8.9 3.7-12.9 3.7-.8 0-2.2-.1-2.9-1-.9-1.2-.8-4.4.3-8l5.4-17.6c6.5-21.3 2.2-39.4-11.5-48.2-7.8-5.1-17.8-6.5-28.8-4.1-8.5 1.9-17.4 6.1-26 12.3-4.4-5.8-11-10.1-18.6-12.1-9-2.4-19.1-1.7-28.8 1.8l.6-2h-28.3c-4.1 0-8.2 1.8-11.5 4.7-.3.3-.6.5-.8.8.3-.3.6-.6.9-.8-1.2.5-2.4 1.2-3.6 1.9-5.7 3.4-9.5 9.3-10.7 13.1L470 673.8c-1.3 3.9-3.7 7.8-6.8 11.2h-.1c-2.9 1.4-5.8 2.2-8.5 2.2-3.1 0-5.5-1.1-7-3.1-2.1-2.9-2.4-7.6-.6-12.8l19.6-64.5-11.5-.1c.3-2.6.5-5.1.6-7.5v-.3c.3-1.5.7-2.1 2.2-4.1 3.7-4.8 12.6-16 20.4-25.5 12.7-14.3 23.5-26.8 33.6-38 24.8-27.6 51.4-40.1 51.6-40.2l18.6-8 2.6-.8h.3-.1.1-.2l-.9-.3c-2.9-1-5.7-2.1-8.6-3.1-8.5-2.9-16.8-4.5-23.4-4.5-23 0-49 12.4-77.2 36.8-11.2 9.7-46.4 42.5-46.8 42.9l-1.6 1.5c-6.9 6.4-19.7 18.4-31.8 18.5-8 0-21.3-3.5-31.5-11.2-29.1-21.9-45.9-52.7-53.4-100-1.9-10.7-4.2-23.5-4.1-37.6v.2c.9-7.9 2.1-14.3 3-18.4.1-.1.1-.1.1-.2.3-1.6.7-3.1 1.1-4.7.9-3.7 2-7.4 3.2-11 24-23.7 54.4-39.7 75.3-49.4 22.4-10.4 46.6-18.6 69.9-24 20.1-4.7 39.4-7.3 56-7.3h4.6l36.5-35.6 119.1-12.8c-11.1-8.3-32.3-19.8-64.8-20.4-4.3-.1-8.9.1-14.4.5l-48.6 3 2.7-7.8c3.1-9 10.4-16.5 19.6-20 28.8-10.9 176-65 190.3-70.3l5-4.9h.1l7.3-7.1L567 170.9zM209.5 292.6l-.3.1c0-.1.1-.1.1-.2l.3-.1-.1.2zM194.8 579zm191.7 68.7 5.3-2.2v.2l.4 2.7c.7 4.9 2.5 15.8 4.6 30.5v.1l-.2.9c-7 5.4-14.6 7.8-19.2 5.6-1.7-.8-3-2.3-3.9-4.5-1.8-4.7-1-11.7 2.2-18.6 2.6-5.2 6.3-10.5 10.8-14.7zM724 557.4c11.9 0 21.5 9.7 21.5 21.5 0 8.5-5.1 16.3-12.9 19.7-.1 0-.1 0-.2.1-2.7 1.1-5.5 1.7-8.4 1.7 2.9 0 5.8-.6 8.4-1.7.1 0 .1 0 .2-.1-.3.2-.6.5-1 .7-3.8 3.4-8.7 5.3-13.8 5.3-11.4 0-20.7-9.3-20.7-20.7 0-6.8 3.3-13.1 8.8-17l.6-.6c1.1-1.4 2.3-2.8 3.6-3.9 4-3.2 8.9-5 13.9-5z"/><path d="m771.9 134.3-7.3 7.1-30.2 7.8-137.1 24.7-22.9 4.1-6.7 1.2c-23.6-.9-37.8 4.5-42.6 2.1-4.8-2.4-14.1-7-32.7-11.3-3.4-.7-7-1.5-10.9-2.2-9.8-20.8-20.8-41.2-32.9-60.8-.7-1.1-1.9-3.1-3.3-5.2-.9-1.5-1.8-2.9-2.7-4.3-6.8-10.6-13.9-20.9-21.4-31-8.7-11.8-18.3-23.8-28.7-35.7-2.6-2.9-5.3-5.9-8-8.9-4.2 12.5-5.3 23.7-5.5 34.9-.1 3.4-.1 6.7-.1 10.1v3.4c.1 20.5-1.2 43.4-11.6 67.4-1.2 2.2-2.6 6.3-10.9 18.6-2.2 3.2-4.6 6.2-7.3 9-16 17.1-29.3 24.2-37.3 29.1-6.3 3.7-12.4 7.5-18.5 11.5-22.5 14-41 29.9-56.2 47.3-10.7 12.1-19.9 25.3-27.7 39.4l.5-.1c12.8-3.1 25.7-5.8 38.6-7.9 7.1-1.2 14.1-2.2 20.9-3.1 50.9-6.6 94-5.1 119.5-1.5-18.3 6.7-36.8 15.2-54.4 25.4-64.7-2.9-151.6.4-234.6 27.4h-.1c32.7-16.6 65.9-28.6 97.9-37.1 15.2-30.2 38.3-58.9 71.2-83.5 10.6-7.9 24.1-16 33.9-21.8l9.6-6 .2-.1c20.9-14.2 33.9-26.4 42.2-41.2 13.8-24.7 15.5-55.9 15.3-67.6-.5-27.3 2.1-43.4 5.7-55.7 1.2-4.4 2.5-8.8 3.9-13.2 3.2 2.8 6.2 5.6 11.4 10.8 47 51.1 77.6 104.8 95 140.8l1.2 2.4s19.2 2.9 37.7 11.6l1.4.7 1.6-.2c5.6-.7 17.1-1.8 31-1.8 2.5 0 5 0 7.5.1h.6l204.8-36.7zm-318.5 25.3c-10.5-20.4-29.3-54.5-55.2-89.5 0 1.7 0 3.4.1 4 3.4 48.1-13.6 83.2-28.4 103.2 22.5-9.5 50.9-17.4 83.5-17.7zM309.9 462.4c-1.9-10.7-4.2-23.5-4.1-37.6-.3 2.4-.5 5-.7 7.7-1.1 13.1-1.3 29.8 1.7 47.6 13.5 72.4 65.3 96.4 69.4 98 18.2 7.7 31.3 1.9 34.6-.5 4.8-3 10.1-7.1 15-11.5l29.4-25.9 22.2-19.3 4.1-3.6c3.1-2.7 6.3-5.3 9.5-7.8 5.5-4.4 11.3-8.4 17.3-12.1.9-.5 1.8-1.1 2.7-1.6 14.9-8.7 26.7-12.1 35.1-13.1 12.5-1.7 19.3 2.2 19.3 2.3h.2c6.1-1.7 13.9-2.4 19.8-2.9l-1.1-.4c-2.9-1-5.7-2.1-8.6-3.1-8.5-2.9-16.8-4.5-23.4-4.5-23 0-49 12.4-77.2 36.8-11.2 9.7-46.4 42.5-46.8 42.9l-1.6 1.5c-6.9 6.4-19.7 18.4-31.8 18.5-8 0-21.3-3.5-31.5-11.2-29.2-22.1-45.9-52.9-53.5-100.2zM188.2 347c1.9-8.1 4.3-16.1 7.2-23.9h-.1c-3.2.1-6.4.2-9.5.4-24.4 71.5-9.7 146.8 20.1 194.2-32.9-58.1-26-125.7-20.9-154.3.8-5.4 1.9-10.9 3.2-16.4zM230 713.4c.6 2.7 1.3 5.2 2.3 8.8h-54.8l28.2-91-11.7 15.7-51.2 68.8-19.4-91.7-4 13.1-14.4 47.2c-1.2 4.3-4.5 15.4-11.1 25.8-1.8 2.9-3.8 5.6-6.1 8.2-1 1.1-2.4 2.8-4.7 4.9-7.9 6.6-20.6 11.4-36.6 13.7-7.9 1.2-16.4 1.9-22.3 2 5-3.9 11.2-9.4 16.7-15.7 3.9-4.3 8.8-11.2 12.4-21.4 2.6-7.4 38.4-123.4 42.4-136.6l.2-.5c.5-1.7 1-3.3 1.3-4.8.2-1 .5-1.9.7-2.9 1.2-6 1-8.7 1-9 .1-4.3-.5-8.1-1.6-11.1-.2-.7-.5-1.5-1-2.2l-.2-.3h51.8l15.8 75 1.9 8.8.9-1.2c7.8-10.5 18.4-24.8 28.4-37.9l.2-.2c18.1-21.5 29.6-32.1 44.1-40.4 7.5-4.2 15.7-7.4 24.1-9.4 9.4-2.3 17.9-2.9 24-2.9 13.9 0 19.9.8 19.9.8-5.6 4.6-8.4 6.8-13.8 11.7-10.9 9.4-19.2 22.6-25 40.1-.2.5-.3 1-.5 1.5L232 695.7c-1 3.4-1.7 6-2 8.4-.7 3.7-.7 5.3 0 9.3zm-6.7-10.1c.4-2.8 1.1-5.7 2.2-9.5l35.9-115.4c6.1-19.6 15.1-34.3 27.6-44.8l.9-.8h-2.7c-11.2 0-28 1.9-44.8 11.3-13.8 7.9-24.9 18-42.4 38.9-9.9 12.9-38 50.7-38 50.7l-19.5-92.9h-37.8l.2.6c.8 3.3 1 7.2.3 11.8-.6 4.4-1.5 8.2-2.9 13.3-.4 1.3-40 129.6-42.7 137.4-4.4 12.8-10.9 21-15.6 25.7l-.9.9 1.3-.1c26.3-2.7 35.5-13 38.6-16.4 9.8-10.8 14.3-26.3 15.7-31.4l25.9-84.8 21.6 102.4 77.3-103.8-36.8 118.8-.2.6h37.3l-.2-.6c-.8-3.4-.9-7.2-.3-11.9zM399 660.9c-1-6.3-1.9-11.7-2.8-16.5-1.4.2-2.9.5-4.4 1.1v.2l.4 2.7c.7 4.9 2.5 15.8 4.6 30.5l3.2-10.7c-.2-2.3-.6-4.8-1-7.3zm-85.2-103.5c11.9 0 21.5 9.7 21.5 21.5 0 8.5-5 16.1-12.7 19.6-.2 0-.3.2-.4.2-2.7 1.1-5.5 1.7-8.4 1.7-11.9 0-21.6-9.6-21.6-21.5 0-4.4 1.4-8.7 4-12.4 1.1-1.5 2.4-2.9 3.8-4.1 3.9-3.2 8.8-5 13.8-5zm0 6.6c-8.2 0-14.9 6.7-14.9 14.9s6.7 14.9 14.9 14.9 14.9-6.7 14.9-14.9S322 564 313.8 564zm388.7 14.9c0-4.5 1.5-8.9 4.1-12.6 1.1-1.5 2.3-2.8 3.6-3.9 3.9-3.2 8.7-5 13.8-5 11.9 0 21.5 9.7 21.5 21.5 0 8.5-5.1 16.3-12.9 19.7-.1 0-.1 0-.2.1-2.7 1.1-5.5 1.7-8.4 1.7-11.8 0-21.5-9.6-21.5-21.5zm6.7 0c0 8.2 6.7 14.9 14.9 14.9s14.9-6.7 14.9-14.9-6.7-14.9-14.9-14.9-14.9 6.7-14.9 14.9zm12.5 106.5h31.5l-10.5 34.4h-27.9c-9.9-.1-18.9-2.7-26-7.5-1.8-1.2-3.6-2.7-5.1-4.2-12.1 7.8-25.7 11.9-39.3 11.9-13.6 0-25-5.1-31.9-14.3-7.3-9.8-8.9-23.2-4.6-37.8l5.2-16.6c1.7-4.9 1.6-8.7-.2-10.3-1.9-1.8-6.3-1.9-10.5-.1-2 .8-4.1 2.2-6.1 3.9-.1.1-.2.3-.4.4-3.9 3.4-6.8 7.7-7.8 11.6v.2l-17.8 58.4H529l19.9-65.6c1.3-4.3 1.1-7.8-.6-9.4-1.7-1.6-5.3-1.7-9.1-.1-2.1.9-4.1 2-5.9 3.4-.4.3-.7.6-1.1.9-3.9 3.3-6.9 7.4-7.9 10.9L506 715.2h-39.7c-17.4 6.1-32.7 5.8-44.4-.7-3.3-1.9-6.3-4.2-8.8-7-.9.7-1.8 1.3-2.9 2-.9.6-1.7 1-2.6 1.6-.3.2-.6.4-.9.5 7.1 37.9 19.5 76.7 46.8 80.9 5.9 5.8 12.4 11.1 19.1 16.1-4.2-1.2-13-3.7-21.2-6.5-3.4-1.1-5.8-2.3-6-2.4-1.9-.8-12.3-5.4-21.8-18.7-10.7-14.8-17.4-35.4-21.8-66.6.5-.3.9-.6 1.4-.9l.8-.6c-9.4 5.1-19.2 7.8-28.6 7.8-8 0-15.3-1.9-21.6-5.7-4.1-2.4-7.8-5.7-10.7-9.5-2.2 1.4-4.4 2.7-6.7 3.9-.2 0-.3.1-.4.2-.1 0-.2.1-.2.1-9.7 5-20.3 7.6-30.4 7.6h-.2c-14.9-.1-27.6-5.9-35-15.9-6.9-9.4-8.6-21.5-4.8-34l14.8-48.4c.2-.5.3-.9.5-1.5l.1-.2c.2-.4.3-.7.5-1.1l.2-.4c.2-.3.4-.7.6-1l.2-.3c.8-1.2 1.8-2.4 2.9-3.4 3.3-3 7.5-4.8 11.6-4.8h28.3l-20.6 67.6c-.8 2.7-.7 5.1.5 6.6 1.2 1.6 3.6 2.5 6.8 2.5 4.6 0 9.8-1.7 14.5-4.6 3-1.9 5.8-4.2 8.1-6.9 1.1-11 5.3-22.2 12-32.5 6-9.2 13.8-17.1 22.8-23.2.9-.6 1.7-1.1 2.6-1.7.2-.1.5-.3.7-.4 3.1-1.9 6.2-3.4 9.3-4.8 14.6-6.1 29.3-6.3 41.1-.5 1.5.7 2.9 1.5 4.2 2.4 3.3-2.8 7.3-4.4 11.2-4.4H467l-19.6 64.5c-1.8 5.2-1.5 9.9.6 12.8 1.5 2 3.9 3.1 7 3.1 2.7 0 5.6-.8 8.5-2.2.3-.1.6-.2.9-.4 6.9-3.7 12.7-10.5 15.1-17.7l14.5-47.4c.1-.5.3-1 .5-1.5l.1-.3c.2-.4.4-.7.5-1.1l.2-.4c.2-.3.4-.6.6-1l.3-.5c.9-1.3 1.9-2.4 3.1-3.4 3.3-2.9 7.5-4.7 11.5-4.7H539l-.6 2c9.7-3.5 19.9-4.2 28.8-1.8 7.6 2 14.2 6.3 18.6 12.1 8.6-6.2 17.5-10.4 26-12.3 11-2.4 20.9-1 28.8 4.1 13.7 8.8 17.9 26.9 11.5 48.2l-5.4 17.6c-1.1 3.6-1.2 6.8-.3 8 .6.8 2.1 1 2.9 1 4 0 8.6-1.3 12.9-3.7.1-.1.2-.1.3-.2 6.9-3.9 12.3-9.9 14.1-15.8l14-46.4c.2-.5.3-1 .5-1.5l.1-.3c.2-.5.4-.8.5-1.1l.2-.4c.2-.4.4-.7.6-1l.2-.3c1.7-2.5 4-4.6 6.7-6.1 2.5-1.4 5.3-2.2 8-2.2h28.3l-21.2 69.8c-.8 2.7-.7 5.1.5 6.6 1.2 2.1 3.6 2.9 6.7 2.9zM744 692h-22.4c-5.3 0-9.6-1.8-12.1-5.1-2.4-3.3-2.9-7.7-1.5-12.5l18.6-61.3h-19.4c-4.4 0-9.2 3.6-10.5 8l-14 46.4c-4 13-19.7 24.4-33.6 24.4-3.5 0-6.4-1.3-8.2-3.6-2.3-3.1-2.5-7.9-.7-13.9l5.4-17.6c5.6-18.4 2.3-33.6-8.7-40.7-13.3-8.6-34-3.6-53.1 12.7-2.9-7.6-9.2-13.1-17.9-15.5-12.3-3.5-27-.1-38.7 8.8l2.7-8.9h-19.4c-4.4 0-9.2 3.6-10.5 8l-14.6 47.5c-4.6 13.7-18.4 24.9-30.7 24.9-5.3 0-9.7-2.1-12.4-5.8-3.4-4.7-3.9-11.5-1.5-18.8l17-55.9h-19.3c-4.1 0-8.5 3.1-10.2 7.1-2.4-2.3-5.2-4.3-8.2-5.8-10.2-4.9-22.8-4.7-35.6.7-12.8 5.3-24.2 15.2-32.4 27.6-6.5 10-10.4 20.8-11.1 31.4-6.9 9.2-18.8 15.7-29.1 15.7-5.3 0-9.6-1.8-12.1-5.1-2.4-3.3-2.9-7.7-1.5-12.5l17.8-59.1h-19.4c-4.4 0-9.2 3.6-10.5 8l-14.8 48.4c-3.2 10.5-1.9 20.5 3.8 28.2 6.1 8.3 16.9 13.1 29.5 13.2h.3c13.7 0 28.1-5.3 39.6-14.8 2.8 5.7 7 10.2 12.3 13.3 5.4 3.2 11.7 4.8 18.4 4.8 12.6 0 26.6-5.7 38.6-16.4 4.8 8.1 12.6 13.1 22.6 14.5 10.8 1.5 23.9-1.3 38-8.1l-1.2 4.1h27.4l16.3-53.5v.2l.4-1.4c2-7.7 10.1-16.2 18.7-19.7 6.3-2.6 12.3-2.2 16 1.3 3.8 3.4 4.6 9.2 2.5 16.2l-17.4 57h27.4l16.3-53.7c2.2-8.1 10-16.8 18.3-20.2 6.8-2.8 13.7-2.2 17.6 1.4 3.8 3.6 4.5 9.7 2 17.2l-5.1 16.4c-3.7 12.6-2.5 23.9 3.5 32 5.6 7.5 15.1 11.7 26.6 11.7 18.1 0 32-7.6 40.5-14.1 6.1 8.8 17 13.9 30 14h23L744 692zm-324.1-43.3-6.8 22.5c-.8 1.2-1.5 2.4-2.3 3.5-10.2 14.1-25.9 21.5-36 16.9-3.3-1.5-5.8-4.4-7.3-8.2-2.4-6.4-1.6-15.1 2.4-23.7 7.3-15.9 22.1-27.3 34.4-27.3 1.5 0 3.1.2 4.6.6 6.6 1.9 10.7 7.6 11 15.7zm-6.7-.7c-.4-4.7-2.4-7.5-6.2-8.5-.9-.2-1.8-.4-2.9-.4-3.9 0-8.6 1.7-13.2 5-.7.5-1.4 1-2.1 1.6-.7.6-1.4 1.1-2.1 1.8l-.3.3c-4.5 4.2-8.2 9.4-10.7 14.8-3.1 6.9-4 13.9-2.2 18.6.8 2.2 2.1 3.7 3.9 4.5 4.6 2.1 12.3-.2 19.2-5.7.7-.5 1.4-1.1 2.1-1.7 3.1-2.9 5.9-6.1 8.2-9.7l6.3-20.6z" style="fill:#00a3e0"/><path d="M307.3 396.8c-3.4 3.7-6.7 7.6-9.7 11.7-4.3 5.1-10.6 15.4-14.2 22.5 0 0-1.2 2.3-1.3 2.6-5.1 10.5-9 21.6-11.7 32.9-.7 7.9-.6 15.8.3 23.7 2-18.6 7.5-36.7 16.2-53.3.4-.8.8-1.6 1.3-2.3 3.2-5.8 6.8-11.4 10.9-16.6 3.1-4 6.4-7.9 9.9-11.6.3-1.6.7-3.1 1.1-4.7.9-3.7 2-7.4 3.2-11-2 2-4.1 4-6 6.1z" style="fill:#fff"/><path d="m555.5 360.7-.4-.5.5-.4 3.1-2.4c8.5-6.6 6.4-16.9 5.6-19.9l-.2-1 1 .1c2.8.4 5.6.9 8.3 1.5l.4.1.1.4c.6 4.2 1.3 14.8-6.5 23 2.4 4.2 5.9 12.4 4.6 23l-.1.7-.7-.1c-2.5-.4-5.1-.7-7.6-.9h-.7l.1-.7c1.4-11.8-4.9-19.7-5-19.8l-2.5-3.1zm-18.6 4.1c.3.2 7.3 6 6 18.7l-.2.8h.8c2.6-.2 5.2-.3 7.8-.4h.6v-.6c.9-11.1-3.3-18.5-6.1-22.1 7-9 6.6-19.7 5.8-25.3l-.1-.5h-.5c-2.6-.1-5.2-.1-7.8 0h-.7l.2.7c.7 3.2 2.2 14.3-5.9 21.9l-3.3 3.1-.5.5.6.5 3.3 2.7zm40.8-.2c.2.4 4.7 9.7.5 21.1l-.3.7.7.2c2.6.6 5 1.4 7.3 2.2l.6.2.2-.6c2.9-8 2.9-16.7.2-24.8 2.9-3.6 6.4-9.3 5.8-18v-1.2l-.3-.2c-2.7-1.2-5.4-2.2-8.2-3.1l-1-.3.2 1c.2 1.5.4 3 .5 4.4.3 4.8-1.7 10-5.1 12.8l-2.3 2-.4.3.2.5 1.4 2.8zm17 6.2c.1.4 3.2 9.9-2.1 20.3l-.2.5.6.3c2.3 1.2 4.5 2.5 6.5 3.9l.6.4.3-.6c3.9-7.5 5.2-16 3.7-24.2 3.2-2.4 5.6-5.8 6.6-9.7.4-1.4.6-2.9.7-4.6v-.3l-.2-.2c-2.7-2.3-5.5-4.4-8.4-6.3l-1.4-.9.4 1.6c.8 3.2.8 6 .2 8.3-.7 2.6-2.4 4.6-5.2 6.1L594 367l-.5.2.2.5 1 3.1zm-124.3 8.4c.4.3 8.5 4.4 9.5 17.7l.1.8.7-.2c2.5-.8 5-1.6 7.5-2.3l.5-.2-.1-.5c-1.4-11.4-7-17.7-10.4-20.6 5.8-12.6 1.7-25.4 1.2-26.9l-.2-.6-8 2.6-.6.2.2.6c0 .1 4.2 12.5-2.4 23l-2.4 3.7-.4.6.7.3 4.1 1.8zM295.9 566.9c-5.5 3.9-8.8 10.2-8.8 17 0 1.9.3 3.9.8 5.6 2.5 8.9 10.7 15.1 19.9 15.1 5.1 0 10-1.9 13.8-5.3.4-.2.7-.5 1.1-.8-.1.1-.2.2-.4.2-10.9 4.6-23.6-.5-28.2-11.4-1.1-2.7-1.7-5.5-1.7-8.4 0-4.5 1.4-8.8 4-12.4-.2.1-.4.3-.5.4zm313.5-190.5.1.5.8 2.9c0 .1 2.4 9.7-4.8 19.9l-.3.5.4.4c1.7 1.6 3.3 3.3 4.9 5.1l.5.6.5-.6c7.5-9.9 8-19.6 7.5-24.7 5.8-5 6.1-7.4 6.2-9.1v-.5l-.2-.2c-1.1-1.5-2.2-3-3.5-4.4l-.5-.6-.9-1-.2 1.3c-.1.6-.2 1.2-.5 1.7-1 2.9-3.2 5.2-6.8 6.8l-2.7 1.2-.5.2zm-115 241.5.1-.3c.2-.4.3-.7.5-1.1l.2-.4c.2-.4.4-.7.6-1l.3-.5c.9-1.2 1.9-2.4 3.1-3.4-1.2.5-2.4 1.2-3.6 1.9-5.7 3.4-9.5 9.3-10.7 13.1l-14.8 47.4c-1.3 3.9-3.7 7.8-6.8 11.2.3-.2.6-.2.9-.4 6.9-3.8 12.7-10.6 15.1-17.8l14.5-47.4c.3-.3.5-.8.6-1.3zm-119-179.8 8.4-3.5-.2-.5c-3.3-11.6-9.9-18.7-12.8-21.3.5-10.7-3.1-19.6-3.9-21.3l-.2-.6-.6.2-7.7 3.5.2.5c0 .1 4.1 9.3 3.1 19.5l-.2 2.2v.4l.3.2 1.6 1.2c.1 0 8.2 6.3 11.7 18.8l.3.7zm69.9-54.4-.3.6.6.3 3.6 1.7c.1 0 8.4 4.3 10 17.4l.1.6.6-.1s5.5-1.7 7.6-2.4l.5-.2-.1-.5c-1.8-11.4-7.6-17.7-11.1-20.6 4.7-12.8.1-25.3-.1-25.9l-.2-.6-.6.2-7.2 2.8-.6.2.2.6c0 .1 4.4 11.7-1.1 22.2l-1.9 3.7zm174.3 7.7.2.6s1 2.1 1.2 3.1c.2 1.1 2.6 7.5-6.1 15.5l-.4.4.3.5c1.2 1.8 2.2 3.7 3.3 5.6l.4.7.6-.5c9.6-8.2 10.4-16.7 9.9-21.3 3.2-1.9 5-5.2 5.4-10v-.2l-.1-.2c-1.3-2.5-1.8-3.4-3-5.4l-.5-.8-1-1.6-.2 1.9c-.6 5.8-1.2 8.3-6.1 10.4l-3.9 1.3zM603.7 514l-.2.2c-2.3 3.2-4.7 6.3-7.3 9.3l-1.1 1.3 1.7-.2c2.8-.4 5.6-1 8.3-1.7h.2l.1-.1c3.3-3.4 6.3-7 9-10.6l1.3-1.7-2 .7c-3.4 1.2-6.7 2.2-9.8 2.8h-.2zm16.5-10.4.1-.2c2.1-3.4 3.9-7 5.5-10.7l.7-1.8-1.7 1-12.7 7.3-.4.2-.4 1c-1 2.4-2.2 4.7-3.5 6.9l-.8 1.4 1.6-.5c3.9-1.2 7.8-2.8 11.4-4.6h.2zm-287.4-48.8 8.7-3.4-.2-.6c-3.5-12-9.8-21.1-11.8-23.9-.6-11.4-2.1-18.3-2.1-18.4l-.2-.7-.7.2-7.3 2.7-.5.2.1.5s1.4 7.7 1.7 17.8v1.4l.1.2.7.9c.1.1 7.5 9.3 11.1 22.3l.4.8zm343.8 210.9 14-46.4c.2-.5.3-1 .5-1.5l.1-.3c.2-.5.4-.8.5-1.1l.2-.4c.2-.4.4-.7.6-1l.2-.3c1.7-2.5 4-4.6 6.7-6.1-5.4 1-9.1 3.4-11.7 6.2-3.8 3.7-5.2 8.5-6.1 11.4l-14 46.4c-1 3.1-2.8 6.1-5.4 9 .1 0 .2-.1.3-.2 6.9-3.7 12.3-9.8 14.1-15.7zM629 485.3l.1-.2c1.4-3.3 3.4-9.1 4.8-13.3-1.7 2.9-5.5 7.2-13.2 10.2l-.2.1-.1.2c-1 2.4-2 4.7-3 6.8l-.7 1.4 1.5-.5c.6-.2 6.2-2.3 10.7-4.6l.1-.1zm8.2-22.4.2-.1.1-.2c1.3-4 2.3-7.8 3.4-11.7l1.7-6.1-2.5 5.4c-1.8 3.6-5.8 9.9-10 11.4l-.4.2v.5c0 .1 0 3.2-3 5.6-.4.3-.7.6-1.1.8l-.2.1-.1.2c-.6 2.2-1.3 4.4-2.1 6.5l-.6 1.6 1.5-.9c3.6-2.1 9.6-6.3 10.2-11.4.4-.3 1.5-.9 2.9-1.9zm-4.9-60.1-2.7.6-.5.1v.5l.1 2.7c0 .1.2 8.1-8.1 16.4l-.3.3.2.4c.8 2 1.6 4.2 2.3 6.5l.3.9.7-.6c9.4-8.1 11.9-16.7 12.4-21.3 1.9-1.1 4.1-4 4.1-8.9v-.2c-.7-1.8-1.4-3.6-2.2-5.3l-.7-1.5-1-2.2-.2 2.4c-.2 3.9-1.3 8.5-4.4 9.2zm5.4 16.1h-2.8v.5l-.1 2.7c-.2 1.1-.5 7.8-9.4 14.1l-.4.2.1.4c.5 2.1.9 4.1 1.3 6.1l.2.9.8-.5c9.9-6.1 13-13.8 14.1-18.1.9-.5 2.2-1.6 3-3.4 1.2-2.4 2-6.5-.3-12.8l-.9-2.4-.3 2.6c-.5 4.2-1.5 7.2-2.7 8.7-.8.5-1.8 1-2.6 1zm6.2 18.3.1-.2c.9-2.8 1-4.8 1.2-6.7 0-.7.7-7.3.7-7.3l-1.8 5c-1.5 4.2-3.4 6.5-5.7 7.2-.4.1-.7.2-1.1.2h-.7l.1.7c0 .4 1.3 9.3-8.1 15.3l-.3.2v.3c-.1 1.5-.2 3-.5 5l-.2 1.3 1.2-.7c1.7-1 3.2-2.2 4.6-3.4 5.2-4.4 8-9.4 8.1-14.5.4-.4 1.4-1.2 2.4-2.4zm74 167.4c5.1 0 10-1.9 13.8-5.3.3-.2.7-.5 1-.7 0 0-.1 0-.2.1-2.6 1.1-5.5 1.7-8.4 1.7-11.9 0-21.5-9.6-21.5-21.5 0-4.6 1.5-9 4.1-12.6-.2.2-.4.4-.7.6-5.5 3.9-8.8 10.2-8.8 17 0 11.4 9.2 20.7 20.7 20.7zM422 714.5c-3.3-1.8-6.3-4.2-8.8-7-1 .7-1.9 1.4-2.9 2-.9.6-1.7 1-2.6 1.6 2.8 3.5 6.3 6.4 10.2 8.7 5.4 3.1 12.2 5.5 19.6 5.6h.8c2.2 0 4.5-.2 6.9-.5 4.8-.6 9.6-1.7 14.3-3.1h37.8l8.8-6.6h-39.7c-17.5 6.1-32.8 5.8-44.4-.7zm77.5-346.3c6.2-11.2 4.2-22.7 3.1-27.1l-.2-.6-.6.1c-2.4.5-4.9 1.2-7.5 1.8l-.6.2.2.6c.8 3.1 3 13.9-3.8 23.3l-2.4 3.3-.4.5.6.4 3.4 2.2c0 .1 8 5.5 9.3 18.2l.1.7.7-.2c2.5-.7 5.1-1.3 7.5-1.9l.5-.1-.1-.6c-1.3-10.8-6.6-17.6-9.8-20.8zm21.3 18.1v.5s6.1-.8 8.5-1.2l.5-.1v-.5c0-11.1-4.4-17.7-8.2-21.3 7-11.2 5.3-23.3 4.6-26.9l-.1-.6-.6.1c-2.4.3-5 .7-7.7 1.1l-.7.1.2.7c.3 1.4 2.9 13.8-5.4 23.5l-3.3 3.9-.5.6.7.4 4.6 2.2c.2 0 8 4 7.4 17.5zM407 639.5c-1-.2-1.9-.4-2.9-.4-3.9 0-8.6 1.8-13.2 5-.7.5-1.4 1-2.1 1.6-.7.6-1.4 1.1-2.1 1.8l-.3.3c1.9-1 3.7-1.7 5.3-2.3 1.5-.5 3-.9 4.5-1.1 3.2-.4 5.7 0 7.3 1 1.5.8 2.3 2.1 2.4 3.5l-5.8 19.4-3.2 10.7-.2.9c.7-.5 1.4-1.1 2.1-1.7 3.1-2.8 5.9-6.1 8.2-9.7l6.3-20.6c-.5-4.6-2.6-7.4-6.3-8.4zm-53 75.8c-4.1-2.4-7.8-5.7-10.7-9.5-1.1.7-2.3 1.5-3.5 2.2-1 .6-2.1 1.2-3.1 1.7 3 4.1 6.8 7.6 11.2 10.2 6.3 3.7 13.5 5.6 21.4 5.6 11.4 0 22.4-3.7 32.8-10.9.5-.3.9-.6 1.4-.9l.8-.6c-9.4 5.1-19.3 7.8-28.6 7.8-8 .1-15.3-1.8-21.7-5.6zm360.7 4.6c-9.9-.1-18.9-2.7-26-7.5-1.8-1.2-3.6-2.7-5.1-4.2-12.1 7.8-25.7 11.9-39.3 11.9s-25-5.1-31.9-14.3c-7.3-9.8-8.9-23.2-4.6-37.8l5.2-16.6c1.7-4.9 1.6-8.7-.2-10.3-1.9-1.8-6.3-1.9-10.5-.1-2 .8-4.1 2.2-6.1 3.9-.2.1-.3.3-.4.4.4-.2.7-.3.9-.4 3.4-1.5 6.6-1.4 8.2.1 1.6 1.5 1.8 4.8.6 8.8l-4.4 14.4c-4.8 16.2-2.9 31.3 5.3 42.4 2.4 3.1 5.2 6.5 11.6 10.2 5.9 3.4 12.9 5.1 20.8 5.1 12 0 25.4-3.9 39.9-11.7 8.1 7.9 19.5 12.4 31.5 12.5h25.7l6.8-6.4-28-.4zM599.6 528.5l-2 .3c-2.2.3-4.4.5-6.4.5h-.2l-.2.2c-3.1 3.1-6.3 6.2-9.6 9.1l-1.4 1.2 1.9-.1c1.7-.2 3.4-.3 5.3-.5h.2l.1-.1c3.7-2.9 7.3-5.9 10.8-9.1l1.5-1.5zm-50.9 121.2c1.3-4.3 1.1-7.8-.6-9.4-1.7-1.6-5.3-1.6-9.1-.1-2.1.9-4.1 2.1-5.9 3.4-.4.3-.7.6-1.1.9 3.3-1.3 6.4-1.3 8 .2 1.6 1.5 1.8 4.8.6 8.8l-20.7 68.3h42l8.1-6.6h-41.2l19.9-65.5zm-243.4 68c-14.8-.1-27.6-5.9-35-15.9-6.9-9.4-8.6-21.5-4.8-34l14.8-48.4c.1-.5.3-.9.5-1.5l.1-.2c.2-.5.4-.8.5-1.1l.2-.4c.2-.3.4-.7.6-1l.2-.3c.8-1.2 1.8-2.4 2.9-3.4-3.4 1.5-6.5 3.8-9.1 6.5-2.7 2.8-4.4 5.8-5.2 8.4l-12.4 40.7c-4.3 14.1-2.3 27.8 5.6 38.6 8.7 11.9 24.9 18 36.3 18 8.8 0 16-1.6 22.9-5.2 4.2-2 8.2-4.7 12.3-8.3-9.7 4.9-20.3 7.5-30.4 7.5zm272.6-173.6c-1.1 0-2.1 0-3.1-.1h-.2l-.2.2-.2.2-.2.2c-9.4 7.3-25.4 17.1-37.6 23.4 4.1-1.7 24.7-10.2 42.5-22.7l1.7-1.2h-2.7zM261 529.3c-.1 0-1.7.2-9 2.2-7.7 2.1-15.1 5.1-22.1 9-1.9 1.1-3.8 2.2-5.7 3.4-12.7 8.2-24 19.1-40.3 38.5-.1.1-.2.2-.3.4l-19.9 26.4 1.9 8.8.9-1.2c7.8-10.5 18.4-24.8 28.4-37.9l.2-.2c18.1-21.5 29.6-32.1 44.1-40.4 7.5-4.2 15.7-7.4 24.1-9.4l-2.3.4zm136.1-100.8.2.7 7.8-3.2.5-.2-.2-.5c-3.4-10.9-9.6-17.4-13.2-20.4 1.1-11.9-3.7-22.2-3.9-22.6l-.3-.6-.6.3-7 3.3-.6.3.2.6c0 .1 4.6 9.9 2.9 20l-.4 2.5-.1.4.4.2 2.2 1.4c.2-.1 8.5 5.3 12.1 17.8zm20.8-8.7.1.6 8.5-3.1-.1-.5c-2.8-11.1-9-17.7-12.6-20.7 2.3-12.2-2.4-23.2-2.7-23.7l-.2-.6-.6.2-7 3.1-.6.2.2.6c0 .1 4.5 10.5 1.5 20.7l-.8 2.9-.1.5.4.2 2.6 1.5c.1.1 8.5 5.2 11.4 18.1zm-76.4 5.8.2.2 1.2 1c.1.1 7.6 6.6 11.2 18.8l.2.7 8.5-3.4-.2-.5c-3.4-11.4-9.6-18.6-12.3-21.3-.2-6.8-1.9-14.9-3.2-20.5l-.2-.7-.7.3-7.3 3.1-.5.2.1.5c1.4 5.7 3 13.7 2.9 19.7v1.9zm-6.7 246.1c1.1-11 5.3-22.2 12-32.5 6-9.2 13.7-17 22.8-23.2-3.8 2.2-7.5 4.6-10.9 7.4-10.1 7.7-17.2 17-22.5 26.5-5.1 9.2-8.4 19.1-9.6 28.7.7-.5 1.5-.9 2.1-1.4 2.2-1.6 4.3-3.4 6.1-5.5zm103.7-260.1.1.6 8.6-3.1-.1-.5c-2.3-11.2-8.2-17.5-11.8-20.5 3.5-12.6-1.2-24.3-1.4-24.8l-.2-.6-.6.2-7.1 2.9-.6.2.2.6c0 .1 4.4 11 .2 21.4l-1.3 3.2-.2.5.5.3 3.1 1.6c.3.5 8.4 5.1 10.6 18zm-319 225.6 17.6 83 5.8-4.4-19.4-91.6-4 13zM97.3 536.8c-.2-.7-.5-1.5-1-2.2l-.2-.3-6.4 6.4.2.3c.4.7.6 1.5.8 2.2 1.4 4.7 1 10.8-1 18.5l-43.2 139C39.1 723.8 9 742.4 8.7 742.6L6.4 744l2.7.2c.1 0 4.6.4 11.4.4 5.9 0 13.6-.3 21.7-1.5 23.3-3.3 39-11.7 47.1-25.2 1.1-1.7 3.2-5.3 4.6-7.8-1.8 2.9-3.9 5.6-6.1 8.2-.9 1-2.4 2.8-4.7 4.8-7.9 6.6-20.6 11.4-36.6 13.7-7.9 1.1-16.4 1.9-22.3 2 5-3.9 11.2-9.4 16.7-15.7 4-4.4 8.9-11.2 12.4-21.4 2.6-7.4 38.4-123.4 42.4-136.6l.2-.5c.5-1.7 1-3.3 1.3-4.8.2-1.1.5-2 .7-2.9 1.2-6 1-8.8 1-9 .1-4.3-.6-8.1-1.6-11.1zM232 722.5l-1.2-.1.1-.1h-53.4l28.2-91-11.6 15.7-1.8 5.8-23.4 75.3-.4 1.1h57.2l6.7-6.7-.3-.2-.1.2zm213.7-524.3c-1.4 0-2.7 0-4.1.1-60.1 1.9-115.9 18.1-155.8 48.3-6.4 4.8-12.4 10-18.2 15.5-7 7-13.4 14.5-19.3 22.4 7.1-1.2 14.1-2.2 20.9-3.1 42.2-47 105.8-74.2 176.5-83.2zM211 408.2c.7 14.6 2.8 29.1 6.5 43.2-3.9-50.9 5-93.7 23.3-128.9-4.8-.1-9.7-.1-14.3-.1-11.7 26.8-16.9 55.7-15.5 85.8z" style="fill:#ef3340"/><path d="M734.8 149s-138.1 50.6-168.5 62c-30.4 11.5-29.7 40.1-29.7 40.1l2.3-.1 57-3.5c7.4-.5 14.8-.5 22.3-.2h.4c1.5.1 2.8.2 4.1.3.7 0 1.4.1 2.1.2 5.5.5 10.2 1.3 14.2 2.2.2 0 .6.1.8.2 12.4 2.9 17.2 6.9 17.2 6.9l-107.1 11.5-33.9 32.9-.2.2h-.1c-74.2-.5-216.7 46.2-242.2 147.8-1.2 4.6-2.1 9.2-2.7 13.8 0 .2-.2 1.3-.4 3.4v-.1c2.7-11.4 6.6-22.4 11.7-32.9.3-.7.7-1.3 1-1.9l.2-.3-.2.3-.3.5.6-1.2c3.6-7 9.9-17.3 14.2-22.5 3.1-4 6.3-7.9 9.7-11.7 1.9-2.1 4-4.2 6.1-6.3 24-23.7 54.4-39.7 75.3-49.4 22.4-10.4 46.6-18.6 69.9-24 20.1-4.7 39.4-7.3 56-7.3h4.6l36.5-35.6 119.1-12.8c-11.1-8.3-32.3-19.8-64.8-20.4-4.3-.1-8.9.1-14.4.5l-48.6 3 2.7-7.8c3.1-9 10.4-16.5 19.6-20 28.8-10.9 176-65 190.3-70.3l5.1-5-30.2 7.8.3-.3zM437.6 725.4c.1 4.2.4 8.4.8 12.6.5 5.3 1.4 10.7 2.4 15.9 2.7 13.7 6.3 24.1 8.8 30.2 1.5 3.7 4 8.4 4 8.4v.1c5.8 5.8 12.3 11.1 19.1 16.1l.3.1-11.3-20.3-3.1-5.8c-.5-1-11.8-23.5-13.6-57.8-2.3.3-4.6.5-6.9.5 0 .1-.3 0-.5 0zM565.4 485l-2.3.9h-.1l-1.1.4-.2.1c-.2.1-.7.3-1.5.6l-1.2.5c-5.1 2.4-16.3 8.2-29.6 18.8l-5.4 4.5c-10.1 9-23.2 23.6-24.2 24.8-21.7 23.4-47.7 56.5-48 56.9-1.8 2.5-2.5 4.2-3 6.5l-.3 2.1c-.1 1.2-.2 3.1-.4 5.2h7.3c.3-2.6.5-5.1.6-7.5v-.3c.3-1.5.7-2.1 2.2-4.1 3.7-4.8 12.6-16 20.4-25.5 12.7-14.3 23.5-26.8 33.6-38 24.8-27.6 51.4-40.1 51.6-40.2l18.6-8 2.9-1c-5.9.6-13.7 1.3-19.8 2.9.1.4 0 .4-.1.4zm-30.3-264.3c-34.2 11.4-39.6 32.9-39.6 32.9l25.9-1.6c3-25 13.7-31.3 13.7-31.3zM195.3 323.1c15.1-.6 30.2-.8 45.3-.5 19.7.3 40.7 1.3 62.5 3.4 9.9-7.6 20.3-14.5 31.2-20.8-64.7-2.8-151.6.4-234.6 27.4 2.1-.4 35.6-6.5 86-9.1 3.2-.1 6.4-.3 9.6-.4z" style="fill:#41748d"/></svg>