<svg xmlns="http://www.w3.org/2000/svg" xml:space="preserve" height="150.01" viewBox="0 0 150 150.007" width="150"><path d="M74.825.905C34.022.91.826 34.11.824 74.911c.002 40.803 33.198 73.999 74.001 74.001 40.8-.002 73.996-33.198 73.999-73.998C148.82 34.109 115.625.91 74.825.904" fill="#fff"/><path d="M75.05 4.892C36.199 4.892 4.708 36.39 4.708 75.24c0 38.851 31.49 70.34 70.342 70.342 38.851-.002 70.34-31.49 70.343-70.342C145.39 36.389 113.9 4.892 75.05 4.892" fill="#002b5c"/><path d="M75.05 7.055c-37.654 0-68.176 30.531-68.18 68.185.003 37.654 30.525 68.174 68.18 68.176 37.654-.002 68.176-30.522 68.176-68.176S112.704 7.055 75.05 7.055" fill="#fff"/><path d="M121.9 28.392C109.908 16.4 93.351 8.986 75.054 8.986c-18.3 0-34.858 7.414-46.847 19.406C16.215 40.387 8.801 56.945 8.801 75.245c0 18.297 7.414 34.854 19.404 46.846 11.992 11.99 28.549 19.404 46.849 19.404 18.297 0 34.853-7.414 46.846-19.404 11.992-11.992 19.404-28.549 19.406-46.846-.002-18.3-7.414-34.858-19.406-46.853" fill="#002b5c"/><path d="m74.08 15.165-.008.276-.01.175.17.061c.335.112.396.416.405.849 0 .157-.009.314-.014.459l-.133 4.17c-.011.547-.01 1.187-.47 1.272l-.174.045-.008.209-.01.244 5.973.193.863-1.9-.396-.018-.08-.002-.067.045c-.524.36-1.23.553-1.93.553-.134 0-.268-.007-.4-.018l-1.471-.166.069-2.156.75.024c.422-.003.916.069.982.234l.068.109.168.004.241.006.052-1.65-.277-.01h-.049l-.047.014a.795.795 0 0 1-.302.037l-.198-.002-1.347-.047.052-1.606c.193-.013.393-.021.602-.021.17 0 .346.005.521.012.613.019 1.076.087 1.397.422l.068.072.141.002.238.004.055-1.772-.277-.012h-.051l-.047.02a.629.629 0 0 1-.217.027c-.093 0-.201-.006-.316-.009l-4.516-.149zm-6.795.408-2.765.592.052.268.032.15.152.033c.648.176.631.401.787 1.037l.75 3.516-5.355-3.646-.217-.168c-.113-.075-.135-.083-.176-.141l-.041-.197-2.381.508.057.265.029.149.15.039c.637.175.638.403.789 1.037l.922 4.32c.05.231.088.426.088.588-.009.247-.06.419-.4.693l-.121.094.041.178.049.236 2.787-.592-.061-.267-.031-.147-.145-.037c-.656-.186-.64-.415-.797-1.049l-.765-3.603 4.99 3.42c.706.497 1.268.809 2.295.867l.314.023-1.357-6.388c-.052-.236-.092-.43-.092-.592.005-.244.061-.41.391-.676l.121-.094-.039-.179-.053-.237zm21.561 1.161c-1.085-.009-2.143.365-2.414 1.441a1.71 1.71 0 0 0-.061.447c.019 1.12 1.018 1.821 1.918 2.449.928.615 1.746 1.213 1.707 1.709a.643.643 0 0 1-.019.161c-.066.348-.593.557-1.194.554-.233 0-.462-.027-.648-.074-.961-.239-1.901-.827-2.494-1.527l-.442-.518.063 2.25.113.068a8.482 8.482 0 0 0 2.309.932c.469.118.926.17 1.357.17 1.482-.002 2.688-.649 2.965-1.703.03-.124.047-.247.047-.365-.028-1.052-1.03-1.739-1.936-2.387-.936-.626-1.775-1.264-1.728-1.684 0-.038.005-.077.013-.115.08-.338.407-.472.907-.48.236 0 .491.04.718.097.678.165 1.384.598 1.733 1.092l.301.422.127-.504.351-1.394-.166-.092a8.35 8.35 0 0 0-1.93-.74 6.67 6.67 0 0 0-1.597-.209zm-37.293 3.13-2.516 1.307.127.244.07.139.161-.01a.563.563 0 0 1 .068-.004c.593.019.656.239.961.791l1.66 3.19-6.135-2.086-.254-.104c-.129-.038-.151-.044-.209-.088l-.091-.179-2.161 1.125.129.246.073.138.158-.013c.011-.003.031-.002.052-.002.599.019.672.242.977.791l2.041 3.916c.165.315.277.547.272.75 0 .153-.05.32-.231.57l-.092.121.086.162.11.213 2.527-1.314-.125-.241-.068-.13h-.141c-.03-.003-.052 0-.068 0-.623-.02-.681-.241-.989-.795l-1.701-3.27 5.723 1.963c.546.192.998.33 1.547.33.271 0 .56-.037.892-.105l.313-.067-3.016-5.787c-.167-.318-.278-.549-.275-.752.002-.148.05-.315.228-.551l.09-.119-.084-.166-.109-.213zm49.927 1.754c-1.521-.002-2.891.658-3.552 1.879a3.468 3.468 0 0 0-.432 1.682c.005 1.702 1.186 3.368 2.984 4.346.95.51 1.96.767 2.92.767 1.5 0 2.88-.641 3.59-1.945.27-.497.4-1.049.4-1.612 0-1.592-1.02-3.277-2.92-4.292-.98-.56-2.02-.825-2.99-.825zm.51 1.407c.56 0 1.17.155 1.79.496 1.18.642 1.69 1.664 1.7 2.672 0 .485-.12.966-.36 1.394-.46.854-1.26 1.324-2.23 1.324-.54 0-1.13-.146-1.74-.478-1.196-.651-1.731-1.742-1.734-2.772 0-.464.112-.91.32-1.295v-.002c.474-.864 1.274-1.334 2.254-1.339zm-63.994 5.003-2.332 1.916.176.213.115.139.168-.072a.453.453 0 0 1 .197-.041c.313-.025.664.421.942.783l2.65 3.225c.255.299.596.696.582.984a.468.468 0 0 1-.088.273l-.101.151.138.168.153.177 2.33-1.916-.172-.211-.113-.134-.162.066a.544.544 0 0 1-.2.041c-.313.022-.672-.417-.941-.771l-2.649-3.227c-.26-.305-.604-.702-.587-.996a.47.47 0 0 1 .084-.271l.099-.151-.135-.162-.154-.184zm37.414.026c-13.233-.005-26.437 5.496-35.857 16.222a47.66 47.66 0 0 0-7.905 12.446l.237-.033a53.68 53.68 0 0 1 1.898-.196 45.774 45.774 0 0 1 7.158-10.994 45.83 45.83 0 0 1 9.465-8.201 45.942 45.942 0 0 1 25.108-7.451 45.725 45.725 0 0 1 30.276 11.416 45.872 45.872 0 0 1 9.32 11.277 6.77 6.77 0 0 1 1.7-.426h.02a47.798 47.798 0 0 0-9.96-12.197 47.527 47.527 0 0 0-31.46-11.863zm38.47.74-1.68.9.28.254.06.055.08.01c.44.033.93.316 1.34.683l.69.631-3.17 3.473c-.28.324-.65.739-.95.717a.602.602 0 0 1-.23-.051l-.15-.072-.14.15-.17.178 2.32 2.111.18-.203.1-.113-.06-.141a1.195 1.195 0 0 1-.09-.433c-.01-.275.17-.475.49-.821l3.23-3.555.71.651c.27.239.52.548.5.746 0 .036 0 .069-.01.102l-.05.148.14.133.13.117 1.64-.934-.27-.252-.03-.029-.04-.017c-.12-.047-.28-.165-.44-.311l-3.93-3.586c-.11-.126-.22-.234-.28-.338l-.02-.033-.05-.055-.13-.115zm-37.423 2.902c-16.7-.356-32.774 8.87-40.506 24.637a98.286 98.286 0 0 1 5.611-.14c9.004-.017 15.01-2.259 15.1-6.684l2.49.816c.005.269-.006.529-.017.789l1.328.444c-.179 12.456-16.196 14.964-22.01 15.236h-.002v2.1c2.597-.84 8.099-2.559 10.41-3.264v1.83l1.006-.305v-1.822A984.073 984.073 0 0 1 60.705 62.3v1.84l1.006-.272v-1.832c2.564-.664 8.233-2.06 10.805-2.67v1.844c.362-.085.695-.165 1.007-.236v-1.838l1.27-.289a375.456 375.456 0 0 1 7.699-1.649l1.955-.398v1.85l1.004-.198v-1.849a510.737 510.737 0 0 1 9.229-1.662l4.726-.748c2.674-.401 4.754.482 6.154 1.632.43.357.79.749 1.1 1.166.22.146.43.3.62.459 2.18 1.801 2.63 4.534 2.62 6.51v13.863c0 .311-.01.623.07.942l.27.129v.429c.19.278.49.55.95.819V69.616c2.77.305 4.61 1.564 5.74 3.11.21.142.39.302.58.459a7.666 7.666 0 0 1 1.71 2.134c.59-.34 1.17-.957 1.12-2.14-.01-.242-.1-.552-.41-.981-.38-.524-1.1-1.238-2.42-2.248a51.114 51.114 0 0 0-2.42-1.715c-.23-.151-.44-.31-.65-.472-2.43-1.878-3.78-4.465-3.92-7.545v-.371c0-2.396 1.05-4.888 2.97-6.387a43.85 43.85 0 0 0-20.41-18.1 43.915 43.915 0 0 0-16.623-3.664zM30.16 35.044l-1.691 2.223.195.154c.137.102.243.273.361.498l2.166 4.172-4.925-.873c-.19-.028-.349-.055-.407-.108l-.011-.011-.194-.137-1.703 2.236.217.168.123.096.141-.076a.636.636 0 0 1 .3-.094c.171-.005.302.147.475.342l3.234 3.416c.409.447.711.764.713 1.332v.156l.121.09.194.147 1.611-2.112-.217-.168-.133-.103-.142.09a.602.602 0 0 1-.299.107c-.176.016-.426-.204-.769-.574l-2.817-2.953 4.785.871c.305.052.554.093.815.093.329 0 .661-.066 1.09-.228l.255-.096-2.992-5.752 4.008 2.235c.178.14.274.267.272.418a.564.564 0 0 1-.049.218l-.069.172.172.133.194.145 1.851-2.436-.217-.164-.109-.084-.129.053a1.18 1.18 0 0 1-.447.107c-.192 0-.367-.079-.658-.238l-4.862-2.592c-.093-.071-.189-.215-.183-.316 0-.028.004-.06.021-.098l.076-.174-.175-.135-.192-.15zm93.92 4.621-.22.162-.15.106.06.174c.03.082.04.147.04.185-.01.08-.01.078-.11.139-.11.049-.29.079-.47.109l-5.06.826c-.36.063-.68.134-.98.131-.3-.002-.58-.059-.89-.254l-.14-.092-.16.12-.18.138 1.68 2.407.23-.161.14-.103-.05-.168a.78.78 0 0 1-.05-.256c-.02-.14.07-.191.64-.307l1.53-.298 1.76 2.502-.79 1.357c-.14.241-.24.416-.31.51-.06.085-.07.076-.07.082 0 .005-.12-.034-.31-.168l-.14-.096-.17.115-.19.139 1.85 2.635.22-.155.14-.093-.04-.157a1.537 1.537 0 0 1-.04-.357c0-.513.26-.933.55-1.449l3.12-5.674-1.44-2.049zm-.58 2.209-1.09 1.902-1.08-1.531 2.17-.371zM86.168 59.107v22.222c0 .643.061 1.156.187 1.576.151.042.308.076.481.106v.752c.31.324.738.537 1.314.68V61.814c.009-.733-.014-1.925-1.982-2.707zm12.129 2.306c0 2.58-.014 23.717-.014 23.717l-8.416 1.418v-1.824l-1.314.224v1.836l-2.887.58c-2.21.374-3.797.032-5.314-1.134a5.617 5.617 0 0 1-1.01-1.004 7.896 7.896 0 0 1-.711-.473c-2.342-1.787-2.613-4.871-2.613-7.037l.002-13.502c.011-.719-.038-1.829-1.784-2.639v22.201c0 .632.041 1.126.145 1.518.167.044.345.086.543.121v.795c.368.313.914.503 1.719.662v2.344c-7.936 1.79-16.543 4.066-24.385 6.377-2.391.711-5.134.371-7.074-1.024a5.692 5.692 0 0 1-.862-.771 6.782 6.782 0 0 1-.857-.508c-1.946-1.389-3.044-3.976-3.035-7.066l.006-12.643c0-.675-.064-1.456-1.983-2.101v23.714c0 .267.061.496.154.702.357.104.633.139.661.142v.623c.719.508 1.666.629 1.718.637v1.961c-.171.061-1.021.382-2.216.836a43.876 43.876 0 0 0 19.142 16.07c22.313 9.72 48.278-.5 57.988-22.818a44.04 44.04 0 0 0 3.14-10.735c-2.41.215-5.12.462-6.13.569v-1.842c-.32.033-.63.069-.95.102v1.849c-2.65.247-7.7.954-10.48 1.365V82.8c-.63.096-1.22.181-1.722.258V64.386c0-1.167-.163-2.108-.473-2.824a3.833 3.833 0 0 0-.988-.149zm-35.869 3.131V82.64c0 .949.126 1.716.379 2.301a4.73 4.73 0 0 0 1.279.046l.004-18.14c0-.651-.169-1.581-1.662-2.303zM50.58 67.8v18.119c0 .942.134 1.701.395 2.277.411.077.858.085 1.3.049l.004-18.238c0-.64-.165-1.559-1.699-2.207zm72.06 14.49c-.42.038-1.04.097-1.72.158a45.686 45.686 0 0 1-10.93 23.607c-.01.02-.03.03-.04.05-9.07 10.3-21.739 15.57-34.462 15.57h-.008c-10.084 0-20.227-3.31-28.634-10.04-.577-.46-1.149-.93-1.711-1.43-.338-.3-.665-.61-.994-.91-.053-.05-.107-.1-.157-.15-.365-.34-.721-.69-1.072-1.04l-.092-.09a46.275 46.275 0 0 1-5.845-7.23c-.56.22-1.151.44-1.752.68a47.61 47.61 0 0 0 6.697 8.26c.648.64 1.305 1.27 1.994 1.87a47.494 47.494 0 0 0 31.459 11.86h.02c13.227 0 26.417-5.49 35.837-16.22a47.506 47.506 0 0 0 11.41-24.945zm-1.72.158v-.002l-.17.018.17-.016zm-.04 22.957c-.67 0-1.38.51-2.03 1.43l-1.68 2.36.14.09.09.06.08-.06c.11-.08.2-.11.31-.11.28-.01.62.27.89.46l2.95 2.11c.34.23.78.52.76.86 0 .05 0 .11-.02.17l-.04.1.11.08.12.08 1.19-1.68c.51-.7 1.08-1.44 1.29-2.33.06-.23.08-.47.08-.7 0-.62-.21-1.22-.7-1.57-.28-.2-.6-.29-.91-.29-.49 0-.98.22-1.43.56.02-.11.03-.22.03-.32 0-.41-.15-.81-.52-1.07a1.18 1.18 0 0 0-.71-.23zm-90.362.21-.137.1-.082.07.033.1c.028.07.035.13.035.18.014.33-.411.63-.726.86l-2.891 2.2c-.266.21-.619.5-.904.49a.433.433 0 0 1-.291-.1l-.084-.05-.108.07-.117.09 1.246 1.64c.527.69 1.064 1.45 1.852 1.92.411.25.882.4 1.332.4.365 0 .718-.1 1.012-.32.436-.33.632-.82.626-1.33 0-.32-.069-.66-.193-.98.244.12.496.18.748.19.253 0 .503-.08.731-.25.324-.25.496-.62.494-1.04-.003-.56-.284-1.22-.824-1.94l-1.752-2.3zm89.902 1.25h.01c.13 0 .26.04.39.12.18.14.25.32.25.55.01.4-.27.95-.54 1.33l-.13.19-1.32-.93.33-.56c.24-.4.65-.7 1.01-.7zm-89.449.9.433.48c.245.27.401.63.399.93 0 .24-.08.43-.27.58a.564.564 0 0 1-.359.12c-.433.01-1.007-.49-1.342-.95l-.143-.19 1.282-.97zm92.069.15h.01c.18 0 .36.05.53.18.28.2.39.46.39.76 0 .41-.22.88-.55 1.28l-.56.67-1.72-1.22.37-.56c.39-.62 1-1.11 1.53-1.11zm-94.083 1.38.434.51c.378.45.638 1.02.638 1.49-.002.31-.107.57-.365.77a.882.882 0 0 1-.555.19c-.472.01-1.002-.4-1.353-.95l-.477-.74 1.678-1.27zm86.683 1.77-1.73 1.72.12.13.08.07.1-.05c.07-.04.15-.06.23-.06.3-.01.63.35.89.61l2.05 2.05c.25.26.37.36.4.7v.11c0 .51-.27 1.05-.68 1.45-.41.41-.81.6-1.2.6s-.79-.19-1.23-.62l-1.82-1.82c-.26-.25-.61-.59-.6-.89 0-.08.01-.15.06-.24l.05-.09-.1-.1-.1-.1-1.77 1.76.13.12.07.08.1-.05c.09-.05.16-.07.24-.07.3-.01.63.35.88.61l1.82 1.82c.46.47.93.97 1.76.97h.1c.76-.03 1.5-.49 2.06-1.04.51-.52.98-1.22 1.08-1.94l.22.22.1.11 1.42-1.42-.13-.12-.07-.07-.1.05c-.09.05-.17.06-.24.06-.31.01-.64-.34-.89-.6l-2.56-2.57c-.27-.26-.63-.59-.61-.89 0-.08.01-.16.06-.25l.07-.14-.17-.07-.09-.04zm-78.062 2.91-.117.13-.074.07.058.1c.066.1.082.17.082.22.025.11-.204.24-.498.34l-4.146 1.62c-.406.17-.761.33-1.143.33-.159 0-.323-.02-.51-.09l-.087-.03-.086.09-.098.1 1.773 1.65.118-.12.074-.08-.053-.1c-.08-.13-.106-.22-.103-.28-.017-.12.136-.23.537-.39l1.279-.55 2.008 1.86-.438 1.33c-.167.53-.225.64-.291.62a1.16 1.16 0 0 1-.31-.09l-.092-.04-.088.1-.098.1 1.954 1.82.117-.13.062-.07-.035-.09a1.393 1.393 0 0 1-.135-.61c0-.34.121-.68.237-1.06l1.619-5.35-1.516-1.4zm0 1.77-.652 2.04-1.34-1.24 1.992-.8zm68.722 3.61-2.03 1.45.1.14.06.09.1-.03c.06-.02.12-.03.18-.03.33-.02.63.42.85.75l2.12 2.95c.19.26.46.61.46.89-.01.11-.03.21-.12.31l-.06.09.08.11.08.12 4.07-2.92-.32-1.7-.21.15-.04.03-.01.04c-.23.64-.63 1.19-1.27 1.6l-1.22.78-2.36-3.3c-.2-.27-.48-.62-.47-.91 0-.1.03-.19.11-.3l.06-.09-.08-.11-.08-.11zm-62.661.25c-.516 0-.996.19-1.301.65-.173.26-.254.54-.254.82.033 1.43 1.928 2.84 1.887 3.76 0 .13-.032.24-.106.35-.118.18-.317.26-.584.26-.379 0-.848-.18-1.15-.38-.728-.48-1.337-1.24-1.625-1.99l-.145-.38-.533 1.65.053.06c.45.55 1.003 1.02 1.601 1.41.769.51 1.566.75 2.26.75.703 0 1.309-.25 1.633-.74.143-.22.207-.46.207-.69-.03-1.37-1.963-2.93-1.922-3.8 0-.1.025-.19.082-.28.118-.18.277-.24.494-.25.316 0 .723.18 1.035.38.517.34.976.91 1.127 1.43l.086.3.174-.26.66-1-.076-.08a6.703 6.703 0 0 0-1.353-1.15c-.709-.47-1.526-.82-2.25-.82zm58.451 2.68-.12.03c-.67.19-1.37.42-2.013.75-1.611.81-2.568 2.12-2.57 3.53 0 .48.118.97.357 1.45.585 1.16 1.641 1.78 2.926 1.78h.01c.83 0 1.75-.24 2.71-.73.55-.27 1.07-.62 1.48-1.07l.03-.04.04-1.56-.24.12-.04.01-.02.03c-.48.63-1.13 1.23-1.88 1.61-.48.24-.95.35-1.39.35-.99 0-1.836-.53-2.251-1.35a2.18 2.18 0 0 1-.242-.98c0-.84.538-1.66 1.533-2.17.63-.31 1.33-.45 2-.45h.1l.24.01-.11-.22-.55-1.1zm-51.938.9-.074.15-.049.1.082.07c.132.12.173.25.176.4.003.26-.173.59-.297.86l-1.531 3.29c-.173.39-.397.92-.789.9-.028 0-.058 0-.088-.01l-.105-.01-.059.12-.061.13 4.602 2.14 1.234-1.13-.224-.11-.045-.02-.047.01a2.84 2.84 0 0 1-.508.05 3.3 3.3 0 0 1-1.578-.42l-1.168-.66.844-1.82.646.3c.335.15.73.36.741.57l.011.08.102.04.129.07.552-1.19-.16-.08-.027-.01h-.027c-.107 0-.267-.07-.432-.15l-1.123-.52.642-1.38c.313.1.638.24.961.39.484.23.851.45 1.004.85l.02.05.086.05.131.06.599-1.29-.166-.07-.027-.02H54.1c-.107.01-.271-.08-.457-.17l-3.491-1.62zm7.203 3.16-.046.17-.03.1.088.06c.187.12.236.27.238.47.003.25-.102.54-.173.78l-1.004 3.48c-.127.46-.261 1.05-.725 1.04H55.6l-.041.12-.041.14 1.978.58c.725.2 1.49.45 2.277.45.118 0 .241 0 .356-.02.87-.08 1.696-.54 1.93-1.33.043-.15.062-.3.062-.44-.002-.69-.456-1.27-1.096-1.68.536-.1.989-.37 1.151-.92.033-.12.049-.24.049-.35-.009-.82-.788-1.47-2.092-1.85l-2.778-.8zm1.645 1.46.633.12c.56.11 1.047.52 1.033.94 0 .06-.009.13-.025.19-.105.37-.459.49-.934.5-.31 0-.648-.06-.928-.14l-.226-.07.447-1.54zm27.016.37-2.448.51.034.17.021.11h.107c.475.03.563.62.657 1.09l.738 3.55c.044.21.112.47.109.7-.002.24-.057.42-.277.54l-.094.05.026.13.027.14 4.898-1.02.405-1.68-.256.05-.043.01-.033.03a3.12 3.12 0 0 1-1.809.96l-1.426.21-.828-3.98c-.046-.22-.117-.48-.117-.71.003-.24.059-.41.273-.53l.094-.05-.025-.14-.033-.14zm-18.032.65-.017.17-.014.11.104.04c.208.09.221.15.226.22.005.1-.105.3-.221.48l-2.357 3.78c-.321.54-.547.99-1.184 1.18l-.091.03-.016.12-.014.15 2.409.26.019-.17.014-.11-.1-.04c-.255-.12-.288-.19-.291-.28-.002-.09.084-.28.235-.53l.697-1.21 2.719.3.449 1.32c.107.31.175.52.17.6 0 .07-.001.09-.338.19l-.096.02-.014.13-.017.14 2.652.29.02-.17.008-.1-.082-.04c-.571-.32-.707-.82-.918-1.41l-1.897-5.25-2.055-.22zm10.137.37-2.498.15.008.17.006.1.103.03c.467.1.468.69.492 1.16l.211 3.63c.005.14.022.31.022.47-.005.35-.066.62-.373.73l-.098.04.004.13.01.15 4.992-.29.643-1.62-.258.02h-.047l-.033.03a3.11 3.11 0 0 1-1.928.68l-1.439.01-.241-4.06c-.008-.15-.027-.33-.027-.5.005-.34.067-.6.369-.71l.096-.04-.006-.14-.008-.14zm-19.824 1.04.656.15c.854.2 1.619.75 1.606 1.39a.98.98 0 0 1-.041.26c-.146.49-.554.69-1.092.7-.283 0-.594-.06-.891-.18l-.82-.3.582-2.02zm10.748.01.697 2.03-1.818-.2 1.121-1.83z" fill="#fff"/><path d="M82.697 48.503a4.122 4.122 0 0 1 1.141 2.85 4.156 4.156 0 0 1-4.15 4.15 4.137 4.137 0 0 1-1.499-.285 4.167 4.167 0 0 0 2.975 1.275 4.125 4.125 0 0 0 4.147-4.125 4.181 4.181 0 0 0-2.614-3.865zm-23.56 2.609C58.7 63.099 42.423 64.923 36.732 65.22v28.726c0 1.205 1.123 1.73 1.875 1.95a1.664 1.664 0 0 1-.154-.7V71.48a7.643 7.643 0 0 0-.43-.135v-2.311c.132-.044.276-.093.43-.142v-2.1c5.814-.272 21.833-2.78 22.012-15.236l-1.328-.444zm69.783 2.016c-.55.03-1.13.064-1.72.1v10.029c-1.72-.264-3.06-.819-4.09-1.549 1.09 1.548 2.9 2.834 5.81 3.295V53.128zm-22.26 3.861c1.23 1.68 1.53 3.749 1.52 5.33v13.864c-.01.823-.02 1.677 1.63 2.498l.17.08c-.09-.316-.08-.629-.08-.94V63.96c.01-1.976-.44-4.709-2.62-6.51-.19-.159-.4-.312-.62-.461zm13.46.086c-1.2.379-1 2.242-1 2.332.03.769.33 1.812 2.21 3.19a2.07 2.07 0 0 1-.21-.383v-.004c-.09-.285-.17-.57-.25-.85v-.007c-.02-.085-.02-.168-.03-.244 0-.064-.09-.939.22-1.612a8.28 8.28 0 0 1-.94-2.422zM85.455 58.45l-1.004.198v21.169c0 1.922.507 2.718 1.904 3.088-.126-.42-.187-.933-.187-1.576V59.107a6.93 6.93 0 0 0-.713-.245v-.412zm11.125 1.389c0 2.58-.014 23.715-.014 23.715l-6.699 1.17v1.828l8.416-1.422s.014-21.136.014-23.719c.316.012.653.056.988.155-.208-.481-.483-.859-.826-1.133-.571-.448-1.272-.583-1.879-.594zm-23.055 1.133-1.007.236v21.125c0 1.941.364 2.577 1.863 2.961-.107-.392-.145-.886-.145-1.518V61.575a6.942 6.942 0 0 0-.711-.281v-.322zm-11.812 2.896c-.305.083-.642.171-1.004.27v17.121c0 1.608.361 2.704 1.08 3.256.283.217.638.351 1.02.426-.253-.585-.379-1.352-.379-2.301V64.544a6.281 6.281 0 0 0-.717-.295v-.381zm-33.486 2.397c-3.813.579-7.593 1.9-7.598 4.094v.011c0 1.757 1.513 2.493 2.185 2.655a2.532 2.532 0 0 1-.464-1.497v-.013c.005-1.894 2.366-2.942 5.879-3.455 0-.621 0-1.224-.002-1.795zm21.64.89c-.307.094-.641.193-1.006.305v17.145c0 1.55.356 2.613 1.059 3.154.294.225.662.363 1.055.439-.258-.579-.393-1.337-.393-2.281V67.798a6.675 6.675 0 0 0-.715-.252v-.391zm77.253.307c1.53 1.869 1.84 3.468 1.84 5.359 0 3.396-2.52 7.318-6.39 7.618-2.73.211-6.33.546-9.66.9v1.842c1.01-.107 3.72-.354 6.13-.569.59-.054 1.18-.106 1.71-.15l1.89-.17c.4-.033.65-.058.69-.058 4.17-.393 7.11-4.262 7.11-7.655 0-2.448-.39-4.416-3.32-7.117zm-10.19 5.262c.69.93 1.12 1.963 1.34 2.957.23-.058.59-.16.95-.364a7.45 7.45 0 0 0-1.71-2.134 6.007 6.007 0 0 0-.58-.459zm-93.95.515v1.518c-.406.17-1.599.483-2.472.475a6.176 6.176 0 0 1-2.334-.442c.941.955 2.282 1.578 4.053 1.6.872.011 2.066-.294 2.472-.461V74.23c-.329-.044-1.142-.329-1.719-.991zm87.26 6.084v2.321c-2.17.214-5.94.739-8.76 1.154v1.855c2.78-.411 7.83-1.114 10.48-1.361v-1.851c-.26.032-.52.059-.77.084v-1.383c-.46-.269-.76-.541-.95-.819zm-23.404 4.442v1.496l-2.895.596c-1.866.326-3.289.135-4.601-.631a5.63 5.63 0 0 0 1.012 1.004c1.517 1.166 3.105 1.508 5.312 1.134l2.891-.58V84.95l-.407.073v-.58c-.573-.146-1.005-.354-1.312-.678zm-11.91 2.445v1.549c-7.938 1.836-16.548 4.158-24.387 6.516-2.059.62-4.375.461-6.217-.475.269.285.549.549.862.771 1.94 1.395 4.683 1.732 7.074 1.024 7.842-2.311 16.449-4.587 24.385-6.379v-2.342c-.805-.159-1.349-.348-1.717-.664zm37.034.031c-.57.052-1.14.105-1.72.162v2.967c-16.7 1.924-39.392 8.551-48.535 18.675l1.588 1.2c9.143-10.078 31.964-16.637 48.667-18.47v-4.534zM39.268 96.659v1.342c-2.995 1.082-8.126 3.024-11.551 4.504v1.96c.952-.45 4.373-1.79 7.508-3 .601-.24 1.19-.46 1.75-.68.65-.25 1.257-.48 1.795-.69 1.196-.452 2.047-.774 2.214-.834v-1.965c-.049-.005-.995-.129-1.716-.637z" fill="#b3b5b7"/><path d="M79.688 47.208a4.148 4.148 0 0 0-4.145 4.145 4.152 4.152 0 0 0 4.145 4.15 4.156 4.156 0 0 0 4.15-4.15 4.132 4.132 0 0 0-1.141-2.852 4.147 4.147 0 0 0-3.009-1.293zm20.692 6.893c-.31.012-.637.041-.972.092l-4.726.746c-2.526.42-6.624 1.17-9.229 1.664v2.259c.266.077.5.159.717.245 1.965.782 1.989 1.972 1.978 2.705v23.211l.407-.071 1.312-.228 6.697-1.17s.014-21.135.014-23.715c.607.011 1.31.144 1.881.592.346.274.618.654.826 1.135.31.713.473 1.655.473 2.822v18.67c.502-.077 1.092-.162 1.722-.258 2.82-.417 6.6-.944 8.76-1.158v-2.75l-.26-.131-.17-.082c-1.65-.821-1.64-1.674-1.63-2.494V62.319c.01-1.583-.28-3.65-1.52-5.33a5.92 5.92 0 0 0-1.1-1.164c-1.22-1.008-2.97-1.808-5.18-1.724zm-15.931 2.697-1.953.398a372.714 372.714 0 0 0-7.699 1.651l-1.272.287v2.158c.267.091.5.187.711.283 1.746.813 1.795 1.918 1.784 2.637l-.002 13.506c0 2.166.269 5.248 2.613 7.035.236.181.472.332.711.475 1.312.765 2.733.954 4.599.631l2.897-.598v-2.248a4.755 4.755 0 0 1-.483-.108c-1.397-.37-1.906-1.169-1.906-3.088V56.798zm-11.931 2.566c-2.572.61-8.241 2.008-10.805 2.672v2.213c.266.094.506.192.715.293 1.496.725 1.66 1.654 1.66 2.305v18.142a4.941 4.941 0 0 1-1.279-.046c-.382-.077-.735-.209-1.018-.426-.719-.552-1.084-1.65-1.084-3.256V62.296c-2.385.651-8.502 2.356-10.838 3.037v2.215c.266.077.5.159.711.25 1.534.651 1.699 1.569 1.699 2.209l-.002 18.24a4.964 4.964 0 0 1-1.3-.051c-.396-.074-.761-.212-1.055-.437-.706-.541-1.061-1.604-1.061-3.154V65.626a919.473 919.473 0 0 0-10.408 3.268c-.154.049-.298.097-.43.138v2.315c.154.044.296.088.43.135 1.919.645 1.983 1.427 1.983 2.099l-.006 12.645c-.009 3.088 1.091 5.677 3.037 7.066.269.189.556.357.855.508 1.842.936 4.158 1.095 6.217.475 7.842-2.361 16.451-4.68 24.387-6.516v-2.342a8.25 8.25 0 0 1-.545-.121c-1.499-.387-1.863-1.023-1.863-2.961V59.364zm37.722 25.465C85.01 87.25 52.492 96.513 43.934 99.911v1.994c3.266-.08 8.865.8 14.451 3.97 1.114.63 2.226 1.35 3.318 2.17 9.146-10.124 31.835-16.751 48.537-18.675v-4.541z" fill="#002b5c"/><path d="m73.396 36.493-.068.018a4.45 4.45 0 0 0-2.23 2.76.142.142 0 0 0 .021.127c.028.035.07.054.113.054.225 0 .447.001.672-.002.05 1.952.662 3.703 1.233 4.922a.13.13 0 0 0 .117.082c.354.03.72.061 1.066.094l.016.002a.14.14 0 0 0 .107-.053.139.139 0 0 0 .028-.129c-.56-2.014-.678-3.998-.7-4.967a.143.143 0 0 0-.14-.14c-.291-.009-.584-.009-.875-.012.346-1.106 1.079-1.956 1.672-2.494a.15.15 0 0 0 .037-.16.143.143 0 0 0-.131-.088c-.313-.005-.627-.011-.938-.014zm-3.998.084c-.321.022-.636.047-.955.074l-.068.028c-1.584 1.139-1.936 2.276-1.982 2.896a.142.142 0 0 0 .041.116.148.148 0 0 0 .099.039h.014c.206-.022.414-.04.623-.059-.071.327-.109.65-.109.969 0 1.268.33 2.294.722 3.109.022.05.07.127.125.127.332.003.811.101 1.168.109h.002a.143.143 0 0 0 .11-.054c.027-.033.038-.079.027-.123-.321-1.279-.422-2.253-.422-2.989 0-.639.077-1.101.156-1.439a.14.14 0 0 0-.031-.123.132.132 0 0 0-.117-.049c-.253.017-.506.038-.756.057.178-1.115.893-1.948 1.459-2.44a.143.143 0 0 0 .037-.162.143.143 0 0 0-.143-.086zm8.877.123-.076.02c-1.702.955-2.245 2.025-2.404 2.676a.144.144 0 0 0 .021.119.148.148 0 0 0 .108.056c.324.02.654.039.98.061.173 1.987.786 4.09 1.135 5.152a.136.136 0 0 0 .119.096c.379.044.753.096 1.123.148h.018a.143.143 0 0 0 .14-.162l-.664-5.271a.145.145 0 0 0-.129-.121c-.345-.033-.686-.056-1.029-.08.384-1.194 1.193-1.955 1.783-2.362a.14.14 0 0 0 .059-.152.141.141 0 0 0-.127-.105 59.048 59.048 0 0 0-1.057-.075zm-13.615.264c-.436.082-.861.173-1.287.264l-.061.029a4.626 4.626 0 0 0-1.624 2.768c-.009.046.012.092.044.125.028.024.06.039.096.039.011 0 .022 0 .033-.002.116-.028.282-.054.457-.078a2.345 2.345 0 0 0-.109.705c.005 1.043.428 2.114.799 2.767a.138.138 0 0 0 .123.069h.012c.244-.02.678.011.925 0a.142.142 0 0 0 .11-.063.142.142 0 0 0 .019-.123c-.225-.694-.355-1.319-.355-1.865 0-.873.213-1.543.402-1.971a.137.137 0 0 0-.019-.144.144.144 0 0 0-.135-.053c-.233.038-.465.088-.701.129.085-1.002.703-1.856 1.381-2.342a.141.141 0 0 0 .044-.172.14.14 0 0 0-.154-.082zm18.543.008-.08.015c-1.705.958-2.244 2.03-2.406 2.68a.14.14 0 0 0 .021.117.15.15 0 0 0 .108.059c.398.019.799.043 1.203.07-.005.019-.021.034-.018.053.157 2.017.497 3.948.86 5.049.016.052.063.09.115.095.379.044.755.097 1.123.149h.019a.146.146 0 0 0 .098-.039.153.153 0 0 0 .045-.115l-.453-4.965a.14.14 0 0 0-.129-.129c-.423-.039-.816-.116-1.238-.162.002-.009.011-.015.013-.024.357-1.29 1.222-2.096 1.842-2.521a.146.146 0 0 0 .057-.154.142.142 0 0 0-.129-.104c-.346-.03-.702-.052-1.051-.074zm-22.781.689c-.401.077-.791.164-1.178.246l-.055.028a4.253 4.253 0 0 0-1.49 2.539.123.123 0 0 0 .041.115.119.119 0 0 0 .086.031c.011 0 .021.001.029-.002a6.56 6.56 0 0 1 .479-.076c-.11.255-.16.528-.16.805.002.958.286 2.031.627 2.627a.12.12 0 0 0 .111.064h.012c.225-.019.686-.079.908-.09a.138.138 0 0 0 .102-.058.14.14 0 0 0 .017-.115 5.503 5.503 0 0 1-.281-1.704c0-.801.195-1.42.365-1.812a.124.124 0 0 0-.014-.131.13.13 0 0 0-.125-.051c-.214.039-.479.084-.693.125.019-.988.67-1.833 1.32-2.302a.14.14 0 0 0 .045-.161.137.137 0 0 0-.146-.078zm27.488.139-.098.027a6.846 6.846 0 0 0-2.189 2.576c-.019.042-.018.092.004.133s.061.065.107.071l.002.002c.44.049.874.106 1.311.164a.125.125 0 0 0-.022.103c.541 2.182.75 4.392.827 5.363a.139.139 0 0 0 .117.129c.461.072.939.152 1.406.235.009.002.016.002.027.002.028 0 .056-.01.08-.026.033-.025.052-.053.055-.092a7.09 7.09 0 0 0 .086-1.113c0-1.608-.449-3.291-.74-4.287a.136.136 0 0 0-.115-.102c-.431-.063-.843-.156-1.274-.23.009-.009.022-.016.027-.029.621-1.513 1.152-2.018 1.786-2.506a.137.137 0 0 0 .048-.147.136.136 0 0 0-.117-.107c-.447-.058-.88-.117-1.328-.166zm-31.769.851a22.45 22.45 0 0 0-1.008.334v.002l-.051.032c-.977.958-1.206 2.117-1.264 2.658a.141.141 0 0 0 .055.125.138.138 0 0 0 .088.031.105.105 0 0 0 .045-.01c.055-.016.134-.037.224-.056a3.098 3.098 0 0 0-.132.838c0 .941.428 1.616.798 2.113a.14.14 0 0 0 .114.057c.009 0 .02 0 .025-.002.313-.061.628-.159.944-.211a.143.143 0 0 0 .101-.078.132.132 0 0 0 .002-.125c-.263-.547-.352-.924-.352-1.393 0-.747.232-1.37.37-1.795a.142.142 0 0 0-.036-.141.14.14 0 0 0-.144-.037c-.168.05-.392.097-.625.149.14-.909.418-1.768.98-2.248a.139.139 0 0 0 .034-.176.142.142 0 0 0-.168-.067zm36.226.014-.129.041c-.735.711-1.233 2.047-1.631 2.752a.157.157 0 0 0 .118.229c.623.063.952.133 1.584.213v.001h.017a.149.149 0 0 0 .139-.087c.659-1.419.785-1.609 1.137-2.776a.171.171 0 0 0-.02-.127.136.136 0 0 0-.105-.068l-1.11-.178zm4.08.861a.151.151 0 0 0-.119.024.148.148 0 0 0-.055.105c-.049 1.26-.724 2.139-.845 2.748a.144.144 0 0 0 .107.166c.426.107.742.157 1.096.231a.15.15 0 0 0-.012.15c1.087 2.248.801 4.214.889 5.241a.154.154 0 0 0 .133.136l1.357.196a.151.151 0 0 0 .172-.12 6.54 6.54 0 0 0 .146-1.418c0-2.075-.823-3.966-.826-3.974a.163.163 0 0 0-.125-.094c-.604-.069-.774-.086-1.103-.127.002-.005.011-.01.011-.015.012-.895.324-1.856.327-2.608 0-.126-.01-.247-.032-.359a.151.151 0 0 0-.103-.114c-.415-.107-.633-.082-1.018-.168zm-43.818.383a.146.146 0 0 0-.098.01c-.255.124-.502.242-.758.371l-.041.033a6.94 6.94 0 0 0-1.586 2.891.137.137 0 0 0 .047.148c.025.02.057.03.09.03a.139.139 0 0 0 .063-.014c.022-.014.05-.021.072-.035a3.591 3.591 0 0 0-.027.42c0 .933.38 1.656.748 2.131a.135.135 0 0 0 .115.056.118.118 0 0 0 .045-.007c.318-.11.592-.224.924-.329a.141.141 0 0 0 .088-.076.144.144 0 0 0 0-.115c-.294-.642-.391-1.191-.391-1.652 0-.623.092-1.087.24-1.383.025-.055.018-.121-.023-.162a.14.14 0 0 0-.16-.033c-.198.082-.258.098-.51.21a4.772 4.772 0 0 1 1.228-2.255.146.146 0 0 0 .014-.182.15.15 0 0 0-.08-.057zm47.661.643a.15.15 0 0 0-.12.027.14.14 0 0 0-.05.108 19.172 19.172 0 0 1-.29 2.748.143.143 0 0 0 .108.16c.232.057.412.096.592.135 0 .002-.01.005-.01.011.03.127.07.114.08.127v.004c1.08 1.046 1.37 2.131 1.37 3.08 0 .673-.15 1.271-.27 1.727-.01.041 0 .087.02.123.02.038.06.062.11.07l1.62.24c0 .003.01.004.02.004.07 0 .13-.049.15-.121.12-.502.17-.969.17-1.4-.01-2.251-1.35-3.506-1.36-3.52l-.07-.037s-.38-.096-.78-.203c.01-.014.02-.023.02-.039v-.16c0-1.04-.16-2.109-.3-2.801a.144.144 0 0 0-.1-.113c-.41-.105-.52-.082-.91-.17zm-51.431 1.047a.165.165 0 0 0-.107.031c-.115.082-.221.169-.328.254l-.022.023c-1.238 1.447-1.748 2.721-1.949 3.424a.16.16 0 0 0 .061.176.184.184 0 0 0 .09.029.51.51 0 0 0 .164-.088c-.017.113.011.222.019.327.06.752.313 1.202.678 1.712.022.031.07.041.105.041.031 0 .057-.014.084-.025.313-.145.588-.323.867-.482a.154.154 0 0 0 .079-.096.152.152 0 0 0-.018-.119c-.387-.675-.359-1.226-.359-1.811 0-.252.021-.487.048-.687a.154.154 0 0 0-.072-.157.152.152 0 0 0-.172.006c-.153.105-.257.173-.408.286.198-.964.801-1.906 1.35-2.592a.162.162 0 0 0-.01-.205.156.156 0 0 0-.1-.047zm43.707.23c-.052-.005-.103.015-.136.053s-.048.091-.032.141c.396 1.386.471 3.057.471 4.089 0 .593-.025.968-.025.971a.154.154 0 0 0 .133.162c.527.074.981.155 1.525.242l.021.002a.156.156 0 0 0 .153-.129 8.868 8.868 0 0 0 .131-1.566c0-1.386-.281-2.713-.588-3.633a.151.151 0 0 0-.123-.101c-.621-.083-.907-.157-1.53-.231zm11.184.721a.143.143 0 0 0-.09.027.157.157 0 0 0-.05.17c.19.437.25.784.25 1.045 0 .168-.03.302-.06.399-.01.038 0 .078.02.111s.05.056.08.064c.24.061.46.116.66.168 1.79 1.601 2.17 2.995 2.17 3.928 0 .34-.05.62-.11.826-.01.041 0 .084.02.119.03.033.06.053.1.059.42.047.84.114 1.25.166l.02.002c.06 0 .12-.04.13-.104.09-.329.13-.652.13-.964-.01-1.96-1.59-3.497-2.62-4.37l-.07-.033c-.16-.025-.32-.045-.48-.07a5.579 5.579 0 0 0-.08-.397l-.04-.06c-.37-.357-.75-.708-1.14-1.051a.17.17 0 0 0-.09-.035zm-58.084 1.365a.162.162 0 0 0-.1.053c-.057.071-.122.139-.191.213-.626 1.087-1.006 1.807-1.195 2.367-.121.123-.247.24-.36.363l-.021.033c-.069.127-.11.248-.143.358l-.054.521a2.303 2.303 0 0 0-.004.129c0 .648.275 1.084.574 1.477.025.038.069.06.113.062h.014a.14.14 0 0 0 .107-.043c.223-.214.586-.391.803-.586a.158.158 0 0 0 .045-.175c-.214-.555-.475-1.005-.475-1.43 0-.288.041-.529.088-.746.047-.044.095-.096.139-.137l.053-.107c.043-.805.436-1.461.771-2.125a.16.16 0 0 0-.055-.203.163.163 0 0 0-.109-.024zm-2.777 2.522a.148.148 0 0 0-.09.05c-.052.064-.112.12-.172.186-.587 1.016-.939 1.721-1.104 2.24-.09.094-.184.182-.269.276l-.022.027c-.063.115-.096.227-.127.32 0 0-.048.555-.048.588 0 .582.249 1.056.515 1.41a.146.146 0 0 0 .106.055h.008a.152.152 0 0 0 .101-.037c.198-.19.401-.393.596-.568a.135.135 0 0 0 .035-.157c-.189-.499-.301-.946-.301-1.33 0-.28.039-.509.088-.715.028-.024.057-.055.082-.08l.043-.095c.044-.722.406-1.373.705-1.963a.142.142 0 0 0-.049-.184.13.13 0 0 0-.097-.023zm36.799 2.4a2.516 2.516 0 1 0 0 5.033 2.516 2.516 0 0 0 0-5.033zm-39.639 1.488a.142.142 0 0 0-.084.065l-.85 1.494c-.175.491-.23.845-.23 1.117-.009.653.358.84.396.848.017.005.035.01.051.01a.143.143 0 0 0 .115-.059l.551-.766a.139.139 0 0 0 .014-.142 1.741 1.741 0 0 1-.155-.764c0-.785.365-1.605.362-1.607a.141.141 0 0 0-.067-.184v-.002a.148.148 0 0 0-.103-.01zm17.408 1.727c-1.027 3.623-7.136 5.755-15.895 5.771-6.088.009-25.234.183-25.234 11.168 0 1.183.429 4.588 4.19 4.61C19.848 73.093 19 71.88 19 70.37v-.019c.014-4.452 7.769-5.641 10.857-5.932 0 0 .009 31.933 0 31.873.003.003-.273 3.206-2.156 4.443 2.811-1.209 6.085-2.5 9.772-3.834-.659-.024-2.369-.691-2.369-2.953v-30.3c3.595-.058 21.019-.902 22.353-11.596zm68.113 1.064c-3.16.19-5.45.358-8.56.616-3.37.34-4.98 3.675-4.86 6.412.09 2.067.87 4.739 3.85 6.732 5.1 3.417 5.91 4.882 5.97 6.225.15 3.2-2.66 4.419-5.09 4.394-.05-1.15-.38-4.542-4.06-5.873.02.481-.03 7.421 0 8.102 3.43-.382 6.25-.656 9.73-.914 2.99-.33 5.02-3.541 4.76-6.453-.19-2.122-.37-3.941-6.54-8.155-2.61-1.781-3.22-3.375-3.28-4.72-.14-3.198 1.59-4.285 4.01-4.225.06 1.15.38 4.551 4.07 5.937-.02-.477.03-7.279 0-8.078zm-25.31 2.637c-.23.009-.469.03-.703.064a300.53 300.53 0 0 0-4.612.731c-2.602.434-5.162.893-7.681 1.371 2.799 1.331 2.5 3.316 2.513 4.158v21.004c1.71-.307 3.434-.61 5.168-.898V58.374c1.439-.34 6.445-.854 6.445 6.014v16.785c2.54-.371 5.11-.72 7.69-1.033-2.81-1.392-2.52-3.377-2.53-4.225V62.316c.01-1.642-.36-3.866-2.02-5.233-1.03-.84-2.63-1.392-4.27-1.33zm-17.442 3.039a389.102 389.102 0 0 0-7.664 1.645c2.775 1.21 2.481 3.201 2.492 4.041v13.238c0 2.764.54 4.644 1.975 5.742 1.169.892 2.31 1.096 4.039.791l1.52-.299c-2.114-.466-2.362-2.408-2.362-4.134V58.792zm-11.931 2.637a345.46 345.46 0 0 0-7.705 1.912c2.816 1.136 2.524 3.151 2.535 3.996v19.025c-.074.009-6.641 2.119-6.641-5.103v-16.83a381.632 381.632 0 0 0-7.68 2.156c2.792 1.051 2.497 3.064 2.508 3.906v19.133c-.071.005-6.675 2.088-6.675-5.021V67.827a354.057 354.057 0 0 0-7.682 2.424c2.797.955 2.503 2.98 2.514 3.822v12.153c-.009 2.555.843 4.652 2.355 5.742 1.548 1.114 3.632 1.292 5.646.746a342.571 342.571 0 0 1 23.254-6.23c-2.179-.437-2.429-2.405-2.429-4.151V61.429zm45.223 23.142c-.02.007-.05.021-.06.041-.27.311-.54.626-.83.95a.225.225 0 0 0-.03.113c.01.041.04.071.08.09 1.04.486 1.08.417 2.16.601.01.003.02.002.02.002.06 0 .11-.032.13-.084.15-.384.28-.769.41-1.148 0-.009.01-.02.01-.033a.165.165 0 0 0-.03-.096c-.01-.019-.04-.032-.06-.043-.01-.003-.02-.006-.03-.006-1.09-.129-.63.036-1.69-.381a.124.124 0 0 0-.08-.006zm-7.5 2.071c-24.404 2.563-55.191 11.369-61.803 13.873 1.218-.15 7.465.58 14.668 5.41 9.027-9.397 30.068-15.786 47.135-17.99v-1.293zm5.38 1.689a.135.135 0 0 0-.15.018c-.4.321-.48.686-.83.941a.153.153 0 0 0-.06.123c0 .047.03.091.07.115 1.15.654 1.66 1.009 2.89 1.319l.04.002c.05 0 .1-.031.13-.08.2-.423.39-.842.56-1.256.02-.039.01-.084 0-.119-.03-.039-.06-.066-.1-.075-1.17-.236-1.37-.389-2.55-.988zm-4.12 3.752a.16.16 0 0 0-.16.014c-.41.32-.84.655-1.29.992a.145.145 0 0 0-.06.123c0 .047.03.091.07.115 1.35.766 2.01.976 3.46 1.344.02.003.26.051.27.051.04 0 .07-.01.1-.037.25-.225.49-.407.74-.594.38.2.95.357 1.38.555.01.011.03.013.06.013a.13.13 0 0 0 .11-.066c.16-.247.43-.738.6-1.01.04-.055.03-.118-.01-.17-.13-.203-.83-.426-1.33-.607-.07-.025-.14-.046-.19.01-.19.186-.36.356-.55.535-1.15-.289-2.02-.672-3.2-1.268zm-4.03 3.055a.128.128 0 0 0-.08.035c-.45.371-.91.742-1.38 1.115-.03.03-.06.074-.05.117 0 .044.02.089.06.114 1.79 1.205 2.79 1.841 3.97 2.058l.11-.027c.16-.118.45-.28.6-.399.99.868 1.86.981 2.17.981a.14.14 0 0 0 .16-.027c.26-.261.8-.913 1.04-1.176a.489.489 0 0 0 .08-.231c0-.041-.01-.098-.05-.101-.33-.028-1.66-.343-2.25-.821-.04-.024-.06-.055-.1-.066a.134.134 0 0 0-.11.033c-.15.118-.3.237-.45.358-1.92-.676-2.55-1.346-3.64-1.948a.16.16 0 0 0-.08-.015zm-3.72 3.568a.157.157 0 0 0-.08.031c-.45.374-.91.744-1.38 1.118-.03.03-.05.07-.05.117 0 .043.03.083.06.113 1.78 1.2 2.25 1.53 3.41 1.73l.11-.02c.15-.12.3-.23.45-.35 1.06 1.18 2.7 1.03 3.02 1.13.02.01.04.01.06.01.04 0 .08-.01.1-.04.24-.24.87-.83 1.14-1.11.04-.04.05-.09.03-.14-.02-.06-.06-.09-.12-.1 0 0-2.15.07-2.8-1.03-.03-.06-.11-.08-.17-.06 0 0-.01.01-.02.01a.12.12 0 0 0-.05.05s-.01.03-.02.04c0 0-.28.31-.34.3-2.09-.45-2.15-1.169-3.27-1.781a.129.129 0 0 0-.08-.018zm-4.475 3.099c-.044-.02-.098-.03-.145 0-.417.27-.939.77-1.334 1.01-.041.02-.066.07-.068.11 0 .05.021.1.056.12 1.999 1.46 2.573 1.58 3.791 1.66l.085-.02c.12-.08.36-.22.5-.32.79 1.06 2.19 1.6 3.01 1.89l.12-.02c.36-.24 1.21-.84 1.24-.86 0-.01.01-.01.01-.01 0-.01.01-.01.01-.01.01-.02.02-.03.02-.04l.01-.01a.138.138 0 0 0-.08-.17c-.01 0-.01-.01-.01-.01h-.01c-2.31-.79-2.47-1.46-2.53-2.12-.01-.08-.11-.12-.19-.09-.07.03-.73.58-.79.57-2.449-.38-2.562-1.03-3.695-1.68zm-5.002 3.04c-.387.21-1.477.78-1.524.85a.116.116 0 0 0-.027.08c0 .04.022.09.06.11 1.675 1.21 2.564 1.7 3.881 1.78l.067-.01c.167-.08.374-.18.586-.29.642 1.23 2.682 1.78 3.398 1.99l.088-.01c.357-.15 1.598-.91 1.618-.99.02-.07-.03-.15-.1-.17h-.01c-2.282-.59-3.161-1.64-3.133-2.01a.142.142 0 0 0-.063-.13.14.14 0 0 0-.14-.01c-.302.15-.595.4-.965.59-2.394-.54-2.883-1.17-3.58-1.77-.044-.03-.107-.04-.156-.01zm-4.25 2.63c-.401.22-1.033.53-1.442.73a.139.139 0 0 0-.082.11c-.005.05.016.1.055.13 1.493 1.15 2.563 1.58 3.543 1.81-.08.03-.162.06-.231.09a.138.138 0 0 0-.095.16c.282 1.22 2.504 1.79 3.478 2.03h.07c.409-.11 1.07-.47 1.446-.59.063-.01.1-.07.097-.13 0-.07-.043-.12-.103-.14-1.938-.49-3.038-1.14-3.197-1.58.28-.13.647-.3.847-.39.061-.03.095-.09.084-.15a.15.15 0 0 0-.123-.13c-2.498-.32-3.369-1.27-4.187-1.93-.047-.04-.108-.04-.16-.02zm-40.995.69a.214.214 0 0 0-.08.02c-.049.04.379 1.13.379 1.13l.041.07c.005 0 .434.51 1.266 1.02.025.01.049.02.074.02.041 0 .083-.02.113-.06.044-.05.038-.13-.011-.18-.266-.26-.512-1.16-.516-1.16l-.059-.08-1.125-.76c-.024-.02-.053-.02-.082-.02zm36.465 1.56c-.027-.01-.057 0-.082.01-.381.21-.973.38-1.404.58a.137.137 0 0 0-.082.11c-.003.05.016.1.055.13 1.518 1.16 2.812 1.62 3.882 1.85-.079.03-.155.06-.232.08a.155.155 0 0 0-.094.17c.264 1.2 1.865 1.69 2.834 1.92h.069c.392-.1.784-.22 1.173-.34.058-.02.103-.07.1-.14 0-.06-.044-.11-.107-.13-2.007-.53-2.382-1.24-2.44-1.66.357-.16.743-.34 1.006-.46.058-.02.094-.09.086-.15a.15.15 0 0 0-.123-.12c-2.506-.32-3.769-1.18-4.565-1.82a.11.11 0 0 0-.076-.03zm-33.175.44a.148.148 0 0 0-.157 0 .15.15 0 0 0-.056.15c.046.22.235.81.414 1.13 0 0 1.709 1.23 1.795 1.28.024.01.052.02.08.02.041 0 .082-.01.109-.05a.137.137 0 0 0-.012-.19c-.392-.38-.599-1.03-.675-1.44h.002l-.067-.1c-.604-.36-.695-.32-1.285-.7l-.008-.01a3.414 3.414 0 0 0-.14-.09zm28.876 1.28c-.409.11-.981.34-1.363.42a.132.132 0 0 0-.105.11c-.014.05.01.11.05.14 1.37 1.08 2.462 1.64 3.28 1.91-.126.03-.258.06-.393.08-.044 0-.079.03-.101.07s-.027.08-.008.12c.376.93 1.356 1.4 2.092 1.63h.048c.44-.02.975-.15 1.409-.18a.144.144 0 0 0 .125-.13.135.135 0 0 0-.092-.15c-1.222-.43-1.807-.93-1.947-1.33.313-.07.651-.18.892-.23.066-.01.115-.07.115-.14s-.045-.13-.111-.14c-1.831-.36-3.123-1.48-3.752-2.15-.035-.03-.092-.05-.139-.03zm-25.476.31c-.047.03-.074.07-.074.12v.01c.049.24.329.93.507 1.25l.014.02c.576.73 1.62 1.13 1.694 1.17.024.01.048.02.076.02a.16.16 0 0 0 .113-.05.143.143 0 0 0-.014-.19c-.392-.38-.599-1.03-.675-1.44l-.067-.1c-.604-.36-.694-.32-1.281-.7h-.006a1.13 1.13 0 0 0-.145-.11c-.043-.02-.098-.03-.142 0zm21.695 1.05c-.488.1-.98.22-1.461.28a.157.157 0 0 0-.119.1c-.016.06.002.12.049.15 1.139.96 2.318 1.56 3.26 1.84-.261.02-.509.05-.77.06-.06 0-.112.05-.129.1-.011.05-.006.05-.006.05.017.65.83 1.15 1.395 1.42l.057.02c.348.01.552-.09.892-.09.085 0 .259-.04.344-.04.063 0 .121-.05.135-.11a.14.14 0 0 0-.065-.16c-.7-.41-.944-.68-.941-.87 0-.09.088-.3.074-.34.187-.03.371-.04.555-.07.066 0 .118-.06.121-.12a.144.144 0 0 0-.1-.15c-1.474-.45-2.618-1.52-3.164-2.03l-.127-.04zm-23.318.07.004.01-.004-.01zm5.601.24c-.052-.03-.112-.01-.156.02a.148.148 0 0 0-.035.15c.272.77.751 1.35 1.242 1.76.541.23 1.03.42 1.522.6.013.01.03.01.047.01.049 0 .1-.02.125-.07.033-.06.016-.14-.041-.19-.958-.7-1.23-1.29-1.301-1.63a.159.159 0 0 0-.084-.1 39.34 39.34 0 0 1-1.319-.55zm13.489.53c-.486.09-.978.12-1.461.18a.148.148 0 0 0-.117.1c-.017.05.001.11.043.15 1.067.89 2.023 1.44 2.929 1.74-.203.01-.403.03-.609.04-.063 0-.113.05-.129.11-.011.03-.006.05-.006.05.082.45.69 1 1.258 1.28l.057.01c.343 0 1.194.01 1.279.01.063 0 .118-.04.135-.1a.162.162 0 0 0-.063-.17c-.7-.41-.85-.68-.848-.87h-.002c0-.09.03-.16.071-.23.005-.01.401-.08.594-.1a.145.145 0 0 0 .125-.13c.005-.06-.04-.12-.1-.14-1.477-.45-2.483-1.38-3.029-1.9l-.127-.03zm-9.784.17c-.057-.01-.116.02-.146.07s-.026.11.01.16c.406.54.912 1.05 1.373 1.44l-.024-.01a.15.15 0 0 0-.148.07c-.03.05-.029.11.006.16.002 0 .146.3.377.51l.054.03c.231.07.597.13.817.2.014 0 .027.01.041.01.038 0 .079-.02.103-.05a.128.128 0 0 0 .032-.14c-.009-.02-.151-.14-.151-.16s.009-.03.014-.05c.269.03.56.06.758.09h.021a.15.15 0 0 0 .135-.09c.022-.06 0-.14-.055-.17-.875-.57-1.475-1.36-1.769-1.8l-.102-.07c-.439-.05-.89-.12-1.346-.2zm5.733.28c-.316.01-.626.02-.934.02-.181 0-.364-.01-.543-.01a.145.145 0 0 0-.138.09.138.138 0 0 0 .031.15 8.188 8.188 0 0 0 2.111 1.54l-.445-.03a.125.125 0 0 0-.137.07.14.14 0 0 0 .024.16c.005.01.319.38.863.73l.051.02c.233.04.834.12 1.056.15.005.01.014.01.02.01.049 0 .096-.03.123-.07a.147.147 0 0 0-.004-.16c-.071-.11-.418-.23-.418-.31a.309.309 0 0 1 .047-.17c.351 0 .712.01 1.06.01h.235c.068 0 .13-.06.14-.12.012-.08-.029-.14-.097-.16-1.507-.47-2.465-1.34-2.932-1.88h-.002l-.111-.04z" fill="#d31145"/></svg>