<svg xmlns="http://www.w3.org/2000/svg" height="334.07" width="302"><path d="M151 .995C68.29.995.996 68.282.996 150.993c0 57.502 32.011 108.964 83.54 134.475a485.196 485.196 0 0 1-.711 1.389c-2.395 4.671-7.376 14.397-8.896 15.1l-2.817.882c-1.388.336-2.822.678-4.086 1.658-1.362 1.04-3.448 5.008-3.448 7.048l-.105.697c-.112.612-.276 1.467-.276 2.514 0 3.316 1.645 8.573 11.627 14.094l2.026 1.066c13.594 6.409 18.345 1.375 20.128-.507l.507-.493c1.652-1.198 3.645-5.205 3.698-6.922l.007-.191c0-1.52-.54-2.823-1.06-4.086l-.934-2.803-.007-.132c0-1.908 5.218-11.95 7.771-16.845l1.454-2.816A150.221 150.221 0 0 0 151 300.997c82.71 0 149.998-67.294 149.998-150.004S233.71.995 151 .995" fill="#fff"/><path d="M94.087 195.32a.855.855 0 0 0 .125 1.21l2.099 1.725a.875.875 0 0 0 1.217-.125.855.855 0 0 0-.125-1.204l-2.105-1.731a.862.862 0 0 0-1.211.125m9.063 7.65a.855.855 0 0 0 1.184-.263.869.869 0 0 0-.25-1.191l-1.914-1.217a.858.858 0 1 0-.922 1.447l1.902 1.224zm-3.361 9.72a.869.869 0 0 0-.06-1.217l-4.013-3.632a.875.875 0 0 0-1.224.059.869.869 0 0 0 .072 1.224l4.014 3.625a.855.855 0 0 0 1.211-.059m111.471-8.52a.86.86 0 1 0 .171 1.71l3.83-.38a.86.86 0 0 0-.185-1.712l-3.816.382z" fill="#e3002b"/><path d="M201.53 163.86c4.494-8.547-6.264-20.411-22.188-28.228-15.917-7.817-31.156-9.39-36.038-.073-2.632 5.008 3.053 11.956 12.732 18.418l1.04-3.014c.243-.73.388-1.513.71-2.19.165-.508.362-1.06.52-1.56.112-.375.697-1.31 1.191-2.027 1.954-2.915 8.508-3.52 14.614-.638 6.12 2.882 10.482 9.666 8.778 14.114l-.007.046a12.607 12.607 0 0 1-1.19 2.217 215.651 215.651 0 0 0-3.08 4.185c11.127 3.711 20.253 3.817 22.918-1.25m-26.92 7.11h-.125l-1.415 2.06.04.059c5.757 2 16.331 9.278 19.825 12.976.099.111.257.256.349.348.033.02.079.027.105.04a41.158 41.158 0 0 1 4.31-2.33l-.112-.118c-2.296-2.106-16.858-10.554-22.977-13.035" fill="#142448"/><path d="M152.52 163.65c.342-.888.684-1.777 1.013-2.658-5.77-3.027-15.91-6.495-21.135-8.528a25.333 25.333 0 0 1-2.454-1.138 33.301 33.301 0 0 1-4.363-2.79c-5.994-4.501-11.922-11.93-10.771-21.115 1.026-8.147 7.495-12.16 16.588-13.279a45.117 45.117 0 0 1 4.534-.316c14.443-.329 33.551 5.152 48.462 12.647 11.574 5.79 27.056 17.049 34.67 24.392 1.875 1.81 3.362 3.33 4.638 4.738 1.073 1.19 1.981 2.316 2.711 3.369 2.409 3.507 3.132 6.672 3.475 12.041a32.808 32.808 0 0 1-3.336 14.22l-.06.157a40.952 40.952 0 0 1 5.047-2.572l.033-.119c.112-.493.178-1.467.178-1.467a44.448 44.448 0 0 0-3.297-28.617 38.276 38.276 0 0 0-2.763-4.843 28.176 28.176 0 0 0-4.02-4.869c-5.969-5.593-3.126-1.414-1.146 1.152 1.408 1.816 2.08 2.888 2.678 4.014 1.047 2 1.54 3.178 1.612 3.783l-.105.434c-.434.152-1.842-1.059-3.994-3.263-8.12-8.304-22.273-18.826-35.269-25.333-15.982-7.995-35.17-12.186-47.626-12.673a60.238 60.238 0 0 0-3.888-.04c2.072-.954 3.75-1.54 5.375-1.954 2.277-.58 4.455-.796 7.43-1.099 4.52-.46 2.743-1.356 0-1.145-1.652.125-3.666.244-5.864.428a89.135 89.135 0 0 0-5.283.599c-9.857 1.42-21.096 5.125-23.458 16.936-2.369 11.904 5.257 22.34 14.37 28.064a34.545 34.545 0 0 0 4.56 2.415c.382.158.764.342 1.152.494a586.64 586.64 0 0 1 20.148 8.37h.02l.138-.435zm6.99-65.495.98-3.04 1.948 2.685 3.25.131-2.052 2.48.94 3.199-3.158-1.191-2.652 1.974.112-3.343-2.56-1.901 3.192-.994zm18.588-.31 2.481-4.171 1.974 4.613 4.757 1.296-3.869 2.974.316 5.034-4.25-2.817-4.58 2.034 1.27-4.909-3.145-3.645 5.046-.408zm19.662 5.554 5.152 2.981 5.178-2.362-1.178 5.777 3.725 4.422-5.712.296-3.066 5.066-2.218-5.566-5.777-1.1 4.5-3.881-.604-5.633zm18.503 23.695 1.105-3.224 2.046 2.934 3.429.027-2.106 2.855.908 3.363-3.198-1.297-2.968 1.994.211-3.606-2.869-2.066 3.441-.98zm-24.958-10.147c6.889 3.435 15.87 10.127 25.806 21.399l8.85-5.06 1.665-.954c-2.862-17.97-12.897-30.275-26.76-37.75-18.82-10.153-39.856-4.981-48.555 1.053l.152 1.987.618 8.232c15.292.77 31.347 7.652 38.224 11.093M246.92 220.25v-6.179h2.27v-1.342h-6.08v1.342h2.27v6.179h1.54zm12.56 0v-7.52h-2.639l-1.822 4.914h-.046l-1.744-4.915h-2.671v7.521h1.546v-5.981h.033l2.105 5.981h1.487l2.178-5.981h.046v5.981h1.527z" fill="#142448"/><path d="m158.43 195.62-.158-.013a755.344 755.344 0 0 1 3.6-5.633l1.078-1.671.191-.06c.954-.387 2.08-.71 3.224-.947 2.843-.579 5.804-.559 6.462.895.02.066.02.125.046.191.408 1.165-.25 2.408-1.592 3.553-2.665 2.277-8.002 4.067-12.851 3.685m-50.528 80.473c-.204-.079-.408-.138-.618-.21a3551.555 3551.555 0 0 1 52.238-90.719c2.895-4.81 5.66-9.37 8.206-13.508 5.448-8.456 11.712-18.57 12.271-19.47a3.139 3.139 0 0 1 .908 2.144c-.059.77-11.265 17.45-11.969 18.517a692.791 692.791 0 0 0-8.179 12.778l-2.007 3.211c-18.187 29.3-39.624 67.136-50.85 87.257m32.999-65.517c1.033-2.007 6.955-12.12 13.726-23.523l1.908-3.198c8.455-14.193 17.615-29.373 20.03-33.018.21-1.106-1.126-1.863-1.126-1.863-1.737 3-10.212 17.464-20.095 34.309l-1.875 3.21c-15.47 26.4-33.466 57.154-34.466 59.07 2.178-3.988 16.673-33.25 22.043-43.593 1.77-3.428 4.796-10.206 8.126-17.944l1.474-3.448c6.909-16.213 14.489-34.986 14.759-36.256 5.08-.164 10.653 2.126 13.634 6.218.059-.111-1.132 1.863-1.132 1.863a3784.619 3784.619 0 0 0-19.872 32.17 155.156 155.156 0 0 0-1.994 3.342c-1.737 3.106-45.658 77.933-45.658 77.933 10.85-21.075 28.136-50.606 30.518-55.272m6.797-27.49c.52-1.198 1.02-2.363 1.5-3.515 7.528-17.792 11.397-30.175 11.982-32.34l1.093-.237c-3.37 10.205-8.087 21.97-12.772 32.808-.513 1.164-1.013 2.336-1.527 3.487-6.685 15.174-13.008 27.84-14.995 30.564a452.651 452.651 0 0 0 14.719-30.768m-43.191 91.1a7.422 7.422 0 0 1-.27.52l-.131-.053.394-.796c.875-1.5.112-.006.007.33m-4.159 15.607-.144.25v.165c-.073-.066-.027.125-.106.059a.296.296 0 0 1-.059.27c-.132.111-.138.197-.204.348 0 0 .053.053.02.08-.099.085-.08.243-.171.361-.125.158-.5.276-.606.48.257-.52.514-1.02.79-1.388.21-.276.02-.092.158-.368.072-.198.599-1.645.69-1.856.205-.474.698-1.46 1.416-2.823l.526.178a369.622 369.622 0 0 0-2.31 4.244m-1.5 3.474c-.013.027-.368.046-.388.138-.033.106.026.237-.033.316-.296.435-.27.849-.428 1.336-.02.06-.177.079-.177.118.033.468-.52.783-.625 1.205-.191.763-.52 1.362-.823 2.112-.02.059-.164.072-.171.125-.046.302-.369.414-.454.67-.026.06.013.172-.026.198-.185.132-.257.33-.402.48-.052.06.007.205-.026.31-.072.204-.25.362-.29.566a11.16 11.16 0 0 1-.829 2.566c-.092.197-.237.474-.158.75-.256-.006.073.362-.217.336 0 .217.06.454-.026.645-.224.585-.29 1.164-.421 1.776-.027.105-.178.217-.178.336.033.473-.493.855-.493 1.335 0 .408-.244.665-.421 1.086-.106.244-.303.467-.474.704-.257.369-.678.724-.882 1.106-.06.118.23.342.086.414-.086.033-.165.046-.211.132-.145.302.178.73-.217.881-.237.823-1.125 1.534-1.382 2.35-.085.263.27.605.165.848-.283.6-.303 1.04-.514 1.672-.033.092-.118.17-.197.105-.092-.066-.112-.184-.132-.31-.026-.085-.243-.091-.217-.335.099-.829.612-1.171.81-1.941.276-1.033.447-1.948.631-2.921.053-.264.158-.5.184-.784.007-.085-.046-.144-.046-.223.04-.316.316-.553.237-.882.467-.586.342-1.388.836-2.02.079-.092.316-.29.375-.408.362-.684.27-1.362.684-2.04.046-.066.092-.04.132-.125.072-.158.467-.434.513-.618.033-.125-.164-.29-.066-.454.033-.053-.006-.139.02-.204.119-.31.375-.553.474-.875a2.895 2.895 0 0 1 .533-1.1c.066-.065.158-.15.158-.256.013-.105-.092-.217.237-.336-.027-.427.381-.67.487-1.092.039-.184.27-.381.355-.579.085-.243.19-.487.25-.763a.151.151 0 0 1 .204-.112c0-.112-.026-.23.02-.322.335-.652.881-1.139 1.085-1.889.02-.06.158-.066.191-.125.046-.092-.026-.243.026-.316.402-.487.5-1.033.836-1.572.053-.086-.006-.224.026-.323.106-.27.29-.513.408-.783.04-.092-.026-.237.033-.316.125-.204.257-.388.382-.585.243-.382.48-.889.743-1.402-.118.408.06 1.014-.197 1.395m-12.33 18.3a40.783 40.783 0 0 0-.64 1.888 104.01 104.01 0 0 0-1.38 5.645c-.264 1.198-.902 1.448-1.56 1.198a4.211 4.211 0 0 1-1.198-.737c-.204-.158-.48-.21-.803-.375-.098-.053-.197.112-.302.046-.158-.112-.336-.454-.514-.54-.27-.112-.664-.355-.947-.506-.257-.119-.46-.435-.678-.533-.164-.073-.316.079-.493-.013-.435-.218-.737-.54-1.086-.737-.23-.132-.625-.356-.75-.468-.283-.237-.237-.434-.138-.592.151-.217.651-.342.868-.375.25-.04 1.092.276 2.04.724.757.368 1.592.868 2.23 1.053.54.164 1.185.02 1.481-.27.217-.217.099-.5.112-.79.026-.381.349-.783.151-1.046-.25-.349-.5-.447-.75-.599-.302-.184-.612-.375-.921-.5-.546-.21-.776-1.085-.112-1.204 0 0 .592-.23.96-.586.211-.203.126-.44.376-.723.118-.119.414-.25.5-.382.072-.105-.086-.204.013-.322.112-.1.053-.25.23-.435.145-.158.527-.342.672-.552l.447-.54c3.014-3.902 8.008-12.627 12.305-20.516-1.974 3.691-3.758 7.106-4.554 8.823a223.062 223.062 0 0 0-5.586 13.424c-.06.184.092.362.026.54m-7.679-.87c1.586-.407 4.6-4.23 4.764-4.566s.606-.671.388.046c-.329 1.665-1.487 3.284-2.434 4.336-.573.632-.928 1.06-1.375 1.165-1.132.27-1.547-.145-1.672-.48 0-.546.106-.441.33-.5m-17.694-63.122.046-.027.098.171a1.5 1.5 0 0 0-.144-.144m-1.336-1.23c-.355-.35-.71-.672-1.073-1.02l1.402.545a.763.763 0 0 1 .085.132 10.396 10.396 0 0 1-.414.342m-41.086-94.41c-1.04-14.85 3.258-24.359 6.758-30.807 3.606-6.633 11.272-15.384 18.075-14.055 10.535 2.073 3.758 15.831-5.191 31.433-8.745 15.259-19.345 31.274-10.811 40.493 6.902 7.462 21.036 5.77 29.676-2.816l-21.234 39.861a128.027 128.027 0 0 1-17.273-64.109m51.18 52.765c-3.909-4.342 11.304-19.325 14.87-14.83 2.698 4.335-10.501 19.667-14.87 14.83m128.724-16.858c1.639-1.316 3.33-2.197 4.646-2.329.92-.099 1.658.165 2 .948 1.08 2.44-5.336 7.77-11.739 8.606.632-2.651 2.784-5.356 5.093-7.225m40.31-3.132c1.881 2.62-4.666 8.436-11.957 8.725.507-4.54 9.614-11.995 11.956-8.725m11.502 13.693c.257.257 5.297.066 5.33-4.816 1.573-1.086 3.244-2.376 4.75-3.83a9.015 9.015 0 0 0 .198 1.264c.96 3.526 1.066 13.002-6.146 12.646-4.336-.21-5.007-4.316-4.132-5.264M237.877 55.21c.737-.888 1.467-1.73 2.132-2.48a132.692 132.692 0 0 1 5.303 5.06l-7.435-2.58M162.87 209.708c2.836 2.171 11.37-.487 19.392-7.646l.743-.592c.106.625.283 1.25.566 1.862 3.52 7.725 20.128 4.895 32.736-4.159.092.915.348 1.836.816 2.744 3.44 6.692 17.529 4.83 28.886-1.994a10.78 10.78 0 0 0 1.158 2.593c1.322 2.158 4.547 4.073 7.422 4.56 4.494.756 9.916.177 13.068-4.1.83-1.112 1.323-2.31 1.678-3.52 4.48-3.823 15.417-15.772 22.352-30.05 1.987-4.12 2.553-14.74 2.48-18.431l-.085-.244c0-78.933-64.01-142.937-142.95-142.937-70.334 0-128.797 50.79-140.72 117.703l13.857-14.693a133.133 133.133 0 0 1 31.216-51.897c.414.336.816.678 1.217 1.02l-3.296 10.068a.862.862 0 1 0 1.638.54l3.073-9.404a120.618 120.618 0 0 1 3.81 3.5l-4.1 9.693a.869.869 0 0 0 .461 1.132.855.855 0 0 0 1.125-.46l3.843-9.094a121.889 121.889 0 0 1 3.533 3.612l-4 9.798a.869.869 0 0 0 .473 1.119.855.855 0 0 0 1.126-.474l3.691-9.067c.586.644 1.178 1.29 1.75 1.947l-.013.053c.046.316.296.513.573.618l.23.264-5.113 9.666c-.223.42-.059.94.362 1.164s.941.06 1.158-.362l4.784-9.054c.757.915 1.526 1.823 2.263 2.757.125.158.237.323.356.487.23.283.434.573.658.862l-5.903 8.85a.862.862 0 0 0 .237 1.191.869.869 0 0 0 1.191-.23l5.567-8.357c1.296 1.75 2.533 3.52 3.724 5.324-.033.026-.092.02-.118.059l-6.883 7.448c-.329.35-.31.895.04 1.218s.895.296 1.224-.053l6.691-7.251c1.487 2.323 2.922 4.678 4.251 7.087l-7.606 7.974a.855.855 0 0 0 .026 1.218.862.862 0 0 0 1.217-.033l7.199-7.54a122.778 122.778 0 0 1 3.29 6.665l-8.087 7.89a.862.862 0 0 0-.013 1.216.855.855 0 0 0 1.21.014l7.633-7.456c1.23 2.797 2.389 5.626 3.409 8.508l-8.614 8.62a.875.875 0 0 0 0 1.218.862.862 0 0 0 1.218 0l7.994-7.995c.941 2.777 1.764 5.6 2.494 8.455l-3.29 3.297a.855.855 0 0 0 0 1.21.842.842 0 0 0 1.211 0l2.58-2.579c.763 3.165 1.4 6.37 1.92 9.6l-8.58 8.587a.849.849 0 0 0-.006 1.21.855.855 0 0 0 1.224 0l7.659-7.652c.585 4.106.974 8.258 1.138 12.45l-9.942 7.883a.86.86 0 1 0 1.072 1.342l8.93-7.074c.026.98.085 1.968.085 2.961 0 2.817-.105 5.528-.283 8.212l-9.554 6.37a.849.849 0 0 0-.237 1.184.855.855 0 0 0 1.19.244l8.404-5.6a117.558 117.558 0 0 1-1.389 10.633l-10.686 4.35a.869.869 0 0 0-.473 1.118.862.862 0 0 0 1.125.474l9.66-3.935a133.41 133.41 0 0 1-1.455 6.56c-.013.053.026.1.026.152a.79.79 0 0 0 .04.302 1.013 1.013 0 0 0 .151.29c.033.04.033.092.066.125l5.922 4.968a.869.869 0 0 0 1.217-.099.855.855 0 0 0-.112-1.21l-5.52-4.64a126.352 126.352 0 0 0 1.493-6.737l10.982 4.599a.862.862 0 0 0 1.132-.454.882.882 0 0 0-.46-1.132l-11.358-4.75a117.452 117.452 0 0 0 1.395-10.95c2.626 1.066 10.647 4.29 10.647 4.29a.855.855 0 1 0 .638-1.585l-11.12-4.488c.171-2.704.276-5.448.276-8.29 0-1.073-.059-2.133-.085-3.205l11.225 4.764a.862.862 0 0 0 .678-1.586l-11.956-5.067a127.573 127.573 0 0 0-1.086-12.232l10.318 3.613a.855.855 0 0 0 1.092-.533.849.849 0 0 0-.533-1.093l-11.146-3.908-.007-.06a.816.816 0 0 0-.085-.592 127.784 127.784 0 0 0-1.882-9.508l11.094 2.909a.862.862 0 0 0 1.052-.625.855.855 0 0 0-.618-1.04l-12.015-3.145a129.815 129.815 0 0 0-2.573-8.804l12.2 1.02a.869.869 0 0 0 .934-.783.869.869 0 0 0-.79-.935l-12.923-1.072c-1.02-2.909-2.185-5.764-3.415-8.587l11.239.67a.855.855 0 0 0 .914-.802.869.869 0 0 0-.81-.914l-12.14-.724a126.52 126.52 0 0 0-3.322-6.778l12.002-.342a.855.855 0 0 0 .835-.855c0-.013 0-.013-.013-.02a.842.842 0 0 0-.881-.836l-12.825.356a123.665 123.665 0 0 0-4.264-7.133l12.22-1.066a.862.862 0 0 0-.145-1.717l-13.167 1.145a122.704 122.704 0 0 0-4.797-6.738l10.508-1.5a.855.855 0 0 0 .724-.974.855.855 0 0 0-.967-.73l-11.443 1.638c-.92-1.172-1.882-2.303-2.842-3.442l10.528-1.645a.862.862 0 0 0 .717-.987.855.855 0 0 0-.987-.71l-11.554 1.803a146.654 146.654 0 0 0-2.915-3.192l8.37-2.684a.856.856 0 1 0-.52-1.632l-9.166 2.928c-.652-.678-1.29-1.369-1.968-2.033l8.258-3.1a.855.855 0 0 0 .5-1.098.855.855 0 0 0-1.105-.507l-9.035 3.389a122.726 122.726 0 0 0-4.171-3.863l8.837-3.27a.849.849 0 0 0 .559-.803.869.869 0 0 0-1.158-.81l-9.745 3.613a210.757 210.757 0 0 0-1.25-1.066 132.56 132.56 0 0 1 94.245-39.177c33.643 0 64.346 12.522 87.77 33.11a105.51 105.51 0 0 0-2.322 2.705c-1.178-1.698-4.836-6.91-4.836-6.91a.869.869 0 0 0-1.205-.21.869.869 0 0 0-.204 1.205l5.106 7.284a185.846 185.846 0 0 0-2.914 3.619c-1.48-1.527-6.613-6.66-6.613-6.66a.875.875 0 0 0-1.23 0 .875.875 0 0 0 0 1.218l6.783 6.784c-.651.829-1.257 1.619-1.744 2.23-11.225-7.711-24.655-12.33-39.012-12.33-14.89 0-28.696 4.704-39.994 12.706-.157.111 1.237 22.53 1.718 30.162 2.046-1.118 4.198-2.06 6.389-2.908l-.526-27.406c2.77-2.204 6.547-4.02 9.468-5.066l-.625 29.998a52.574 52.574 0 0 1 10.495-1.06c1.112 0 2.185.106 3.27.172l5.488-33.032a51.423 51.423 0 0 1 20.372 2.106l-12.844 33.36a52.706 52.706 0 0 1 16.127 8.627l22.747-28.96c4.922 4.298 8.83 8.437 12.667 14.464l-26.55 23.306a52.68 52.68 0 0 1 6.961 11.528l27.36-18.937c.553 1.066 2.125 7.646 1.869 9.574l-26.557 17.147a53.69 53.69 0 0 1 1.105 5.33c6.64-3.764 30.827-17.51 30.84-17.713-2.072-20.345-13.278-38.467-29.353-50.08l1.764-2.257c2.151 1.046 7.323 3.507 7.323 3.507a.869.869 0 0 0 1.152-.402.875.875 0 0 0-.415-1.151l-6.981-3.323a235.066 235.066 0 0 1 2.908-3.612l9.166 3.178c.382.131.77-.066.974-.408A132.501 132.501 0 0 1 283.95 151.5l.072.105c-.855 24.61-5.639 35.282-14.39 41.724a22.155 22.155 0 0 0-1.856-5.981c-1.335-2.75-.73-2.895.185-3.79 4.928-4.244 5.935-8.574 4.112-9.87-2.665-1.902-10.192 4.152-11.153 9.962-.125.869-.27 1.79-.382 2.724a31.387 31.387 0 0 1-5.724 5.067c-2.81-2.56-8.765.329-9.153 5.593-5.481 3.053-9.896 4.711-13.97 4.744-4.967.053-6.277-2.895-5.349-5.58.013-.02.013-.033.007-.04.006.014.059.06.322.04 9.719-.763 21.175-6.343 19.32-12.877-1.087-3.836-7.726-3.336-14.45-.507a39.197 39.197 0 0 0-5.047 2.573c-4.435 2.678-8.252 6.225-9.653 9.995-6.81 5.804-13.89 7.771-18.7 7.817-4.969.046-6.278-2.902-5.357-5.58.053-.118-.105 0 .336-.013 10.6-.092 23.464-6.29 20.74-13.22-.684-1.77-2.323-2.677-4.494-2.934-2.784-.316-6.462.474-10.193 2.014a26.432 26.432 0 0 0-1.474.651 45.297 45.297 0 0 0-4.31 2.323 32.742 32.742 0 0 0-6.191 4.941 17.371 17.371 0 0 0-3.5 5.074c-3.436 4.56-9.647 8.995-11.818 8.698-4.988-.651-.172-6.066-5.034-6.968 3.744-.612 8.449-2.836 11.317-5.895 1.106-1.172 1.942-2.455 2.35-3.83a6.383 6.383 0 0 0 .006-3.652c-1.382-4.724-9.633-3.33-14.686-.743l-.204.111a696.853 696.853 0 0 1 7.442-11.153l1.414-2.06a377.223 377.223 0 0 1 4.067-5.783l.052-.072a215.651 215.651 0 0 1 3.08-4.185 12.857 12.857 0 0 0 1.197-2.264c1.705-4.455-2.658-11.232-8.777-14.12-6.107-2.883-12.66-2.27-14.615.638a11.58 11.58 0 0 0-1.19 2.033c-.159.5-.356 1.046-.52 1.56-.218.717-.468 1.46-.711 2.19-.349 1.067-.658 2.086-1.046 3.185a247.145 247.145 0 0 1-2.488 6.837l-1.013 2.658-.138.441-.026-.007a448.295 448.295 0 0 1-5.567 13.693l-1.5 3.514a803.3 803.3 0 0 1-9.278 20.57c-1.415.96-4.053 2.565-5.12 1.881-2.618-1.671 9.259-13.614 5.357-17.667-3.211-3.33-13.127 1.395-17.832 6.297a5.777 5.777 0 0 0-1.382-6.113c-6.626-6.514-26.116 23.36-29.504 20.918-1.948-1.402 5.639-10.318 9.31-20.168l-8.067.06-1.19 1.894c.045-.5-.205-1.112-.909-1.763-8.91-8.192-31.005 15.47-22.865 22.517 3.796 3.29 12.804-.665 16.515-5.56-2.493 5.323-.631 7.442.073 7.948 8.277 6.054 25.905-22.437 28.912-19.812 2.112 1.856-8.777 17.805-8.277 18.187l8.172-.072c3.468-6.166 6.02-11.048 6.02-11.048 4.587-5.284 10.213-9.515 11.575-7.89 2.263 2.692-9.706 12.351-5.79 18.431 1.881 2.928 9.231-.651 12.804-3.382-7.185 15.167-13.456 27.458-15.423 31.446-3.679 7.5-11.009 21.312-18.457 34.999a135.97 135.97 0 0 1-34.578-21.616c.006-.17.013-.348-.086-.506l-2.77-4.442.073-.072c1.335-1.217 2.56-2.54 3.83-3.823l4.375 4.961a.869.869 0 0 0 1.217.08.869.869 0 0 0 .066-1.218l-4.435-5.034c1.06-1.099 2.112-2.184 3.132-3.316l5.007 5.303a.855.855 0 0 0 1.218.033.849.849 0 0 0 .033-1.21l-5.146-5.449c1.54-1.763 3.086-3.52 4.52-5.376l4.653 6.554a.855.855 0 0 0 1.197.204.855.855 0 0 0 .204-1.197l-5.007-7.041c1.414-1.882 2.803-3.784 4.106-5.758l5.652 7.146a.855.855 0 0 0 1.204.152.869.869 0 0 0 .145-1.211l-6.014-7.613c1.283-2 2.487-4.067 3.652-6.152l6.455 5.941a.862.862 0 0 0 1.164-1.27l-6.718-6.185.132-.224a.869.869 0 0 0-.35-1.17.875.875 0 0 0-1.164.348c-.112.204-.237.388-.342.579-.013.013-.026.007-.033.02-.02.02-.013.072-.04.098-.098.191-.23.382-.335.566l-8.087-.75a.862.862 0 0 0-.94.777.875.875 0 0 0 .782.94l7.271.678c-.934 1.626-1.862 3.25-2.862 4.83l-9.396-1.105a.849.849 0 0 0-.948.756c-.013.033-.013.066-.013.106a.87.87 0 0 0 .77.848l8.54 1a124.724 124.724 0 0 1-3.677 5.179l-.06-.086a.888.888 0 0 0-.612-.361l-9.185-.955a.855.855 0 0 0-.941.77l-.007.092a.855.855 0 0 0 .777.85l8.79.914c.02.04.119.171.178.25-1.474 1.928-3.06 3.77-4.639 5.606l-.17-.19a.901.901 0 0 0-.382-.231l-8.791-2.671a.855.855 0 0 0-1.112.822.855.855 0 0 0 .612.823l8.573 2.612.145.145c-.993 1.118-2.04 2.204-3.086 3.29l-.158-.178a.895.895 0 0 0-.395-.257l-7.836-2.29a.855.855 0 0 0-1.1.823.87.87 0 0 0 .62.829l7.6 2.224a.283.283 0 0 1 .045.066c-1.217 1.23-2.408 2.507-3.691 3.685l-.119-.185a.875.875 0 0 0-.42-.348l-4.962-1.909c-.053-.02-.092.007-.138 0a135.706 135.706 0 0 1-13.463-16.246l51.423-97.08-11.917.335-21.056 39.177c-6.79 6.35-17.812 12.193-24.115 7.837-12.496-8.633 36.473-55.404 18.45-70.623-14.397-12.14-30.031 6-34.986 14.594-4.033 7.008-11.6 17.746-11.877 30.985.132 58.707 35.65 109.09 86.363 130.969a910.586 910.586 0 0 1-12.535 22.135c-2.27 3.856-3.75 5.606-6.468 5.402a6.85 6.85 0 0 0-1.994.237c-1.349.526-1.888 2.902-1.842 3.908.105 2.073 1.802 5.85 8.567 8.943 6.75 3.099 10.515 2.803 12.265 1.67.842-.558 2.448-2.381 2.073-3.79a6.6 6.6 0 0 0-.974-1.763c-1.764-2.066-1.343-3.921.434-8.02 2.527-5.85 6.902-14.78 11.824-24.412a142.562 142.562 0 0 0 45.218 7.35c67.32 0 123.763-46.521 138.95-109.17.566-2.296 1.178-5.099 1.178-5.099-4.02 6.304-14.621 15.707-14.621 15.707a128.376 128.376 0 0 1-25.399 43.31l1.987-3.962a.869.869 0 0 0-.395-1.158.855.855 0 0 0-1.151.388l-2.54 5.08c-1.23-.79-2.566-1.783-3.948-2.928l4.488-5.429a.869.869 0 0 0-.112-1.21.869.869 0 0 0-1.217.111l-4.462 5.416a67.213 67.213 0 0 1-1.967-1.77l5.488-7.56a.862.862 0 0 0-.185-1.205.882.882 0 0 0-1.21.198l-5.35 7.363a116.155 116.155 0 0 1-3.23-3.25 850.416 850.416 0 0 0 4.98-6.127.855.855 0 0 0-.131-1.21.855.855 0 0 0-1.211.131l-4.803 5.968a179.216 179.216 0 0 1-3.5-3.856l5.046-5.988a.855.855 0 0 0-.099-1.21.855.855 0 0 0-1.217.098l-4.876 5.784a234.351 234.351 0 0 1-4.033-4.836l5.25-5.942a.855.855 0 0 0-.085-1.21.855.855 0 0 0-1.21.078l-5.041 5.712c-1.625-2.06-3.1-4.007-4.343-5.751l2.224-2.224a.882.882 0 0 0 0-1.224.862.862 0 0 0-1.217 0l-2.007 2.013a47.705 47.705 0 0 1-2.369-3.73.855.855 0 0 0-1.171-.336.855.855 0 0 0-.33 1.165c.56 1.02 1.409 2.349 2.449 3.862l-7.587 1.375a.869.869 0 0 0-.704.85c0 .045 0 .104.013.15a.855.855 0 0 0 1 .698l8.37-1.527c1.375 1.928 3.033 4.1 4.843 6.37l-9.956.335a.856.856 0 1 0 .06 1.711l11.251-.375a184.615 184.615 0 0 0 3.481 4.132l-8.89 2.593a.855.855 0 0 0-.611.822c0 .08.006.165.026.244a.869.869 0 0 0 1.072.585l9.173-2.678a.724.724 0 0 0 .368-.25 198.243 198.243 0 0 0 3.35 3.679c-2.04.855-9.291 4.138-9.291 4.138a.871.871 0 0 0-.421 1.139.855.855 0 0 0 1.138.427l9.778-4.428c.829.862 1.651 1.704 2.474 2.52h-.04l-8.409 4.975a.855.855 0 0 0-.31 1.171.855.855 0 0 0 1.172.31l8.41-4.975c.15-.086.21-.23.282-.362 0 .276.073.526.31.704a.855.855 0 0 0 .644.151 49.915 49.915 0 0 0 2.014 1.81c-1.224.776-7.6 5.04-7.6 5.04a.855.855 0 0 0-.237 1.191.862.862 0 0 0 1.198.237l7.968-5.31a46.687 46.687 0 0 0 3.566 2.71l-5.625 3.85a.862.862 0 0 0-.218 1.191.869.869 0 0 0 1.198.23l5.33-3.652c-24.294 25.603-58.898 41.283-97.384 41.612a125.474 125.474 0 0 1-40.092-6.31c6.994-13.416 14.186-26.688 18.246-33.775a1374.641 1374.641 0 0 1 27.03-44.685l.1-.02c1.822-.124 2.928.02 3.592.586 2.441 2.047-1.928 6.797 2.863 10.456" fill="#e3002b"/></svg>