<svg xmlns="http://www.w3.org/2000/svg" stroke-miterlimit="3.864" width="166.5" height="166.5" style="clip-rule:evenodd;fill-rule:evenodd;stroke-miterlimit:3.86360002"><path d="M0 0h166.5v166.5H0Z" style="fill:#e81828"/><path d="M119.576 44.448c-1.424-12.3-8.76-18.077-21.794-17.201l-3.364.229v41.793l4.273-.801c13.969-2.613 22.159-12.041 20.885-24.02m-58.582 7.233s-4.349 26.663-25.268 17.311c-12.591-5.645-13.887-27.585 5.742-46.841C70.629-6.268 142.832.673 139.961 45.849c-1.57 25.734-20.365 36.013-46.192 45.362V138.7c0 14.441-14.903 24.441-27.215 22.311-13.145-2.317-13.516-17.962 2.22-34.531V31.592c-12.129 4.997-20.086 20.368-7.78 20.089Z" style="fill:#fff;fill-rule:nonzero"/><path d="M119.576 44.448c-1.424-12.3-8.76-18.077-21.794-17.201l-3.364.229v41.793l4.273-.801c13.969-2.613 22.159-12.041 20.885-24.02zm-58.582 7.233s-4.349 26.663-25.268 17.311c-12.591-5.645-13.887-27.585 5.742-46.841C70.629-6.268 142.832.673 139.961 45.849c-1.57 25.734-20.365 36.013-46.192 45.362V138.7c0 14.441-14.903 24.441-27.215 22.311-13.145-2.317-13.516-17.962 2.22-34.531V31.592c-12.129 4.997-20.086 20.368-7.78 20.089Z" style="fill:none;stroke:#fff;stroke-width:1.49000001"/></svg>