<svg xmlns="http://www.w3.org/2000/svg" viewBox="0 0 65.913 82.534" style="enable-background:new 0 0 65.913 82.534" xml:space="preserve"><path style="fill:#2f241d" d="m50.187 17.565-33.386.003s1.995 2.87 1.995 8.324v4.222H11.73a3.071 3.071 0 0 1-3.071-3.071V9.877a3.08 3.08 0 0 1 3.071-3.071h22.913c1.763.024 2.922 1.774 2.681 3.52-.233 1.691-1.116 2.704-1.116 2.704H45.3V9.094A9.093 9.093 0 0 0 36.206 0H9.093A9.093 9.093 0 0 0 0 9.094v18.899a9.093 9.093 0 0 0 9.093 9.093H34.11a3.071 3.071 0 0 1 3.071 3.071V56.53a3.078 3.078 0 0 1-3.069 3.069h-6.657V40.357h-8.658v19.242h-7.558a3.068 3.068 0 0 1-3.068-3.069v-1.635c0-5.439 1.462-6.696 1.462-6.696H.541v9.279a9.092 9.092 0 0 0 9.092 9.092h9.164v7.639c0 5.454-1.995 8.324-1.995 8.324h33.39c6.549 0 11.859-5.309 11.859-11.859V29.427c-.001-6.552-5.312-11.862-11.864-11.862zm3.205 53.276a4.683 4.683 0 0 1-4.683 4.683H27.455v-8.953h9.293a9.092 9.092 0 0 0 9.092-9.092V39.207a9.094 9.094 0 0 0-9.094-9.094h-9.292v-5.538H48.71a4.682 4.682 0 0 1 4.682 4.682v41.584zm9.57 8.659v.549h-.695v2.484h-.672V80.05h-.736v-.55h2.103zm2.279-.001-.663 1.679-.663-1.679h-.672v3.035h.672V80.85l.605 1.499h.115l.605-1.499v1.684h.672v-3.035h-.671z"/></svg>