<svg xmlns="http://www.w3.org/2000/svg" height="200.88" width="201" viewBox="0 0 201 200.877"><path d="M1.461 100.489c0 54.558 44.412 98.946 99.004 98.946s99.003-44.388 99.003-98.946c0-54.556-44.412-98.938-99.003-98.938S1.46 45.932 1.46 100.489" fill="#c4ced4"/><path d="M6.472 100.489c0-51.854 42.16-94.035 93.99-94.035 51.831 0 93.999 42.18 93.999 94.035 0 51.856-42.168 94.042-94 94.042-51.829 0-93.989-42.185-93.989-94.042" fill="#fff"/><path d="M100.462 11.576c-49.05 0-88.96 39.878-88.96 88.917 0 49.034 39.91 88.929 88.96 88.929s88.957-39.895 88.957-88.929c0-49.04-39.908-88.917-88.957-88.917" fill="#005c5c"/><path d="M100.462 186.62c-47.47 0-86.097-38.632-86.097-86.123 0-47.484 38.627-86.121 86.097-86.121 47.47 0 86.096 38.636 86.096 86.121 0 47.491-38.625 86.122-86.096 86.122" fill="#002c56"/><path d="m105.331 21.57-8.695.011-.012 2.599 2.717-.01-.077 16.95 3.352.02.07-16.96 2.63-.009.015-2.6zm20.313 3.92-.956 2.425 2.461.962-6.221 15.782 3.115 1.237 6.23-15.791 2.374.972.951-2.417-7.954-3.17zm-50.81.27-5.291 2.03 5.074 19.134 3.009-1.2-1.118-4.035 2.771-1.12 1.968 3.71 3.013-1.201-9.426-17.318zm-.965 4.55 4.136 7.956-2.172.894-2.407-8.625.443-.225zM49.087 40.548l-5.166 4.925L57.485 59.57l5.172-4.916-1.784-1.868-2.77 2.603-4.751-4.948 2.757-2.598-1.787-1.856-2.759 2.597-3.456-3.594 2.756-2.596-1.776-1.845zm103.104.069L139.104 55.16l5.235 4.764 1.716-1.91-2.728-2.523 11.35-12.63-2.484-2.244zm-51.44 8.018a51.173 51.948 0 0 0-51.173 51.95 51.173 51.948 0 0 0 51.173 51.951 51.173 51.948 0 0 0 51.173-51.95 51.173 51.948 0 0 0-51.173-51.95zm69.526 14.384-17.5 8.735 3.216 6.322 2.299-1.156-1.716-3.313 6.14-3.067 1.729 3.315 2.303-1.152-1.72-3.316 4.458-2.23 1.724 3.314 2.282-1.134-3.215-6.318zM31.428 64.215c-1.05-.051-1.669.639-2.507 2.42-.037.094-.74 1.772-.791 1.886-1.378 3.062-1.065 3.772 1.97 5.127l2.544 1.142c1.258.568 2.417.273 3.594-.57l2.026-1.447c.656-.469 1.324-1.546 1.9-1.295l3.78 1.699c.358.168.56.329.607.512.023.09-.651 1.75-.688 1.845-.167.378-.491.392-.993.158l-3.646-1.601-1.38 3.092 3.215 1.408c3.013 1.35 3.76 1.157 5.145-1.922.056-.106.743-1.779.787-1.89 1.264-2.91.849-3.493-2.103-4.81l-3.71-1.676c-1.16-.524-2.124-.695-3.349.208l-2.394 2.5c-.618.458-1.043.867-1.614.626l-2.774-1.25c-.48-.214-.707-.43-.547-.776.035-.077.733-1.716.783-1.768.18-.174.42-.154.84.03l2.697 1.232 1.358-3.021-2.253-1.042c-1.08-.49-1.866-.787-2.496-.818zm127.314 54.28c-1.051-.013-1.64.692-2.401 2.506-.043.104-.697 1.889-.741 2-1.26 3.138-.92 3.814 2.165 5.054l2.588 1.054c1.281.517 2.276.629 3.409-.265l1.961-1.52c.64-.494 1.453-2.144 2.028-1.905l3.848 1.547c.363.149.583.297.63.496.022.085-.597 1.84-.634 1.945-.156.378-.476.4-.993.195l-3.253-1.34-1.272 3.129 2.836 1.166c3.062 1.245 3.795 1.016 5.064-2.11.039-.111.703-1.89.737-2.002 1.146-2.944.704-3.52-2.292-4.74l-3.782-1.513c-1.178-.479-2.32-.07-3.512.874l-2.29 2.605c-.608.471-.86.46-1.446.221l-2.807-1.137c-.5-.204-.73-.399-.583-.754.037-.083.689-1.83.733-1.878.17-.18.436-.17.837 0l2.661 1.11 1.248-3.086-2.212-.933c-1.1-.442-1.897-.71-2.527-.718zm-115.033 1.358-17.74 8.269 1.268 2.709 10.434-4.996.079.181-9.435 7.136.733 1.602 11.36-2.988.253.547-10.528 4.77 1.262 2.7 17.738-8.257-1.828-3.898-9.349 2.097-.069-.146 7.467-6.182-1.645-3.544zm104.928 17.324c-.886.081-1.738.711-2.773 1.908l-3.474 4.018 14.797 12.796 2.19-2.534-6.14-5.304c.204-.297 1.536-1.74 1.739-1.807.22-.068.469.032.768.285l5.476 4.752 2.176-2.53-5.03-4.34c-1.222-1.053-2.094-1.434-3.266-.824.425-1.445-.226-2.2-1.563-3.357l-1.926-1.67c-1.17-1.004-2.088-1.473-2.974-1.393zm-.287 3.222c.257-.03.51.188.939.564l2.84 2.459c.444.376.592.633.467.929-.08.158-1.362 1.594-1.568 1.797l-4.513-3.913c.16-.206 1.443-1.627 1.568-1.72a.569.569 0 0 1 .267-.116zm-91.335.887-15.517 12.282 2.29 2.278 3.263-2.628 2.086 2.103-2.613 3.286 2.301 2.29 12.106-15.56-3.917-4.052zm-.962 4.645.335.335-5.649 6.976-1.637-1.651 6.95-5.66zm78.242 4.052-6.128 3.563 9.793 16.928 6.126-3.542-1.291-2.24-3.232 1.889-3.433-5.945 3.23-1.878-1.286-2.235-3.231 1.879-2.495-4.325 3.228-1.872-1.28-2.222zm-62.747 3.071-8.198 17.764 3.046 1.405 3.398-7.373c.334.114 2.191 1.017 2.303 1.18.128.207.104.458-.058.836l-3.034 6.575 3.015 1.396 2.782-6.045c.675-1.466.8-2.42-.116-3.37 1.512.014 2.053-.824 2.796-2.427l1.064-2.314c1.293-2.793 1.226-3.814-1.637-5.13l-5.361-2.497zm1.971 3.72c.25.103 2.06.965 2.187 1.065.357.28.219.578-.092 1.273l-1.58 3.406c-.241.535-.435.754-.777.702-.162-.018-1.995-.875-2.236-1.016l2.499-5.43zm43.115 1.321-2.836.573 1.947 9.566-.14.019-4.893-8.97-2.928.589 3.815 19.18 2.859-.563-2.022-9.816.135-.031 4.968 9.228 2.911-.57-3.816-19.205zm-24.799 1.546-2.28 19.425 3.323.389 2.288-19.423-3.331-.39z" fill="#fff"/><path d="M119.03 77.824c-.138.1-.262.216-.262.216l-.172.15 1.547.594c-.365-.33-.736-.65-1.112-.96zm-37.334.185c-.139.116-.271.238-.408.354l-.385 1.408-.342-.286c-.046-.011-.316.056-.652.156-.378.357-.731.737-1.086 1.129.503-.116 1.902-.543 2.155-.62.148.167.366.345.366.345.228-.06.777-2.02.777-2.02-.035-.104-.298-.344-.425-.466zm35.835 1.13c-.149.024-.598.413-.598.413l-.17.152 2.198.856-.351.302c-.043.155.572 1.795.572 1.795.22.058.72-.366.72-.366.026-.13-.435-1.41-.55-1.718.188-.127.438-.344.438-.344-.037-.237-2.257-1.089-2.257-1.089zm-34.176.003-.048.17-.51 1.854-.485-.294c-.122-.013-2.449.696-2.449.696-.033.25.585.62.585.62.112.012 2.177-.619 2.426-.7.187.172.518.367.518.367.205-.089.756-2.132.756-2.132-.062-.159-.63-.492-.63-.492l-.157-.088zm37.232.068-.15.144c-.042.14.573 1.78.573 1.78.22.058.723-.36.723-.36.011-.054-.056-.293-.148-.572a24.17 24.17 0 0 0-.998-.992zm-4.926 1.164c-.137 0-.712.34-.712.34l-.221.131 2.16 1.087-.39.231c-.077.139.125 1.86.125 1.86.21.111.829-.255.829-.255.065-.115-.084-1.513-.117-1.79.218-.1.502-.273.502-.273 0-.031-.032-.068-.088-.115l.011-.01-.033-.015c-.429-.376-2.066-1.19-2.066-1.19zm-30.196.086-.034.193-.31 1.856-.54-.263c-.115-.011-2.383.833-2.383.833-.01.253.655.585.655.585.116.002 2.2-.769 2.37-.828.208.15.575.322.575.322.204-.1.558-2.161.558-2.161-.081-.149-.72-.456-.72-.456l-.171-.081zm28.147.968c-.137-.007-.756.302-.756.302l-.24.112 2.112 1.218-.427.227c-.08.124-.025 1.868-.025 1.868.208.122.873-.22.873-.22.067-.112.021-1.51.01-1.81.24-.081.56-.24.56-.24 0-.024-.03-.064-.08-.118l.014-.006-.046-.023c-.427-.413-1.995-1.31-1.995-1.31zm-25.652.277-.01.187-.16 1.864-.583-.233c-.116 0-2.314.935-2.314.935 0 .04.02.086.056.125.17.225.663.433.663.433.104 0 2.144-.87 2.3-.937.22.146.61.295.61.295.205-.106.377-2.186.377-2.186-.092-.135-.753-.41-.753-.41l-.186-.073zm23.492.679c-.137-.016-.816.25-.816.25l-.25.104 2.036 1.326-.48.197c-.092.104-.374 1.876-.374 1.876.19.149.916-.135.916-.135.089-.1.33-1.591.377-1.832.24-.07.593-.204.593-.204.002-.027-.029-.073-.077-.127l.023-.013-.056-.027c-.403-.432-1.889-1.414-1.889-1.414zm-21.226.283.014.214.217 1.845-.654-.177c-.114.018-2.103 1.175-2.103 1.175.008.048.042.08.077.116.199.205.76.356.76.356.1-.013 1.963-1.09 2.09-1.168.251.11.71.24.71.24.176-.15-.06-2.224-.06-2.222-.1-.125-.853-.323-.853-.323l-.198-.056zm19.115 1.251c.104.59.21 1.146.302 1.674.033-.15.043-.282.056-.35.26-.032.73-.16.73-.16.01-.02-.013-.069-.053-.125l.019-.01-.034-.023c-.173-.241-.628-.655-1.02-1.006zm-8.75 2.464s.003 0 .003.008c0-.008-.003-.006-.003-.008zm9.256 27.701c-.014.124-.037.238-.06.356.148-.096.243-.164.243-.164-.004-.045-.037-.082-.081-.115a.457.457 0 0 0-.102-.077zm2.736.698c-.104.01-2.008 1.111-2.097 1.164-.243-.112-.712-.236-.712-.236-.181.147.069 2.232.069 2.222.104.122.85.32.85.32l.203.057-.247-2.064.664.182c.112-.012 2.105-1.177 2.105-1.177a.27.27 0 0 0-.07-.117h-.007c-.199-.202-.758-.351-.758-.351zm-23.258.023c-.288.016-.702.174-.702.174-.077.097-.317 1.578-.356 1.827-.249.07-.604.208-.604.208-.002.023.104.168.104.168.411.43 1.891 1.412 1.891 1.412.125.01.812-.254.812-.254l.252-.1-2.026-1.33.49-.181c.082-.108.366-1.883.366-1.883-.048-.037-.131-.047-.227-.041zm2.049.928c-.255.045-.687.16-.687.16-.01.031.01.076.056.132l-.019.002.031.035c.149.193.496.518.835.827-.069-.401-.147-.781-.216-1.156zm-4.764.077c-.275.047-.64.238-.64.238-.071.108-.036 1.513-.027 1.803a9.344 9.344 0 0 0-.547.229c0 .035.114.16.114.16.427.411 1.985 1.316 1.985 1.316.137 0 .764-.308.764-.308l.24-.112-2.12-1.22.435-.225c.07-.128.023-1.866.023-1.866-.055-.03-.136-.03-.227-.015zm28.893.159c-.112 0-2.175.882-2.3.93a5.321 5.321 0 0 0-.627-.3c-.2.105-.369 2.187-.369 2.187.09.139.766.414.766.414l.181.08.171-2.07.575.247c.118 0 2.317-.937 2.317-.937a.207.207 0 0 0-.058-.129h.009l-.011-.006c-.172-.216-.654-.417-.654-.417zm-31.23.974c-.264.06-.615.267-.615.267-.06.111.09 1.507.122 1.794-.22.103-.501.27-.501.27.001.018.033.063.08.11l-.003.002.016.01c.411.367 2.08 1.214 2.08 1.214.14-.01.71-.352.71-.352l.22-.13-2.164-1.088.397-.235v-.002c.07-.131-.12-1.858-.12-1.858-.053-.026-.133-.022-.221-.002zm33.987.377c-.112-.012-2.24.768-2.376.818-.208-.15-.572-.323-.572-.323-.2.1-.544 2.164-.544 2.164.074.148.702.45.702.45l.173.09.341-2.05.548.265c.114.011 2.376-.827 2.376-.827.023-.255-.648-.587-.648-.587zm-36.324.997c-.228-.054-.718.37-.718.37-.033.126.435 1.408.547 1.717a4.77 4.77 0 0 0-.435.354c.035.227 2.257 1.08 2.257 1.08.149-.027.598-.424.598-.424l.168-.142-2.2-.85.358-.306c.044-.15-.575-1.799-.575-1.799zm38.731.485c-.114-.025-2.163.597-2.423.683-.19-.167-.527-.364-.527-.364-.21.09-.76 2.136-.76 2.136.067.157.641.488.641.488l.163.091.547-2.017.496.287c.114.011 2.448-.698 2.448-.698.024-.249-.585-.606-.585-.606zm-40.562 1.037c-.227-.054-.72.365-.72.365-.014.07.09.416.216.785.286.285.573.561.86.841l.213-.181c.042-.157-.573-1.801-.573-1.801zm41.913.438c-.62.171-1.669.481-1.889.541-.148-.16-.356-.344-.356-.344-.239.07-.778 2.026-.778 2.026.023.08.183.24.314.367.199-.162.386-.332.581-.502l.32-1.15.34.276c.027.01.165-.023.36-.071.377-.372.745-.752 1.108-1.143zm-41.26 1.84c.414.369.837.728 1.271 1.083.162-.116.323-.256.323-.256l.17-.158-1.763-.669z" fill="#d50032"/><path d="m100.468 41.934.002 58.53c-.768-.955-7.286-7.672-9.78-9.976-.049.011-.115.011-.173.02-1.798.155-8.979 1.034-18.278 2.193-.39.054-.792.1-1.192.158-6.46.813-13.837 1.754-21.086 2.703-.974.114-1.942.245-2.907.367-16.297 2.128-31.227 4.137-32.695 4.497-.079.018-.127.04-.125.055l86.234-.015c-.77.962-7.285 7.685-9.778 9.976-.049 0-.115-.013-.173-.023.216 2.209 1.703 9.938 3.469 18.609.077.388.15.764.23 1.157a1622.297 1622.297 0 0 0 4.434 21.025c.226 1.02.43 1.97.616 2.817.687 3.07 1.144 4.98 1.202 4.97l.01-58.508h-.023l.02-.025a.055.055 0 0 0 .016-.019c.87-1.055 7.262-7.68 9.722-9.957.058 0 .137.012.218.012-.218-2.21-1.687-9.939-3.435-18.596-.081-.38-.159-.76-.238-1.151-1.495-7.4-3.166-15.318-4.412-20.985-.22-1.019-.436-1.963-.629-2.82-.698-3.104-1.17-5.037-1.25-5.013zm-33.395 20.36L80.45 77.642a30.434 30.434 0 0 1 6.584-4.418c-4.33-2.636-19.96-10.928-19.96-10.928zm66.802.038-13.607 15.105a30.679 30.679 0 0 1 5.224 5.803c2.16-5.246 7.833-19.356 8.383-20.907zm53.014 38.122c.054.021.089.031.102.035l.04-.008c-.03-.005-.076-.016-.142-.027zm-86.398.035c.838 1.017 7.285 7.663 9.766 9.953.046 0 .107-.012.162-.012 1.774-.162 8.96-1.043 18.29-2.216.392-.052.79-.1 1.194-.154 6.453-.814 13.809-1.755 21.06-2.704.97-.126 1.935-.243 2.896-.367 15.573-2.028 29.947-3.95 32.693-4.41.173-.035.304-.056.383-.08l-86.444-.01zM75.387 117.6c-2.119 5.15-7.44 18.416-8.183 20.65l13.42-14.799a30.55 30.55 0 0 1-5.237-5.851zm45.318 5.518a30.33 30.33 0 0 1-6.539 4.456c4.328 2.678 19.461 11.28 19.461 11.28l-12.922-15.736zm-53.255 15.21c-.128.059-.236.114-.317.15-.013.059-.024.103-.014.103 0 0 .115-.09.33-.254z" fill="#c4ced4"/><path d="M153.853 95.926a58.1 58.1 0 0 0-.264-2.454c-.004-.03-.01-.056-.012-.083-.104-.808-.232-1.6-.369-2.388a69.793 69.793 0 0 0-.504-2.452c-.007-.035-.018-.07-.02-.103a56.192 56.192 0 0 0-.595-2.325c-.001-.011-.011-.025-.013-.046-2.657-9.485-7.866-17.921-14.842-24.509-.008 0-.01-.01-.022-.011a58.85 58.85 0 0 0-1.744-1.582c-.019-.012-.034-.031-.054-.033a42.9 42.9 0 0 0-1.81-1.501c-.013-.01-.024-.023-.042-.033a53.352 53.352 0 0 0-31.84-11.452c.193.857.409 1.8.629 2.819 12.047.443 23.03 5.109 31.517 12.562-.013-.012-15.095 8.14-19.882 10.937a29.672 29.672 0 0 0-7.223-2.514c.08.391.156.772.237 1.152a29.262 29.262 0 0 1 13.145 6.878c.152.139.3.285.45.428.343.32.673.654.995.99a29.253 29.253 0 0 1 7.115 12.5c-9.245-1.16-16.403-2.028-18.27-2.202-.082 0-.16-.011-.219-.011-2.46 2.276-8.851 8.902-9.722 9.957a.056.056 0 0 1-.015.02c-.006.009-.017.02-.02.024h.024l-.012 58.509c.056.01.513-1.902 1.193-4.972 12.023-.264 23.074-4.503 31.897-11.449.01-.011.03-.015.04-.029a63.51 63.51 0 0 0 1.82-1.5c.012-.008.025-.022.039-.032a60.14 60.14 0 0 0 1.761-1.591c.002-.003.004-.012.012-.012 7.57-7.146 13.058-16.467 15.464-26.958.007-.014.007-.035.01-.045.18-.79.343-1.584.49-2.386.003-.03.013-.053.013-.078.139-.8.264-1.607.376-2.415.002-.021.004-.046.01-.06.106-.832.196-1.655.266-2.483-.96.123-1.926.241-2.896.367-2.402 25.125-23.172 44.947-48.677 45.854 1.24-5.66 2.913-13.608 4.426-21.024a30.384 30.384 0 0 0 13.991-7.067l12.923 15.734c.18-.07-5.74-16.045-7.928-21.45a30.103 30.103 0 0 0 4.206-9.342c-.403.054-.803.102-1.194.154a29.199 29.199 0 0 1-6.69 12.062c-.362.39-.733.77-1.109 1.144a26.28 26.28 0 0 1-1.018.944c-.195.171-.382.341-.581.503a29.193 29.193 0 0 1-12.364 6.172c1.768-8.684 3.255-16.424 3.47-18.61-.055 0-.115.012-.16.012-2.482-2.29-8.932-8.935-9.767-9.952l86.441.01h.091s-.012-.002-.033-.01a1.569 1.569 0 0 1-.102-.036c-.081-.012-.197-.035-.338-.058-2.71-.504-17.096-2.437-32.702-4.467v-.007zm-23.949-3.062a30.295 30.295 0 0 0-4.407-9.618 30.626 30.626 0 0 0-5.224-5.803l13.436-14.935.16-.174c9.458 8.281 15.814 20.018 17.096 33.223-7.249-.941-14.611-1.88-21.06-2.693m-82.848 12.104c.07.836.16 1.664.265 2.487a.1.1 0 0 0 .011.05c.105.82.23 1.621.369 2.437.008.014.01.035.011.056a54.2 54.2 0 0 0 .492 2.406c0 .01 0 .014.01.021 2.396 10.511 7.893 19.846 15.476 26.994a47.78 47.78 0 0 0 1.77 1.603c.01.01.024.014.035.023a50.48 50.48 0 0 0 1.826 1.51c.011.013.019.017.03.026 8.83 6.948 19.894 11.188 31.922 11.451-.188-.847-.392-1.796-.62-2.817-12.13-.424-23.192-5.141-31.714-12.664.011.01.071-.012.197-.07.08-.036.19-.09.318-.15 2.636-1.304 14.8-8.02 19.436-10.694a30.875 30.875 0 0 0 7.332 2.555c-.081-.392-.153-.77-.23-1.158a29.097 29.097 0 0 1-11.958-5.829 38.652 38.652 0 0 1-1.27-1.082c-.102-.1-.199-.19-.299-.285-.287-.282-.573-.556-.857-.843a29.27 29.27 0 0 1-7.368-12.784c9.3 1.18 16.481 2.062 18.28 2.217.059.007.126.019.172.019 2.495-2.292 9.014-9.018 9.782-9.977l-86.235.016a.49.49 0 0 0 .126.03c1.462.311 16.386 2.314 32.692 4.446v.008zm23.986 3.093a30.308 30.308 0 0 0 4.348 9.543 30.612 30.612 0 0 0 5.236 5.851l-13.42 14.8-.268.295c-9.411-8.302-15.731-20.02-16.984-33.211 7.25.95 14.625 1.9 21.088 2.722m29.43-66.122c-.059-.005-.516 1.922-1.203 5.015h-.011a53.376 53.376 0 0 0-29.959 9.99c-.011.012-.013.012-.023.02-.64.456-1.27.925-1.889 1.42-.013.009-.036.022-.056.043a56.93 56.93 0 0 0-1.802 1.482c-.02.02-.034.031-.054.052a40.673 40.673 0 0 0-1.753 1.58.04.04 0 0 0-.014.005C56.725 68.14 51.5 76.57 48.846 86.076c-.008.02-.012.025-.012.044a48.874 48.874 0 0 0-.594 2.327.44.44 0 0 0-.025.102c-.182.768-.34 1.557-.48 2.336-.01.045-.012.081-.024.116a60.33 60.33 0 0 0-.378 2.474 46.35 46.35 0 0 0-.27 2.46c-.002 0-.002.002-.002.002.963-.124 1.933-.253 2.907-.369 1.274-13.227 7.643-24.966 17.111-33.256-.08.286 6.105 15.504 8.36 20.959a30.34 30.34 0 0 0-4.387 9.594c.4-.056.803-.104 1.192-.158a29.222 29.222 0 0 1 6.583-11.933c.355-.39.712-.768 1.088-1.127a28.66 28.66 0 0 1 1.378-1.279c.137-.114.27-.239.409-.353a29.127 29.127 0 0 1 12.29-6.108c-1.764 8.659-3.253 16.391-3.471 18.609.058-.01.125-.01.174-.021 2.494 2.305 9.013 9.023 9.78 9.976l-.003-58.53zM94.22 70.75a30.612 30.612 0 0 0-7.182 2.478 30.492 30.492 0 0 0-6.585 4.418L67.082 62.301c8.506-7.447 19.502-12.105 31.569-12.531-1.24 5.66-2.917 13.572-4.43 20.98" fill="#005c5c"/></svg>