<svg xmlns="http://www.w3.org/2000/svg" height="200" width="200"><g transform="translate(138.29 -431.36)"><ellipse rx="99" ry="99.001" cy="531.63" cx="-37.831" fill="#003278"/><path d="M-38.11 465.542a64.545 65.273 0 0 0-64.543 65.273A64.545 65.273 0 0 0-38.11 596.09a64.545 65.273 0 0 0 64.47-63.64h29.53v-2.908h-29.5a64.545 65.273 0 0 0-64.5-64zm-64.543 65.273v-1.273h-29.819v2.908h29.82v-1.635z" fill="#fff"/><path d="M-38.192 436.77c-51.556 0-93.566 41.507-94.457 92.852v.004l30.056.026c.428-15.985 6.687-31.845 18.889-44.05 5.272-5.273 11.249-9.378 17.601-12.449a2.32 2.32 0 0 1-.212.014l2.286-1.039c.037.008.087-.002.126 0a63.883 63.883 0 0 1 3.14-1.28.536.536 0 0 0-.09-.02 58.167 58.167 0 0 1 1.984-.707c.034.006.07.022.1.026 1.03-.347 2.054-.714 3.1-1.013-.012 0-.032-.004-.045-.004a67.26 67.26 0 0 1 2.307-.618c.047.006.079.03.123.04 1.228-.3 2.458-.607 3.698-.833-.01-.004-.02-.01-.03-.01.571-.105 1.137-.219 1.712-.307.036.02.063.042.101.058.784-.115 1.57-.247 2.36-.34a1.041 1.041 0 0 1-.077-.028c.4-.044.81-.097 1.21-.133 18.643-1.844 37.932 4.365 52.209 18.646 6.792 6.788 11.675 14.739 14.803 23.189.062.077.137.16.196.232a66.943 66.943 0 0 1 1.09 3.237c-.04-.095-.087-.172-.132-.263.212.685.358 1.384.546 2.072l.147.168c.19.683.365 1.374.526 2.062-.044-.07-.085-.109-.131-.176 1.058 4.4 1.702 8.88 1.835 13.38h29.472c.013.585.037 1.17.045 1.76 0 .004.006.004.006.006 0-52.106-42.388-94.5-94.493-94.5zm-34.478 58.042v23.941h7.438l.085-.976-.146.48c0-10.211 5.258-14.761 17.053-14.761h1.874v19.362c0 3.319-2.404 5.207-4.13 6.196 1.742.895 4.13 2.647 4.13 5.962v20.736c0 2.69-1.848 4.3-4.961 4.3h-3.817v9.32h30.827v-9.32h-3.613c-3.434 0-5.169-1.382-5.169-4.108v-20.928c0-3.285 2.79-5.088 4.73-5.994-1.915-1.072-4.73-3.107-4.73-6.164v-19.321l.914.006h.784c11.432 0 17.987 5.167 17.987 14.186 0 0-.006.512-.008 1.025h5.551v-23.941H-72.67z" fill="#c0111f"/><path d="m-41.194 443.43-5.628.016 1.795 2.052c0 .002 3.128 4.762 3.665 5.576-.153.254-.768 1.247-.768 1.247l1.17 1.13c-.306.412-4.354 5.762-4.354 5.762-.008 0-1.553 1.46-1.553 1.46l-.586.558 5.388-.06s-.322-1.4-.372-1.632c.161-.206 3.083-3.988 3.532-4.57.422.623 3.14 4.673 3.15 4.689-.003.002-.003.008-.003.028 0 .202.122 1.282.122 1.282l.034.28 6.023-.007-2.196-2.157c0-.008-3.359-4.987-3.918-5.822l.766-1.213s-.778-.872-1.017-1.135c.283-.387 4.064-5.45 4.064-5.45l1.749-2.018-5.426-.016.188.439.543 1.265c-.191.257-2.85 3.784-3.297 4.377-.418-.638-2.911-4.464-2.923-4.48.004 0 .004-.008.004-.03 0-.206-.118-1.288-.118-1.288l-.034-.283zm-30.604 6.235-.281.153-10.765 5.661 1.939 1.203c0 .087 2.072 4.09 2.391 4.715l-.804 2.096 2.222.641c.12.24 2.426 4.915 2.436 4.933-.03.002-.043 1.545-.043 1.545l-.002.527 10.907-5.731-1.65-3.31s-1.813 2.432-1.813 2.44c-.018-.026-3.494 1.814-4.225 2.2l-2.647-5.175c.463-.24 2.976-1.56 2.984-1.561 0 .018 1.555-.188 1.555-.188l.437-.057-1.608-3.24s-1.451 1.542-1.455 1.544c-.008-.012-2.288 1.177-2.952 1.518-.242-.46-1.91-3.682-2.153-4.144.493-.26 4.41-2.293 4.415-2.297.004.03 2.386-.016 2.386-.016l.505-.01-1.779-3.447zm70.716 1.589-.158.147s-5.499 5.08-5.517 5.095c-.008-.042-2.086.277-2.086.277l-.27.042s.011 1.87.015 2.115c-.202.18-4.338 3.9-4.338 3.9.042-.034-1.486.918-1.486.918l-.488.307 4.339 2.038s.05-1.751.06-1.967c.15-.152 1.75-1.747 2.01-2.01.36.168 4.897 2.311 5.267 2.485-.043.365-.29 2.555-.312 2.773l-1.5 1.274 5.722 2.679-.45-2.39c.015 0 .773-5.48.785-5.565.049.044 1.6-1.349 1.6-1.349l.22-.194s-1.575-2.005-1.583-2.01c.072-.006.404-7.276.404-7.276l.014-.21-2.248-1.08zm-1.813 5.084c-.142 1.22-.579 5.021-.653 5.69-.592-.277-2.987-1.412-3.605-1.7.519-.487 3.365-3.15 4.258-3.99zm-97.376 13.088-.19.235-9.16 10.929 2.902 2.394s.704-2.792.708-2.8c.016.014 1.345-1.566 1.8-2.105.41.341 3.301 2.72 3.473 2.857l.242 2.12 2.123-.095 4.211 3.538c0 .065.694 1.56.694 1.56l.21.458 3.91-4.678-2.258-.348c0-.06-4.141-3.546-4.204-3.605.004 0 .007-.012.007-.036 0-.275-.277-1.818-.277-1.818l-.051-.289s-1.862.198-2.086.217c-.186-.154-3.064-2.572-3.466-2.912.313-.39 1.71-2.072 1.715-2.082.014.022 2.234-.968 2.234-.968l.477-.215-3.014-2.357zm125.84 3.091a4.235 4.235 0 0 0-1.602.348c-.442.186-1.051.522-1.425 1.064-.452.664-.752 1.555-.843 2.51l-.04.668c0-.033-.033.303-.039.341-.052-.03-.966.845-.966.845l-.18.17s1.13 2.05 1.13 2.062v.065c0 .39.099 2.329.099 2.329-.024.876-.423 1.765-.932 2.088-.654.422-1.495.542-2.313.334-.775-.192-1.885-.768-2.771-2.394-.996-2.15-.38-3.741.307-4.692l.234-.32-1.666-.727-.153.186c-.953 1.169-1.248 3.844.101 6.51 1.187 2.34 2.754 3.87 4.53 4.42 1.376.433 2.816.279 4.171-.454.648-.34 1.216-.977 1.464-1.42.495-.837.627-1.847.629-2.164l.026-1.539c0-.028-.053-.637-.069-.847l1.082-1.104s-1.04-1.773-1.066-1.823a.323.323 0 0 0 .01-.114l-.003-.355c0-1.37.367-2.285 1.047-2.578.822-.363 2.696-.317 3.504 1.425.684 1.484.82 2.458.503 3.603l-.073.273 1.581.618.11-.319c.534-1.684-.333-3.875-.894-5.034-1.067-2.174-3.201-4.016-5.493-3.975zm-140.3 27.236-2.315 7.135h-7.5l6.068 4.407-2.316 7.137 6.063-4.414 6.077 4.414-2.323-7.137 6.065-4.407h-7.5l-2.32-7.135zm152.45 0-2.317 7.133h-7.507l6.07 4.413-2.318 7.133 6.072-4.412 6.069 4.412-2.323-7.133 6.077-4.413h-7.509l-2.314-7.133zm-144.55 46.39-.35.335-1.264 1.217c-.022-.014-1.526.53-1.526.53l-3.049 1.095c0-.072-1.821-.839-1.821-.839l-.283-.115s-.902 1.99-1.003 2.216c-.226.085-5.054 1.85-5.064 1.852-.008-.018-1.65-.111-1.65-.111l-.477-.03 2.044 5.707 1.605-1.685c.022.02 4.09-1.494 5.214-1.912.042.125.297.833.376 1.071l-5.802 6.403 1.623 4.626s1.44-2.2 1.48-2.255c.095-.103 4.709-4.935 5.048-5.292 1.431 1.65 3.433 2.4 5.127 1.795 1.127-.42 1.903-1.21 2.353-2.368.614-1.595.496-3.856-.31-6.054l-2.272-6.187zm139.03 2.82-.415.214c-1.191.624-2.239 2.144-2.951 4.276-.955 2.87-.387 6.541 2.553 7.7.46.176 1.151.392 1.817.26.812-.162 1.661-.602 2.402-1.212l.49-.447c-.015.014.192-.151.214-.17.016.055 1.34.077 1.34.077l.243.002s.65-2.309.65-2.317c.027.008 1.584-1.746 1.584-1.746.595-.564 1.434-.894 1.97-.766.903.258 1.53.801 1.901 1.524.467.91.521 2.053.158 3.31-.761 2.115-2.244 2.783-3.356 2.963l-.39.065-.037.398.627 1.593.328-.03c1.314-.131 3.61-1.694 4.583-4.777.753-2.344.767-4.452.044-6.077-.648-1.456-1.882-2.52-3.483-2.993-.707-.218-1.56-.171-2.095-.036h-.004c-.894.246-1.688.823-2.017 1.128-.012.006-1.09 1.07-1.09 1.07a28.05 28.05 0 0 0-.503.602l-1.583.022s-.51 2.032-.534 2.121c-.026.002-.194.184-.194.184-1.222 1.29-2.034 1.296-2.406 1.183-.79-.307-2.134-1.521-1.486-3.31.53-1.484 1.091-2.243 2.066-2.79l.247-.137.014-.336-.687-1.548zm-139.37 2.842c.145.384.456 1.272.456 1.272.15.404.22.783.22 1.13a2.2 2.2 0 0 1-.143.798c-.236.624-.76 1.1-1.512 1.381-.82.293-1.689.244-2.363-.127a2.361 2.361 0 0 1-1.116-1.296s-.366-.985-.542-1.472c.513-.176 4.505-1.516 5-1.686zm128.08 23.11a4.48 4.48 0 0 0-.892.049c-1.69.246-3.603 1.457-5.11 3.242l-4.266 5.02s2.191.651 2.201.651v.002c0 .047 3.573 3.164 3.61 3.198-.01 0-.015.039-.015.108 0 .412.17 1.892.17 1.892l.036.303s2.186-.188 2.418-.212c.2.167 4.106 3.524 4.106 3.524 0 .056.703 1.496.703 1.496l.209.424 3.956-4.583-2.23-.574c0-.026-3.323-2.85-4.243-3.623.157-.182.604-.69.752-.859.349.083 8.404 1.939 8.404 1.939l3.22-3.694-2.666-.186c-.049-.01-6.565-1.678-7.088-1.811.246-.69.43-1.388.43-2.044 0-1.33-.476-2.53-1.387-3.32-.686-.587-1.458-.9-2.318-.942zm-112.34 1.7-.292.1s-6.69 2.334-6.714 2.34c-.002-.042-1.999-.531-1.999-.531l-.255-.063s-.794 1.689-.895 1.894l-5.6 1.883s.036.014.04.018c-.252.012-.715.079-1.722.232l-.799.132 3.42 3.926s.8-1.689.888-1.884c.192-.077 2.15-.858 2.467-.983.25.285 3.394 3.852 3.639 4.134-.174.3-1.191 2.083-1.282 2.25l-2.014.611 4.458 5.097s.572-2.604.576-2.614c.008.046 1.155-1.872 1.155-1.872l1.825-3.03c.02.054 1.781-.638 1.781-.638l.239-.089s-.36-2.428-.364-2.436c.055.008 3.107-6.279 3.107-6.279l.091-.188-1.75-2.01zm110.18 2.08c.497.045.985.267 1.441.66.664.571 1.045 1.355 1.061 2.126v.047a2.37 2.37 0 0 1-.588 1.559c0 .002-.67.807-1.003 1.209-.414-.378-3.532-3.207-3.916-3.556.257-.305.878-1.023.878-1.023.5-.586 1.054-.93 1.627-1.007a2.11 2.11 0 0 1 .5-.014zm-114.19 2.263c-.586 1.015-2.18 3.787-2.5 4.344-.415-.47-1.876-2.133-2.31-2.632.646-.226 3.703-1.316 4.81-1.712zm33.62 9.742a6.487 6.487 0 0 1-1.75.134c1.222.529 2.46.993 3.704 1.443a7.74 7.74 0 0 1-1.955-1.577zm-12.557.746.034.54.137 2.046c-.028-.04-1.194 2.343-1.194 2.343s-.734 1.497-.833 1.705c-.218.08-2.097.798-2.097.798s.605 2.29.613 2.31c-.073-.011-1.595 3.068-1.595 3.068s-.886 1.789-.896 1.805c-.022-.026-1.389.979-1.389.979l-.416.307 4.981 2.47s-.297-2.514-.303-2.52c.042 0 3.16-6.273 4.29-8.54l2.472 14.289 2.046 1.033s3.322-6.789 3.334-6.823c.032.06 1.716-.722 1.716-.722l.237-.111s-.516-2.09-.52-2.115c.073 0 1.333-2.588 1.333-2.588s.83-1.704.837-1.714c.034.006 1.336-1.021 1.336-1.021l.388-.307-4.818-2.44.219 2.472c-.037-.026-2.287 4.557-2.287 4.557s-.65 1.335-1.091 2.236a44228.22 44228.22 0 0 0-2.166-11.916l-4.368-2.141zm72.552 1.207-.425.186-11.241 4.883 1.975 1.447c0 .083 1.826 4.341 1.986 4.719-.1.222-.97 2.084-.97 2.084l2.213.815c.093.232 2.007 4.92 2.011 4.937-.026.004-.161 1.71-.161 1.71l-.043.524 11.503-5.012-1.482-3.475s-2.096 2.42-2.106 2.43c-.012-.029-2.673 1.136-2.673 1.136s-1.038.455-1.441.635c-.126-.303-1.986-4.74-2.196-5.25.468-.204 2.867-1.236 2.873-1.238.004.01 1.743-.089 1.743-.089l.444-.02-1.53-3.687-1.672 1.55c-.004-.012-2.78 1.189-2.78 1.189l-.05.02c-.208-.48-1.628-3.773-1.832-4.255.436-.186 4.108-1.763 4.246-1.828.17.014 3.117.176 3.117.176l-1.51-3.59zm-33.572 8.974c-4.384-.042-8.376 2.648-9.71 6.539-.005.018-.215.806-.225.824-.012-.032-1.266 1.27-1.266 1.27l-.181.196 1.388 1.826c.75 4.39 4.976 7.717 9.791 7.759 3.384.034 4.37-.456 5.526-1.031l.67-.336.03-6.188c.044 0 .883-1.492.883-1.492l.262-.463-6.394-.047 1.096 2.11c-.035 0-.043 1.568-.043 1.568l-.008 3.065c-.351.103-.76.432-2 .42-3.044-.022-4.836-2.753-5.262-5.442.026-.02 1.369-1.357 1.369-1.357l.202-.204s-1.24-1.468-1.41-1.672c.015-.062.094-.533.094-.533.622-2.153 2.318-4.466 5.2-4.398 2.073.045 3.62.552 4.352 1.426l.255.317.538.661.101-3.297-.21-.14c-1.486-1.01-2.767-1.358-5.048-1.38z" fill="#fff"/><path d="m-44.091 466.93-.218.026c-.4.037-.812.09-1.211.134l.076.028c.5.192 1.97.777 2.18 1.132l.75-.113s-.92-.745-1.577-1.207zm-3.813.471c-.577.089-1.14.2-1.71.305.01 0 .02.006.03.01 1.05.283 2.027.899 3.085 1.416l1.021-.091s-.952-.814-2.325-1.583c-.038-.016-.067-.039-.1-.057zm-5.503 1.108c-.775.192-1.535.4-2.307.619.013 0 .035.004.045.004.509.084 1.496.291 1.868.715 1.15-.206 1.948.373 2.679.748l1.722-.552s-2.235-1.101-3.055-1.12c-.349-.167-.57-.301-.829-.374-.042-.01-.079-.034-.123-.04zm-5.463 1.61a62.97 62.97 0 0 0-1.983.707c.016 0 .06.014.09.02.318.075 1.39.342 1.94.815 1.203-.204 2.389.39 3.25.94l1.74-.613c-.192-.319-2.436-1.294-3.692-1.318-.418-.329-.854-.44-1.243-.526-.03-.004-.067-.02-.102-.026zm-4.049 1.978c-.333-.017-.689.04-.984.029-.039-.002-.09.008-.126 0l-2.286 1.039c.042 0 .117-.006.212-.016.636-.067 2.305-.287 2.517.196 1.294-.128 2.688.661 3.53 1.196l1.848-.477c-.998-.898-2.818-1.605-3.864-1.548-.204-.31-.514-.402-.847-.419zm-5.266 2.663-2.224 1.205c.284.018 2.163.055 2.41.606 1.284-.109 2.702.339 3.521.851l1.616-1.229c-1.268-.682-3.25-1.063-4.282-1.013-.521-.18-.446-.345-1.041-.42zm-5.588 3.463-1.543 1.306c.735.23.983.848 1.434 1.482 1.506-.283 3.72-.879 5.88-.394l1.624-1.44c-2.439-.43-5.025-.309-6.34.037-.315-.489-1.055-.99-1.055-.99zm-4.606 4.79-1.281 1.178c.74.226.975 1.066 1.437 1.684 1.246-.618 3.996-1.059 6.77-.681l1.434-1.848c-4.208-.299-5.941.233-7.25.871-.45-.76-1.11-1.205-1.11-1.205zm-3.944 4.892-1.013 1.6c.927.508.84 1.11 1.286 1.74 1.258-.63 3.818-1.83 6.605-1.444l1.425-1.841c-4.36.094-6.759.474-7.076 1.485-.438-.763-1.227-1.54-1.227-1.54zm-3.46 4.769-.76 1.81c.675.506 1.089 1.749 1.555 2.38 1.248-.645 2.86-1.873 5.635-1.469l1.314-2.145c-3.535 0-5.813.721-6.132 1.74-.44-1.055-1.611-2.316-1.611-2.316zm79.65.505v27.313h-8.919l5.162 4.885h8.432v-27.828l-4.674-4.369zm-82.447 4.567-.752 2.014c.937.509 1.088 1.75 1.542 2.363 1.248-.622 3.127-1.778 5.93-1.405l1.152-2.125c-3.4 0-5.754.734-6.057 1.751-.559-1.397-1.815-2.598-1.815-2.598zm-2.762 6.221-.62 2.087c.926.523 1.36 1.761 1.811 2.4 1.254-.639 2.79-1.674 5.576-1.29l.893-2.014c-4.236.26-5.337.618-5.65 1.623-.634-1.25-2.01-2.806-2.01-2.806zm43.102 1.272c-10.877 0-15.316 3.77-15.326 13.123l-.012 2.13h-10.747l4.9 4.594h10.22l.01-1.717c0-9.576.936-15.613 11.094-16.624v-1.506h-.138zm16.88.05v17.568c0 3.297 5.3 5.412 5.359 5.435l2.181.853c-1.36-1.058-2.634-2.505-2.634-4.327v-17.78l.841.05c3.263.28 5.612 1.144 7.284 2.406-2.707-2.706-7.075-4.187-13.032-4.205zm53.18 2.566-.26.881c.83.903 1.63 1.864 2.295 3.263.045.091.091.168.132.263a69.2 69.2 0 0 0-1.088-3.239c-.059-.07-.136-.155-.2-.23a15.011 15.011 0 0 0-.88-.938zm-115.71 2.015-.417 2.089c.94.517 1.359 1.755 1.821 2.391 1.242-.636 3.328-1.778 6.108-1.407l.697-2.076c-4.086.246-5.875.646-6.198 1.668-.452-.76-2.012-2.665-2.012-2.665zm114.64.524-.318.942c1.179 1.014 1.972 1.854 2.717 3.647l.445-.922c-.76-1.546-1.157-1.959-2.845-3.667zm-1.268 2.751-.583.939c1.59 1.417 2.29 2.2 3.029 4.271l.372-.79-.045.121c.893.74 1.904 1.919 2.511 5.176l.461-1.848c-.18-2.346-2.361-4.95-2.674-4.143l-.134.368c-.749-1.506-1.241-2.543-2.937-4.094zm4.437.383-.438.994c.482.345.965.856 1.461 1.603.047.067.087.102.132.172a49.679 49.679 0 0 0-.526-2.06l-.147-.168-.482-.541zm-6.188 2.5-.79 1.052c1.195.739 2.437 2.525 3.196 4.33l.388-.639c.658.57 1.837 1.431 2.608 5.891l.596-1.552c-.656-4.242-2.634-5.84-2.794-4.89l-.277.341.213-.342c-.761-1.526-1.684-3.183-3.14-4.19zm-113.49.029-.437 2.228c.925.858 1.616 2.45 2.068 3.095 1.252-.638 3.212-2.383 5.977-1.988l.434-1.864c-4.044.307-4.69.756-5.675 1.961-.442-.767-2.367-3.432-2.367-3.432zm111.1 3.135-.995 1.054c1.196.732 3.003 2.697 3.759 4.506l.713-1.072c-.753-1.534-2.017-3.476-3.477-4.488zM12.23 522.5l-1.14.924c.831.549 3.716 2.978 4.465 4.79l.872-1.204c-.756-1.536-2.681-3.485-4.197-4.51zm-109.79.465-.324 2.157c1.644 1.413 2.324 2.768 2.802 3.358.54-1.076 2.583-2.084 5.38-1.852l.347-2.032c-3.317.194-4.81.74-5.248 1.692-.484-.759-2.958-3.323-2.958-3.323zm116.89.107a.278.278 0 0 0-.148.073l-.508.88c1.424 1.822 1.97 3.874 2.133 6.624l1.01-1.546c-.031-2.69-1.694-6.147-2.488-6.031zm-1.897 2.758-1.01 1.316c.66 2.204 1.068 5.956.707 8.129l1.308-1.72c.22-2.464-.55-5.53-1.005-7.725zm-8.837.13-1.205 1.07c1.204.717 3.687 3.02 4.43 4.824l.99-1.05c-.757-1.528-2.75-3.838-4.215-4.843zm-32.274 3.302-2.405.678c-.053.014-5.273 1.526-5.273 5.072v20.93c0 1.42.58 2.365 3.429 2.365h1.474c.002-.133.012-.273.002-.416v-6.336c1.478 1.298 3.03 2.361 4.207 2.495l.513-.303c.02 2.55-.195 4.06.413 5.84l-1.256-1.168v12.692h-34.203l5.374 5.082h2.327c.347.561.747.997 1.237 1.134l1.112-1.134h28.295v-13.917l-2.046-1.9 1.632-.684c-1.218-1.276-1.167-5.032-1.041-7.065l-.567.333c-2.267-.375-4.722-2.64-5.856-4.179l-.142.059v-11.863c0-4.276 5.926-5.917 5.926-5.917s-1.612-.639-3.152-1.798zm28.86.071-1.21 1.07c1.208.72 3.687 3.024 4.434 4.825l.8-.855c.24 2.875.224 6.105-.105 7.614l1.486-1.187c.243-2.592.083-5.59-.382-7.783l-1.047.766c-.866-1.506-2.634-3.521-3.977-4.45zm8.828.427-1.126 1.118c.374.965.663 2.14.37 7.963l1.421-1.324c.04-4.367-.195-5.56-.665-7.757zm-112.68.527-.143 2.074c.82.37 2.333 2.906 2.787 3.528.107-.115.241-.496.52-.837.497-.597 1.929-1.45 5.006-1.32l.176-1.902c-3.55.042-4.685.908-4.986 1.257-.283.249-.392.72-.469.985-.547-1.448-2.89-3.785-2.89-3.785zm99.853 2.303-1.251.936c.527.147 1.94 1.559 3.944 4.54l1.199-.988c.165 3.311.428 6.45.069 7.963l1.443-1.124c.29-2.418.216-5.231-.131-7.801l-1.343.87c-1.75-2.57-2.918-3.72-3.931-4.41zm-5.3 4.055-1.707 1.04c.771.579 4.254 4.602 5.881 3.994 0 0-.736 4.975-.604 7.55l1.868-1.197c-.06-1.353.028-7.062.366-8.392.068-.073-1.05 1.08-1.51.758-.734-.511-1.987-1.22-4.295-3.753zm-95.04.158.045 2.289c.918.55 2.352 1.998 2.773 2.646.576-.97 1.229-1.47 5.378-.594l.022-1.982c-4.894-.238-4.823.205-4.979.831-.42-.777-3.239-3.19-3.239-3.19zm88.687 3.202-2.323 1.268c1.345 1.39 5.751 4.888 6.654 4.917l.123-.095c.016 2.948-.354 4.479.774 6.738l2.107-.88c-1.214-1.261-1.158-5.03-1.04-7.061l-.072-.128c-.751.263-1.705.036-2.557-.691-.848-.725-3.666-4.068-3.666-4.068zm-88.689 3.579.124 2.05c1.086.256 2.416.927 2.879 1.555 1.245-.638 3.017-.581 5.224.598l-.06-2.034c-2.672-1.2-4.05-.986-5.031-.404-.45-.782-3.136-1.765-3.136-1.765zm80.62 1.38-2.116.876c1.918 2 4.46 4.195 6.182 4.391l.517-.297c.027 3.006-.362 4.53.77 6.817l2.117-.881c-1.22-1.266-1.166-5.037-1.045-7.062l-.558.33c-2.277-.366-4.726-2.629-5.867-4.173zm-80.149 4.086.528 2.279c1.215.313 2.008.888 2.464 1.524.24-.638 1.017-.286 2.032.164.895.414 1.562.888 2.596 1.454l-.053-2.05c-2.257-1.45-4.462-2.554-4.78-1.547-.441-.761-2.787-1.824-2.787-1.824zm1.047 5.247.284 2.064c.983.404 1.739.963 2.201 1.651 1.064-.133 2.007.28 4.292 1.917l-.17-1.939c-2.334-1.954-3.472-1.842-4.304-1.842-.454-.831-2.303-1.851-2.303-1.851zm40.756 15.543-.666.715c.204.097.435.203.666.304v-1.02zm-3.057 3.98-.926 1.391c2.263 1.19 4.474 1.278 6.463 1.278l.117-.168c.828 1.83 1.628 3.727 3.635 4.484l1.139-1.32c-1.474-.594-3.41-3.117-3.769-4.634l-.125.184c-2.256.428-4.925-.74-6.534-1.215zm-2.697 4.036-.831 1.47c2.261.698 4.228.812 6.746.53l.13-.231c.91 1.675 1.145 2.672 3.503 4.057l1.142-1.318c-1.484-.598-3.285-2.99-3.643-4.508l-.246.392c-2.34.602-5.184.08-6.801-.392zm-2.046 4.207-.677 1.542c2.45.84 4.726 1.015 6.384.67.844 1.393 1.762 2.71 3.785 3.465l.74-1.318c-1.672-.689-3.234-1.574-3.78-3.621-2.355.595-4.829-.266-6.452-.738zm-1.312 3.554-.447 1.37c2.267 1.174 4.45.995 6.103.64.911 1.294 1.677 2.02 3.69 2.771l.722-1.043c-2.146-.26-2.988-1.359-3.957-2.808-2.338.595-4.502-.454-6.111-.93z" fill="#003278"/></g></svg>