<svg xmlns="http://www.w3.org/2000/svg" xml:space="preserve" height="211.34" viewBox="0 0 250 211.344" width="250"><path d="M249.268.839H1.263v209.346h248.005V.84z" fill="#134a8e"/><path d="m236.39 93.192-4.651-1.6-2.542-.87.899-10.832.295-3.646-3.598.618-9.593 1.637-1.408-3.586-1.56-3.958-3.05 2.965c-.054.054-4.768 4.648-7.258 7.054.45-4.527 1.557-16.023 1.569-16.158l.443-4.636-4.31 1.743-1.96.787c.197-.924.386-1.837.57-2.745 1.144-5.703 4.017-15.711 9.44-23.344 0 0-3.457-.833-8.783.707-1.502.43-.114.023-.16.037 1.763-4.201 9.619-14.982 9.619-14.982s-11.13-.206-15.325 2.336c2.607-8.572.42-15.249.42-15.249l-8.637 10.034c-14.916 17.317-51.265 22.102-75.316 25.27-9.73 1.283-17.42 2.293-22.16 3.85-11.45 3.752-17.448 10.162-21.014 15.18l-2.287.958c-4.373 1.86-6.857 4.253-9.295 7.787-24.752 4.213-39.056 8.772-43.712 13.917l-.312.381c-1.048 1.428-1.388 3.097-.979 4.64-.157 1.333.12 3.339 2.481 5.21l.163.124c5.65 4.095 22.532 10.474 42.688 14.229 9.05 1.683 12.933 3.03 18.7 8.25 28.673 25.958 42.759 64.954 49.144 83.974l7.177-13.205c23.957-42.05 47.43-61.49 47.705-61.75l4.965-4.522.138.254 2.51 4.837 2.506-4.842.945-1.81 18.662 1.526 6.714.547-4.304-5.177-2.335-2.825 23.066-19.893 3.73-3.222z" fill="#fff"/><path d="M79.845 79.254s-1.308-3.288.366-6.65c.664-1.317 1.918-2.536 3.589-3.526 12.337-8.277 38.498.211 38.498.211-6.21-.572-11.31-.458-15.612.112 7.298 2.275 15.1 5.349 20.391 6.628 6.502 1.58 10.824 2.393 17.294 2.776l-.208-2.55 3.591.618 9.587 1.637 1.42-3.586 1.557-3.958 3.045 2.965c.069.055 4.773 4.648 7.26 7.052-.446-4.525-1.554-16.02-1.562-16.155l-.444-4.637 4.313 1.743 4.722 1.906 7.08-11.582 2.413-3.943 2.41 3.943 5.72 9.342c1.992-8.108 3.42-16.7 7.602-20.683-4.196.157-7.138 1.333-11.702 4.536 2.595-7.006 6.422-12.203 11.596-18.144-5.02.758-9.822 2.2-14.547 4.896 1.803-4.287 1.929-9.59 1.929-9.59-22.077 25.622-83.65 25.302-99.6 30.533-10.454 3.426-15.822 9.133-19.546 14.76-.36 5.797 3.864 11.346 8.838 11.346" fill="#134a8e"/><path d="M67.768 69.152c-3.684 1.565-5.566 3.385-8.331 7.758-30.038 4.968-40.312 9.776-43.008 12.758-.4.544-.226.79.16.912 9.957-.418 23.92-.914 48.318-.09 2.066.027 4.095.065 6.072.108 1.225-1.628 3.469-3.076 7.727-3.076h1.257c7.927.108 9.4 8.241 17.82 8.241 8.382 0 9.868-8.072 17.73-8.232l.662-.01h29.053l-.402-4.824h-29.088c-8.065 0-9.496-8.255-17.967-8.255-8.349 0-9.844 8.155-17.614 8.224-8.403-.498-11.729-7.544-12.387-13.514zm26.785 9.042c-.592 2.375-.26 4.417-.126 5.473l-2.817-.008c-.066-2.118 1.197-4.3 2.942-5.465zM17.217 91.716c-1.013-.006-1.274.403-.175 1.27 4.774 3.457 20.942 9.712 40.776 13.406 9.536 1.78 13.908 4.391 20.754 9.176 14.91 10.429 35.23 38.38 47.624 74.758 23.496-45.63 50.775-66.115 52.939-67.69l-13.974 1.141-6.703.546 4.302-5.179 2.33-2.821-9.025-7.79c-4.905 7.504-9.687 15.634-11.97 21.916l9.936-.045c-5.103 6.325-14.939 16.77-21.558 28.355-6.622-16.25-22.112-37.15-50.1-48.635-8.107-3.325-15.763-7.74-14.77-14.157-14.023-2-29.354-3.618-46.737-4.19-1.32-.02-2.553-.046-3.649-.063z" fill="#1d2d5c"/><path d="m227.231 79.655-11.856 2.03-2.261-5.727s-7.644 7.432-8.657 8.408c-.659.626-1.397.978-2.021.978-.99 0-1.72-.895-1.522-3.059.028-.194.048-.506.088-.913.387-3.94 1.629-16.779 1.629-16.816l-3.755 1.514-3.18 1.285-8.333-13.623h-.003l-8.331 13.623-6.94-2.8c.003.038 1.247 12.876 1.631 16.817.04.407.069.719.092.913.197 2.164-.541 3.06-1.529 3.06-.63 0-1.356-.353-2.017-.98-1.022-.975-8.657-8.407-8.657-8.407l-2.259 5.726-11.85-2.029 1.064 13.03-4.61 1.586 25.167 21.713v.003l-4.115 4.953 1.456-.111 8.088-.667 11.001-.893 1.099 2.124.232.44.48.916.934-1.797.87-1.683 20.542 1.671-4.115-4.953v-.003l25.173-21.713-4.616-1.586 1.081-13.03z" fill="#e8291c"/></svg>