<svg xmlns="http://www.w3.org/2000/svg" xml:space="preserve" height="150" viewBox="0 0 150 150.002" width="150"><path d="M75.088 1.203C34.22 1.203 1.09 34.331 1.09 75.201c0 40.865 33.13 73.995 73.998 73.995 40.865 0 73.997-33.13 73.997-73.998 0-40.867-33.132-73.995-73.997-73.995" fill="#ab0003"/><path d="M75.089 5.315c-38.603 0-69.893 31.29-69.893 69.89s31.291 69.892 69.893 69.892c38.598 0 69.891-31.29 69.891-69.893 0-38.597-31.293-69.888-69.891-69.888" fill="#14264b"/><path d="M75.088 24.923c-27.77 0-50.281 22.51-50.281 50.281 0 27.77 22.51 50.281 50.28 50.281s50.281-22.51 50.281-50.282c0-27.77-22.51-50.28-50.28-50.28" fill="#ab0003"/><path d="M75.088 27.85c-26.154 0-47.36 21.2-47.36 47.354 0 26.157 21.206 47.36 47.36 47.36s47.357-21.203 47.357-47.36c0-26.153-21.203-47.354-47.357-47.354" fill="#14264b"/><path d="m75.283 8.58-.97 12.491 2.337.177.558-7.232 6.494 7.952.577.044.967-12.49-2.338-.18-.558 7.231-6.494-7.948-.573-.045zm-8.544.864-2.437.353 1.768 12.23 2.44-.353-1.771-12.23zm-10.823 2.113-2.304.89 2.34 6.07-4.681 1.801-2.33-6.075-2.304.886 4.44 11.532 2.3-.882-1.29-3.351 4.678-1.801 1.29 3.351 2.297-.885-4.436-11.536zm41.126 1.367c-2.62 0-4.851 1.566-5.825 4.083-1.296 3.37.37 6.93 3.877 8.28 1 .383 1.932.573 2.852.573a6.84 6.84 0 0 0 2.168-.364l.136-.044 1.713-4.443-5.101-1.966-.812 2.11 2.932 1.127-.47 1.217c-.788.139-1.624.026-2.59-.346-2.266-.872-3.207-2.975-2.342-5.233.642-1.658 2.013-2.69 3.58-2.69.458 0 .924.087 1.378.261 1.566.604 2.011 1.465 2.333 2.293l.114.294 2.19-.904-.102-.28c-.63-1.68-1.796-2.8-3.668-3.52a6.541 6.541 0 0 0-2.363-.448zm13.218 5.913-1.327 1.826 2.82 2.051-5.947 8.162 1.988 1.452 5.95-8.162 2.815 2.054 1.33-1.823-7.629-5.56zm-72.43 1.944c-.684.086-1.354.364-2.002.838-.821.595-1.36 1.403-1.525 2.271-.163.873.055 1.777.617 2.55.724.995 1.656 1.46 2.929 1.46.51 0 1.077-.073 1.782-.228l.867-.184c.452-.094.88-.184 1.246-.184.492 0 .824.162 1.099.54.179.245.246.512.198.794-.065.426-.385.865-.9 1.239-.877.64-1.827.727-2.763.257l-.272-.136-1.088 2.09.283.14a4.927 4.927 0 0 0 2.175.519c1.054 0 2.073-.349 3.021-1.04 2.089-1.524 2.585-3.57 1.294-5.344-.76-1.04-1.695-1.525-2.944-1.525-.508 0-1.085.072-1.87.24l-.871.187c-.53.113-.953.187-1.294.187-.454 0-.722-.13-.981-.485-.39-.536-.263-1.12.342-1.558.606-.445 1.173-.493 1.914-.173l.298.125.812-2.139-.272-.118c-.711-.302-1.41-.409-2.095-.323zm84.186 10.51c-1.43 0-2.797.489-3.966 1.423-1.364 1.09-2.21 2.616-2.377 4.288-.167 1.651.337 3.3 1.415 4.645 1.237 1.55 3.046 2.437 4.953 2.437 1.43 0 2.801-.492 3.966-1.426 1.366-1.094 2.208-2.613 2.377-4.285.167-1.649-.334-3.3-1.41-4.645-1.238-1.55-3.049-2.437-4.958-2.437zm-98.22 1.522-.308.382 6.31 12.186 1.594-1.944-1.032-1.948 2.874-3.502 2.109.64 1.65-2.01-13.197-3.804zm98.473.897c1.132 0 2.164.515 2.915 1.451 1.39 1.736 1.07 4.057-.757 5.52-.805.642-1.717.985-2.639.985-1.131 0-2.164-.516-2.914-1.452-1.385-1.736-1.07-4.057.757-5.52.802-.642 1.714-.984 2.638-.984zm-94.673 2.565 2.932.889.4.121-1.7 2.065-1.632-3.075zM17.29 41.743l-.977 2.29 5.49 4.817-7.813.033-.198.47 5.398 5.642-7.298-.57-1.018 2.4 13.244.841.191-.466-5.78-6.104 8.375.011.21-.485-9.824-8.878zm117.774 4.399-11.66 4.608.863 2.18 6.747-2.669-4.248 9.206-.055.118.206.54 11.664-4.608-.867-2.18-6.744 2.665 4.3-9.32-.206-.54zM27.214 100.13l-10.525 6.806 1.271 1.97 6.097-3.94-2.4 9.988.327.478 10.518-6.795-1.272-1.97-6.097 3.936 2.393-9.98-.313-.493zm97.069 1.403c-1.51 0-2.694.681-3.525 2.029-.531.86-.726 1.812-.547 2.675.176.873.72 1.628 1.536 2.132.6.37 1.195.547 1.815.547.899 0 1.8-.357 3.014-1.194l.728-.503c.606-.41 1.135-.765 1.639-.765.223 0 .443.069.668.21.261.157.42.377.485.65.1.421-.028.953-.36 1.496-.574.929-1.406 1.358-2.462 1.282l-.305-.022-.213 2.349.316.018c.12.01.239.015.356.015 1.764 0 3.273-.877 4.249-2.462.729-1.183.984-2.35.742-3.374-.2-.84-.738-1.551-1.566-2.062-.649-.4-1.274-.595-1.907-.595-1.02 0-1.952.493-3.032 1.231l-.738.5c-.741.506-1.22.78-1.628.78-.19 0-.382-.06-.596-.192-.562-.346-.664-.932-.272-1.57.384-.62.881-.889 1.65-.889l.383.008-.06-2.29-.37-.003zm-11.889 12.59-1.749 1.74 8.717 8.76 5.42-5.395-1.594-1.598-3.672 3.653-7.122-7.16zm-72.873 1.272-12.38 5.92 1.892 1.658 1.98-.97 3.41 2.98-.705 2.088 1.959 1.716 4.215-13.071-.371-.32zm-3.208 4.01-.981 2.903-.136.393-2.007-1.764.371-.18 2.753-1.352zm9.411 1.256-1.058 1.992 3.076 1.636-4.726 8.922 2.175 1.158 4.73-8.926 3.08 1.631 1.058-1.992-8.335-4.42zm56.642.732-.419.257 1.76 13.608 2.161-1.282-.3-2.183 3.895-2.304 1.763 1.32 2.242-1.324-11.102-8.092zm2.393 4.553 2.447 1.841.335.25-2.305 1.36-.058-.412-.42-3.04zm-11.367.228-2.271.58 1.8 7.03-8.595-5.361-.11-.074-.563.144 3.113 12.138 2.271-.58-1.804-7.03 8.6 5.361.11.074.562-.144-3.113-12.138zm-34.519.47-3.44 11.867 2.367.687 3.44-11.874-2.367-.68zm13.737 2.25c-3.598-.163-6.487 2.49-6.651 6.041-.16 3.55 2.51 6.455 6.078 6.615.106.006.209.012.312.012 3.458 0 6.178-2.601 6.336-6.05.16-3.548-2.51-6.456-6.075-6.618zm-.285 2.302c.066 0 .133.004.199.004 1.084.05 2.047.503 2.708 1.272.659.767.993 1.814.941 2.943-.103 2.35-1.766 3.963-4.017 3.867-2.218-.102-3.752-1.873-3.649-4.216.106-2.279 1.678-3.87 3.818-3.87zm2.782-100.41c-24.538 0-44.431 19.893-44.431 44.43 0 24.541 19.893 44.434 44.43 44.434 24.541 0 44.437-19.893 44.437-44.433 0-24.538-19.896-44.431-44.436-44.431" fill="#fff"/><path d="M76.468 67.21c2.44-5.79 7.275-7.205 7.275-.007 0 7.84-3.912 17.14-7.32 22.881-3.266-6.46-2.803-16.108.045-22.875m23.816-23.59c-6.353-5.089-12.13 1.275-12.13 4.921 6.365 1.36 12.043 7.714 9.498 24.246-2.077 13.515-10.043 21.93-15.064 22.1 3.146-4.54 5.95-9.57 7.777-15.21 1.71-5.245 2.517-9.645 2.517-13.34.005-5.078-1.385-8.81-3.295-11.29-.955-1.237-2.034-2.161-3.133-2.785-1.089-.613-2.356-.947-3.417-.957-2.611-.002-5.175 1.066-7.214 2.769-3.067 2.56-5.452 6.536-7.128 11.12-1.668 4.586-2.611 9.795-2.616 14.866 0 3.95.574 7.813 1.868 11.236.785 2.079 1.85 3.998 3.22 5.642a19.484 19.484 0 0 1-2.649 2.201c-1.907 1.299-3.812 1.985-5.696 1.985a7.988 7.988 0 0 1-2.698-.48c-1.282-.472-2.138-1.312-2.792-2.7-.644-1.382-.985-3.316-.985-5.632-.01-5.746 2.074-13.734 5.278-21.667 3.033-7.53 7.06-15.052 11.148-20.751-.89-.029-2.04-.055-2.747-.055-10.862.003-18.74 2.512-23.973 6.184-5.227 3.669-7.795 8.537-7.795 13.075-.005 2.952 1.094 5.727 3.19 7.782 1.159 1.219 2.709 1.9 4.296 1.9 1.294 0 2.503-.472 3.399-1.328 1.037-.98 1.566-2.345 1.5-3.843-.06-1.425-.66-2.806-1.693-3.89a6.254 6.254 0 0 0-2.24-1.518c.576-1.035 1.46-2.077 2.728-3.034 1.849-1.407 4.525-2.61 8.126-3.258-2.248 3.952-4.144 7.894-5.656 11.727-2.705 6.88-4.182 13.411-4.187 19.07 0 3.852.687 7.317 2.213 10.188 1.52 2.87 3.93 5.104 7.124 6.344 1.456.569 2.964.84 4.474.84h.004c2.93 0 5.84-.996 8.623-2.658 2.274-1.362 4.482-3.169 6.578-5.314 4.412 2.395 14.665 3.37 22.442-10.492 9.333-16.623 9.669-41.119 1.105-47.994" fill="#14264b"/><path d="M95.502 43.242a4.938 4.938 0 0 0-2.245.507c-1.64.781-2.872 2.35-3.352 3.694 3.928 1.315 9.886 5.38 9.886 17.897 0 2.267-.191 4.817-.628 7.677-1.964 12.752-9.067 21.41-14.745 23.082-1.576.468-3.016.374-4.211-.21 3.591-4.859 6.668-10.687 8.783-16.706 6.529-19.107-1.696-26.423-5.829-26.423-13.483-.466-21.734 32.391-9.995 44.205-4.022 4.375-8.714 6.778-13.535 5.05C48.711 98.094 58.53 68.66 70.028 51.3c-28.226.002-34.895 17.32-27.54 24.548 1.63 1.715 4.162 1.955 5.648.537 1.494-1.416 1.386-3.955-.242-5.667-.903-.95-2.074-1.445-3.201-1.46 1.176-4.115 6.058-8.386 15.645-9.19-12.922 21.252-15.624 42.77-2.745 47.803 6.089 2.378 13.019-1.169 19.061-7.677 1.698.932 4.07 1.796 6.104 1.768 4.048-.061 9.942-1.917 15.104-11.106 4.294-7.67 6.872-17.48 7.056-26.933.188-9.024-1.91-16.172-5.586-19.12-1.269-1.017-2.561-1.541-3.83-1.562zM81.39 60.886c7.263 0 3.356 19.622-4.98 31.946-7.246-9.706-2.95-31.946 4.98-31.946zm-66.06 15.06-1.338 4.109H9.674l3.495 2.54-1.334 4.104 3.495-2.536 3.49 2.536-1.333-4.105 3.494-2.54h-4.318l-1.334-4.108zm119.524.004-1.338 4.105h-4.322l3.495 2.54-1.33 4.108 3.495-2.54 3.49 2.54-1.333-4.109 3.495-2.54h-4.322l-1.33-4.104z" fill="#ab0003"/></svg>