<svg xmlns="http://www.w3.org/2000/svg" height="186.64" width="332.026"><path d="M200.646 0C111.575 0 40.68 48.784 40.68 48.784s87.419-7.081 87.419 11.016c0 15.895-69.243 41.703-69.243 41.703s54.607 1.495 54.607 14.636C113.463 138.406 0 168.385 0 168.385s39.736 18.255 101.818 18.255c111.26 0 229.208-63.105 229.208-112.204C331.026 29.192 264.696 0 200.646 0Z" fill="#a4a9ad"/><path d="M200.646 3.934c-64.285 0-119.522 26.202-144.072 39.893 0 0 75.459-5.35 75.459 15.973 0 13.298-32.418 29.271-55.08 38.792 18.57 1.81 40.523 6.295 40.523 17.547 0 20.772-69.557 42.961-104.572 52.797 15.816 5.272 47.368 13.691 88.914 13.691 111.81 0 225.274-62.948 225.274-108.191 0-43.513-65.623-70.502-126.446-70.502Z" fill="#111"/><path d="m81.045 168.07-13.14 3.463a294.835 294.835 0 0 0 30.215 1.337c132.583 0 220.553-80.652 220.553-93.477a9.157 9.157 0 0 0-.394-2.597c-46.974 55.866-140.294 94.422-237.234 91.274Z" fill="#f95602"/><path d="M202.298 14.871c-49.571 0-103.47 19.2-103.47 19.2S154.3 31.315 154.3 54.527c0 21.639-39.185 37.533-39.185 37.533s23.762 5.508 23.762 19.278c0 31.238-77.11 50.673-77.11 50.673 161.854 7.868 254.308-78.685 254.308-94.658 0-14.95-45.007-52.483-113.778-52.483Z" fill="#fff"/><path d="M202.298 18.097c-31.08 0-64.128 7.712-84.035 13.298 0 0 39.264 1.574 39.264 23.133 0 17.468-21.953 30.924-33.835 36.982 7.79 3.148 18.412 9.364 18.412 19.829 0 23.29-37.06 39.814-60.665 47.997 146.825 0 231.49-78.055 231.49-91.982 0-12.668-43.513-49.257-110.63-49.257Z" fill="#b5985a"/><path d="M175.152 41.467s43.355 9.757 62.79 22.74L153.356 86.08l80.18-2.597c-17.861 13.062-83.012 44.3-83.012 44.3s80.1-11.881 130.695-58.148c-45.008-40.444-106.067-28.17-106.067-28.17Z" fill="#fff"/><path d="M193.722 43.04s33.52 8.577 51.853 22.504L181.998 81.99l61.767-2.045c-17.31 14.556-68.14 39.027-68.14 39.027 26.752-7.081 69.006-21.795 100.558-49.256-28.09-23.527-62.082-27.147-82.461-26.675Z" fill="#111"/></svg>