<svg xmlns="http://www.w3.org/2000/svg" height="225.96" width="225.96"><path d="M112.48 224.96A112.48 112.48 0 1 0 0 112.48a112.487 112.487 0 0 0 112.48 112.48Z" fill="#fcb514"/><path d="M112.48 220.786A108.306 108.306 0 1 0 4.174 112.48 108.323 108.323 0 0 0 112.48 220.786Z" fill="#111"/><path d="M106.355 204.451c2.041.136 4.038.227 6.125.227 2.042 0 4.084-.09 6.08-.227v-29.628h-12.205Zm48.095-41.335 18.74 18.74a86.355 86.355 0 0 0 8.62-8.667l-18.603-18.603Zm3.403-50.636 6.307 6.08h40.291c.136-1.996.273-4.038.273-6.08 0-2.087-.137-4.129-.227-6.125H164.16Zm-89.34-6.125h-48.05a89.867 89.867 0 0 0-.227 6.125c0 2.042.091 4.084.227 6.08h48.05Zm-16.742 75.5 8.984-9.029V155.54l-17.65 17.65a86.808 86.808 0 0 0 8.666 8.667Zm8.984-129.767-9.03-8.984a90.945 90.945 0 0 0-8.62 8.621l17.65 17.65Zm57.805-31.625a89.622 89.622 0 0 0-6.08-.227c-2.087 0-4.084.091-6.125.227v29.629h12.205V20.463Zm63.296 31.262a91.438 91.438 0 0 0-8.667-8.62L154.45 61.843l8.757 8.53Z" fill="#fcb514"/><path fill="#fcb514" d="m73.232 145.648-7.759 7.532v16.924h75.002l19.012-18.467v-31.035l-8.394-8.122 8.394-8.167v-30.99l-19.012-18.512H65.473v16.924l7.759 7.577v66.336z"/><path d="M164.205 101.318h39.793a91.676 91.676 0 0 0-18.921-45.69l-20.872 20.871Zm-62.887-51.226v-29.13a91.676 91.676 0 0 0-45.69 18.921l10.254 10.254h35.436Zm62.887 73.504v24.865l20.872 20.826a91.336 91.336 0 0 0 18.92-45.69ZM150.82 58.35l18.467-18.467a91.676 91.676 0 0 0-45.69-18.92v29.174h18.784ZM68.513 84.258l-28.63-28.63a92.007 92.007 0 0 0-18.966 45.69h47.596Zm0 56.399v-17.06H20.917a91.8 91.8 0 0 0 18.966 45.69Zm73.868 34.166h-18.785v29.175a91.66 91.66 0 0 0 45.737-18.92l-18.467-18.468Zm-41.063 0H65.882l-10.255 10.254a91.535 91.535 0 0 0 45.691 18.92Z" fill="#fff"/><path fill="#111" d="M69.376 154.859v11.343h69.557l16.651-16.244v-27.677l-10.072-9.801 10.072-9.801V74.956l-16.697-16.198H69.376v11.298l7.804 7.577v69.648l-7.804 7.578z"/><path d="M137.707 96.917v-14.52l-7.622-7.44H93.786v29.401h36.253Zm0 45.645v-14.564l-7.622-7.442H93.786v29.402h36.253Z" fill="#fcb514"/><path d="m133.805 129.676-5.308-5.172H97.734v21.552h30.763l5.308-5.172Zm0-45.645-5.308-5.172H97.734v21.597h30.763l5.308-5.172Z" fill="#111"/><path d="M129.087 138.887v-7.26l-2.541-2.404h-24.093v12.114h24.093Zm0-45.6v-7.26l-2.541-2.45h-24.093v12.16h24.093Z" fill="#fff"/></svg>