<svg xmlns="http://www.w3.org/2000/svg" width="200" height="200"><style>.shp0{fill:#ffb81c}.shp1{fill:#003087}.shp2{fill:#fff}</style><path class="shp0" d="M95.35.08c-.62.04-1.72.12-2.45.17-.73.05-2.04.17-2.91.26a104.081 104.081 0 0 0-5.73.74c-.87.14-2.61.46-3.86.7-1.26.25-3.39.73-4.74 1.07-1.34.34-2.86.74-3.36.88-.5.15-1.79.55-2.86.89-1.08.34-2.61.86-3.41 1.15-.8.28-2.22.83-3.16 1.2-.93.38-2.43 1-3.32 1.4-.89.39-2.72 1.26-4.07 1.93-1.35.67-3.21 1.65-4.15 2.17-.94.53-2.04 1.16-2.45 1.4-.41.24-1.31.8-1.99 1.23-.69.43-1.85 1.19-2.58 1.67-.73.49-1.61 1.09-1.95 1.33-.34.24-1.18.86-1.87 1.36-.69.51-1.96 1.49-2.82 2.17-.87.69-2.33 1.91-3.24 2.71-.92.8-2.02 1.79-2.45 2.19-.44.4-1.48 1.41-2.32 2.24-.83.82-2.11 2.14-2.83 2.91-.72.78-1.92 2.12-2.68 2.99-.75.87-1.87 2.22-2.48 2.99-.62.78-1.54 1.97-2.04 2.66-.5.69-1.23 1.69-1.62 2.24-.38.55-1.11 1.63-1.62 2.41-.5.78-1.2 1.86-1.54 2.41-.34.55-.76 1.24-.93 1.54-.18.29-.75 1.3-1.28 2.24-.52.94-1.5 2.8-2.17 4.15-.67 1.35-1.54 3.18-1.93 4.07-.4.89-1.02 2.39-1.4 3.32-.37.94-.92 2.36-1.2 3.16a120.999 120.999 0 0 0-2.29 7.18c-.22.83-.61 2.34-.86 3.37-.25 1.03-.63 2.75-.84 3.82-.21 1.07-.48 2.51-.59 3.2-.11.68-.28 1.73-.36 2.32-.09.6-.26 1.92-.37 2.95C.51 89.9.36 91.43.3 92.28c-.07.84-.17 2.39-.22 3.44-.07 1.24-.09 3.13-.05 5.36.02 1.9.08 4.04.13 4.78.05.73.17 2.15.26 3.15.09 1.01.28 2.71.42 3.78.13 1.07.36 2.64.5 3.49.14.84.43 2.45.66 3.57.22 1.12.63 2.95.91 4.07s.69 2.69.92 3.49c.23.8.66 2.22.96 3.15.3.94.84 2.53 1.2 3.53.37 1.01 1.06 2.79 1.54 3.95.49 1.16 1.14 2.7 1.47 3.41.32.7 1.06 2.24 1.64 3.4.58 1.17 1.47 2.85 1.97 3.74.49.89 1.34 2.35 1.89 3.24.54.89 1.41 2.27 1.93 3.07.52.8 1.4 2.09 1.95 2.87.55.77 1.36 1.87 1.79 2.45.44.57 1.23 1.58 1.75 2.24.53.66 1.39 1.71 1.91 2.32.53.62 1.46 1.69 2.08 2.37.61.69 2.11 2.24 3.32 3.45s2.91 2.84 3.78 3.61c.86.78 2.15 1.9 2.86 2.49.72.6 1.8 1.48 2.42 1.96.62.49 1.79 1.38 2.62 1.99.82.6 2.52 1.78 3.77 2.61 1.26.84 2.94 1.91 3.74 2.39a106.957 106.957 0 0 0 6.98 3.83c1.12.56 2.78 1.35 3.69 1.75.92.4 2.3.99 3.08 1.31.77.32 1.86.75 2.41.96.54.2 1.78.64 2.74.98.96.33 2.36.79 3.11 1.02.76.23 1.9.57 2.54.75a117.348 117.348 0 0 0 6.18 1.54c.76.16 2.1.42 2.99.58.89.17 2.41.41 3.37.55.96.13 2.41.32 3.24.41.82.09 2.16.22 2.99.29.82.07 2.26.17 3.19.23.94.06 3.18.1 4.99.1 1.8 0 4.14-.04 5.19-.1 1.05-.06 2.67-.18 3.61-.27.94-.09 2.19-.22 2.78-.29.6-.07 1.76-.22 2.58-.33.82-.12 2.05-.3 2.74-.42.68-.11 2.09-.38 3.11-.58 1.03-.21 2.96-.65 4.28-.99 1.33-.33 3.25-.86 4.28-1.16 1.03-.31 2.43-.74 3.11-.97.69-.24 1.94-.68 2.79-.99.84-.3 2.22-.84 3.07-1.18.84-.34 2.28-.95 3.2-1.36.91-.4 2.69-1.24 3.94-1.86 1.26-.63 2.94-1.5 3.74-1.95.8-.45 2.2-1.26 3.11-1.81.92-.55 2.24-1.37 2.95-1.83.71-.46 1.85-1.22 2.54-1.7.68-.48 1.9-1.36 2.69-1.95.8-.6 1.98-1.5 2.62-2 .64-.5 1.54-1.24 1.99-1.62.46-.39 1.4-1.2 2.08-1.8.69-.6 1.94-1.77 2.78-2.59.85-.82 2.21-2.18 3.03-3.02.82-.84 1.9-2 2.41-2.57.51-.57 1.33-1.52 1.84-2.12.5-.59 1.32-1.6 1.83-2.24.5-.64 1.4-1.82 2-2.62.59-.79 1.47-2.01 1.95-2.69.48-.69 1.24-1.83 1.7-2.54.46-.71 1.28-2.03 1.83-2.95.55-.91 1.36-2.31 1.81-3.11.45-.8 1.32-2.48 1.95-3.74.62-1.25 1.46-3.03 1.86-3.94.41-.92 1.02-2.36 1.36-3.2.34-.85.88-2.23 1.18-3.07.31-.85.75-2.1.99-2.79.23-.68.66-2.08.97-3.11.3-1.03.82-2.95 1.16-4.28.34-1.32.78-3.25.99-4.28.2-1.02.47-2.43.58-3.11.12-.69.3-1.92.42-2.74.11-.82.26-1.98.33-2.58.07-.59.2-1.84.29-2.78.09-.94.21-2.56.27-3.61.06-1.05.1-3.39.1-5.19 0-1.81-.04-4.05-.1-4.99-.06-.93-.16-2.37-.23-3.19-.07-.83-.2-2.17-.29-2.99-.09-.83-.28-2.28-.41-3.24-.14-.96-.38-2.48-.55-3.37-.16-.89-.42-2.23-.58-2.99a117.348 117.348 0 0 0-1.54-6.18c-.18-.64-.52-1.78-.75-2.54-.23-.75-.69-2.15-1.02-3.11-.34-.96-.78-2.2-.98-2.74-.21-.55-.64-1.64-.96-2.41-.32-.78-.91-2.16-1.31-3.08-.4-.91-1.19-2.57-1.75-3.69a106.957 106.957 0 0 0-3.83-6.98c-.48-.8-1.55-2.48-2.39-3.74-.83-1.25-2.01-2.95-2.61-3.77-.61-.83-1.5-2-1.99-2.62-.48-.62-1.36-1.7-1.96-2.42-.59-.71-1.71-2-2.49-2.86-.77-.87-2.4-2.57-3.61-3.78s-2.76-2.71-3.45-3.32c-.68-.62-1.75-1.55-2.37-2.08-.61-.52-1.66-1.38-2.32-1.91-.66-.52-1.67-1.31-2.24-1.75-.58-.43-1.68-1.24-2.45-1.79-.78-.55-2.07-1.43-2.87-1.95-.8-.52-2.18-1.39-3.07-1.93-.89-.55-2.35-1.4-3.24-1.89-.89-.5-2.57-1.39-3.74-1.97-1.16-.58-2.7-1.32-3.4-1.64-.71-.33-2.25-.98-3.41-1.47-1.16-.48-2.94-1.17-3.95-1.54-1-.36-2.59-.9-3.53-1.2-.93-.3-2.35-.73-3.15-.96-.8-.23-2.37-.64-3.49-.92s-2.95-.69-4.07-.91c-1.12-.23-2.73-.52-3.57-.66-.85-.14-2.42-.37-3.49-.5-1.07-.14-2.77-.33-3.78-.42-1-.09-2.42-.21-3.15-.26-.74-.05-3.15-.1-5.36-.12-2.22-.01-4.53.01-5.15.04Z"/><path class="shp1" d="M96.55 5.9c-.82.03-2.16.1-2.99.16-.82.05-2.39.19-3.49.3-1.09.12-2.74.32-3.65.46-.91.13-2.39.38-3.28.54-.89.16-2.31.44-3.16.62-.84.18-2.28.52-3.19.75-.92.24-2.53.68-3.58.99-1.05.32-2.67.83-3.61 1.15-.94.31-2.3.8-3.03 1.07-.73.28-2.04.8-2.91 1.16-.87.37-2.29.99-3.15 1.39-.87.4-2.24 1.06-3.03 1.46a98.317 98.317 0 0 0-6.36 3.53c-.73.44-1.96 1.22-2.74 1.73-.78.5-2.05 1.36-2.82 1.91-.78.55-2.05 1.49-2.83 2.08-.77.59-2.08 1.64-2.9 2.33-.83.68-2.15 1.82-2.95 2.53-.8.71-2.35 2.19-3.45 3.29-1.1 1.09-2.65 2.72-3.45 3.61-.8.89-1.98 2.26-2.62 3.03-.64.78-1.65 2.05-2.24 2.83-.6.77-1.51 2.01-2.03 2.74-.52.73-1.4 2.02-1.95 2.86-.55.85-1.42 2.23-1.93 3.08-.5.84-1.28 2.18-1.72 2.96-.44.79-1.18 2.21-1.66 3.16-.47.95-1.17 2.4-1.54 3.22-.38.82-.98 2.2-1.33 3.07-.36.87-.89 2.2-1.17 2.95-.28.75-.79 2.17-1.12 3.16a88.5 88.5 0 0 0-1.07 3.32c-.25.84-.66 2.36-.91 3.36-.25 1.01-.61 2.52-.8 3.37-.19.84-.47 2.24-.63 3.11-.16.87-.4 2.36-.53 3.32-.14.96-.33 2.46-.42 3.33-.09.86-.24 2.53-.33 3.69-.09 1.17-.18 3.41-.21 4.98-.04 1.79-.02 3.67.04 4.99.05 1.16.15 2.83.22 3.69.07.87.2 2.29.29 3.16.09.87.28 2.36.42 3.32.14.96.4 2.53.58 3.49.18.96.52 2.59.75 3.61.23 1.03.64 2.7.91 3.7.27 1.01.72 2.56 1 3.45.28.89.76 2.35 1.07 3.24.31.89.84 2.33 1.18 3.19.35.87.98 2.4 1.42 3.41.43 1 1.11 2.5 1.52 3.32.4.82 1.11 2.23 1.59 3.12.48.89 1.24 2.27 1.7 3.07.46.8 1.21 2.05 1.66 2.78.46.73 1.3 2.02 1.88 2.87.57.84 1.53 2.19 2.12 2.99.59.8 1.6 2.1 2.24 2.9.64.8 1.63 2 2.2 2.66.57.66 1.64 1.86 2.38 2.66s2.24 2.33 3.33 3.4c1.09 1.07 2.66 2.52 3.48 3.23.82.71 2.09 1.79 2.82 2.39.73.6 1.99 1.57 2.79 2.17.79.59 2.07 1.5 2.82 2.03.75.53 2.04 1.39 2.86 1.91.83.53 2.12 1.32 2.87 1.77.75.44 2.17 1.25 3.16 1.79.98.53 2.34 1.25 3.03 1.6.68.34 1.97.95 2.86 1.35.89.4 2.3 1 3.12 1.34.82.34 2.33.93 3.36 1.31 1.03.38 2.56.91 3.41 1.19.84.28 2.19.69 2.99.92.8.23 2.29.63 3.32.88 1.03.26 2.67.64 3.65.84a98.714 98.714 0 0 0 10.26 1.53c.96.09 2.67.22 3.8.29 1.13.07 3.32.13 4.86.13 1.54 0 3.83-.06 5.09-.13 1.25-.06 2.9-.18 3.65-.25.76-.07 1.86-.18 2.45-.25a86.045 86.045 0 0 0 5.36-.8c1.03-.18 2.48-.46 3.24-.62.75-.16 2.27-.51 3.36-.79 1.1-.27 2.63-.68 3.41-.91.77-.23 2.16-.66 3.07-.96.91-.3 2.3-.78 3.07-1.07.78-.29 1.98-.74 2.66-1.02a67.245 67.245 0 0 0 4.44-1.93c.71-.33 1.85-.88 2.54-1.22.68-.34 1.77-.91 2.41-1.25.64-.34 1.78-.98 2.53-1.41.75-.44 2.02-1.2 2.82-1.7.8-.51 2.11-1.36 2.91-1.89.8-.53 2.5-1.76 3.78-2.72 1.28-.96 2.9-2.23 3.61-2.82.71-.59 1.83-1.56 2.49-2.15.67-.58 2.43-2.28 3.91-3.77 1.49-1.48 3.21-3.28 3.83-3.99.61-.71 1.53-1.77 2.03-2.37a111.489 111.489 0 0 0 3.69-4.73c.46-.64 1.28-1.82 1.82-2.62s1.39-2.1 1.89-2.9c.5-.8 1.19-1.94 1.54-2.54.34-.59.99-1.75 1.44-2.57a96.595 96.595 0 0 0 3.06-6.19c.31-.71.8-1.85 1.09-2.53.28-.69.81-2.01 1.16-2.95.35-.94.9-2.47 1.21-3.41.31-.93.81-2.54 1.1-3.57.3-1.03.75-2.71 1-3.73.26-1.03.67-2.9.92-4.16.25-1.25.59-3.18.75-4.27a115.1 115.1 0 0 0 .75-6.57c.07-.82.17-2.44.22-3.61.06-1.28.07-3.27.04-5.02-.02-1.6-.09-3.58-.13-4.41-.05-.82-.16-2.28-.26-3.24-.09-.95-.26-2.47-.37-3.36-.12-.89-.34-2.39-.5-3.32-.17-.94-.48-2.58-.7-3.66-.22-1.07-.59-2.71-.83-3.65-.23-.94-.63-2.41-.88-3.28-.26-.87-.7-2.31-.99-3.2-.29-.89-.76-2.27-1.06-3.07-.3-.8-.84-2.2-1.21-3.12-.36-.91-1-2.39-1.41-3.28-.41-.89-1.14-2.42-1.63-3.4-.5-.98-1.24-2.41-1.65-3.16-.41-.75-1.16-2.06-1.66-2.91-.5-.84-1.61-2.58-2.46-3.86-.85-1.28-2.09-3.05-2.75-3.94-.67-.89-1.69-2.22-2.28-2.95-.59-.73-1.56-1.89-2.15-2.58-.6-.68-1.48-1.67-1.96-2.2-.48-.52-1.42-1.51-2.08-2.19-.66-.68-1.97-1.95-2.91-2.83-.93-.87-2.24-2.05-2.9-2.62-.67-.56-1.83-1.52-2.58-2.12-.75-.6-2.02-1.58-2.82-2.17-.8-.59-2.11-1.53-2.91-2.07-.8-.54-2.01-1.34-2.7-1.77-.68-.42-1.99-1.21-2.91-1.75-.91-.54-2.27-1.31-3.03-1.71-.75-.4-2.19-1.13-3.2-1.62-1-.48-2.55-1.2-3.44-1.6-.89-.39-2.35-.99-3.24-1.34-.89-.36-2.44-.93-3.45-1.29-1-.35-2.57-.87-3.49-1.15-.91-.28-2.42-.71-3.36-.96-.94-.24-2.53-.63-3.53-.86-1.01-.23-2.54-.56-3.41-.72-.86-.16-2.32-.4-3.23-.54-.92-.14-2.49-.35-3.49-.46-1.01-.11-2.56-.26-3.45-.33-.89-.07-2.59-.17-3.78-.21-1.19-.05-2.85-.08-3.7-.07-.84 0-2.2.04-3.03.07Z"/><path class="shp2" d="M108.54 15.13c.01.04.1.12.2.18s.67.32 1.27.57c.59.26 1.75.73 2.57 1.05.83.32 2.1.81 2.83 1.08.73.28 2.26.84 3.4 1.26 1.14.42 3.56 1.28 5.36 1.92 1.8.64 5.45 1.89 8.1 2.78 2.65.89 6.03 1.99 7.51 2.45 1.49.46 3.45 1.03 4.36 1.28.92.25 2.11.56 2.66.67.55.12 1.3.22 1.68.23.37.01.71-.02.74-.05.04-.04 0-.17-.1-.29-.1-.13-.59-.44-1.16-.73-.55-.27-1.76-.8-2.69-1.17-.94-.38-2.62-1.01-3.74-1.4-1.12-.4-3.48-1.21-5.23-1.79-1.76-.59-4.75-1.55-6.65-2.15-1.89-.59-4.77-1.47-6.39-1.96l-5.36-1.58c-1.33-.38-3.31-.93-4.4-1.23-1.1-.3-2.48-.66-3.08-.81-.59-.14-1.26-.29-1.49-.32-.22-.03-.4-.03-.39.01Zm-25.48.94c-.57.07-1.42.18-1.87.25-.46.07-1.43.26-2.16.43-.73.16-1.85.46-2.49.67-.64.2-1.63.56-2.2.78-.58.22-1.7.73-2.5 1.14-.8.4-2.02 1.08-2.72 1.51-.7.43-1.83 1.2-2.5 1.7-.67.5-1.73 1.35-2.34 1.88-.61.53-1.79 1.65-2.61 2.49-.83.84-1.82 1.9-2.21 2.36-.39.45-1.05 1.26-1.46 1.78-.41.53-1.08 1.43-1.48 2-.41.57-.93 1.3-1.17 1.62-.23.32-.55.7-.71.85-.15.15-.47.37-.69.47-.24.12-1.27.39-2.37.62-1.08.23-2.65.61-3.49.83-.85.23-2.04.59-2.66.8-.61.21-1.64.63-2.28.92-.64.29-1.56.76-2.04 1.03-.48.28-1.21.75-1.62 1.06-.41.31-1.1.91-1.54 1.35-.43.43-1.03 1.12-1.33 1.53-.29.42-.74 1.16-.99 1.67-.26.5-.6 1.34-.77 1.86-.17.53-.38 1.33-.47 1.79-.09.46-.21 1.28-.26 1.83-.06.64-.08 1.62-.05 2.74.03.98.12 2.31.22 3.05.09.72.26 1.75.37 2.28.12.54.31 1.3.42 1.69.12.38.34.96.49 1.28.15.32.45.81.65 1.08.21.28.62.72.91.99.29.27.81.7 1.15.96.34.26 1.11.8 1.7 1.2.6.41 1.25.87 1.45 1.04.31.25.47.51 1 1.63.35.73.9 1.72 1.22 2.2.33.49.98 1.28 1.49 1.82.5.51 1.17 1.13 1.49 1.37.32.24.97.67 1.45.97.48.29 1.11.76 1.4 1.03.29.27.87.93 1.28 1.45.41.53.9 1.12 1.09 1.32.19.2.5.47.69.6.2.13.59.3.88.38.34.08.64.11.89.07.2-.03.58-.15.83-.26.37-.17.74-.49 2.03-1.81 1.5-1.52 1.62-1.63 2.29-1.94.39-.19.99-.4 1.35-.47.35-.07.86-.13 1.12-.13.26 0 .56.02.66.04.18.04.16.08-.28.56-.26.29-.67.76-.9 1.06-.24.3-.62.84-.84 1.21-.23.36-.46.85-.52 1.08-.09.31-.09.46-.02.6.07.14.17.18.38.18.16 0 .71-.09 1.23-.21.59-.14 1.2-.23 1.64-.23.39-.01 1.25.08 1.91.18.67.11 1.59.2 2.08.2.48.01 1.09-.04 1.37-.09.27-.06.74-.18 1.03-.28.3-.09.86-.33 1.25-.52.39-.2.98-.55 1.31-.78.33-.23.87-.68 1.19-.99.5-.47.57-.56.44-.61-.09-.03-.4-.09-.7-.15-.31-.05-.87-.26-1.33-.48-.64-.32-.91-.51-1.46-1.06-.52-.52-.74-.81-1.01-1.37-.19-.39-.41-.93-.48-1.2-.07-.28-.13-.8-.13-1.17 0-.36.04-.85.09-1.08.06-.23.2-.62.32-.87s.45-.68.72-.96c.37-.38.63-.55 1-.69.27-.1.72-.21 1-.23.27-.03.7-.01.95.04s.68.21.96.34c.27.14.71.43.97.65.26.21.64.62.86.89.21.28.55.84.75 1.25.2.41.46 1.12.58 1.58.19.71.22 1.01.23 2.11.01.97-.03 1.47-.14 2-.09.39-.25 1-.36 1.37-.12.36-.38 1.02-.58 1.45-.21.44-.57 1.09-.82 1.45-.24.37-.74 1.01-1.1 1.42l-.67.74c.25.55.48.87.67 1.07.19.19.56.47.81.61.25.15.76.35 1.12.44.37.09 1.13.23 1.7.29.57.07 1.34.17 1.71.22.36.04.94.16 1.28.24.35.09.91.27 1.25.42.34.14.87.39 1.16.55.3.17.82.49 1.17.72.34.23.86.6 1.16.82l.54.42c1.67-.28 2.49-.39 2.91-.44.41-.04 1.31-.08 2.01-.08h1.27c0-.36-.06-.79-.13-1.21-.07-.41-.26-1.12-.41-1.57-.15-.46-.41-1.12-.59-1.46-.17-.34-.5-.92-.74-1.29-.24-.36-.68-.95-.99-1.3-.3-.36-.64-.7-.76-.77-.19-.11-.25-.11-.66.04-.25.09-.75.31-1.1.49-.36.18-.76.41-.9.5-.13.1-.31.17-.39.17-.08 0-.41-.17-.73-.39-.31-.22-.73-.58-.92-.81-.19-.23-.45-.64-.58-.92-.13-.27-.28-.74-.33-1.03-.08-.44-.08-.65.01-1.08.06-.3.22-.77.35-1.04.14-.28.36-.67.5-.87.14-.21.5-.63.8-.95.3-.31.73-.71.96-.88.23-.17.6-.4.81-.53l.4-.22A7.2 7.2 0 0 0 86 72.4c-.27-.27-.83-.75-1.24-1.05-.41-.31-1.01-.73-1.33-.93-.32-.21-.87-.53-1.22-.72-.36-.19-.64-.37-.63-.39.01-.03.4-.01.85.04.46.04 1.32.18 1.91.29.6.12 1.48.33 1.96.47.48.14 1.32.44 1.86.66.55.23 1.39.64 1.87.91.48.27 1.17.72 1.54 1 .37.27 1.01.84 1.44 1.26.42.42 1 1.09 1.27 1.48.28.38.68 1.08.9 1.53.22.46.48 1.11.59 1.46.1.34.23.92.3 1.28.06.37.11 1.19.11 1.83 0 .64-.04 1.54-.08 1.99-.05.46-.17 1.26-.26 1.79-.09.52-.28 1.4-.42 1.95l-.26 1c.31.56.6.92.85 1.16.25.24.68.54.96.67.44.2.62.23 1.53.26.86.03 1.26 0 2.25-.18.66-.11 1.5-.27 1.87-.34.37-.07 1.36-.15 2.24-.17 1.25-.04 1.78-.02 2.53.09.53.08 1.44.27 2.04.42l1.08.28c1.03-.51 1.74-.8 2.24-.98.5-.18 1.38-.42 1.95-.54.57-.12 1.15-.22 1.29-.23.21-.02.24-.06.22-.23-.01-.12-.1-.46-.2-.75-.09-.3-.34-.88-.55-1.29-.21-.41-.63-1.06-.93-1.45-.31-.39-.81-.96-1.13-1.26-.31-.3-.89-.78-1.27-1.07-.39-.28-.82-.57-.96-.64-.23-.11-.29-.1-.79.1-.29.12-.78.38-1.08.58-.29.2-.74.58-.99.85-.33.36-.57.54-.86.63-.21.08-.72.2-1.12.27-.4.07-1 .12-1.35.12-.34 0-.86-.04-1.16-.09-.3-.04-.6-.1-.68-.12-.08-.02-.15-.09-.15-.16s.11-.42.26-.77c.14-.35.38-.87.55-1.14.16-.28.46-.71.66-.96s.65-.71 1.01-1.01c.35-.31.94-.76 1.31-1 .38-.24.69-.47.69-.5 0-.03-.12-.1-.26-.14-.15-.05-.56-.27-.9-.49a7.36 7.36 0 0 1-1.18-1.02c-.31-.34-.57-.65-.57-.7.01-.05.63-.07 1.75-.06.96.01 1.8-.01 1.87-.04.09-.05 0-.24-.42-.89-.3-.46-.84-1.43-1.2-2.16-.36-.73-.78-1.69-.94-2.12-.16-.43-.39-1.13-.51-1.54-.12-.41-.28-1.11-.36-1.55-.08-.44-.12-.82-.1-.85.02-.03.47-.18 1-.33.52-.16 1.37-.34 1.89-.42.51-.07 1.46-.13 2.12-.13.65 0 1.52.06 1.93.12.41.06 1.04.19 1.41.28a23.99 23.99 0 0 1 3.28 1.2c.34.16 1.37.64 2.28 1.08.92.44 2.04.93 2.49 1.08.46.16 1.13.34 1.5.39.41.07.89.08 1.25.05.32-.03.84-.11 1.16-.18.32-.07 1.4-.36 2.41-.65 1-.3 2.24-.63 2.74-.74.5-.11 1.21-.25 1.58-.31.36-.06 1.15-.1 1.74-.1.69 0 1.32.06 1.74.15.37.07 1.01.25 1.42.38.41.13 1.16.42 1.66.64.5.22 1.32.64 1.82.93.51.29 1.29.77 1.75 1.08a32.962 32.962 0 0 1 3.2 2.48l.62.57c3.35.08 4.54.14 4.82.18.27.04.69.11.93.15l.44.07c0-.36-.11-.88-.24-1.39-.14-.52-.4-1.33-.59-1.81-.19-.48-.52-1.19-.73-1.58-.2-.39-.57-.98-.8-1.32-.23-.34-.72-.93-1.09-1.32-.37-.38-.72-.71-.79-.73-.07-.02-.46.06-.87.18-.41.11-1.07.36-1.45.54-.39.18-.74.3-.78.27-.03-.04-.08-.31-.11-.61-.03-.4-.01-.66.11-1l.15-.47c-1.67-.85-2.7-1.45-3.36-1.88l-1.21-.79c-.9.11-2 .19-3.03.24-1.47.08-2.33.08-4.07 0-1.21-.05-2.27-.13-2.36-.16-.1-.04-.13-.08-.09-.11.05-.02.61-.21 1.25-.42s1.78-.53 2.53-.71c.76-.18 1.82-.43 2.37-.54.55-.12 1.61-.3 2.37-.42.75-.12 1.85-.27 2.45-.35.63-.08 2.05-.15 3.44-.18 1.57-.03 2.65-.01 3.2.06.72.08.92.14 1.45.44.35.18.96.56 1.38.84.41.27 1.02.71 1.37.97.34.26.99.8 1.44 1.21.46.41 1.16 1.11 1.57 1.57.41.46.97 1.13 1.25 1.49.27.37.5.67.5.68.01 0 .63.07 1.38.15.76.07 2.01.26 2.78.42.78.16 1.7.37 2.06.48.48.14.65.16.68.08.03-.06.05-.58.05-1.16-.01-.58-.06-1.45-.13-1.93s-.23-1.29-.37-1.79c-.13-.5-.37-1.23-.54-1.62-.16-.39-.44-.95-.62-1.24-.18-.3-.43-.67-.56-.82l-.23-.28c-1.48.2-2.19.36-2.54.47-.34.11-.64.19-.66.16-.02-.03-.04-.35-.04-.73.01-.51.05-.77.19-1.07l.18-.39c-.67-.29-1.24-.55-1.7-.78-.46-.22-1.09-.57-1.41-.78-.32-.2-.9-.62-1.29-.92-.39-.3-1.06-.9-1.5-1.32l-.79-.78c-.96.16-1.75.21-2.36.21-.76-.01-1.3-.05-1.68-.15-.31-.07-.74-.22-.96-.33-.22-.11-.52-.31-.68-.44a2.07 2.07 0 0 1-.44-.57c-.11-.22-.16-.5-.16-.83 0-.27.11-.98.25-1.58.14-.59.31-1.43.38-1.87.08-.43.16-1.31.18-1.95.03-.68.01-1.61-.04-2.24-.06-.59-.18-1.53-.27-2.08-.09-.54-.31-1.57-.49-2.28-.18-.71-.33-1.32-.33-1.35 0-.03.14-.04.31-.01.17.02.78.12 1.35.21.57.1 1.62.32 2.33.49.71.18 1.72.47 2.24.65.53.18 1.16.4 1.41.5.25.1.83.36 1.29.57.46.21 1.11.55 1.45.75.35.21.83.53 1.07.72.24.18.55.5.68.71.14.2.25.47.25.58 0 .11-.07.32-.15.46-.09.13-.44.51-.8.83-.41.37-.71.73-.84.99-.12.23-.21.5-.21.61 0 .1.06.29.12.41.06.13.27.37.46.54.18.17.55.42.82.55.26.13.84.36 1.28.5.45.14 1.23.33 1.75.43.51.09 1.47.2 2.14.24.72.05 1.61.05 2.24.01.57-.04 1.34-.14 1.7-.22.37-.07.91-.22 1.2-.34.3-.11.7-.29.9-.4.19-.12.34-.22.33-.25-.01-.02-.43-.09-.93-.16-.51-.06-1.37-.22-1.91-.34-.55-.11-1.34-.33-1.75-.47-.41-.14-.96-.36-1.22-.49-.27-.13-.57-.33-.69-.45a.684.684 0 0 1-.21-.48c0-.16.08-.37.19-.51.1-.13.52-.46.93-.74.42-.27.86-.59.99-.71s.29-.32.35-.45c.07-.12.12-.34.12-.47 0-.14-.04-.35-.09-.48-.05-.13-.19-.34-.31-.47-.12-.13-.45-.39-.72-.57-.28-.19-.91-.54-1.42-.77-.5-.24-1.3-.59-1.78-.78-.48-.2-1.17-.46-1.54-.6-.36-.14-3.33-1.18-6.6-2.32-3.27-1.15-6.2-2.17-6.52-2.29-.32-.11-2.1-.74-3.95-1.4-1.85-.65-4.93-1.76-6.85-2.45-1.92-.69-5.24-1.89-7.39-2.67-2.15-.78-4.46-1.61-5.15-1.86-.68-.24-3.06-1.08-5.27-1.87-2.22-.78-5.84-2.06-8.06-2.83-2.22-.77-5.22-1.8-6.69-2.28-1.46-.48-3.48-1.11-4.48-1.41-1.01-.29-2.39-.66-3.07-.83-.69-.16-1.74-.39-2.33-.5-.59-.11-1.55-.26-2.12-.33-.68-.09-1.91-.14-3.61-.16-1.85-.03-2.87 0-3.61.08Z"/><path class="shp1" d="M44.56 42.61c-.41.08-1.08.27-1.5.42-.41.14-.97.36-1.24.5-.28.13-.85.46-1.29.74-.48.32-1.12.84-1.64 1.36-.46.46-.83.87-.81.9.03.04.13.03.23-.01s.67-.18 1.27-.3c.91-.2 1.28-.23 2.45-.24 1.09 0 1.48.03 1.91.15.29.08.68.22.85.31.17.08.46.29.65.47.19.17.42.46.51.64.09.18.19.54.21.79.03.26 0 .63-.06.87-.06.23-.29.82-.51 1.31-.23.5-.45 1.14-.5 1.45-.08.48-.08.64.04 1.04.09.33.24.58.45.79.17.18.53.41.81.52.41.17.63.2 1.28.19.44 0 1.04-.07 1.33-.15.3-.07.8-.26 1.12-.41.32-.16.83-.47 1.13-.7.29-.22.71-.63.91-.9.21-.26.48-.65.6-.85.12-.21.34-.73.49-1.17.25-.74.27-.86.27-1.91-.01-.98-.03-1.2-.22-1.78-.12-.37-.36-.89-.52-1.17-.17-.27-.44-.66-.61-.86-.16-.21-.51-.54-.76-.74-.25-.19-.75-.5-1.12-.68-.36-.18-.96-.41-1.33-.51-.55-.15-.93-.19-2.16-.21-1.23-.02-1.62 0-2.24.14Z"/><path class="shp2" d="M177.16 60.07c-.98 1.15-2.8 3.19-4.03 4.54-1.23 1.35-3.44 3.71-4.91 5.24-1.46 1.53-4.13 4.24-5.93 6.02-1.81 1.77-4.64 4.52-6.31 6.1a576.04 576.04 0 0 1-5.82 5.41 616.746 616.746 0 0 1-10.25 9.1c-1.37 1.18-3.73 3.2-5.23 4.48-1.51 1.28-3.92 3.3-5.36 4.48-1.44 1.19-3.7 3.04-5.03 4.12-1.32 1.07-3.81 3.07-5.52 4.44-1.71 1.37-4.27 3.39-5.69 4.49-1.41 1.1-3.64 2.81-4.94 3.81-1.3 1.01-3.68 2.81-5.27 4.01-1.78 1.33-2.94 2.15-2.99 2.11-.05-.04-1.26-.96-2.7-2.05-1.44-1.09-3.65-2.77-4.9-3.73a770 770 0 0 1-5.07-3.9c-1.53-1.19-4.17-3.27-5.86-4.61-1.69-1.35-4.15-3.33-5.48-4.4-1.32-1.08-3.6-2.95-5.06-4.16a624.995 624.995 0 0 1-11.09-9.39c-1.44-1.25-3.65-3.19-4.9-4.31-1.26-1.12-3.52-3.16-5.03-4.53-1.51-1.37-3.95-3.64-5.44-5.03-1.48-1.39-4.58-4.4-6.88-6.69-2.3-2.28-5.22-5.23-6.48-6.56-1.27-1.32-3.22-3.42-4.34-4.65a235.87 235.87 0 0 1-3.79-4.3c-.97-1.13-1.79-2.05-1.83-2.05-.03 0-.01.33.05.72.06.4.21 1.16.35 1.69.13.52.39 1.4.58 1.95.19.55.53 1.44.76 1.99.23.55.68 1.52.99 2.16.31.64.87 1.69 1.25 2.33.37.63 1.01 1.66 1.43 2.28.41.62 1.03 1.49 1.37 1.95.35.46.98 1.26 1.42 1.78.44.53 1.86 2.1 3.17 3.49 1.31 1.4 4.26 4.41 6.56 6.69 2.3 2.29 5.33 5.22 6.72 6.52 1.39 1.31 3.32 3.08 4.28 3.95.96.87 2.81 2.54 4.11 3.7 1.3 1.16 3.32 2.93 4.48 3.94a872.447 872.447 0 0 0 7.85 6.69c1.01.85 2.99 2.49 4.41 3.65 1.41 1.17 4.18 3.41 6.14 4.99 1.97 1.58 5.02 4.01 6.78 5.4 1.76 1.39 4.93 3.85 7.03 5.47 2.11 1.62 3.84 2.97 3.84 2.99.01.02-1.57 1.19-3.5 2.58-1.94 1.4-4.68 3.36-6.09 4.36-1.42.99-2.59 1.81-2.6 1.82-.01 0-.02.6-.02 1.33 0 .73.04 1.61.1 1.96.05.34.17.77.26.95.09.18.33.58.53.89.2.31.57.79.84 1.07l.47.51c5.92-4.35 9.34-6.89 11.42-8.45 2.08-1.56 3.83-2.86 3.89-2.89.06-.04 1.85 1.25 4.65 3.33 2.5 1.87 5.96 4.43 7.7 5.71l3.16 2.31c.69-.76 1.03-1.19 1.2-1.44.17-.25.41-.66.54-.92.18-.35.25-.68.35-1.49.06-.57.1-1.45.09-1.94l-.02-.91c-4.64-3.28-7.31-5.19-8.93-6.35-1.62-1.17-3.03-2.19-3.14-2.28l-.18-.15c6.14-4.72 9.09-7.01 10.5-8.13 1.42-1.12 4.45-3.53 6.73-5.36 2.28-1.82 5.12-4.12 6.31-5.1 1.19-.99 3.17-2.63 4.4-3.66 1.24-1.03 4.1-3.46 6.36-5.4 2.26-1.94 5.12-4.43 6.35-5.53 1.24-1.1 3.16-2.84 4.28-3.86 1.12-1.03 2.86-2.63 3.86-3.57s3-2.85 4.44-4.25c1.44-1.4 3.69-3.62 4.99-4.94 1.3-1.32 3.19-3.28 4.19-4.35 1.01-1.08 2.09-2.25 2.41-2.62.32-.36.83-.96 1.13-1.33.3-.36.76-.96 1.04-1.32.28-.37.77-1.06 1.09-1.54.32-.48.95-1.47 1.39-2.2.44-.73 1.07-1.89 1.41-2.58.34-.68.82-1.75 1.07-2.36.25-.62.6-1.56.79-2.08.18-.53.44-1.46.58-2.08.14-.61.28-1.35.31-1.64.03-.28.04-.51.02-.51-.01 0-.83.94-1.81 2.09Z"/><path class="shp1" d="M51.03 60.28c-.23.08-.54.24-.7.36-.16.11-.38.38-.5.58-.12.2-.31.61-.43.91-.11.29-.25.74-.3.99-.05.25-.21 1.19-.35 2.08-.15.89-.34 1.86-.43 2.16-.09.3-.24.69-.34.87-.09.18-.28.48-.42.66-.14.17-.37.37-.51.42l-.25.11c.45.22.79.3 1.04.33.25.02.63-.01.83-.07.27-.07.5-.23.84-.57.32-.33.52-.62.67-1 .12-.3.27-.78.33-1.06.06-.29.13-.53.15-.53.03 0 .17.13.33.28.15.15.32.36.38.48.06.11.13.33.16.49.03.18 0 .47-.08.73-.08.28-.23.55-.43.75-.17.17-.41.38-.52.46l-.21.15c.58-.05.95-.16 1.21-.28.25-.12.61-.37.8-.56.2-.18.48-.57.62-.85.21-.42.27-.65.3-1.18.03-.5 0-.78-.11-1.13-.08-.25-.23-.59-.34-.76-.11-.18-.34-.47-.53-.65-.18-.18-.52-.41-.75-.52-.29-.13-.41-.23-.41-.35 0-.09.07-.47.17-.83.09-.37.3-.91.47-1.21.16-.29.42-.69.57-.89.2-.25.25-.37.18-.41-.06-.03-.31-.06-.56-.08-.3-.02-.6.02-.88.12Z"/><path d="M50.47 67.17c-.08.36-.25.87-.39 1.14-.13.28-.33.6-.43.71-.11.11-.34.32-.52.45-.3.22-.32.25-.17.3.09.03.35.09.58.12.33.05.49.03.75-.09.18-.09.49-.31.69-.51.24-.24.39-.49.47-.79.08-.26.11-.55.08-.73-.03-.16-.1-.36-.14-.45-.05-.09-.22-.31-.39-.48-.16-.17-.32-.31-.34-.31-.03 0-.12.29-.19.64Z" style="fill:#c8102e"/><path class="shp2" d="M139.62 88.76c-.44.11-1.5.39-2.37.62-.87.23-2.57.72-3.78 1.08-1.21.37-3.69 1.13-5.52 1.7-1.83.58-5.44 1.75-8.02 2.6-2.58.86-6.37 2.16-8.43 2.89-2.05.74-4.54 1.63-5.52 2-.98.36-2.66 1.02-3.74 1.45-1.07.43-2.51 1.04-3.2 1.35-.68.3-1.56.73-1.95.94-.39.21-.88.51-1.09.67-.22.18-.4.38-.42.5-.02.13.03.21.16.26.11.05.37.08.58.08.22 0 .75-.06 1.19-.13.43-.08 1.37-.28 2.07-.46.71-.18 2.1-.57 3.08-.86.98-.3 3.28-1.04 5.11-1.65 1.82-.62 4.81-1.66 6.64-2.32 1.83-.67 4.46-1.64 5.86-2.16 1.39-.53 3.58-1.37 4.85-1.87 1.28-.5 3.45-1.36 4.82-1.91 1.37-.55 3.19-1.28 4.03-1.64.85-.35 2.25-.95 3.11-1.33.87-.38 2.05-.91 2.62-1.19.57-.27 1.13-.57 1.25-.67l.2-.17c-.57.01-1.1.1-1.53.22Z"/><path fill-rule="evenodd" class="shp0" d="M81.06 136.08c.62.01.87.06 1.15.2.19.1.42.3.52.45.09.15.15.32.14.39-.01.07-.34.23-.77.37-.51.17-.82.34-.99.51-.13.13-.34.45-.46.7-.2.44-.21.52-.2 1.87 0 1.05.05 1.67.18 2.41.1.55.5 2.34.89 3.99.39 1.64.82 3.55.96 4.23.13.69.32 1.77.41 2.41.12.76.2 1.81.23 2.99.03 1.25.01 2.08-.06 2.62-.05.43-.18 1.14-.27 1.58-.09.43-.33 1.27-.54 1.87-.2.59-.54 1.43-.74 1.86-.21.44-.51 1.02-.67 1.29-.17.28-.53.84-.8 1.25-.27.41-.84 1.16-1.26 1.66-.42.5-1.04 1.17-1.38 1.49-.34.32-.99.88-1.44 1.24-.46.36-1.23.92-1.71 1.23-.48.32-1.37.83-1.99 1.14-.62.31-1.48.71-1.91.88-.44.17-1.22.43-1.75.58-.52.15-1.25.34-1.61.41-.37.08-1.17.19-1.79.26-.62.06-1.51.12-1.99.12-.48-.01-1.25-.04-1.71-.08a17.9 17.9 0 0 1-1.7-.25c-.48-.1-1.32-.33-1.87-.51s-1.39-.52-1.87-.75c-.48-.23-1.09-.55-1.37-.71-.27-.17-.93-.62-1.45-1.01-.53-.39-1.39-1.14-1.92-1.67s-1.21-1.27-2.07-2.33l-.31.43c-.17.24-.48.56-.68.71-.21.15-.58.36-.83.45-.37.14-.61.16-1.26.14-.71-.02-.85-.06-1.41-.33-.42-.21-.75-.44-1.03-.75-.23-.25-.52-.66-.64-.9-.12-.25-.26-.62-.31-.83-.05-.2-.09-.62-.09-.91 0-.3.06-.77.13-1.04s.25-.72.4-.99c.14-.27.45-.66.68-.87.23-.21.62-.48.87-.6.25-.13.68-.27.95-.33.43-.09.59-.08 1.12.04.35.07.83.25 1.08.4.26.15.64.42.86.61.21.18.88.91 1.49 1.61.6.71 1.62 1.82 2.26 2.45.64.65 1.52 1.42 1.96 1.73.43.31 1.31.82 1.95 1.14.64.32 1.5.68 1.91.79.41.12 1.17.29 1.7.39.77.15 1.26.18 2.49.18 1.06 0 1.8-.05 2.37-.15.46-.07 1.2-.23 1.66-.35.46-.11 1.26-.37 1.79-.58.52-.21 1.31-.57 1.74-.8.43-.23 1.16-.66 1.62-.96.46-.3 1.05-.74 1.33-.97.27-.23.81-.71 1.19-1.08.39-.36.91-.93 1.17-1.25.27-.32.74-.95 1.05-1.41.31-.45.78-1.28 1.04-1.82.26-.55.61-1.39.77-1.87.16-.48.38-1.27.48-1.75.17-.77.19-1.09.19-2.74 0-1.48-.04-2.13-.19-3.15-.1-.71-.37-2.19-.59-3.29-.23-1.09-.56-2.7-.74-3.57-.18-.86-.42-2.1-.52-2.74-.12-.8-.18-1.58-.19-2.49 0-1.05.03-1.44.15-1.87.08-.3.26-.78.41-1.08.16-.34.46-.74.8-1.09.33-.33.75-.65 1.06-.81.29-.14.66-.29.83-.34.17-.04.67-.07 1.1-.05Zm37.92-.03c.37 0 .87.05 1.12.13.25.07.64.24.87.36.23.13.59.41.81.62.22.21.52.58.68.82.15.24.36.63.45.87.1.24.24.76.31 1.16.09.53.11.99.07 1.68-.03.53-.14 1.56-.25 2.29-.11.73-.41 2.28-.66 3.45-.26 1.16-.59 2.75-.74 3.53-.16.77-.36 1.99-.45 2.69-.13.91-.18 1.74-.18 2.81 0 .83.04 1.78.09 2.12.05.33.19.97.3 1.43.11.46.34 1.18.5 1.62.16.43.43 1.05.59 1.37.16.32.48.88.71 1.24.23.37.61.93.84 1.25.24.32.78.95 1.21 1.4.44.46 1.11 1.09 1.49 1.42.39.32 1.08.83 1.54 1.13a31 31 0 0 0 1.45.89c.35.18 1 .49 1.46.68a18.587 18.587 0 0 0 3.03.95c.34.07.96.16 1.37.21a18.78 18.78 0 0 0 3.65 0c.42-.05 1.03-.14 1.37-.22a13.345 13.345 0 0 0 3.08-1.11c.43-.22 1.05-.58 1.37-.79.32-.21.9-.65 1.29-.98.38-.32 1.03-.93 1.44-1.34.4-.41 1.22-1.34 1.82-2.06.65-.78 1.33-1.5 1.68-1.78.32-.25.82-.57 1.12-.71a3.05 3.05 0 0 1 2.12-.19c.27.08.68.25.9.37.22.12.58.41.8.64.21.22.49.61.61.85s.28.65.34.91c.07.26.13.69.13.96 0 .26-.04.67-.09.91-.06.24-.19.62-.31.85-.11.23-.34.58-.51.79-.17.2-.49.49-.72.64-.22.14-.64.34-.93.43-.32.11-.73.17-1.1.17-.37 0-.73-.05-1.01-.16-.24-.09-.63-.28-.85-.44-.23-.15-.53-.43-.67-.61s-.28-.38-.31-.45c-.04-.09-.11-.06-.29.17-.12.16-.62.73-1.1 1.28-.48.55-1.14 1.22-1.45 1.49-.32.28-.94.77-1.38 1.09-.43.32-1.1.77-1.49 1-.39.22-1.06.57-1.5.76-.43.19-1.18.47-1.66.63-.48.16-1.32.37-1.87.46-.54.1-1.48.22-2.07.27-.73.06-1.47.06-2.29 0-.66-.04-1.56-.14-1.99-.21-.43-.07-1.22-.24-1.74-.37-.53-.14-1.29-.36-1.71-.5-.41-.15-1.32-.54-2.03-.89-.71-.34-1.61-.81-1.99-1.05-.39-.23-1.14-.75-1.67-1.14-.52-.4-1.42-1.17-1.99-1.72-.57-.54-1.37-1.42-1.78-1.94-.4-.52-.9-1.21-1.11-1.53-.21-.32-.63-1.06-.94-1.66-.31-.59-.72-1.51-.91-2.03-.18-.53-.44-1.41-.57-1.96-.13-.54-.29-1.44-.34-1.99-.07-.63-.09-1.59-.05-2.61.02-.91.12-2.19.22-2.91.1-.71.31-1.92.47-2.7.16-.78.53-2.4.82-3.61.29-1.21.58-2.45.65-2.74.07-.3.21-1.01.31-1.58.12-.71.18-1.42.19-2.25.01-.93-.02-1.31-.14-1.68-.1-.33-.25-.58-.49-.83-.27-.27-.52-.41-1.06-.61-.53-.18-.72-.29-.73-.41-.02-.09.06-.27.16-.4.11-.14.38-.33.61-.44.32-.15.56-.19 1.08-.19Zm-43.77 9.51c.02.02.01.12 0 .22-.02.12-.38.49-1.01 1.03-.54.46-1.51 1.23-2.15 1.71-.64.48-2.06 1.5-3.15 2.28-1.1.78-2.9 2.02-3.99 2.75-1.1.73-2.69 1.77-3.53 2.31-.85.54-2.25 1.41-3.12 1.93-.86.52-2.32 1.37-3.24 1.88-.91.52-2.39 1.31-3.28 1.77-.89.46-1.74.86-1.89.89-.14.02-.28.01-.31-.04-.02-.04.08-.17.23-.28.15-.11 1.75-1.13 3.55-2.27a724.031 724.031 0 0 0 11.67-7.5c1.42-.93 4.24-2.79 6.27-4.15 2.04-1.36 3.75-2.48 3.82-2.51.06-.02.12-.03.13-.02Zm49.5-.05c.02 0 .14.06.27.12.12.06 2.9 1.89 6.17 4.06 3.26 2.17 7.21 4.76 8.76 5.75 1.55 1 4.5 2.87 6.56 4.17 2.06 1.3 3.79 2.41 3.86 2.48.09.08.1.15.04.21-.05.06-.25.02-.66-.14-.32-.12-.84-.35-1.16-.51-.32-.16-1.28-.68-2.12-1.15-.85-.46-2.53-1.44-3.74-2.17-1.21-.73-2.97-1.8-3.9-2.39-.94-.59-2.51-1.6-3.49-2.24-.98-.65-2.44-1.64-3.24-2.2-.8-.57-2.13-1.54-2.95-2.15-.82-.62-2.11-1.62-2.86-2.22-.76-.61-1.42-1.18-1.48-1.27-.06-.1-.1-.22-.1-.26 0-.05.02-.09.04-.09Zm-49.11 2.92c.41-.01.51.02.72.22.13.13.28.4.34.6.06.21.15.62.21.92.07.29.16.87.2 1.28.05.41.09 1.05.09 1.42 0 .51-.04.72-.17.93-.09.15-.25.33-.35.39-.1.07-.32.16-.48.21-.19.05-.39.06-.6 0-.17-.04-.43-.18-.84-.54l.07.54c.04.33.03.65-.03.83-.04.16-.23.43-.42.6-.3.29-.38.32-.79.32-.25 0-.54-.05-.65-.1-.1-.05-.27-.17-.37-.27-.1-.09-.2-.15-.22-.13-.02.02 0 .23.03.45.04.24.04.56 0 .73-.05.17-.2.44-.35.61-.19.2-.38.31-.64.37-.23.04-.49.04-.67 0-.16-.05-.41-.2-.84-.63l.06.63c.05.54.03.67-.12.97-.1.2-.3.43-.45.52-.15.09-.38.19-.52.22-.13.03-.4 0-.58-.05-.18-.06-.46-.22-.88-.62l.06.62c.05.56.04.65-.14.97-.11.2-.33.43-.49.52-.18.1-.45.17-.71.17-.31 0-.49-.05-.73-.21-.17-.11-.31-.24-.31-.29 0-.04-.02-.07-.06-.05-.03.02-.05.31-.03.65.02.45 0 .68-.1.88-.1.18-.28.33-.58.47-.23.12-.52.21-.64.21-.11 0-.36-.07-.54-.15-.18-.08-.42-.26-.72-.64l.05.67c.05.56.03.71-.11.99-.09.19-.25.4-.35.47-.11.07-.37.18-.57.24-.29.08-.44.09-.69.01-.17-.05-.42-.19-.56-.3-.13-.12-.26-.21-.27-.21-.01 0-.01.29.01.64.02.62.01.66-.23.96-.18.22-.38.35-.67.44-.24.07-.53.1-.69.07-.14-.03-.34-.09-.43-.14-.09-.04-.27-.18-.63-.52l.01.67c0 .57-.03.73-.23 1.11-.19.38-.31.5-.69.69-.32.17-.57.24-.85.24-.22-.01-.53-.07-.71-.14-.17-.07-.57-.35-.89-.61-.32-.26-.93-.86-1.37-1.32-.43-.46-.85-.98-.93-1.16-.08-.17-.14-.4-.15-.51 0-.12.08-.33.17-.48.09-.15.25-.33.35-.4.1-.07.34-.16.52-.2.2-.05.45-.05.62-.01.16.04.51.25.77.46.26.21.51.38.54.38.04 0 .04-.32 0-.71-.05-.59-.04-.76.09-1.06.11-.27.24-.4.52-.54.2-.1.46-.18.57-.18.12 0 .34.08.5.17.16.09.41.32.79.84l.04-.91c.03-.67.08-.96.19-1.13.08-.12.27-.3.42-.39.2-.13.36-.16.68-.13.36.03.46.08.75.4.18.2.38.44.43.53.08.13.09-.01.06-.69-.03-.74-.01-.9.13-1.19.09-.18.29-.4.44-.49.15-.1.41-.17.6-.17s.45.07.6.17c.15.09.37.32.73.86l.08-2.04.31-.29c.17-.15.42-.3.54-.33.13-.03.35-.03.5 0 .15.03.39.17.54.32.15.15.34.36.41.48.14.2.14.17.15-.71 0-.81.02-.94.19-1.2.1-.16.32-.36.48-.44.2-.1.39-.14.62-.11.18.02.42.11.54.2.11.09.29.28.4.44.1.15.22.29.25.3.03.01.04-.31.01-.72-.02-.41-.01-.87.02-1.02.03-.15.17-.38.29-.5.13-.13.36-.27.52-.32.16-.05.42-.07.56-.04.15.03.4.17.55.32.15.15.33.36.41.48.14.2.14.18.13-.67-.01-.68.01-.93.12-1.14.08-.15.25-.35.37-.44.13-.1.32-.19.44-.22.11-.03.35 0 .52.05.2.06.42.22.62.47.17.2.33.37.35.37.03 0 .03-.33.01-.73-.01-.4-.01-.83.02-.95.03-.13.15-.34.26-.48.13-.15.35-.28.54-.33.22-.06.45-.06.65-.01.18.05.42.2.58.37.15.17.3.3.33.3.04 0 .04-.25 0-.56-.03-.31-.03-.71 0-.89.04-.18.16-.44.28-.57.12-.13.31-.27.42-.31.11-.04.41-.07.67-.07Zm48.98.05c.16.02.42.1.58.18.15.07.36.25.45.38.16.22.18.36.14 2l.27-.32c.15-.18.37-.38.5-.44.12-.06.34-.11.47-.11.14 0 .36.05.48.11.13.06.34.24.47.39.23.28.24.29.21 1.18-.02.49-.02.89.01.89.02.01.15-.15.29-.33.13-.19.37-.4.52-.46.14-.07.36-.12.47-.12.12 0 .3.03.4.07.1.04.27.15.37.23.09.08.23.29.31.47.1.24.12.49.08 1.12-.04.79-.04.8.1.6.09-.12.27-.33.4-.47.14-.14.38-.29.54-.32.16-.03.41-.03.54 0 .14.03.39.19.87.66v2l.25-.36c.14-.19.38-.42.52-.51.15-.1.4-.17.54-.17.15 0 .38.05.5.12.13.06.32.21.44.33.19.21.21.3.29 2.22l.27-.38c.15-.22.39-.43.56-.5.16-.07.38-.13.5-.13.11 0 .33.05.48.11.14.06.34.22.43.35.14.2.18.43.25 2.21l.27-.38c.15-.21.37-.44.5-.52.14-.1.35-.14.6-.13.27.01.46.09.66.25.16.13.34.36.41.52.08.21.1.47.06.98-.03.37-.02.7.01.72.04.02.18-.11.32-.29.13-.17.35-.38.47-.45.13-.07.39-.13.58-.13.2 0 .44.05.54.11.1.05.28.23.4.39.19.27.21.36.21 1.2.01.74.02.89.11.76.05-.09.21-.29.34-.45.14-.16.38-.35.54-.41.18-.07.39-.09.54-.06.14.03.36.12.49.19.13.08.31.28.39.45.14.27.15.42.05 1.93l.37-.3c.2-.16.49-.38.65-.48.18-.1.43-.17.63-.17.18 0 .49.07.68.16.2.09.43.29.53.44.11.19.16.37.14.6-.02.24-.13.47-.4.82-.2.27-.82.93-1.37 1.46-.6.58-1.16 1.04-1.41 1.17-.29.14-.55.2-.88.2-.37 0-.54-.05-.86-.24-.22-.14-.47-.35-.56-.46-.09-.12-.21-.4-.26-.62-.06-.24-.09-.61-.06-.86.02-.24.04-.46.02-.48-.01-.02-.11.06-.22.17-.12.12-.34.27-.5.34-.16.06-.38.12-.48.12-.1 0-.34-.04-.52-.09-.19-.06-.47-.24-1-.76l.13-1.48-.23.25c-.12.13-.33.28-.46.33-.12.05-.4.09-.62.09-.27 0-.48-.05-.68-.19-.15-.1-.36-.29-.45-.42-.15-.21-.17-.33-.13-1.76l-.19.25c-.1.13-.34.31-.52.39-.18.08-.43.15-.54.15-.12 0-.41-.09-.64-.21-.3-.14-.48-.29-.58-.47-.1-.22-.12-.41-.08-.98.06-.69.06-.7-.09-.52-.08.1-.26.26-.4.35-.16.11-.39.17-.66.17-.3 0-.5-.05-.7-.18-.16-.11-.38-.32-.49-.48-.18-.27-.19-.36-.15-.88.02-.32.02-.61-.01-.64-.04-.03-.1 0-.15.08-.05.08-.23.21-.4.29-.17.08-.48.15-.7.15-.23 0-.48-.06-.61-.15-.12-.08-.31-.25-.42-.39-.17-.21-.19-.34-.19-.93 0-.38-.02-.69-.04-.69-.03-.01-.1.05-.17.13s-.23.19-.35.25c-.13.07-.41.12-.63.12-.27 0-.48-.06-.67-.19-.16-.1-.36-.29-.46-.42-.15-.21-.17-.34-.13-1.68l-.21.23c-.11.13-.3.27-.42.31-.11.05-.35.09-.53.09-.19 0-.49-.08-.67-.17-.23-.11-.39-.28-.51-.52s-.17-.49-.17-.79c.01-.24.03-.47.06-.52.02-.04 0-.1-.04-.12-.05-.02-.13.02-.19.09-.06.08-.23.19-.37.25-.15.06-.4.11-.54.11-.15 0-.42-.08-.61-.19-.18-.1-.41-.33-.52-.51-.18-.32-.18-.36-.09-1.5.04-.64.17-1.61.29-2.16.14-.71.26-1.07.4-1.26.12-.15.33-.3.48-.35.15-.04.4-.06.56-.03Z"/></svg>