<svg xmlns="http://www.w3.org/2000/svg" height="205.855" width="238.019"><path d="M191.692 148.006 238.02 41.43a570.375 570.375 0 0 1-71.77 34.997l65.77-48.87-41.43 7.104c-5.906-3.552-26.5-14.21-59.77-14.21 0 0-2.928.096-5.424.144-1.2-3.6-7.01-20.595-7.01-20.595l-10.609 21.987C47.191 29.764 0 65.577 0 104.223c0 17.283 7.393 39.99 41.478 52.28l-17.186 42.535 45.51-35.91a239.638 239.638 0 0 0 32.357 2.017 261.212 261.212 0 0 0 40.086-3.073l49.784 43.783-16.995-51.32a155.402 155.402 0 0 0 16.659-6.529Z" fill="#a4a9ad"/><path d="M229.474 51.08s-39.03 22.707-82.524 37.733l-1.536-4.224 74.603-51.704-82.909 21.219 46.375-18.723s-19.635-10.945-52.664-10.945a158 158 0 0 0-8.257.192l-4.8-14.115-25.78 53.528-39.414 11.186L89.149 60.25l12.002-24.436 2.496-5.136 2.16-4.417C50.793 34.133 3.986 66.922 3.986 104.223c0 20.932 11.521 40.087 43.014 49.928l-16.274 35.477 37.925-30.724a231.487 231.487 0 0 0 33.51 2.208 262.963 262.963 0 0 0 41.333-3.217l42.055 37.35-15.747-43.254a123.345 123.345 0 0 0 18.819-6.913Z" fill="#002654"/><path d="M125.25 134.852a255.134 255.134 0 0 1-28.468-6.817s8.21-3.168 20.355-8.737c10.85-4.993 24.82-11.858 38.886-20.115a248.25 248.25 0 0 0 32.405-22.084s-56.984 31.109-104.272 31.109c-31.78 0-46.47-14.786-46.47-24.628 0-29.476 51.847-44.694 63.465-47.767l2.496-5.136c-49.831 9.841-68.362 29.38-68.362 29.38S18.627 70.138 12.29 88.86a46.243 46.243 0 0 0-2.353 14.45c0 22.516 14.739 51.992 90.398 51.992 53.72 0 82.284-14.258 82.284-14.258a366.175 366.175 0 0 1-26.164-1.68c-10.465-1.056-20.883-2.593-31.204-4.513Zm44.647-99.807s-15.602-7.585-46.039-6.625l1.393 4.129a153.232 153.232 0 0 1 44.646 2.496Z" fill="#ce1126"/><path d="m71.339 101.103 3.216-7.105-19.01-5.233s-5.426 9.65 15.794 12.338Z" fill="#a4a9ad"/><path d="M54.728 156.551a5.001 5.001 0 0 0-1.344-.336c-.384-.048-.768-.096-1.2-.144l-7.633 15.315 14.354-10.706c-.912-1.68-1.969-3.36-4.177-4.129Zm109.024-.816a15.09 15.09 0 0 0-4.032 2.064 7.64 7.64 0 0 0-2.4 3.697c-.193.624-.337 1.344-.529 2.064l14.066 11.138Zm23.86-107.488-60.633 14.69-10.658-33.365-16.898 40.374-46.04 11.522 32.214 7.873-6.193 12.338 1.728.048c.768 0 1.536.048 2.4.048 2.209 0 4.465-.096 6.721-.24a150.301 150.301 0 0 0 17.379-2.112c4.513-.816 9.073-1.825 13.682-2.977 6.049-1.488 12.146-3.264 18.195-5.184l-3.505-9.266 51.656-33.749Z" fill="#a4a9ad"/><path d="M74.555 124.77a172.829 172.829 0 0 0 42.582-5.472c10.85-4.993 24.82-11.858 38.886-20.067-11.81 4.464-49.111 17.762-75.563 17.762-40.086 0-52.664-23.235-52.664-36.341 0-11.714 7.537-20.595 7.537-20.595S21.46 69.707 21.46 85.789c0 26.5 26.404 38.982 53.096 38.982Z" fill="#fff"/><path d="M183.771 105.328c-2.4-5.09-9.457-6.001-15.794-1.969-6.289 3.985-9.457 11.33-7.057 16.419 2.448 5.089 9.457 5.953 15.794 1.968 6.337-4.033 9.458-11.33 7.105-16.418Zm-93.758 31.828c-74.555 0-77.867-39.702-77.723-48.295a46.243 46.243 0 0 0-2.353 14.45s.769 43.927 85.933 43.927c27.7 0 52.664-5.857 60.585-7.873-10.465-1.056-20.883-2.593-31.204-4.513a233.99 233.99 0 0 1-35.238 2.304Z" fill="#fff"/><path d="m177.77 53.384-70.138 21.315s25.78 5.617 26.548 5.713c.816.096 43.59-27.028 43.59-27.028Zm-61.449-18.147L107.632 74.7l17.043-11.09Zm48.872 93.518-1.729 2.112-2.688.288 1.632.96-1.728 2.113 2.88-1.44 1.969 1.44-.288-2.304 2.64-1.44-2.688.191Zm31.78-31.685-.096-2.544-2.256 2.832-3.6.433 2.208 1.248-2.209 2.88 3.793-1.968 2.64 1.872-.48-3.12 3.553-2.017Zm-5.905 16.659-.048-2.352-2.112 2.592-3.312.432 2.064 1.104-2.064 2.64 3.504-1.824 2.448 1.729-.432-2.833 3.217-1.872Zm-6.865 16.898v-2.592l-2.352 2.832-3.6.384 2.208 1.249-2.305 2.832 3.841-1.872 2.592 1.92-.336-3.12 3.553-1.969Zm23.14-53.384-4.369.48-.384-3.216-2.496 3.553-4.417.576 2.929 1.536-2.449 3.648 4.513-2.496 3.456 2.352-.912-3.888Zm-29.525 15.219-1.728 3.12 3.553-2.4 3.168 1.632-1.152-3.024 3.264-2.353-3.648.72-.672-2.544-1.776 3.072-3.601.769Zm-18.578 10.993-.048-2.112-1.873 2.352-2.976.384 1.824 1.009-1.824 2.352 3.12-1.632 2.209 1.584-.384-2.592 2.88-1.633-2.928.336Zm-11.234 25.54v-1.68l-1.536 1.824-2.353.288 1.44.816-1.488 1.825 2.545-1.249 1.632 1.297-.24-2.065 2.304-1.248Zm-13.634-1.872v-1.68l-1.488 1.824-2.353.24 1.44.816-1.488 1.824 2.497-1.2 1.68 1.248-.24-2.016 2.304-1.296Zm19.01-10.322-.047-1.68-1.488 1.824-2.353.336 1.44.769-1.44 1.872 2.449-1.296 1.728 1.2-.24-1.969 2.256-1.344Zm-13.777-1.488-.048-1.824-1.632 2.016-2.593.336 1.632.864-1.632 2.065 2.785-1.393 1.824 1.345-.288-2.257 2.496-1.44Zm-18.915 8.977-.048-1.824-1.584 1.969-2.449.336 1.537.816-1.537 2.016 2.64-1.392 1.777 1.296-.336-2.112 2.448-1.393Z" fill="#fff"/><path d="M81.132 101.727c.768 0 1.536.048 2.352.048 2.209 0 4.513-.096 6.77-.24l17.378-26.884-20.355 15.026Zm40.182-5.233-13.682-21.843v24.772c4.609-.816 9.17-1.824 13.682-2.929ZM47.575 167.64l7.153-11.089a6.126 6.126 0 0 0-1.344-.336Zm109.744-6.144 9.362 7.393-6.961-11.09a7.878 7.878 0 0 0-2.4 3.697Zm-57.032-90.83-37.83 10.178 45.175-6.193-7.345-4.033Z" fill="#fff"/><path d="M168.937 104.8c-5.137 3.216-7.825 9.313-6 13.538 1.775 4.224 7.392 5.04 12.53 1.776 5.136-3.217 7.824-9.314 6-13.538s-7.441-4.993-12.53-1.776Z" fill="#ce1126"/></svg>