<svg xmlns="http://www.w3.org/2000/svg" height="254.958" width="227.702"><path d="M0 25.92v48.322a211.675 211.675 0 0 0 19.321 85.694c21.27 46.087 52.561 73.228 94.53 95.022 41.623-21.619 73.124-48.641 94.53-95.022a211.668 211.668 0 0 0 19.32-85.694V25.919C192.503 7.595 152.255 0 113.852 0 75.803 0 35.428 7.473 0 25.92Z" fill="#041e42"/><path d="M6.18 29.67v44.572a205.244 205.244 0 0 0 18.752 83.105c19.776 42.851 49.77 70.316 88.919 90.65 39.306-20.416 69.211-47.948 88.92-90.65a205.256 205.256 0 0 0 18.751-83.105V29.669C190.348 13.44 149.546 6.178 113.851 6.178c-35.819 0-76.558 7.29-107.671 23.491Z" fill="#b9975b"/><path d="M160.254 120.01c5.085-2.86 11.92-9.217 11.92-9.217 3.655-10.806 6.812-25.294 6.812-25.294 0-1.43-1.727-3.755-1.727-3.755a25.676 25.676 0 0 0-5.722-1.49c-5.9.954-13.587 6.735-19.707 11.536a64.667 64.667 0 0 0 8.742-1.027c-1.113 2.86-5.086 10.33-5.086 10.33a37.097 37.097 0 0 0 7.47-.954 108.394 108.394 0 0 1-5.562 13.038l2.86 6.834Zm-42.511-20.109q-1.196-.507-2.402-.986c-2.358-.938-4.392-1.676-4.392-1.676s-.484.003-1.438.112q-.358.04-.805.103-1.074.153-2.138.364a85.012 85.012 0 0 0-18.18 6.156l-.717-1.474-.957-1.965-9.576 13.179a52.197 52.197 0 0 0 9.718.792 73.791 73.791 0 0 0 12.293-1.098 97.616 97.616 0 0 0 8.884-8.629q.916-1.002 1.807-2.028c.636-.731 1.036-1.212 1.148-1.34 2.226-.636 3.974-.954 6.755-1.51Zm14.625 8.698c-5.402-4.291-8.903-5.455-8.903-5.455s.323 6.142-.153 8.09a176.93 176.93 0 0 1-11.514 13.96l18.783-8.61c1.087-4.008 1.787-7.985 1.787-7.985Z" fill="#041e42"/><path d="M113.85 61.724c-58.188 0-96.805 18.85-99.91 20.415 1.843 36.314 16.885 101.9 78.91 144.733 8.3-4.444 13.832-11.918 17.12-17.742 6.54 7.907 7.216 18.94 7.217 18.945a39.732 39.732 0 0 1-3.337 11.412q8.103-4.204 15.793-9.143a183.852 183.852 0 0 0 22.578-17.078q.293-.258.584-.519c21.874-22.63 22.5-56.547 22.5-56.547-4.768-19.786-13.143-26.654-13.143-26.654 1.668 9.052 2.701 18.985 2.701 18.985a61.09 61.09 0 0 1-14.859 19.626c-8.581.954-15.385.098-27.294-3.933a77.385 77.385 0 0 1-17.998-8.94 57.427 57.427 0 0 0-8.462.239c-3.834.403-8.463 1.43-8.463 1.43 5.125-9.059 8.165-18.262 8.718-22.448a80.352 80.352 0 0 0-11.118-9.978c-8.487.395-15.24.887-15.24.887l2.86-11.601s-1.951 1.625-4.133 3.807c-2.342 2.342-4.925 5.251-4.925 5.251a66.414 66.414 0 0 1-12.237 3.178 26.815 26.815 0 0 1-7.152-3.337c8.582-12.713 22.567-17.8 22.567-17.8-2.543-3.018-2.384-5.402-2.384-5.402a141.879 141.879 0 0 1 9.702-5.886 12.587 12.587 0 0 0-.803 3.178 95.199 95.199 0 0 1 7.874-5.734c3.337-2.003 6.589-3.715 6.589-3.715 2.158-6.955 5.859-12.595 6.813-13.396a14.855 14.855 0 0 1 2.96-.192c.19 2.276 2.788 5.902 3.845 7.292a39.715 39.715 0 0 0-10.073 5.276s11.86-3.164 22.358-3.516c14.223-.477 22.988 2.73 22.988 2.73a78.453 78.453 0 0 1-5.03 6.335c23.528-7.975 25.984-14.07 38.737-16.812a56.63 56.63 0 0 1 8.86 2.264 15.077 15.077 0 0 1 3.734 6.436c-1.748 13.588-7.23 28.851-7.23 28.851-4.291 5.244-11.68 10.012-11.68 10.012 7.389-.953 18.355-4.298 18.355-4.298 6.817 4.976 15.768 15.79 19.481 20.445a199.62 199.62 0 0 0 11.538-56.641c-3.105-1.565-41.72-20.415-99.91-20.415Z" fill="#041e42"/><path d="M48.534 153.066a49.14 49.14 0 0 1 5.454-7.146l-3.31-9.309a29.709 29.709 0 0 1-3.336-3.615q-1.264-1.648-2.369-3.408l-3.273 8.54a104.938 104.938 0 0 0 6.834 14.938Zm4.45 4.92a24.438 24.438 0 0 0 7.628 11.125 79.59 79.59 0 0 1 20.977-4.762s-15.892-6.515-26.222-13.826a13.743 13.743 0 0 0-2.384 7.463Zm46.166-44.578a73.75 73.75 0 0 1-12.294 1.098 52.232 52.232 0 0 1-9.717-.792l6.992 3.27a61.49 61.49 0 0 0 17.045-1.27 59.733 59.733 0 0 0 9.814-11.76 22.303 22.303 0 0 0-.002-2.544c-.112.13-.512.61-1.148 1.341q-.892 1.025-1.808 2.028a97.48 97.48 0 0 1-8.883 8.63Zm-20.104 41.565s.571-.899 1.344-2.396a47.42 47.42 0 0 0-6.35-4.875 36.537 36.537 0 0 1 8.22.737c.229-.585.452-1.2.669-1.837a45.857 45.857 0 0 0-7.962-4.918 40.627 40.627 0 0 1 9.28-.157c.098-.562.176-1.131.24-1.704a41.86 41.86 0 0 0-10.566-4.675 36.59 36.59 0 0 1 7.082-1.517l-3.15-3.694a67.74 67.74 0 0 0-7.35.139c-4.918.33-9.428.974-9.428.974-.75.563-1.89 1.47-2.73 2.125a21.764 21.764 0 0 0-3.058 3.357l.154 9.08c2.923 1.364 14.391 6.61 23.605 9.361Zm48.63 26.057a51.884 51.884 0 0 1 2.74 9.535 25.372 25.372 0 0 1 .478 7.747c-15.257-17.481-37.386-28.241-37.386-28.241s30.671 25.268 23.679 58.004a39.732 39.732 0 0 1-3.337 11.412q8.103-4.204 15.793-9.143a183.852 183.852 0 0 0 22.578-17.078c-8.602-19.282-24.546-32.236-24.546-32.236Zm-39.288-77.056a85.02 85.02 0 0 1 18.18-6.156q1.064-.21 2.138-.364.401-.057.805-.103c.955-.11 1.437-.112 1.437-.112h.001c-11.09-1.957-24.235 3.295-24.235 3.295l.957 1.966Z" fill="#fff"/><path d="M92.634 109.363a4.797 4.797 0 0 1-4.61-1.04 944.192 944.192 0 0 1-1.27 2.153 12.375 12.375 0 0 0 10.012-.477 7.901 7.901 0 0 0 4.132-4.53 53.39 53.39 0 0 0-5.817.754 4.58 4.58 0 0 1-2.447 3.14ZM13.731 74.025c29.976-13.64 67.122-19.853 100.12-19.853 32.888 0 70.084 6.194 100.12 19.858V34.252S174.557 13.73 113.85 13.73 13.73 34.252 13.73 34.252v39.773Z" fill="#c8102e"/><path d="M67.543 45.961q-4.277.798-8.525 1.741V26.966q-2.612.581-5.215 1.217v25.978q6.828-1.67 13.74-2.958Zm46.497-9.405c.42 0 .838.002 1.257.005q2.111 5.196 4.221 10.427 2.826.064 5.65.19-2.109-5.278-4.22-10.522.872.025 1.745.055 1.234-2.197 2.474-4.39v-6.637q-1.232-2.292-2.47-4.58-6.986-.245-13.978-.103v25.976q2.66-.054 5.32-.052V36.556Zm0-10.367q2.904.003 5.81.071v5.128q-2.905-.07-5.81-.072v-5.127ZM33.323 49.73q2.967-.998 5.959-1.921v-5.242q-2.991.923-5.96 1.92V39.36q4.152-1.395 8.35-2.647v-5.24q-6.783 2.02-13.445 4.42v25.976q2.538-.914 5.096-1.773V49.729Zm155.46-1.808q2.808.871 5.596 1.808v10.367q2.554.86 5.096 1.773V40.38q-1.18-2.665-2.368-5.327-5.496-1.917-11.076-3.58-1.197 1.886-2.398 3.783v21.493q2.583.741 5.15 1.537V47.921Zm0-10.368q2.809.871 5.596 1.81v5.125q-2.79-.937-5.596-1.808ZM93.797 47.722q1.232-2.338 2.47-4.672v-17q-1.233-2.154-2.47-4.304-5.74.456-11.455 1.175-1.232 2.4-2.458 4.804v17.008q1.228 2.076 2.458 4.163 5.713-.717 11.454-1.174Zm-8.624-19.899q2.89-.33 5.787-.593v15.49q-2.897.263-5.787.593Zm57.731-5.2q-2.646-.306-5.298-.557v25.978q2.652.25 5.298.556V22.623Zm28.574 26.47v-17q-1.21-2.524-2.428-5.044-6.85-1.532-13.777-2.684v25.977q6.925 1.15 13.777 2.683l2.428-3.932Zm-5.223-1.92q-2.855-.605-5.724-1.143V30.538q2.866.54 5.724 1.144v15.492Z" fill="#fff"/></svg>