<svg xmlns="http://www.w3.org/2000/svg" height="174.829" width="270.96"><path d="M252.98 36.07c.11 0 9.4-7.323 9.4-7.323a282.689 282.689 0 0 0-81.376-7.432S174.72.219 144.934 0c-22.133-.11-34.867 13.662-38.856 24.429-41.808 9.072-73.725 30.167-73.725 30.167l7.652 5.848C20.275 70.774 0 87.278 0 87.278s1.858 9.947 13.827 25.905c0 0 8.033 6.23 29.238 14.373a40.508 40.508 0 0 0 6.121-1.967 71.411 71.411 0 0 0 8.908 2.404c-.164 2.678-.984 6.504 3.935 11.04l-3.607 1.913s4.372 11.04 28.801 16.996c9.4-2.186 51.919-9.946 66.401 16.887l74.49-72.194-15.795-.109 58.641-61.482a149.636 149.636 0 0 0-17.98-4.974Z" fill="#e2d6b5"/><path d="M256.75 43.995a174.006 174.006 0 0 0-20.93-6.066l7.487-5.684c-40.333-8.416-68.041-6.012-68.041-6.012s-5.41-21.095-32.299-21.26c-26.014-.163-33.993 23.009-33.993 23.009C73.287 34.759 39.622 54.98 39.622 54.98l8.143 6.23C26.67 71.43 4.755 88.863 4.755 88.863c3.005 9.619 11.968 21.369 11.968 21.369 8.307 5.848 26.615 13.116 26.615 13.116a25.703 25.703 0 0 0 5.52-2.186 57.273 57.273 0 0 0 18.855 3.771c3.552.055 7.487-.383 7.542-1.749 0-2.404-7.27-3.17-7.27-5.847 0-2.023 4.428-4.7 21.096-4.591 9.947.054 21.26.82 21.26.82-8.198-.055-24.375 1.967-24.375 5.738-.055 3.006 10.93 3.224 10.93 7.214-.054 5.793-8.635 7.706-18.636 7.651-8.962-.055-13.225-2.623-15.247-2.678-.765 0-1.257.383-1.257.93 0 2.076 3.935 6.284 7.159 7.486l-4.372 2.46c4.81 6.449 22.79 11.367 22.79 11.367 51.535-10.875 67.22 14.92 67.22 14.92l60.718-62.03-14.155-.108Z" fill="#024930"/><path d="M117.445 38.803a19.219 19.219 0 0 1 .219-3.06c-23.282 3.388-45.033 9.891-62.74 19.346a309.992 309.992 0 0 1 62.74-12.898 23.022 23.022 0 0 1-.219-3.388Zm49.405-5.574a23.71 23.71 0 0 1 .656 5.957 17.884 17.884 0 0 1-.219 2.95 161.925 161.925 0 0 1 32.135 6.887c-11.75.328-23.773 1.366-35.414 2.732a24.897 24.897 0 0 1-21.697 12.242 24.61 24.61 0 0 1-16.395-6.23c-24.21 4.7-41.207 9.4-41.207 9.4 11.969.656 18.69 3.443 18.69 3.443-30.932 6.066-59.787 17.761-69.187 21.806 2.24 3.552 5.082 7.705 5.082 7.705l-4.645 5.684c8.252 1.585 18.472.765 18.472.765l15.411-9.29 12.024 3.716 3.661-4.973h-3.935l8.034-12.734 6.558 12.843h-3.006l2.023 4.372 8.307-1.421 3.552-4.481h-3.17l4.81-7.269h-3.553l7.542-12.624 6.34 13.116h-2.842l4.208 7.651-3.389-.055 6.886 12.68 6.996-9.674h-4.755l7.214-10.711-4.59-.055 10.438-17.598 8.798 17.98h-3.716l6.066 10.548-4.317-.054 5.793 13.17 10.165-16.34-5.52-.055 8.253-13.225-5.028-.055 11.094-22.188 11.313 23.39h-4.044l7.377 12.297-5.082-.055 5.574 12.187 9.346-14.045-4.974-.055 10.876-15.411h-5.793l17.379-23.664 8.963 16.395 19.456-23.61c-22.189-8.415-47.492-13.06-73.014-14.045Z" fill="#af1e24"/><path d="M142.64 13.937a25.057 25.057 0 0 0-24.976 21.805s12.624-5.574 46.781-8.744a25.165 25.165 0 0 0-21.806-13.061Zm-.329 50.06a24.831 24.831 0 0 0 21.697-12.242 596.835 596.835 0 0 0-38.037 6.012 24.66 24.66 0 0 0 16.34 6.23ZM166.85 33.23a271.792 271.792 0 0 0-49.186 2.513 27.804 27.804 0 0 0-.219 3.06c0 1.149.11 2.296.219 3.39a238.805 238.805 0 0 1 49.623-.055 17.884 17.884 0 0 0 .219-2.952 26.535 26.535 0 0 0-.656-5.957Z" fill="#edaa00"/><path d="M145.317 48.039a300.992 300.992 0 0 0-62.138 8.799 769.64 769.64 0 0 0-.656-4.318c-1.038 1.695-1.967 3.334-3.006 4.974 0 0-14.81 5.355-24.593 10.383 12.515-4.208 22.68-6.776 22.68-6.776-1.038 2.13-2.022 4.208-3.06 6.394a238.865 238.865 0 0 1 5.575-4.919l3.934 2.132c-.164-1.585-.327-3.116-.491-4.755 0 0 33.009-8.963 61.755-11.914Z" fill="#fff"/></svg>