<svg xmlns="http://www.w3.org/2000/svg" height="298.852" width="437.309"><path d="m388.085 147.402 31.24-32.824-17.776-81.753-78.85-23.496-7.127 6.6C289.172 8.097 241.65-.087 209.97 0 92.577.177.352 65.474 0 148.634c0 71.105 61.337 150.218 211.026 150.218 118.626 0 225.283-79.025 225.283-79.025Z" fill="#fff"/><path d="m377.612 146.434 32.825-34.408-15.84-72.777-69.785-20.768-7.128 6.688c-23.585-7.744-73.921-17.072-107.626-17.072C95.482 8.36 8.448 71.194 8.097 148.634c-.352 81.313 78.497 142.034 202.93 142.034 87.122 0 176.355-46.464 214.019-72.953Z" fill="#192168"/><path d="M166.234 99.09v100.497c-16.544 0-69.169-19.36-69.169-49.897 0-37.664 53.857-48.136 69.169-50.6Zm68.025 62.833v39.512a237.585 237.585 0 0 1-39.6.792v-40.304Zm-39.6-25.96V96.801a257.972 257.972 0 0 1 39.6 1.232v37.928Zm170.721 18.04s-49.368 33.792-103.929 43.912V102.17c59.225 7.48 94.25 46.112 94.25 46.112l39.424-40.744-12.672-57.113-53.857-15.752-6.864 7.392c-21.824-8.536-66.969-19.624-116.954-19.624-100.057 0-181.898 56.76-181.986 126.721-.176 68.201 69.257 127.162 181.282 127.162 103.402 0 178.115-49.28 201.523-62.48Z" fill="#fff"/><path d="M204.866 174.067h19.009v16.104h-19.009Zm.44-49.545h18.48v-15.4l-18.48-.704Zm134.378 28.072a150.748 150.748 0 0 0-63.625-33.264v60.37c20.593-5.72 43.12-15.4 63.625-27.105Zm-187.97 29.393v-65.385c-18.832 5.456-40.04 16.192-40.04 33.088 0 11.617 17.864 25.609 40.04 32.297Z" fill="#fff"/><path d="M362.564 168.259c-64.68 37.928-107.8 45.32-160.25 44.792-73.832-.616-115.897-30.184-115.897-65.385 0-31.68 38.545-61.952 117.393-61.952 52.977 0 116.866 14.256 151.01 47.872l28.425-28.952-9.68-45.937-41.889-12.232-7.656 8.536C301.052 45.85 262.243 33.09 202.578 33.09c-90.113 0-169.138 52.097-169.138 115.017 0 65.825 68.817 117.394 166.41 117.394 99.09 0 157.17-37.313 190.699-54.913Z" fill="#af1e2d"/></svg>