<svg xmlns="http://www.w3.org/2000/svg" height="135.71" width="140.762"><path d="m94.802 0 5.46 5.091L105.24.25h35.522l-10.617 18.846v91.959a15.578 15.578 0 0 1-15.577 15.58H85.43a17.351 17.351 0 0 0-15.048 9.075 17.354 17.354 0 0 0-15.048-9.075H26.196a15.58 15.58 0 0 1-15.579-15.58V19.096L0 .25h35.523l4.976 4.841L45.96 0Z" fill="#0033a0"/><path d="m129.257 18.863 9.986-17.725H105.6l-5.325 5.18-5.824-5.43h-48.14l-5.824 5.43-5.325-5.18H1.518l9.986 17.725v92.192a14.691 14.691 0 0 0 14.691 14.692h29.138a18.188 18.188 0 0 1 15.047 8.24 18.191 18.191 0 0 1 15.048-8.24h29.138a14.708 14.708 0 0 0 14.691-14.692Z" fill="#fff"/><path d="M125.353 18.863V17.84l.502-.893 6.706-11.904h-25.375l-4.188 4.074-2.666 2.592-2.72-2.535-4.699-4.38H47.848l-4.698 4.38-2.72 2.535-2.666-2.592-4.188-4.074H8.201l6.705 11.904.504.893v93.216a10.786 10.786 0 0 0 10.783 10.788h29.139c5.58 0 11.239 1.79 15.049 6.99 3.808-5.052 9.469-6.99 15.048-6.99h29.138a10.8 10.8 0 0 0 10.786-10.788Z" fill="#0033a0"/><path fill="#fff" d="M18.402 39.366h103.95v2.505H18.402zm34.648 6.262h-3.605l72.911 52.205v-2.58L53.05 45.628z"/><path fill="#c8102e" d="M122.356 90.133V45.628H60.2l62.156 44.505z"/><path fill="#fff" d="m18.428 57.836 84.137 60.933h3.578L18.428 55.245v2.591zm69.441 60.942c-.04-.004-.101-.006-.146-.01h-.097Zm14.037-101.329H95.05v18.786h3.006v-9.223h1.833l3.24 9.223h3.004l-3.3-9.348a3.611 3.611 0 0 0 2.831-3.52V21.16a3.947 3.947 0 0 0-3.757-3.711m-.573 6.707h-3.278v-3.701h3.23s1.372-.028 1.372 1.22v1.26a1.23 1.23 0 0 1-1.233 1.224q-.046 0-.09-.003m4.883 66.912-3.11-2.272-.758-.554-1.668-1.22-11.082 15.17 2.426 1.774 4.954-6.782 1.481 1.083-2.339 8.69 2.427 1.774 2.364-8.83a3.611 3.611 0 0 0 4.362-1.171l1.79-2.45a3.948 3.948 0 0 0-.847-5.212m-4.906 5.745-2.646-1.935 2.67-3.655 2.61 1.907a1.277 1.277 0 0 1 .408 1.759l-.023.035-1.229 1.685a1.23 1.23 0 0 1-1.72.259q-.036-.026-.07-.055M86.549 36.236h1.126s4.133-.565 4.18-4.134v-10.38a4.151 4.151 0 0 0-3.945-4.273h-1.361c-3.993 0-4.181 4.04-4.181 4.04v10.285c0 4.133 4.181 4.462 4.181 4.462m.797-3.006h-.375a1.62 1.62 0 0 1-1.597-1.641v-9.49a1.663 1.663 0 0 1 1.597-1.644h.423a1.734 1.734 0 0 1 1.455 1.69v9.44a1.678 1.678 0 0 1-1.503 1.645m-45.18-12.775v-3.006h-7.514v18.786h7.514V33.23h-4.509v-4.979h4.509v-3.005h-4.509v-4.791h4.509zm53.14 66.426L97.1 84.47l-3.618-2.692-1.356-1.01-1.054-.784-11.215 15.071 1.054.785 1.357 1.009 3.617 2.693 1.795-2.412-3.617-2.691 2.972-3.995 3.616 2.691 1.795-2.411-3.617-2.692 2.86-3.843 3.617 2.692zM27.607 17.449v11.796l-5.073-11.796h-3.006v18.786h3.006V24.44l5.073 11.795h3.006V17.449h-3.006zm49.971 0-2.535 6.901-2.538-6.901H69.5l4.038 10.99v7.796h3.007v-7.796l4.039-10.99h-3.006zm43.865 18.786L115.769 23.4l3.701-5.951h-3.005l-3.946 6.324v-6.324h-3.005v18.786h3.005v-7.608l1.479-2.379 4.439 9.987h3.006zM58.792 17.449l-1.897 11.496-1.954-11.496h-3.006L49.98 28.945l-1.896-11.496h-3.006l3.1 18.786h3.569l1.691-9.945 1.691 9.945h3.569l3.1-18.786h-3.006zM73.38 67.361l-6.864 9.594 2.739-12.545-2.445-1.749L55.879 77.94l2.445 1.749 6.864-9.595-2.738 12.547 2.444 1.748 10.931-15.278-2.445-1.75zm10.985 7.941L82.95 74.26l-.114-.082c-3.243-2.327-5.751.844-5.751.844l-5.998 8.356c-2.411 3.357.794 6.062.794 6.062l1.337.985a6.528 6.528 0 0 0 2.07.612l-.06.759 1.316.939 2.036-2.721a3.979 3.979 0 0 0 .444-.508l1.967-2.739 1.368-1.907-2.448-1.743-2.445-1.736-1.367 1.91 2.443 1.733-1.658 2.309a1.68 1.68 0 0 1-2.18.459l-.728-.547a1.62 1.62 0 0 1-.34-2.267l.002-.001 5.533-7.706a1.66 1.66 0 0 1 2.255-.403l.766.575a1.734 1.734 0 0 1 .197 2.222l-1.221 1.7 2.434 1.765 1.476-2.056a4.152 4.152 0 0 0-.714-5.772M60.618 58.119l-2.352-1.81-15.23 12.24 2.423 1.778 3.248-2.471 4.062 3.01-1.343 3.825 2.423 1.778Zm-4.034 3.149-2.865 7.045L50.76 66.2Zm59.956 36.06c2.077 1.737 2.79 3.54 1.653 5.786a19.043 19.043 0 0 1-1.474 2.236l-2.367-1.765s2.376-2.246.489-3.9a2.667 2.667 0 0 0-2.611-.62c-1.58.903-1.588 2.527-1.063 4.332 1.044 2.797 2.518 6.695.245 9.401-1.278 1.277-3.438 2.113-4.941 1.363a8.423 8.423 0 0 1-4.64-4.03c-1.043-2.763 2.085-5.89 2.085-5.89l2.03 1.427s-2.19 2.621-1.326 3.767c.31.883 2.62 2.536 4.125 1.784 3.512-2.657-3.551-8.556-.095-12.988a6.089 6.089 0 0 1 3.232-2.106c1.879-.45 3.23.338 4.659 1.202"/><path d="M70.381 124.594c-5.304-6.374-14.893-5.873-17.319-5.824H27.837c-10.52 0-9.408-9.828-9.408-9.828V62.975l77.04 55.795h-9.892c-2.473-.001-9.477-.397-15.196 5.824M49.24 49.965l-3.11-2.272-.758-.553-1.668-1.22-11.083 15.17 2.427 1.773 4.954-6.78 1.481 1.081-2.339 8.691 2.427 1.773 2.363-8.829a3.61 3.61 0 0 0 4.362-1.17l1.79-2.45a3.948 3.948 0 0 0-.846-5.214m-4.906 5.745-2.647-1.934 2.671-3.655 2.608 1.906a1.277 1.277 0 0 1 .41 1.76l-.023.034-1.229 1.685a1.23 1.23 0 0 1-1.72.26q-.036-.027-.07-.056" fill="#fff"/><path d="M81.676 79.791c-.29.385-1.079.28-1.769-.237-.688-.517-1.01-1.246-.72-1.63l.824-1.105c.29-.383 1.078-.278 1.767.24.69.512 1.014 1.243.724 1.63Zm-5.653 7.961c-.29.386-1.078.28-1.767-.234-.686-.518-1.009-1.246-.719-1.63l.826-1.105c.288-.382 1.077-.277 1.764.239.688.511 1.012 1.241.722 1.627Z" fill="#0033a0"/><path d="M74.63 90.685c-.235.311-1.225-.04-2.22-.784-.992-.746-1.608-1.6-1.372-1.909l.664-.89c.234-.31 1.226.04 2.22.786.991.741 1.611 1.596 1.374 1.907Zm9.951-13.028c-.235.31-1.349-.132-2.497-.991-1.147-.863-1.886-1.81-1.652-2.12l.665-.891c.233-.308 1.351.134 2.497.996 1.146.857 1.89 1.806 1.653 2.116Z" fill="#fff"/></svg>