<svg xmlns="http://www.w3.org/2000/svg" height="295.82" width="306.634"><defs><style>.cls-1{fill:#fff}.cls-3{fill:#003087}</style></defs><path class="cls-1" d="M153.317 0C68.64 0 0 66.222 0 147.913 0 229.6 68.64 295.82 153.318 295.82c84.674 0 153.316-66.22 153.316-147.907C306.634 66.222 237.992 0 153.317 0Z"/><path d="M153.317 10.898c-78.65 0-142.404 61.343-142.404 137.015 0 75.667 63.754 137.01 142.405 137.01 78.644 0 142.402-61.343 142.402-137.01 0-75.672-63.758-137.015-142.403-137.015Z" style="fill:#fc4c02"/><path class="cls-3" d="M49.343 180.464v-8.944l-8.838-7.762v17.264c2.696-.72 6.018.2 8.838-.558Z"/><path class="cls-3" d="M286.663 139.775c-12.54 4.4-28.155 9.53-40.258 13.687-4.075-.663-6.862 1.62-9.754 3.533-4.312 1.863-9.745 1.116-14 2.926-3.965 3.278-9.837 4.662-14.705 2.585-1.309-1.49-3.03-3.295-5.089-2.823-3.235.321-3.91 6.186-7.916 3.13-2.471 1.301-4.632 3.11-7.364 3.77l-4.112 1.018-1.547 3.298-1.411 2.997-.944 2.013-1.408 2.998-.945 2.015-1.414 2.998-.947 2.014-1.405 3-11.326 24.112a5.477 5.477 0 0 1-3.69 2.998l-18.258 4.352a1.138 1.138 0 0 1 .234.275l12.08 25.085v-22.903a1.138 1.138 0 0 1 1.275-1.133l6.556.773a1.135 1.135 0 0 1 1.007 1.13v41.423a1.138 1.138 0 0 1-1.075 1.136l-7.308.435a1.138 1.138 0 0 1-1.08-.619l-14.295-27.87v26.548a1.145 1.145 0 0 1-1.294 1.133l-6.556-.899a1.141 1.141 0 0 1-.986-1.134v-40.655l-7.654 1.825 6.064 38.42a.914.914 0 0 1-1.185 1.006l-7.348-2.392a.904.904 0 0 1-.617-.726l-1.387-8.706-9.614-3.133-1.812 7.17a.913.913 0 0 1-1.166.644l-7.03-2.283a.909.909 0 0 1-.602-1.092l6.285-24.52-6.089 1.454a2.062 2.062 0 0 1-2.508-1.694l-3.742-24.553a2.054 2.054 0 0 1 1.723-2.339l.027-.004 61.375-8.449a5.466 5.466 0 0 0 4.167-3.008l3.89-7.897 1.464-2.971.982-1.995 1.46-2.973.985-1.991 1.46-2.972.393-.795c-2.855-.18-7.046 1.976-9.18 2.455-3.242.983-8.148-.675-9.33 3.601a7.534 7.534 0 0 1-7.255.728c-2.641-4.054-7.252-.676-10.306-.624-4.862.74-8.726-3.315-13.261-1-5.865 3.534-12.865-3.074-17.8 2.504-3.146.239-6.097-1.252-9.478-1.016-4.955-.016-9.232 1.543-13.85 2.37-5.216 3.433-12.386 1.776-18.395 1.333-3.025 1.221-6.77.882-10.051.966v32.96c0 1.948-1.006 2.493-2.574.235l-6.264-9v-23.637c-2.047-1.062-3.767 1.556-5.663 2.366-1.895.898-3.56-.659-4.36-2.214a2.344 2.344 0 0 0-1.408-1.995 10.334 10.334 0 0 0-4.191.985q-.94-3.452-1.674-6.956c1.26-.791 2.797-1.858 2.355-3.278-.835-1.724-3.115-1.56-3.7-3.636.248-2.064.853-4.77 3.308-5.26 1.82-1.722 1.586-5.189 1.024-7.571-1.645-2.148-3.869-3.893-2.968-6.932 0-.816-.833-1.813.007-2.558 1.989-.81 3.962 1.067 5.367 2.402 1.317.27 1.658-1.236 2.213-1.977a1.939 1.939 0 0 0-1.391-2.555 1.409 1.409 0 0 1-1.784-1.247c.332-1.39.794-2.71 2.381-3.097a5.404 5.404 0 0 1 4.77.98c1.64 1.488 1.468 3.875 3.127 5.12 2.132-1.974.508-6.018 2.992-7.907 3.543-1.56 6.986-4.196 11.286-3.523 1.16 2.236.382 6.364 4.087 6.53 1.015-.897 1.096-3.215 2.995-2.3 1.662.678 1.555 3.55 3.531 3.144 1.997-3.703-1.79-6.763-1.305-10.297 2.658-1.74 6.181-.24 8.07 1.825.845 1.726-2.472 2.707-.18 4.13 3.306-1.238 4.789 2.565 7.704 1.823 1.875-3.45 5.907-3.86 9.279-2.943 4.958-.066 7.833 7.36 13.014 4.417 2.826-1.898 8.315.741 9.174-3.777a4.021 4.021 0 0 1 2.744-4.34c2.786-.85 5.409 4.931 7.735.574 4.338 1.743 9.452 1.67 14.224 2.435 7.34 3.89 16.995 3.343 25.281 3.6 7.204 3.826 17.444-1.63 25.689-.32l3.856-7.838-32.303-69.578v64.692a2.055 2.055 0 0 1-2.053 2.054h-31.412a2.052 2.052 0 0 1-1.761-.997L99.94 90.607v33.339A2.055 2.055 0 0 1 97.89 126H69.886a2.054 2.054 0 0 1-2.054-2.053V49.351c-29.424 23.524-48.158 58.938-48.158 98.562 0 70.82 59.829 128.23 133.643 128.23 73.809 0 133.641-57.41 133.641-128.23 0-2.737-.118-5.445-.295-8.138Zm-211.45 68.801c0 1.544-.963 2.825-2.932 1.05l-4.65-4.181a3.293 3.293 0 0 1-1.254-2.718v-1.788a3.475 3.475 0 0 0-1.064-2.563l-2.477-2.227c-1.523-1.373-1.863.529-1.863.529v1.312a4.858 4.858 0 0 0 .87 2.64l9.725 12.653a17.528 17.528 0 0 1 3.645 10.133v7.59c0 6.61-2.774 9.396-5.984 6.533l-13.215-11.902a12.091 12.091 0 0 1-3.878-7.843v-6.887q0-3.372 1.315-2.107l5.772 5.275a5.033 5.033 0 0 1 1.75 2.994v1.522c0 1.222-.09 2.636.802 3.321l2.497 2.134c.92.828 2.105.95 2.105-.393v-1.672a4.151 4.151 0 0 0-.897-2.714l-11.55-15.085a7.428 7.428 0 0 1-1.793-4.963v-11.872c0-2.856 3.442-6.758 8.382-2.308l12.76 11.486a6.475 6.475 0 0 1 1.934 4.917v7.134ZM95.4 252.438a1.143 1.143 0 0 1-1.724.981l-14.11-8.368a1.146 1.146 0 0 1-.558-.985v-41.275a1.14 1.14 0 0 1 1.723-.98l6.552 3.886a1.136 1.136 0 0 1 .56.98v34.893l7 4.146a1.15 1.15 0 0 1 .557.986v5.736Zm99.011 1.834c0 1.133 0 6.452-8.837 8.028l-17.908 3.2a1.145 1.145 0 0 1-1.343-1.123v-41.21a1.14 1.14 0 0 1 .92-1.122l18.33-3.652c8.838-1.757 8.838 3.536 8.838 3.536Zm-14.979-59.825V184.03c0-3.505 8.411-6.348 18.787-6.348 10.375 0 18.787 2.843 18.787 6.347v10.42c0 3.506-8.412 6.344-18.787 6.344-10.376 0-18.787-2.838-18.787-6.344Zm38.129 18.47a.913.913 0 0 1-.513.82l-8.494 4.157a.901.901 0 0 0-.508.82v8.392a.909.909 0 0 0 1.31.818l6.887-3.37a.905.905 0 0 1 .884.043.915.915 0 0 1 .434.778v5.896a.906.906 0 0 1-.541.831l-8.437 3.801a.906.906 0 0 0-.537.833v7.853a.918.918 0 0 0 .416.765.896.896 0 0 0 .87.064l6.94-3.126a.921.921 0 0 1 1.289.838v5.861a.91.91 0 0 1-.541.832l-16.523 7.439a.91.91 0 0 1-1.287-.835v-41.506a.91.91 0 0 1 .51-.818l16.523-8.088a.917.917 0 0 1 1.318.82v6.082Zm26.966 17.988-5.135 3.485a.91.91 0 0 1-1.237-.202l-7.691-10.06-1.45 1.006v15.822a.922.922 0 0 1-.401.757l-7.012 4.757a.908.908 0 0 1-.942.053.92.92 0 0 1-.485-.807v-41.04a.91.91 0 0 1 .396-.754l13.777-9.507c4.211-2.902 7.897-2.366 7.897 3.398v10.879a14.3 14.3 0 0 1-5.17 10.876l7.66 10.03a.907.907 0 0 1-.159 1.273l-.048.035Zm18.939-51.919a4.653 4.653 0 0 1-.972 3.256l-5.15 5.324c-.592.614-.96.22-.96-.44v-3.234c0-1.595-.623-1.599-1.491-.715l-.824.848a5.269 5.269 0 0 0-1.203 3.71v2.25c0 1.406.398 2.424 1.87 2.682l4.105.715c1.944.34 4.625 1.633 4.625 4.778a18.105 18.105 0 0 1-3.456 11.766l-8.414 11.112c-3.49 4.593-6.912 3.303-6.912-3.32v-3.69a3.032 3.032 0 0 1 .973-2.498l5.612-5.776c.961-.971 1.597-.972 1.597.551v1.825c0 2.141 1.669.431 2.392-.287a3.169 3.169 0 0 0 1.125-2.87v-1.067c0-1.131-.879-1.567-2.45-1.918l-4.865-1.093c-3.79-.795-4.383-3.418-4.383-6.346v-4.177c0-3.14.514-5.861 2.795-8.427l8.903-9.82c3.248-3.593 7.083-4.127 7.083 1.465v5.396Z"/><path class="cls-3" d="m115.197 243.721-2.61-16.426-3.646 14.39Zm117.086-39.033-2.877 1.984a.91.91 0 0 0-.391.752v7.294a.912.912 0 0 0 .483.807.921.921 0 0 0 .943-.056l1.984-1.373a5.241 5.241 0 0 0 1.923-3.95v-4.252c0-1.224-.916-2-2.065-1.206Zm-50.552 22.88-6.567 1.31v27.72l6.972-1.245c3.438-.618 3.438-4.504 3.438-4.504v-20.472s0-3.575-3.843-2.808ZM124.967 30.845a2.057 2.057 0 0 1 2.057-2.057h49.32a2.052 2.052 0 0 1 1.862 1.192l28.418 61.215 23.674-48.074A138.398 138.398 0 0 0 103.26 29.008l21.707 41.927V30.844Zm93.826 89.911a41.096 41.096 0 0 0 15.584-9.028 30.854 30.854 0 0 1 13.669-1.54l.423.592c-.318 1.726-2.484 3.046-3.973 3.944-3.205.064-7.085-.494-9.568 1.96-3.465 3.616-7.831 6.069-11.072 9.604.254 1.148 1.565 2.063.824 3.362-2.473 1.746-6.427.427-7.741 3.956-1.095 6.768-9.573 1.525-12.891 5.903-1.619 2.124-6.422 4.705-10.053 5.666l-3.477 7.4c4.041 1.43 9.623 3.579 13.333 2.998 8.657-2.773 11.993-15.948 22.113-15.167a16.432 16.432 0 0 0 14.687-4.511c3.878-1.473 4.18 4.78 7.752 4.123.31-2.285.51-5.105 3.13-6.073 1.241-.487 3.234-.32 3.396 1.32-2.737 3.872 3.2 5.126 2.359 8.762.478 1.556 2.288 1.556 3.541 1.166 2.07-3.955 6.357-4.296 10.29-4.518 3.08-4.513 10.38-.3 12.072-6.644l2.85-.962c-4.028-33.493-21.48-63.05-47.09-83.59l-37.789 80.44c5.743-1.97 13.769-4.264 17.63-9.163Z"/><path class="cls-1" d="M157.615 190.741a5.466 5.466 0 0 1-4.167 3.008l-61.375 8.45a2.055 2.055 0 0 0-1.754 2.316l.004.027 3.742 24.552a2.062 2.062 0 0 0 2.508 1.694l6.09-1.454 3.628-14.167a.908.908 0 0 1 1.102-.657l11.93 2.918a.901.901 0 0 1 .682.74l1.069 6.778 7.654-1.825v-3.075a1.136 1.136 0 0 1 1.276-1.133l9.506 1.125a1.061 1.061 0 0 1 .66.358l18.258-4.352a5.477 5.477 0 0 0 3.69-2.998l11.326-24.113-11.939-6.09-3.89 7.898Zm5.355-10.869 11.879 6.062.947-2.014-11.845-6.042Zm17.537-5.976-11.667-5.953-.591 1.204-.393.795 11.707 5.967Zm-15.095 1.01 11.798 6.016.945-2.015-11.759-5.993Zm41.211-83.712L178.206 29.98a2.052 2.052 0 0 0-1.862-1.193h-49.32a2.057 2.057 0 0 0-2.057 2.057v40.092L103.26 29.009a134.829 134.829 0 0 0-35.428 20.343v74.594A2.054 2.054 0 0 0 69.885 126H97.89a2.054 2.054 0 0 0 2.052-2.054V90.608l20.624 34.396a2.052 2.052 0 0 0 1.76.996h31.413a2.055 2.055 0 0 0 2.052-2.054V59.255l32.304 69.577-3.856 7.838-13.936 28.302 11.616 5.927 1.547-3.298 7.053-15.028 3.477-7.399 7.167-15.256 37.79-80.44a133.494 133.494 0 0 0-8.654-6.358l-23.674 48.074Z"/><ellipse class="cls-1" cx="198.219" cy="184.028" rx="18.787" ry="6.346"/></svg>