<svg xmlns="http://www.w3.org/2000/svg" height="208.56" width="298.481"><path d="M202.74 0H0v9.54a55.365 55.365 0 0 0 15.66 38.82H0v9.6a55.328 55.328 0 0 0 15.66 38.76H0v9.54a55.365 55.365 0 0 0 15.66 38.82H0v9.6c0 29.7 22.68 53.88 50.64 53.88h47.04l31.92-53.94A94.65 94.65 0 1 0 202.74 0Z"/><path d="M202.74 3.18H3.06v6.24a51.69 51.69 0 0 0 21.12 42.12H3.06v6.36a51.859 51.859 0 0 0 21.12 42.12H3.06v6.24a51.69 51.69 0 0 0 21.12 42.12H3.06v6.36c0 27.9 21.3 50.64 47.52 50.64h45.18l33.36-56.34A91.546 91.546 0 1 0 202.74 3.18Z" fill="#fff"/><path d="M202.74 9.42H11.22c0 24.54 18.48 44.4 41.16 44.4h72.18a2.062 2.062 0 0 1 2.04 2.04 2.103 2.103 0 0 1-2.04 2.04H11.22c0 24.48 18.48 44.34 41.16 44.34h43.5a2.01 2.01 0 1 1 .06 4.02H11.22c0 24.54 18.48 44.34 41.16 44.34h14.88a2.07 2.07 0 0 1 0 4.14H11.22c0 24.48 18.48 44.34 41.16 44.34h39.78l74.34-125.7a42.105 42.105 0 1 1-5.82 22.26l-28.14 47.58a85.317 85.317 0 1 0 70.2-133.8Z"/><path d="M226.98 94.74a24.21 24.21 0 1 1-24.24-24.24 24.21 24.21 0 0 1 24.24 24.24Z" fill="#f74902"/></svg>