<svg xmlns="http://www.w3.org/2000/svg" height="253.659" width="230.673"><defs><style>.cls-4{fill:#b95b27}.cls-6{fill:#010101}</style></defs><path d="m224.218 240.088-.019-11.948-27.462-14.642-4.705-12.996-17.398-21.965 4.762-4.189 3.62 2.121 10.155-9.121 3.212 28.894 11.593-28.36 19.008 33.357-5.184-47.155-22.107-24.37-10.902 8.837-.796-.668-1.146-18.926-50.871-21.875-5.002-4.122 21.642 2.057-23.68-17.624 1.254-1.248-2.682-44.02-25.817 30.647-2.224-.012 1.043-23.647L78.34 0l3.3 36.204-2.979 5.156L49.915 25.2l21.516 28.15-9.814 16.506-5.57 47.17-24.722 16.638 16.482 27.578-40.932 29.422 17.797 25.4-19.99 11.956-.016 12.247L0 253.24l88.23.053 24.7-21.163 8.388.802 14.899-12.3-1.444-7.249 6.812-6.047 21.264 23.125.039 13.702 3.74 9.432 64.045.064Zm-134.06-14.322-20.567-.052-12.472-23.52 13.186-7.992 24.537 15.578-3.003 5.447 3.97 5.65Zm47.548-76.82-6.109-10.741 9.52 1.832Zm8.807-7.993 13.388 2.139-12.625 5.548Zm10.284 28.305-7.89-2.341 14.406-20.21 1.323 16.035Z" style="fill:#ede1c6"/><path d="m93.898 61.299.96-20.92-8.578-15.064 1.085 11.402 6.533 24.582zm-3.546 100.187 37.968.003.027-30.88.027-31.372-15.542-1.13 9.188 13-21.276-4.907-25.961 28.536-17.241-8.37.396-3.817-19.04 12.809 3.056 4.966 42.365 3.892Zm-.453-30.876a16.628 16.628 0 0 1 14.392-8.32c.492 0 .976.025 1.457.067.116-.003.229-.007.345-.007v.038A16.642 16.642 0 1 1 89.9 130.61Zm65.247 8.698 7.132 1.222 17.549-18.479-16.332-7.024-8.349 24.281zm-16.955-2.919 6.019-29.654-12.659-5.449-.009 33.928 6.649 1.175zm-66.555 53.819 21.151-12.225-5.557-15.91-32.336.036-11.059-18.568-.023-.002 27.824 46.669zm42.079-5.681 14.551-.031h.017l.007-2.757h-14.552l-.023 2.788zm0 5.515 14.549-.031h.019l.007-2.754h-.025l-14.527-.002-.023 2.787zm84.119-35.091.871 8.961 4.494.733 2.261-5.526.13-8.981 4.9 10.468 2.407 4.504 4.495-1.733-.849-7.112-9.132-9.507-9.577 8.193zM98.523 91.926a3.682 3.682 0 1 0-3.68-3.68 3.683 3.683 0 0 0 3.68 3.68ZM77.885 228.694l.006-.02-12.151.018-6.281 18.996 12.283.017 6.143-19.011z" style="fill:#791026"/><path d="m186.429 202.603-17.752-22.392-24.601 21.551 8.061 8.79 34.292-7.949zm-55.183-37.739-.023 25.888 22.959-19.195-22.936-6.693zm-77.415 35.705 15.032-9.211-15.991-26.876-38.347 27.578 7.605 10.757 31.701-2.248zm159.04-35.459 5.922 10.752-1.388-12.472-4.534 1.72zm-14.193-1.211.992 9.271 3.547-8.522-.018-.003-4.521-.746zM92.201 35.713 86.28 25.315l1.085 11.416 4.836-1.018zm-14.386 11.99-8.514-5.407 6.85 8.203 1.664-2.796z" style="fill:#035130"/><path class="cls-4" d="M218.588 240.634v-9.121l-26.445-14.062-4.335-12.056-33.538 7.625 14.064 15.226v12.406l50.254-.018zm-53.091-99.227 2.007 20.108 14.773 8.097 12.54-11.204-.762-7.831-11.389-9.877-1.182-15.976-15.987 16.683zM145.6 165.949l14.285-19.677-15.002 6.479-1.363-10.388-5.57 12.929-6.635-11.659.037 18.09 14.248 4.226zm-42.345 48.055 13.995-11.654-23.694-21.332-20.099 11.629 25.283 16.097-3.493 6.133 10.461 16.013 3.619-3.226-6.072-13.66z"/><path class="cls-4" d="m123.589 208.155-14.369 11.509 2.929 6.748 7.219.749 10.682-8.781-1.406-6.397-5.055-3.828zm-57.454 17.583-11.725-22.24-30.327 2.197 8.663 12.085-22.32 13.312.005 9.689 26.578-.021 5.097-15.079 24.029.057zM86.798 76.897l1.977 6.896-16.098 37.076 1.666 9.74 25.306-27.749.017-.017 15.36 3.496-8.286-11.725 19.086 1.46-12.712-10.47 19.976 1.93-12.701-9.496 4.035-4.11-1.627-27.37L104.314 68.5l-8.434-.295Zm11.732 4.548a6.775 6.775 0 1 1-6.773 6.776 6.778 6.778 0 0 1 6.773-6.776Z"/><path d="m155.027 130.61-2.683 8.228 2.886.502 2.974-8.73 5.308-15.62-2.984-1.284-5.501 16.904zm-16.836 5.779 2.887.514 6.107-28.922-2.967-1.285-6.027 29.693zm-51.873 23.074-33.02-.032 1.596 2.678 32.336-.036h.071l-.907-2.646h-.013l.013.036h-.076zm41.749 5.001-12.255-.002 6.088 8.318 6.167-8.316zm-33.061-56.488.008.022 4.671-5.152-.032-.004-6.437-.96 1.79 6.094zm-7.283-.984 1.639 7.225.004.014 5.593-6.169-.024-.003-7.212-1.067zm-7.035 6.38 1.477 8.657-9.488-1.16h-.004l.001.008.408 2.381 1.269 7.399 14.964-16.361-.015-.002-8.612-.922zm27.999 34.058c6.562 0 9.491-3.106 9.508-10.067a13.977 13.977 0 0 0-2.652-6.753 13.937 13.937 0 0 0-9.895-5.62c-4.49.121-7.485 2.075-8.746 5.62a12.987 12.987 0 0 0-.677 4.357 12.474 12.474 0 0 0 12.462 12.463Zm-5.109 17.045 6.065 8.368 6.169-8.381-12.096-.043-.138.056-.149-.069-12.155.055 6.132 8.354 6.172-8.34zm70.455 55.646-9.014-9.556-3.408.778 8.948 9.599 3.474-.821zm6.762-1.545-9.006-9.549-3.411.774 8.947 9.597 3.47-.822zm6.83-1.554-9.037-9.543-3.362.765 8.925 9.599 3.474-.821zM80.622 228.603l-2.754.018-6.145 19.119h2.689l6.21-19.137zm-21.164 19.09 3.155-9.523-9.556 3.438 6.401 6.085zm-3.326-15.595 6.481 6.072 3.127-9.478-9.608 3.406zm-15.184-16.447-7.607-10.654-3.461.251 7.517 10.736 3.551-.333zm7.02-.523L40.4 204.486l-3.491.252 7.505 10.724 3.554-.334zm7.12-.522-7.564-10.636-3.49.252 7.504 10.718 3.55-.334zm65.335-157.465-9.87 11.552 10.511.181-.641-11.733z" style="fill:#4a3291"/><path class="cls-6" d="m221.62 240.674-.015-10.976-26.971-14.38-4.899-13.539-18.666-23.565 8.023-7.053 3.603 2.11 12.494-11.228 2.648 23.79 9.756-23.868 15.443 27.101-3.726-33.865-19.893-21.929-10.667 8.644-3.283-2.77-1.112-18.438-49.744-21.39-11.825-9.748 20.83 1.983-18.65-13.884 2.559-2.538-2.213-36.375-22.419 26.617-6.137-.032 1.131-25.599-15.873-27.998 2.285 25.045-4.675 8.089L59.632 33.64l14.93 19.532-10.43 17.536-5.646 47.804-23.672 15.93 16.446 27.515-40.788 29.317 17.926 25.585-21.125 12.632-.016 11.23-3.565 9.926 83.578.052 24.811-21.255 8.415.804 12.877-10.63-1.437-7.187 9.835-8.727 23.665 25.742.042 14.215 2.91 7.34 58.178.059Zm-14.21-93.916 9.133 9.509 2.243 19.473-.06-.034-8.236-15.099-4.899-10.468-.13 8.98-5.79 14.052-1.836-18.219Zm-8.319-9.338 6.332 6.954-6.849 5.941-7.55-6.347Zm-17.606-12.696 1.18 15.976 11.391 9.875.762 7.832-12.54 11.204-14.773-8.097-2.007-20.108Zm-49.934-23.438 48.276 20.765-17.55 18.477-30.733-5.314Zm33.085 61.456-7.84 6.516-7.89-2.341 14.407-20.21Zm-4.735-19.65-12.625 5.548-.763-7.687Zm-18.784-3.055-3.41 8.91-6.11-10.742Zm-3.167 15.255 5.569-12.929 1.363 10.388 15.002-6.48-14.285 19.677-14.247-4.226-.038-18.089Zm-6.704 9.572 22.936 6.693-22.96 19.195ZM104.314 68.5l18.483-21.944 1.627 27.37-4.035 4.111 12.701 9.496-19.976-1.93 12.712 10.47-19.086-1.46 8.286 11.724-15.36-3.495-25.323 27.767-1.671-9.73v-.012l.004.002 16.098-37.076-1.977-6.896 9.081-8.691Zm-9.456-28.12-.96 20.919-6.533-24.583-1.085-11.402Zm-25.557 1.916 8.513 5.407L76.15 50.5Zm-2.259 29.402 18.376-30.845 7.051 26.47-9.504 8.678 2.285 7.603-15.83 36.086-8.64 4.76Zm-25.09 68.625-3.055-4.966 19.04-12.809-.397 3.817 17.242 8.37 25.961-28.537 21.275 4.907-9.188-13 15.542 1.131-.027 31.373-.026 30.878-37.968-.002-6.033-17.272Zm86.31 52.922-8.639 7.19-23.233-20.92-5.106-15.022-.015-.02h.008l-.003-.012 37 .003Zm-84.45-49.706v-.037l38.148 3.484 10.827 30.997-21.15 12.224Zm51.996 77.34-5.65 4.887-20.567-.052-12.472-23.52 13.186-7.992 24.537 15.578-3.003 5.447ZM22.13 202.817l-7.603-10.757 38.346-27.578 15.991 26.876-15.032 9.21Zm12.684 44.8-26.654-.024 1.39-3.857 26.418.023Zm-24.383-6.836-.004-9.688 22.32-13.312-8.662-12.085L54.41 203.5l11.726 22.239-24.03-.057-5.097 15.08Zm75.773 6.907h-48.25l6.312-18.99 46.981-.006 6.042-5.14 6.21 9.373Zm19.504-16.798-10.461-16.013 3.493-6.133-25.283-16.097 20.099-11.63 23.694 21.333-13.995 11.654 6.072 13.66Zm13.66-3.73-7.22-.748-2.929-6.748 14.37-11.509 5.054 3.828 1.405 6.397Zm11.109-17.501-6.933-5.35-15.643 12.564-.929-2.073 15.185-12.533 44.783-37.636 9.22 5.072Zm21.66.893-8.06-8.79 24.601-21.55 17.752 22.392Zm16.197 30.1v-12.406l-14.064-15.227 33.537-7.625 4.336 12.055 26.445 14.062v9.121Zm.214 3.027 51.441-.009 2.065 4.322h-51.69Z"/><path class="cls-6" d="M104.29 155.544a16.628 16.628 0 0 0 1.802-33.156v-.038c-.116 0-.23.004-.345.007a16.707 16.707 0 0 0-1.457-.068 16.628 16.628 0 0 0 0 33.255ZM96.9 130.61c1.26-3.544 4.256-5.499 8.745-5.62a14.014 14.014 0 0 1 12.25 10.674 13.821 13.821 0 0 1 .297 1.7c-.016 6.96-2.946 10.066-9.507 10.066a12.478 12.478 0 0 1-12.465-12.463 13.04 13.04 0 0 1 .68-4.357Zm-3.864 0a14.117 14.117 0 0 1 1.883-2.075 12.402 12.402 0 0 0-.77 2.075 16.324 16.324 0 0 0-.556 4.357 15.11 15.11 0 0 0 15.093 15.095 16.086 16.086 0 0 0 4.885-.686 13.984 13.984 0 0 1-20.535-18.766ZM80.832 80.58l-9.406-3.146-1.321 3.496 9.264 3.022 1.463-3.372zm1.951-29.635-9.638 16.258h5.471l4.167-16.258zm-14.544 63.821a1.343 1.343 0 1 0 1.34 1.342 1.34 1.34 0 0 0-1.34-1.342Zm.631-1.746a1.343 1.343 0 1 0-1.348-1.342 1.343 1.343 0 0 0 1.348 1.343Zm.633-4.431a1.343 1.343 0 1 0-1.345-1.344 1.342 1.342 0 0 0 1.345 1.344Zm-5.032 8.129a1.343 1.343 0 1 0 1.345 1.342 1.344 1.344 0 0 0-1.345-1.342Zm.636-4.43a1.342 1.342 0 1 0 1.341 1.343 1.345 1.345 0 0 0-1.34-1.343Zm.628-4.432a1.344 1.344 0 1 0 1.345 1.343 1.342 1.342 0 0 0-1.345-1.343ZM91.757 88.22a6.777 6.777 0 1 0 6.773-6.776 6.775 6.775 0 0 0-6.773 6.775Zm6.766-3.659a3.682 3.682 0 1 1-3.68 3.684 3.684 3.684 0 0 1 3.68-3.684Z"/></svg>