<svg xmlns="http://www.w3.org/2000/svg" height="124.334" width="130.631"><path d="M121.673 18.522h-8.405a7.752 7.752 0 0 0-1.765-2.792c-2.45-2.45-5.744-2.846-7.667-.923a3.965 3.965 0 0 0-.896 1.423 9.224 9.224 0 0 0-2.108-1.133c-1.185-2.477-2.845-5.98-6.613-5.98a7.695 7.695 0 0 0-3.478.869c-2.793-2.187-8.774-6.297-14.886-6.297-6.719 0-16.046 6.165-18.76 6.165C55.093 9.854 50.64 0 43.711 0c-3.715 0-7.483 2.53-11.989 5.243-4.268 2.582-5.4 5.665-6.64 8.958a21.081 21.081 0 0 1-3.609 4.321H0l36.597 63.656H11.54l-7.983 14.36h36.755a8.812 8.812 0 0 0 3.926-1.08l16.599 28.876 16.15-28.113h13.464v-7.878h-.922c0-2.74-2.081-5.717-3.109-7.034l-.184-1.133 3.082-5.375 17.996-6.64a8.454 8.454 0 0 0 4.9-5.744 5.565 5.565 0 0 0 3.794-2.107 17.563 17.563 0 0 0 4.137.658c2.714 0 5.586-1.528 6.323-4.452 0 0 2.872-1.766 4.163-7.22l-22.395-7.403Z" fill="#fff"/><path d="m104.231 46.082 2.82.948-.027 1.792c-1.502-.053-2.714-.342-2.714 4.058 0 3.267.632 4.32.632 5.243 0 1.554-.131 1.923-5.058 1.923a9.042 9.042 0 0 0-3.452-1.976s-.053-.237-.158-.685l20.815-36.202h-6.324c.474-.895.027-2.397-1.133-3.556-1.344-1.344-3.082-1.766-3.9-.949a1.65 1.65 0 0 0-.368 1.555l-2.582 2.713c.053-.395.184-2.555-3.873-3.715-1.212-2.424-2.24-5.454-4.69-5.454a6.552 6.552 0 0 0-3.715 1.502s-7.43-6.93-14.65-6.93c-6.296 0-14.938 6.166-18.759 6.166-4.057 0-7.667-9.854-13.358-9.854-3.083 0-6.719 2.477-10.618 4.874-3.9 2.345-4.637 5.27-5.586 7.641-.632 1.581-2.635 3.689-4.953 5.981H4.584l36.57 63.577a7.665 7.665 0 0 1-.816.105H13.095l-5.033 9.037h32.276a6.477 6.477 0 0 0 4.163-1.818l.527-.553 15.809 27.507 14.622-25.425H87.79v-2.583h-2.95l-.528-1.633h.448l2.134-1.001c0-2.45-2.977-5.928-2.977-5.928l-.474-2.767L87.5 72.64l18.891-6.982c3.347-1.212 3.715-6.113 3.715-6.113s3.083 1.45 4.77-2.292a24.466 24.466 0 0 0 5.269 1.08c1.607 0 3.873-.869 3.873-3.267a8.396 8.396 0 0 0 3.267-4.03l-22.237-7.378Z"/><path d="M48.848 72.06c-1.159-2.819-.658-3.45-.658-3.45s-3.742-3.084-2.635-6.904c0 0-9.643-13.99-9.643-22.29 0-4.295 2.055-3.873 2.055-7.404 0-2.872-1.95-5.032-3.373-5.032-1.633 0-6.692 3.346-14.07 7.72l2.794-6.429-6.745 6.903s-1.318-6.745 2.318-10.38c.58-.58 1.186-1.187 1.792-1.766H7.799l35.148 61.126a5.395 5.395 0 0 0 1.633-1.106l5.56-5.586a15.182 15.182 0 0 1-1.292-5.401Zm57.28-49.032-.5.58a5.363 5.363 0 0 1 1.211 4.926c0 1.897-1 1.871-1 1.871 0 4.4-2.32 3.61-2.32 3.61 0 5.796-6.376 3.451-6.376 3.451a8.255 8.255 0 0 1-2.608-.764l-4.32 4.822a79.787 79.787 0 0 1 5.374 13.305l18.285-31.801Zm-31.17 67.66.765-1.317h-1.238Zm16.205-61.442-.66-1.476c-3.398.58-6.454-1.159-7.324-1.607s.08-2.345.08-2.345a2.712 2.712 0 0 0-.765-.79h-3.557a1.43 1.43 0 0 0-.29 2.081 66.627 66.627 0 0 1 9.222 12.2l3.952-4.137Zm-9.406 49.639 2.819-4.901-3.136 1.528Zm-5.744-9.117c0-.395-5.797-1.923-8.063-2.792-2.081.816.606 1.212.606 3.925a10.996 10.996 0 0 1-.764 3.478l-1.159.316s-2.319 4.269-3.794 3.636c-2.108 3.715-2.977 4.558-6.323 4.558a5.303 5.303 0 0 1-2.872-.816l-7.325 7.983 14.518 25.215 12.462-21.684H64.34a7.777 7.777 0 0 1 1.449-4.216c0-3.689 2.292-4.453 3.978-4.61 3.557-.317 5.033-.027 5.033-1.766 0-1.238-.106-2.714-.106-2.714h1.318c0-4.795-1.344-5.98-1.344-8.431 0-.949 1.344-1.344 1.344-2.082Z" fill="#fcb514"/><path fill="#fcb514" d="M69.584 91.005h1.212l.527-1.634h-2.661l.922 1.634z"/><path d="m110.844 48.269-.896 1.343 6.377 2.135-.027-1.66Zm9.512 3.161-.975 1.318 2.477.817-.343-1.74ZM77.883 89.371l-.948 1.633h3.873l.474-1.633Zm43.711-33.646c.105.448-.448.975-1.238 1.16-.817.184-1.528-.027-1.634-.475-.105-.421.448-.948 1.238-1.133s1.529 0 1.634.448ZM69.637 85.972c.263.369-.027 1.054-.66 1.555-.658.5-1.395.632-1.685.263-.29-.342 0-1.054.658-1.554.633-.501 1.397-.633 1.687-.264Z" fill="#fff"/><path d="m96.617 15.571-1.186-2.529c-.105-.237-.922-.21-.922.29-.027.342.843 2.24 2.108 2.24Zm-.053 2.688-3.742-5.085a1.11 1.11 0 0 0-1.132.817l4.057 4.32c.527.554.817-.052.817-.052Zm-1.186 1.897-4.453-5.085c-.58-.659-1.607.606-1.607.606l5.006 4.927c.475.448 1.291-.211 1.054-.448Zm-1.58 1.423c0-1.107-4.77-4.77-5.507-4.77-.764 0-1.107.923-1.107.923l6.086 4.32c.185.133.527-.342.527-.473Zm-1.634 2.529c.342.184.896-.896.553-1.133a43.525 43.525 0 0 0-6.534-3.794 1.847 1.847 0 0 0-.395 1.475Zm-1.028 1.95c.237.105.896-.606.448-.922a50.397 50.397 0 0 0-6.112-3.083c-.738.738-.317 1.186-.317 1.186Zm-1.396.711a34.609 34.609 0 0 0-5.428-2.292l-.158.5s1.318 2.003 5.586 1.792Zm14.122-2.872 2.424 4.269a8.228 8.228 0 0 0-1.897-4.638s-.527-.079-.527.37Zm2.082 5.718c0-1.687-2.688-4.638-2.688-4.638l-.632 1.291 2.582 3.9s.738.369.738-.553Zm-4.717-.896s1.186 3.451 2.477 3.451a4.504 4.504 0 0 0-1.686-4.163.825.825 0 0 0-.79.712Zm-1.87 1.607s.737 4.664 2.819 4.664c.21-.712-.632-4.664-2.82-4.664Zm.764 7.088c.711-3.004-2.372-6.113-2.372-6.113-2.16-.158-2.213.606-2.213.606s1.528 5.507 4.585 5.507Zm-7.536-4.954a2.517 2.517 0 0 1 1.529-.369c-.606-1.897-1.687-1.449-1.687-1.449-.421.633.158 1.818.158 1.818Zm11.145-9.986a4.233 4.233 0 0 0 3.557-2.503c0-.421-.421-.711-1.212-.711-.764 0-2.845 2.213-2.845 2.846 0 .131.105.368.5.368Zm-7.324 6.614a.896.896 0 0 0 .948.658c1.581 0 4.796-3.398 4.796-6.191 0-.554-.844-.58-.844-.58-2.924 1.897-4.9 6.113-4.9 6.113Zm4.32-7.14c1.898-.949-.078-3.4-1.422-2.635a13.535 13.535 0 0 0-6.139 9.142 1.748 1.748 0 0 0 1.818.58s2.977-5.744 5.744-7.087Zm-39.863 39.31a6.07 6.07 0 0 0 .474 4.031c.343-.184.58-.079.58-2.292s-1.054-1.739-1.054-1.739Zm-3.03-1.554a19.44 19.44 0 0 0 .263 4.716s1.107.448 1.476-.106c-.08-.606-.08-1.95-.08-2.766 0-2.029-1.66-1.844-1.66-1.844Zm-2.108-.712c-.606 1.318-.184 3.24-.184 4.585 0 1.396.922 1.343 1.37 1.106-.527-1.054.896-4.69-1.186-5.69Zm-1.58 3.478c0-4.769-1.634-3.952-1.634-2.24 0 1.924 1.08 2.793 1.633 2.24Zm-2.109 1.555c0-.396-.58-.37-.58-3.347 0-2.37-2.66-1.475-2.66-.21 0 1.238 2.16 2.792 2.16 3.715 0 0 1.08.421 1.08-.158Zm-4.874-2.609c-2.029 2.82 1.291 5.744 1.291 5.744a2.66 2.66 0 0 0 1.897-.58s-1.027-3.846-3.188-5.164Zm12.62 11.145c.317 7.193-.843 7.061-.843 8.168 0 1.792 3.057-.5 3.057-5.032 0-5.349-2.213-3.136-2.213-3.136Zm-6.823-2.635c1.712 7.009 3.82 11.12 4.69 11.356 0 0 .605-1.027.605-7.087 0 0-1.501-6.376-5.295-4.269Zm-2.714 2.635c.58 6.534 4.505 9.327 4.505 9.327l.764-.421a69.153 69.153 0 0 1-4.136-10.671Zm16.23-2.371-.158 1.528 1.027.158.29-.87c-.29-.157-.553-.974-1.16-.816Zm-1.976-.659c-1.16 0-.738 2.556-.738 3.399a2.216 2.216 0 0 1-.316 1.265c.237.448.21 1.633.975 1.633.448 0 1.08-.658 1.08-2.318 0-2.503.053-3.979-1.001-3.979Zm-2.424-1.344c-.685 0-1.054.817-1.054 2.187 0 .448.553.79.896.79.21 0 .737-.5.737-2.054 0-.475-.184-.922-.58-.922Zm-1.66-.395c0-1.133-1.001-1.343-2.081-1.343a1.523 1.523 0 0 0-1.66 1.212 2.888 2.888 0 0 0 1.739 2.476 2.836 2.836 0 0 0 2.002-2.345Zm-5.19.08s.447-1.66-.844-1.66c-2.634 0-5.164 2.186-5.164 3.32a2.828 2.828 0 0 0 .237 1.08s3.452-3.294 5.77-2.74Zm37.782-34.384L62.734 65.316c-1.107 1.133 1.791 3.161 2.819 1.976l28.982-32.329a1.069 1.069 0 1 0-1.528-1.475Zm-59.388-19.55c0-1.16 1.634-2.345 1.845-2.898a2.15 2.15 0 0 0-2.582-.712c-.211 3.267-1.054 4.822-1.423 6.824 1.212 1.028.817-1.528 2.582-1.528a1.687 1.687 0 0 1 1.45 1.555 2.084 2.084 0 0 1-.554 1.501l1.238-.105a2.308 2.308 0 0 0 .527-1.58c.027-2.372-3.109-2.425-3.109-3.057ZM18.866 26.295c-1.291 1.475-1.476 5.744-1.476 5.744l10.724-9.196-4.295 7.878s7.246-3.293 7.904-4.927a23.877 23.877 0 0 0-4.795-6.93s-6.718 5.955-8.062 7.43Zm50.956 38.02c6.323 2.713 12.199 4.162 15.255 4.162 2.846 0 6.719-.79 6.719-6.93 0-4.03-2.187-9.721-5.691-15.439Zm-5.243-2.504L83.39 42.024c-6.877-9.537-16.915-18.153-25.979-18.153-8.062 0-13.516 5.954-13.516 12.252 0 11.329 10.17 20.13 20.683 25.688Zm43.289-12.857 1.212.395 1.423-2.108 6.64 2.213.078 2.582 1.318.422 1.475-2.055 2.24.738.553 2.74.922.316a8.16 8.16 0 0 0 2.424-2.661l-20.577-6.798-.264.79 2.609.87-.027 2.556ZM82.178 89.37l-.711 2.503h-6.982l-.923-2.503h-1.317l-.817 2.503h-2.345l-1.422-2.503h-.765a7.622 7.622 0 0 0-1.633 3.346H86.92v-.843h-2.74l-.79-2.503Zm-72.192 3.4h4.373l3.794-6.798h-4.4Zm35.41-8.906a8.228 8.228 0 0 1-5.058 2.108h-.158l-3.083 6.798h3.215a5.275 5.275 0 0 0 3.346-1.476l8.984-9.775-2.055-2.898Z" fill="#fff"/></svg>