<svg xmlns="http://www.w3.org/2000/svg" height="179.014" width="223.96"><path d="M223.96 0H38.893c12.241 19.108 16.352 25.432 5.917 25.115L29.407 0H0l66.854 109.27c-.904-.045-1.807-.09-2.71-.09-27.42 0-48.876 15.313-48.876 34.917s21.456 34.917 48.875 34.917 48.876-15.313 48.876-34.917a27.127 27.127 0 0 0-4.065-14.23l-14.997-24.482s12.06 2.44 21.095-1.762l-4.337-5.601s18.385 1.717 35.324-3.343l-5.736-6.098a61.792 61.792 0 0 0 43.635-23.58h-1.762s13.326-6.414 18.927-20.643h-1.761s8.537-6.324 11.428-19.378h-2.484S221.837 15.403 223.96 0Z" fill="#002654"/><path d="M219.398 3.207H44.9c14.275 21.682 10.074 25.16-1.897 25.16L27.6 3.208H5.737l67.17 109.767a69.63 69.63 0 0 0-8.764-.587c-25.612 0-45.668 13.912-45.668 31.71 0 17.752 20.056 31.71 45.668 31.71s45.669-13.958 45.669-31.71a23.678 23.678 0 0 0-3.66-12.558l-19.016-31.033s13.235 4.337 22.495 1.446l-5.827-7.544s21.863 1.807 36.453-1.129l-6.956-7.408s32.569-.316 44.674-20.418h-5.556s15.359-2.123 23.083-18.7h-5.646s13.19-6.099 16.758-19.921h-6.143s13.732-9.08 18.927-23.625Z" fill="#fff"/><path d="M215.739 5.51H48.92c9.892 15.043 11.744 26.11-7.228 25.071L26.335 5.511H9.757l67.712 110.58a63.032 63.032 0 0 0-13.326-1.446c-23.94 0-43.41 13.235-43.41 29.452s19.47 29.452 43.41 29.452 43.41-13.236 43.41-29.452a21.694 21.694 0 0 0-3.297-11.338l-22.09-36.047s13.914 4.879 23.535 3.84a88.688 88.688 0 0 1-6.324-8.764 193.672 193.672 0 0 0 36.499.136l-7.77-8.221h2.033c33.517 0 43.59-17.165 43.59-17.165h-9.124s22.63-5.737 27.464-18.701h-8.402s17.933-8.809 19.695-18.747h-10.254c.045 0 17.888-10.073 22.63-23.58Z" fill="#fcb514"/><path d="M211.854 7.905H53.212c13.145 21.456-.045 26.335-12.919 24.98L24.98 7.905H14.048l68.616 112.07a58.742 58.742 0 0 0-18.52-2.936c-22.631 0-40.971 12.106-40.971 27.058s18.34 27.058 40.97 27.058c22.677 0 41.016-12.106 41.016-27.058a18.85 18.85 0 0 0-2.981-10.073L76.746 92.466s16.443 5.692 24.031 5.692a48.01 48.01 0 0 1-5.556-9.125s19.695 2.123 35.46.858l-8.583-9.034a51.67 51.67 0 0 0 8.04.452c27.736 0 38.351-12.332 38.351-12.332H86.052l-1.22-1.988h68.435s27.87-5.33 34.601-16.758H74.578l-1.174-1.943h104.255s19.424-9.35 22.18-16.758H63.104l-1.175-1.943h125.667c0-.045 18.294-9.576 24.257-21.682Z" fill="#002f87"/></svg>