<svg xmlns="http://www.w3.org/2000/svg" height="204.348" width="218.966"><path d="M218.966 92.436c0-22.215-13.823-44.12-38.29-57.59l-9.407 7.463c16.738 10.556 26.586 26.278 26.586 44.164 0 41.691-51.54 79.496-108.864 79.496a116.404 116.404 0 0 1-17.268-1.28l-19.344 14.353a125.316 125.316 0 0 0 40.1 6.315c68.102 0 126.487-45.975 126.487-92.921Z" fill="#002868"/><path d="M9.319 108.114c0-43.148 53.968-79.496 108.909-79.496h1.148L66.246 88.02l30.518-4.814-60.152 58.209 24.423-4.417-17.047 19.477c-20.713-9.805-34.67-26.72-34.67-48.36Zm123.041-.177-35.022 6.846 77.685-63.862-36.17 4.858L209.161 0l-81.837 21.552c-1.06 0-2.164-.044-3.268-.044C56.972 21.508 0 67.085 0 115.224c0 23.584 12.675 42.354 32.417 54.499L2.164 204.348Z" fill="#002868"/></svg>