<svg xmlns="http://www.w3.org/2000/svg" height="249.795" width="223.857"><path d="M173.478 134.759c-.75-.375-1.5-.825-2.325-1.2a1.447 1.447 0 0 0-.75-.225 1.749 1.749 0 0 0-1.575.975l-5.55 10.648a1.697 1.697 0 0 0-.074 1.35 1.655 1.655 0 0 0 .825 1.05c.75.375 1.575.825 2.324 1.2a1.71 1.71 0 0 0 .825.225 1.749 1.749 0 0 0 1.575-.975l5.475-10.649a1.748 1.748 0 0 0-.75-2.4ZM94.662 163.78h3.75l-1.875-8.399Zm16.798 18.148-2.175 8.399h4.35Zm-.375-46.794h2.7a1.812 1.812 0 0 0 1.725-1.8v-11.999a1.744 1.744 0 0 0-1.725-1.724h-2.7a1.744 1.744 0 0 0-1.725 1.724v11.999a1.761 1.761 0 0 0 1.725 1.8Zm-20.622-5.025c1.2-.225 2.4-.45 3.674-.6a1.778 1.778 0 0 0 1.125-.675 1.672 1.672 0 0 0 .3-1.35l-.825-4.949a1.782 1.782 0 0 0-2.025-1.425c-1.2.15-2.4.375-3.6.6h-.3l1.35 8.474Zm26.471 24.822h-3.6v6.75h3.6a1.185 1.185 0 0 0 1.2-1.2v-4.275a1.25 1.25 0 0 0-1.2-1.275Z" fill="#00205b"/><path d="M115.51 249.12a1.58 1.58 0 0 1-.975-.375 37.461 37.461 0 0 1-6.9-10.274 34.677 34.677 0 0 1-2.174-6.3 35.485 35.485 0 0 1-1.125-7.048 145.15 145.15 0 0 1-18.448 7.199 170.576 170.576 0 0 1-20.922 5.25h-.225a1.172 1.172 0 0 1-.9-.45 1.5 1.5 0 0 1-.15-.976 49.13 49.13 0 0 1 5.474-12.148 200.664 200.664 0 0 1-21.072 3.15h-.15a.982.982 0 0 1-.9-.45 1.053 1.053 0 0 1-.15-1.05 83.87 83.87 0 0 1 3.974-9.374 187.975 187.975 0 0 1-24.447 4.424h-.15a1.17 1.17 0 0 1-.975-.6 1.187 1.187 0 0 1 .075-1.124 124.745 124.745 0 0 1 22.498-24.822 76.613 76.613 0 0 1-17.398-10.124 1.1 1.1 0 0 1-.45-.975.954.954 0 0 1 .525-.9 123.477 123.477 0 0 1 22.647-9.899 67.933 67.933 0 0 1-17.173-5.55.745.745 0 0 1-.525-.749.986.986 0 0 1 .225-.9 36.837 36.837 0 0 1 6.45-6.374 74.594 74.594 0 0 1-10.05-5.174 68.696 68.696 0 0 1-9.223-6.9 1.07 1.07 0 0 1-.15-1.5 50.805 50.805 0 0 1 7.349-6.974 126.151 126.151 0 0 1-10.874-7.949 134.744 134.744 0 0 1-10.424-9.224 1.365 1.365 0 0 1-.3-.825 1.333 1.333 0 0 1 .3-.75 32.7 32.7 0 0 1 5.475-4.274 53.018 53.018 0 0 1-6.974-7.199 81.09 81.09 0 0 1-6.45-9.299 1.254 1.254 0 0 1-.075-.9 1.193 1.193 0 0 1 .675-.675 45.815 45.815 0 0 1 9.3-2.55 70.07 70.07 0 0 1-5.325-17.472.986.986 0 0 1 .225-.9 1.036 1.036 0 0 1 .825-.45.45.45 0 0 1 .3.075A109.982 109.982 0 0 1 24.62 82.49a41.997 41.997 0 0 1 3.75-10.949 1.17 1.17 0 0 1 .974-.6 1.21 1.21 0 0 1 .675.225 107.379 107.379 0 0 1 8.399 6.825 90.46 90.46 0 0 1 7.124 7.049 18.558 18.558 0 0 1 4.724-4.95 1.047 1.047 0 0 1 .675-.225 1.204 1.204 0 0 1 .825.375c6.75 8.4 17.023 19.873 28.272 28.047A165.457 165.457 0 0 0 69.39 83.69a1.121 1.121 0 0 1-.075-.975 1.192 1.192 0 0 1 .75-.6 42.58 42.58 0 0 1 5.7-.675 99.124 99.124 0 0 1-11.4-25.122 1.137 1.137 0 0 1 .226-.975.94.94 0 0 1 .825-.45h.075a52.812 52.812 0 0 1 13.498 2.475 56.235 56.235 0 0 1-.525-10.874 83.63 83.63 0 0 1 1.35-11.698 1.051 1.051 0 0 1 1.05-.9.562.562 0 0 1 .375.075 65.32 65.32 0 0 1 9.299 4.5 73.81 73.81 0 0 1 .225-9.9 68.68 68.68 0 0 1 1.574-10.048 1.104 1.104 0 0 1 1.05-.825.562.562 0 0 1 .375.075 39.926 39.926 0 0 1 7.124 3.45c2.4-7.05 6.3-13.724 10.05-19.948a1.168 1.168 0 0 1 1.949 0c2.475 3.974 4.2 7.124 5.774 10.049a89.075 89.075 0 0 1 4.35 9.898 35.013 35.013 0 0 1 7.049-3.45.815.815 0 0 1 .375-.074.99.99 0 0 1 1.05.825 68.545 68.545 0 0 1 1.65 10.049 62.848 62.848 0 0 1 .15 9.898 58.128 58.128 0 0 1 9.298-4.5.815.815 0 0 1 .375-.074 1.194 1.194 0 0 1 1.125.9 83.628 83.628 0 0 1 1.35 11.698 56.236 56.236 0 0 1-.525 10.874 52.228 52.228 0 0 1 13.498-2.475 1.069 1.069 0 0 1 .9.45.798.798 0 0 1 .15.9 96.785 96.785 0 0 1-11.398 25.122 31.049 31.049 0 0 1 5.699.75 1.03 1.03 0 0 1 .75.6 1.112 1.112 0 0 1 0 .975c-3.9 7.649-7.95 15.898-10.724 24.522 12.299-8.999 21.598-19.648 28.272-27.972a1.242 1.242 0 0 1 .9-.375.852.852 0 0 1 .6.225 17.461 17.461 0 0 1 4.724 4.95 79.839 79.839 0 0 1 7.124-7.124c2.625-2.325 5.475-4.575 8.4-6.75a1.21 1.21 0 0 1 .674-.225 1.282 1.282 0 0 1 .975.525 36.853 36.853 0 0 1 3.75 11.024 109.39 109.39 0 0 1 17.847-6.824h.3a1.074 1.074 0 0 1 .825.375 1.441 1.441 0 0 1 .3.9 72.058 72.058 0 0 1-5.4 17.473 44.543 44.543 0 0 1 9.3 2.55 1.156 1.156 0 0 1 .6 1.65 72.296 72.296 0 0 1-6.375 9.298 53.476 53.476 0 0 1-7.049 7.2 29.922 29.922 0 0 1 5.475 4.274.963.963 0 0 1 .3.75 1.128 1.128 0 0 1-.3.824 132.012 132.012 0 0 1-10.35 9.224c-3.524 2.85-7.198 5.475-10.948 7.95a44.059 44.059 0 0 1 7.35 6.973 1.07 1.07 0 0 1-.15 1.5 67.99 67.99 0 0 1-9.15 6.9 71.274 71.274 0 0 1-10.123 5.174 37.124 37.124 0 0 1 6.524 6.374.986.986 0 0 1 .225.9.91.91 0 0 1-.6.75 63.543 63.543 0 0 1-17.098 5.55 125.071 125.071 0 0 1 22.572 9.898 1.112 1.112 0 0 1 .6.9 1.21 1.21 0 0 1-.45.975c-6.449 4.724-11.848 7.949-17.473 10.199a120.063 120.063 0 0 1 22.498 24.747 1.017 1.017 0 0 1 .075 1.2 1.005 1.005 0 0 1-.975.6.232.232 0 0 1-.15-.076 186.53 186.53 0 0 1-24.372-4.424c1.35 2.85 2.7 6.074 3.974 9.374a1.276 1.276 0 0 1-.15 1.05 1.172 1.172 0 0 1-.9.45h-.15a182.508 182.508 0 0 1-21.072-3.15 53.454 53.454 0 0 1 5.4 12.148 1.053 1.053 0 0 1-.15 1.05 1.307 1.307 0 0 1-.9.45.275.275 0 0 1-.226-.075 205.98 205.98 0 0 1-22.647-5.924c-7.274-2.325-14.023-4.8-18.598-6.824-.075-.075-.075-.075-.15-.075a.506.506 0 0 0-.45.3c-.45 2.324.375 5.324 2.475 8.774a36.957 36.957 0 0 0 4.574 6.074v.075a1.368 1.368 0 0 1-.075 1.8l-7.649 6.974a1.204 1.204 0 0 1-.824.375Z" fill="#00205b"/><path d="M111.91 0a1.512 1.512 0 0 0-.825.225 2.127 2.127 0 0 0-.75.675c-2.475 4.05-4.2 7.124-5.774 10.124a78.07 78.07 0 0 0-4.05 9.149 54.434 54.434 0 0 0-6.449-3.15 2.076 2.076 0 0 0-.675-.075 1.792 1.792 0 0 0-1.05.375 1.62 1.62 0 0 0-.675 1.05 69.593 69.593 0 0 0-1.65 10.124 68.441 68.441 0 0 0-.224 8.699 57.545 57.545 0 0 0-8.25-3.9 1.412 1.412 0 0 0-.6-.15 1.782 1.782 0 0 0-1.799 1.5h-.075a85.94 85.94 0 0 0-1.35 11.773 59.756 59.756 0 0 0 .375 9.9 56.152 56.152 0 0 0-12.598-2.176h-.075a1.877 1.877 0 0 0-1.725 2.4 114.631 114.631 0 0 0 4.874 13.124 90.628 90.628 0 0 0 5.925 11.098 29.99 29.99 0 0 0-4.575.675 1.58 1.58 0 0 0-1.2.975 1.489 1.489 0 0 0 0 1.575 176.962 176.962 0 0 1 9.899 22.347C68.115 98.313 58.666 87.664 52.367 79.79a2.131 2.131 0 0 0-1.425-.675 1.626 1.626 0 0 0-1.05.375h-.075a19.284 19.284 0 0 0-2.924 2.625 11.587 11.587 0 0 0-1.425 1.8c-2.025-2.25-4.274-4.425-6.524-6.524-2.7-2.325-5.55-4.65-8.55-6.75a1.403 1.403 0 0 0-1.05-.375 2.06 2.06 0 0 0-1.649.9 30.558 30.558 0 0 0-2.4 5.85 35.488 35.488 0 0 0-1.2 4.424 220.399 220.399 0 0 0-7.799-3.374c-3.45-1.275-6.599-2.325-9.373-3.075h-.45a2.049 2.049 0 0 0-1.425.6 2.004 2.004 0 0 0-.375 1.575 79.237 79.237 0 0 0 2.325 9.449 43.286 43.286 0 0 0 2.7 7.274 61.07 61.07 0 0 0-8.475 2.4A2.34 2.34 0 0 0 .1 97.412a1.918 1.918 0 0 0 .15 1.575 76.036 76.036 0 0 0 6.449 9.374 54.137 54.137 0 0 0 6.374 6.674 29.27 29.27 0 0 0-4.724 3.825 1.717 1.717 0 0 0-.6 1.274 1.878 1.878 0 0 0 .6 1.35 135.74 135.74 0 0 0 10.423 9.3c3.225 2.624 6.6 5.099 10.05 7.423-1.05.825-2.026 1.725-2.926 2.55a57.798 57.798 0 0 0-3.674 3.825 2.247 2.247 0 0 0-.45 1.35 2.132 2.132 0 0 0 .675 1.274 52.544 52.544 0 0 0 4.5 3.6 54.252 54.252 0 0 0 4.799 3.3 57.659 57.659 0 0 0 5.174 2.924c1.275.6 2.55 1.275 3.825 1.8a45.89 45.89 0 0 0-5.625 5.774 2.065 2.065 0 0 0-.375 1.5 1.878 1.878 0 0 0 .975 1.275 54.455 54.455 0 0 0 9.074 3.6c1.725.524 3.6.974 5.624 1.424-2.85.975-5.624 2.1-8.399 3.3a106.77 106.77 0 0 0-11.773 5.774h-.075a1.8 1.8 0 0 0-.9 1.5 1.638 1.638 0 0 0 .75 1.575 88.088 88.088 0 0 0 8.624 5.849 58.94 58.94 0 0 0 7.799 3.975 125.904 125.904 0 0 0-21.672 24.147 2.02 2.02 0 0 0-.15 1.95 1.954 1.954 0 0 0 1.65.974h.3c4.949-.675 9.298-1.275 13.273-2.024a114 114 0 0 0 9.674-2.025 118.33 118.33 0 0 0-3.3 8.024 1.642 1.642 0 0 0 .225 1.65 1.729 1.729 0 0 0 1.5.825h.225c4.424-.525 8.324-.975 11.773-1.5 2.85-.45 5.4-.9 7.724-1.35-.75 1.35-1.424 2.7-2.1 4.124-.9 2.1-1.724 4.275-2.549 6.75a1.826 1.826 0 0 0 .3 1.65 1.958 1.958 0 0 0 1.5.75h.3c3.674-.75 7.274-1.5 10.724-2.4 3.524-.825 6.974-1.8 10.273-2.85s6.6-2.25 9.674-3.45c2.7-1.05 5.325-2.25 7.874-3.374a51.271 51.271 0 0 0 1.05 6.074 43.585 43.585 0 0 0 2.25 6.45 40.579 40.579 0 0 0 7.049 10.423 2.094 2.094 0 0 0 1.5.6 1.925 1.925 0 0 0 1.35-.525l7.574-6.974a2.534 2.534 0 0 0 .675-1.425 1.98 1.98 0 0 0-.525-1.425c-6.45-7.349-7.2-11.698-6.9-13.798a189.317 189.317 0 0 0 18.298 6.674q5.85 1.912 11.474 3.375c4.05 1.05 7.874 1.95 11.249 2.624h.375a1.958 1.958 0 0 0 1.5-.75 2.083 2.083 0 0 0 .3-1.65 85.561 85.561 0 0 0-2.55-6.749 70.808 70.808 0 0 0-2.1-4.124c2.25.525 4.8.9 7.649 1.35 3.525.525 7.35.975 11.849 1.5h.225a1.958 1.958 0 0 0 1.5-.75 2.034 2.034 0 0 0 .224-1.725c-1.05-2.85-2.174-5.55-3.374-8.024 3 .75 6.15 1.425 9.749 2.025 3.974.75 8.324 1.35 13.273 2.024h.225a1.78 1.78 0 0 0 1.65-.975 1.706 1.706 0 0 0-.15-1.874 124.213 124.213 0 0 0-21.673-24.222 59.684 59.684 0 0 0 7.874-3.975 96.076 96.076 0 0 0 8.624-5.774 1.93 1.93 0 0 0 .75-1.65 1.88 1.88 0 0 0-.975-1.5 122.035 122.035 0 0 0-11.773-5.774c-2.775-1.2-5.55-2.325-8.4-3.3 1.95-.45 3.825-.9 5.625-1.425a57.184 57.184 0 0 0 9.074-3.6 1.925 1.925 0 0 0 .975-1.274 1.813 1.813 0 0 0-.45-1.5 45.888 45.888 0 0 0-5.624-5.774c1.35-.525 2.624-1.2 3.9-1.8 1.724-.9 3.524-1.875 5.174-2.925a54.252 54.252 0 0 0 4.799-3.3 52.544 52.544 0 0 0 4.5-3.599 1.717 1.717 0 0 0 .6-1.275 1.787 1.787 0 0 0-.376-1.35 57.8 57.8 0 0 0-3.674-3.824 35.449 35.449 0 0 0-3-2.55 125.375 125.375 0 0 0 10.124-7.424 135.743 135.743 0 0 0 10.424-9.299 1.427 1.427 0 0 0 .524-1.275 1.807 1.807 0 0 0-.524-1.35 33.564 33.564 0 0 0-4.8-3.824 49.095 49.095 0 0 0 6.374-6.674 68.897 68.897 0 0 0 6.525-9.374 1.757 1.757 0 0 0 .075-1.5 1.588 1.588 0 0 0-1.05-1.125 45.583 45.583 0 0 0-8.474-2.4 74.011 74.011 0 0 0 2.7-7.274 84.506 84.506 0 0 0 2.324-9.523 2.057 2.057 0 0 0-.45-1.575 1.805 1.805 0 0 0-1.425-.6h-.45c-2.774.75-5.924 1.8-9.299 3.075a223.135 223.135 0 0 0-7.799 3.374c-.375-1.425-.75-2.924-1.2-4.424a32.665 32.665 0 0 0-2.474-5.85 1.927 1.927 0 0 0-1.575-.9 1.842 1.842 0 0 0-1.125.375 96.216 96.216 0 0 0-8.474 6.825 75.705 75.705 0 0 0-6.524 6.449 11.934 11.934 0 0 0-1.5-1.8 15.797 15.797 0 0 0-2.85-2.625 2.231 2.231 0 0 0-1.124-.375 2.131 2.131 0 0 0-1.425.675 176.08 176.08 0 0 1-12.824 14.549q-3.824 3.824-7.649 7.199c-1.95 1.65-3.824 3.224-5.774 4.724a165.855 165.855 0 0 1 9.899-22.272 1.92 1.92 0 0 0 0-1.575 1.577 1.577 0 0 0-1.275-.975 28.597 28.597 0 0 0-4.575-.675 77.207 77.207 0 0 0 5.925-11.098 88.76 88.76 0 0 0 4.874-13.124 1.81 1.81 0 0 0-.225-1.65 1.958 1.958 0 0 0-1.5-.75h-.075a53.685 53.685 0 0 0-12.598 2.25 52.875 52.875 0 0 0 .45-9.899 96.682 96.682 0 0 0-1.425-11.773 1.782 1.782 0 0 0-1.8-1.5 1.461 1.461 0 0 0-.6.075 58.45 58.45 0 0 0-8.249 3.974 85.858 85.858 0 0 0-.225-8.699 70.646 70.646 0 0 0-1.65-10.198 1.784 1.784 0 0 0-1.8-1.35 1.276 1.276 0 0 0-.524.075 40.78 40.78 0 0 0-6.524 3.075 83.216 83.216 0 0 0-4.05-9.074c-1.575-3-3.3-6.075-5.774-10.124a1.936 1.936 0 0 0-.675-.675 1.816 1.816 0 0 0-.975-.3Zm0 1.5c.15 0 .3 0 .375.15 4.05 6.674 7.799 13.348 10.124 20.247a.412.412 0 0 0 .375.225.276.276 0 0 0 .225-.075 38.87 38.87 0 0 1 7.349-3.6h.075a.412.412 0 0 1 .375.226 73.187 73.187 0 0 1 1.725 20.472.354.354 0 0 0 .375.375h.225a56.308 56.308 0 0 1 9.748-4.874h.075c.15 0 .375.075.375.3 1.425 7.574 1.95 15.673.75 22.947-.075.225.075.375.3.375h.15a50.868 50.868 0 0 1 13.874-2.625h.075a.33.33 0 0 1 .3.45 95.698 95.698 0 0 1-11.624 25.422.415.415 0 0 0 .225.6 36.764 36.764 0 0 1 6.224.675.415.415 0 0 1 .225.6c-4.05 7.949-8.249 16.648-11.099 25.797a.375.375 0 0 0 .375.45c.075 0 .075-.075.15-.075 12.299-8.85 21.823-19.423 29.397-28.797a.3.3 0 0 1 .3-.15.275.275 0 0 1 .225.075 16.25 16.25 0 0 1 4.724 5.175.573.573 0 0 0 .375.15c.075 0 .15-.075.3-.15a98.56 98.56 0 0 1 15.748-14.099.755.755 0 0 1 .225-.075c.15 0 .225.075.3.225 2.025 3.525 3 7.574 3.825 11.174a.275.275 0 0 0 .3.3h.15a111.637 111.637 0 0 1 18.148-6.974h.075a.375.375 0 0 1 .375.45 66.67 66.67 0 0 1-5.55 17.773.427.427 0 0 0 .3.525 44.04 44.04 0 0 1 9.674 2.55.332.332 0 0 1 .15.524 61.798 61.798 0 0 1-13.573 16.648.351.351 0 0 0 0 .6 30.98 30.98 0 0 1 5.774 4.425.454.454 0 0 1 0 .6 141.386 141.386 0 0 1-21.522 17.323.397.397 0 0 0-.075.6 53.032 53.032 0 0 1 7.574 7.124c.15.15.15.45 0 .524a68.754 68.754 0 0 1-19.648 12.149c-.3.075-.3.45-.075.675a43.874 43.874 0 0 1 6.824 6.6.393.393 0 0 1-.15.6c-5.324 2.774-11.848 4.574-18.597 5.773a.315.315 0 0 0-.075.6 119.556 119.556 0 0 1 24.147 10.35.33.33 0 0 1 .075.599 75.463 75.463 0 0 1-17.848 10.349.33.33 0 0 0-.075.6 122.061 122.061 0 0 1 22.797 25.047.392.392 0 0 1-.3.6h-.075a189.181 189.181 0 0 1-25.122-4.575.073.073 0 0 0-.075-.075c-.3 0-.45.3-.375.6 1.575 3.15 3 6.45 4.35 9.974a.409.409 0 0 1-.375.525h-.075a206.881 206.881 0 0 1-21.823-3.3h-.075a.361.361 0 0 0-.3.6 47.587 47.587 0 0 1 5.774 12.674.345.345 0 0 1-.375.45h-.075a216.31 216.31 0 0 1-41.095-12.749 1.112 1.112 0 0 0-.525-.075 1.051 1.051 0 0 0-1.05.9c-1.274 5.924 5.625 13.798 7.125 15.523a.501.501 0 0 1 0 .75l-7.574 7.05a1.267 1.267 0 0 1-.375.15.648.648 0 0 1-.45-.226 36.573 36.573 0 0 1-10.05-23.472.484.484 0 0 0-.449-.45.275.275 0 0 0-.225.075 161.666 161.666 0 0 1-39.52 12.524h-.075a.409.409 0 0 1-.375-.525 52.768 52.768 0 0 1 5.85-12.674.392.392 0 0 0-.3-.6c-.076 0-.076 0-.15.075a203.883 203.883 0 0 1-21.823 3.3c-.3 0-.525-.3-.375-.525a94.07 94.07 0 0 1 4.274-10.05.36.36 0 0 0-.3-.524h-.15a188.58 188.58 0 0 1-25.122 4.65.47.47 0 0 1-.375-.675 124.043 124.043 0 0 1 22.872-24.972c.225-.15.15-.525-.15-.675a74.724 74.724 0 0 1-17.772-10.274.388.388 0 0 1 0-.675 128.695 128.695 0 0 1 24.147-10.349c.3-.075.3-.525 0-.525-6.75-1.275-13.274-3-18.673-5.774a.416.416 0 0 1-.15-.6 41.703 41.703 0 0 1 6.9-6.674.353.353 0 0 0-.076-.6 67.96 67.96 0 0 1-19.497-12.149.321.321 0 0 1-.075-.525 49.123 49.123 0 0 1 7.574-7.124.422.422 0 0 0 0-.675 137.558 137.558 0 0 1-21.598-17.323.362.362 0 0 1 0-.525 33.653 33.653 0 0 1 5.775-4.424.397.397 0 0 0 .075-.6A60.628 60.628 0 0 1 1.523 98.238a.345.345 0 0 1 .225-.525 43.445 43.445 0 0 1 9.6-2.55.448.448 0 0 0 .3-.6 68.009 68.009 0 0 1-5.55-17.697.375.375 0 0 1 .375-.45h.075a100.667 100.667 0 0 1 18.148 6.974h.15c.225 0 .3-.075.375-.3a42.659 42.659 0 0 1 3.749-11.174.412.412 0 0 1 .375-.225c.075 0 .15.075.225.075a98.561 98.561 0 0 1 15.748 14.099.569.569 0 0 0 .3.15c.15 0 .225-.075.3-.225a17.192 17.192 0 0 1 4.8-5.1.275.275 0 0 1 .224-.075c.075 0 .15 0 .225.15 8.1 10.049 18.598 21.223 29.472 28.797.075.075.075.075.15.075a.33.33 0 0 0 .3-.45c-2.775-9.15-6.974-17.848-11.099-25.797a.51.51 0 0 1 .3-.6 36.706 36.706 0 0 1 6.15-.675.406.406 0 0 0 .3-.6 95.698 95.698 0 0 1-11.624-25.422.33.33 0 0 1 .3-.45h.075a50.867 50.867 0 0 1 13.873 2.625h.15a.302.302 0 0 0 .3-.375c-1.275-7.274-.675-15.448.75-22.947 0-.225.15-.3.375-.3h.075a61.6 61.6 0 0 1 9.749 4.8.276.276 0 0 0 .225.074.354.354 0 0 0 .375-.375 73.189 73.189 0 0 1 1.724-20.472.498.498 0 0 1 .375-.3.073.073 0 0 1 .075.075 38.87 38.87 0 0 1 7.35 3.6c.075 0 .15.074.225.074a.275.275 0 0 0 .3-.3c2.399-6.824 6.149-13.498 10.198-20.172.075-.15.15-.15.3-.15Z" fill="#fff"/><path d="M181.802 114.511c.6 0 1.2.075 1.8.075a30.407 30.407 0 0 0 12.523-2.924l.075.075a28.98 28.98 0 0 1-15.748 4.274.535.535 0 0 0-.45.225c-1.725 1.8-3.225 3.375-4.575 4.874-.075.075-.075.075-.15.075h-.075l-1.5-.75a.262.262 0 0 1-.074-.15.232.232 0 0 1 .075-.15 246.814 246.814 0 0 1 11.848-11.323.534.534 0 0 0 .225-.45 27.868 27.868 0 0 1 1.425-12.149h.15a33.563 33.563 0 0 0-.375 11.249h.075c5.624-5.25 10.799-10.349 15.823-15.448l.15.075c-4.274 5.024-8.999 10.124-13.948 15.073-2.4 2.325-4.875 4.724-7.274 7.274h-.075Zm-3.3 23.547-6.674 12.824a4.07 4.07 0 0 1-3.825 2.325 3.891 3.891 0 0 1-2.024-.525c-1.725-.9-3.375-1.725-5.1-2.55a4.527 4.527 0 0 1-1.95-5.924l6.675-12.824a4.57 4.57 0 0 1 5.999-1.95c1.65.825 3.374 1.725 5.024 2.625a4.452 4.452 0 0 1 1.875 6Zm-37.27 75.966a46.546 46.546 0 0 1-6.75-.525h-.075c2.1 2.025 6.15 4.05 8.474 4.95l1.125.45-1.125-.15c-2.774-.45-8.399-3.15-11.473-5.85-.075-.075-.075-.075-.15-.075-5.025-1.125-9.374-2.7-13.724-2.7-5.624 0-9.673 1.275-11.698 6.9a8.122 8.122 0 0 1 .3-3.375.073.073 0 0 0-.075-.075c-1.05-.75-5.25-3.3-9.374-3.3-6.224 0-14.173 6.975-20.323 7.65 2.925-.975 6.3-3.225 9.674-5.25v-.075c-5.7-1.125-12.823.075-20.397 2.025 7.274-2.85 14.623-4.35 22.347-3.15.075 0 .075 0 .15-.075 2.85-1.65 5.774-2.924 8.399-2.924a20.186 20.186 0 0 1 10.349 3.374c.075.075.075.075.075 0 1.95-2.85 5.999-3.974 10.273-3.974 6.675 0 17.023 4.95 25.272 4.95 9 0 11.624-.826 14.249-1.426-2.475 1.05-6.525 2.625-15.524 2.625ZM66.54 123.735l5.4-1.8a4.246 4.246 0 0 1 1.35-.225 4.53 4.53 0 0 1 4.274 3.075l4.65 13.723a4.229 4.229 0 0 1-.225 3.3 4.316 4.316 0 0 1-2.55 2.175l-5.4 1.8a3.357 3.357 0 0 1-1.5.3 4.353 4.353 0 0 1-4.049-2.925l-4.65-13.724a4.582 4.582 0 0 1 2.7-5.699Zm-7.049 28.647-8.849-17.248-.3.15c-1.5.825-3 1.65-4.499 2.4l-1.8-3.375c4.35-2.4 8.774-4.725 13.274-6.9l1.724 3.45c-1.5.75-3 1.5-4.574 2.25l-.225.15 8.924 17.248c-1.2.6-2.475 1.2-3.675 1.875Zm-19.047-38.846c-.075-.075-.15-.15-.225-.15h-.6a30.26 30.26 0 0 1-16.423-4.65v-.074a31.791 31.791 0 0 0 13.873 3.45c.6 0 1.275-.076 1.875-.076a59.379 59.379 0 0 0-3.075-3.074 223.318 223.318 0 0 1-16.423-17.473l.075-.075c5.4 5.7 10.124 10.349 14.398 14.248h.075a21.939 21.939 0 0 0-.9-10.349l.076-.075a20.706 20.706 0 0 1 2.024 11.324.412.412 0 0 0 .225.375c3.825 3.45 7.5 6.824 10.799 10.199a22.752 22.752 0 0 0-3.9-12.974l.075-.075a22.446 22.446 0 0 1 5.475 14.399c0 .15 0 .3.15.375.525.6 1.05 1.124 1.575 1.65v.15c0 .074 0 .074-.075.15l-1.35.674h-.075c-.075 0-.15 0-.15-.075a213.21 213.21 0 0 0-7.5-7.874Zm39.295 57.893v-9.374l-3.6 8.1-3.524-8.1v9.374H68.64v-20.247h3.15l4.35 10.124 4.424-10.124h3.15v20.247Zm.75 22.723v3.824H68.64V177.73h3.975v16.423Zm13.048-77.091a1.462 1.462 0 0 1 .6-.075 4.51 4.51 0 0 1 4.425 3.824l1.2 7.35a4.33 4.33 0 0 1-2.55 4.649l-.375.15.225.3c1.425 2.1 2.924 4.124 4.35 6.224-1.276.15-2.625.3-3.975.525-1.425-2.1-2.925-4.124-4.35-6.224l-.15-.15-.15.075c-.6.075-1.125.15-1.725.225l-.3.075 1.125 6.899c-1.35.225-2.7.45-3.974.75l-3.75-23.022a188.04 188.04 0 0 1 9.374-1.575Zm24.597 48.444h-4.8v5.924h-3.974v-20.247h8.774a3.953 3.953 0 0 1 3.975 3.974v6.3a4.017 4.017 0 0 1-3.975 4.049Zm-12.973-30.821V120.21a4.6 4.6 0 0 1 4.424-4.499h5.7a4.6 4.6 0 0 1 4.424 4.5v14.473a4.37 4.37 0 0 1-4.424 4.35c-3.15-.076-5.25 0-5.775 0a4.305 4.305 0 0 1-4.35-4.35Zm3.6 43.045h5.474l5.4 20.247h-4.125l-.9-3.824h-6.3l-.974 3.824h-4.125Zm-14.999-10.124-.825 3.824h-4.05l4.95-20.247h5.4l4.949 20.247h-4.05l-.824-3.824Zm2.175 18.298v3.824h-6.224v4.425h8.699v3.824H85.738V177.73h12.674v3.824h-8.7v4.35Zm-6.75-109.787a67.563 67.563 0 0 0 21.298 20.397h.075v-.075c-.075-6.299 0-12.673.15-18.897a.851.851 0 0 0-.225-.6 40.316 40.316 0 0 1-11.623-13.724h.075a46.272 46.272 0 0 0 11.698 12.374c.075 0 .15 0 .15-.075.075-2.325.15-4.2.225-6 .375-5.249.6-10.723.825-16.197a.68.68 0 0 0-.225-.525 83.349 83.349 0 0 1-9.374-13.799l.15-.075a82.412 82.412 0 0 0 9.374 12.074h.075a.073.073 0 0 0 .075-.075c.225-8.55.3-17.023.3-25.347h.075c.75 7.799 1.05 24.522.825 38.845v.075a.104.104 0 0 0 .15 0 54.202 54.202 0 0 0 11.549-7.949l.075.075a49.121 49.121 0 0 1-11.624 9.299.402.402 0 0 0-.225.3c0 1.275 0 2.4-.075 3.525-.375 8.099-.375 17.622 0 29.246 0 .075.075.075.15.075 9.449-6.75 16.573-14.023 21.072-21.597h.15c-3.674 7.649-11.398 16.348-21.222 23.697-.075.075-.075.15-.075.3.075 1.8.15 3.6.225 5.474a.073.073 0 0 1-.075.075c0 .075-.075.075-.15.075h-2.025c-.075 0-.225-.075-.225-.15-.075-2.625-.15-5.25-.225-8.099 0-.15 0-.225-.075-.225a65.906 65.906 0 0 1-21.447-22.422Zm38.921 95.313v-20.247h3.975v16.423h7.349v3.824Zm6.6 14.474v3.824h-6.225v8.25h-3.975v-20.248h12.674v3.824h-8.699v4.35Zm1.05-54.594 2.249-13.123c1.35.225 2.7.45 3.974.75l-3.9 22.947c-1.049-.225-2.099-.45-3.149-.6-1.5-4.425-3-8.924-4.5-13.273l-.374-1.125-2.25 13.123c-1.35-.15-2.7-.375-4.05-.525l3.9-22.947c1.05.15 2.175.3 3.225.45 1.5 4.35 3 8.849 4.5 13.198Zm6.673 60.743h4.05v.825a1.25 1.25 0 0 0 1.2 1.275h3.3a1.314 1.314 0 0 0 1.274-1.275v-1.2a1.349 1.349 0 0 0-.675-1.125c-.075 0-7.199-3.225-7.199-3.225a3.718 3.718 0 0 1-1.95-3.524v-2.1a3.97 3.97 0 0 1 4.05-3.974h5.7a4.017 4.017 0 0 1 4.049 3.974v1.875h-3.975v-.825a1.314 1.314 0 0 0-1.275-1.275h-3.3a1.25 1.25 0 0 0-1.2 1.275v.45a1.176 1.176 0 0 0 .676 1.05c.075.075 7.124 3.224 7.124 3.224a3.832 3.832 0 0 1 1.95 3.6v2.85a4.033 4.033 0 0 1-4.05 4.05h-5.7a4.08 4.08 0 0 1-4.049-4.05Zm2.1-40.87h11.699v3.75h-7.724v4.424h5.249v3.824h-5.25v4.425h7.725v3.824h-11.7Zm7.274-25.497c-1.65-.525-3.3-1.05-4.874-1.575l1.2-3.675c4.8 1.425 9.523 3.075 14.173 4.725l-1.275 3.674c-1.575-.6-3.15-1.124-4.8-1.724l-.3-.075-6.149 18.372c-1.274-.45-2.624-.824-3.9-1.274l6.225-18.373Z" fill="#00205b"/><path d="M73.665 141.733a1.651 1.651 0 0 0 .6-.075l2.474-.9a1.94 1.94 0 0 0 1.05-.825 2.09 2.09 0 0 0 .075-1.35l-3.9-11.398a1.687 1.687 0 0 0-1.65-1.2c-.15 0-.374.075-.524.075-.9.3-1.725.6-2.55.9a1.7 1.7 0 0 0-1.05 2.174l3.825 11.399a1.687 1.687 0 0 0 1.65 1.2Z" fill="#00205b"/><path d="m174.227 137.158-5.474 10.65a1.749 1.749 0 0 1-1.575.974 1.956 1.956 0 0 1-.825-.225c-.75-.375-1.574-.825-2.324-1.2a1.655 1.655 0 0 1-.825-1.05 1.697 1.697 0 0 1 .075-1.35l5.55-10.648a1.749 1.749 0 0 1 1.574-.975 1.447 1.447 0 0 1 .75.225c.825.375 1.575.825 2.325 1.2a1.748 1.748 0 0 1 .75 2.4Zm2.4-5.099c-1.65-.9-3.374-1.8-5.024-2.625a4.619 4.619 0 0 0-1.95-.45 4.467 4.467 0 0 0-4.05 2.4l-6.674 12.824a4.229 4.229 0 0 0-.225 3.3 4.08 4.08 0 0 0 2.175 2.549c1.725.9 3.375 1.725 5.1 2.625a3.891 3.891 0 0 0 2.024.524 4.196 4.196 0 0 0 3.825-2.324l6.674-12.824a4.452 4.452 0 0 0-1.875-5.999Zm-78.215 49.494v-3.824H85.738v20.247h12.674v-3.824h-8.7v-4.425h6.225v-3.824h-6.224v-4.35Zm51.368-36.146 6.15-18.372.3.075c1.575.6 3.224 1.124 4.8 1.724l1.274-3.674c-4.65-1.65-9.449-3.3-14.173-4.725l-1.2 3.675c1.575.525 3.224 1.05 4.874 1.575l.225.075-6.15 18.373c1.276.45 2.626.824 3.9 1.274Zm-10.348 22.198h-7.35v-16.423h-3.974v20.247h11.324Zm16.798 0h-7.724v-4.425h5.249v-3.824h-5.25v-4.425h7.725v-3.75h-11.7v20.248h11.699Zm-9.75 30.371h5.7a4.033 4.033 0 0 0 4.05-4.05v-2.85a3.832 3.832 0 0 0-1.95-3.599s-7.05-3.15-7.124-3.15a1.394 1.394 0 0 1-.675-1.124v-.45a1.185 1.185 0 0 1 1.2-1.2h3.3a1.25 1.25 0 0 1 1.274 1.2v.825h3.975v-1.875a4.017 4.017 0 0 0-4.05-3.974h-5.7a4.017 4.017 0 0 0-4.049 3.974v2.1a3.832 3.832 0 0 0 1.95 3.6s7.124 3.149 7.2 3.149a1.607 1.607 0 0 1 .674 1.125v1.275a1.25 1.25 0 0 1-1.275 1.2h-3.3a1.185 1.185 0 0 1-1.2-1.2v-.9h-4.049v1.875a4.08 4.08 0 0 0 4.05 4.05Zm-18.822-81.515-3.9 22.947c1.35.225 2.7.45 4.05.6l2.25-13.198.375 1.2c1.5 4.349 3 8.848 4.5 13.198 1.05.225 2.1.45 3.224.675l3.824-22.947c-1.274-.3-2.624-.525-3.974-.825l-2.25 13.198-.375-1.125-4.5-13.273c-1.05-.15-2.099-.3-3.224-.45Zm9.524 65.092v-3.824h-12.674v20.247h3.975v-8.249h6.224v-3.824h-6.224v-4.35Zm-42.52-17.773 1.875-8.399 1.875 8.4Zm5.474 7.65h4.05l-4.95-20.248h-5.399l-5.024 20.247h4.124l.825-3.824h5.475Zm-11.098-49.72c1.275-.225 2.474-.45 3.674-.6a1.782 1.782 0 0 1 2.025 1.425l.825 4.95a2.016 2.016 0 0 1-.3 1.35 1.768 1.768 0 0 1-1.2.674c-1.2.15-2.4.375-3.6.6l-.374.075-1.35-8.474Zm2.85 19.198-1.125-6.9.3-.074c.524-.075 1.124-.15 1.65-.225l.224-.075.075.15c1.5 2.1 2.925 4.124 4.425 6.224 1.35-.225 2.624-.375 3.974-.6-1.5-2.025-2.924-4.124-4.35-6.15l-.224-.3.3-.15a4.292 4.292 0 0 0 2.625-4.649l-1.2-7.349a4.569 4.569 0 0 0-4.425-3.824 2.076 2.076 0 0 0-.675.075c-3.074.45-6.224.975-9.374 1.575l3.75 22.947 4.05-.675Zm-8.175 10.274h-3.15l-4.424 10.124-4.35-10.124H68.64v20.247h3.975v-9.374l3.524 8.1 3.6-8.1v9.374h3.974ZM68.64 177.729v20.247h11.85v-3.824h-7.874v-16.423Zm49.494-17.248a1.185 1.185 0 0 1-1.2 1.2h-3.6v-6.75h3.6a1.25 1.25 0 0 1 1.2 1.275v4.275Zm3.975.974v-6.299a3.953 3.953 0 0 0-3.975-3.974h-8.774v20.247h3.975v-5.924h4.8a4.017 4.017 0 0 0 3.974-4.05Zm-10.649 20.473 2.175 8.399h-4.35Zm-3.15 12.224h6.3l.9 3.824h4.124l-5.474-20.247h-5.4l-5.549 20.247h4.125Zm1.05-72.817a1.697 1.697 0 0 1 1.725-1.724h2.625a1.812 1.812 0 0 1 1.8 1.724v11.999a1.825 1.825 0 0 1-1.8 1.8h-2.625a1.761 1.761 0 0 1-1.725-1.8Zm5.925 17.698a4.37 4.37 0 0 0 4.424-4.35V120.21a4.6 4.6 0 0 0-4.424-4.499h-5.7a4.6 4.6 0 0 0-4.424 4.5v14.473a4.353 4.353 0 0 0 4.35 4.35c.45 0 2.624-.076 5.774 0ZM69.24 126.96l2.475-.9c.225 0 .375-.075.6-.075a1.687 1.687 0 0 1 1.65 1.2l3.9 11.398a1.719 1.719 0 0 1-.15 1.35 1.553 1.553 0 0 1-.976.825l-2.474.9c-.225 0-.375.075-.6.075a1.783 1.783 0 0 1-1.65-1.2l-3.825-11.399a1.7 1.7 0 0 1 1.05-2.174Zm3.3 19.122a3.357 3.357 0 0 0 1.5-.3l5.399-1.8a4.316 4.316 0 0 0 2.55-2.174 4.229 4.229 0 0 0 .225-3.3l-4.575-13.723a4.701 4.701 0 0 0-4.35-3.075 4.246 4.246 0 0 0-1.35.225l-5.398 1.8a4.517 4.517 0 0 0-2.7 5.7l4.65 13.723a4.353 4.353 0 0 0 4.049 2.924ZM54.467 133.11c1.575-.75 3.075-1.5 4.65-2.25l-1.8-3.45c-4.5 2.175-8.924 4.5-13.274 6.9l1.8 3.374c1.5-.75 3-1.574 4.5-2.4l.3-.15 8.923 17.249c1.2-.675 2.4-1.275 3.6-1.875l-8.924-17.248Zm62.767 74.69c-4.274 0-8.324 1.2-10.273 4.05 0 0 0 .075-.075 0a20.186 20.186 0 0 0-10.35-3.374c-2.624 0-5.548 1.275-8.398 2.924h-.15c-7.724-1.124-15.073.375-22.347 3.225 7.574-1.95 14.698-3.15 20.397-2.025v.075c-3.374 2.025-6.75 4.275-9.674 5.25 6.15-.675 14.099-7.65 20.323-7.65 4.124 0 8.324 2.55 9.374 3.3a.073.073 0 0 1 .075.075 8.122 8.122 0 0 0-.3 3.375c2.024-5.625 6.074-6.9 11.698-6.9 4.35 0 8.7 1.575 13.724 2.7.075 0 .075 0 .15.075 3.074 2.625 8.699 5.325 11.473 5.775l1.125.225-1.125-.45c-2.25-.9-6.374-2.925-8.474-4.95a.073.073 0 0 1 .075-.075 37.652 37.652 0 0 0 6.75.6c8.923 0 13.048-1.575 15.523-2.624-2.7.525-5.25 1.35-14.249 1.35-8.249.074-18.597-4.95-25.272-4.95Zm71.842-100.637c4.95-4.95 9.599-10.049 13.948-15.073l-.15-.075c-5.024 5.1-10.274 10.199-15.823 15.448h-.075a33.563 33.563 0 0 1 .375-11.249h-.15a29.016 29.016 0 0 0-1.5 12.149.334.334 0 0 1-.15.45c-4.274 3.824-8.249 7.649-11.848 11.398a.073.073 0 0 0-.075.075.262.262 0 0 0 .075.15l1.424.75h.15c.075 0 .075 0 .15-.075 1.35-1.425 2.85-3 4.575-4.8a.534.534 0 0 1 .45-.224 30.33 30.33 0 0 0 15.748-4.275l-.075-.15a30.735 30.735 0 0 1-12.599 2.925 13.865 13.865 0 0 1-1.724-.075h-.075v-.075c2.474-2.475 4.949-4.95 7.349-7.274ZM48.093 121.485h.075l1.35-.675.15-.15c0-.075 0-.075-.075-.15l-1.575-1.574a1.066 1.066 0 0 1-.15-.45 22.373 22.373 0 0 0-5.4-14.399l-.15.075a22.435 22.435 0 0 1 3.975 12.974h-.075c-3.3-3.375-6.974-6.75-10.799-10.199a.412.412 0 0 1-.225-.375 20.706 20.706 0 0 0-2.025-11.324l-.075.075a21.939 21.939 0 0 1 .9 10.35h-.075c-4.274-3.9-8.999-8.55-14.398-14.25l-.075.076a237.346 237.346 0 0 0 16.423 17.548c.975.9 1.95 1.875 3.075 3-.6 0-1.275.074-1.875.074a31.791 31.791 0 0 1-13.873-3.45v.15a30.915 30.915 0 0 0 16.423 4.65h.6a.276.276 0 0 1 .225.075 213.318 213.318 0 0 1 7.499 7.874.262.262 0 0 0 .15.075Zm62.392-22.872c.075 0 .075.075.075.15.075 2.925.15 5.55.225 8.174 0 .075.075.15.225.15h2.025c.075 0 .075 0 .15-.075.075 0 .075-.075.075-.15-.075-1.8-.15-3.674-.225-5.474a.276.276 0 0 1 .075-.225c9.824-7.424 17.548-16.048 21.222-23.697l-.15-.075c-4.5 7.574-11.623 14.848-21.072 21.597-.075.075-.15 0-.15-.075-.375-11.549-.375-21.147 0-29.171 0-1.125.075-2.25.075-3.525 0-.15.075-.225.225-.3a49.121 49.121 0 0 0 11.624-9.299l-.075-.075a57.736 57.736 0 0 1-11.55 8.024c-.074 0-.15 0-.15-.075v-.075c.226-14.323-.074-30.971-.824-38.845h-.075c.075 8.324-.075 16.873-.3 25.347a.073.073 0 0 1-.075.075h-.075a77.96 77.96 0 0 1-9.374-11.999h-.15a77.555 77.555 0 0 0 9.374 13.799.68.68 0 0 1 .225.525c-.225 5.549-.45 10.948-.825 16.198-.075 1.8-.15 3.75-.225 5.999 0 .075-.075.15-.15.075a47.475 47.475 0 0 1-11.698-12.374l-.075.075a41.033 41.033 0 0 0 11.623 13.724.584.584 0 0 1 .225.525c-.15 6.299-.225 12.598-.15 18.897v.075h-.075a67.563 67.563 0 0 1-21.297-20.397l-.15.075a66.584 66.584 0 0 0 21.447 22.422Z" fill="#fff"/></svg>