<svg xmlns="http://www.w3.org/2000/svg" width="400" height="385.674"><g fill-rule="evenodd"><path d="M192.083.776a457.236 457.236 0 0 0-10.745 1.377l-4.712.683-.251 11.117c-.622 27.605-4.261 58.2-7.949 66.845-1.039 2.437-9.592 6.732-28.339 14.234l-8.264 3.306-8.701-5.876c-4.786-3.233-13.876-9.353-20.2-13.602-6.324-4.249-12.828-8.646-14.453-9.77-1.624-1.125-3.049-1.95-3.165-1.833-.117.116.856 3.905 2.161 8.419 1.306 4.514 4.014 13.904 6.019 20.866l3.646 12.66-4.511 2.572c-20.965 11.955-43.347 31.406-58.151 50.536-3.888 5.025-6.343 8.37-8.705 11.865-4.547 6.73-6.494 9.857-10.211 16.4C8.737 202.571 0 223.586 0 227.979c0 5.235 6.059 25.699 11.176 37.75 27.066 63.734 81.604 104.188 156.59 116.148 71.165 11.352 148.182-2.89 202.451-37.434 3.357-2.137 10.822-7.306 12.729-8.812l.853-.675-1.833-4.141a629.26 629.26 0 0 0-2.875-6.404 723.678 723.678 0 0 1-3.293-7.352 1513.316 1513.316 0 0 0-2.764-6.22c-.282-.622-2.067-4.609-3.968-8.86-1.901-4.25-3.88-8.661-4.399-9.802-.519-1.14-1.958-4.364-3.196-7.163a1460.262 1460.262 0 0 0-3.275-7.351c-.563-1.245-2.627-5.862-4.586-10.261-1.96-4.4-3.733-8.003-3.94-8.008-.207-.005-1.819.685-3.581 1.534-22.675 10.92-57.158 20.367-85.769 23.496-52.457 5.738-89.781-4.35-112.199-30.324-3.31-3.834-8.253-11.178-8.253-12.261 0-.161 5.047-.178 11.216-.037 11.42.261 29.509-.181 36.663-.897 9.769-.977 5.756.749 53.057-22.83 23.479-11.704 42.923-21.28 43.209-21.28 1.057 0 13.197 3.837 20.092 6.35 22.908 8.35 41.157 18.496 52.269 29.062l2.946 2.801.889-.916c.489-.504 5.087-5.666 10.217-11.472 5.13-5.806 11.719-13.255 14.644-16.553 9.839-11.098 10.462-11.916 12.375-16.246 6.876-15.564.853-29.205-19.074-43.197-1.513-1.063-2.127-1.878-3.492-4.639-4.857-9.824-13.41-18.532-25.774-26.242a1303.893 1303.893 0 0 1-4.63-2.898c-8.166-5.16-26.866-13.352-50.79-22.251-21.368-7.948-29.629-12.085-32.064-16.061-.828-1.351-4.645-12.861-7.902-23.826-6.16-20.736-8.935-29.448-10.173-31.931-7.739-15.524-23.893-21.175-51.463-18m22.954 8.693c6.796.89 11.864 3.248 16.073 7.476 3.86 3.878 4.926 6.219 8.853 19.436 14.181 47.729 12.945 45.129 24.528 51.606 5.096 2.85 12.531 5.971 28.817 12.099 47.512 17.876 64.623 28.759 73.596 46.811l1.956 3.936 4.543 3.338c11.125 8.174 16.46 14.263 17.554 20.033.771 4.061-.731 11.044-3.186 14.82-.973 1.496-24.817 28.683-28.111 32.052-.689.704-.74.684-2.688-1.068-10.759-9.673-37.461-21.977-67.149-30.94l-6.69-2.02-44 21.883c-48.706 24.223-44.259 22.309-54.346 23.395-5.192.56-44.16.575-52.836.021-6.564-.419-6.054-.766-4.71 3.205 8.833 26.079 33.609 46.689 65.973 54.882 40.057 10.139 101.587 2.367 151.932-19.191.356-.153 27.345 59.84 27.337 60.766-.005.534-6.835 5.088-13.199 8.801-71.753 41.862-176.472 47.929-249.448 14.453-48.794-22.382-85.72-66.437-98.932-118.029-2.287-8.93-2.287-8.808.03-15.002 14.991-40.081 43.892-76.209 78.793-98.497 8.705-5.559 10.556-6.366 10.556-4.602 0 1.019.361 1.146 4.537 1.6 4.628.503 4.636.432-.296 2.873-37.306 18.47-67.39 53.179-86.308 99.58-2.421 5.937-2.404 5.715-.889 11.686 10.826 42.683 39.907 81.525 78.478 104.817 63.214 38.174 161.023 40.424 239.233 5.503 8.958-4 25.321-12.68 28.014-14.86l.8-.648-10.944-24.503c-6.018-13.476-11.076-24.501-11.237-24.499-.162.003-2.161.739-4.442 1.637-51.793 20.39-115.292 25.397-155.325 12.247-46.2-15.175-73.965-58.581-63.552-99.353.387-1.514.678-2.771.648-2.793-.031-.022-9.085 3.604-20.121 8.057l-20.066 8.097 2.83 3.046 2.829 3.045-3.687 1.364c-4.207 1.556-12.633 5.066-18.862 7.858-2.333 1.045-4.242 1.747-4.242 1.559 0-.188 3.067-5.879 6.814-12.646 3.747-6.768 6.756-12.363 6.685-12.433-.07-.071-2.33-.326-5.022-.568-4.966-.446-5.568-.575-4.848-1.045 1.469-.958 38.596-29.661 38.596-29.838 0-.122-2.96-1.237-6.578-2.477-3.617-1.24-6.459-2.356-6.315-2.48.145-.124 5.498-1.089 11.895-2.144 6.398-1.055 11.707-1.993 11.798-2.084.091-.091-.867-2.753-2.129-5.914-1.262-3.161-2.213-5.83-2.112-5.93.1-.101 3.163 1.371 6.806 3.271 5.75 2.998 6.657 3.367 6.876 2.797.139-.362 2.5-7.695 5.247-16.296l4.996-15.638 7.219-7.227 7.22-7.227-2.289-1.474c-2.978-1.919-3.417-1.516 5.528-5.078 17.789-7.083 24.32-10.183 26.164-12.418 5.009-6.069 9.437-33.385 10.926-67.399.447-10.21.492-10.601 1.244-10.783 5.374-1.298 21.806-1.841 28.635-.946m-2.897 31.624c-.135 2.385-.338 7.305-.453 10.933-.496 15.714-1.509 26.785-2.677 29.246-.76 1.601-4.054 4.322-9.764 8.068-2.281 1.496-4.197 2.767-4.257 2.826-.061.058 1.806-.467 4.147-1.166 9.965-2.977 15.996-3.725 22.542-2.796 3.224.458 11.123 1.826 12.252 2.123.415.108-1.478-.981-4.206-2.422-8.408-4.438-10.18-5.985-11.385-9.936-1.382-4.53-3.73-20.241-5.455-36.499l-.5-4.712-.244 4.335m-96.561 52.964c12.219 8.436 22.249 15.371 22.29 15.412.161.159-9.312 12.679-9.585 12.67-.607-.022-22.74-5.536-22.912-5.709-.555-.554-12.935-38.067-12.509-37.903.276.106 10.498 7.094 22.716 15.53m36.919 23.996c-9.539 5.383-17.534 9.907-17.768 10.052-.336.209 8.297 21.853 8.979 22.511.087.084 24.585-38.75 26.432-41.902.527-.899.02-.631-17.643 9.339m9.927-.711c-3.084 4.349-19.296 26.126-19.513 26.21-.389.15-3.498-13.938-3.151-14.277.433-.421 22.861-13.105 23.224-13.134.17-.013-.082.527-.56 1.201m-40.47 8.671c-.494 1.503-2.189 6.763-3.768 11.687-1.579 4.925-2.991 8.954-3.137 8.954-.146 0-4.249-2.268-9.119-5.041-4.869-2.772-8.905-4.996-8.969-4.942-.064.055 2.194 4.717 5.017 10.36 2.824 5.644 5.071 10.324 4.994 10.401-.077.077-5.897 1.245-12.934 2.596-7.037 1.352-13.726 2.648-14.863 2.881l-2.069.424 8.835 3.477c4.859 1.913 8.879 3.631 8.933 3.819.054.188-2.567 2.316-5.824 4.728-3.257 2.413-12.793 9.515-21.19 15.783l-15.269 11.397 4.995-.256c2.748-.142 4.995-.186 4.995-.1 0 .087-1.719 3.692-3.822 8.012-3.593 7.384-10.558 26.259-9.924 26.893.105.105 7.27 1.056 15.922 2.114 14.891 1.821 15.725 1.963 15.605 2.662-.07.407-1.65 6.568-3.511 13.691-1.86 7.124-3.302 13.033-3.204 13.131.098.098 3.653-1.447 7.9-3.433 4.247-1.986 7.88-3.611 8.074-3.611.194 0 2.314 6.998 4.711 15.551l4.357 15.552 9.467-.127 9.468-.126.037 7.289c.021 4.009.148 8.715.283 10.457l.245 3.168 3.016 1.684c7.45 4.161 19.053 9.058 30.292 12.786 43.983 14.59 88.13 14.207 146.249-1.27 8.2-2.184 8.231-2.496.05-.513-48.91 11.853-97.944 11.384-136.268-1.303-11.206-3.71-25.9-10.274-31.456-14.052l-2.067-1.405-2.466-11.118c-1.8-8.117-2.616-11.147-3.023-11.223-.306-.058-3.695.312-7.531.821-3.836.509-7.078.809-7.203.667-.126-.143-2.98-7.3-6.343-15.905s-6.232-15.767-6.374-15.915c-.143-.148-3.12.581-6.615 1.62-3.495 1.039-6.429 1.815-6.519 1.725-.091-.091 1.257-5.067 2.996-11.059l3.16-10.895-15.109-2.773c-8.31-1.525-15.251-2.853-15.424-2.95-.293-.164 11.734-8.422 14.264-9.794.622-.338 4.948-2.008 9.614-3.712 4.665-1.703 8.452-3.242 8.415-3.419-.038-.176-.664-1.624-1.393-3.217l-1.325-2.897 11.358-3.789c6.248-2.083 11.418-3.729 11.49-3.657.073.073-.043 1.978-.257 4.235-3.841 40.5 25.041 79.588 70.068 94.826 38.743 13.111 99.575 9.375 152.285-9.354 3.179-1.129 5.95-1.996 6.159-1.927.314.105 16.097 34.931 16.733 36.923.154.482-.819 1.184-4.245 3.065-80.566 44.217-189.369 44.549-256.961.784-34.009-22.02-61.98-61.265-69.83-97.976l-.646-3.021 1.986-4.896c19.419-47.872 52.607-83.558 92.543-99.506 5.417-2.163 5.203-2.216 4.142 1.019m177.291-1.928c-4.521 1.282-5.275 6.329-1.737 11.626 5.95 8.912 22.187 15.23 45.564 17.733 19.801 2.119 39.596 14.972 40.331 26.187l.198 3.027.47-1.769c1.821-6.848-1.312-11.216-15.552-21.682-5.503-4.045-5.72-4.163-8.105-4.412-25.935-2.712-46.738-11.169-46.747-19.005-.008-6.732 15.534-2.827 27.496 6.91 3.983 3.241 3.383 1.684-1.107-2.875-9.333-9.474-32.033-18.229-40.811-15.74m-153.51 30.782c-9.739 5.465-10.448 5.932-9.425 6.202 1.447.381 40.548 5.615 40.946 5.481.288-.097-20.125-17.361-20.714-17.519-.151-.041-5.015 2.586-10.807 5.836m16.34 3.265c8.389 4.883 9.6 5.694 7.952 5.335-.518-.113-6.88-.903-14.137-1.754-7.258-.852-13.444-1.628-13.748-1.726-.511-.163 10.628-6.494 11.49-6.531.209-.009 4.008 2.095 8.443 4.676m-55.397 14.937c-25.629 17.251-25.815 17.38-24.641 17.112.393-.089 10.469-1.607 22.392-3.374 11.922-1.766 22.034-3.292 22.469-3.39.741-.168.906-1.01 2.573-13.099.981-7.106 1.849-13.131 1.93-13.391.214-.679 1.972-1.827-24.723 16.142m111.04-14.106c-.622.073-2.743.312-4.712.533-33.644 3.766-65.981 23.867-88.281 54.877-2.307 3.209-6.724 10.122-6.724 10.525 0 .136 1.315-.982 2.922-2.485 21.256-19.873 46.472-35.122 66.713-40.341l4.306-1.11 13.265-10.244c7.296-5.634 13.745-10.638 14.331-11.121 1.178-.972 1.153-.981-1.82-.634m110.462 3.031c-5.634.73-13.087 2.957-21.815 6.518-8.181 3.338-24.138 11.02-23.548 11.336.275.148 2.79.899 5.589 1.67 24.429 6.724 50.72 17.957 65.956 28.179l3.938 2.643 2.381-2.589c3.609-3.924 3.635-3.502-.367-6.083-12.312-7.941-32.25-17.153-50.887-23.51-3.264-1.113-5.936-2.126-5.937-2.25-.005-.297 13.874-5.61 20.354-7.793 11.545-3.888 17.775-1.627 46.305 16.806 3.592 2.321 6.65 4.219 6.796 4.219.338 0 4.333-4.522 4.151-4.698-.899-.871-19.8-13.172-23.371-15.21-12.87-7.344-22.039-10.211-29.545-9.238m-200.592 1.154c-.109.57-.847 4.734-1.641 9.253-.795 4.519-1.537 8.309-1.65 8.422-.247.247-30.86 5.074-31.296 4.934-.31-.1 34.008-23.598 34.51-23.629.15-.009.185.45.077 1.02m201.268 8.191c-1.079.303-2.606.824-3.393 1.158l-1.43.608 4.524 1.836c5.457 2.214 6.366 2.265 9.931.557 3.25-1.557 3.221-1.675-.781-3.218-3.682-1.42-6.193-1.687-8.851-.941m-12.62 4.655c-2.008.762-3.75 1.488-3.871 1.612-.121.124 2.951 1.347 6.826 2.716l7.047 2.489 2.667-1.332c4.312-2.152 4.216-2.328-2.709-4.998-5.881-2.269-5.339-2.242-9.96-.487m24.751.396c-3.451 1.869-3.372 2.112 1.519 4.651 4.921 2.554 5.68 2.624 8.766.798 2.731-1.615 3.026-1.208-3.31-4.567l-4.346-2.304-2.629 1.422m-9.169 5.787c-3.284 1.777-3.48 1.501 3.228 4.559l5.358 2.443 2.34-1.568c3.077-2.061 3.077-2.185-.007-3.986-5.968-3.485-6.919-3.611-10.919-1.448m21.155.967c-2.634 1.867-2.605 1.929 2.134 4.57 4.77 2.659 5.087 2.706 7.233 1.069 2.131-1.625 2.166-1.562-2.452-4.506-4.678-2.983-4.373-2.933-6.915-1.133m-5.566 4.201c-.415.182-1.575.922-2.578 1.644l-1.823 1.312 2.012.924c1.107.509 3.574 1.652 5.483 2.541l3.471 1.616 1.807-1.298c2.615-1.879 2.438-2.327-1.85-4.701-3.858-2.135-5.288-2.582-6.522-2.038m17.228 2.32c-2.279 1.676-2.088 2.077 2.406 5.029l3.975 2.61 1.75-1.749c.962-.962 1.672-1.82 1.579-1.906-.271-.248-7.906-5.148-8.023-5.148-.057 0-.817.524-1.687 1.164m-6.43 5.528c-2.457 1.803-2.699 1.397 2.861 4.793l4.798 2.931 1.813-1.971 1.812-1.97-3.751-2.598c-4.354-3.017-4.916-3.105-7.533-1.185" fill="#b5b6b6"/><path d="M197.268 9.441a253.2 253.2 0 0 0-7.438.755l-3.954.468-.175 1.171c-.097.645-.267 4.734-.377 9.089-.842 33.032-6.385 64.717-12.068 68.986-2.593 1.947-13.511 6.843-26.508 11.886-7.073 2.745-6.768 2.404-3.835 4.294l2.285 1.472-2.382 2.411-2.382 2.411 4.335-2.077c2.385-1.143 9.11-4.091 14.946-6.551 15.594-6.575 19.027-8.779 21.753-13.967 5.569-10.598 9.342-34.267 10.738-67.357l.254-6.032 2.262-.242c7.706-.824 19.948-.141 25.071 1.399 8.583 2.58 11.01 7.386 19.793 39.182 6.465 23.408 7.334 25.516 12.523 30.37 7.136 6.675 16.574 11.297 44.215 21.653 43.255 16.205 59.063 26.865 66.079 44.561.543 1.37 1.616 2.326 8.115 7.232 10.978 8.287 14.027 12.027 14.022 17.202-.002 2.574-.62 5.215-1.144 4.891-.194-.12-.261.02-.15.31.218.568-3.55 5.842-5.343 7.48l-1.089.994-6.032-3.926c-19.448-12.655-32.735-19.363-38.355-19.363-1.982 0-9.322 2.213-16.876 5.088a3360.5 3360.5 0 0 1-9.138 3.466c-3.062 1.152-3.013 1.287.942 2.586 18.457 6.057 42.16 16.976 53.719 24.746 3.39 2.279 3.54 1.448-1.221 6.779l-1.571 1.76-2.421-1.698c-14.614-10.249-40.526-21.54-66.134-28.816-3.94-1.119-7.211-2.136-7.269-2.259-.106-.222-5.407 2.456-36.652 18.514-28.391 14.592-51.75 25.793-54.979 26.363-6.971 1.231-45.194 1.857-53.68.879l-2.532-.292 28.272-21.825c15.549-12.005 28.215-21.883 28.145-21.953-.196-.196-6.857 1.644-10.636 2.937-17.757 6.079-38.374 19.147-57.792 36.631-2.341 2.108-4.462 3.834-4.712 3.835-2.536.01 5.691 20.919 12.089 30.724 24.23 37.137 71.226 52.159 137.314 43.892 23.754-2.971 49.636-9.41 69.621-17.319l5.068-2.005.552 1.194c8.383 18.134 21.506 48.396 21.145 48.759-3.038 3.046-25.417 14.287-39.635 19.908-76.091 30.079-167.803 26.175-227.533-9.687-37.306-22.398-64.994-57.71-77.62-98.992-3.802-12.434-3.851-11.308.987-22.696 18.471-43.471 47.402-76.204 83.937-94.968 2.462-1.265 4.328-2.314 4.147-2.331-6.648-.651-7.482-.878-7.89-2.14l-.398-1.23-5.973 3.586c-36.882 22.139-67.864 60.174-82.977 101.867l-1.681 4.638.956 4.431c10.925 50.623 47.16 96.395 95.188 120.241 75.606 37.537 190.697 29.896 262.475-17.426l4.799-3.164-.695-1.616c-2.734-6.35-26.172-58.591-26.371-58.779-.138-.13-3.135.932-6.66 2.36-54.59 22.12-118.427 27.167-158.53 12.533-25.835-9.427-49.041-32.528-54.073-53.828l-.258-1.095 4.451.251c18.535 1.044 46.264.97 56.519-.151 7.796-.852 5.504.166 52.105-23.135 23.882-11.942 43.747-21.713 44.142-21.713 1.847 0 23.309 7.018 32.835 10.736 17.148 6.694 33.993 15.726 41.26 22.123l1.776 1.563.888-.905c6.621-6.747 27.553-31.081 28.669-33.328 5.732-11.546 1.987-19.97-14.263-32.089l-5.572-4.155-1.854-3.78c-8.287-16.892-26.253-28.922-65.23-43.679-44.017-16.666-46.118-17.962-51.008-31.471-.938-2.592-3.684-11.414-6.103-19.605-9.248-31.313-9.067-30.845-13.722-35.451-6.707-6.635-16.741-8.885-33.501-7.511M92.759 78.888c.009.052 2.867 8.492 6.35 18.756l6.332 18.661 10.899 2.717c5.994 1.494 11.199 2.724 11.566 2.733.433.011 2.254-2.117 5.19-6.065l4.523-6.082-1.42-1.026c-7.478-5.401-43.498-30.023-43.44-29.694m58.603 43.977c-7.945 4.478-11.33 6.579-11.388 7.069-.122 1.025 2.695 13.153 3.032 13.056.259-.075 19.95-26.496 19.746-26.496-.047 0-5.173 2.867-11.39 6.371m-32.229 1.888c-39.875 14.944-73.469 50.859-93.87 100.356l-1.803 4.374 1.253 4.978c9.796 38.941 36.733 75.52 71.686 97.346 67.331 42.047 174.391 41.14 253.742-2.148 2.54-1.386 4.619-2.664 4.619-2.841 0-.312-15.033-34.209-16.055-36.202l-.51-.996-4.819 1.711c-58.127 20.633-120.992 23.384-161.138 7.051-39.526-16.081-65.503-53.169-62.939-89.856.238-3.398.373-6.237.301-6.309-.108-.108-21.737 6.958-22.046 7.202-.055.043.497 1.387 1.225 2.985.729 1.599 1.325 3.048 1.325 3.221 0 .172-3.919 1.726-8.708 3.451l-8.707 3.138-7.598 5.001c-4.179 2.751-7.507 5.005-7.397 5.01.868.038 30.224 5.615 30.381 5.772.112.111-1.181 4.983-2.872 10.825-1.692 5.842-2.992 10.706-2.889 10.809.102.102 3.041-.663 6.53-1.701 3.49-1.038 6.364-1.858 6.388-1.822.024.036 2.867 7.261 6.317 16.056 3.45 8.795 6.345 16.063 6.433 16.151.147.147 11.342-1.167 14.002-1.643l1.154-.207 2.575 11.465 2.576 11.465 1.548.97c15.923 9.971 41.166 18.482 65.073 21.94 13.355 1.932 39.919 2.636 53.535 1.42 23.098-2.064 44.088-5.889 63.67-11.603 7.69-2.244 7.656-1.922-.053.51-73.624 23.231-138.92 20.893-189.913-6.8l-4.336-2.354-.231-7.54c-.128-4.147-.255-8.77-.283-10.274l-.051-2.733h-9.425c-5.184 0-9.425-.078-9.425-.174 0-.396-8.4-30.208-8.62-30.595-.156-.273-3.043.901-8.256 3.357-4.409 2.078-8.103 3.69-8.209 3.584-.107-.107 1.419-6.356 3.391-13.888 1.971-7.533 3.536-13.744 3.476-13.803-.085-.086-19.239-2.486-29.944-3.753-1.089-.129-1.98-.26-1.98-.293 0-1.929 7.348-21.363 10.313-27.277 2-3.99 3.636-7.336 3.636-7.435 0-.1-2.181-.229-4.848-.287l-4.849-.105 21.255-15.824 21.256-15.824-9.067-3.562c-4.986-1.958-8.934-3.679-8.772-3.824.162-.145 6.741-1.49 14.62-2.989 7.88-1.499 14.457-2.848 14.618-2.999.16-.15-2.009-4.906-4.821-10.568-2.811-5.663-5.055-10.352-4.985-10.422.069-.069 4.105 2.153 8.967 4.939 4.863 2.786 9.024 5.07 9.247 5.077.223.006 1.284-2.746 2.358-6.115 1.074-3.37 2.699-8.459 3.611-11.31.911-2.851 1.546-5.176 1.411-5.166-.135.01-1.518.495-3.073 1.078m28.918 31.797c-3.067 1.658-5.504 3.088-5.414 3.178.177.176 27.148 3.504 27.287 3.366.072-.071-11.8-7.062-15.164-8.93l-1.131-.628-5.578 3.014m-37.663 17.351c-9.242 6.268-16.751 11.455-16.685 11.527.178.196 30.103-4.53 30.389-4.8.262-.248 3.397-17.827 3.211-18.012-.06-.061-7.672 5.018-16.915 11.285m226.775-1.969c4.995 1.808 5.036 1.891 1.733 3.51-4.179 2.049-4.346 2.044-10.133-.264-5.713-2.279-5.72-2.308-.959-3.687 3.42-.99 5.7-.883 9.359.441m-9.864 4.849c5.902 2.309 6.029 2.718 1.513 4.902l-2.62 1.268-7.219-2.565c-3.97-1.41-7.085-2.688-6.922-2.84.163-.151 2.152-.952 4.421-1.781 4.675-1.706 3.615-1.806 10.827 1.016m21.374.727c5.379 2.949 5.32 2.826 2.256 4.679-2.958 1.788-2.818 1.8-7.706-.621-6.537-3.237-6.408-2.903-2.075-5.407 2.662-1.538 2.066-1.644 7.525 1.349m-7.818 5.015c5.301 2.74 5.386 2.96 2.005 5.183l-2.474 1.627-5.537-2.518c-3.045-1.385-5.675-2.652-5.843-2.815-.318-.306 5.94-3.758 6.853-3.78.284-.007 2.531 1.029 4.996 2.303m19.162 1.676c2.5 1.574 4.545 2.916 4.545 2.984 0 .3-3.661 2.734-4.377 2.91-1.002.246-8.946-4.158-9.119-5.055-.091-.471 3.406-3.441 4.333-3.681.041-.01 2.119 1.269 4.618 2.842m-6.2 5.015c4.887 2.603 5.053 2.932 2.384 4.729-2.516 1.694-1.956 1.771-7.992-1.09-5.991-2.84-5.748-2.465-2.816-4.36 3.01-1.945 3.498-1.904 8.424.721m16.844 1.865 4.026 2.575-1.893 1.893-1.893 1.893-4.112-2.792c-4.712-3.199-4.616-3.018-2.536-4.798 2.013-1.723 1.699-1.784 6.408 1.229m-4.871 5.157c4.268 2.854 4.126 2.476 1.865 4.955l-1.774 1.945-4.524-2.813a678.857 678.857 0 0 0-5.042-3.117c-.799-.469 3.218-3.413 4.668-3.42.775-.005 2.296.77 4.807 2.45" fill="#043c7c"/><path d="m194.533 16.178-2.073.222-.254 6.032c-1.396 33.09-5.169 56.759-10.738 67.357-2.727 5.189-6.162 7.394-21.753 13.965-18.137 7.644-18.816 8.025-24.426 13.733l-4.768 4.85-5.161 16.212c-2.839 8.916-5.205 16.255-5.259 16.309-.053.054-3.027-1.439-6.609-3.317-3.582-1.878-6.575-3.353-6.652-3.276-.077.077.898 2.721 2.166 5.877 1.269 3.155 2.242 5.787 2.164 5.85-.079.062-5.063.911-11.076 1.888-6.013.976-11.252 1.902-11.643 2.058-.513.205 1.08.895 5.766 2.497 5.238 1.791 6.382 2.305 5.988 2.689-.268.262-9.099 7.09-19.624 15.174-17.229 13.233-19.033 14.718-18.096 14.9.572.111 2.864.315 5.093.453s4.053.374 4.053.524c0 .151-3.042 5.77-6.758 12.488-3.717 6.717-6.695 12.276-6.618 12.353.077.077 3.477-1.322 7.555-3.108 4.079-1.786 9.767-4.138 12.641-5.226 6.127-2.32 5.97-1.984 2.535-5.442-1.911-1.924-2.55-2.789-2.168-2.937.298-.115 9.533-3.838 20.522-8.273 10.99-4.436 20.012-8.036 20.05-8.001.037.036-.239 1.17-.613 2.521-1.865 6.726-2.884 24.358-1.686 29.178l.369 1.485 2.209-3.559c21.882-35.253 57.187-58.495 95.034-62.563 7.238-.778 7.779-1.488-8.268 10.857-7.894 6.072-27.282 21.002-43.086 33.176l-28.734 22.135 2.532.292c8.484.978 46.709.352 53.678-.879 3.4-.6 31.732-14.315 64.217-31.086 76.61-39.551 77.835-39.692 117.048-13.449l9.225 6.173.818-1.026c3.141-3.938.433-12.483-5.567-17.565-7.824-6.628-23.55-13.271-33.305-14.068-22.739-1.857-42.196-9.912-46.832-19.387-1.319-2.695-1.606-6.09-.665-7.839 4.507-8.369 38.624 3.543 47.281 16.508 2.121 3.176 1.927 3.386-.821.892-10.861-9.859-29.733-15.055-28.375-7.813 1.481 7.895 16.595 14.319 42.367 18.008 7.718 1.105 7.025 1.316 5.72-1.741-7.325-17.172-22.946-27.533-65.612-43.517-27.641-10.356-37.079-14.978-44.215-21.653-5.189-4.854-6.058-6.962-12.523-30.37-8.783-31.796-11.21-36.602-19.793-39.182-5.104-1.534-17.475-2.21-25.26-1.379m19.023 29.062c2.147 20.517 4.364 33.186 6.277 35.872 1.069 1.501 6.609 5.055 11.372 7.295 5.111 2.404 5.054 2.511-.762 1.439-14.665-2.702-17.818-2.564-31.386 1.373-5.656 1.641-5.655 1.636.445-2.32 4.389-2.848 8.013-5.69 9.041-7.089 1.538-2.097 3.254-23.973 3.357-42.79.037-6.781.462-5.184 1.656 6.22m-42.661 62.72c-3.713 6.333-27.111 43.133-27.298 42.933-.387-.413-9.386-22.006-9.372-22.489.008-.317 36.299-20.958 36.847-20.958.069 0-.011.231-.177.514m-3.466 49.693c5.988 5.013 10.827 9.174 10.754 9.248-.203.202-43.594-5.682-43.586-5.911.006-.155 21.258-12.25 21.808-12.411.075-.022 5.036 4.061 11.024 9.074m-37.579 12.004c-1.008 7.271-1.93 13.379-2.051 13.574-.223.362-46.78 7.526-47.117 7.251-.102-.084.067-.3.377-.48.309-.181 11.759-7.872 25.444-17.092 13.686-9.22 24.949-16.698 25.03-16.618.082.08-.676 6.095-1.683 13.365" fill="#042c54"/><path d="M198.591 9.315c.469.09 1.147.086 1.508-.008.36-.094-.024-.168-.853-.164-.829.004-1.124.082-.655.172m32.119 7.367c1.562 1.665 1.901 1.964 1.901 1.681 0-.06-.806-.866-1.791-1.791l-1.791-1.68 1.681 1.79m-45.489 5.561c0 1.141.071 1.607.157 1.037a8.273 8.273 0 0 0 0-2.074c-.086-.57-.157-.103-.157 1.037m-.387 7.163c0 .933.074 1.315.163.848a5.36 5.36 0 0 0 0-1.696c-.089-.467-.163-.085-.163.848m-.392 5.655c0 .726.077 1.023.172.66a3.088 3.088 0 0 0 0-1.319c-.095-.363-.172-.066-.172.659m27.49 1.32c.007 1.629.052 1.739.329.816.179-.596.175-1.43-.009-1.885-.251-.624-.327-.371-.32 1.069m-27.867 3.581c0 .726.077 1.023.172.66a3.088 3.088 0 0 0 0-1.319c-.095-.363-.172-.066-.172.659m27.521 10.179c0 .726.078 1.023.172.66a3.088 3.088 0 0 0 0-1.319c-.094-.363-.172-.066-.172.659m44.399 32.234c.703.726 1.364 1.32 1.467 1.32.104 0-.387-.594-1.09-1.32-.703-.726-1.364-1.319-1.467-1.319-.104 0 .387.593 1.09 1.319M135.15 117.342l-4.896 4.995 4.996-4.895c4.64-4.548 5.166-5.095 4.895-5.095-.054 0-2.302 2.248-4.995 4.995M67.648 149.01l-1.107 1.226 1.225-1.108c.674-.609 1.226-1.16 1.226-1.225 0-.291-.312-.035-1.344 1.107m-15.457 6.409-1.107 1.226 1.225-1.108c1.142-1.032 1.399-1.343 1.107-1.343-.064 0-.616.552-1.225 1.225m15.474 3.393-3.763 3.865 3.864-3.763c3.589-3.495 4.036-3.966 3.763-3.966-.056 0-1.794 1.739-3.864 3.864m314.993 3.04c0 .065.551.616 1.225 1.225l1.225 1.108-1.107-1.226c-1.032-1.142-1.343-1.398-1.343-1.107m-273.24 44.369c0 .725.078 1.022.173.659a3.088 3.088 0 0 0 0-1.319c-.095-.363-.173-.066-.173.66m6.812 6.409c0 1.14.071 1.607.157 1.036a8.36 8.36 0 0 0 0-2.073c-.086-.57-.157-.104-.157 1.037m-7.135 2.45c.001 2.281.063 3.165.138 1.966.075-1.2.074-3.066-.002-4.147-.076-1.081-.137-.1-.136 2.181m7.109 2.451c0 .725.078 1.022.173.659a3.088 3.088 0 0 0 0-1.319c-.095-.363-.173-.066-.173.66m13.014 14.592c.466.09 1.23.09 1.696 0 .467-.09.085-.164-.848-.164-.933 0-1.315.074-.848.164m7.917.383c.674.084 1.776.084 2.45 0 .674-.083.123-.152-1.225-.152s-1.899.069-1.225.152m42.601-.006c.467.09 1.23.09 1.697 0 .466-.09.084-.164-.849-.164-.933 0-1.314.074-.848.164m-29.579.391c1.408.072 3.614.072 4.901-.002 1.287-.073.135-.132-2.56-.132-2.696.001-3.749.061-2.341.134m18.659-.002c1.095.077 2.792.076 3.77-.002.978-.077.081-.14-1.992-.139-2.074.001-2.874.065-1.778.141m-23.309 31.861c1.563 1.665 1.901 1.964 1.901 1.681 0-.061-.806-.866-1.791-1.791l-1.79-1.681 1.68 1.791m-6.393 3.026c0 .057 1.315 1.372 2.922 2.921l2.922 2.819-2.818-2.922c-2.618-2.714-3.026-3.094-3.026-2.818m-5.278 4.524c0 .057 1.315 1.372 2.922 2.921l2.922 2.819-2.819-2.922c-2.617-2.714-3.025-3.094-3.025-2.818m-18.958 20.523 2.343.143.129 3.565.13 3.565-.022-3.677-.022-3.676-2.45-.032-2.451-.032 2.343.144m103.878 1.876c.363.095.957.095 1.319 0 .363-.095.066-.172-.659-.172-.726 0-1.023.077-.66.172m27.333.006c.466.09 1.23.09 1.696 0 .467-.09.085-.163-.848-.163-.933 0-1.315.073-.848.163m-17.134.393c2.241.067 5.803.066 7.918-.001 2.114-.067.281-.122-4.074-.121-4.354 0-6.084.055-3.844.122m23.547 6.017c.469.09 1.148.087 1.508-.008.36-.094-.023-.168-.853-.164-.829.005-1.124.082-.655.172m-34.123.37c.363.095.957.095 1.319 0 .363-.095.066-.172-.659-.172-.726 0-1.023.077-.66.172m28.28.011c.573.086 1.422.084 1.885-.005.464-.09-.005-.161-1.042-.158-1.036.003-1.416.076-.843.163m-18.29.388c2.333.066 6.15.066 8.483 0s.424-.121-4.241-.121c-4.666 0-6.574.055-4.242.121m-165.033 2.923c.704.726 1.364 1.319 1.468 1.319.104 0-.387-.593-1.091-1.319-.703-.726-1.363-1.32-1.467-1.32-.104 0 .387.594 1.09 1.32m193.12 3.087c.363.095.957.095 1.32 0 .363-.095.066-.172-.66-.172s-1.023.077-.66.172m-4.901.377c.363.095.957.095 1.32 0 .363-.095.066-.172-.66-.172s-1.023.077-.66.172m-32.229.384c.469.09 1.147.087 1.508-.008.36-.094-.023-.168-.853-.164-.829.005-1.124.082-.655.172m25.443.003c.57.087 1.503.087 2.074 0 .57-.086.103-.157-1.037-.157-1.141 0-1.607.071-1.037.157m-15.457.388c1.607.07 4.237.07 5.844 0 1.606-.071.292-.129-2.922-.129s-4.529.058-2.922.129m-157.87 3.866c.81.83 1.557 1.508 1.661 1.508.104 0-.474-.678-1.284-1.508-.81-.829-1.557-1.508-1.661-1.508-.104 0 .474.679 1.284 1.508m-20.17-.636c0 .065.552.617 1.226 1.226l1.225 1.107-1.107-1.225c-1.033-1.143-1.344-1.399-1.344-1.108m15.835 6.032c0 .065.551.617 1.225 1.226l1.225 1.107-1.107-1.225c-1.032-1.142-1.343-1.399-1.343-1.108m248.162 2.843c-1.089.336-1.98.731-1.98.878 0 .224 2.185-.405 4.524-1.301 1.278-.489-.601-.177-2.544.423m-252.687 2.435c0 .065.552.617 1.226 1.226l1.225 1.107-1.107-1.225c-1.032-1.142-1.344-1.399-1.344-1.108m184.072 10.321c.363.095.957.095 1.32 0 .362-.094.066-.172-.66-.172s-1.023.078-.66.172m-33.365.384c.467.089 1.23.089 1.697 0 .466-.09.085-.164-.848-.164-.933 0-1.315.074-.849.164m26.961.004c.573.087 1.422.084 1.885-.005.464-.09-.005-.16-1.042-.158-1.036.003-1.416.076-.843.163m-15.839.387c1.607.07 4.237.07 5.843 0 1.607-.071.293-.129-2.921-.129s-4.529.058-2.922.129m10.556 3.372c.363.095.957.095 1.32 0 .362-.094.065-.172-.66-.172-.726 0-1.023.078-.66.172m-31.098.384c.469.09 1.147.087 1.508-.007.36-.095-.024-.169-.853-.164-.829.004-1.124.081-.655.171m25.071.004c.573.087 1.421.084 1.885-.005.464-.09-.005-.16-1.042-.158-1.037.003-1.416.076-.843.163m-14.691.387c1.617.071 4.161.07 5.655-.001 1.494-.071.171-.129-2.939-.129-3.11.001-4.332.059-2.716.13m-22.26 22.977a3.12 3.12 0 0 0 1.319 0c.363-.095.066-.173-.66-.173-.725 0-1.022.078-.659.173m4.712.383c.467.09 1.23.09 1.697 0 .466-.09.085-.164-.849-.164-.933 0-1.314.074-.848.164m40.151-.006c.363.094.957.094 1.32 0 .362-.095.066-.173-.66-.173s-1.023.078-.66.173m-33.365.389a11.95 11.95 0 0 0 2.451 0c.674-.083.122-.152-1.225-.152-1.348 0-1.9.069-1.226.152m26.202-.002a8.36 8.36 0 0 0 2.073 0c.571-.087.104-.157-1.036-.157-1.141 0-1.607.07-1.037.157m-12.064.367a3.12 3.12 0 0 0 1.319 0c.363-.095.066-.173-.659-.173-.726 0-1.023.078-.66.173m-22.804 6.415c.469.091 1.147.087 1.508-.007.36-.095-.024-.168-.853-.164-.829.004-1.124.081-.655.171m43.732 0c.469.091 1.147.087 1.508-.007.36-.095-.023-.168-.853-.164-.829.004-1.124.081-.655.171m-37.511.381c.573.087 1.421.085 1.885-.005.464-.089-.005-.16-1.042-.157-1.037.002-1.416.076-.843.162m31.286 0c.57.086 1.503.086 2.074 0 .57-.087.103-.157-1.037-.157-1.141 0-1.607.07-1.037.157m-19.017.389c2.552.065 6.624.065 9.048-.001 2.425-.065.337-.119-4.64-.119-4.976.001-6.96.054-4.408.12m28.819 5.633c.363.095.957.095 1.32 0 .362-.095.066-.173-.66-.173s-1.023.078-.66.173m-44.67.383c.469.091 1.147.087 1.508-.007.36-.095-.024-.168-.853-.164-.829.004-1.124.081-.655.171m39.585 0c.469.091 1.147.087 1.508-.007.36-.095-.023-.168-.853-.164-.829.004-1.124.081-.655.171m-32.427.384c.674.083 1.777.083 2.451 0 .674-.084.122-.153-1.225-.153-1.348 0-1.9.069-1.226.153m24.512 0c.678.084 1.696.082 2.262-.004.567-.086.012-.154-1.232-.152-1.244.002-1.707.072-1.03.156" fill="#5f7c9a"/><path d="M211.978 39.585c0 .933.074 1.315.164.849.09-.467.09-1.23 0-1.697-.09-.467-.164-.085-.164.848m-69.671 70.594-2.25 2.356 2.356-2.25c2.189-2.09 2.529-2.462 2.25-2.462-.058 0-1.119 1.06-2.356 2.356m214.903 23.657c1.021 1.037 1.942 1.885 2.045 1.885.104 0-.647-.848-1.668-1.885s-1.941-1.885-2.045-1.885c-.104 0 .647.848 1.668 1.885M58.051 149.199l-3.574 3.676 3.676-3.574c3.414-3.32 3.847-3.778 3.574-3.778-.056 0-1.71 1.654-3.676 3.676m1.118 8.294-1.299 1.414 1.414-1.3c1.316-1.209 1.587-1.528 1.299-1.528-.063 0-.699.636-1.414 1.414m331.87 18.944c0 .726.078 1.023.173.66a3.088 3.088 0 0 0 0-1.319c-.095-.363-.173-.066-.173.659m-252.514 21.207-1.107 1.225 1.225-1.107c1.142-1.032 1.398-1.344 1.107-1.344-.065 0-.616.552-1.225 1.226m-79.618 4.689c.363.095.956.095 1.319 0 .363-.094.066-.172-.66-.172-.725 0-1.022.078-.659.172m22.526 9.354c.703.726 1.363 1.32 1.467 1.32.104 0-.387-.594-1.09-1.32-.704-.726-1.364-1.319-1.468-1.319-.103 0 .387.593 1.091 1.319m64.561 21.184c.363.094.957.094 1.32 0 .363-.095.066-.173-.66-.173s-1.023.078-.66.173m-36.374 59.956c.678.084 1.696.083 2.262-.003.567-.086.012-.155-1.232-.153-1.244.002-1.707.073-1.03.156m8.118 17.069c0 1.141.071 1.607.157 1.037a8.36 8.36 0 0 0 0-2.073c-.086-.571-.157-.104-.157 1.036m-59.68-.636c0 .065.552.617 1.226 1.226l1.225 1.107-1.107-1.225c-1.032-1.143-1.344-1.399-1.344-1.108m-.188 10.061c2.066 2.074 3.841 3.77 3.944 3.77.104 0-1.501-1.696-3.567-3.77-2.066-2.073-3.841-3.77-3.944-3.77-.104 0 1.501 1.697 3.567 3.77m175.782 15.347c.469.09 1.147.087 1.508-.007.36-.095-.023-.169-.853-.164-.829.004-1.124.081-.655.171m-20.371 28.281c.669.083 1.857.084 2.639.003.782-.082.235-.15-1.217-.152-1.451-.001-2.091.066-1.422.149m7.171 0a11.95 11.95 0 0 0 2.451 0c.674-.083.122-.152-1.225-.152-1.348 0-1.899.069-1.226.152" fill="#7c9cba"/></g></svg>