<svg xmlns="http://www.w3.org/2000/svg" height="181.356" width="280.605"><path d="M146.064 123.35c-3.463 8.285-2.968 19.043.556 24.731l20.157 32.275 15.643-22.63h25.535l13.974-17.188h-32.4l-9.768 11.995-19.414-16.137c-.433-.371-.928-2.535-.124-4.452l8.841-21.393s1.855 9.089 13.665 9.089h70.238c3.339 0 13.479 0 17.374-9.398 3.586-8.656-1.731-13.355-1.731-13.355h5.564l6.43-15.396h-34.377a22.268 22.268 0 0 0-11.5 3.03l16.2-39.138h-17.684l-17.807 42.971s-3.215-6.863-13.602-6.863h-20.775L214.82 0h-17.684l-33.759 81.491h-43.28a39.531 39.531 0 0 0-29.122 12.737s-.062-12.737-15.21-12.737h-38.52c-15.457 0-31.285 9.213-36.17 20.96-3.4 8.285 1.422 17.25 12.366 17.25h15.024c6.245 0 12.923-4.204 15.767-6.182 0 0 3.215 6.183 12.428 6.183h21.145l-7.234 17.374h17.745l7.172-17.374h52.06Z" fill="#fff"/><path d="m158.8 73.948-2.225-6.863h-2.844l-3.648 8.965h1.793l2.906-6.987 2.288 6.987h2.72l3.71-8.965h-1.793Zm-17.497-2.411a4.777 4.777 0 0 1 4.514-3.216c1.916 0 2.658 1.113 1.793 3.216a4.754 4.754 0 0 1-4.514 3.277c-1.917 0-2.659-1.113-1.793-3.277Zm1.175 4.76a7.282 7.282 0 0 0 7.172-4.76c1.36-3.092.062-4.7-3.277-4.7a7.365 7.365 0 0 0-7.172 4.7c-1.299 3.153 0 4.76 3.277 4.76Zm-11.686-.247h1.979l3.091-7.481h3.463l.618-1.484H131.1l-.618 1.484h3.4Zm-2.473-6.06c.865-2.101-.742-3.152-3.463-3.152a7.827 7.827 0 0 0-7.357 4.699c-1.36 3.277.309 4.76 3.648 4.76a15.81 15.81 0 0 0 4.884-.803l1.731-4.143h-4.822l-.557 1.36h2.844l-.68 1.732a12.284 12.284 0 0 1-2.658.37c-2.783 0-2.968-1.607-2.288-3.276a5.219 5.219 0 0 1 5.008-3.277c.99 0 2.102.494 1.608 1.73Zm-22.877 6.06 2.906-6.987h.062l2.288 6.987h2.72l3.71-8.965h-1.855l-2.844 6.863-2.226-6.863h-2.844l-3.71 8.965Zm-4.514 0 3.71-8.965h-2.04l-3.71 8.965Zm-11.623 0 1.545-3.833h4.885l-1.608 3.833h2.04l3.71-8.965H97.9l-1.546 3.648H91.47l1.484-3.648h-1.979l-3.71 8.965Zm-1.917-6.306c.68-1.793-.31-2.906-2.906-2.906-2.102 0-4.328.865-5.194 2.906-1.546 3.647 5.688 1.854 4.823 3.833-.247.68-1.175 1.36-2.844 1.36-1.546 0-2.103-.618-1.732-1.67h-2.04c-.804 1.917.371 3.03 2.968 3.03 3.03 0 5.07-1.113 5.874-2.967 1.607-3.896-5.812-1.608-4.823-3.896a2.469 2.469 0 0 1 2.226-1.236c1.422 0 2.04.433 1.607 1.546Zm-14.901 2.844h-3.71l3.463-3.896Zm-8.965 3.462h2.164l1.793-1.978h5.132l.185 1.978h2.411l-.865-8.965h-2.535Zm-5.132-7.172h.062l-.495 7.172h2.473l6.863-8.965h-1.978l-5.256 6.987.495-6.987h-2.535l-5.256 6.987.495-6.987h-2.164l-.495 8.965h2.412Zm94.537-9.522 6.121-4.452 6.121 4.452-2.35-7.172 6.122-4.452h-7.543l-2.35-7.234-2.35 7.234h-7.604l6.183 4.452Zm-39.756 0 6.12-4.452 6.184 4.452-2.35-7.172 6.121-4.452h-7.605l-2.35-7.234-2.287 7.234H109.4l6.121 4.452Zm-39.695 0 6.121-4.452 6.121 4.452-2.35-7.172 6.184-4.452h-7.605l-2.35-7.234-2.35 7.234h-7.542l6.12 4.452Zm139.487 85.448h-21.392l-6.987 8.656h21.331l7.048-8.656z" fill="#cf0a2c"/><path d="m130.978 107.707 9.088-21.95h-19.97a35.186 35.186 0 0 0-32.708 21.888L77 132.748h8.47l9.831-23.681c3.772-9.089 11.995-16.447 25.103-16.447h8.409l-5.318 12.86a5.328 5.328 0 0 1-4.39 3.092H99.568l-2.844 6.802h23.433c4.205 0 8.471-1.917 10.82-7.667ZM232.81 92.62c-2.596 6.307.804 11.377 7.605 11.377h17.19c1.236 0 1.854 1.051 1.297 2.288a3.798 3.798 0 0 1-3.215 2.287h-31.409l-2.844 6.802h31.533c5.874 0 11.191-1.299 13.479-6.802 2.596-6.244-.804-11.376-7.605-11.376h-17.189c-1.236 0-1.855-1.051-1.36-2.288a3.962 3.962 0 0 1 3.215-2.288h27.823l2.844-6.863h-27.947c-5.812 0-11.623 2.535-13.417 6.863Zm-92.063 22.754 7.852-18.982h-8.409l-7.914 18.982Zm12.242-29.617h-8.409l-2.844 6.863h8.409Zm64.302 29.617 27.267-65.725h-8.47l-27.205 65.725ZM176.98 85.757l-2.845 6.863h26.71c5.07 0 3.525 3.772 3.525 3.772h-17.19c-6.8 0-11.809 3.091-13.417 6.987-2.782 6.677 1.237 11.995 8.966 11.995h8.718a11.958 11.958 0 0 0 5.812-1.793l-.742 1.793h8.408l6.987-16.694c2.906-7.11-1.546-12.923-10.078-12.923Zm-98.124 29.617L85.78 98.68c2.968-7.11-1.545-12.923-10.016-12.923H53.753l-2.844 6.863h23.866c5.07 0 3.524 3.772 3.524 3.772H61.11c-6.8 0-11.809 3.091-13.417 6.987-2.782 6.677 1.237 11.995 8.966 11.995h8.718a11.957 11.957 0 0 0 5.812-1.793l-.804 1.793ZM34.71 92.62h11.253l2.783-6.863h-11.5c-13.603 0-28.01 8.224-32.214 18.302-2.535 6.12 1.175 11.315 8.409 11.315h15.025c6.553 0 14.468-6.245 14.468-6.245l-6.987-2.968a12.875 12.875 0 0 1-6.678 2.411H14.924c-1.793 0-2.597-1.793-1.608-4.08C16.036 97.938 25.62 92.62 34.71 92.62Z" fill="#041e41"/><path d="M150.021 124.957c-2.782 6.801-2.72 16.138.247 20.837l16.694 26.772 11.006-15.952-20.342-16.941c-2.164-1.732-2.782-5.998-1.36-9.337L208.45 4.328h-8.47L166.22 85.82h-10.016l-2.844 6.863h10.078Z" fill="#041e41"/><path d="M58.885 103.255a4.516 4.516 0 0 0-3.772 2.597c-.618 1.484.062 2.72 1.546 2.72H69.58a5.785 5.785 0 0 0 4.885-3.03l1.422-3.338a14.454 14.454 0 0 1-5.132 1.051Zm126.07 0a4.516 4.516 0 0 0-3.772 2.597c-.618 1.484.124 2.72 1.546 2.72h12.922a5.886 5.886 0 0 0 4.946-3.03l1.36-3.338a14.454 14.454 0 0 1-5.131 1.051Z" fill="#fff"/></svg>