<svg data-v-76258c58="" data-v-b7ca751c="" xmlns="http://www.w3.org/2000/svg" xmlns:xlink="http://www.w3.org/1999/xlink" width="217" height="32" viewBox="0 0 217 32" aria-hidden="true" class="v-icon notranslate logo v-icon--is-component theme--light"><defs><path id="b8htxbe3ub" d="M0.021 0.251L4.876 0.251 4.876 1.328 0.021 1.328z"></path><path id="baki5tb9nd" d="M0.15 0.291L4.071 0.291 4.071 2.718 0.15 2.718z"></path><path id="lyeime9lof" d="M0.243 0.291L24.281 0.291 24.281 2.718 0.243 2.718z"></path><filter id="xudlanx4wa"><feColorMatrix in="SourceGraphic" values="0 0 0 0 1.000000 0 0 0 0 1.000000 0 0 0 0 1.000000 0 0 0 1.000000 0"></feColorMatrix></filter></defs><g fill="none" fill-rule="evenodd"><g><g><g><g><g><path fill="#F6F5F4" fill-rule="nonzero" d="M30.537 11.878l-1.038.703.327 1.251-.98-.824-1.039.703.443-1.191-.979-.825 1.247.061.445-1.19.327 1.252 1.247.06zm-3.382-4.702l.623 1.133 1.217-.274-.832.948.624 1.13-1.128-.517-.831.948.119-1.282-1.128-.559 1.217-.275.119-1.252zM25.4 5.283l1.128-.58-.564 1.16.89.916-1.246-.213-.564 1.16-.205-1.315-1.246-.214 1.098-.58-.208-1.283.917.949zm-4.125-2.9l1.098.64.922-.855-.266 1.252 1.098.642-1.242.152-.271 1.248-.503-1.19-1.247.122.922-.855-.511-1.157zm-2.403-.765l.685-1.072.06 1.283 1.216.336-1.157.458.06 1.283-.802-1.009-1.157.458.682-1.068-.771-1.004 1.184.335zm-3.71-.397L15.547 0l.385 1.221h1.252l-1.006.764.386 1.221-1.006-.763-1.006.763.385-1.221-1.006-.764h1.23zm-3.71.611l.06-1.283.682 1.07 1.219-.336-.802 1.007.683 1.069-1.158-.458-.8 1.009.06-1.283-1.157-.458 1.213-.337zm-3.68.305l.922.856 1.098-.642-.503 1.16.922.856-1.246-.122-.503 1.19-.267-1.252-1.246-.121 1.098-.642-.275-1.283zM4.537 4.672l1.128.58.89-.916-.207 1.283 1.127.58-1.243.212-.207 1.282-.564-1.16-1.247.214.89-.916-.567-1.159zM3.294 8.245l.623-1.13.12 1.28 1.216.274-1.128.518.118 1.282-.83-.948-1.128.517.623-1.13-.86-.949 1.246.286zm-1.513 3.514l.326-1.252.446 1.19 1.245-.06-.979.824.445 1.191-1.038-.702-.98.824.327-1.252-1.039-.702 1.247-.061zm-.594 3.817V14.29l.742 1.035 1.187-.396-.742 1.035.742 1.035-1.188-.387-.742 1.035v-1.28L0 15.97l1.187-.394zm-.653 4.55l1.039-.703-.326-1.252.979.794 1.038-.703-.445 1.222.98.824-1.246-.06-.446 1.19-.326-1.251-1.247-.062zm3.383 4.702l-.623-1.13-1.217.275.831-.949-.623-1.13 1.128.518.83-.949-.118 1.282 1.128.518-1.217.244-.119 1.321zm1.721 1.862l-1.127.58.564-1.16-.89-.915 1.246.213.564-1.16.208 1.28 1.247.213-1.128.58.207 1.283-.89-.914zm4.126 2.9l-1.099-.64-.922.855.267-1.252-1.097-.641 1.245-.122.268-1.252.503 1.16 1.246-.122-.922.855.51 1.16zm2.404.765l-.683 1.07-.06-1.283-1.216-.336 1.157-.458-.06-1.287.802 1.008 1.158-.458-.683 1.069.801 1.007-1.216-.332zm3.739.397l-.386 1.221-.386-1.221H13.89l1.006-.763-.387-1.222 1.006.764 1.006-.764-.385 1.222 1.006.763h-1.234zm3.71-.613l-.06 1.286-.682-1.1-1.217.336.771-1.008-.682-1.075 1.157.458.802-1.007-.06 1.282 1.187.458-1.217.37zm3.678-.306l-.922-.855-1.098.641.503-1.16-.922-.855 1.246.122.503-1.16.28 1.252 1.247.122-1.102.638.265 1.255zm3.206-2.535l-1.128-.58-.89.917.207-1.283-1.127-.58 1.25-.213.208-1.281.564 1.129 1.24-.215-.89.916.566 1.19zm1.246-3.572l-.623 1.13-.118-1.28-1.217-.275 1.128-.517-.118-1.283.83.949 1.128-.517-.623 1.125.83.949-1.217-.281zm1.545-3.514l-.327 1.252-.445-1.191-1.247.061.977-.822-.445-1.221 1.07.702.978-.825-.326 1.253 1.04.704-1.275.087zm.593-3.817v1.283l-.742-1.035-1.188.396.742-1.035-.742-1.035 1.188.397.742-1.035v1.282l1.187.397-1.187.385z" transform="translate(-56 -189) translate(40 161) translate(16 28)"></path><g><path fill="#C72133" d="M8.915 21.438c-.253.01-.503-.065-.711-.214-.268-.181-.45-.468-.503-.793l-.773-5.1c-.207.03-.445.03-.653.062-.246.024-.494.034-.741.03-.638 0-1.273-.06-1.9-.183l-.267 3.882c-.027.32-.178.618-.419.824-.24.181-.532.277-.83.274h-.06c-.333.01-.655-.123-.89-.366-.236-.242-.365-.573-.356-.916l.862-13.225c-.113-.026-.223-.067-.326-.121-.524-.236-.893-.732-.98-1.313-.121-.612.068-1.245.503-1.68.86-.824 2.85-1.557 5.197-1.984C7.048.432 8.041.34 9.036.341c.771 0 1.81.06 2.522.396.521.26.871.782.923 1.374.09.612-.122 1.23-.564 1.65l-.356.274 4.778 12.428c.124.295.113.631-.03.916-.17.315-.447.553-.778.669-.15.062-.312.093-.475.091-.153 0-.304-.032-.445-.091-.296-.116-.525-.363-.623-.672l-1.391-3.663c-.628.365-1.295.652-1.988.855-.38.124-.767.226-1.158.306l.772 5.099c.052.312-.023.633-.208.886-.205.252-.488.424-.801.488-.085.068-.192.1-.299.091zm-4.51-8.061c.373.051.75.071 1.127.061h.03c.326 0 .682-.03 1.068-.061l-.118-.732c-.66.153-1.306.367-1.928.64l-.18.092zm4.747-.367c.642-.138 1.269-.343 1.87-.61.088-.022.169-.063.238-.122-.374-.05-.75-.071-1.128-.061-.356 0-.712.03-1.098.061l.118.732zm-5.28-1.526c.385-.18.781-.332 1.186-.458.39-.123.787-.225 1.187-.306l-.742-4.855c-.445.061-.86.061-1.275.093l-.357 5.526zm4.869-1.16c.463-.05.929-.071 1.395-.062.355 0 .742.031 1.098.062l-1.99-5.222c-.41.134-.826.246-1.247.336l.744 4.886z" transform="translate(-56 -189) translate(40 161) translate(16 28) translate(7.941 5.097)"></path><path fill="#F6F5F4" fill-rule="nonzero" d="M9.034.766c1.039 0 1.87.122 2.374.367.831.396.98 1.74.268 2.35-.176.15-.365.283-.564.398l4.867 12.733c.08.198.069.422-.03.61-.12.232-.322.407-.564.489-.116.035-.235.056-.356.061-.101-.005-.201-.026-.297-.061-.202-.085-.362-.25-.445-.458l-1.573-4.092-.03.031c-.682.467-1.434.817-2.225 1.035-.485.162-.981.284-1.484.367l.83 5.466c.027.215-.026.433-.148.61-.142.18-.342.299-.563.337-.06 0-.12.03-.208.03-.187-.008-.37-.06-.534-.153-.176-.116-.295-.304-.327-.517l-.83-5.466-.98.092c-.247.026-.495.038-.743.034-.763.023-1.525-.08-2.256-.306l-.297 4.4c-.008.214-.105.414-.267.549-.178.122-.356.214-.564.183h-.03c-.258-.004-.504-.114-.682-.306-.154-.149-.23-.363-.208-.58l.867-13.562c-.197-.028-.388-.09-.565-.183-.86-.335-1.068-1.679-.385-2.35C1.857 2.14 3.755 1.406 6.07.98 7.055.85 8.046.778 9.038.766M4.38 4.308c-1.246 0-2.285-.214-2.79-.61.327.61 1.514.977 3.027.977.718.004 1.434-.067 2.137-.214 2.315-.431 4.155-1.435 4.511-2.351-.712.824-2.43 1.588-4.51 1.984-.784.146-1.579.218-2.375.213m4.036 6.444c.572-.062 1.147-.093 1.722-.093.567-.01 1.134.042 1.691.153L9.45 4.644c-.61.215-1.235.388-1.87.517l.832 5.589m-4.956 1.374c.547-.307 1.124-.552 1.721-.733.475-.153.98-.275 1.484-.397L5.83 5.405c-.65.087-1.304.128-1.959.123l-.419 6.596m5.374 1.344c.802-.154 1.589-.39 2.347-.702.366-.143.707-.35 1.006-.61-.207-.122-.89-.306-2.047-.306-.516 0-1.031.031-1.544.092l.238 1.526m-3.295.367c.506.002 1.012-.029 1.514-.091l-.231-1.557c-.817.146-1.614.392-2.374.732-.351.126-.674.324-.95.58.237.153.89.336 2.047.336M9.034.003c-1.015 0-2.028.093-3.027.276C3.577.711 1.526 1.501.635 2.356.134 2.87-.09 3.606.034 4.325c.124.718.582 1.328 1.225 1.634.03 0 .03.03.059.03l-.83 12.947c-.03.431.122.855.418 1.161.312.33.74.516 1.187.518h.06c.377.005.744-.125 1.038-.366.33-.266.526-.67.534-1.1l.238-3.45c.52.086 1.046.127 1.572.122.258.004.516-.006.772-.03.1.004.2-.006.297-.03l.712 4.731c.064.425.301.802.653 1.035.274.182.595.278.922.274.11.007.22-.003.326-.03.395-.074.752-.29 1.006-.61.258-.336.366-.77.297-1.192l-.713-4.763c.297-.06.564-.153.861-.244.57-.179 1.126-.404 1.662-.672l1.246 3.267c.147.41.462.735.861.886.182.06.373.09.564.091.205.007.408-.035.594-.121.417-.152.766-.457.979-.856.182-.392.204-.843.06-1.252l-4.632-12.12c.053-.023.095-.066.119-.12.563-.49.8-1.253.712-1.985-.075-.713-.5-1.336-1.128-1.649C10.934.065 9.805 0 9.035 0v.003zm-.623 5.74c.207-.06.386-.122.593-.183l1.665 4.306h-.537c-.356 0-.712.03-1.098.03l-.623-4.152zm-3.828.58c.207 0 .42-.03.623-.03l.623 4.122c-.292.063-.579.145-.86.244-.238.061-.446.153-.683.214l.297-4.55z" transform="translate(-56 -189) translate(40 161) translate(16 28) translate(7.941 5.097)"></path></g></g><g fill="#F6F5F4"><path d="M1.062 0L0 1.072 0 5.79 1.116 6.938 4.572 6.938 4.572 10.293 1.956 10.293 1.956 8.812 0 8.812 0 10.991 1.297 12.306 5.096 12.306 6.528 10.791 6.528 6.101 5.412 4.946 1.956 4.946 1.956 2.013 4.572 2.013 4.572 3.452 6.528 3.452 6.528 1.107 5.425 0zM7.313 0v2.013h.895v8.28h-.895v2.013h3.745v-2.013h-.894V7.097h3.2l1.21-1.231V1.162L13.444 0h-6.13zm2.851 5.112h2.454V2.013h-2.454v3.099zM16.623 0l-1.27 1.328v9.65l1.203 1.328h3.88l1.284-1.329v-9.65L20.462 0h-3.839zm.686 10.293h2.454v-8.28h-2.454v8.28zM22.498 0v2.013h.895v8.28h-.895v2.013h3.745v-2.013h-.894V7.394h.679l2.34 4.912h1.983v-2.013h-.827l-1.432-2.899h.645l1.022-1.093V1.002L28.737 0h-6.239zm2.851 5.381h2.454V2.013h-2.454v3.368zM31.13 0L31.13 4.393 33.018 4.393 33.018 2.013 34.229 2.013 34.229 10.293 33.334 10.293 33.334 12.306 37.079 12.306 37.079 10.293 36.185 10.293 36.185 2.013 37.395 2.013 37.395 4.393 39.284 4.393 39.284 0zM41.125 0L40.063 1.072 40.063 5.79 41.179 6.938 44.634 6.938 44.634 10.293 42.019 10.293 42.019 8.812 40.063 8.812 40.063 10.991 41.36 12.306 45.159 12.306 46.591 10.791 46.591 6.101 45.475 4.946 42.019 4.946 42.019 2.013 44.634 2.013 44.634 3.452 46.591 3.452 46.591 1.107 45.488 0zM47.377 0v2.013h.894v8.28h-.894v2.013h6.03l1.23-1.273v-4.69l-.867-.92.867-.892V1.217L53.427 0h-6.05zm2.85 4.573h2.454v-2.56h-2.454v2.56zm0 5.72h2.454V6.6h-2.454v3.694zM56.686 0l-1.27 1.328v9.65l1.203 1.328h3.88l1.284-1.329v-9.65L60.525 0h-3.839zm.687 10.293h2.453v-8.28h-2.453v8.28zM63.832 0L62.56 1.328v9.65l1.203 1.328h3.88l1.284-1.329v-9.65L67.67 0h-3.84zm.686 10.293h2.453v-8.28h-2.453v8.28zM74.883 0L74.883 2.013 75.878 2.013 72.558 6.315 72.558 2.013 73.451 2.013 73.451 0 69.706 0 69.706 2.013 70.6 2.013 70.6 10.293 69.706 10.293 69.706 12.306 73.451 12.306 73.451 10.293 72.558 10.293 72.558 9.105 74.554 6.571 76.483 10.293 75.575 10.293 75.575 12.306 79.502 12.306 79.502 10.293 78.547 10.293 75.797 5.054 78.245 2.013 79.058 2.013 79.058 0zM1.808 14.497L.431 15.942v3.072l1.337 1.701L0 22.57v2.96l1.244 1.274h4.283l.604-.637.538.637h1.707v-2.014h-.84l-.773-1.017v-1.14h.935v-2.014H5.567l-.733.748-.438-.527 2.092-2.178V15.93l-1.405-1.432H1.808zm.512 3.839V16.51h2.265v1.397l-1.432 1.46-.833-1.031zm-.39 4.895l1.061-1.125 1.816 2.283v.4H1.93v-1.558zM13.955 14.497L12.724 15.769 12.724 25.585 13.941 26.803 18.069 26.803 19.091 25.716 19.091 23.026 17.135 23.026 17.135 24.789 14.68 24.789 14.68 16.51 17.135 16.51 17.135 18.246 19.091 18.246 19.091 15.7 17.935 14.497zM23.372 14.497l-2.69 10.292h-.812v2.014h3.744v-2.014h-1.028l.208-.816h2.904l.222.816h-.968v2.014h3.845v-2.014h-.981l-2.67-10.292h-1.774zm.908 3.77l.921 3.72h-1.903l.982-3.72zM30.639 14.497L29.576 15.569 29.576 20.287 30.692 21.435 34.148 21.435 34.148 24.789 31.533 24.789 31.533 23.309 29.576 23.309 29.576 25.488 30.874 26.803 34.673 26.803 36.104 25.287 36.104 20.597 34.989 19.443 31.533 19.443 31.533 16.51 34.148 16.51 34.148 17.948 36.104 17.948 36.104 15.603 35.002 14.497zM36.89 14.497L36.89 16.51 37.784 16.51 37.784 24.789 36.89 24.789 36.89 26.803 40.634 26.803 40.634 24.789 39.74 24.789 39.74 16.51 40.634 16.51 40.634 14.497zM46.065 14.497L46.065 16.51 46.96 16.51 46.96 21.608 44.082 14.497 41.42 14.497 41.42 16.51 42.315 16.51 42.315 24.789 41.42 24.789 41.42 26.803 45.164 26.803 45.164 24.789 44.271 24.789 44.271 19.92 47.121 26.803 48.916 26.803 48.916 16.51 49.81 16.51 49.81 14.497zM51.86 14.497l-1.272 1.328v9.65l1.204 1.328h3.88l1.284-1.329v-9.65l-1.258-1.327H51.86zm.685 10.292H55v-8.28h-2.454v8.28z" transform="translate(-56 -189) translate(40 161) translate(16 28) translate(34.016 2.36)"></path></g></g></g></g></g></g></svg>
