<svg xmlns="http://www.w3.org/2000/svg" width="217" height="32" viewBox="0 0 120 32" aria-hidden="true" class="v-icon notranslate logo v-icon--is-component theme--light"><g fill="none" fill-rule="evenodd"><path fill="#1d355b" fill-rule="nonzero" d="m30.537 11.878-1.038.703.327 1.251-.98-.824-1.039.703.443-1.191-.979-.825 1.247.061.445-1.19.327 1.252 1.247.06zm-3.382-4.702.623 1.133 1.217-.274-.832.948.624 1.13-1.128-.517-.831.948.119-1.282-1.128-.559 1.217-.275.119-1.252zM25.4 5.283l1.128-.58-.564 1.16.89.916-1.246-.213-.564 1.16-.205-1.315-1.246-.214 1.098-.58-.208-1.283.917.949zm-4.125-2.9 1.098.64.922-.855-.266 1.252 1.098.642-1.242.152-.271 1.248-.503-1.19-1.247.122.922-.855-.511-1.157zm-2.403-.765.685-1.072.06 1.283 1.216.336-1.157.458.06 1.283-.802-1.009-1.157.458.682-1.068-.771-1.004 1.184.335zm-3.71-.397L15.547 0l.385 1.221h1.252l-1.006.764.386 1.221-1.006-.763-1.006.763.385-1.221-1.006-.764h1.23zm-3.71.611.06-1.283.682 1.07 1.219-.336-.802 1.007.683 1.069-1.158-.458-.8 1.009.06-1.283-1.157-.458 1.213-.337zm-3.68.305.922.856 1.098-.642-.503 1.16.922.856-1.246-.122-.503 1.19-.267-1.252-1.246-.121 1.098-.642-.275-1.283zM4.537 4.672l1.128.58.89-.916-.207 1.283 1.127.58-1.243.212-.207 1.282-.564-1.16-1.247.214.89-.916-.567-1.159zM3.294 8.245l.623-1.13.12 1.28 1.216.274-1.128.518.118 1.282-.83-.948-1.128.517.623-1.13-.86-.949 1.246.286zm-1.513 3.514.326-1.252.446 1.19 1.245-.06-.979.824.445 1.191-1.038-.702-.98.824.327-1.252-1.039-.702 1.247-.061zm-.594 3.817V14.29l.742 1.035 1.187-.396-.742 1.035.742 1.035-1.188-.387-.742 1.035v-1.28L0 15.97l1.187-.394zm-.653 4.55 1.039-.703-.326-1.252.979.794 1.038-.703-.445 1.222.98.824-1.246-.06-.446 1.19-.326-1.251-1.247-.062zm3.383 4.702-.623-1.13-1.217.275.831-.949-.623-1.13 1.128.518.83-.949-.118 1.282 1.128.518-1.217.244-.119 1.321zm1.721 1.862-1.127.58.564-1.16-.89-.915 1.246.213.564-1.16.208 1.28 1.247.213-1.128.58.207 1.283-.89-.914zm4.126 2.9-1.099-.64-.922.855.267-1.252-1.097-.641 1.245-.122.268-1.252.503 1.16 1.246-.122-.922.855.51 1.16zm2.404.765-.683 1.07-.06-1.283-1.216-.336 1.157-.458-.06-1.287.802 1.008 1.158-.458-.683 1.069.801 1.007-1.216-.332zm3.739.397-.386 1.221-.386-1.221H13.89l1.006-.763-.387-1.222 1.006.764 1.006-.764-.385 1.222 1.006.763h-1.234zm3.71-.613-.06 1.286-.682-1.1-1.217.336.771-1.008-.682-1.075 1.157.458.802-1.007-.06 1.282 1.187.458-1.217.37zm3.678-.306-.922-.855-1.098.641.503-1.16-.922-.855 1.246.122.503-1.16.28 1.252 1.247.122-1.102.638.265 1.255zm3.206-2.535-1.128-.58-.89.917.207-1.283-1.127-.58 1.25-.213.208-1.281.564 1.129 1.24-.215-.89.916.566 1.19zm1.246-3.572-.623 1.13-.118-1.28-1.217-.275 1.128-.517-.118-1.283.83.949 1.128-.517-.623 1.125.83.949-1.217-.281zm1.545-3.514-.327 1.252-.445-1.191-1.247.061.977-.822-.445-1.221 1.07.702.978-.825-.326 1.253 1.04.704-1.275.087zm.593-3.817v1.283l-.742-1.035-1.188.396.742-1.035-.742-1.035 1.188.397.742-1.035v1.282l1.187.397-1.187.385z"/><path fill="#C72133" d="M16.856 26.535a1.143 1.143 0 0 1-.711-.214 1.185 1.185 0 0 1-.503-.793l-.773-5.1c-.207.03-.445.03-.653.062a6.549 6.549 0 0 1-.741.03c-.638 0-1.273-.06-1.9-.183l-.267 3.882a1.22 1.22 0 0 1-.419.824c-.24.181-.532.277-.83.274h-.06a1.189 1.189 0 0 1-.89-.366 1.265 1.265 0 0 1-.356-.916l.862-13.225a1.361 1.361 0 0 1-.326-.121 1.712 1.712 0 0 1-.98-1.313 1.867 1.867 0 0 1 .503-1.68c.86-.824 2.85-1.557 5.197-1.984.98-.183 1.973-.275 2.968-.274.771 0 1.81.06 2.522.396.521.26.871.782.923 1.374.09.612-.122 1.23-.564 1.65l-.356.274L24.28 21.56c.124.295.113.631-.03.916a1.42 1.42 0 0 1-.778.669 1.206 1.206 0 0 1-.92 0 1.064 1.064 0 0 1-.623-.672l-1.391-3.663a8.979 8.979 0 0 1-1.988.855c-.38.124-.767.226-1.158.306l.772 5.099c.052.312-.023.633-.208.886a1.394 1.394 0 0 1-.801.488.422.422 0 0 1-.299.091zm-4.51-8.061c.373.051.75.071 1.127.061h.03c.326 0 .682-.03 1.068-.061l-.118-.732c-.66.153-1.306.367-1.928.64l-.18.092zm4.747-.367a9.553 9.553 0 0 0 1.87-.61.581.581 0 0 0 .238-.122 7.086 7.086 0 0 0-1.128-.061c-.356 0-.712.03-1.098.061l.118.732zm-5.28-1.526c.385-.18.781-.332 1.186-.458.39-.123.787-.225 1.187-.306l-.742-4.855c-.445.061-.86.061-1.275.093l-.357 5.526zm4.869-1.16c.463-.05.929-.071 1.395-.062.355 0 .742.031 1.098.062l-1.99-5.222c-.41.134-.826.246-1.247.336l.744 4.886z"/><path fill="#F6F5F4" fill-rule="nonzero" d="M16.975 5.863c1.039 0 1.87.122 2.374.367.831.396.98 1.74.268 2.35-.176.15-.365.283-.564.398l4.867 12.733a.727.727 0 0 1-.03.61.997.997 0 0 1-.564.489 1.436 1.436 0 0 1-.356.061 1.014 1.014 0 0 1-.297-.061.827.827 0 0 1-.445-.458l-1.573-4.092-.03.031a7.438 7.438 0 0 1-2.225 1.035 9.63 9.63 0 0 1-1.484.367l.83 5.466a.883.883 0 0 1-.148.61.914.914 0 0 1-.563.337c-.06 0-.12.03-.208.03a1.185 1.185 0 0 1-.534-.153.751.751 0 0 1-.327-.517L15.136 20l-.98.092a6.15 6.15 0 0 1-.743.034 6.93 6.93 0 0 1-2.256-.306l-.297 4.4a.75.75 0 0 1-.267.549c-.178.122-.356.214-.564.183h-.03a.95.95 0 0 1-.682-.306.706.706 0 0 1-.208-.58l.867-13.562a1.742 1.742 0 0 1-.565-.183c-.86-.335-1.068-1.679-.385-2.35.772-.734 2.67-1.468 4.985-1.894.985-.13 1.976-.202 2.968-.214m-4.658 3.542c-1.246 0-2.285-.214-2.79-.61.327.61 1.514.977 3.027.977a10.16 10.16 0 0 0 2.137-.214c2.315-.431 4.155-1.435 4.511-2.351-.712.824-2.43 1.588-4.51 1.984-.784.146-1.579.218-2.375.213m4.036 6.444a15.982 15.982 0 0 1 1.722-.093 7.938 7.938 0 0 1 1.691.153l-2.379-6.167c-.61.215-1.235.388-1.87.517l.832 5.589m-4.956 1.374a8.632 8.632 0 0 1 1.721-.733c.475-.153.98-.275 1.484-.397l-.831-5.589c-.65.087-1.304.128-1.959.123l-.419 6.596m5.374 1.344a12.23 12.23 0 0 0 2.347-.702c.366-.143.707-.35 1.006-.61-.207-.122-.89-.306-2.047-.306-.516 0-1.031.031-1.544.092l.238 1.526m-3.295.367a11.97 11.97 0 0 0 1.514-.091l-.231-1.557c-.817.146-1.614.392-2.374.732a2.78 2.78 0 0 0-.95.58c.237.153.89.336 2.047.336M16.975 5.1a16.8 16.8 0 0 0-3.027.276c-2.43.432-4.481 1.222-5.372 2.077a2.271 2.271 0 0 0-.601 1.969A2.223 2.223 0 0 0 9.2 11.056c.03 0 .03.03.059.03l-.83 12.947c-.03.431.122.855.418 1.161.312.33.74.516 1.187.518h.06c.377.005.744-.125 1.038-.366.33-.266.526-.67.534-1.1l.238-3.45c.52.086 1.046.127 1.572.122.258.004.516-.006.772-.03.1.004.2-.006.297-.03l.712 4.731c.064.425.301.802.653 1.035.274.182.595.278.922.274.11.007.22-.003.326-.03a1.68 1.68 0 0 0 1.006-.61c.258-.336.366-.77.297-1.192l-.713-4.763c.297-.06.564-.153.861-.244.57-.179 1.126-.404 1.662-.672l1.246 3.267c.147.41.462.735.861.886.182.06.373.09.564.091.205.007.408-.035.594-.121a1.82 1.82 0 0 0 .979-.856c.182-.392.204-.843.06-1.252l-4.632-12.12a.232.232 0 0 0 .119-.12c.563-.49.8-1.253.712-1.985a2.078 2.078 0 0 0-1.128-1.649c-.771-.366-1.9-.431-2.67-.431V5.1zm-.623 5.74c.207-.06.386-.122.593-.183l1.665 4.306h-.537c-.356 0-.712.03-1.098.03l-.623-4.152zm-3.828.58c.207 0 .42-.03.623-.03l.623 4.122a7.085 7.085 0 0 0-.86.244c-.238.061-.446.153-.683.214l.297-4.55z"/><path d="m35.078 2.36-1.062 1.072V8.15l1.116 1.148h3.456v3.355h-2.616v-1.481h-1.956v2.179l1.297 1.315h3.799l1.432-1.515v-4.69l-1.116-1.155h-3.456V4.373h2.616v1.439h1.956V3.467L39.441 2.36zm6.251 0v2.013h.895v8.28h-.895v2.013h3.745v-2.013h-.894V9.457h3.2l1.21-1.231V3.522L47.46 2.36h-6.13zm2.851 5.112h2.454V4.373H44.18v3.099zm6.459-5.112-1.27 1.328v9.65l1.203 1.328h3.88l1.284-1.329v-9.65L54.478 2.36h-3.839zm.686 10.293h2.454v-8.28h-2.454v8.28zM56.514 2.36v2.013h.895v8.28h-.895v2.013h3.745v-2.013h-.894V9.754h.679l2.34 4.912h1.983v-2.013h-.827l-1.432-2.899h.645l1.022-1.093V3.362L62.753 2.36h-6.239zm2.851 5.381h2.454V4.373h-2.454v3.368zm5.781-5.381v4.393h1.888v-2.38h1.211v8.28h-.895v2.013h3.745v-2.013h-.894v-8.28h1.21v2.38H73.3V2.36zm9.995 0-1.062 1.072V8.15l1.116 1.148h3.455v3.355h-2.615v-1.481h-1.956v2.179l1.297 1.315h3.799l1.432-1.515v-4.69l-1.116-1.155h-3.456V4.373h2.615v1.439h1.957V3.467L79.504 2.36zm6.252 0v2.013h.894v8.28h-.894v2.013h6.03l1.23-1.273v-4.69l-.867-.92.867-.892V3.577l-1.21-1.217h-6.05zm2.85 4.573h2.454v-2.56h-2.454v2.56zm0 5.72h2.454V8.96h-2.454v3.694zM90.702 2.36l-1.27 1.328v9.65l1.203 1.328h3.88l1.284-1.329v-9.65L94.541 2.36h-3.839zm.687 10.293h2.453v-8.28h-2.453v8.28zM97.848 2.36l-1.272 1.328v9.65l1.203 1.328h3.88l1.284-1.329v-9.65l-1.257-1.327h-3.84zm.686 10.293h2.453v-8.28h-2.453v8.28zM108.899 2.36v2.013h.995l-3.32 4.302V4.373h.893V2.36h-3.745v2.013h.894v8.28h-.894v2.013h3.745v-2.013h-.893v-1.188l1.996-2.534 1.929 3.722h-.908v2.013h3.927v-2.013h-.955l-2.75-5.239 2.448-3.041h.813V2.36zM35.824 16.857l-1.377 1.445v3.072l1.337 1.701-1.768 1.855v2.96l1.244 1.274h4.283l.604-.637.538.637h1.707V27.15h-.84l-.773-1.017v-1.14h.935v-2.014h-2.131l-.733.748-.438-.527 2.092-2.178V18.29l-1.405-1.432h-3.275zm.512 3.839V18.87h2.265v1.397l-1.432 1.46-.833-1.031zm-.39 4.895 1.061-1.125 1.816 2.283v.4h-2.877v-1.558zm12.025-8.734-1.231 1.272v9.816l1.217 1.218h4.128l1.022-1.087v-2.69h-1.956v1.763h-2.455V18.87h2.455v1.736h1.956V18.06l-1.156-1.203zm9.417 0-2.69 10.292h-.812v2.014h3.744v-2.014h-1.028l.208-.816h2.904l.222.816h-.968v2.014h3.845v-2.014h-.981l-2.67-10.292h-1.774zm.908 3.77.921 3.72h-1.903l.982-3.72zm6.359-3.77-1.063 1.072v4.718l1.116 1.148h3.456v3.354h-2.615v-1.48h-1.957v2.179l1.298 1.315h3.799l1.431-1.516v-4.69l-1.115-1.154h-3.456V18.87h2.615v1.438h1.956v-2.345l-1.102-1.106zm6.251 0v2.013h.894v8.279h-.894v2.014h3.744v-2.014h-.894V18.87h.894v-2.013zm9.175 0v2.013h.895v5.098l-2.878-7.111h-2.662v2.013h.895v8.279h-.895v2.014h3.744v-2.014h-.893V22.28l2.85 6.883h1.795V18.87h.894v-2.013zm5.795 0-1.272 1.328v9.65l1.204 1.328h3.88l1.284-1.329v-9.65l-1.258-1.327h-3.838zm.685 10.292h2.455v-8.28h-2.454v8.28z" fill="#1d355b"/></g></svg>