<svg xmlns="http://www.w3.org/2000/svg" width="400" height="400"><path d="M119.167 199.417v26.75h8.666l.001-1.709.001-1.708.491.524c1.671 1.782 3.598 2.791 7.007 3.666 1.376.352 8.854.508 11.584.241 8.661-.848 12.747-3.701 14.551-10.158l.449-1.606v-8c0-8.63-.016-8.815-.967-11.5-1.759-4.963-5.445-7.334-12.783-8.223-1.243-.15-12.07-.141-12.97.011-2.815.476-5.105 1.528-6.616 3.038l-.748.748v-18.824h-8.666v26.75m96-18.834v7.917h-4.5v6.833h4.5l.001 10.625c.001 6.442.069 11.052.172 11.709.649 4.111 2.954 7.235 6.327 8.573 2.444.97 2.425.968 9.708 1.046l6.792.073v-7.026h-5.137c-6.811 0-7.565-.242-8.832-2.833l-.448-.917-.053-10.625-.052-10.625H235V188.5h-11.333v-15.833h-8.5v7.916M254 172.78c-4.973.807-8.174 3.451-9.445 7.803-.297 1.015-.414 2.145-.5 4.792l-.102 3.125H239.5v6.833h4.5v32h8.667v-32h11.166V188.5h-11.196l.057-2.625c.12-5.607 1.81-6.708 10.288-6.708h4.685v-6.5l-6.625.022c-3.644.013-6.813.054-7.042.091m57.833 4.22v4.333h8.667v-8.666h-8.667V177M82 178.25v5.417l-5.708.019c-3.14.011-5.765.011-5.834 0-.204-.032-.142.286.084.431.114.073.582.583 1.039 1.133.458.55.908 1.081 1 1.181.093.099.506.585.919 1.079a30.69 30.69 0 0 0 1.286 1.444c.295.3.501.546.457.546-.072 0 .259.396 1.174 1.404.183.202.67.771 1.083 1.265.412.494 1.05 1.244 1.417 1.667.366.423 1.041 1.212 1.5 1.754.458.542 1.071 1.25 1.362 1.573.291.323.843.962 1.227 1.42.384.459.859 1.021 1.056 1.25l4.593 5.375c2.33 2.727 4.279 4.954 4.332 4.949.053-.006 1.352-1.487 2.887-3.292a2112.272 2112.272 0 0 1 4.346-5.104c.383-.452.997-1.167 1.363-1.59a229.41 229.41 0 0 0 1.5-1.75c.459-.541 1.134-1.329 1.5-1.752.367-.423 1.004-1.17 1.417-1.661.412-.491.862-1.014 1-1.163.138-.149.587-.679 1-1.178.412-.499.862-1.028 1-1.174.277-.296.59-.659 2.151-2.493a351.77 351.77 0 0 1 2.766-3.231c.902-.998 1.583-1.842 1.583-1.959 0-.079-2.588-.143-5.75-.143H104v-10.834H82v5.417m99.655 9.317c-.049.049-.573.132-1.164.185-7.955.703-12.827 4.78-13.841 11.581-.245 1.643-.046 16.329.235 17.417.505 1.947 1.444 4.14 2.148 5.015 1.228 1.526 3.123 3.19 3.361 2.952.059-.058.106-.03.106.062 0 .422 3.045 1.584 5.667 2.162 1.585.35 14.113.531 16.761.242 6.843-.746 10.493-2.953 12.042-7.283.527-1.475.496-1.643-.345-1.857-.39-.1-1.083-.296-1.542-.437a1581.04 1581.04 0 0 0-5.107-1.555c-.197-.058-.328.085-.469.512-.372 1.126-2.12 2.688-3.424 3.058-4.759 1.349-16.844.903-18.888-.697-1.717-1.345-2.226-2.655-2.465-6.344l-.112-1.747h33.418l-.08-5.625c-.061-4.361-.141-5.905-.353-6.875-.326-1.488-.95-3.549-1.111-3.666-.062-.046-.172-.271-.243-.5-.846-2.728-4.746-5.395-8.999-6.153l-1.583-.284c-.734-.132-13.89-.285-14.012-.163m97.012-.013c-.046.046-.571.128-1.167.183-5.284.488-9.548 2.623-10.844 5.43-.191.412-.417.882-.504 1.044-.087.161-.201.724-.254 1.25l-.097.956 4.013 1.323c2.207.727 4.038 1.29 4.068 1.25.031-.041.163-.411.293-.823.864-2.732 3.935-3.744 11.325-3.73 9.11.017 10.277.843 10.454 7.396l.088 3.25-.877-.873c-2.114-2.107-3.476-2.396-11.748-2.495-6.278-.074-7.773-.008-10.492.462-3.519.608-6.868 2.5-7.945 4.488a5.7 5.7 0 0 1-.446.71c-1.011 1.219-1.497 6.148-1.024 10.392.589 5.282 3.051 7.867 8.74 9.176 1.991.458 17.171.465 19.083.009 2.183-.521 2.913-.946 4.025-2.342l.642-.807v3.53h8.5v-14.041c0-15.081-.004-15.157-.87-17.542-.759-2.091-2.79-4.695-4.222-5.413-.27-.135-.754-.404-1.075-.596-.526-.316-2.112-.91-3.666-1.373-.321-.096-1.124-.262-1.786-.368a98.425 98.425 0 0 1-1.666-.281c-.618-.115-12.442-.27-12.548-.165m33.166 19.863v19.916h8.667V187.5h-8.667v19.917m15.834 0v19.916h8.655l.047-13.208.048-13.208.53-1.224c1.602-3.702 4.216-5.262 8.803-5.253 3.261.006 5.676.727 6.732 2.008l.468.568 2.4-1.614c3.206-2.155 3.011-1.96 2.701-2.707-1.101-2.65-4.033-4.452-8.134-5-1.062-.142-6.007-.146-6.667-.005-1.453.309-3.62 1.248-4.417 1.913-1.155.965-1.982 1.807-2.333 2.377-.626 1.018-.667.901-.667-1.897V187.5h-8.166v19.917M60.378 194.226c-4.43 5.176-4.465 5.217-5.514 6.42-.429.492-.818.951-.864 1.02-.116.174-1.524 1.822-1.861 2.179-.153.162-.234.338-.181.391.054.054.022.097-.069.097-.092 0-.686.609-1.32 1.352-.634.744-1.302 1.52-1.486 1.724-.646.721-3.614 4.218-4.083 4.812-.138.174-.35.421-.472.55-.122.128-.823.926-1.557 1.773l-1.335 1.539 5.849.044 5.848.044v10.996h21.834v-11h5.847c3.642 0 5.826-.06 5.792-.16-.031-.087-1.968-2.393-4.306-5.125a11511.82 11511.82 0 0 1-4.604-5.382c-.195-.229-.908-1.058-1.584-1.842a603.684 603.684 0 0 1-2.062-2.407 56.946 56.946 0 0 0-1.083-1.248 28.16 28.16 0 0 1-.857-1.01 59.31 59.31 0 0 0-.969-1.16c-.2-.229-.714-.825-1.144-1.324a477.06 477.06 0 0 0-1.447-1.675 172.022 172.022 0 0 1-1.417-1.658c-.412-.49-1.05-1.237-1.416-1.66-.367-.424-.817-.96-1-1.193-.184-.232-.409-.467-.5-.522-.092-.054-1.909 1.937-4.039 4.425m86.842.587c5.225 1.158 6.199 3.152 6.193 12.687-.004 7.923-.58 9.894-3.33 11.392-2.055 1.12-4.066 1.424-9.416 1.424-4.736 0-6.443-.195-8.417-.958-2.01-.778-3.187-2.103-4.019-4.525-.48-1.398-.479-13.776.001-15.155 1.179-3.388 3.472-4.812 8.351-5.186 2.988-.229 8.969-.048 10.637.321m46.451-.065c1.46.282 1.539.307 2.886.926 2.024.93 2.776 2.565 2.776 6.039v2.12h-24.717l.104-1.814c.304-5.313 2.2-7.17 7.613-7.456.779-.041 1.567-.105 1.75-.142.899-.181 8.259.07 9.588.327m96.579 14.221c2.861.651 4.17 1.36 5.101 2.763l.566.851v4.334l-.559.841c-1.32 1.987-4.133 2.575-12.322 2.575-9.968 0-10.953-.509-10.953-5.666 0-4.145.542-4.938 3.917-5.736 2.338-.552 11.765-.527 14.25.038" fill="#1c1c14" fill-rule="evenodd"/></svg>