<svg xmlns="http://www.w3.org/2000/svg" xmlns:xlink="http://www.w3.org/1999/xlink" width="50" zoomAndPan="magnify" viewBox="0 0 37.5 37.499999" height="50" preserveAspectRatio="xMidYMid meet" version="1.0"><defs><clipPath id="d2c912fa5a"><path d="M 0 0 L 37.007812 0 L 37.007812 37.007812 L 0 37.007812 Z M 0 0 " clip-rule="nonzero"/></clipPath></defs><g clip-path="url(#d2c912fa5a)"><path fill="#000" d="M 0 0 L 37.5 0 L 37.5 45 L 0 45 Z M 0 0 " fill-opacity="1" fill-rule="nonzero"/><path fill="#000" d="M 0 0 L 37.5 0 L 37.5 37.5 L 0 37.5 Z M 0 0 " fill-opacity="1" fill-rule="nonzero"/><path fill="#000" d="M 0 0 L 37.5 0 L 37.5 37.5 L 0 37.5 Z M 0 0 " fill-opacity="1" fill-rule="nonzero"/></g><path fill="#fff" d="M 11.171875 18.695312 L 11.171875 21.203125 L 11.984375 21.203125 L 11.984375 20.882812 L 12.03125 20.933594 C 12.1875 21.097656 12.367188 21.195312 12.6875 21.277344 C 12.816406 21.308594 13.515625 21.324219 13.773438 21.296875 C 14.585938 21.21875 14.96875 20.953125 15.136719 20.347656 L 15.179688 20.195312 L 15.179688 19.445312 C 15.179688 18.636719 15.179688 18.617188 15.089844 18.367188 C 14.925781 17.902344 14.578125 17.679688 13.890625 17.597656 C 13.773438 17.582031 12.757812 17.582031 12.675781 17.597656 C 12.410156 17.640625 12.195312 17.742188 12.054688 17.882812 L 11.984375 17.953125 L 11.984375 16.1875 L 11.171875 16.1875 L 11.171875 18.695312 M 20.171875 16.929688 L 20.171875 17.671875 L 19.75 17.671875 L 19.75 18.3125 L 20.171875 18.3125 L 20.171875 19.308594 C 20.171875 19.914062 20.179688 20.34375 20.1875 20.40625 C 20.25 20.792969 20.464844 21.085938 20.78125 21.210938 C 21.011719 21.300781 21.007812 21.300781 21.691406 21.308594 L 22.328125 21.316406 L 22.328125 20.65625 L 21.847656 20.65625 C 21.207031 20.65625 21.136719 20.632812 21.019531 20.390625 L 20.976562 20.304688 L 20.972656 19.308594 L 20.964844 18.3125 L 22.03125 18.3125 L 22.03125 17.671875 L 20.96875 17.671875 L 20.96875 16.1875 L 20.171875 16.1875 L 20.171875 16.929688 M 23.8125 16.199219 C 23.347656 16.273438 23.046875 16.523438 22.925781 16.929688 C 22.898438 17.023438 22.886719 17.128906 22.878906 17.378906 L 22.871094 17.671875 L 22.453125 17.671875 L 22.453125 18.3125 L 22.875 18.3125 L 22.875 21.3125 L 23.6875 21.3125 L 23.6875 18.3125 L 24.734375 18.3125 L 24.734375 17.671875 L 23.683594 17.671875 L 23.691406 17.425781 C 23.703125 16.898438 23.859375 16.796875 24.65625 16.796875 L 25.09375 16.796875 L 25.09375 16.1875 L 24.472656 16.191406 C 24.132812 16.191406 23.832031 16.195312 23.8125 16.199219 M 29.234375 16.59375 L 29.234375 17 L 30.046875 17 L 30.046875 16.1875 L 29.234375 16.1875 L 29.234375 16.59375 M 7.6875 16.710938 L 7.6875 17.21875 L 7.152344 17.21875 C 6.859375 17.222656 6.613281 17.222656 6.605469 17.21875 C 6.585938 17.21875 6.59375 17.246094 6.613281 17.261719 C 6.625 17.269531 6.667969 17.316406 6.710938 17.367188 C 6.753906 17.417969 6.796875 17.46875 6.804688 17.476562 C 6.8125 17.488281 6.851562 17.53125 6.890625 17.578125 C 6.929688 17.625 6.96875 17.671875 7.011719 17.714844 C 7.039062 17.742188 7.058594 17.765625 7.054688 17.765625 C 7.046875 17.765625 7.078125 17.804688 7.164062 17.898438 C 7.179688 17.917969 7.226562 17.96875 7.265625 18.015625 C 7.304688 18.0625 7.363281 18.132812 7.398438 18.171875 C 7.433594 18.210938 7.496094 18.285156 7.539062 18.335938 C 7.582031 18.386719 7.640625 18.453125 7.667969 18.484375 C 7.695312 18.515625 7.746094 18.574219 7.78125 18.617188 C 7.816406 18.660156 7.863281 18.710938 7.878906 18.734375 L 8.3125 19.238281 C 8.53125 19.492188 8.710938 19.703125 8.71875 19.703125 C 8.722656 19.703125 8.84375 19.5625 8.988281 19.394531 C 9.125 19.234375 9.257812 19.074219 9.394531 18.914062 C 9.429688 18.871094 9.488281 18.804688 9.523438 18.765625 C 9.570312 18.710938 9.617188 18.65625 9.664062 18.601562 C 9.707031 18.550781 9.769531 18.476562 9.804688 18.4375 C 9.839844 18.398438 9.898438 18.328125 9.9375 18.28125 C 9.976562 18.234375 10.019531 18.1875 10.03125 18.171875 C 10.042969 18.160156 10.085938 18.109375 10.125 18.0625 C 10.164062 18.015625 10.207031 17.964844 10.21875 17.953125 C 10.246094 17.925781 10.273438 17.890625 10.421875 17.71875 C 10.507812 17.617188 10.59375 17.515625 10.679688 17.414062 C 10.765625 17.324219 10.828125 17.242188 10.828125 17.230469 C 10.828125 17.226562 10.585938 17.21875 10.289062 17.21875 L 9.75 17.21875 L 9.75 16.203125 L 7.6875 16.203125 L 7.6875 16.710938 M 17.03125 17.585938 C 17.027344 17.589844 16.976562 17.597656 16.921875 17.601562 C 16.175781 17.667969 15.71875 18.050781 15.625 18.6875 C 15.601562 18.839844 15.617188 20.21875 15.644531 20.320312 C 15.691406 20.503906 15.78125 20.707031 15.847656 20.789062 C 15.960938 20.933594 16.140625 21.089844 16.160156 21.066406 C 16.167969 21.0625 16.171875 21.0625 16.171875 21.074219 C 16.171875 21.113281 16.457031 21.222656 16.703125 21.277344 C 16.851562 21.308594 18.027344 21.324219 18.273438 21.296875 C 18.917969 21.226562 19.257812 21.023438 19.402344 20.617188 C 19.453125 20.476562 19.449219 20.460938 19.371094 20.441406 C 19.335938 20.433594 19.269531 20.414062 19.226562 20.402344 C 19.066406 20.351562 18.90625 20.304688 18.746094 20.253906 C 18.730469 20.25 18.71875 20.261719 18.703125 20.304688 C 18.667969 20.410156 18.503906 20.554688 18.382812 20.589844 C 17.9375 20.714844 16.804688 20.675781 16.613281 20.523438 C 16.449219 20.398438 16.402344 20.273438 16.382812 19.929688 L 16.371094 19.765625 L 19.503906 19.765625 L 19.496094 19.238281 C 19.488281 18.828125 19.484375 18.683594 19.460938 18.59375 C 19.433594 18.453125 19.375 18.261719 19.359375 18.25 C 19.351562 18.246094 19.34375 18.226562 19.335938 18.203125 C 19.257812 17.949219 18.890625 17.699219 18.492188 17.625 L 18.34375 17.601562 C 18.273438 17.585938 17.042969 17.574219 17.03125 17.585938 M 26.125 17.582031 C 26.121094 17.585938 26.070312 17.59375 26.015625 17.601562 C 25.519531 17.644531 25.121094 17.847656 25 18.109375 C 24.980469 18.148438 24.960938 18.191406 24.953125 18.207031 C 24.945312 18.222656 24.933594 18.273438 24.929688 18.324219 L 24.917969 18.414062 L 25.296875 18.539062 C 25.503906 18.605469 25.671875 18.660156 25.675781 18.65625 C 25.679688 18.652344 25.691406 18.617188 25.703125 18.578125 C 25.785156 18.320312 26.074219 18.226562 26.765625 18.226562 C 27.621094 18.230469 27.730469 18.308594 27.746094 18.921875 L 27.753906 19.226562 L 27.671875 19.144531 C 27.472656 18.945312 27.347656 18.921875 26.570312 18.910156 C 25.980469 18.902344 25.839844 18.910156 25.585938 18.953125 C 25.257812 19.011719 24.941406 19.1875 24.84375 19.375 C 24.828125 19.398438 24.816406 19.421875 24.800781 19.441406 C 24.707031 19.554688 24.660156 20.019531 24.703125 20.414062 C 24.757812 20.910156 24.988281 21.152344 25.523438 21.277344 C 25.710938 21.320312 27.132812 21.320312 27.3125 21.277344 C 27.515625 21.226562 27.585938 21.1875 27.691406 21.058594 L 27.75 20.980469 L 27.75 21.3125 L 28.546875 21.3125 L 28.546875 19.996094 C 28.546875 18.582031 28.546875 18.574219 28.464844 18.351562 C 28.394531 18.15625 28.203125 17.910156 28.070312 17.84375 C 28.042969 17.832031 28 17.804688 27.96875 17.789062 C 27.917969 17.757812 27.769531 17.703125 27.625 17.660156 C 27.59375 17.652344 27.519531 17.636719 27.457031 17.625 C 27.40625 17.617188 27.351562 17.609375 27.300781 17.597656 C 27.242188 17.585938 26.136719 17.574219 26.125 17.582031 M 29.234375 19.445312 L 29.234375 21.3125 L 30.046875 21.3125 L 30.046875 17.578125 L 29.234375 17.578125 L 29.234375 19.445312 M 30.71875 19.445312 L 30.71875 21.3125 L 31.53125 21.3125 L 31.539062 18.835938 L 31.589844 18.722656 C 31.738281 18.375 31.984375 18.226562 32.414062 18.230469 C 32.71875 18.230469 32.945312 18.296875 33.046875 18.417969 L 33.089844 18.46875 L 33.3125 18.320312 C 33.613281 18.117188 33.597656 18.136719 33.566406 18.066406 C 33.464844 17.816406 33.1875 17.648438 32.804688 17.597656 C 32.707031 17.582031 32.242188 17.582031 32.179688 17.597656 C 32.042969 17.625 31.839844 17.714844 31.765625 17.773438 C 31.65625 17.867188 31.578125 17.945312 31.546875 18 C 31.488281 18.09375 31.484375 18.082031 31.484375 17.820312 L 31.484375 17.578125 L 30.71875 17.578125 L 30.71875 19.445312 M 5.660156 18.207031 C 5.246094 18.695312 5.242188 18.699219 5.144531 18.8125 C 5.101562 18.855469 5.066406 18.898438 5.0625 18.90625 C 5.050781 18.921875 4.917969 19.078125 4.886719 19.109375 C 4.875 19.125 4.867188 19.140625 4.871094 19.148438 C 4.875 19.152344 4.875 19.15625 4.863281 19.15625 C 4.855469 19.15625 4.800781 19.214844 4.742188 19.28125 C 4.679688 19.351562 4.617188 19.425781 4.601562 19.445312 C 4.539062 19.511719 4.261719 19.839844 4.21875 19.894531 C 4.207031 19.910156 4.1875 19.933594 4.175781 19.949219 C 4.164062 19.960938 4.097656 20.035156 4.027344 20.113281 L 3.902344 20.257812 L 4.453125 20.261719 L 5 20.265625 L 5 21.296875 L 7.046875 21.296875 L 7.046875 20.265625 L 7.59375 20.265625 C 7.9375 20.265625 8.140625 20.261719 8.136719 20.25 C 8.136719 20.242188 7.953125 20.027344 7.734375 19.769531 C 7.589844 19.601562 7.445312 19.433594 7.304688 19.265625 C 7.285156 19.246094 7.21875 19.167969 7.152344 19.09375 C 7.089844 19.019531 7.023438 18.941406 6.960938 18.867188 C 6.925781 18.828125 6.894531 18.789062 6.859375 18.75 C 6.832031 18.71875 6.804688 18.6875 6.777344 18.65625 C 6.75 18.617188 6.71875 18.582031 6.6875 18.546875 C 6.667969 18.523438 6.621094 18.46875 6.582031 18.421875 C 6.535156 18.371094 6.492188 18.316406 6.445312 18.265625 C 6.402344 18.214844 6.355469 18.164062 6.3125 18.109375 C 6.273438 18.0625 6.214844 17.996094 6.179688 17.953125 C 6.144531 17.914062 6.101562 17.863281 6.085938 17.84375 C 6.070312 17.820312 6.046875 17.800781 6.039062 17.792969 C 6.03125 17.789062 5.859375 17.976562 5.660156 18.207031 M 13.800781 18.265625 C 14.292969 18.371094 14.382812 18.558594 14.382812 19.453125 C 14.382812 20.195312 14.328125 20.378906 14.070312 20.519531 C 13.878906 20.625 13.6875 20.65625 13.1875 20.65625 C 12.742188 20.65625 12.582031 20.636719 12.398438 20.566406 C 12.210938 20.492188 12.101562 20.367188 12.023438 20.140625 C 11.976562 20.007812 11.976562 18.847656 12.023438 18.71875 C 12.132812 18.402344 12.347656 18.269531 12.804688 18.234375 C 13.085938 18.210938 13.644531 18.230469 13.800781 18.265625 M 18.15625 18.257812 C 18.292969 18.285156 18.300781 18.285156 18.425781 18.34375 C 18.617188 18.429688 18.6875 18.585938 18.6875 18.910156 L 18.6875 19.109375 L 16.371094 19.109375 L 16.378906 18.9375 C 16.410156 18.441406 16.585938 18.265625 17.09375 18.242188 C 17.167969 18.238281 17.242188 18.230469 17.257812 18.226562 C 17.34375 18.210938 18.03125 18.234375 18.15625 18.257812 M 27.210938 19.589844 C 27.480469 19.652344 27.601562 19.71875 27.6875 19.851562 L 27.742188 19.929688 L 27.742188 20.335938 L 27.691406 20.414062 C 27.566406 20.601562 27.300781 20.65625 26.535156 20.65625 C 25.601562 20.65625 25.507812 20.609375 25.507812 20.125 C 25.507812 19.738281 25.558594 19.660156 25.875 19.585938 C 26.09375 19.535156 26.976562 19.539062 27.210938 19.589844 " fill-opacity="1" fill-rule="evenodd"/></svg>
