<svg xmlns="http://www.w3.org/2000/svg" xmlns:xlink="http://www.w3.org/1999/xlink" width="50" zoomAndPan="magnify" viewBox="0 0 37.5 37.499999" height="50" preserveAspectRatio="xMidYMid meet" version="1.0"><defs><clipPath id="8cab3e8e94"><path d="M 0 0 L 37.007812 0 L 37.007812 37.007812 L 0 37.007812 Z M 0 0 " clip-rule="nonzero"/></clipPath><clipPath id="b71c265b20"><path d="M 0 0 L 23 0 L 23 37.007812 L 0 37.007812 Z M 0 0 " clip-rule="nonzero"/></clipPath></defs><g clip-path="url(#8cab3e8e94)"><path fill="#ffffff" d="M 0 0 L 37.5 0 L 37.5 45 L 0 45 Z M 0 0 " fill-opacity="1" fill-rule="nonzero"/><path fill="#ffffff" d="M 0 0 L 37.5 0 L 37.5 37.5 L 0 37.5 Z M 0 0 " fill-opacity="1" fill-rule="nonzero"/><path fill="#ffffff" d="M 0 0 L 37.5 0 L 37.5 37.5 L 0 37.5 Z M 0 0 " fill-opacity="1" fill-rule="nonzero"/><path fill="#c0a971" d="M 1.957031 15.25 C 1.957031 18.585938 2.515625 21.710938 4.191406 24.285156 L 4.191406 22.058594 C 4.191406 19.28125 6.429688 17.332031 8.734375 16.082031 C 6.359375 16.847656 3.773438 16.292969 1.957031 15.25 M 3.914062 12.886719 L 3.144531 12.886719 C 3.003906 12.46875 4.191406 11.703125 4.542969 12.261719 Z M 1.539062 12.539062 C 2.164062 12.953125 3.074219 13.164062 3.984375 13.09375 C 4.75 13.648438 5.800781 12.121094 6.917969 12.121094 C 8.523438 11.914062 10.550781 11.703125 11.667969 13.09375 L 11.109375 12.050781 C 9.574219 11.914062 8.316406 11.425781 7.125 10.730469 C 4.75 9.6875 3.5625 13.09375 1.539062 12.539062 M 0.140625 7.046875 C 0.910156 7.257812 1.675781 7.464844 2.375 7.464844 C 3.984375 6.839844 4.402344 5.519531 3.773438 3.851562 C 2.792969 2.460938 1.539062 1.695312 0.140625 1.417969 Z M 10.898438 37.558594 C 11.109375 37.351562 11.457031 37.003906 11.667969 36.722656 C 16 31.164062 7.546875 27.898438 7.753906 22.546875 C 7.964844 20.390625 9.152344 18.792969 10.550781 17.054688 L 10.480469 16.917969 C 9.152344 18.238281 8.664062 19.070312 7.753906 20.320312 C 5.171875 25.605469 8.804688 32.902344 5.03125 37.351562 Z M 28.367188 18.652344 C 28.367188 26.367188 24.734375 33.109375 19.003906 37.558594 L 38.011719 37.558594 L 38.011719 -0.179688 L 19.003906 -0.179688 C 24.664062 4.058594 28.367188 10.941406 28.367188 18.652344 " fill-opacity="1" fill-rule="nonzero"/></g><g clip-path="url(#b71c265b20)"><path fill="#c0a971" d="M 0.140625 37.558594 L 3.355469 37.558594 L 4.121094 36.792969 C 8.523438 30.816406 3.285156 26.578125 0 21.851562 Z M 9.082031 -0.179688 L 0.140625 -0.179688 L 0.140625 0.445312 C 0.976562 0.582031 1.957031 0.863281 2.726562 1.210938 C 4.542969 2.25 5.9375 3.988281 5.730469 6.144531 L 9.710938 5.726562 C 10.269531 4.40625 10.480469 2.390625 9.921875 1.347656 C 9.710938 0.652344 9.363281 0.0976562 9.082031 -0.179688 M 10.898438 -0.179688 C 11.738281 1 11.738281 2.460938 11.878906 3.640625 C 13.484375 2.460938 15.441406 1.695312 17.46875 2.25 C 16.070312 1.210938 15.09375 0.304688 13.34375 -0.320312 Z M 18.863281 19 L 18.515625 19.835938 L 18.097656 18.792969 C 17.117188 19 16.140625 19.347656 15.652344 20.390625 C 15.511719 20.738281 15.789062 21.226562 15.441406 21.433594 C 14.8125 21.296875 15.09375 20.253906 15.09375 19.628906 C 15.859375 18.863281 17.886719 17.265625 18.65625 17.890625 C 18.863281 18.027344 19.003906 18.585938 18.863281 19 M 14.53125 26.714844 C 13.972656 26.300781 14.183594 25.535156 14.183594 24.980469 L 14.53125 24.632812 C 15.09375 26.367188 16.488281 24.285156 17.539062 24.492188 C 18.097656 24.285156 17.886719 23.519531 18.375 23.660156 C 19.285156 26.367188 16.070312 25.882812 14.53125 26.714844 M 22.289062 27.0625 C 22.707031 23.519531 22.429688 19.765625 19.84375 17.332031 C 19.285156 17.195312 18.515625 17.542969 18.097656 16.984375 C 16.910156 18.027344 15.371094 18.515625 14.324219 19.695312 C 13.136719 20.042969 11.949219 19.28125 10.761719 19.070312 L 10.761719 18.652344 C 9.152344 19.695312 9.574219 21.851562 9.222656 23.449219 C 9.640625 25.257812 11.667969 26.019531 12.996094 27.0625 C 15.023438 27.410156 16.910156 26.507812 18.585938 25.882812 C 18.933594 26.230469 19.355469 26.4375 19.144531 26.855469 C 17.746094 28.800781 15.722656 29.636719 13.34375 29.425781 C 14.742188 32.136719 13.765625 35.195312 12.296875 37.558594 L 13.695312 37.558594 C 18.027344 35.613281 22.007812 32.625 22.289062 27.0625 " fill-opacity="1" fill-rule="nonzero"/></g><path fill="#c0a971" d="M 25.433594 12.539062 C 24.246094 8.4375 20.613281 3.015625 15.722656 3.292969 C 13.90625 3.433594 12.085938 4.824219 11.390625 5.867188 C 12.714844 6.628906 14.113281 7.671875 15.300781 8.785156 C 15.160156 9.203125 15.511719 9.757812 14.953125 9.964844 C 14.324219 9.410156 13.765625 8.160156 12.925781 8.578125 C 13.554688 9.964844 15.300781 10.105469 16.558594 10.382812 C 17.117188 10.941406 16.910156 11.773438 17.957031 11.355469 C 18.515625 11.496094 18.726562 12.121094 18.796875 12.539062 C 17.957031 14.136719 15.582031 13.09375 14.253906 13.371094 C 15.300781 13.789062 16.488281 13.929688 17.46875 14.554688 C 18.445312 15.179688 18.796875 13.71875 19.214844 13.164062 C 20.960938 13.582031 19.984375 15.386719 20.75 16.359375 C 24.386719 20.113281 23.6875 26.785156 21.800781 31.027344 C 26.96875 26.714844 26.550781 16.636719 25.433594 12.539062 " fill-opacity="1" fill-rule="nonzero"/></svg>