<svg xmlns="http://www.w3.org/2000/svg" xmlns:xlink="http://www.w3.org/1999/xlink" width="50" zoomAndPan="magnify" viewBox="0 0 37.5 37.499999" height="50" preserveAspectRatio="xMidYMid meet" version="1.0"><defs><clipPath id="261ccb250f"><path d="M 0 0 L 37.007812 0 L 37.007812 37.007812 L 0 37.007812 Z M 0 0 " clip-rule="nonzero"/></clipPath><clipPath id="09d0dcb1bf"><path d="M 0 11.25 L 37 11.25 L 37 21 L 0 21 Z M 0 11.25 " clip-rule="nonzero"/></clipPath><clipPath id="c8cfa429c3"><path d="M 0 23 L 37 23 L 37 26.25 L 0 26.25 Z M 0 23 " clip-rule="nonzero"/></clipPath></defs><g clip-path="url(#261ccb250f)"><path fill="#ffffff" d="M 0 0 L 37.5 0 L 37.5 45 L 0 45 Z M 0 0 " fill-opacity="1" fill-rule="nonzero"/><path fill="#ffffff" d="M 0 0 L 37.5 0 L 37.5 37.5 L 0 37.5 Z M 0 0 " fill-opacity="1" fill-rule="nonzero"/><path fill="#ffffff" d="M 0 0 L 37.5 0 L 37.5 37.5 L 0 37.5 Z M 0 0 " fill-opacity="1" fill-rule="nonzero"/></g><g clip-path="url(#09d0dcb1bf)"><path fill="#f2b02d" d="M 15.402344 17.992188 C 14.597656 17.753906 13.890625 17.503906 13.507812 17.203125 C 13.382812 17.097656 13.261719 16.972656 13.253906 16.773438 C 13.253906 16.621094 13.351562 16.488281 13.464844 16.40625 C 13.582031 16.324219 13.722656 16.265625 13.902344 16.210938 C 14.578125 16.011719 15.296875 15.902344 15.925781 15.761719 C 16.550781 15.621094 17.070312 15.441406 17.351562 15.167969 C 17.539062 14.984375 17.652344 14.765625 17.660156 14.414062 L 17.660156 14.402344 C 17.660156 14.164062 17.511719 13.9375 17.144531 13.699219 C 16.785156 13.460938 16.230469 13.242188 15.539062 13.058594 C 14.164062 12.683594 12.257812 12.433594 10.257812 12.273438 C 6.257812 11.945312 1.859375 11.960938 0.289062 11.945312 L 0.28125 11.945312 C 0.25 11.945312 0.214844 11.941406 0.183594 11.929688 C 0.183594 11.929688 0.179688 11.929688 0.179688 11.929688 L 0.179688 11.925781 L 0.171875 11.925781 C 0.171875 11.925781 0.167969 11.925781 0.167969 11.925781 C 0.167969 11.921875 0.167969 11.921875 0.167969 11.921875 C 0.164062 11.921875 0.164062 11.921875 0.164062 11.921875 L 0.160156 11.921875 C 0.15625 11.917969 0.15625 11.917969 0.152344 11.917969 C 0.0625 11.875 0.0117188 11.808594 0 11.710938 C -0.0117188 11.570312 0.105469 11.449219 0.261719 11.4375 C 1.90625 11.320312 3.859375 11.257812 5.925781 11.257812 C 11.285156 11.257812 17.414062 11.671875 21.046875 12.625 C 22.261719 12.949219 23.199219 13.320312 23.769531 13.808594 C 24.09375 14.085938 24.300781 14.425781 24.300781 14.804688 L 24.300781 14.847656 C 24.28125 15.339844 23.972656 15.722656 23.566406 15.980469 C 23.160156 16.242188 22.652344 16.40625 22.140625 16.515625 C 21.605469 16.632812 21.0625 16.695312 20.625 16.722656 C 24.742188 18.84375 30.792969 19.261719 34.21875 19.257812 C 35.191406 19.257812 35.953125 19.226562 36.394531 19.191406 C 36.550781 19.179688 36.6875 19.285156 36.703125 19.421875 C 36.71875 19.5625 36.605469 19.683594 36.453125 19.699219 C 34.085938 19.933594 31.90625 20.03125 29.910156 20.03125 C 22.664062 20.035156 17.859375 18.734375 15.402344 17.992188 Z M 15.402344 17.992188 " fill-opacity="1" fill-rule="evenodd"/></g><g clip-path="url(#c8cfa429c3)"><path fill="#1d355b" d="M 2.765625 25.78125 C 2.875 25.691406 2.929688 25.5625 2.929688 25.390625 C 2.929688 25.21875 2.871094 25.082031 2.757812 24.980469 C 2.648438 24.878906 2.492188 24.828125 2.296875 24.828125 L 0.292969 24.828125 L 0.292969 25.914062 L 2.289062 25.914062 C 2.496094 25.914062 2.65625 25.871094 2.765625 25.78125 Z M 2.488281 24.535156 C 2.628906 24.484375 2.730469 24.390625 2.789062 24.25 C 2.820312 24.183594 2.832031 24.109375 2.832031 24.03125 C 2.839844 23.890625 2.792969 23.773438 2.695312 23.671875 C 2.601562 23.582031 2.476562 23.535156 2.316406 23.535156 L 0.292969 23.535156 L 0.292969 24.578125 L 2.257812 24.578125 C 2.339844 24.578125 2.414062 24.566406 2.488281 24.535156 Z M 3.054688 24.957031 C 3.148438 25.074219 3.199219 25.222656 3.199219 25.40625 C 3.199219 25.523438 3.179688 25.628906 3.136719 25.71875 C 3.09375 25.8125 3.035156 25.894531 2.957031 25.960938 C 2.875 26.03125 2.777344 26.082031 2.671875 26.113281 C 2.558594 26.148438 2.433594 26.164062 2.292969 26.164062 L 0.0351562 26.164062 L 0.0351562 23.285156 L 2.273438 23.285156 C 2.539062 23.285156 2.746094 23.351562 2.890625 23.484375 C 3.039062 23.617188 3.109375 23.796875 3.109375 24.019531 C 3.109375 24.1875 3.070312 24.324219 2.988281 24.433594 C 2.910156 24.539062 2.78125 24.625 2.609375 24.691406 C 2.808594 24.753906 2.957031 24.84375 3.054688 24.957031 Z M 4.628906 26.164062 L 4.628906 23.285156 L 7.308594 23.285156 L 7.308594 23.535156 L 4.886719 23.535156 L 4.886719 24.515625 L 6.570312 24.515625 L 6.570312 24.765625 L 4.886719 24.765625 L 4.886719 25.914062 L 7.421875 25.914062 L 7.421875 26.164062 Z M 9.945312 23.535156 L 9.945312 26.164062 L 9.6875 26.164062 L 9.6875 23.535156 L 8.316406 23.535156 L 8.316406 23.285156 L 11.320312 23.285156 L 11.320312 23.535156 Z M 15.027344 24.492188 C 15.113281 24.417969 15.152344 24.324219 15.148438 24.207031 C 15.148438 24.097656 15.105469 24.003906 15.023438 23.9375 C 14.941406 23.867188 14.824219 23.835938 14.675781 23.835938 L 13.097656 23.835938 L 13.097656 24.597656 L 14.679688 24.597656 C 14.832031 24.597656 14.945312 24.5625 15.027344 24.492188 Z M 15.128906 26.164062 L 14.421875 25.148438 L 13.097656 25.148438 L 13.097656 26.164062 L 12.398438 26.164062 L 12.398438 23.285156 L 14.753906 23.285156 C 14.90625 23.285156 15.054688 23.304688 15.199219 23.351562 C 15.335938 23.398438 15.449219 23.460938 15.542969 23.546875 C 15.746094 23.726562 15.847656 23.953125 15.839844 24.226562 C 15.839844 24.6875 15.621094 24.976562 15.183594 25.097656 L 15.914062 26.164062 Z M 17.175781 26.164062 L 17.875 26.164062 L 17.875 23.285156 L 17.175781 23.285156 Z M 21.253906 26.164062 L 20.601562 26.164062 L 18.902344 23.285156 L 19.683594 23.285156 L 20.925781 25.394531 L 22.171875 23.285156 L 22.953125 23.285156 Z M 23.914062 26.164062 L 23.914062 23.285156 L 27.03125 23.285156 L 27.03125 23.835938 L 24.613281 23.835938 L 24.613281 24.429688 L 26.292969 24.429688 L 26.292969 24.980469 L 24.613281 24.980469 L 24.613281 25.617188 L 27.144531 25.617188 L 27.144531 26.164062 Z M 31.046875 24.492188 C 31.132812 24.417969 31.171875 24.324219 31.167969 24.207031 C 31.167969 24.097656 31.125 24.003906 31.042969 23.9375 C 30.960938 23.867188 30.847656 23.835938 30.695312 23.835938 L 29.117188 23.835938 L 29.117188 24.597656 L 30.699219 24.597656 C 30.851562 24.597656 30.964844 24.5625 31.046875 24.492188 Z M 31.148438 26.164062 L 30.441406 25.148438 L 29.117188 25.148438 L 29.117188 26.164062 L 28.417969 26.164062 L 28.417969 23.285156 L 30.773438 23.285156 C 30.929688 23.285156 31.078125 23.304688 31.222656 23.351562 C 31.355469 23.398438 31.46875 23.460938 31.5625 23.546875 C 31.769531 23.726562 31.867188 23.953125 31.859375 24.226562 C 31.859375 24.6875 31.640625 24.976562 31.203125 25.097656 L 31.933594 26.164062 Z M 35.355469 23.851562 C 35.140625 23.800781 34.925781 23.773438 34.707031 23.773438 C 34.40625 23.773438 34.179688 23.800781 34.027344 23.855469 C 33.875 23.910156 33.796875 23.984375 33.796875 24.078125 C 33.796875 24.175781 33.882812 24.246094 34.046875 24.285156 C 34.117188 24.300781 34.191406 24.3125 34.269531 24.320312 C 34.351562 24.328125 34.433594 24.332031 34.527344 24.335938 C 34.617188 24.339844 34.714844 24.34375 34.816406 24.347656 C 34.917969 24.355469 35.027344 24.359375 35.136719 24.371094 C 35.363281 24.394531 35.558594 24.421875 35.726562 24.460938 C 35.890625 24.503906 36.03125 24.554688 36.140625 24.625 C 36.253906 24.691406 36.335938 24.777344 36.390625 24.875 C 36.445312 24.976562 36.472656 25.097656 36.472656 25.238281 C 36.472656 25.550781 36.328125 25.796875 36.042969 25.972656 C 35.757812 26.144531 35.339844 26.234375 34.789062 26.234375 C 34.429688 26.234375 34.097656 26.191406 33.792969 26.105469 C 33.480469 26.019531 33.191406 25.878906 32.925781 25.691406 L 33.304688 25.222656 C 33.539062 25.367188 33.785156 25.480469 34.046875 25.558594 C 34.292969 25.632812 34.550781 25.667969 34.824219 25.667969 C 35.113281 25.667969 35.335938 25.632812 35.492188 25.558594 C 35.648438 25.484375 35.726562 25.386719 35.726562 25.265625 C 35.730469 25.207031 35.707031 25.15625 35.660156 25.121094 C 35.601562 25.078125 35.535156 25.050781 35.464844 25.039062 C 35.363281 25.019531 35.261719 25.007812 35.15625 25.003906 C 35.035156 25 34.898438 24.992188 34.742188 24.984375 C 34.496094 24.976562 34.25 24.953125 34.007812 24.914062 C 33.828125 24.886719 33.652344 24.835938 33.484375 24.757812 C 33.359375 24.703125 33.253906 24.617188 33.175781 24.503906 C 33.101562 24.394531 33.066406 24.269531 33.070312 24.136719 C 33.070312 23.851562 33.207031 23.628906 33.480469 23.460938 C 33.753906 23.296875 34.152344 23.214844 34.675781 23.214844 C 35.378906 23.214844 35.941406 23.355469 36.367188 23.636719 L 35.96875 24.097656 C 35.777344 23.988281 35.570312 23.90625 35.355469 23.851562 Z M 35.355469 23.851562 " fill-opacity="1" fill-rule="evenodd"/></g></svg>