<svg width="70" height="28" fill="none" xmlns="http://www.w3.org/2000/svg"><path fill-rule="evenodd" clip-rule="evenodd" d="M28.749 12.585c-1.498-.445-2.82-.908-3.538-1.474-.232-.194-.458-.431-.469-.797-.004-.285.181-.537.395-.686.218-.159.481-.267.813-.367 1.261-.374 2.607-.576 3.776-.841 1.172-.26 2.14-.595 2.665-1.107.35-.342.558-.75.573-1.404v-.021c-.001-.445-.279-.868-.96-1.318-.673-.442-1.71-.85-2.995-1.196-2.572-.697-6.126-1.163-9.863-1.466C11.679 1.3 3.47 1.328.541 1.299H.524a.557.557 0 0 1-.178-.03c-.004 0-.007-.002-.01-.003l-.002-.001-.01-.003-.002-.002c-.002 0-.005 0-.008-.002a.01.01 0 0 0-.004-.002.04.04 0 0 0-.006-.003l-.006-.002a.081.081 0 0 1-.013-.006l-.002-.001A.476.476 0 0 1 .002.86C-.021.598.196.37.488.349 3.561.129 7.202.014 11.058.014c10.008.002 21.447.77 28.23 2.554 2.266.601 4.02 1.299 5.085 2.21.605.519.992 1.151.99 1.855l-.001.083c-.034.919-.614 1.636-1.37 2.114-.758.487-1.705.792-2.664 1.002-.997.218-2.01.329-2.83.386 7.687 3.958 18.98 4.74 25.379 4.732 1.81 0 3.234-.06 4.063-.123.289-.022.543.17.572.427.029.26-.182.491-.469.52-4.419.437-8.487.62-12.21.62-13.528.002-22.492-2.421-27.084-3.81Z" fill="#F2B02D"/><path fill-rule="evenodd" clip-rule="evenodd" d="M5.162 27.126c.203-.166.304-.41.304-.731 0-.322-.105-.577-.315-.765-.21-.188-.498-.282-.864-.282H.55v2.027h3.722c.39 0 .687-.083.89-.249Zm-.52-2.325a.966.966 0 0 0 .564-.535c.055-.125.082-.263.082-.411a.893.893 0 0 0-.26-.665c-.173-.171-.407-.257-.704-.257H.55v1.947h3.663c.153 0 .296-.026.43-.078Zm1.057.788c.18.215.271.494.271.835 0 .218-.038.414-.115.587a1.232 1.232 0 0 1-.333.446 1.533 1.533 0 0 1-.534.286c-.21.067-.447.1-.709.1H.068v-5.377h4.174c.5 0 .885.123 1.157.371s.408.582.408 1.003c0 .312-.075.568-.226.768-.151.201-.387.36-.708.48.37.118.646.285.826.501Zm2.941 2.254v-5.377h5.005v.467H9.12v1.828h3.144v.468H9.121v2.146h4.731v.468H8.64Zm9.928-4.91v4.91h-.482v-4.91h-2.565v-.467h5.613v.467h-2.566Zm9.481 1.789a.667.667 0 0 0 .226-.533c0-.21-.077-.38-.23-.507-.153-.127-.37-.191-.653-.191H24.45v1.426h2.95c.283 0 .499-.065.65-.195Zm.189 3.121-1.32-1.901h-2.47v1.901h-1.304v-5.377h4.397a2.6 2.6 0 0 1 .834.126c.25.084.462.204.638.36a1.643 1.643 0 0 1 .552 1.274c0 .857-.408 1.397-1.223 1.62l1.364 1.997h-1.468Zm3.826 0h1.305v-5.377h-1.305v5.377Zm7.608 0h-1.216l-3.174-5.377h1.46l2.322 3.936 2.32-3.936h1.462l-3.174 5.377Zm4.968 0v-5.377h5.821v1.025h-4.516v1.114h3.137v1.025h-3.137v1.188h4.724v1.025H44.64Zm13.314-3.121a.667.667 0 0 0 .226-.533c0-.21-.077-.38-.23-.507-.153-.127-.37-.191-.652-.191h-2.944v1.426h2.95c.283 0 .499-.065.65-.195Zm.189 3.121-1.32-1.901h-2.47v1.901H53.05v-5.377h4.397a2.6 2.6 0 0 1 .834.126c.25.084.462.204.638.36a1.643 1.643 0 0 1 .552 1.274c0 .857-.408 1.397-1.223 1.62l1.364 1.997h-1.468Zm7.853-4.319a4.958 4.958 0 0 0-1.209-.145c-.564 0-.987.051-1.272.152-.284.102-.426.24-.426.413 0 .183.156.312.467.386.129.03.267.052.416.067.148.015.307.026.478.033.17.008.35.015.541.022.19.008.39.021.597.041.42.04.786.097 1.098.171.31.074.57.175.778.301.208.126.362.284.463.471.102.189.152.414.152.677 0 .584-.265 1.04-.797 1.366-.531.327-1.311.49-2.34.49-.671 0-1.292-.08-1.86-.237a5.37 5.37 0 0 1-1.624-.773l.712-.876a5.91 5.91 0 0 0 1.386.627c.46.137.942.205 1.446.205.544 0 .962-.07 1.253-.208.292-.139.438-.32.438-.543a.326.326 0 0 0-.126-.274.927.927 0 0 0-.363-.149 3.465 3.465 0 0 0-.579-.067c-.227-.01-.484-.022-.771-.037a10.64 10.64 0 0 1-1.372-.13 3.647 3.647 0 0 1-.975-.29 1.435 1.435 0 0 1-.582-.475 1.198 1.198 0 0 1-.193-.687c0-.53.255-.95.764-1.259.509-.31 1.253-.464 2.232-.464 1.31 0 2.363.262 3.159.787l-.742.862a4.865 4.865 0 0 0-1.15-.457Z" fill="#1d355b"/></svg>