<svg xmlns="http://www.w3.org/2000/svg" width="400" height="84.388"><g fill-rule="evenodd"><path d="M223.042 5.277c-.259.104-.275.39-.023.39.253 0 1.999 1.501 3.29 2.828 1.592 1.635 1.691 1.751 1.691 1.963 0 .108.15.277.333.375.184.098.334.273.334.387 0 .115.222.469.493.786.271.318.496.68.5.805.004.126.232.485.507.798.275.313.5.709.5.879 0 .17.11.352.244.404.135.051.358.364.496.694.138.33.403.793.589 1.03.185.236.337.557.337.714 0 .157.151.459.335.672.184.212.421.674.527 1.027.106.353.293.725.415.827.123.102.224.269.224.373 0 .103.225.638.499 1.188.275.55.499 1.134.5 1.298 0 .164.145.502.322.75.176.248.406.877.509 1.397.103.52.29 1.03.414 1.134.125.103.279.577.343 1.054.064.477.226 1.129.36 1.45.134.321.349 1.228.478 2.016s.348 1.65.487 1.917c.142.273.253.92.254 1.484.003.915.136 2.122.67 6.083.215 1.592.104 4.408-.265 6.75-.13.825-.285 2.325-.344 3.333-.059 1.014-.21 2.038-.338 2.291-.127.252-.339 1.179-.471 2.06-.133.881-.319 1.696-.415 1.811-.095.115-.253.651-.351 1.19-.098.54-.322 1.23-.499 1.533-.176.303-.32.731-.32.95 0 .46-.326 1.249-.515 1.249-.071 0-.213.406-.316.904-.103.497-.293.99-.421 1.097-.128.106-.351.599-.495 1.096-.145.496-.33.903-.411.903-.082 0-.273.375-.426.833-.152.458-.34.833-.417.833-.077 0-.233.282-.346.625-.217.659-1.679 3.225-2.161 3.792a5.002 5.002 0 0 0-.512.777c-1.193 2.298-5.221 6.587-6.945 7.393-.302.141-.504.329-.449.418.064.104 26.614.162 74.465.161l74.365-.001 1.667-.485c1.79-.521 3.484-1.218 3.663-1.507.06-.097.402-.327.76-.509.631-.322 2.817-2.401 3.66-3.482.23-.294.608-.773.842-1.066.234-.293.707-.964 1.051-1.491.344-.527.677-.958.741-.959.064 0 .255-.337.425-.75.169-.412.366-.749.438-.749.071 0 .226-.244.343-.542.118-.298.344-.691.501-.875.158-.183.344-.52.412-.75.068-.229.25-.604.403-.833.154-.229.527-.979.831-1.667.303-.687.681-1.512.839-1.833.158-.321.341-.797.405-1.058.065-.262.257-.674.427-.917.17-.243.358-.779.417-1.192.06-.412.209-.903.331-1.09.123-.187.315-.787.427-1.333.113-.546.276-1.128.362-1.292.087-.164.271-.947.409-1.74.139-.793.328-1.583.42-1.756.159-.297.443-2.7.819-6.933.233-2.63-.314-10.819-.825-12.356-.107-.321-.265-1.127-.352-1.792-.087-.665-.273-1.432-.414-1.705-.142-.273-.304-.854-.361-1.291-.057-.437-.218-1.02-.357-1.295a8.436 8.436 0 0 1-.461-1.25c-.229-.823-.736-2.125-1.329-3.417a64.17 64.17 0 0 1-.562-1.25 5.614 5.614 0 0 0-.341-.666c-.088-.138-.483-.907-.876-1.709-1.183-2.413-1.249-2.529-1.613-2.859-.194-.174-.352-.385-.352-.467 0-.15-.872-1.447-1.826-2.715-.275-.367-.562-.802-.636-.968-.234-.52-3.206-3.412-3.794-3.691-.31-.147-.611-.345-.67-.44-.222-.36-2.578-1.331-4.203-1.733l-1.689-.418-73.883.013c-40.635.007-73.976.051-74.09.097m129.291 4.939c.596.152 1.721.36 2.5.463.78.103 1.959.364 2.621.579.662.216 1.487.442 1.833.502.346.061.78.203.963.317.183.113.633.301 1 .418.79.252 2.396.94 2.75 1.177.137.093.512.287.833.433.321.145.696.37.834.5.476.45 1.75 1.392 1.885 1.393.243.003 2.895 2.739 3.164 3.264.144.282.379.61.523.729.144.119.261.346.261.504 0 .157.145.418.323.579.178.161.405.676.506 1.144.1.468.3.982.443 1.14.293.324.692 3.593.729 5.975.049 3.147.963 2.834-8.293 2.831-4.193-.001-7.707-.058-7.808-.125-.434-.289-.567-.935-.567-2.748 0-1.847-.013-1.916-.495-2.553-.272-.36-.497-.733-.5-.829-.004-.159-.39-.57-1.463-1.562-.206-.191-.411-.347-.456-.347-.044 0-.446-.225-.893-.5s-.925-.5-1.061-.5c-.137 0-.579-.175-.982-.389-.507-.27-1.158-.425-2.116-.505-.761-.063-1.698-.244-2.083-.402-1.033-.424-6.919-.418-8.367.008-.55.162-1.638.34-2.417.396-.94.067-1.592.206-1.936.413-.286.172-.633.312-.772.312-.487 0-1.927.755-2.542 1.334-1.589 1.492-1.677 3.864-.209 5.632.403.486 3.44 2.199 3.901 2.2.105.001.593.188 1.083.416.49.228 1.118.416 1.394.417.276.001.778.149 1.114.329.336.18 1.122.376 1.747.436.634.06 1.387.251 1.702.431.329.187 1.027.358 1.667.409.606.047 1.513.225 2.018.394.504.17 1.643.385 2.53.478.888.093 1.788.278 2 .411.213.134.936.294 1.607.356.672.062 1.534.247 1.917.41.383.164 1.178.351 1.767.417s1.339.255 1.666.419c.328.164 1.041.342 1.585.396.573.056 1.168.23 1.416.413.236.173.827.361 1.315.419.487.057 1.125.247 1.416.422.292.175.756.37 1.031.433.726.166 3.959 1.686 5.274 2.479 1.298.783 1.492.943 3.513 2.906 1.156 1.123 2.507 3.435 2.681 4.59.053.347.218.872.367 1.167.452.893.397 7.925-.07 8.953-.188.413-.343.918-.345 1.124-.006.571-1.591 3.495-2.459 4.534-.875 1.048-2.354 2.509-2.539 2.509-.068 0-.354.206-.636.458-1.047.935-1.322 1.109-3.453 2.174-1.843.922-5.403 2.201-6.127 2.201-.239 0-.61.067-.825.148-.444.169-2.907.602-4.881.857-5.911.766-19.115.376-23.24-.686-.682-.175-1.385-.319-1.563-.319-.323 0-2.287-.593-3.864-1.166a14.004 14.004 0 0 0-1.333-.415c-.275-.061-.613-.209-.75-.328-.138-.118-.526-.304-.862-.412-.336-.108-.702-.305-.812-.438a.748.748 0 0 0-.501-.241c-.165 0-.512-.177-.771-.393a6.659 6.659 0 0 0-1.013-.671c-.298-.153-.541-.346-.541-.429 0-.083-.169-.204-.375-.269-.462-.144-3.792-3.473-3.792-3.79 0-.126-.15-.365-.333-.531-.184-.166-.334-.399-.334-.518 0-.118-.187-.417-.416-.665-.229-.247-.417-.577-.417-.734 0-.156-.185-.632-.412-1.059-.256-.48-.454-1.201-.523-1.899-.061-.619-.223-1.348-.361-1.621-.341-.674-.518-6.418-.215-6.984.491-.918.559-.926 7.903-.933l6.776-.007.666.42c.366.231.666.48.666.552 0 3.31.176 5.629.457 6.017.171.237.407.667.524.956.455 1.124 3.776 3.725 4.757 3.725.138 0 .548.154.91.343.379.198 1.213.401 1.964.48.717.075 1.786.263 2.375.418 1.388.366 11.659.329 12.315-.044.211-.121 1.042-.288 1.845-.371 1.467-.151 2.939-.663 4.466-1.551.32-.186 1.282-1.144 1.825-1.818 1.148-1.424.82-4.001-.707-5.553-.49-.497-.994-.904-1.121-.904-.126 0-.491-.177-.809-.393-.319-.216-.847-.443-1.173-.505-.327-.061-.683-.218-.791-.348-.108-.13-.622-.327-1.142-.438-.52-.11-1.17-.33-1.445-.487-.275-.158-.867-.334-1.317-.391-.449-.058-1.049-.225-1.333-.37-.284-.146-1.023-.331-1.641-.412-.618-.081-1.365-.272-1.66-.424-.295-.152-1.126-.343-1.847-.424-.721-.081-1.512-.249-1.757-.375-.245-.125-.933-.279-1.528-.343-.596-.063-1.759-.291-2.584-.507a48.717 48.717 0 0 0-2.333-.554c-1.403-.27-4.457-1.023-5.25-1.294a36.926 36.926 0 0 0-1.583-.491c-.459-.129-.984-.304-1.167-.389-.404-.187-2.195-.788-3.317-1.113-.449-.13-.943-.35-1.097-.49-.153-.139-.393-.252-.532-.252-.14 0-.584-.224-.987-.497-.404-.274-.856-.499-1.005-.5-.149-.002-.369-.121-.489-.266-.119-.144-.504-.408-.854-.586-.349-.179-.636-.386-.636-.461 0-.075-.19-.224-.423-.33-.717-.326-2.357-1.886-3.008-2.86-.214-.321-.614-.9-.888-1.286a6.238 6.238 0 0 1-.742-1.527c-.135-.454-.381-1.033-.547-1.286-.5-.763-.461-8.667.046-9.353.195-.264.408-.793.472-1.176.065-.383.26-.877.434-1.098.174-.221.395-.579.491-.796.535-1.213 2.789-3.537 4.791-4.942 2.277-1.597 7.372-3.5 10.576-3.95.957-.134 2.222-.354 2.811-.488 1.724-.392 1.708-.392 10.237-.357 6.975.028 8.325.073 9.25.308m-90.734 1.135c.307.339.321.974.409 19.625l.091 19.274.432 1.435c.621 2.065 2.327 4.648 3.068 4.648.118 0 .313.139.433.308.12.17.515.363.877.431.362.067.943.268 1.291.445.347.177 1.363.431 2.258.564l3.375.501c1.981.293 4.236.323 5.834.079a123.54 123.54 0 0 1 2.43-.339c1.353-.175 2.868-.54 4.57-1.102 1.216-.402 3.15-2.286 3.482-3.392.12-.404.334-.817.474-.92.465-.34.523-2.711.533-21.941l.011-18.95.557-.425.557-.425h16.196l.36.504.359.505-.06 20.62-.06 20.621-.355.75a6.448 6.448 0 0 0-.47 1.583c-.063.458-.26 1.04-.438 1.292s-.387.8-.465 1.217c-.078.417-.254.848-.391.958-.138.11-.297.403-.355.651-.058.248-.292.653-.52.899-.228.247-.415.582-.415.745 0 .164-.114.411-.253.55-.139.139-.523.613-.854 1.054-.999 1.332-2.997 3.411-4.053 4.217-.3.23-.668.539-.818.687-.15.149-.497.396-.772.548-.275.153-.838.494-1.25.76-1.274.819-3.895 2.045-5.667 2.65-6.012 2.052-19.183 2.609-26.167 1.106l-2.328-.502c-.684-.147-1.322-.332-1.416-.41-.095-.078-.622-.258-1.171-.401-.549-.143-1.024-.338-1.055-.432-.032-.095-.147-.172-.256-.172-.109 0-.647-.223-1.195-.495-.547-.272-1.075-.497-1.172-.5-.098-.003-.328-.146-.513-.318-.185-.172-.492-.363-.683-.423-.191-.061-.844-.483-1.453-.937-.608-.455-1.156-.827-1.218-.827-.144 0-.412-.251-2.636-2.46-1.631-1.621-3.737-4.335-3.737-4.818 0-.094-.15-.306-.333-.472-.184-.166-.334-.387-.334-.491 0-.104-.153-.486-.34-.849-.328-.637-.856-2.349-1.206-3.91-.178-.795-.38-41.939-.21-42.619.194-.773.385-.793 8.506-.885 4.217-.047 7.787-.104 7.933-.125.146-.021.409.12.583.313m-168.321.76c-.274.274-.123 58.515.152 58.621.492.189 54.541.116 54.658-.074.134-.216.123-11.117-.011-11.334-.059-.097-7.702-.157-19.894-.157-18.968 0-19.81-.013-20.074-.305-.361-.4-.424-9.704-.067-9.985.463-.365 1.871-.393 19.692-.381 19.004.012 19.494-.004 19.624-.631.032-.155.038-2.955.013-6.222l-.046-5.941-.537-.098c-.296-.054-9.077-.097-19.514-.095-14.11.001-19.036-.047-19.209-.191-.367-.305-.339-10.186.03-10.556.144-.144.276-.28.292-.301.016-.022 8.978-.078 19.915-.125l19.885-.086-.005-6.083-.006-6.084-27.393-.042c-15.066-.023-27.443.008-27.505.07m59.93-.001c-.161.065-.208 1.434-.208 6.051v5.967l.375.1c.206.056 5.775.103 12.375.106 6.6.002 12.089.061 12.198.13.553.352.568.968.543 23.589-.02 18.712.014 22.514.201 22.633.375.237 14.345.174 14.641-.066.22-.179.25-2.917.25-22.815V25.194l.403-.429.403-.429 11.931-.043 11.93-.043V12.083l-32.417-.028c-17.829-.016-32.51.009-32.625.055m-124.303.607c-.437.244-.349 57.879.088 58.113.225.12 6.902.156 21.375.114 20.98-.059 22.428-.098 23.055-.617.096-.079.546-.223 1-.32 1.356-.289 4.675-1.805 5.184-2.366.153-.169.421-.308.596-.308.345 0 3.66-3.287 4.029-3.994.12-.232.493-.898.826-1.479 2.535-4.412 3.01-10.937 1.101-15.128-.179-.392-.326-.751-.326-.796 0-.045-.325-.557-.724-1.139-.398-.582-.754-1.144-.791-1.249-.088-.247-1.575-1.775-2.556-2.626-.924-.801-.937-.98-.137-1.858.971-1.065 2.54-3.482 2.543-3.917.001-.127.186-.605.412-1.064a4.006 4.006 0 0 0 .419-1.666c.005-.459.157-1.391.338-2.072.395-1.486.411-2.144.079-3.35-.138-.502-.322-1.543-.409-2.314-.088-.771-.235-1.449-.328-1.507-.093-.057-.278-.411-.41-.787-.219-.621-1.007-2.018-1.253-2.22-.056-.046-.363-.446-.684-.889C81.55 18.197 80.377 17 80.099 17c-.124 0-.32-.115-.436-.254-.242-.292-1.62-1.246-1.799-1.246-.066 0-.381-.176-.7-.392a5.876 5.876 0 0 0-1.247-.602c-.367-.115-.841-.319-1.053-.452-.212-.134-.849-.317-1.415-.408-.565-.091-1.159-.284-1.318-.428-.214-.194-.885-.299-2.585-.405-2.963-.183-40.327-.272-40.641-.096m38.446 12.06c.128.106.607.241 1.066.301 1.58.208 1.749.284 2.658 1.185 1.66 1.647 1.842 2.116 1.842 4.752v2.264l-.584.918c-1.855 2.919-1.511 2.861-17.288 2.923l-12.704.051-.427-.645c-.368-.557-.406-.734-.28-1.298.081-.359.112-2.009.068-3.665-.104-3.969.053-6.085.494-6.646l.332-.421 12.295.045c8.95.033 12.359.097 12.528.236m1.066 21.813c.366.133 1.063.29 1.548.35 1.161.142 2.868 1.529 2.868 2.33 0 .114.113.318.25.456.628.628.874 4.851.336 5.774-.134.229-.352.642-.486.917-.497 1.025-1.596 1.873-2.6 2.003-.504.066-1.123.225-1.376.354-.492.253-25.391.571-26.324.337-.844-.212-.938-.913-.909-6.834l.026-5.305.393-.32c.533-.431 25.096-.489 26.274-.062" fill="#060b10"/><path d="M0 16.01v16.009l.708-.051.709-.051.207-1.584c.114-.871.35-2.071.526-2.666.176-.596.37-1.346.431-1.667a6.9 6.9 0 0 1 .409-1.25c.164-.367.352-.967.419-1.333.067-.367.264-.982.439-1.366.175-.385.319-.79.319-.901 0-.661 4.941-10.257 5.732-11.131.147-.162.27-.364.272-.449.003-.084.228-.448.5-.808.273-.36.496-.723.496-.807 0-.814 3.916-4.737 5.333-5.342.229-.097.535-.276.681-.396.145-.12.67-.356 1.166-.524.883-.299.904-.322.954-1L19.352 0H0v16.01M381.667.229c0 .552.224 1.271.396 1.272 1.048.002 4.848 2.801 6.172 4.545a77.43 77.43 0 0 0 1.381 1.772c2.025 2.459 6.263 10.384 7.138 13.349.121.412.463 1.387.758 2.166.296.78.672 2.167.837 3.084l.308 1.708c.006.023.31.042.676.042H400V0h-9.167c-7.666 0-9.166.038-9.166.229M28.917 5.106c-2.386.51-3.091.731-3.747 1.171-.32.214-.701.39-.849.39-.47 0-3.6 2.483-4.244 3.367-.743 1.021-2.91 4.278-2.91 4.374 0 .052-.225.405-.5.785s-.5.781-.5.892c0 .112-.225.486-.5.832s-.5.701-.5.789c0 .171-1.093 2.04-1.441 2.463-.113.139-.279.551-.368.917-.088.365-.432 1.301-.764 2.081a32.708 32.708 0 0 0-.935 2.487c-.183.588-.395 1.151-.472 1.25-.077.099-.186.423-.243.721-.056.298-.245.86-.42 1.25-.174.39-.369 1.138-.432 1.664a10.74 10.74 0 0 1-.437 1.871c-.177.503-.322 1.284-.322 1.736 0 .451-.159 1.71-.354 2.796-.486 2.713-.557 9.954-.111 11.392.156.505.36 1.716.452 2.691.093.98.32 2.173.507 2.666.187.491.34 1.071.34 1.289 0 .405.61 2.439 1.181 3.94.175.46.319.949.319 1.086 0 .137.138.51.307.83.169.319.351.808.405 1.085.291 1.502 3.672 7.766 5.441 10.079.246.321.703 1.015 1.016 1.543 1.851 3.119 4.803 5.159 9.204 6.357l1.608.439 95.134-.003c70.26-.002 95.151-.052 95.197-.19.118-.354.679-.804 1.142-.917.254-.062.709-.326 1.01-.587.301-.262.677-.475.835-.475.158 0 .381-.15.495-.334.115-.183.285-.333.379-.333.172 0 1.896-1.719 2.66-2.653.229-.28.585-.709.792-.952.206-.244.375-.543.375-.664s.206-.446.458-.722c.84-.921 1.208-1.394 1.208-1.551 0-.086.148-.364.329-.619.181-.254.599-.978.929-1.609.33-.63.744-1.25.921-1.375.186-.133.321-.425.321-.696 0-.257.178-.679.395-.938.218-.259.447-.709.511-.999.063-.29.252-.686.42-.88.168-.194.358-.631.421-.972a4.03 4.03 0 0 1 .414-1.12c.164-.275.393-.913.508-1.417.115-.504.315-1.124.443-1.379.129-.254.312-.892.408-1.416.095-.525.285-1.129.422-1.343.138-.214.309-.969.38-1.678.079-.783.251-1.473.439-1.76.245-.374.335-.964.434-2.86.094-1.777.201-2.529.419-2.935.453-.843.449-8.278-.006-9.112-.238-.437-.337-1.122-.435-3.013-.095-1.816-.198-2.554-.4-2.862-.149-.228-.355-1.047-.457-1.82-.102-.773-.29-1.523-.416-1.667-.127-.144-.28-.632-.339-1.084-.059-.451-.322-1.366-.584-2.033-.262-.667-.477-1.29-.477-1.384 0-.095-.142-.487-.317-.871a63.583 63.583 0 0 1-.933-2.283c-.338-.871-.758-1.717-.932-1.881-.187-.176-.318-.523-.318-.846 0-.369-.136-.676-.416-.939-.229-.216-.417-.482-.417-.592 0-.111-.124-.304-.276-.43-.152-.125-.381-.48-.509-.787-.129-.307-.309-.645-.401-.75a9.354 9.354 0 0 1-.532-.759c-1.208-1.878-1.761-2.638-2.615-3.593-1.288-1.439-3.387-3.423-3.621-3.423-.123 0-.266-.111-.318-.248-.053-.136-.386-.326-.742-.422-.355-.096-.929-.434-1.274-.751-.346-.317-.779-.579-.962-.581-.183-.002-42.821-.021-94.75-.042L30.583 4.75l-1.666.356M335.5 10.787c-.373.166-1.415.307-2.888.389-1.874.104-2.342.181-2.51.411-.148.201-.596.321-1.561.419-.903.091-1.511.246-1.823.465-.257.181-.838.374-1.29.43-.493.06-.941.23-1.121.423-.165.176-.639.372-1.053.434-.415.062-.754.184-.754.27 0 .086-.394.331-.875.545-.803.356-2.087 1.212-3.125 2.084-1.038.872-1.833 1.665-1.833 1.829 0 .098-.15.272-.334.386-.183.115-.333.277-.333.361 0 .084-.181.389-.401.679a7.39 7.39 0 0 0-.672 1.099c-.148.315-.379.76-.512.989-.134.229-.245.581-.246.781-.001.2-.083.575-.182.833-.421 1.097-.381 6.013.063 7.636.452 1.658 1.1 3.25 1.323 3.25.079 0 .271.282.427.627.156.345.433.785.617.977.183.192.558.621.833.953.275.331.583.604.685.606.181.004.942.538 2.005 1.409.287.235.596.428.685.428.09 0 .362.156.605.347.243.192.692.417.998.502.307.084.729.303.94.485.211.183.578.333.816.333.238.001.681.152.985.338.304.185.924.416 1.377.513.454.098.928.28 1.053.405.125.125.63.278 1.122.341.913.116 1.479.325 1.668.614.057.088.582.212 1.166.273.584.062 1.267.249 1.519.416.264.175.992.363 1.73.446.792.088 1.392.249 1.585.424.213.192.769.319 1.774.402.985.081 1.679.237 2.123.474.463.249.958.354 1.668.354.658 0 1.222.109 1.624.313.338.172 1.172.366 1.853.43.681.063 1.489.249 1.795.413.307.163 1.007.349 1.557.412.871.1 3.294.748 4.834 1.292 1.342.475 2.389.907 2.6 1.074.128.101.477.266.774.366 1.132.38 2.831 1.925 2.981 2.709.06.316.239.699.398.853.598.578.599 2.915 0 3.681a2.79 2.79 0 0 0-.398.717c-.134.426-1.167 1.573-1.418 1.573-.102 0-.279.153-.394.34-.551.891-3.483 1.959-6.71 2.443-4.099.615-13.854.325-16.167-.481a27.49 27.49 0 0 0-1.416-.422c-.505-.136-1.03-.345-1.167-.464-.138-.119-.573-.312-.968-.429-.395-.117-.792-.349-.881-.516-.09-.168-.258-.304-.374-.304-.233 0-1.444-1.053-1.444-1.255 0-.07-.155-.285-.346-.478-.625-.634-1.167-1.626-1.318-2.411-.082-.425-.276-1.026-.431-1.335-.2-.397-.296-1.078-.33-2.333-.027-.974-.054-1.903-.062-2.063-.016-.364-13.555-.462-13.778-.1-.617.998.293 9.304 1.174 10.702.123.196.279.544.347.773.068.229.301.628.517.888.217.259.439.65.494.869.055.218.242.443.417.498.174.055.316.163.316.239 0 .191 1.983 2.172 2.173 2.172.084 0 .276.188.426.417.15.229.361.417.468.417.108 0 .456.222.773.493s.661.496.763.5c.102.004.365.146.583.316.219.17.698.406 1.064.524.367.118.846.354 1.064.524.219.17.603.309.853.309s.641.147.869.326c.228.179.885.402 1.461.494.577.093 1.186.294 1.354.446.194.175.769.323 1.556.4.734.072 1.437.245 1.704.42.345.226.995.331 2.688.435 1.513.093 2.565.249 3.26.483 1.433.484 14.329.446 15.204-.045.38-.213 1.148-.323 2.951-.424 2.01-.112 2.497-.189 2.777-.443.239-.216.734-.342 1.661-.424.85-.074 1.414-.209 1.583-.378.144-.144.488-.306.764-.359l.99-.191c.268-.052.574-.198.68-.325.105-.127.467-.317.803-.423.336-.106.983-.372 1.436-.592.453-.22.922-.4 1.042-.4.119 0 .217-.073.217-.162 0-.089.222-.277.493-.417.271-.141.681-.443.909-.671.229-.229.527-.416.663-.416.135 0 .293-.15.352-.334.058-.183.169-.333.247-.333.216 0 1.437-1.211 1.555-1.542.057-.16.176-.291.265-.291.089 0 .33-.3.536-.667.206-.367.43-.667.498-.667.067 0 .207-.256.311-.57.103-.313.293-.656.42-.762.128-.107.319-.619.425-1.139.106-.52.336-1.179.51-1.465.54-.887.474-8.077-.085-9.282-.221-.476-.453-1.184-.515-1.573-.062-.39-.186-.709-.274-.709-.088 0-.266-.253-.395-.562-.405-.968-3.403-4.091-3.936-4.1-.149-.002-.368-.121-.487-.264-.119-.143-.476-.369-.795-.502-.319-.133-.662-.341-.763-.463-.101-.121-.507-.312-.901-.424-.395-.112-.757-.308-.807-.436-.049-.128-.422-.283-.828-.344-.428-.064-.83-.239-.953-.414-.136-.195-.531-.346-1.103-.422-.5-.066-1.023-.25-1.191-.417-.185-.186-.684-.343-1.314-.415-.558-.063-1.181-.243-1.384-.401-.216-.167-.839-.333-1.498-.399-1.103-.111-1.955-.375-1.955-.606 0-.064-.601-.158-1.335-.208-.927-.063-1.515-.198-1.926-.44a2.888 2.888 0 0 0-1.29-.353c-.385-.002-1.187-.114-1.782-.25-1.271-.289-3.443-.683-5.072-.919-.636-.093-1.498-.284-1.917-.427-.419-.142-1.286-.36-1.928-.485-1.693-.329-3.237-.75-4-1.092a6.844 6.844 0 0 0-1.281-.411c-.338-.061-.743-.255-.901-.429-.157-.174-.43-.317-.605-.317-.392 0-.886-.256-1.309-.679-.176-.176-.452-.321-.612-.321-1.612.001-3.043-4.577-2.001-6.401.575-1.006.893-1.403 1.361-1.695 1.406-.88 2.404-1.386 2.931-1.488a4.218 4.218 0 0 0 1-.338c1.716-.928 12.861-1.031 15.5-.143a25.27 25.27 0 0 0 1.584.461c1.922.48 5.083 2.826 5.083 3.771 0 .083.188.339.417.568.312.313.418.596.422 1.133.003.394.115.861.25 1.039.15.199.244.7.244 1.303 0 1.77-.644 1.624 7.165 1.624 7.626 0 7.676-.007 7.647-.984-.065-2.171-.735-6.949-.998-7.112-.076-.047-.286-.566-.468-1.154-.181-.587-.465-1.214-.629-1.392a10.614 10.614 0 0 1-.717-.932c-.593-.865-2.238-2.593-2.469-2.593-.107 0-.288-.15-.403-.333-.114-.184-.289-.334-.388-.334-.099 0-.343-.187-.542-.416-.199-.23-.445-.417-.546-.417-.101 0-.398-.153-.66-.339a4.685 4.685 0 0 0-1.026-.524c-.302-.101-.699-.314-.882-.473-.184-.159-.634-.342-1-.407-.367-.064-.824-.263-1.016-.442-.216-.2-.694-.361-1.25-.42-.499-.053-1.115-.246-1.382-.434-.301-.211-.913-.385-1.633-.464-.691-.076-1.276-.239-1.461-.406-.24-.217-.846-.311-2.743-.423-1.623-.097-2.61-.232-2.959-.407-.779-.388-13.095-.365-13.973.026m-187.011.653c.516.657.54 12.948.026 13.583l-.319.394-19.64.083-19.639.083-.045 4.322c-.034 3.346.003 4.352.167 4.456.116.074 8.813.135 19.327.136l19.115.003.26.37c.34.487.396 13.759.059 14.097-.153.153-4.671.2-19.32.2-10.516 0-19.238.045-19.383.101-.399.153-.399 8.644 0 8.798.145.055 9.031.101 19.746.101h19.482l.254.491c.328.635.383 12.045.061 12.751l-.194.424h-27.119c-14.915 0-27.344.045-27.618.1-.398.08-.608.003-1.03-.375l-.53-.475.008-29.5.007-29.5.525-.583.525-.583 27.465.042 27.465.043.345.438m70.327.044.517.483v12.252l-.425.557-.425.557h-11.467c-7.918 0-11.629.057-11.993.184l-.526.183.005 22.674c.004 19.931-.025 22.72-.246 23.057l-.252.384-6.293.051c-8.751.071-9.491.039-9.753-.419-.163-.285-.217-5.292-.248-23.103-.032-18.047-.084-22.768-.25-22.876-.116-.076-5.668-.13-12.338-.122l-12.128.016-.505-.541-.506-.541V12.019l.533-.509.533-.51h65.249l.518.484m-150.007.205c1.342.105 2.637.289 2.877.41.24.121.906.296 1.481.388.574.093 1.165.274 1.314.403.148.129.543.283.877.343.335.06.785.245 1 .411.216.167.617.379.892.473.275.093.792.368 1.148.61.357.242.726.44.82.44.094 0 .289.108.435.241.995.912 1.411 1.259 1.507 1.259.166 0 1.84 1.646 1.84 1.809 0 .078.188.344.417.592.229.247.416.528.416.625 0 .096.188.398.417.671.229.272.417.607.417.744s.179.563.398.946c.22.383.449 1.051.51 1.484.061.433.169.823.239.867.595.367.729 6.913.16 7.781-.152.232-.329.866-.395 1.409-.065.544-.289 1.326-.498 1.738a27.136 27.136 0 0 0-.644 1.375c-.146.344-.341.625-.434.625-.093 0-.17.143-.17.317 0 .293-.165.526-1.356 1.911l-.44.511.597.548c.329.3.66.547.735.547.076 0 .221.181.322.402.1.222.307.435.459.475.255.067 1.858 2.334 2.326 3.289.112.23.312.605.445.834.132.229.242.655.243.946.002.291.103.631.226.754.599.598.642.958.64 5.331l-.001 4.326-.431.622c-.258.371-.432.853-.434 1.196-.001.316-.111.762-.244.991-.133.23-.394.74-.58 1.136-.185.395-.45.832-.589.97-.138.138-.251.328-.251.422 0 .207-.421.768-1.832 2.44-1.165 1.381-1.47 1.668-2.851 2.678a69.44 69.44 0 0 0-1.331.997c-.237.185-.65.389-.917.452a2.269 2.269 0 0 0-.819.409c-.183.162-.596.347-.917.413a4.15 4.15 0 0 0-1.083.42c-.275.165-.871.356-1.324.423a6.974 6.974 0 0 0-1.584.472c-1.042.483-44.048.666-44.773.191l-.402-.264V12.019l.37-.26c.473-.331 36.605-.393 40.772-.07m177.056.453c-.178.114-.208 4.097-.166 21.79l.051 21.651.38.723c.209.398.457 1.085.552 1.528.095.443.273.844.395.891.123.047.316.371.431.722.114.35.351.824.526 1.053 1.124 1.475 1.299 1.731 1.301 1.898.002.228 1.128 1.435 1.339 1.435.084 0 .2.188.258.417.057.229.204.417.327.417.122 0 .32.138.44.307.12.168.386.396.593.505.206.11.375.311.375.448 0 .136.189.32.421.408.231.088.467.281.524.429.056.148.429.409.829.58.399.171.726.373.726.45 0 .076.637.46 1.415.853.779.393 1.457.781 1.507.862.051.082.407.231.793.332.386.101.792.301.904.445.111.144.59.323 1.063.398.473.075.991.255 1.151.4.161.145.583.302.938.349 1.479.195 1.702.255 2.037.545.283.246.753.323 2.452.404 1.635.077 2.201.166 2.546.4.675.459 12.484.462 13.323.003.397-.217 1.077-.323 2.5-.392 1.61-.078 2.093-.165 2.743-.494.497-.252 1.076-.399 1.568-.399.517 0 1.01-.133 1.462-.394.374-.217.955-.444 1.289-.505.335-.06.699-.218.809-.351.11-.133.45-.288.757-.346.306-.057.801-.284 1.099-.504.298-.22.666-.4.818-.4.153 0 .483-.191.735-.424.251-.233.675-.468.941-.521.266-.053.483-.195.483-.315 0-.119.141-.262.314-.317.173-.055.542-.304.82-.553.279-.249.606-.537.728-.638.381-.32 3.374-3.511 3.678-3.923.643-.871 1.17-1.735 1.749-2.868.335-.655.698-1.304.806-1.441.108-.138.25-.55.315-.917.066-.366.175-.741.242-.833.189-.259.487-1.385.706-2.667.145-.846.218-6.688.265-21.282l.064-20.115-.552-.099c-.303-.055-3.889-.078-7.968-.052l-7.417.048L292.167 32c-.077 18.241-.107 19.966-.365 20.5-.155.321-.401.846-.548 1.167-.647 1.412-1.002 1.927-1.965 2.849-.68.651-1.214 1.017-1.587 1.087-.309.058-.601.207-.649.331-.099.258-1.068.564-1.792.565a1.43 1.43 0 0 0-.842.332c-.291.274-.725.358-2.511.49-1.187.087-2.571.281-3.075.431-1.094.325-3.628.246-4.416-.137-.305-.149-1.278-.282-2.495-.342-1.585-.078-2.083-.163-2.419-.411-.234-.173-.851-.367-1.372-.432-.521-.065-1.12-.253-1.331-.418a3.022 3.022 0 0 0-.8-.429c-.914-.285-2.992-2.264-2.997-2.855a.451.451 0 0 0-.325-.44c-.219-.057-.359-.291-.437-.728a4.286 4.286 0 0 0-.47-1.227l-.354-.583-.084-19.833-.083-19.834-7.583-.04c-4.171-.022-7.682.023-7.802.099M42.611 25.778c-.061.061-.111 2.38-.111 5.154v5.044l.875.107c.481.059 6.425.083 13.208.054l12.334-.054.75-.5c.776-.518 1.666-1.344 1.667-1.549 0-.064.225-.455.499-.867.739-1.112.738-3.224-.003-4.317-.273-.403-.497-.809-.497-.902 0-.377-1.565-1.596-2.184-1.701-.346-.058-.718-.213-.826-.343-.209-.252-25.463-.375-25.712-.126m-.072 26.93.044 5.209 13 .047c9.035.032 13.229-.009 13.75-.137.98-.239 2.167-.848 2.167-1.111 0-.115.188-.331.417-.481.229-.15.416-.399.416-.552 0-.154.157-.576.348-.939.567-1.079.616-2.56.116-3.527-.228-.44-.46-.99-.516-1.223-.138-.569-1.497-1.962-2.201-2.256-.477-.2-2.756-.238-14.077-.238H42.495l.044 5.208M0 68.833v15.5h8.583c8.065 0 8.584-.017 8.581-.291-.005-.727-.239-1.075-.977-1.453-1.599-.819-3.738-3.017-5.104-5.247a94.169 94.169 0 0 0-1.406-2.226c-.856-1.294-2.594-4.344-3.056-5.366-.125-.275-.308-.65-.409-.833-.649-1.186-1.736-3.848-2.45-6-.335-1.009-.679-1.962-.766-2.118-.086-.157-.273-.847-.415-1.534-.142-.686-.367-1.509-.5-1.828-.133-.318-.285-1.016-.337-1.55-.194-1.984-.214-2.036-.855-2.305-.328-.137-.662-.249-.743-.249-.083 0-.146 6.716-.146 15.5m398.59-11.625c-.036.115-.151.734-.255 1.375-.104.642-.285 1.317-.403 1.5-.117.184-.256.654-.307 1.045-.052.39-.24.991-.419 1.335-.179.343-.451 1.053-.603 1.577-.152.525-.421 1.199-.596 1.498-.176.3-.444.92-.597 1.379-.33.99-1.972 4.382-2.496 5.154a28.638 28.638 0 0 0-1.001 1.694c-.348.634-.741 1.278-.872 1.432a5.898 5.898 0 0 0-.515.777c-.337.605-2.043 2.781-2.976 3.793a6.316 6.316 0 0 0-.5.607c-.222.348-2.639 2.245-3.008 2.363-.456.144-.646.399-.786 1.055l-.116.541H400V57h-.672c-.391 0-.699.087-.738.208" fill="#fafbfb"/><path d="M221.885 4.718c-.143.231.111.949.335.949 1.29 0 6.542 5.783 8.223 9.054.15.291.553.953.897 1.472.343.519.711 1.207.817 1.528.106.322.297.672.424.777.127.106.282.43.344.722.061.291.219.652.35.8.131.149.379.637.55 1.084.71 1.85 1.037 2.673 1.249 3.146.123.275.279.762.346 1.083.068.321.226.732.351.912.126.181.229.475.229.652 0 .178.22 1.155.49 2.172 1.461 5.512 2.061 12.589 1.513 17.848-.286 2.745-.526 4.489-.758 5.5-.127.55-.277 1.337-.334 1.75-.106.767-.524 2.304-1.111 4.083-.181.55-.388 1.28-.459 1.622-.07.342-.204.717-.296.833-.093.117-.262.512-.377.878a6.55 6.55 0 0 1-.522 1.187c-.172.285-.313.613-.313.727 0 .281-1.574 3.461-2.472 4.994-.4.683-.797 1.396-.882 1.584a7.88 7.88 0 0 1-.558.925c-.222.321-.802 1.174-1.287 1.896-1.741 2.586-3.892 4.78-6.041 6.161-1.191.765-1.025.604-1.146 1.11l-.099.416 74.841-.042 74.841-.043 1.671-.423c3.662-.929 6.543-3.046 9.426-6.927 1.375-1.851 1.713-2.339 2.033-2.931a39.86 39.86 0 0 1 1.028-1.717c.87-1.378 2.881-5.516 3.158-6.5.116-.413.31-.867.431-1.011.12-.143.268-.518.328-.833.061-.315.25-.853.421-1.195.171-.342.417-1.092.547-1.667.129-.574.35-1.344.491-1.711.14-.366.258-.945.262-1.285.004-.341.147-.978.317-1.417.17-.439.359-1.463.419-2.276.06-.813.237-2.013.393-2.666.363-1.52.426-9.273.085-10.356-.116-.366-.286-1.58-.379-2.696-.092-1.116-.279-2.295-.414-2.619-.136-.324-.322-1.122-.414-1.772-.092-.65-.277-1.393-.41-1.65-.133-.258-.317-.937-.41-1.51-.092-.574-.276-1.208-.409-1.411-.132-.202-.354-.737-.493-1.188-.337-1.095-1.309-3.378-1.845-4.338-.238-.426-.433-.867-.433-.98 0-.113-.18-.471-.4-.795-.22-.324-.454-.766-.52-.982-.121-.398-.695-1.387-1.368-2.356a9.538 9.538 0 0 1-.578-.953c-.114-.229-.622-.979-1.129-1.666A51.192 51.192 0 0 1 381.647 11c-1.598-2.48-5.518-5.088-8.98-5.974l-1.417-.362-74.641-.04c-41.052-.023-74.678.02-74.724.094m150.819.867c1.625.402 3.981 1.373 4.203 1.733.059.095.36.293.67.44.588.279 3.56 3.171 3.794 3.691.074.166.361.601.636.968.954 1.268 1.826 2.565 1.826 2.715 0 .082.158.293.352.467.364.33.43.446 1.613 2.859.393.802.788 1.571.876 1.709.089.137.242.437.341.666.098.23.351.792.562 1.25.593 1.292 1.1 2.594 1.329 3.417.115.412.322.975.461 1.25s.3.858.357 1.295c.057.437.219 1.018.361 1.291.141.273.327 1.04.414 1.705.087.665.245 1.471.352 1.792.511 1.537 1.058 9.726.825 12.356-.376 4.233-.66 6.636-.819 6.933-.092.173-.281.963-.42 1.756-.138.793-.322 1.576-.409 1.74-.086.164-.249.746-.362 1.292-.112.546-.304 1.146-.427 1.333-.122.187-.271.678-.331 1.09-.059.413-.247.949-.417 1.192-.17.243-.362.655-.427.917a6.439 6.439 0 0 1-.405 1.058 64.726 64.726 0 0 0-.839 1.833c-.304.688-.677 1.438-.831 1.667a3.741 3.741 0 0 0-.403.833c-.068.23-.254.567-.412.75-.157.184-.383.577-.501.875-.117.298-.272.542-.343.542-.072 0-.269.337-.438.749-.17.413-.361.75-.425.75-.064.001-.397.432-.741.959a24.437 24.437 0 0 1-1.051 1.491c-.234.293-.612.772-.842 1.066-.843 1.081-3.029 3.16-3.66 3.482-.358.182-.7.412-.76.509-.179.289-1.873.986-3.663 1.507l-1.667.485-74.365.001c-47.851.001-74.401-.057-74.465-.161-.055-.089.147-.277.449-.418 1.724-.806 5.752-5.095 6.945-7.393.126-.244.357-.594.512-.777.482-.567 1.944-3.133 2.161-3.792.113-.343.269-.625.346-.625.077 0 .265-.375.417-.833.153-.458.344-.833.426-.833.081 0 .266-.407.411-.903.144-.497.367-.99.495-1.096.128-.107.318-.6.421-1.097.103-.498.245-.904.316-.904.189 0 .515-.789.515-1.249 0-.219.144-.647.32-.95.177-.303.401-.993.499-1.533.098-.539.256-1.075.351-1.19.096-.115.282-.93.415-1.811.132-.881.344-1.808.471-2.06.128-.253.279-1.277.338-2.291.059-1.008.214-2.508.344-3.333.369-2.342.48-5.158.265-6.75-.534-3.961-.667-5.168-.67-6.083-.001-.564-.112-1.211-.254-1.484-.139-.267-.358-1.129-.487-1.917s-.344-1.695-.478-2.016c-.134-.321-.296-.973-.36-1.45s-.218-.951-.343-1.054c-.124-.104-.311-.614-.414-1.134-.103-.52-.333-1.149-.509-1.397-.177-.248-.322-.586-.322-.75-.001-.164-.225-.748-.5-1.298-.274-.55-.499-1.085-.499-1.188 0-.104-.101-.271-.224-.373-.122-.102-.309-.474-.415-.827-.106-.353-.343-.815-.527-1.027-.184-.213-.335-.515-.335-.672 0-.157-.152-.478-.337-.714a5.352 5.352 0 0 1-.589-1.03c-.138-.33-.361-.643-.496-.694-.134-.052-.244-.234-.244-.404s-.225-.566-.5-.879c-.275-.313-.503-.672-.507-.798-.004-.125-.229-.487-.5-.805-.271-.317-.493-.671-.493-.786 0-.114-.15-.289-.334-.387-.183-.098-.333-.267-.333-.375 0-.212-.099-.328-1.691-1.963-1.291-1.327-3.037-2.828-3.29-2.828-.252 0-.236-.286.023-.39.114-.046 33.455-.09 74.09-.097l73.883-.013 1.689.418m-38.287 4.363c-.275.04-.982.183-1.571.317s-1.854.354-2.811.488c-3.204.45-8.299 2.353-10.576 3.95-2.002 1.405-4.256 3.729-4.791 4.942a4.542 4.542 0 0 1-.491.796c-.174.221-.369.715-.434 1.098-.064.383-.277.912-.472 1.176-.507.686-.546 8.59-.046 9.353.166.253.412.832.547 1.286.134.454.469 1.141.742 1.527.274.386.674.965.888 1.286.651.974 2.291 2.534 3.008 2.86.233.106.423.255.423.33 0 .075.287.282.636.461.35.178.735.442.854.586.12.145.34.264.489.266.149.001.601.226 1.005.5.403.273.847.497.987.497.139 0 .379.113.532.252.154.14.648.36 1.097.49 1.122.325 2.913.926 3.317 1.113.183.085.708.26 1.167.389.458.129 1.17.35 1.583.491.793.271 3.847 1.024 5.25 1.294.458.089 1.508.338 2.333.554.825.216 1.988.444 2.584.507.595.064 1.283.218 1.528.343.245.126 1.036.294 1.757.375.721.081 1.552.272 1.847.424.295.152 1.042.343 1.66.424.618.081 1.357.266 1.641.412.284.145.884.312 1.333.37.45.057 1.042.233 1.317.391.275.157.925.377 1.445.487.52.111 1.034.308 1.142.438.108.13.464.287.791.348.326.062.854.289 1.173.505.318.216.683.393.809.393.127 0 .631.407 1.121.904 1.527 1.552 1.855 4.129.707 5.553-.543.674-1.505 1.632-1.825 1.818-1.527.888-2.999 1.4-4.466 1.551-.803.083-1.634.25-1.845.371-.656.373-10.927.41-12.315.044a19.193 19.193 0 0 0-2.375-.418c-.751-.079-1.585-.282-1.964-.48-.362-.189-.772-.343-.91-.343-.981 0-4.302-2.601-4.757-3.725a5.489 5.489 0 0 0-.524-.956c-.281-.388-.457-2.707-.457-6.017 0-.072-.3-.321-.666-.552l-.666-.42-6.776.007c-7.344.007-7.412.015-7.903.933-.303.566-.126 6.31.215 6.984.138.273.3 1.002.361 1.621.069.698.267 1.419.523 1.899.227.427.412.903.412 1.059 0 .157.188.487.417.734.229.248.416.547.416.665 0 .119.15.352.334.518.183.166.333.405.333.531 0 .317 3.33 3.646 3.792 3.79.206.065.375.186.375.269 0 .083.243.276.541.429.298.153.754.455 1.013.671.259.216.606.393.771.393.165 0 .391.109.501.241.11.133.476.33.812.438.336.108.724.294.862.412.137.119.475.267.75.328.275.062.875.248 1.333.415 1.577.573 3.541 1.166 3.864 1.166.178 0 .881.144 1.563.319 4.125 1.062 17.329 1.452 23.24.686 1.974-.255 4.437-.688 4.881-.857.215-.081.586-.148.825-.148.724 0 4.284-1.279 6.127-2.201 2.131-1.065 2.406-1.239 3.453-2.174.282-.252.568-.458.636-.458.185 0 1.664-1.461 2.539-2.509.868-1.039 2.453-3.963 2.459-4.534.002-.206.157-.711.345-1.124.467-1.028.522-8.06.07-8.953a4.674 4.674 0 0 1-.367-1.167c-.174-1.155-1.525-3.467-2.681-4.59-2.021-1.963-2.215-2.123-3.513-2.906-1.315-.793-4.548-2.313-5.274-2.479a4.323 4.323 0 0 1-1.031-.433c-.291-.175-.929-.365-1.416-.422-.488-.058-1.079-.246-1.315-.419-.248-.183-.843-.357-1.416-.413-.544-.054-1.257-.232-1.585-.396-.327-.164-1.077-.353-1.666-.419s-1.384-.253-1.767-.417c-.383-.163-1.245-.348-1.917-.41-.671-.062-1.394-.222-1.607-.356-.212-.133-1.112-.318-2-.411-.887-.093-2.026-.308-2.53-.478-.505-.169-1.412-.347-2.018-.394-.64-.051-1.338-.222-1.667-.409-.315-.18-1.068-.371-1.702-.431-.625-.06-1.411-.256-1.747-.436-.336-.18-.838-.328-1.114-.329-.276-.001-.904-.189-1.394-.417-.49-.228-.978-.415-1.083-.416-.239 0-2.131-.955-3.028-1.527-2.273-1.45-2.593-4.493-.664-6.305.615-.579 2.055-1.334 2.542-1.334.139 0 .486-.14.772-.312.344-.207.996-.346 1.936-.413.779-.056 1.867-.234 2.417-.396 1.448-.426 7.334-.432 8.367-.008.385.158 1.322.339 2.083.402.958.08 1.609.235 2.116.505.403.214.845.389.982.389.136 0 .614.225 1.061.5.447.275.849.5.893.5.045 0 .25.156.456.347 1.073.992 1.459 1.403 1.463 1.562.003.096.228.469.5.829.482.637.495.706.495 2.553 0 1.813.133 2.459.567 2.748.101.067 3.615.124 7.808.125 9.256.003 8.342.316 8.293-2.831-.037-2.382-.436-5.651-.729-5.975-.143-.158-.343-.672-.443-1.14-.101-.468-.328-.983-.506-1.144-.178-.161-.323-.422-.323-.579 0-.158-.117-.385-.261-.504-.144-.119-.379-.447-.523-.729-.269-.525-2.921-3.261-3.164-3.264-.135-.001-1.409-.943-1.885-1.393-.138-.13-.513-.355-.834-.5a7.597 7.597 0 0 1-.833-.433c-.354-.237-1.96-.925-2.75-1.177-.367-.117-.817-.305-1-.418-.183-.114-.617-.256-.963-.317-.346-.06-1.171-.286-1.833-.502-.662-.215-1.841-.476-2.621-.579a26.385 26.385 0 0 1-2.5-.463c-1.044-.266-16.368-.495-17.916-.268m15.029.233a23.88 23.88 0 0 1 2.214.416c.501.13 1.328.236 1.839.236.51 0 1.301.108 1.756.239.456.131 1.166.327 1.578.436 1.928.509 3.67 1.057 4.584 1.44 2.142.899 4.03 1.887 4.693 2.457.381.327.763.595.849.595.244 0 3.374 3.028 3.374 3.264 0 .116.173.422.385.682 1.88 2.304 3.289 10.229 2.04 11.478l-.41.409H358.03l-.432-.512c-.352-.419-.432-.688-.435-1.459-.006-1.733-.299-3.194-.749-3.728-.227-.271-.414-.553-.414-.626 0-.518-2.462-2.307-4.083-2.967-3.548-1.445-11.092-1.988-14.584-1.051-.687.185-1.512.338-1.833.341-5.101.05-8.212 5.364-4.952 8.458.953.904 5.176 2.873 6.171 2.876.167.001.458.085.647.186.189.101.999.318 1.801.482.801.164 1.601.376 1.777.47.176.094.954.256 1.73.359.775.103 1.654.3 1.952.438.299.137 1.236.31 2.084.384.847.074 1.84.262 2.207.419.366.157 1.292.357 2.056.445.765.087 1.59.262 1.834.388s.893.285 1.443.352 1.337.252 1.75.412a8.738 8.738 0 0 0 1.549.406c.439.064 1.114.26 1.5.435.385.175.889.321 1.118.324.229.003.81.188 1.292.412.481.225 1.156.458 1.5.52.343.062.737.202.874.313.138.11.625.338 1.084.506 4.609 1.69 8.281 5.172 9.596 9.099l.525 1.568-.004 3.667c-.004 4.675-.603 7.039-2.372 9.367-.265.348-.69.917-.946 1.265-.501.679-.542.722-1.299 1.353C367.384 69.261 361.904 72 359.88 72c-.135 0-.744.142-1.354.315-.61.174-1.859.4-2.776.503-.917.102-2.229.295-2.917.428-2.106.406-15.182.357-17.307-.066a33.467 33.467 0 0 0-2.859-.433c-3.358-.302-11.076-2.875-12.506-4.169-.149-.134-.321-.245-.382-.245-.558 0-4.575-3.729-5.166-4.797a55.308 55.308 0 0 0-.786-1.32c-1.214-1.989-1.819-4.679-1.946-8.658-.144-4.475-.92-4.058 7.552-4.058 8.174 0 7.509-.207 7.615 2.372.258 6.277 2.739 8.787 10.119 10.234 2.349.461 12.327.46 14.666-.002 4.621-.911 6.643-2.115 7.854-4.673 1.138-2.407-.272-5.11-3.437-6.587-.642-.3-1.354-.64-1.583-.755a4.912 4.912 0 0 0-.917-.326c-.275-.064-.963-.299-1.528-.523-.566-.223-1.241-.408-1.5-.41-.26-.002-.8-.153-1.201-.335-.4-.181-1.15-.377-1.666-.434-.516-.058-1.238-.237-1.605-.398-.367-.161-1.147-.348-1.734-.414-.588-.067-1.323-.227-1.634-.357-.311-.13-1.172-.313-1.915-.406-.742-.093-1.544-.27-1.783-.393-.239-.124-.959-.28-1.601-.347-.641-.067-1.541-.269-2-.449a10.205 10.205 0 0 0-1.75-.474c-2.594-.417-10.033-2.976-12.333-4.243-2.143-1.181-3.902-2.449-4.885-3.523-1.011-1.104-2.608-3.533-2.613-3.974-.002-.183-.189-.783-.415-1.333-.631-1.53-.63-7.552 0-8.833.225-.459.411-.971.411-1.139.002-.389.974-2.05 1.913-3.27 2.335-3.035 6.968-5.744 11.589-6.778.596-.133 1.56-.39 2.143-.57.582-.179 1.523-.327 2.09-.327.566 0 1.477-.117 2.024-.261a19.833 19.833 0 0 1 1.993-.396c1.538-.206 12.204-.202 13.696.005m-96.363.982c-8.121.092-8.312.112-8.506.885-.17.68.032 41.824.21 42.619.35 1.561.878 3.273 1.206 3.91.187.363.34.745.34.849 0 .104.15.325.334.491.183.166.333.378.333.472 0 .483 2.106 3.197 3.737 4.818 2.224 2.209 2.492 2.46 2.636 2.46.062 0 .61.372 1.218.827.609.454 1.262.876 1.453.937.191.06.498.251.683.423.185.172.415.315.513.318.097.003.625.228 1.172.5.548.272 1.086.495 1.195.495.109 0 .224.077.256.172.031.094.506.289 1.055.432.549.143 1.076.323 1.171.401.094.078.732.263 1.416.41l2.328.502c6.984 1.503 20.155.946 26.167-1.106 1.772-.605 4.393-1.831 5.667-2.65.412-.266.975-.607 1.25-.76.275-.152.622-.399.772-.548.15-.148.518-.457.818-.687 1.056-.806 3.054-2.885 4.053-4.217.331-.441.715-.915.854-1.054s.253-.386.253-.55c0-.163.187-.498.415-.745.228-.246.462-.651.52-.899.058-.248.217-.541.355-.651.137-.11.313-.541.391-.958.078-.417.287-.965.465-1.217.178-.252.375-.834.438-1.292a6.448 6.448 0 0 1 .47-1.583l.355-.75.06-20.621.06-20.62-.359-.505-.36-.504h-16.196l-.557.425-.557.425-.011 18.95c-.01 19.23-.068 21.601-.533 21.941-.14.103-.354.516-.474.92-.332 1.106-2.266 2.99-3.482 3.392-1.702.562-3.217.927-4.57 1.102-.741.095-1.835.248-2.43.339-1.598.244-3.853.214-5.834-.079l-3.375-.501c-.895-.133-1.911-.387-2.258-.564a5.745 5.745 0 0 0-1.291-.445c-.362-.068-.757-.261-.877-.431-.12-.169-.315-.308-.433-.308-.741 0-2.447-2.583-3.068-4.648l-.432-1.435-.091-19.274c-.1-21.07-.05-20.074-.992-19.938-.146.021-3.716.078-7.933.125m-159.97.712c-.372.274-.446 58.53-.074 59.125.322.517 55.012.528 55.288.011.363-.677.224-11.805-.149-12.005-.217-.116-6.703-.173-19.834-.173-19.288 0-19.514-.003-19.844-.333-.509-.509-.519-9.222-.011-9.494.217-.116 6.626-.173 19.588-.173h19.265l.162-.427c.335-.882.206-12.648-.142-12.964-.28-.253-1.867-.275-19.417-.275-18.889 0-19.116-.004-19.445-.334-.548-.547-.514-9.354.037-9.74.33-.231 2.478-.26 19.708-.262 15.254-.002 19.426-.047 19.755-.213l.417-.211.043-6.207.044-6.207-.429-.163c-.695-.264-54.601-.22-54.962.045m60.054-.087c-.472.18-.495.476-.498 6.395-.002 5.537.018 5.95.302 6.208.278.251 1.386.276 12.491.276h12.186l.259.37c.232.331.26 2.789.26 23.011 0 15.288.056 22.745.172 22.963.274.512 14.815.502 15.328-.011.33-.33.333-.556.333-22.825 0-23.562-.011-23.21.729-23.409.195-.052 5.571-.096 11.946-.097 8.791-.002 11.64-.051 11.792-.202.391-.392.275-12.415-.123-12.628-.342-.183-64.698-.233-65.177-.051m108.404.141c.235.235.262 2.232.262 19.494v19.233l.417 1.277c.229.702.417 1.345.417 1.428 0 .184.524.943 1.388 2.011 1.051 1.299 3.059 2.447 4.865 2.781.503.093 1.077.256 1.275.362 1.405.752 11.513.724 13.555-.037.458-.171 1.005-.311 1.214-.311 1.459-.001 4.497-2.113 5.216-3.626.206-.435.507-.983.669-1.217.655-.948.712-2.608.769-22.231.049-17.156.078-18.85.327-19.125.397-.437 16.196-.47 16.632-.034.417.418.315 41.057-.105 41.823-.153.279-.365.991-.47 1.583-.106.592-.288 1.227-.405 1.41-.117.183-.311.633-.43 1-.911 2.796-3.125 5.827-6.641 9.09-.334.31-1.452 1.117-2.692 1.944-2.568 1.713-7.998 3.695-10.834 3.955-.596.054-1.796.247-2.667.428-2.091.434-12.961.488-14.916.074a49.987 49.987 0 0 0-2.951-.488c-.981-.133-2.143-.353-2.583-.49-.44-.136-1.429-.441-2.199-.677-.77-.236-1.595-.531-1.833-.656-.239-.125-1.165-.578-2.058-1.006-2.945-1.413-7.54-5.105-8.722-7.007a31.196 31.196 0 0 0-.911-1.334c-3.227-4.474-3.204-4.264-3.282-29.416l-.061-19.917.36-.292c.523-.423 15.973-.451 16.394-.029m-232.821.26c-.183.109-.388.281-.456.38-.067.1-.123 13.237-.125 29.194l-.002 29.012.385.363.386.362h19.648c13.33 0 20.241-.06 21.49-.187 5.675-.577 10.93-3.25 13.892-7.067.509-.657 2.032-3.17 2.032-3.354 0-.079.177-.482.394-.893.217-.412.448-1.046.514-1.41.066-.363.245-.888.396-1.167.424-.776.508-7.025.109-8.089a14.71 14.71 0 0 1-.472-1.591c-.105-.463-.324-1.045-.487-1.293a5.254 5.254 0 0 1-.439-.825c-.422-1.107-2.031-3.154-3.745-4.764-.93-.874-.926-.802-.103-1.737.366-.417.666-.794.666-.838 0-.044.292-.52.648-1.058.783-1.179 1.595-3.172 1.758-4.31.065-.459.273-1.347.461-1.975.377-1.258.377-4.178 0-4.881-.105-.196-.275-.897-.378-1.558-.102-.662-.321-1.439-.486-1.728a7.02 7.02 0 0 1-.486-1.108c-.102-.321-.523-1.032-.935-1.58-.411-.549-.749-1.036-.749-1.084-.001-.167-1.605-1.854-2.03-2.135l-1.408-.94c-3.028-2.03-6.263-3.168-10.311-3.629-2.757-.314-39.657-.415-40.167-.11m119.432 5.978.005 6.083-19.885.086c-10.937.047-19.899.103-19.915.125a8.466 8.466 0 0 1-.292.301c-.369.37-.397 10.251-.03 10.556.173.144 5.099.192 19.209.191 10.437-.002 19.218.041 19.514.095l.537.098.046 5.941c.025 3.267.019 6.067-.013 6.222-.13.627-.62.643-19.624.631-17.821-.012-19.229.016-19.692.381-.357.281-.294 9.585.067 9.985.264.292 1.106.305 20.074.305 12.192 0 19.835.06 19.894.157.134.217.145 11.118.011 11.334-.117.19-54.166.263-54.658.074-.275-.106-.426-58.347-.152-58.621.062-.062 12.439-.093 27.505-.07l27.393.042.006 6.084m70.068 0v6.083l-11.93.043-11.931.043-.403.429-.403.429v22.611c0 19.898-.03 22.636-.25 22.815-.296.24-14.266.303-14.641.066-.187-.119-.221-3.921-.201-22.633.025-22.621.01-23.237-.543-23.589-.109-.069-5.598-.128-12.198-.13-6.6-.003-12.169-.05-12.375-.106l-.375-.1v-5.967c0-4.617.047-5.986.208-6.051.115-.046 14.796-.071 32.625-.055l32.417.028v6.084M69.546 12.813c1.7.106 2.371.211 2.585.405.159.144.753.337 1.318.428.566.091 1.203.274 1.415.408.212.133.686.337 1.053.452.366.116.927.387 1.247.602.319.216.634.392.7.392.179 0 1.557.954 1.799 1.246.116.139.312.254.436.254.278 0 1.451 1.197 2.233 2.278.321.443.628.843.684.889.246.202 1.034 1.599 1.253 2.22.132.376.317.73.41.787.093.058.24.736.328 1.507.087.771.271 1.812.409 2.314.332 1.206.316 1.864-.079 3.35-.181.681-.333 1.613-.338 2.072a4.006 4.006 0 0 1-.419 1.666c-.226.459-.411.937-.412 1.064-.003.435-1.572 2.852-2.543 3.917-.8.878-.787 1.057.137 1.858.981.851 2.468 2.379 2.556 2.626.037.105.393.667.791 1.249.399.582.724 1.094.724 1.139 0 .045.147.404.326.796 1.909 4.191 1.434 10.716-1.101 15.128a58.592 58.592 0 0 0-.826 1.479c-.369.707-3.684 3.994-4.029 3.994-.175 0-.443.139-.596.308-.509.561-3.828 2.077-5.184 2.366-.454.097-.904.241-1 .32-.627.519-2.075.558-23.055.617-14.473.042-21.15.006-21.375-.114-.437-.234-.525-57.869-.088-58.113.314-.176 37.678-.087 40.641.096m-27.35 12.104c-.441.561-.598 2.677-.494 6.646.044 1.656.013 3.306-.068 3.665-.126.564-.088.741.28 1.298l.427.645 12.704-.051c15.777-.062 15.433-.004 17.288-2.923l.584-.918v-2.264c0-2.636-.182-3.105-1.842-4.752-.909-.901-1.078-.977-2.658-1.185-.459-.06-.938-.195-1.066-.301-.169-.139-3.578-.203-12.528-.236l-12.295-.045-.332.421m26.308.482c5.151 1.232 5.761 9.308.829 10.971-1.018.343-26.715.39-26.998.049-.28-.337-.252-10.701.03-11.041.262-.315 24.818-.295 26.139.021M42.143 46.652l-.393.32-.026 5.305c-.029 5.921.065 6.622.909 6.834.933.234 25.832-.084 26.324-.337.253-.129.872-.288 1.376-.354 1.004-.13 2.103-.978 2.6-2.003.134-.275.352-.688.486-.917.538-.923.292-5.146-.336-5.774-.137-.138-.25-.342-.25-.456 0-.801-1.707-2.188-2.868-2.33-.485-.06-1.182-.217-1.548-.35-1.178-.427-25.741-.369-26.274.062m26.712.435c2.26.339 2.934.84 4.043 3.007 1.405 2.748.03 7.489-2.315 7.974-1.724.357-3.885.432-15.273.532l-12.774.112-.185-.345c-.347-.65-.248-11.146.107-11.354.516-.3 24.348-.234 26.397.074" fill="#65686c"/><path d="M221.345 4.403c-.357.43-.028 1.074.717 1.404 1.347.596 4.066 3.084 5.614 5.139.619.823 1.215 1.397.903.871-1.143-1.926-5.511-6.15-6.359-6.15-.211 0-.501-.775-.348-.928.044-.044 33.688-.077 74.765-.074l74.686.005 1.485.398c3.459.926 7.254 3.472 8.839 5.932.148.229.683.979 1.191 1.667.507.687 1.015 1.437 1.129 1.666.114.23.374.658.578.953.673.969 1.247 1.958 1.368 2.356.066.216.3.658.52.982.22.324.4.682.4.795 0 .113.195.554.433.98.536.96 1.508 3.243 1.845 4.338.139.451.361.986.493 1.188.133.203.317.837.409 1.411.093.573.277 1.252.41 1.51.133.257.318 1 .41 1.65.092.65.278 1.448.414 1.772.135.324.322 1.503.414 2.619.093 1.116.263 2.33.379 2.696.341 1.083.278 8.836-.085 10.356-.156.653-.333 1.853-.393 2.666s-.249 1.837-.419 2.276c-.17.439-.313 1.076-.317 1.417-.004.34-.122.919-.262 1.285-.141.367-.362 1.137-.491 1.711-.13.575-.376 1.325-.547 1.667-.171.342-.36.88-.421 1.195-.06.315-.208.69-.328.833-.121.144-.315.598-.431 1.011-.277.984-2.288 5.122-3.158 6.5a39.86 39.86 0 0 0-1.028 1.717c-.32.592-.658 1.08-2.033 2.931-2.883 3.881-5.764 5.998-9.426 6.927l-1.671.423-74.841.043-74.841.042.099-.416c.121-.506-.045-.345 1.146-1.11 2.57-1.652 4.814-4.119 7.253-7.974l.476-.75c.552-.862 2.511-4.466 2.511-4.619 0-.062-.187.142-.416.453-.229.31-.417.625-.417.7 0 .374-2.15 3.982-3.276 5.496-.387.521-.831 1.196-.987 1.5-.496.97-4.029 4.326-5.402 5.133-1.74 1.022-2.275 1.726-1.46 1.921 1.137.272 150.715-.004 151.188-.279.265-.154.858-.331 1.32-.395 2.23-.307 8.45-4.866 8.45-6.194 0-.086.181-.312.401-.504.221-.192.613-.712.871-1.155.258-.444.602-.952.765-1.13.163-.177.297-.422.297-.543 0-.121.15-.349.333-.506.183-.157.334-.362.334-.456.001-.095.186-.397.413-.672.419-.509 2.942-5.492 3.164-6.25.067-.229.302-.805.522-1.281.22-.476.4-1.047.4-1.269 0-.223.154-.6.342-.839.188-.239.416-.894.506-1.455.091-.56.283-1.199.427-1.42.144-.22.331-1.016.415-1.768.099-.881.255-1.481.438-1.684.22-.243.309-.76.386-2.258.071-1.372.192-2.138.41-2.609.466-1.002.47-10.231.005-11.5-.189-.515-.348-1.565-.417-2.75-.081-1.395-.19-2.036-.401-2.355-.159-.242-.352-1.002-.43-1.699-.098-.872-.251-1.399-.495-1.709-.248-.315-.352-.686-.352-1.249 0-.865-.201-1.546-.564-1.909-.126-.126-.282-.514-.347-.862a4.036 4.036 0 0 0-.419-1.134 4.046 4.046 0 0 1-.414-1.034c-.062-.293-.243-.706-.402-.916-.16-.211-.536-.983-.838-1.716-.301-.734-.691-1.489-.865-1.678-.175-.189-.318-.454-.318-.589 0-.264-.988-1.903-1.402-2.325-.139-.142-.349-.48-.467-.75-.118-.27-.664-1.116-1.214-1.879-.55-.762-1.096-1.564-1.213-1.781-.117-.218-.361-.442-.542-.5-.181-.057-.329-.177-.329-.265 0-.245-1.125-1.288-2.75-2.55-.649-.505-2.397-1.433-2.697-1.433-.128 0-.436-.144-.684-.319-.249-.175-.827-.368-1.285-.429-.459-.062-1.021-.237-1.25-.39-.583-.39-150.499-.515-150.822-.126m114.405 5.774c-1.392.187-3.002.631-2.333.644.275.005.875-.116 1.333-.269 1.288-.43 12.498-.529 14.75-.13 2.352.416 3.18.486 2.083.176-2.016-.57-12.627-.852-15.833-.421m-5.667.845c-.275.088-1.025.302-1.666.476-1.066.29-1.109.317-.5.322.366.004 1.004-.149 1.416-.338.436-.199 1.344-.398 2.167-.473l1.417-.129-1.167-.009c-.642-.005-1.392.063-1.667.151m23.667-.017c.759.071 1.656.274 2.083.473.413.191 1.013.353 1.334.359.321.006.883.127 1.25.268.366.142 1.123.393 1.682.558.558.166 1.158.378 1.333.472.175.094 1.03.496 1.901.893 1.609.734 2.834 1.443 2.834 1.64 0 .06.383.358.852.662 1.099.711 2.958 2.596 3.258 3.302.128.302.34.59.47.64.13.05.324.365.43.701.106.336.286.76.399.944.874 1.415 1.763 8.002 1.23 9.107-.28.58-1.054.643-7.885.643h-6.696l-.334-.375c-.251-.282-.385-.811-.539-2.125-.237-2.034-.463-3-.7-3-.093 0-.275-.255-.406-.567-.867-2.074-6.713-4.663-10.337-4.576l-.992.023 1.083.131c3.14.379 6.12 1.263 7.75 2.3.867.551 2.25 1.799 2.25 2.03 0 .073.187.355.414.626.45.534.743 1.995.749 3.728.003.771.083 1.04.435 1.459l.432.512h14.318l.41-.409c1.249-1.249-.16-9.174-2.04-11.478-.212-.26-.385-.566-.385-.682 0-.236-3.13-3.264-3.374-3.264-.086 0-.468-.268-.849-.595-.663-.57-2.551-1.558-4.693-2.457-.914-.383-2.656-.931-4.584-1.44a94.122 94.122 0 0 1-1.578-.436c-.455-.131-1.28-.228-1.833-.215-1.001.024-.999.025.328.148m-260.888.837-.367.342.016 29.192c.014 25.106.05 29.258.257 29.658l.241.466h27.644c25.055 0 27.654-.025 27.746-.264.156-.406.11-.519-.079-.194-.285.489-54.975.448-55.281-.042-.372-.595-.298-58.851.074-59.125.372-.273 54.269-.308 54.984-.036.398.151.427.141.241-.084-.189-.227-3.212-.255-27.66-.255H93.23l-.368.342m59.914-.037c-.479.529-.413 12.353.072 12.791.333.302.859.317 12.541.362 11.186.043 12.212.07 12.403.326.164.221.208 5.048.208 22.82 0 14.243.06 22.698.163 22.968l.162.428h7.645c7.561 0 7.649-.004 7.963-.351.308-.341.318-.987.354-22.875.021-12.388.04-22.652.042-22.808.008-.538 1.045-.581 12.456-.517 13.3.075 12.037.275 12.065-1.907.087-6.854-.03-11.098-.31-11.311-.528-.401-65.4-.328-65.764.074m65.568.034c.398.213.514 12.236.123 12.628-.152.151-3.001.2-11.792.202-6.375.001-11.751.045-11.946.097-.74.199-.729-.153-.729 23.409 0 22.269-.003 22.495-.333 22.825-.513.513-15.054.523-15.328.011-.116-.218-.172-7.675-.172-22.963 0-20.222-.028-22.68-.26-23.011l-.259-.37h-12.186c-11.105 0-12.213-.025-12.491-.276-.284-.258-.304-.671-.302-6.208.003-5.919.026-6.215.498-6.395.479-.182 64.835-.132 65.177.051m26.833.119-.36.292.061 19.917c.055 17.684.094 20.158.35 22.07.265 1.99.902 4.124 1.075 3.605.039-.117-.084-.523-.273-.902-.718-1.438-.748-2.321-.816-24.019-.062-19.508-.049-20.674.226-20.875.409-.299 15.728-.311 16.027-.013.153.154.2 4.716.2 19.522v19.322l.52 1.52c.286.836.575 1.557.642 1.603.067.046.218.271.336.5.742 1.44 3.848 3.684 5.063 3.659.256-.005.192-.069-.228-.228-1.95-.739-3.049-1.452-3.945-2.559-.864-1.068-1.388-1.827-1.388-2.011 0-.083-.188-.726-.417-1.428l-.417-1.277V31.423c0-17.262-.027-19.259-.262-19.494-.421-.422-15.871-.394-16.394.029m46.768.01c-.249.275-.278 1.969-.327 19.125-.057 19.623-.114 21.283-.769 22.231-.162.234-.464.784-.671 1.221-.518 1.091-2.01 2.387-3.525 3.061-.68.303-1.119.553-.976.556 1.34.026 4.059-2.21 5.043-4.149.605-1.19.716-1.697 1.119-5.096.09-.763.155-8.911.152-19.046-.003-9.742.04-17.786.095-17.875.164-.266 15.944-.216 16.309.051.276.202.289 1.323.239 20.458l-.053 20.245-.374.994c-.206.547-.367 1.26-.36 1.584.013.515.039.474.216-.328.112-.504.312-1.104.445-1.333.388-.668.456-41.346.069-41.733-.436-.436-16.235-.403-16.632.034m-263.635.184-.393.319v58.558l.404.328c.398.322.739.326 21.75.268l21.346-.06 1.833-.517C79.521 69.279 84.376 65.502 86.167 61a9.08 9.08 0 0 1 .532-1.083c.165-.275.292-.725.283-1l-.016-.5-.128.537c-.07.296-.237.708-.372.917a4.958 4.958 0 0 0-.421.895c-1.135 3.318-5.351 7.276-9.545 8.965-4.369 1.758-4.539 1.769-27.937 1.769H28.891l-.362-.386-.362-.385.002-28.99c.002-15.944.058-29.072.125-29.172.403-.604.438-.605 19.771-.55 24.703.071 25.603.184 31.163 3.911l1.408.94c.425.281 2.029 1.968 2.03 2.135 0 .048.338.535.749 1.084.412.548.833 1.259.935 1.58.103.321.321.819.486 1.108.165.289.384 1.069.487 1.733.103.664.235 1.284.292 1.377.058.093.16.401.228.684l.123.514.017-.521c.009-.287-.086-.774-.212-1.083-.127-.309-.281-.918-.344-1.352-.832-5.775-7.66-10.837-16.232-12.032-3.171-.443-40.332-.391-40.885.057m297.44.04c-.458.183-1.246.487-1.75.677-3.306 1.241-6.325 3.346-8.089 5.639-.968 1.257-1.915 2.892-1.894 3.27.014.274.028.271.129-.028.125-.369.515-1.052 1.269-2.225.552-.858 3.04-3.525 3.288-3.525.087 0 .47-.252.852-.56 1.005-.811 4.271-2.437 5.56-2.768.92-.237 2.231-.834 1.802-.822-.184.006-.709.16-1.167.342m-177.175 5.975c0 3.345.023 4.714.05 3.041.027-1.673.027-4.41 0-6.083s-.05-.304-.05 3.042m80.092-5.846c0 .086.129.284.287.442.157.158.373.445.479.637.582 1.061 1.898 3.219 2.097 3.438.126.141.363.603.525 1.029.279.729.778 1.376.778 1.007 0-.092-.108-.257-.241-.367-.133-.11-.329-.464-.435-.786-.106-.321-.473-1.009-.816-1.528-.343-.519-.718-1.13-.834-1.36-.569-1.122-1.84-2.858-1.84-2.512m4.186 7.115c-.011.194.122.532.295.752.173.221.393.662.489.981.095.32.472 1.309.837 2.198.364.89.716 1.865.78 2.167.065.302.174.624.243.716.069.092.204.392.301.667.169.482.176.485.189.078a1.46 1.46 0 0 0-.216-.75c-.125-.18-.283-.591-.351-.912a6.409 6.409 0 0 0-.346-1.083c-.212-.473-.539-1.296-1.249-3.146-.171-.447-.42-.935-.551-1.084a1.686 1.686 0 0 1-.321-.603c-.077-.318-.082-.317-.1.019m110.522 1.512c.16.042.423.042.583 0 .161-.042.03-.076-.291-.076-.321 0-.452.034-.292.076m-6.208.316c-.413.132-1.262.309-1.887.391-7.663 1.011-8.674 7.874-1.576 10.692 2.098.833 2.641 1.012 4.296 1.414.962.234 2.275.567 2.917.741.641.173 1.616.366 2.166.429.55.063 1.148.216 1.329.342.181.125.593.219.917.21l.588-.016-.654-.154c-.359-.084-.734-.218-.833-.298-.099-.079-.85-.232-1.668-.34-.819-.107-1.635-.274-1.814-.369-.178-.096-.98-.309-1.781-.473-.802-.164-1.612-.381-1.801-.482-.189-.101-.48-.185-.647-.186-.995-.003-5.218-1.972-6.171-2.876-3.263-3.097-.127-8.438 4.963-8.454.328-.001 1.003-.123 1.5-.271.498-.149 1.431-.326 2.072-.394l1.167-.125-1.167-.011c-.641-.007-1.504.097-1.916.23m-23.625 1.743c-.56 1.212-.569 7.129-.014 8.612.198.53.389.881.423.778.034-.102-.091-.573-.278-1.047-.513-1.302-.511-7.028.003-8.036.189-.37.32-.773.292-.896-.028-.123-.22.142-.426.589M148 24.609c-.338.178-4.082.22-19.755.222-17.23.002-19.378.031-19.708.262-.551.386-.585 9.193-.037 9.74.329.33.556.334 19.474.334 18.332 0 19.153.013 19.417.304.322.356.425 12.115.113 12.935l-.162.427h-19.265c-12.962 0-19.371.057-19.588.173-.508.272-.498 8.985.011 9.494.33.33.556.333 19.844.333 14.518 0 19.604.05 19.875.194.329.176.342.168.136-.083-.211-.256-1.74-.277-19.641-.277-18.041 0-19.447-.021-19.897-.286l-.484-.286V53.72c0-4.155.017-4.384.323-4.547.217-.117 6.596-.173 19.49-.173h19.168l.26-.37c.439-.627.385-12.771-.059-13.32l-.319-.393-19.14-.084c-10.526-.046-19.271-.147-19.431-.226-.267-.131-.292-.521-.292-4.621v-4.477l.494-.256c.436-.225 2.786-.255 19.867-.252 16.951.004 19.403-.027 19.621-.245.341-.34.188-.412-.315-.147m-105.633.758c-.11.11-.194.391-.185.625.013.382.031.369.172-.122l.158-.546 12.869.046 12.869.047 1.031.442c3.793 1.627 4.47 6.651 1.276 9.463-1.271 1.119-.682 1.074-14.869 1.136-14.214.063-13.489.114-13.544-.942-.021-.406-.027-.409-.096-.048-.041.212.049.572.198.8l.273.415 13.115-.058c14.501-.065 13.775-.007 15.141-1.203 1.467-1.285 1.789-2.012 1.864-4.208.106-3.128-1.327-5.143-4.135-5.815-1.279-.306-25.833-.336-26.137-.032m43.69 3.05c.001.733.03 1.012.065.62a8.344 8.344 0 0 0-.001-1.333c-.036-.341-.064-.021-.064.713m149.956-.652c-.007.192.099.717.236 1.167.411 1.346 1.084 4.693 1.084 5.387 0 .357.15 1.525.334 2.598.262 1.537.333 2.71.333 5.544 0 1.977.037 3.558.082 3.512.487-.486-.172-10.504-.941-14.306-.292-1.444-1.114-4.288-1.128-3.902M85.625 31.189a18.77 18.77 0 0 0-.4 1.811c-.155 1.069-.986 3.085-1.744 4.227-.356.538-.648 1.014-.648 1.058 0 .044-.3.421-.666.838-.823.935-.827.863.103 1.737 1.714 1.61 3.323 3.657 3.745 4.764.078.206.276.577.439.825.163.248.382.83.487 1.293.105.463.317 1.179.472 1.591.415 1.108.314 7.313-.133 8.137-.165.304-.275.629-.244.723.032.093.229-.174.438-.594.565-1.13.484-8.118-.106-9.176-.202-.363-.368-.831-.368-1.039 0-1.028-2.23-4.41-3.989-6.051l-1.323-1.234.275-.466c.152-.257.322-.466.379-.466.506 0 2.787-4.467 3.004-5.883.087-.569.276-1.351.418-1.738.143-.387.236-.865.206-1.061-.032-.218-.167.057-.345.704M314.023 33c-.04.999 2.635 4.404 4.458 5.675 3.545 2.471 5.333 3.233 13.314 5.672.575.176 1.138.317 1.25.314.344-.009-1.233-.613-2.295-.879a31.163 31.163 0 0 1-1.833-.527 50.22 50.22 0 0 0-1.5-.466c-2.188-.625-6.165-2.402-7.334-3.278a13.361 13.361 0 0 0-1.315-.854c-1.348-.737-4.291-4.338-4.623-5.656l-.106-.418-.016.417m32.894 2.661c.55.061 1.466.274 2.036.475.627.22 1.384.355 1.917.341l.88-.023-1-.115a10.07 10.07 0 0 1-1.965-.477 5.136 5.136 0 0 0-1.916-.337l-.952.026 1 .11m5.333 1.103c.275.145 1.1.363 1.833.485.734.122 1.596.331 1.917.465.321.134.984.294 1.473.356.49.061 1.164.259 1.498.438.334.179.841.325 1.127.325.285 0 .872.188 1.303.417.431.229.948.413 1.149.409.397-.008-.061-.217-1.592-.728l-1.583-.529a20.138 20.138 0 0 0-1.875-.49c-.596-.124-1.346-.333-1.667-.465-.321-.132-1.033-.294-1.583-.361-.55-.066-1.202-.225-1.45-.353-.248-.128-.585-.233-.75-.232-.205.001-.142.084.2.263m11.188 3.143c.287.125.573.309.635.41.062.101.247.183.41.183 1.015 0 5.246 2.598 6.823 4.189 2.731 2.755 3.412 4.665 3.495 9.796.064 3.921.033 4.189-.748 6.432-.562 1.613-2.818 5.178-3.413 5.393-.091.033-.387.276-.659.542-.271.265-.551.481-.622.481-.071 0-.275.132-.453.292-1.775 1.602-6.317 3.657-9.248 4.185-.51.092-1.222.278-1.584.414-.361.136-1.358.291-2.214.344-.856.054-2.018.229-2.583.39-1.533.436-16.393.443-17.741.008-.485-.157-1.647-.335-2.584-.397-.936-.061-1.948-.212-2.249-.334-.3-.122-.983-.301-1.517-.398-2.962-.537-8.518-2.826-9.853-4.06a3.46 3.46 0 0 0-.628-.428c-.825-.431-3.385-2.994-3.975-3.981L313.911 62c-1.139-1.901-1.663-4.419-1.847-8.869-.089-2.152-.067-2.843.097-3.041.271-.326 14.135-.394 14.458-.071.119.119.155.611.099 1.375-.064.878.006 1.582.268 2.689.195.825.396 1.688.448 1.917.562 2.512 4.046 5.121 7.899 5.916.688.142 1.625.34 2.084.441 1.216.268 6.084.409 9.96.288 7.249-.226 10.963-1.765 12.53-5.191 1.37-2.996-1.223-6.388-5.99-7.837a16.998 16.998 0 0 1-1.453-.518c-.341-.146-.754-.264-.917-.262-.353.005 1.453.768 2.19.925.282.061.701.206.93.323.229.118.941.459 1.583.759 3.165 1.477 4.575 4.18 3.437 6.587-1.211 2.558-3.233 3.762-7.854 4.673-2.339.462-12.317.463-14.666.002-7.38-1.447-9.861-3.957-10.119-10.234-.076-1.867-.08-1.88-.554-2.125-.626-.324-13.374-.37-14.073-.052-1.42.647-.422 9.525 1.406 12.521.324.531.678 1.125.786 1.32.591 1.068 4.608 4.797 5.166 4.797.061 0 .233.111.382.245 1.43 1.294 9.148 3.867 12.506 4.169.687.062 1.974.257 2.859.433 2.125.423 15.201.472 17.307.066.688-.133 2-.326 2.917-.428.917-.103 2.166-.329 2.776-.503.61-.173 1.219-.315 1.354-.315 2.024 0 7.504-2.739 10.537-5.265.757-.631.798-.674 1.299-1.353.256-.348.681-.917.946-1.265 1.769-2.328 2.368-4.692 2.372-9.367l.004-3.667-.525-1.568c-1.315-3.927-4.987-7.409-9.596-9.099-.459-.168-.952-.406-1.097-.528a1.03 1.03 0 0 0-.583-.215c-.224.005-.163.075.201.234M334 44.822c.412.079 1.125.292 1.583.473.459.181 1.359.384 2 .451.642.067 1.362.223 1.601.347.239.123 1.041.3 1.783.393.743.093 1.625.284 1.962.425.336.141.809.247 1.05.236.338-.015.361-.036.104-.094-.183-.042-.765-.22-1.292-.398-.527-.177-1.277-.325-1.667-.329a4.67 4.67 0 0 1-1.374-.267c-.367-.142-1.312-.356-2.1-.475s-1.678-.343-1.977-.497c-.299-.155-.967-.31-1.483-.345-.931-.063-.933-.062-.19.08m-96.3 2.845c-.12.871-.288 2.183-.375 2.916a29.943 29.943 0 0 1-.416 2.5c-.743 3.345-.977 4.26-1.343 5.254-.219.599-.399 1.208-.399 1.355 0 .266-.639 1.824-1.095 2.667-.131.243-.239.539-.239.657 0 .386.481-.408.767-1.266.153-.458.353-.928.445-1.045.092-.116.226-.491.296-.833.071-.342.278-1.072.459-1.622.587-1.779 1.005-3.316 1.111-4.083.057-.413.208-1.2.336-1.75.304-1.309.806-5.383.729-5.917-.032-.229-.157.296-.276 1.167m-195.242-.654c-.16.094-.291.293-.291.444 0 .23.037.222.236-.05.572-.782 26.484-.52 28.209.285 3.774 1.763 3.333 9.687-.575 10.326l-.62.101.612.024c.587.023.972-.198 1.991-1.143 1.555-1.442 1.976-4.758.878-6.906-1.109-2.167-1.783-2.668-4.043-3.007-2.049-.308-25.881-.374-26.397-.074m302.76.327c.441.075.904.221 1.03.325.126.105.741.261 1.366.348.625.086 1.487.306 1.917.489.429.182.992.324 1.25.314l.469-.017-.5-.13a8.82 8.82 0 0 1-1.09-.387c-.325-.142-1.075-.312-1.667-.378-.592-.065-1.338-.258-1.657-.428a2.968 2.968 0 0 0-1.25-.29l-.669.02.801.134m-37.873 9.471c-.19.371-.345.76-.345.863 0 .668-2.063 4.128-3.415 5.728-1.823 2.157-4.921 4.931-5.506 4.931-.113 0-.308.126-.434.279-.496.603-4.792 2.506-6.895 3.054a26.79 26.79 0 0 0-1.833.544c-.367.132-1.342.286-2.167.343-.825.058-1.875.232-2.333.389-1.422.485-13.138.538-15.078.068a25.807 25.807 0 0 0-3.007-.494c-.872-.082-1.847-.261-2.167-.397-.32-.135-1.032-.362-1.582-.504-1.984-.511-6.137-2.413-7.5-3.436a13.448 13.448 0 0 0-1.109-.752c-.243-.139-.778-.573-1.188-.965-.411-.391-1.037-.982-1.392-1.313-1.732-1.615-3.581-4.146-4.797-6.566-.138-.275-.251-.387-.252-.25 0 .138.316.792.702 1.455 2.638 4.52 6.362 8.033 10.746 10.136.893.428 1.819.881 2.058 1.006.238.125 1.063.42 1.833.656.77.236 1.759.541 2.199.677.44.137 1.602.357 2.583.49.981.132 2.309.352 2.951.488 1.955.414 12.825.36 14.916-.074.871-.181 2.071-.374 2.667-.428 2.836-.26 8.266-2.242 10.834-3.955 1.24-.827 2.358-1.634 2.692-1.944 3.516-3.263 5.73-6.294 6.641-9.09.119-.367.328-.838.464-1.047.136-.209.205-.422.153-.474-.052-.052-.249.21-.439.582m-265.168.992c-.006.12.073.374.174.564l.185.345 12.857-.117c7.071-.064 13.119-.185 13.44-.269.469-.123.371-.138-.5-.076-.851.06-19.312.128-24.713.091-1.013-.007-1.146-.047-1.281-.383-.083-.206-.156-.276-.162-.155m226.991.519c.23.07.657.251.95.403.314.162.929.276 1.499.276.531.001 1.904.115 3.05.254 1.4.17 2.493.211 3.333.125 1.204-.123 1.155-.132-1.333-.243-3.769-.167-6-.401-6.703-.704-.341-.146-.754-.26-.917-.252-.198.01-.158.057.121.141m14.499.186c-.413.169-1.2.318-1.75.331-.55.013-1.375.086-1.834.163-.564.094-.188.111 1.167.053 1.619-.07 2.159-.16 2.833-.474.987-.458.663-.515-.416-.073M148.575 65c0 3.162.022 4.456.05 2.875a204.1 204.1 0 0 0 0-5.75c-.028-1.581-.05-.288-.05 2.875m84.684-.644c-.269.533-.453 1.006-.407 1.051.108.109 1.025-1.701.953-1.881-.03-.075-.276.298-.546.83" fill="#8a8f94"/><path d="M19.301.693c-.05.678-.071.701-.954 1-.496.168-1.021.404-1.166.524-.146.12-.452.299-.681.396-1.417.605-5.333 4.528-5.333 5.342 0 .084-.223.447-.496.807-.272.36-.497.724-.5.808-.002.085-.125.287-.272.449-.791.874-5.732 10.47-5.732 11.131 0 .111-.144.516-.319.901a7.043 7.043 0 0 0-.439 1.366 7.071 7.071 0 0 1-.419 1.333A6.9 6.9 0 0 0 2.581 26a22.875 22.875 0 0 1-.431 1.667c-.176.595-.412 1.795-.526 2.666l-.207 1.584-.709.051-.708.051V53.28l.675.223c.851.281.843.265 1.012 1.934.078.768.253 1.662.389 1.988.136.325.363 1.154.505 1.84.142.687.329 1.377.415 1.534.087.156.431 1.109.766 2.118.714 2.152 1.801 4.814 2.45 6 .101.183.284.558.409.833.462 1.022 2.2 4.072 3.056 5.366.315.476.948 1.478 1.406 2.226 1.373 2.241 3.505 4.429 5.124 5.257.695.357.802.484.896 1.07l.106.664h365.925l.145-.625c.104-.448.285-.695.641-.875.566-.285 2.928-2.141 3.13-2.458.074-.116.299-.389.5-.608.933-1.012 2.639-3.188 2.976-3.793.152-.274.384-.623.515-.777.131-.154.524-.798.872-1.432.348-.633.799-1.395 1.001-1.694.524-.772 2.166-4.164 2.496-5.154.153-.459.421-1.079.597-1.379.175-.299.444-.973.596-1.498.152-.524.42-1.227.595-1.562.174-.335.358-.898.407-1.252.05-.353.2-.868.335-1.143s.337-1.062.448-1.75l.204-1.25.704-.051.704-.051V28.167h-.667c-.366 0-.67-.019-.676-.042l-.308-1.708c-.165-.917-.541-2.304-.837-3.084a40.111 40.111 0 0 1-.758-2.166c-.875-2.965-5.113-10.89-7.138-13.349a77.43 77.43 0 0 1-1.381-1.772c-1.331-1.753-5.125-4.543-6.183-4.545-.109-.001-.249-.339-.311-.751l-.112-.75H19.352l-.051.693m352.866 3.836c.229.153.791.328 1.25.39.458.061 1.036.254 1.285.429.248.175.556.319.684.319.3 0 2.048.928 2.697 1.433 1.625 1.262 2.75 2.305 2.75 2.55 0 .088.148.208.329.265.181.058.425.282.542.5.117.217.663 1.019 1.213 1.781.55.763 1.096 1.609 1.214 1.879.118.27.328.608.467.75.414.422 1.402 2.061 1.402 2.325 0 .135.143.4.318.589.174.189.564.944.865 1.678.302.733.678 1.505.838 1.716.159.21.34.623.402.916.062.294.249.759.414 1.034.166.275.355.785.419 1.134.065.348.221.736.347.862.363.363.564 1.044.564 1.909 0 .563.104.934.352 1.249.244.31.397.837.495 1.709.078.697.271 1.457.43 1.699.211.319.32.96.401 2.355.069 1.185.228 2.235.417 2.75.465 1.269.461 10.498-.005 11.5-.218.471-.339 1.237-.41 2.609-.077 1.498-.166 2.015-.386 2.258-.183.203-.339.803-.438 1.684-.084.752-.271 1.548-.415 1.768-.144.221-.336.86-.427 1.42-.09.561-.318 1.216-.506 1.455-.188.239-.342.616-.342.839 0 .222-.18.793-.4 1.269-.22.476-.455 1.052-.522 1.281-.222.758-2.745 5.741-3.164 6.25-.227.275-.412.577-.413.672 0 .094-.151.299-.334.456-.183.157-.333.385-.333.506s-.134.366-.297.543c-.163.178-.507.686-.765 1.13-.258.443-.65.963-.871 1.155-.22.192-.401.418-.401.504 0 1.328-6.22 5.887-8.45 6.194-.462.064-1.055.241-1.32.395-.473.275-150.051.551-151.188.279-.815-.195-.28-.899 1.46-1.921 1.401-.823 4.918-4.178 5.411-5.163.161-.321.423-.733.582-.916.906-1.043 3.277-5.003 4.342-7.25.109-.229.415-.867.681-1.417.265-.55.482-1.101.482-1.224 0-.124.108-.424.239-.667.456-.843 1.095-2.401 1.095-2.667 0-.147.18-.756.399-1.355.366-.995.606-1.934 1.343-5.254.142-.641.333-1.804.424-2.583.091-.779.277-2.167.413-3.083.34-2.287.338-8.001-.003-10a53.25 53.25 0 0 1-.412-3.084c-.086-.871-.354-2.408-.596-3.416a221.199 221.199 0 0 1-.68-2.917c-.132-.596-.342-1.289-.467-1.54a5.004 5.004 0 0 1-.339-.966c-.062-.28-.411-1.237-.775-2.127-.365-.889-.742-1.878-.837-2.198-.096-.319-.316-.76-.489-.981-.173-.22-.315-.568-.315-.773 0-.206-.108-.464-.241-.574-.133-.11-.374-.549-.537-.974-.162-.426-.399-.888-.525-1.029-.205-.227-1.547-2.431-2.123-3.488-.12-.22-.287-.445-.37-.5-.084-.055-.258-.298-.386-.539-1.033-1.936-4.906-5.76-6.589-6.504-.745-.33-1.074-.974-.717-1.404.323-.389 150.239-.264 150.822.126m-152.417.302c.183.002.616.264.962.581.345.317.919.655 1.274.751.356.096.689.286.742.422.052.137.195.248.318.248.234 0 2.333 1.984 3.621 3.423.854.955 1.407 1.715 2.615 3.593.201.312.44.654.532.759.092.105.272.443.401.75.128.307.357.662.509.787.152.126.276.319.276.43 0 .11.188.376.417.592.28.263.416.57.416.939 0 .323.131.67.318.846.174.164.594 1.01.932 1.881.339.871.759 1.898.933 2.283.175.384.317.776.317.871 0 .094.215.717.477 1.384.262.667.525 1.582.584 2.033.059.452.212.94.339 1.084.126.144.314.894.416 1.667.102.773.308 1.592.457 1.82.202.308.305 1.046.4 2.862.098 1.891.197 2.576.435 3.013.455.834.459 8.269.006 9.112-.218.406-.325 1.158-.419 2.935-.099 1.896-.189 2.486-.434 2.86-.188.287-.36.977-.439 1.76-.071.709-.242 1.464-.38 1.678-.137.214-.327.818-.422 1.343-.096.524-.279 1.162-.408 1.416-.128.255-.328.875-.443 1.379-.115.504-.344 1.142-.508 1.417a4.03 4.03 0 0 0-.414 1.12c-.063.341-.253.778-.421.972-.168.194-.357.59-.42.88-.064.29-.293.74-.511.999-.217.259-.395.681-.395.938 0 .271-.135.563-.321.696-.177.125-.591.745-.921 1.375-.33.631-.748 1.355-.929 1.609-.181.255-.329.533-.329.619 0 .157-.368.63-1.208 1.551-.252.276-.458.601-.458.722s-.169.42-.375.664c-.207.243-.563.672-.792.952-.764.934-2.488 2.653-2.66 2.653-.094 0-.264.15-.379.333-.114.184-.337.334-.495.334-.158 0-.534.213-.835.475-.301.261-.756.525-1.01.587-.463.113-1.024.563-1.142.917-.046.138-24.937.188-95.197.19l-95.134.003-1.608-.439c-4.401-1.198-7.353-3.238-9.204-6.357A19.525 19.525 0 0 0 17.82 72c-1.769-2.313-5.15-8.577-5.441-10.079-.054-.277-.236-.766-.405-1.085-.169-.32-.307-.693-.307-.83s-.144-.626-.319-1.086c-.571-1.501-1.181-3.535-1.181-3.94 0-.218-.153-.798-.34-1.289-.187-.493-.414-1.686-.507-2.666-.092-.975-.296-2.186-.452-2.691-.446-1.438-.375-8.679.111-11.392.195-1.086.354-2.345.354-2.796 0-.452.145-1.233.322-1.736a10.74 10.74 0 0 0 .437-1.871c.063-.526.258-1.274.432-1.664.175-.39.364-.952.42-1.25.057-.298.166-.622.243-.721.077-.099.289-.662.472-1.25.183-.589.604-1.708.935-2.487.332-.78.676-1.716.764-2.081.089-.366.255-.778.368-.917.348-.423 1.441-2.292 1.441-2.463 0-.088.225-.443.5-.789.275-.346.5-.72.5-.832 0-.111.225-.512.5-.892s.5-.733.5-.785c0-.096 2.167-3.353 2.91-4.374.644-.884 3.774-3.367 4.244-3.367.148 0 .529-.176.849-.39.656-.44 1.361-.661 3.747-1.171l1.666-.356L125 4.789c51.929.021 94.567.04 94.75.042m116.15 5.502c-.467.068-1.104.206-1.416.306-.312.101-1.43.255-2.484.345-1.284.108-2.164.274-2.667.502-.412.187-1.05.343-1.416.347-.367.004-.99.154-1.385.334-.395.179-1.032.406-1.417.505-1.289.331-4.555 1.957-5.56 2.768-.382.308-.765.56-.852.56-.261 0-2.757 2.692-3.289 3.548-.274.44-.662 1.056-.864 1.37a4.016 4.016 0 0 0-.481 1.202 5.58 5.58 0 0 1-.425 1.248c-.527 1.049-.457 6.632.103 8.215.227.642.414 1.293.416 1.448.012.906 3.283 4.903 4.605 5.626.357.195.949.58 1.315.854 1.169.876 5.146 2.653 7.334 3.278a50.22 50.22 0 0 1 1.5.466c.458.152 1.283.387 1.833.523s1.262.363 1.583.504c.321.141 1.09.321 1.708.399.618.079 1.361.265 1.65.415.289.149 1.171.369 1.959.488s1.733.333 2.1.475a4.67 4.67 0 0 0 1.374.267c.39.004 1.141.157 1.671.34.529.184 1.494.4 2.145.482.65.082 1.361.261 1.579.398.219.138.885.302 1.48.365s1.42.252 1.833.419c.413.167 1.201.417 1.751.555 6.589 1.653 9.919 5.081 8.324 8.569-1.567 3.426-5.281 4.965-12.53 5.191-3.876.121-8.744-.02-9.96-.288-.459-.101-1.396-.299-2.084-.441-3.853-.795-7.337-3.404-7.899-5.916a337.58 337.58 0 0 0-.448-1.917c-.262-1.107-.332-1.811-.268-2.689.056-.764.02-1.256-.099-1.375-.323-.323-14.187-.255-14.458.071-.164.198-.186.889-.097 3.041.184 4.45.708 6.968 1.847 8.869l.819 1.368c.59.987 3.15 3.55 3.975 3.981.208.108.491.301.628.428 1.335 1.234 6.891 3.523 9.853 4.06.534.097 1.217.276 1.517.398.301.122 1.313.273 2.249.334.937.062 2.099.24 2.584.397 1.348.435 16.208.428 17.741-.008.565-.161 1.727-.336 2.583-.39.856-.053 1.853-.208 2.214-.344a11.144 11.144 0 0 1 1.584-.414c2.931-.528 7.473-2.583 9.248-4.185.178-.16.382-.292.453-.292.071 0 .351-.216.622-.481.272-.266.568-.509.659-.542.595-.215 2.851-3.78 3.413-5.393.781-2.243.812-2.511.748-6.432-.111-6.883-2.008-9.881-8.286-13.096-.954-.489-1.839-.889-1.965-.889-.127 0-.436-.152-.687-.338-.252-.186-.755-.386-1.119-.444-.363-.059-.991-.282-1.394-.496-.403-.214-.967-.389-1.252-.389-.286 0-.793-.146-1.127-.325-.334-.179-1.008-.377-1.498-.44a8.524 8.524 0 0 1-1.646-.408c-.416-.162-1.203-.348-1.75-.414-.546-.065-1.308-.26-1.693-.433-.391-.175-1.076-.313-1.555-.313-.471 0-1.394-.181-2.051-.401-.657-.221-1.832-.452-2.611-.513-.78-.061-1.567-.207-1.75-.324-.184-.118-.784-.266-1.334-.33a18.017 18.017 0 0 1-2.166-.43c-.642-.174-1.955-.507-2.917-.741-1.655-.402-2.198-.581-4.296-1.414-7.098-2.818-6.085-9.685 1.576-10.691.625-.082 1.508-.264 1.962-.405 1.437-.444 9.054-.392 11.091.076 4.245.976 7.203 2.573 7.913 4.273.131.312.313.567.406.567.237 0 .463.966.7 3 .154 1.314.288 1.843.539 2.125l.334.375h6.696c6.831 0 7.605-.063 7.885-.643.533-1.105-.356-7.692-1.23-9.107-.113-.184-.293-.608-.399-.944-.106-.336-.3-.651-.43-.701-.13-.05-.342-.338-.47-.64-.3-.706-2.159-2.591-3.258-3.302-.469-.304-.852-.602-.852-.662 0-.266-1.892-1.262-4.917-2.59-.832-.365-2.615-.925-3.5-1.099a14.644 14.644 0 0 1-1.583-.422c-.96-.329-1.882-.505-3.75-.715-.825-.093-2.1-.279-2.834-.414-1.448-.265-12.022-.339-13.683-.095m13.573.428c.349.175 1.336.31 2.959.407 1.897.112 2.503.206 2.743.423.185.167.77.33 1.461.406.72.079 1.332.253 1.633.464.267.188.883.381 1.382.434.556.059 1.034.22 1.25.42.192.179.649.378 1.016.442.366.065.816.248 1 .407.183.159.58.372.882.473.302.101.764.337 1.026.524.262.186.559.339.66.339.101 0 .347.187.546.417.199.229.443.416.542.416.099 0 .274.15.388.334.115.183.296.333.403.333.231 0 1.876 1.728 2.469 2.593.23.334.552.753.717.932.164.178.448.805.629 1.392.182.588.392 1.107.468 1.154.263.163.933 4.941.998 7.112.029.977-.021.984-7.647.984-7.809 0-7.165.146-7.165-1.624 0-.603-.094-1.104-.244-1.303-.135-.178-.247-.645-.25-1.039-.004-.537-.11-.82-.422-1.133-.229-.229-.417-.485-.417-.568 0-.945-3.161-3.291-5.083-3.771a25.27 25.27 0 0 1-1.584-.461c-2.639-.888-13.784-.785-15.5.143a4.218 4.218 0 0 1-1 .338c-.527.102-1.525.608-2.931 1.488-.468.292-.786.689-1.361 1.695-1.042 1.824.389 6.402 2.001 6.401.16 0 .436.145.612.321.423.423.917.679 1.309.679.175 0 .448.143.605.317.158.174.563.368.901.429.338.062.914.247 1.281.411.763.342 2.307.763 4 1.092.642.125 1.509.343 1.928.485.419.143 1.281.334 1.917.427 1.629.236 3.801.63 5.072.919.595.136 1.397.248 1.782.25.404.002.948.151 1.29.353.411.242.999.377 1.926.44.734.05 1.335.144 1.335.208 0 .231.852.495 1.955.606.659.066 1.282.232 1.498.399.203.158.826.338 1.384.401.63.072 1.129.229 1.314.415.168.167.691.351 1.191.417.572.076.967.227 1.103.422.123.175.525.35.953.414.406.061.779.216.828.344.05.128.412.324.807.436.394.112.8.303.901.424.101.122.444.33.763.463s.676.359.795.502c.119.143.338.262.487.264.533.009 3.531 3.132 3.936 4.1.129.309.307.562.395.562.088 0 .212.319.274.709.062.389.294 1.097.515 1.573.559 1.205.625 8.395.085 9.282-.174.286-.404.945-.51 1.465-.106.52-.297 1.032-.425 1.139-.127.106-.317.449-.42.762-.104.314-.244.57-.311.57-.068 0-.292.3-.498.667-.206.367-.447.667-.536.667-.089 0-.208.131-.265.291-.118.331-1.339 1.542-1.555 1.542-.078 0-.189.15-.247.333-.059.184-.217.334-.352.334-.136 0-.434.187-.663.416-.228.228-.638.53-.909.671-.271.14-.493.328-.493.417 0 .089-.098.162-.217.162-.12 0-.589.18-1.042.4-.453.22-1.1.486-1.436.592-.336.106-.698.296-.803.423-.106.127-.412.273-.68.325l-.99.191c-.276.053-.62.215-.764.359-.169.169-.733.304-1.583.378-.927.082-1.422.208-1.661.424-.28.254-.767.331-2.777.443-1.803.101-2.571.211-2.951.424-.875.491-13.771.529-15.204.045-.695-.234-1.747-.39-3.26-.483-1.693-.104-2.343-.209-2.688-.435-.267-.175-.97-.348-1.704-.42-.787-.077-1.362-.225-1.556-.4-.168-.152-.777-.353-1.354-.446-.576-.092-1.233-.315-1.461-.494-.228-.179-.619-.326-.869-.326s-.634-.139-.853-.309c-.218-.17-.697-.406-1.064-.524-.366-.118-.845-.354-1.064-.524-.218-.17-.481-.312-.583-.316-.102-.004-.446-.229-.763-.5s-.665-.493-.773-.493c-.107 0-.318-.188-.468-.417-.15-.229-.342-.417-.426-.417-.19 0-2.173-1.981-2.173-2.172 0-.076-.142-.184-.316-.239-.175-.055-.362-.28-.417-.498-.055-.219-.277-.61-.494-.869-.216-.26-.449-.659-.517-.888a3.77 3.77 0 0 0-.347-.773c-.881-1.398-1.791-9.704-1.174-10.702.223-.362 13.762-.264 13.778.1.008.16.035 1.089.062 2.063.034 1.255.13 1.936.33 2.333.155.309.349.91.431 1.335.151.785.693 1.777 1.318 2.411.191.193.346.408.346.478 0 .202 1.211 1.255 1.444 1.255.116 0 .284.136.374.304.089.167.486.399.881.516.395.117.83.31.968.429.137.119.662.328 1.167.464a27.49 27.49 0 0 1 1.416.422c2.313.806 12.068 1.096 16.167.481 3.227-.484 6.159-1.552 6.71-2.443.115-.187.292-.34.394-.34.251 0 1.284-1.147 1.418-1.573a2.79 2.79 0 0 1 .398-.717c.599-.766.598-3.103 0-3.681-.159-.154-.338-.537-.398-.853-.15-.784-1.849-2.329-2.981-2.709-.297-.1-.646-.265-.774-.366-.211-.167-1.258-.599-2.6-1.074-1.54-.544-3.963-1.192-4.834-1.292-.55-.063-1.25-.249-1.557-.412-.306-.164-1.114-.35-1.795-.413-.681-.064-1.515-.258-1.853-.43-.402-.204-.966-.313-1.624-.313-.71 0-1.205-.105-1.668-.354-.444-.237-1.138-.393-2.123-.474-1.005-.083-1.561-.21-1.774-.402-.193-.175-.793-.336-1.585-.424-.738-.083-1.466-.271-1.73-.446-.252-.167-.935-.354-1.519-.416-.584-.061-1.109-.185-1.166-.273-.189-.289-.755-.498-1.668-.614-.492-.063-.997-.216-1.122-.341-.125-.125-.599-.307-1.053-.405-.453-.097-1.073-.328-1.377-.513-.304-.186-.747-.337-.985-.338-.238 0-.605-.15-.816-.333-.211-.182-.633-.401-.94-.485a3.38 3.38 0 0 1-.998-.502c-.243-.191-.515-.347-.605-.347-.089 0-.398-.193-.685-.428-1.063-.871-1.824-1.405-2.005-1.409-.102-.002-.41-.275-.685-.606-.275-.332-.65-.761-.833-.953-.184-.192-.461-.632-.617-.977-.156-.345-.348-.627-.427-.627-.223 0-.871-1.592-1.323-3.25-.444-1.623-.484-6.539-.063-7.636.099-.258.181-.633.182-.833.001-.2.112-.552.246-.781.133-.229.364-.674.512-.989a7.39 7.39 0 0 1 .672-1.099c.22-.29.401-.595.401-.679 0-.084.15-.246.333-.361.184-.114.334-.288.334-.386 0-.164.795-.957 1.833-1.829 1.038-.872 2.322-1.728 3.125-2.084.481-.214.875-.459.875-.545 0-.086.339-.208.754-.27.414-.062.888-.258 1.053-.434.18-.193.628-.363 1.121-.423.452-.056 1.033-.249 1.29-.43.312-.219.92-.374 1.823-.465.965-.098 1.413-.218 1.561-.419.168-.23.636-.307 2.51-.411 1.473-.082 2.515-.223 2.888-.389.878-.391 13.194-.414 13.973-.026M92.689 11.5l-.525.583-.007 29.5-.008 29.5.53.475c.422.378.632.455 1.03.375.274-.055 12.703-.1 27.618-.1h27.119l.194-.424c.322-.706.267-12.116-.061-12.751l-.254-.491h-19.482c-10.715 0-19.601-.046-19.746-.101-.399-.154-.399-8.645 0-8.798.145-.056 8.867-.101 19.383-.101 14.649 0 19.167-.047 19.32-.2.337-.338.281-13.61-.059-14.097l-.26-.37-19.115-.003c-10.514-.001-19.211-.062-19.327-.136-.164-.104-.201-1.11-.167-4.456l.045-4.322 19.639-.083 19.64-.083.319-.394c.514-.635.49-12.926-.026-13.583l-.345-.438-27.465-.043-27.465-.042-.525.583m59.827.01-.533.509V24.28l.506.541.505.541 12.128-.016c6.67-.008 12.222.046 12.338.122.166.108.218 4.829.25 22.876.031 17.811.085 22.818.248 23.103.262.458 1.002.49 9.753.419l6.293-.051.252-.384c.221-.337.25-3.126.246-23.057l-.005-22.674.526-.183c.364-.127 4.075-.184 11.993-.184h11.467l.425-.557.425-.557V11.967l-.517-.483-.518-.484h-65.249l-.533.51m-124.479.249-.37.26v59.473l.402.264c.725.475 43.731.292 44.773-.191a6.974 6.974 0 0 1 1.584-.472c.453-.067 1.049-.258 1.324-.423a4.15 4.15 0 0 1 1.083-.42c.321-.066.734-.251.917-.413.183-.161.552-.345.819-.409.267-.063.68-.267.917-.452a69.44 69.44 0 0 1 1.331-.997c1.381-1.01 1.686-1.297 2.851-2.678 1.411-1.672 1.832-2.233 1.832-2.44 0-.094.113-.284.251-.422.139-.138.404-.575.589-.97.186-.396.447-.906.58-1.136.133-.229.243-.675.244-.991.002-.343.176-.825.434-1.196l.431-.622.001-4.326c.002-4.373-.041-4.733-.64-5.331-.123-.123-.224-.463-.226-.754a2.26 2.26 0 0 0-.243-.946 15.681 15.681 0 0 1-.445-.834c-.468-.955-2.071-3.222-2.326-3.289-.152-.04-.359-.253-.459-.475-.101-.221-.246-.402-.322-.402-.075 0-.406-.247-.735-.547l-.597-.548.44-.511c1.191-1.385 1.356-1.618 1.356-1.911 0-.174.077-.317.17-.317.093 0 .288-.281.434-.625.145-.343.435-.962.644-1.375.209-.412.433-1.194.498-1.738.066-.543.243-1.177.395-1.409.569-.868.435-7.414-.16-7.781-.07-.044-.178-.434-.239-.867a4.957 4.957 0 0 0-.51-1.484c-.219-.383-.398-.809-.398-.946 0-.137-.188-.472-.417-.744-.229-.273-.417-.575-.417-.671 0-.097-.187-.378-.416-.625-.229-.248-.417-.514-.417-.592 0-.163-1.674-1.809-1.84-1.809-.096 0-.512-.347-1.507-1.259-.146-.133-.341-.241-.435-.241-.094 0-.463-.198-.82-.44-.356-.242-.873-.517-1.148-.61a3.705 3.705 0 0 1-.892-.473c-.215-.166-.665-.351-1-.411-.334-.06-.729-.214-.877-.343-.149-.129-.74-.31-1.314-.403-.575-.092-1.241-.267-1.481-.388-1.279-.645-42.752-.968-43.649-.34m120.382.138c.386.589.3 12.456-.094 12.85-.231.23-2.354.258-19.631.254-17.081-.003-19.431.027-19.867.252l-.494.256v4.477c0 4.1.025 4.49.292 4.621.16.079 8.905.18 19.431.226l19.14.084.319.393c.444.549.498 12.693.059 13.32l-.26.37h-19.168c-12.894 0-19.273.056-19.49.173-.306.163-.323.392-.323 4.547v4.375l.484.286c.45.265 1.857.286 19.908.286h19.423l.259.37c.324.462.392 11.035.077 11.938l-.183.525H93.009l-.241-.466c-.207-.4-.243-4.552-.257-29.658l-.016-29.192.367-.342.368-.342h54.929l.26.397m70.121-.166c.28.213.397 4.457.31 11.311-.028 2.182 1.235 1.982-12.065 1.907-11.411-.064-12.448-.021-12.456.517-.002.156-.021 10.42-.042 22.808-.036 21.888-.046 22.534-.354 22.875-.314.347-.402.351-7.963.351h-7.645l-.162-.428c-.103-.27-.163-8.725-.163-22.968 0-17.772-.044-22.599-.208-22.82-.191-.256-1.217-.283-12.403-.326-11.682-.045-12.208-.06-12.541-.362-.485-.438-.551-12.262-.072-12.791.364-.402 65.236-.475 65.764-.074m-149.345.364c6.643.926 11.545 3.578 14.271 7.719.972 1.475 1.822 3.346 1.961 4.313.063.434.229 1.052.37 1.373.383.872.377 4.981-.009 6-.156.412-.355 1.215-.442 1.784-.217 1.416-2.498 5.883-3.004 5.883-.057 0-.227.209-.379.466l-.275.466 1.323 1.234C84.77 42.974 87 46.356 87 47.384c0 .208.166.676.368 1.039.344.618.372.909.428 4.547l.06 3.887-.428.819c-.235.45-.428 1.025-.429 1.279 0 .254-.135.687-.3.962A9.08 9.08 0 0 0 86.167 61c-1.791 4.502-6.646 8.279-12.917 10.048l-1.833.517-21.346.06c-21.011.058-21.352.054-21.75-.268l-.404-.328V12.471l.393-.319c.553-.448 37.714-.5 40.885-.057m176.245-.049c-.275.201-.288 1.367-.226 20.875.068 21.585.102 22.622.794 23.959.179.347.325.743.325.88 0 1.086 3.005 5.472 5.061 7.389.355.331.981.922 1.392 1.313.41.392.945.826 1.188.965.244.139.743.477 1.109.752 1.363 1.023 5.516 2.925 7.5 3.436.55.142 1.262.369 1.582.504.32.136 1.295.315 2.167.397.871.082 2.225.305 3.007.494 1.94.47 13.656.417 15.078-.068.458-.157 1.508-.331 2.333-.389.825-.057 1.8-.211 2.167-.343a26.79 26.79 0 0 1 1.833-.544c2.103-.548 6.399-2.451 6.895-3.054.126-.153.321-.279.434-.279.585 0 3.683-2.774 5.506-4.931 1.385-1.64 3.411-5.055 3.417-5.763.001-.122.189-.549.417-.948.235-.411.414-.99.414-1.339 0-.337.168-1.061.374-1.608l.374-.994.053-20.245c.05-19.135.037-20.256-.239-20.458-.365-.267-16.145-.317-16.309-.051-.055.089-.098 8.133-.095 17.875.003 10.135-.062 18.283-.152 19.046-.403 3.399-.514 3.906-1.119 5.096-1.045 2.058-3.685 4.154-5.232 4.154-.246 0-.851.179-1.343.399-.674.3-1.327.425-2.645.505-.963.058-2.358.184-3.102.28-1.06.137-1.841.118-3.617-.088-1.246-.145-2.684-.263-3.196-.263-.599 0-1.162-.118-1.576-.329a5.18 5.18 0 0 0-1.369-.429c-1.878-.26-4.661-2.163-5.475-3.742-.118-.229-.269-.454-.336-.5-.067-.046-.356-.767-.642-1.603l-.52-1.52V31.555c0-14.806-.047-19.368-.2-19.522-.299-.298-15.618-.286-16.027.013m15.893 19.871.084 19.833.354.583c.195.321.407.873.47 1.227.078.437.218.671.437.728.19.05.323.23.325.44.005.591 2.083 2.57 2.997 2.855.229.071.589.264.8.429.211.165.81.353 1.331.418.521.065 1.138.259 1.372.432.336.248.834.333 2.419.411 1.217.06 2.19.193 2.495.342.788.383 3.322.462 4.416.137.504-.15 1.888-.344 3.075-.431 1.786-.132 2.22-.216 2.511-.49a1.43 1.43 0 0 1 .842-.332c.724-.001 1.693-.307 1.792-.565.048-.124.34-.273.649-.331.373-.07.907-.436 1.587-1.087.963-.922 1.318-1.437 1.965-2.849.147-.321.393-.846.548-1.167.258-.534.288-2.259.365-20.5l.083-19.917 7.417-.048c4.079-.026 7.665-.003 7.968.052l.552.099-.064 20.115c-.047 14.594-.12 20.436-.265 21.282-.219 1.282-.517 2.408-.706 2.667-.067.092-.176.467-.242.833-.065.367-.207.779-.315.917-.108.137-.471.786-.806 1.441-.579 1.133-1.106 1.997-1.749 2.868-.304.412-3.297 3.603-3.678 3.923-.122.101-.449.389-.728.638-.278.249-.647.498-.82.553-.173.055-.314.198-.314.317 0 .12-.217.262-.483.315-.266.053-.69.288-.941.521-.252.233-.582.424-.735.424-.152 0-.52.18-.818.4-.298.22-.793.447-1.099.504-.307.058-.647.213-.757.346-.11.133-.474.291-.809.351-.334.061-.915.288-1.289.505a2.892 2.892 0 0 1-1.462.394c-.492 0-1.071.147-1.568.399-.65.329-1.133.416-2.743.494-1.423.069-2.103.175-2.5.392-.839.459-12.648.456-13.323-.003-.345-.234-.911-.323-2.546-.4-1.699-.081-2.169-.158-2.452-.404-.335-.29-.558-.35-2.037-.545-.355-.047-.777-.204-.938-.349-.16-.145-.678-.325-1.151-.4-.473-.075-.952-.254-1.063-.398-.112-.144-.518-.344-.904-.445-.386-.101-.742-.25-.793-.332-.05-.081-.728-.469-1.507-.862-.778-.393-1.415-.777-1.415-.853 0-.077-.327-.279-.726-.45-.4-.171-.773-.432-.829-.58-.057-.148-.293-.341-.524-.429-.232-.088-.421-.272-.421-.408 0-.137-.169-.338-.375-.448a2.013 2.013 0 0 1-.593-.505c-.12-.169-.318-.307-.44-.307-.123 0-.27-.188-.327-.417-.058-.229-.174-.417-.258-.417-.211 0-1.337-1.207-1.339-1.435-.002-.167-.177-.423-1.301-1.898-.175-.229-.412-.703-.526-1.053-.115-.351-.308-.675-.431-.722-.122-.047-.3-.448-.395-.891a7.205 7.205 0 0 0-.552-1.528l-.38-.723-.051-21.651c-.042-17.693-.012-21.676.166-21.79.12-.076 3.631-.121 7.802-.099l7.583.04.083 19.834m-218.99-5.964c-.344 1.242-.229 9.948.137 10.279.401.363 25.619.332 26.707-.033 4.402-1.478 4.466-8.464.094-10.34l-1.031-.442-12.866-.047-12.866-.046-.175.629m25.98-.049c.108.13.48.285.826.343.619.105 2.184 1.324 2.184 1.701 0 .093.224.499.497.902.741 1.093.742 3.205.003 4.317-.274.412-.499.803-.499.867-.001.205-.891 1.031-1.667 1.549l-.75.5-12.334.054c-6.783.029-12.727.005-13.208-.054l-.875-.107v-5.044c0-2.774.05-5.093.111-5.154.249-.249 25.503-.126 25.712.126M42.875 47.118a.89.89 0 0 0-.549.396c-.246.46-.142 10.404.112 10.657.259.259 24.128.235 26.499-.026 4.344-.479 5.861-5.435 2.893-9.447-1.196-1.618-2.037-1.701-16.913-1.674-6.417.012-11.836.054-12.042.094m27.205.62c.704.294 2.063 1.687 2.201 2.256.056.233.288.783.516 1.223.5.967.451 2.448-.116 3.527-.191.363-.348.785-.348.939 0 .153-.187.402-.416.552-.229.15-.417.366-.417.481 0 .263-1.187.872-2.167 1.111-.521.128-4.715.169-13.75.137l-13-.047-.044-5.209-.044-5.208h13.508c11.321 0 13.6.038 14.077.238" fill="#b1b3b9"/></g></svg>