<svg xmlns="http://www.w3.org/2000/svg" xmlns:xlink="http://www.w3.org/1999/xlink" width="50" zoomAndPan="magnify" viewBox="0 0 37.5 37.499999" height="50" preserveAspectRatio="xMidYMid meet" version="1.0"><defs><clipPath id="2236e315c0"><path d="M 0 0 L 37.007812 0 L 37.007812 37.007812 L 0 37.007812 Z M 0 0 " clip-rule="nonzero"/></clipPath><clipPath id="50fbff6ac0"><path d="M 0 0 L 37.007812 0 L 37.007812 37.007812 L 0 37.007812 Z M 0 0 " clip-rule="nonzero"/></clipPath></defs><g clip-path="url(#2236e315c0)"><path fill="#ffffff" d="M 0 0 L 37.5 0 L 37.5 45 L 0 45 Z M 0 0 " fill-opacity="1" fill-rule="nonzero"/><path fill="#ffffff" d="M 0 0 L 37.5 0 L 37.5 37.5 L 0 37.5 Z M 0 0 " fill-opacity="1" fill-rule="nonzero"/><path fill="#ffffff" d="M 0 0 L 37.5 0 L 37.5 37.5 L 0 37.5 Z M 0 0 " fill-opacity="1" fill-rule="nonzero"/></g><path fill="#ca0404" d="M 14.128906 8.964844 C 13.988281 9.046875 14.042969 12.304688 14.191406 12.769531 C 14.316406 13.164062 14.339844 13.226562 14.433594 13.425781 C 15.066406 14.785156 16.402344 15.832031 18.5625 16.65625 C 19.519531 17.023438 20.703125 17.644531 21.035156 17.957031 C 21.070312 17.992188 21.171875 18.082031 21.257812 18.164062 C 22.269531 19.097656 22.226562 20.550781 21.167969 21.058594 L 20.945312 21.167969 L 16.445312 21.167969 L 16.433594 18.835938 L 16.425781 16.503906 L 16.160156 16.324219 C 15.910156 16.15625 15.472656 15.828125 15.265625 15.65625 C 15.140625 15.554688 14.664062 15.085938 14.664062 15.066406 C 14.664062 15.058594 14.59375 14.980469 14.511719 14.890625 C 14.429688 14.804688 14.304688 14.648438 14.234375 14.546875 C 14.140625 14.402344 14.105469 14.375 14.085938 14.421875 C 14.03125 14.5625 14.058594 23.46875 14.117188 23.5 C 14.144531 23.519531 15.769531 23.523438 17.726562 23.511719 L 21.28125 23.492188 L 21.523438 23.40625 C 21.882812 23.277344 21.894531 23.273438 22.199219 23.125 C 22.542969 22.957031 22.71875 22.851562 22.820312 22.757812 C 22.863281 22.71875 22.910156 22.6875 22.921875 22.6875 C 22.976562 22.6875 23.582031 22.054688 23.679688 21.894531 C 23.957031 21.453125 24.019531 21.320312 24.152344 20.90625 C 24.492188 19.828125 24.328125 18.417969 23.765625 17.5625 C 23.707031 17.476562 23.664062 17.386719 23.664062 17.367188 C 23.664062 17.347656 23.648438 17.324219 23.632812 17.320312 C 23.617188 17.3125 23.535156 17.214844 23.453125 17.097656 C 23.273438 16.859375 22.792969 16.375 22.554688 16.191406 C 22.292969 15.992188 22.292969 16.007812 22.503906 15.386719 C 22.890625 14.234375 23.027344 13.527344 23.027344 12.636719 C 23.027344 11.824219 22.933594 11.394531 22.609375 10.753906 C 22.109375 9.769531 21.105469 9.121094 19.835938 8.964844 C 19.410156 8.910156 14.21875 8.914062 14.128906 8.964844 M 19.660156 11.324219 C 20.253906 11.398438 20.570312 11.710938 20.722656 12.367188 C 20.816406 12.773438 20.761719 13.710938 20.625 13.988281 C 20.609375 14.019531 20.585938 14.105469 20.570312 14.175781 C 20.464844 14.652344 20.277344 14.84375 20.039062 14.722656 C 19.835938 14.617188 19.59375 14.519531 19.390625 14.460938 C 19.28125 14.429688 19.171875 14.386719 19.148438 14.371094 C 19.125 14.351562 19.023438 14.308594 18.917969 14.269531 C 17.957031 13.925781 16.949219 13.15625 16.554688 12.46875 C 16.398438 12.195312 16.363281 11.339844 16.503906 11.3125 C 16.671875 11.28125 19.40625 11.289062 19.660156 11.324219 " fill-opacity="1" fill-rule="evenodd"/><g clip-path="url(#50fbff6ac0)"><path fill="#040404" d="M 0 18.75 L 0 37.5 L 37.5 37.5 L 37.5 0 L 0 0 L 0 18.75 M 20.210938 8.976562 C 22.875 9.59375 23.722656 11.90625 22.554688 15.355469 L 22.351562 15.957031 L 22.53125 16.105469 C 23.25 16.714844 24 17.648438 24 17.9375 C 24 17.972656 24.015625 18 24.03125 18 C 24.050781 18 24.074219 18.039062 24.085938 18.085938 C 24.097656 18.128906 24.132812 18.242188 24.167969 18.332031 C 24.289062 18.660156 24.335938 19.058594 24.335938 19.695312 C 24.335938 20.53125 24.285156 20.78125 23.949219 21.523438 C 23.527344 22.464844 22.320312 23.320312 21.113281 23.53125 C 20.785156 23.589844 14.226562 23.621094 14.085938 23.566406 C 14.023438 23.542969 13.988281 14.25 14.046875 14.25 C 14.082031 14.25 14.234375 14.433594 14.292969 14.542969 C 14.492188 14.917969 15.410156 15.765625 16.164062 16.273438 C 16.296875 16.363281 16.414062 16.441406 16.425781 16.453125 C 16.433594 16.460938 16.453125 17.519531 16.460938 18.800781 L 16.480469 21.132812 L 18.675781 21.132812 C 20.839844 21.132812 20.871094 21.128906 21.085938 21.050781 C 21.660156 20.832031 21.921875 20.414062 21.917969 19.707031 C 21.914062 18.449219 20.96875 17.636719 18.289062 16.59375 C 16.03125 15.714844 14.648438 14.457031 14.15625 12.824219 L 14.046875 12.46875 L 14.035156 10.710938 C 14.023438 9.277344 14.027344 8.945312 14.070312 8.917969 C 14.175781 8.851562 19.902344 8.902344 20.210938 8.976562 M 16.449219 11.632812 C 16.359375 12.75 17.359375 13.640625 19.691406 14.53125 C 20.347656 14.78125 20.273438 14.777344 20.378906 14.539062 C 20.917969 13.320312 20.84375 11.980469 20.214844 11.566406 C 19.863281 11.332031 19.785156 11.324219 18.054688 11.324219 L 16.472656 11.324219 L 16.449219 11.632812 M 13.46875 27.5625 C 13.695312 27.625 13.765625 27.753906 13.765625 28.085938 C 13.765625 28.242188 13.773438 28.460938 13.785156 28.574219 C 13.839844 29.070312 13.734375 29.117188 12.546875 29.117188 L 11.605469 29.117188 L 11.597656 28.371094 C 11.589844 27.957031 11.59375 27.597656 11.605469 27.574219 C 11.628906 27.511719 13.257812 27.503906 13.46875 27.5625 M 16.207031 27.597656 C 16.597656 27.792969 16.558594 28.949219 16.160156 29.089844 C 15.988281 29.148438 14.765625 29.148438 14.589844 29.089844 C 14.148438 28.9375 14.148438 27.816406 14.589844 27.589844 C 14.753906 27.503906 16.035156 27.507812 16.207031 27.597656 M 17.257812 27.566406 C 17.269531 27.585938 17.492188 28.003906 17.679688 28.367188 C 17.753906 28.511719 17.832031 28.648438 17.855469 28.667969 C 17.898438 28.714844 17.894531 28.71875 18.238281 28.070312 C 18.542969 27.488281 18.484375 27.554688 18.710938 27.539062 C 19.007812 27.515625 19 27.539062 18.367188 28.695312 C 18.113281 29.164062 17.8125 29.273438 17.574219 28.984375 C 17.429688 28.816406 16.828125 27.640625 16.851562 27.582031 C 16.871094 27.53125 17.230469 27.519531 17.257812 27.566406 M 20.132812 27.578125 C 20.296875 27.664062 21.03125 28.960938 20.984375 29.082031 C 20.921875 29.25 20.628906 29.148438 20.484375 28.910156 L 20.34375 28.6875 L 19.953125 28.695312 L 19.5625 28.707031 L 19.433594 28.921875 L 19.308594 29.136719 L 19.121094 29.136719 C 18.929688 29.136719 18.851562 29.074219 18.925781 28.976562 C 18.949219 28.953125 19.0625 28.746094 19.179688 28.519531 C 19.300781 28.292969 19.441406 28.03125 19.488281 27.9375 C 19.695312 27.5625 19.890625 27.453125 20.132812 27.578125 M 23.136719 27.546875 C 23.257812 27.5625 23.363281 27.609375 23.445312 27.675781 L 23.570312 27.777344 L 23.582031 28.246094 C 23.605469 29.105469 23.585938 29.117188 22.351562 29.117188 L 21.429688 29.117188 L 21.421875 28.371094 C 21.414062 27.957031 21.417969 27.601562 21.429688 27.574219 C 21.449219 27.523438 22.804688 27.503906 23.136719 27.546875 M 25.183594 27.675781 C 25.246094 27.738281 25.339844 27.871094 25.386719 27.96875 C 25.4375 28.0625 25.582031 28.347656 25.714844 28.59375 C 25.984375 29.105469 25.988281 29.136719 25.726562 29.136719 L 25.542969 29.136719 L 25.421875 28.914062 L 25.300781 28.6875 L 24.902344 28.6875 C 24.460938 28.6875 24.488281 28.671875 24.328125 28.996094 C 24.265625 29.132812 24.253906 29.136719 24.074219 29.136719 C 23.804688 29.136719 23.808594 29.105469 24.128906 28.5 C 24.285156 28.207031 24.414062 27.960938 24.414062 27.953125 C 24.414062 27.894531 24.628906 27.625 24.710938 27.578125 C 24.847656 27.5 25.042969 27.539062 25.183594 27.675781 M 12 28.070312 L 12 28.164062 L 12.664062 28.152344 C 13.324219 28.144531 13.332031 28.144531 13.34375 28.058594 L 13.355469 27.976562 L 12 27.976562 L 12 28.070312 M 14.714844 28.023438 C 14.707031 28.050781 14.703125 28.207031 14.707031 28.371094 L 14.71875 28.667969 L 15.363281 28.679688 L 16.011719 28.6875 L 16.03125 28.601562 C 16.042969 28.554688 16.046875 28.398438 16.042969 28.253906 L 16.03125 27.992188 L 15.382812 27.984375 C 14.863281 27.976562 14.730469 27.984375 14.714844 28.023438 M 19.921875 28.023438 C 19.878906 28.078125 19.761719 28.300781 19.761719 28.328125 C 19.761719 28.339844 19.855469 28.351562 19.96875 28.351562 C 20.082031 28.351562 20.175781 28.34375 20.175781 28.335938 C 20.175781 28.3125 19.984375 27.976562 19.96875 27.976562 C 19.964844 27.976562 19.941406 27.996094 19.921875 28.023438 M 21.824219 28.332031 L 21.824219 28.6875 L 23.140625 28.6875 L 23.179688 28.585938 C 23.21875 28.480469 23.203125 28.089844 23.15625 28.015625 C 23.140625 27.988281 22.902344 27.976562 22.480469 27.976562 L 21.824219 27.976562 L 21.824219 28.332031 M 24.769531 28.15625 L 24.671875 28.351562 L 25.132812 28.351562 L 25.046875 28.210938 C 24.890625 27.945312 24.878906 27.945312 24.769531 28.15625 M 12 28.59375 L 12 28.6875 L 13.386719 28.6875 L 13.386719 28.5 L 12 28.5 L 12 28.59375 " fill-opacity="1" fill-rule="evenodd"/></g><path fill="#ebebeb" d="M 11.640625 27.648438 C 11.632812 27.675781 11.628906 28 11.632812 28.371094 L 11.644531 29.042969 L 12.570312 29.054688 L 13.496094 29.0625 L 13.621094 28.953125 C 13.734375 28.851562 13.742188 28.828125 13.734375 28.644531 C 13.726562 28.488281 13.726562 28.332031 13.726562 28.175781 C 13.726562 27.617188 13.695312 27.601562 12.523438 27.601562 C 11.855469 27.601562 11.65625 27.609375 11.640625 27.648438 M 14.5625 27.671875 C 14.226562 27.878906 14.222656 28.835938 14.554688 29.007812 C 14.730469 29.101562 16.066406 29.085938 16.226562 28.988281 C 16.546875 28.792969 16.492188 27.757812 16.15625 27.640625 C 15.933594 27.5625 14.699219 27.589844 14.5625 27.671875 M 16.914062 27.636719 C 16.914062 27.722656 17.554688 28.898438 17.648438 28.976562 C 17.929688 29.230469 18.109375 29.082031 18.542969 28.253906 C 18.878906 27.613281 18.882812 27.601562 18.695312 27.601562 C 18.542969 27.601562 18.554688 27.585938 18.226562 28.199219 C 17.847656 28.910156 17.898438 28.917969 17.472656 28.09375 L 17.230469 27.617188 L 17.070312 27.605469 C 16.972656 27.601562 16.914062 27.613281 16.914062 27.636719 M 19.730469 27.703125 C 19.667969 27.761719 19.554688 27.933594 19.472656 28.085938 C 19.390625 28.242188 19.246094 28.511719 19.148438 28.691406 C 18.9375 29.082031 18.9375 29.0625 19.136719 29.0625 C 19.292969 29.0625 19.300781 29.058594 19.40625 28.855469 L 19.519531 28.648438 L 20.398438 28.648438 L 20.515625 28.855469 C 20.625 29.050781 20.640625 29.0625 20.777344 29.0625 C 20.960938 29.0625 20.960938 29.058594 20.75 28.660156 C 20.640625 28.453125 20.53125 28.242188 20.421875 28.035156 C 20.195312 27.601562 19.957031 27.488281 19.730469 27.703125 M 21.464844 27.648438 C 21.457031 27.675781 21.453125 28 21.457031 28.371094 L 21.46875 29.042969 L 22.355469 29.054688 L 23.242188 29.0625 L 23.355469 28.96875 C 23.691406 28.6875 23.617188 27.746094 23.25 27.636719 C 23.046875 27.578125 21.488281 27.589844 21.464844 27.648438 M 24.742188 27.628906 C 24.652344 27.667969 24.558594 27.800781 24.375 28.144531 C 24.289062 28.308594 24.148438 28.566406 24.070312 28.714844 C 23.886719 29.054688 23.886719 29.070312 24.085938 29.054688 C 24.234375 29.042969 24.25 29.03125 24.34375 28.855469 L 24.445312 28.667969 L 24.792969 28.648438 C 25.3125 28.621094 25.320312 28.625 25.449219 28.847656 C 25.550781 29.03125 25.570312 29.042969 25.71875 29.054688 C 25.917969 29.070312 25.929688 29.121094 25.550781 28.398438 C 25.152344 27.648438 25.019531 27.519531 24.742188 27.628906 M 13.386719 27.953125 C 13.410156 27.984375 13.425781 28.046875 13.417969 28.09375 C 13.40625 28.191406 11.96875 28.257812 11.957031 28.164062 C 11.957031 28.125 11.953125 28.085938 11.953125 28.050781 C 11.953125 28.007812 11.957031 27.957031 11.957031 27.9375 C 11.964844 27.871094 13.332031 27.886719 13.386719 27.953125 M 16.042969 27.945312 C 16.105469 28.007812 16.105469 28.65625 16.042969 28.71875 C 15.949219 28.8125 14.753906 28.777344 14.683594 28.679688 C 14.601562 28.5625 14.601562 28.042969 14.683594 27.957031 C 14.761719 27.882812 15.96875 27.871094 16.042969 27.945312 M 23.179688 27.960938 C 23.238281 28.011719 23.25 28.082031 23.25 28.328125 C 23.246094 28.785156 23.277344 28.765625 22.457031 28.753906 L 21.769531 28.742188 L 21.757812 28.40625 C 21.738281 27.855469 21.675781 27.898438 22.449219 27.898438 C 23.015625 27.898438 23.125 27.910156 23.179688 27.960938 M 20.148438 28.15625 C 20.285156 28.402344 20.261719 28.433594 19.945312 28.417969 C 19.65625 28.402344 19.640625 28.367188 19.800781 28.113281 C 19.941406 27.890625 20 27.894531 20.148438 28.15625 M 25.050781 28.113281 C 25.226562 28.390625 25.210938 28.425781 24.90625 28.425781 C 24.582031 28.425781 24.578125 28.421875 24.71875 28.15625 C 24.859375 27.890625 24.90625 27.886719 25.050781 28.113281 M 13.402344 28.484375 C 13.476562 28.554688 13.480469 28.664062 13.410156 28.722656 C 13.375 28.75 13.140625 28.761719 12.652344 28.753906 L 11.945312 28.742188 L 11.941406 28.632812 C 11.933594 28.421875 11.917969 28.425781 12.65625 28.425781 C 13.230469 28.425781 13.355469 28.433594 13.402344 28.484375 " fill-opacity="1" fill-rule="evenodd"/><path fill="#591f1f" d="M 14.070312 8.917969 C 14.027344 8.945312 14.023438 9.277344 14.035156 10.710938 L 14.046875 12.46875 L 14.15625 12.824219 C 14.53125 14.0625 15.480469 15.148438 16.855469 15.921875 C 17.140625 16.078125 17.015625 15.976562 16.574219 15.691406 C 15.410156 14.9375 14.589844 14.003906 14.292969 13.085938 C 14.074219 12.40625 14.066406 12.324219 14.0625 10.53125 C 14.0625 9.046875 14.066406 9 14.136719 8.964844 C 14.214844 8.921875 19.761719 8.933594 20.042969 8.976562 C 20.1875 9 20.191406 8.996094 20.082031 8.953125 C 19.945312 8.902344 14.148438 8.867188 14.070312 8.917969 M 20.25 9.015625 C 20.25 9.027344 20.320312 9.050781 20.410156 9.074219 C 21.03125 9.226562 21.554688 9.507812 21.984375 9.925781 C 22.371094 10.296875 22.484375 10.476562 22.867188 11.324219 C 22.910156 11.417969 22.910156 11.414062 22.890625 11.304688 C 22.796875 10.820312 22.21875 10.007812 21.679688 9.601562 C 21.316406 9.328125 20.25 8.890625 20.25 9.015625 M 17.296875 11.316406 C 17.703125 11.320312 18.371094 11.320312 18.777344 11.316406 C 19.183594 11.308594 18.851562 11.304688 18.039062 11.304688 C 17.222656 11.304688 16.890625 11.308594 17.296875 11.316406 M 16.4375 11.492188 C 16.4375 11.597656 16.441406 11.632812 16.453125 11.578125 C 16.460938 11.519531 16.460938 11.4375 16.453125 11.390625 C 16.441406 11.34375 16.433594 11.390625 16.4375 11.492188 M 19.898438 11.410156 C 20.589844 11.679688 20.882812 12.492188 20.691406 13.613281 C 20.664062 13.753906 20.667969 13.765625 20.703125 13.6875 C 20.777344 13.527344 20.792969 12.65625 20.722656 12.367188 C 20.582031 11.769531 20.265625 11.417969 19.800781 11.34375 C 19.707031 11.328125 19.734375 11.347656 19.898438 11.410156 M 22.917969 11.53125 C 22.914062 11.59375 22.929688 11.667969 22.949219 11.699219 C 22.996094 11.769531 22.996094 11.65625 22.949219 11.511719 C 22.921875 11.421875 22.917969 11.421875 22.917969 11.53125 M 23.011719 12.039062 C 23.039062 12.371094 23.039062 12.875 23.011719 13.292969 C 22.996094 13.53125 23 13.558594 23.027344 13.425781 C 23.070312 13.199219 23.070312 12.09375 23.027344 11.90625 C 23 11.789062 22.996094 11.816406 23.011719 12.039062 M 16.445312 12.136719 C 16.480469 12.453125 16.789062 12.890625 17.277344 13.316406 C 17.617188 13.617188 18.703125 14.234375 19.011719 14.304688 C 19.0625 14.316406 19.03125 14.289062 18.9375 14.242188 L 18.410156 13.984375 C 17.417969 13.5 16.660156 12.78125 16.476562 12.15625 L 16.425781 11.980469 L 16.445312 12.136719 M 22.9375 13.703125 C 22.925781 13.738281 22.914062 13.808594 22.914062 13.863281 C 22.914062 14.015625 22.703125 14.792969 22.503906 15.386719 C 22.292969 16.007812 22.292969 15.992188 22.554688 16.191406 C 22.792969 16.375 23.273438 16.859375 23.453125 17.097656 C 23.535156 17.214844 23.617188 17.3125 23.632812 17.320312 C 23.648438 17.324219 23.664062 17.347656 23.664062 17.367188 C 23.664062 17.386719 23.710938 17.476562 23.765625 17.5625 C 23.824219 17.648438 23.894531 17.765625 23.917969 17.828125 C 23.945312 17.886719 23.976562 17.925781 23.988281 17.914062 C 24.109375 17.789062 23.226562 16.695312 22.53125 16.105469 L 22.351562 15.957031 L 22.554688 15.355469 C 22.761719 14.753906 23.007812 13.769531 22.980469 13.683594 C 22.96875 13.652344 22.953125 13.65625 22.9375 13.703125 M 20.613281 13.886719 C 20.574219 13.992188 20.578125 14.046875 20.628906 14 C 20.652344 13.976562 20.664062 13.925781 20.65625 13.886719 C 20.640625 13.820312 20.640625 13.820312 20.613281 13.886719 M 20.460938 14.34375 C 20.289062 14.792969 20.347656 14.78125 19.714844 14.535156 C 19.132812 14.3125 19.109375 14.304688 19.140625 14.359375 C 19.152344 14.378906 19.257812 14.421875 19.375 14.457031 C 19.585938 14.519531 19.828125 14.613281 20.039062 14.722656 C 20.277344 14.84375 20.464844 14.652344 20.566406 14.183594 C 20.609375 13.992188 20.574219 14.039062 20.460938 14.34375 M 14.023438 18.894531 C 14.023438 23.097656 14.03125 23.542969 14.085938 23.566406 C 14.226562 23.621094 20.785156 23.589844 21.113281 23.53125 C 22.316406 23.320312 23.351562 22.601562 23.925781 21.582031 C 24.050781 21.355469 23.984375 21.386719 23.84375 21.621094 C 23.664062 21.929688 23.652344 21.945312 23.550781 22.070312 C 23.421875 22.222656 22.949219 22.6875 22.921875 22.6875 C 22.910156 22.6875 22.863281 22.71875 22.820312 22.757812 C 22.71875 22.851562 22.542969 22.957031 22.199219 23.125 C 21.894531 23.273438 21.882812 23.277344 21.523438 23.40625 L 21.28125 23.492188 L 17.726562 23.511719 C 15.769531 23.523438 14.144531 23.519531 14.117188 23.5 C 14.058594 23.46875 14.03125 14.5625 14.085938 14.421875 C 14.105469 14.371094 14.136719 14.402344 14.230469 14.539062 C 14.382812 14.761719 14.621094 15.03125 14.621094 14.980469 C 14.625 14.960938 14.5625 14.875 14.484375 14.792969 C 14.40625 14.707031 14.320312 14.597656 14.292969 14.542969 C 14.234375 14.433594 14.082031 14.25 14.046875 14.25 C 14.035156 14.25 14.023438 16.339844 14.023438 18.894531 M 14.664062 15.054688 C 14.664062 15.082031 15.109375 15.527344 15.265625 15.65625 C 15.472656 15.828125 15.910156 16.15625 16.160156 16.324219 L 16.425781 16.503906 L 16.433594 18.835938 L 16.445312 21.167969 L 18.695312 21.167969 C 20.761719 21.167969 20.957031 21.164062 21.089844 21.101562 C 21.285156 21.015625 21.246094 20.988281 21.035156 21.066406 C 20.886719 21.125 20.652344 21.132812 18.675781 21.132812 L 16.480469 21.132812 L 16.460938 18.800781 C 16.453125 17.519531 16.433594 16.460938 16.425781 16.453125 C 16.414062 16.441406 16.296875 16.363281 16.164062 16.273438 C 15.730469 15.984375 15.332031 15.667969 14.992188 15.34375 C 14.8125 15.171875 14.664062 15.039062 14.664062 15.054688 M 17.0625 16.035156 C 17.0625 16.066406 17.789062 16.402344 18.28125 16.59375 C 18.898438 16.832031 19.316406 17.007812 19.664062 17.179688 C 19.828125 17.261719 19.96875 17.316406 19.980469 17.304688 C 20.011719 17.277344 19.148438 16.882812 18.542969 16.648438 C 17.941406 16.417969 17.316406 16.148438 17.195312 16.0625 C 17.117188 16.011719 17.0625 15.996094 17.0625 16.035156 M 20.023438 17.339844 C 20.023438 17.351562 20.171875 17.445312 20.351562 17.550781 C 20.535156 17.65625 20.761719 17.800781 20.859375 17.875 C 20.957031 17.949219 21.027344 17.984375 21.019531 17.957031 C 20.980469 17.859375 20.023438 17.269531 20.023438 17.339844 M 21.074219 18.023438 C 21.074219 18.039062 21.148438 18.121094 21.234375 18.203125 C 22.09375 19.015625 22.183594 20.289062 21.425781 20.867188 C 21.214844 21.027344 21.261719 21.046875 21.476562 20.886719 C 22.132812 20.402344 22.136719 19.148438 21.484375 18.394531 C 21.300781 18.183594 21.074219 17.976562 21.074219 18.023438 M 24.019531 18.066406 C 24.121094 18.292969 24.230469 18.691406 24.277344 18.988281 C 24.304688 19.175781 24.332031 19.273438 24.332031 19.199219 C 24.339844 19.03125 24.246094 18.542969 24.167969 18.332031 C 24.132812 18.242188 24.097656 18.128906 24.085938 18.085938 C 24.074219 18.039062 24.050781 18 24.027344 18 C 24.007812 18 24.003906 18.027344 24.019531 18.066406 M 24.269531 20.367188 C 24.230469 20.648438 24.132812 21 24.019531 21.28125 C 24 21.332031 24 21.34375 24.027344 21.320312 C 24.140625 21.210938 24.363281 20.351562 24.332031 20.136719 C 24.324219 20.085938 24.296875 20.191406 24.269531 20.367188 M 11.613281 27.550781 C 11.597656 27.5625 11.585938 27.59375 11.589844 27.617188 C 11.589844 27.640625 11.601562 27.636719 11.617188 27.609375 C 11.640625 27.578125 11.882812 27.5625 12.527344 27.554688 L 13.40625 27.542969 L 12.523438 27.535156 C 12.035156 27.527344 11.625 27.535156 11.613281 27.550781 M 15.007812 27.554688 C 15.1875 27.558594 15.492188 27.558594 15.683594 27.554688 C 15.875 27.546875 15.726562 27.539062 15.355469 27.539062 C 14.984375 27.539062 14.828125 27.546875 15.007812 27.554688 M 18.769531 27.550781 C 18.886719 27.582031 18.910156 27.621094 18.863281 27.71875 C 18.824219 27.804688 18.824219 27.804688 18.878906 27.730469 C 18.96875 27.625 18.9375 27.542969 18.804688 27.535156 C 18.738281 27.53125 18.722656 27.539062 18.769531 27.550781 M 21.4375 27.550781 C 21.421875 27.5625 21.414062 27.59375 21.414062 27.617188 C 21.414062 27.644531 21.421875 27.640625 21.441406 27.613281 C 21.457031 27.589844 21.511719 27.5625 21.5625 27.550781 L 21.65625 27.535156 L 21.558594 27.53125 C 21.507812 27.527344 21.453125 27.535156 21.4375 27.550781 M 22.023438 27.554688 C 22.222656 27.558594 22.550781 27.558594 22.753906 27.554688 C 22.953125 27.546875 22.789062 27.539062 22.386719 27.539062 C 21.984375 27.539062 21.820312 27.546875 22.023438 27.554688 M 24.75 27.5625 C 24.710938 27.589844 24.734375 27.59375 24.824219 27.574219 C 24.988281 27.546875 25.015625 27.523438 24.898438 27.527344 C 24.847656 27.527344 24.78125 27.542969 24.75 27.5625 M 19.667969 27.683594 L 19.554688 27.804688 L 19.6875 27.695312 C 19.757812 27.632812 19.824219 27.578125 19.835938 27.570312 C 19.84375 27.566406 19.832031 27.5625 19.8125 27.5625 C 19.792969 27.5625 19.726562 27.617188 19.667969 27.683594 M 23.304688 27.621094 C 23.367188 27.652344 23.449219 27.710938 23.484375 27.753906 C 23.519531 27.796875 23.550781 27.816406 23.550781 27.792969 C 23.550781 27.742188 23.3125 27.5625 23.246094 27.5625 C 23.21875 27.5625 23.246094 27.589844 23.304688 27.621094 M 21.429688 28.386719 L 21.429688 29.117188 L 22.304688 29.121094 L 23.175781 29.121094 L 22.3125 29.109375 L 21.453125 29.097656 L 21.441406 28.378906 L 21.429688 27.65625 L 21.429688 28.386719 M 11.96875 28.058594 C 11.972656 28.171875 11.976562 28.171875 11.988281 28.078125 L 12.003906 27.976562 L 13.359375 27.976562 L 13.339844 28.070312 C 13.328125 28.132812 13.335938 28.15625 13.359375 28.132812 C 13.503906 27.988281 13.390625 27.957031 12.664062 27.945312 L 11.960938 27.9375 L 11.96875 28.058594 M 14.707031 27.984375 C 14.640625 28.046875 14.648438 28.628906 14.714844 28.683594 C 14.800781 28.753906 16.019531 28.722656 16.039062 28.648438 C 16.050781 28.609375 16.046875 28.605469 16.023438 28.640625 C 15.996094 28.679688 15.835938 28.6875 15.351562 28.679688 L 14.71875 28.667969 L 14.71875 27.992188 L 16.03125 27.992188 L 16.050781 28.292969 L 16.074219 28.59375 L 16.082031 28.3125 C 16.089844 27.925781 16.113281 27.9375 15.375 27.9375 C 14.941406 27.9375 14.738281 27.949219 14.707031 27.984375 M 16.4375 28.351562 C 16.4375 28.585938 16.445312 28.683594 16.453125 28.566406 C 16.460938 28.421875 16.460938 28.277344 16.453125 28.132812 C 16.445312 28.015625 16.4375 28.113281 16.4375 28.351562 M 21.804688 27.988281 C 21.792969 28.015625 21.789062 28.1875 21.796875 28.371094 L 21.804688 28.707031 L 22.457031 28.714844 C 23.125 28.726562 23.214844 28.710938 23.210938 28.578125 C 23.207031 28.539062 23.195312 28.546875 23.175781 28.601562 C 23.140625 28.6875 23.128906 28.6875 22.484375 28.6875 L 21.824219 28.6875 L 21.824219 27.972656 L 22.488281 27.984375 L 23.152344 27.992188 L 23.179688 28.085938 C 23.199219 28.167969 23.207031 28.167969 23.207031 28.105469 C 23.214844 27.953125 23.152344 27.9375 22.472656 27.9375 C 21.964844 27.9375 21.820312 27.949219 21.804688 27.988281 M 24.980469 28.105469 C 25.023438 28.175781 25.066406 28.238281 25.074219 28.238281 C 25.101562 28.238281 24.976562 28.019531 24.9375 27.992188 C 24.917969 27.980469 24.933594 28.03125 24.980469 28.105469 M 18.542969 28.3125 C 18.511719 28.375 18.492188 28.425781 18.503906 28.425781 C 18.515625 28.425781 18.550781 28.375 18.582031 28.3125 C 18.613281 28.25 18.632812 28.199219 18.621094 28.199219 C 18.609375 28.199219 18.574219 28.25 18.542969 28.3125 M 19.726562 28.359375 C 19.726562 28.375 19.835938 28.386719 19.96875 28.386719 C 20.101562 28.386719 20.210938 28.375 20.210938 28.359375 C 20.210938 28.34375 20.101562 28.332031 19.96875 28.332031 C 19.835938 28.332031 19.726562 28.34375 19.726562 28.359375 M 25.59375 28.425781 C 25.625 28.488281 25.660156 28.539062 25.671875 28.539062 C 25.679688 28.539062 25.664062 28.488281 25.632812 28.425781 C 25.597656 28.363281 25.566406 28.3125 25.554688 28.3125 C 25.542969 28.3125 25.5625 28.363281 25.59375 28.425781 M 24.777344 28.378906 C 24.84375 28.386719 24.953125 28.386719 25.023438 28.378906 C 25.089844 28.367188 25.035156 28.363281 24.898438 28.363281 C 24.765625 28.363281 24.710938 28.367188 24.777344 28.378906 M 11.988281 28.488281 C 11.972656 28.5 11.960938 28.5625 11.960938 28.621094 L 11.960938 28.726562 L 12.683594 28.714844 C 13.40625 28.707031 13.40625 28.707031 13.410156 28.621094 C 13.414062 28.550781 13.414062 28.550781 13.398438 28.613281 C 13.382812 28.683594 13.351562 28.6875 12.691406 28.6875 L 12 28.6875 L 12 28.5 L 12.683594 28.492188 L 13.367188 28.480469 L 12.691406 28.472656 C 12.316406 28.464844 12 28.472656 11.988281 28.488281 M 14.464844 29.015625 C 14.515625 29.0625 14.582031 29.097656 14.617188 29.097656 C 14.660156 29.097656 14.648438 29.082031 14.589844 29.058594 C 14.539062 29.039062 14.46875 29 14.4375 28.976562 C 14.402344 28.953125 14.417969 28.96875 14.464844 29.015625 M 16.242188 29.007812 C 16.171875 29.058594 16.132812 29.101562 16.15625 29.101562 C 16.175781 29.101562 16.242188 29.058594 16.300781 29.007812 C 16.433594 28.890625 16.40625 28.890625 16.242188 29.007812 M 17.597656 29.007812 C 17.652344 29.066406 17.703125 29.105469 17.710938 29.097656 C 17.722656 29.089844 17.675781 29.039062 17.609375 28.992188 L 17.492188 28.898438 L 17.597656 29.007812 M 18.914062 29.003906 C 18.871094 29.117188 19.257812 29.214844 19.324219 29.109375 C 19.335938 29.09375 19.25 29.085938 19.136719 29.09375 C 18.9375 29.105469 18.929688 29.101562 18.949219 29.027344 C 18.96875 28.941406 18.945312 28.921875 18.914062 29.003906 M 24.28125 29.023438 C 24.25 29.128906 23.90625 29.136719 23.875 29.035156 C 23.859375 28.984375 23.855469 28.984375 23.863281 29.042969 C 23.875 29.160156 24.238281 29.175781 24.300781 29.0625 C 24.324219 29.015625 24.335938 28.972656 24.324219 28.960938 C 24.316406 28.953125 24.296875 28.980469 24.28125 29.023438 M 25.902344 29.023438 C 25.921875 29.105469 25.914062 29.105469 25.714844 29.09375 C 25.601562 29.085938 25.515625 29.09375 25.523438 29.109375 C 25.535156 29.125 25.625 29.136719 25.726562 29.136719 C 25.921875 29.136719 26.007812 29.066406 25.917969 28.980469 C 25.890625 28.949219 25.886719 28.964844 25.902344 29.023438 M 11.597656 29.0625 C 11.609375 29.109375 11.746094 29.117188 12.507812 29.121094 L 13.40625 29.121094 L 12.527344 29.109375 C 11.882812 29.101562 11.636719 29.085938 11.613281 29.050781 C 11.589844 29.019531 11.585938 29.023438 11.597656 29.0625 M 20.582031 29.070312 C 20.636719 29.140625 20.9375 29.167969 20.976562 29.109375 C 20.984375 29.09375 20.917969 29.085938 20.828125 29.09375 C 20.726562 29.101562 20.636719 29.089844 20.597656 29.058594 C 20.539062 29.011719 20.535156 29.011719 20.582031 29.070312 M 15.027344 29.128906 C 15.21875 29.136719 15.53125 29.136719 15.722656 29.128906 C 15.914062 29.121094 15.757812 29.117188 15.375 29.117188 C 14.992188 29.117188 14.835938 29.121094 15.027344 29.128906 M 17.820312 29.125 C 17.859375 29.136719 17.917969 29.136719 17.953125 29.125 C 17.988281 29.117188 17.960938 29.109375 17.886719 29.109375 C 17.816406 29.109375 17.785156 29.117188 17.820312 29.125 " fill-opacity="1" fill-rule="evenodd"/><path fill="#7c7c7c" d="M 11.609375 27.621094 C 11.582031 27.699219 11.582031 28.960938 11.609375 29.039062 C 11.628906 29.09375 11.742188 29.097656 12.558594 29.089844 L 13.480469 29.082031 L 11.644531 29.042969 L 11.644531 27.617188 L 12.515625 27.609375 C 13.691406 27.59375 13.757812 27.625 13.710938 28.164062 C 13.695312 28.296875 13.699219 28.425781 13.714844 28.449219 C 13.730469 28.472656 13.742188 28.335938 13.742188 28.140625 C 13.742188 27.808594 13.738281 27.785156 13.640625 27.683594 L 13.535156 27.582031 L 12.585938 27.570312 C 11.730469 27.558594 11.632812 27.5625 11.609375 27.621094 M 14.601562 27.597656 C 14.511719 27.636719 14.324219 27.847656 14.324219 27.914062 C 14.324219 27.9375 14.359375 27.902344 14.398438 27.835938 C 14.527344 27.621094 14.621094 27.601562 15.367188 27.601562 C 16.15625 27.601562 16.238281 27.621094 16.347656 27.835938 C 16.390625 27.921875 16.425781 27.972656 16.425781 27.945312 C 16.425781 27.835938 16.300781 27.664062 16.179688 27.617188 C 16.035156 27.554688 14.742188 27.542969 14.601562 27.597656 M 16.875 27.621094 C 16.875 27.683594 17.332031 28.578125 17.5 28.84375 C 17.699219 29.164062 18.078125 29.195312 18.230469 28.902344 C 18.261719 28.839844 18.238281 28.851562 18.148438 28.941406 C 17.996094 29.09375 17.792969 29.109375 17.648438 28.976562 C 17.558594 28.898438 16.914062 27.722656 16.914062 27.640625 C 16.914062 27.585938 17.1875 27.589844 17.25 27.648438 C 17.292969 27.6875 17.296875 27.683594 17.253906 27.628906 C 17.183594 27.539062 16.875 27.535156 16.875 27.621094 M 18.429688 27.757812 C 18.332031 27.957031 18.378906 27.929688 18.496094 27.714844 C 18.546875 27.621094 18.582031 27.601562 18.6875 27.601562 C 18.863281 27.601562 18.871094 27.621094 18.765625 27.828125 C 18.714844 27.929688 18.683594 28.011719 18.691406 28.011719 C 18.730469 28.011719 18.902344 27.632812 18.878906 27.597656 C 18.796875 27.464844 18.527344 27.5625 18.429688 27.757812 M 19.707031 27.683594 C 19.636719 27.75 19.484375 27.992188 19.367188 28.21875 C 19.246094 28.445312 19.167969 28.613281 19.1875 28.59375 C 19.210938 28.574219 19.316406 28.386719 19.421875 28.179688 C 19.8125 27.433594 20.09375 27.398438 20.433594 28.054688 C 20.523438 28.226562 20.613281 28.386719 20.632812 28.40625 C 20.65625 28.425781 20.589844 28.285156 20.492188 28.09375 C 20.203125 27.542969 19.980469 27.425781 19.707031 27.683594 M 21.433594 27.625 C 21.414062 27.679688 21.417969 27.683594 21.457031 27.648438 C 21.515625 27.589844 23.050781 27.582031 23.246094 27.636719 C 23.347656 27.664062 23.367188 27.664062 23.328125 27.628906 C 23.246094 27.542969 21.464844 27.542969 21.433594 27.625 M 24.75 27.589844 C 24.652344 27.625 24.558594 27.726562 24.484375 27.871094 C 24.382812 28.0625 24.417969 28.046875 24.546875 27.839844 C 24.839844 27.375 25.082031 27.507812 25.550781 28.398438 C 25.929688 29.121094 25.917969 29.070312 25.71875 29.054688 C 25.570312 29.042969 25.550781 29.03125 25.449219 28.847656 C 25.320312 28.625 25.320312 28.625 24.796875 28.644531 L 24.449219 28.65625 L 24.390625 28.773438 C 24.339844 28.882812 24.339844 28.886719 24.390625 28.820312 C 24.425781 28.78125 24.449219 28.734375 24.449219 28.714844 C 24.449219 28.699219 24.648438 28.691406 24.890625 28.695312 L 25.332031 28.707031 L 25.4375 28.902344 C 25.542969 29.101562 25.542969 29.101562 25.726562 29.101562 C 25.964844 29.101562 25.96875 29.128906 25.59375 28.414062 C 25.152344 27.578125 25.050781 27.476562 24.75 27.589844 M 23.398438 27.699219 C 23.398438 27.714844 23.429688 27.757812 23.464844 27.796875 C 23.640625 27.992188 23.566406 28.792969 23.351562 28.972656 L 23.242188 29.066406 L 22.34375 29.054688 C 21.851562 29.046875 21.449219 29.054688 21.449219 29.070312 C 21.449219 29.148438 23.226562 29.101562 23.355469 29.023438 C 23.578125 28.886719 23.683594 28.199219 23.535156 27.847656 C 23.488281 27.730469 23.398438 27.636719 23.398438 27.699219 M 17.324219 27.792969 C 17.324219 27.832031 17.699219 28.535156 17.785156 28.660156 C 17.871094 28.785156 17.910156 28.789062 17.964844 28.679688 C 18.011719 28.597656 18.007812 28.59375 17.9375 28.660156 C 17.84375 28.742188 17.839844 28.734375 17.574219 28.21875 C 17.398438 27.871094 17.328125 27.75 17.324219 27.792969 M 12.65625 27.9375 L 13.367188 27.957031 L 13.367188 28.144531 L 11.945312 28.183594 L 12.675781 28.183594 L 13.40625 28.179688 L 13.417969 28.09375 C 13.445312 27.910156 13.394531 27.898438 12.640625 27.90625 L 11.945312 27.917969 L 12.65625 27.9375 M 14.683594 27.957031 C 14.636719 28.003906 14.625 28.089844 14.632812 28.324219 L 14.640625 28.632812 L 14.652344 28.332031 C 14.660156 28.167969 14.683594 28.011719 14.707031 27.984375 C 14.761719 27.917969 15.972656 27.917969 16.050781 27.984375 C 16.09375 28.023438 16.09375 28.023438 16.054688 27.964844 C 15.980469 27.871094 14.777344 27.867188 14.683594 27.957031 M 21.769531 27.984375 C 21.757812 28.03125 21.75 28.21875 21.757812 28.40625 L 21.769531 28.742188 L 22.457031 28.753906 C 23.277344 28.765625 23.246094 28.785156 23.25 28.328125 C 23.25 27.890625 23.269531 27.898438 22.449219 27.898438 C 21.796875 27.898438 21.789062 27.902344 21.769531 27.984375 M 19.800781 28.113281 C 19.640625 28.367188 19.65625 28.402344 19.945312 28.417969 C 20.261719 28.433594 20.285156 28.402344 20.148438 28.15625 C 20 27.894531 19.941406 27.890625 19.800781 28.113281 M 23.167969 27.984375 C 23.234375 28.046875 23.226562 28.628906 23.160156 28.683594 C 23.125 28.714844 22.90625 28.722656 22.457031 28.714844 L 21.804688 28.707031 L 21.796875 28.371094 C 21.789062 28.1875 21.792969 28.015625 21.804688 27.988281 C 21.828125 27.917969 23.101562 27.914062 23.167969 27.984375 M 24.753906 28.097656 C 24.710938 28.183594 24.695312 28.226562 24.71875 28.1875 C 24.871094 27.964844 24.886719 27.957031 24.960938 28.015625 C 25.027344 28.0625 25.027344 28.0625 24.980469 28.003906 C 24.898438 27.902344 24.847656 27.925781 24.753906 28.097656 M 20.101562 28.152344 C 20.25 28.386719 20.25 28.386719 19.96875 28.386719 C 19.835938 28.386719 19.726562 28.378906 19.726562 28.367188 C 19.726562 28.3125 19.917969 27.976562 19.953125 27.976562 C 19.972656 27.976562 20.039062 28.054688 20.101562 28.152344 M 14.300781 28.351562 C 14.300781 28.546875 14.308594 28.625 14.316406 28.527344 C 14.324219 28.410156 14.324219 28.289062 14.316406 28.171875 C 14.308594 28.074219 14.300781 28.152344 14.300781 28.351562 M 18.453125 28.425781 C 18.347656 28.632812 18.265625 28.800781 18.277344 28.800781 C 18.300781 28.800781 18.679688 28.078125 18.664062 28.0625 C 18.65625 28.054688 18.5625 28.21875 18.453125 28.425781 M 25.066406 28.199219 C 25.15625 28.371094 25.144531 28.386719 24.898438 28.386719 C 24.710938 28.386719 24.675781 28.378906 24.675781 28.320312 C 24.675781 28.265625 24.667969 28.265625 24.640625 28.3125 C 24.582031 28.402344 24.632812 28.425781 24.902344 28.425781 C 25.113281 28.425781 25.164062 28.414062 25.164062 28.367188 C 25.164062 28.304688 25.058594 28.085938 25.027344 28.085938 C 25.019531 28.085938 25.035156 28.136719 25.066406 28.199219 M 18.113281 28.351562 C 18.050781 28.472656 18.007812 28.574219 18.019531 28.574219 C 18.027344 28.574219 18.085938 28.472656 18.148438 28.351562 C 18.210938 28.226562 18.253906 28.125 18.246094 28.125 C 18.234375 28.125 18.175781 28.226562 18.113281 28.351562 M 24.148438 28.5 C 24.066406 28.664062 24.007812 28.800781 24.019531 28.800781 C 24.027344 28.800781 24.105469 28.664062 24.1875 28.5 C 24.269531 28.335938 24.328125 28.199219 24.320312 28.199219 C 24.308594 28.199219 24.234375 28.335938 24.148438 28.5 M 11.949219 28.484375 C 11.910156 28.578125 11.921875 28.59375 11.972656 28.523438 C 12.015625 28.46875 12.09375 28.460938 12.691406 28.472656 C 13.398438 28.480469 13.476562 28.503906 13.414062 28.664062 C 13.386719 28.738281 11.984375 28.757812 11.949219 28.6875 C 11.9375 28.664062 11.933594 28.667969 11.941406 28.695312 C 11.953125 28.761719 13.332031 28.785156 13.410156 28.722656 C 13.480469 28.664062 13.476562 28.554688 13.402344 28.484375 C 13.316406 28.394531 11.980469 28.394531 11.949219 28.484375 M 20.664062 28.476562 C 20.664062 28.496094 20.722656 28.617188 20.792969 28.746094 C 20.957031 29.042969 20.957031 29.0625 20.777344 29.0625 C 20.640625 29.0625 20.625 29.050781 20.515625 28.855469 L 20.398438 28.648438 L 19.519531 28.648438 L 19.40625 28.855469 C 19.300781 29.058594 19.292969 29.0625 19.136719 29.0625 C 18.945312 29.0625 18.949219 29.074219 19.070312 28.835938 C 19.121094 28.734375 19.15625 28.648438 19.144531 28.648438 C 19.121094 28.648438 18.9375 29.011719 18.9375 29.0625 C 18.9375 29.082031 19.019531 29.101562 19.121094 29.101562 C 19.308594 29.101562 19.308594 29.101562 19.425781 28.894531 L 19.542969 28.6875 L 20.386719 28.6875 L 20.4375 28.789062 C 20.574219 29.054688 20.621094 29.101562 20.789062 29.101562 C 21.003906 29.101562 21.011719 29.082031 20.902344 28.871094 C 20.78125 28.628906 20.664062 28.433594 20.664062 28.476562 M 13.753906 28.6875 C 13.734375 28.8125 13.699219 28.882812 13.613281 28.960938 C 13.550781 29.015625 13.515625 29.0625 13.539062 29.0625 C 13.664062 29.0625 13.839844 28.71875 13.792969 28.566406 C 13.78125 28.539062 13.765625 28.59375 13.753906 28.6875 M 16.042969 28.640625 C 16.015625 28.742188 14.808594 28.773438 14.699219 28.679688 C 14.65625 28.636719 14.65625 28.640625 14.695312 28.695312 C 14.820312 28.859375 16.136719 28.773438 16.078125 28.605469 C 16.070312 28.578125 16.054688 28.597656 16.042969 28.640625 M 14.324219 28.773438 C 14.324219 28.855469 14.519531 29.0625 14.59375 29.0625 C 14.621094 29.058594 14.601562 29.035156 14.550781 29.007812 C 14.5 28.980469 14.429688 28.902344 14.390625 28.832031 C 14.347656 28.75 14.324219 28.730469 14.324219 28.773438 M 16.351562 28.867188 C 16.351562 29.003906 16.164062 29.042969 15.394531 29.0625 L 14.644531 29.085938 L 15.367188 29.09375 C 15.933594 29.097656 16.113281 29.089844 16.195312 29.046875 C 16.316406 28.984375 16.410156 28.882812 16.375 28.847656 C 16.359375 28.835938 16.351562 28.84375 16.351562 28.867188 M 23.925781 28.910156 C 23.84375 29.0625 23.875 29.101562 24.070312 29.101562 C 24.210938 29.101562 24.261719 29.085938 24.28125 29.035156 C 24.300781 28.980469 24.296875 28.976562 24.257812 29.015625 C 24.199219 29.074219 23.925781 29.078125 23.925781 29.023438 C 23.925781 29 23.941406 28.949219 23.964844 28.910156 C 23.984375 28.871094 23.996094 28.835938 23.984375 28.835938 C 23.972656 28.835938 23.949219 28.871094 23.925781 28.910156 " fill-opacity="1" fill-rule="evenodd"/></svg>