<svg xmlns="http://www.w3.org/2000/svg" width="400" height="400"><g fill-rule="evenodd"><path d="M150.7 95.638c-1.479.849-.895 35.594.683 40.589 1.317 4.169 1.562 4.838 2.557 6.973 6.757 14.503 21.027 25.664 44.06 34.461 10.223 3.904 22.849 10.545 26.371 13.87.39.368 1.457 1.361 2.372 2.206 10.811 9.987 10.339 25.464-.943 30.905l-2.4 1.158h-48l-.103-24.879-.103-24.88-2.82-1.92c-2.647-1.804-7.351-5.307-9.553-7.117-1.329-1.091-6.421-6.09-6.421-6.303 0-.094-.721-.929-1.602-1.855-.882-.927-2.209-2.585-2.95-3.685-1.029-1.529-1.406-1.847-1.598-1.348-.589 1.537-.275 96.533.321 96.867.314.176 17.639.227 38.5.114l37.929-.205 2.6-.926c3.82-1.36 3.936-1.408 7.2-3.005 3.671-1.796 5.542-2.896 6.626-3.896.454-.419.937-.762 1.074-.762.57 0 7.038-6.74 8.1-8.441 2.951-4.725 3.617-6.129 5.014-10.559 3.632-11.517 1.9-26.53-4.114-35.672-.605-.92-1.1-1.85-1.1-2.067 0-.217-.135-.454-.3-.528-.165-.073-1.04-1.128-1.945-2.343-1.894-2.545-7.025-7.739-9.553-9.67-2.81-2.148-2.797-1.962-.566-8.585 4.139-12.284 5.574-19.834 5.579-29.335.005-8.689-1.007-13.248-4.454-20.078-5.31-10.517-16.042-17.45-29.586-19.112-4.545-.557-59.9-.532-60.875.028m58.991 25.135c6.331.817 9.716 4.138 11.357 11.143 1.012 4.321.407 14.35-1.044 17.297-.166.337-.438 1.237-.604 2-1.104 5.071-3.1 7.118-5.668 5.811-2.138-1.089-4.735-2.135-6.883-2.773-1.184-.351-2.354-.79-2.6-.976-.247-.185-1.349-.659-2.449-1.052-10.256-3.665-21.024-11.877-25.208-19.223-1.665-2.923-2.058-12.023-.531-12.313 1.769-.336 30.935-.261 33.63.086" fill="#ca0404"/><path d="M0 200v200h400V0H0v200M215.6 95.731c28.387 6.588 37.452 31.27 25 68.069l-2.166 6.4 1.883 1.593C247.984 178.28 256 188.27 256 191.339c0 .364.159.661.353.661.195 0 .45.405.568.9.117.495.506 1.691.864 2.657 1.284 3.467 1.815 7.717 1.815 14.517 0 8.929-.562 11.585-4.131 19.526-4.515 10.045-17.369 19.133-30.269 21.401-3.486.613-73.432.945-74.967.356-.651-.25-1.03-99.357-.38-99.357.363 0 1.982 1.942 2.612 3.133 2.121 4.012 11.892 13.048 19.935 18.436 1.43.958 2.69 1.822 2.8 1.919.11.098.29 11.368.4 25.045l.2 24.867h23.4c23.075 0 23.432-.012 25.708-.872 6.152-2.326 8.905-6.769 8.877-14.328-.048-13.417-10.128-22.059-38.716-33.193-24.081-9.378-38.801-22.811-44.07-40.213L149.851 133l-.157-18.757c-.128-15.287-.058-18.821.375-19.104 1.119-.732 62.205-.179 65.531.592M175.438 124.1c-.926 11.903 9.733 21.418 34.593 30.881 7.019 2.671 6.217 2.662 7.357.084 5.732-12.961 4.928-27.268-1.782-31.708-3.722-2.464-4.564-2.557-23.021-2.557h-16.89l-.257 3.3m-31.756 169.916c2.404.668 3.169 2.02 3.152 5.569-.009 1.658.09 3.999.22 5.201.572 5.315-.562 5.814-13.213 5.814H123.8l-.109-7.989c-.06-4.394-.02-8.219.088-8.5.247-.643 17.629-.727 19.903-.095m29.212.356c4.145 2.086 3.733 14.411-.531 15.905-1.84.645-14.878.645-16.749 0-4.686-1.614-4.691-13.584-.006-15.993 1.785-.918 15.425-.848 17.286.088m11.209-.339c.123.2 2.471 4.683 4.487 8.567.799 1.54 1.635 2.98 1.856 3.2.479.474.446.525 4.09-6.4 3.263-6.199 2.619-5.478 5.06-5.67 3.152-.249 3.073.018-3.684 12.373-2.723 4.98-5.897 6.132-8.47 3.075-1.514-1.8-7.948-14.324-7.696-14.981.202-.526 4.043-.67 4.357-.164m30.664.15c1.74.9 9.578 14.74 9.082 16.035-.678 1.765-3.811.7-5.366-1.823L217 305.989l-4.175.106-4.175.105-1.343 2.3-1.343 2.3h-1.994c-2.065 0-2.88-.67-2.075-1.705.212-.272 1.428-2.475 2.702-4.895 1.274-2.42 2.758-5.21 3.298-6.2 2.175-3.989 4.279-5.158 6.872-3.817m32.038-.345c1.261.168 2.404.646 3.267 1.366l1.328 1.108.14 5c.255 9.129.03 9.288-13.14 9.288h-9.8l-.109-7.989c-.06-4.394-.025-8.206.077-8.473.206-.536 14.666-.773 18.237-.3m21.8 1.366c.699.679 1.691 2.08 2.203 3.115.512 1.035 2.073 4.036 3.47 6.671 2.907 5.483 2.915 5.81.158 5.81h-1.989l-1.279-2.4-1.279-2.4h-4.249c-4.713 0-4.439-.148-6.125 3.3-.702 1.436-.819 1.5-2.737 1.5-2.845 0-2.814-.346.601-6.786 1.661-3.134 3.021-5.773 3.021-5.865 0-.589 2.317-3.496 3.168-3.976 1.493-.84 3.538-.421 5.037 1.031M128 299.409v1.009l7.1-.109c7.021-.108 7.101-.119 7.228-1.009l.128-.9H128v1.009m28.973-.483c-.115.3-.156 1.969-.091 3.709L157 305.8l6.89.109 6.89.11.23-.918c.127-.505.177-2.174.11-3.709L171 298.6l-6.909-.109c-5.537-.088-6.95-.002-7.118.435m55.526-.026c-.469.588-1.699 2.962-1.699 3.28 0 .121.99.22 2.2.22 1.21 0 2.2-.067 2.2-.15 0-.232-2.053-3.85-2.185-3.85-.064 0-.297.225-.516.5m20.301 3.3v3.8h14.02l.428-1.1c.427-1.098.269-5.264-.231-6.073-.171-.276-2.725-.427-7.241-.427H232.8v3.8m31.427-1.852-1.04 2.052h4.878l-.894-1.5c-1.672-2.805-1.792-2.827-2.944-.552M128 305v1h14.8v-2H128v1" fill="#040404"/><path d="M124.178 294.913c-.109.283-.148 3.748-.088 7.7l.11 7.187 9.886.107 9.886.107 1.31-1.171c1.205-1.076 1.302-1.342 1.213-3.307a121.816 121.816 0 0 1-.086-4.983c.025-5.98-.335-6.153-12.809-6.153-7.14 0-9.27.116-9.422.513m31.141.271c-3.563 2.172-3.624 12.403-.085 14.234 1.91.987 16.156.829 17.841-.199 3.405-2.075 2.824-13.139-.755-14.387-2.372-.827-15.513-.555-17.001.352m25.081-.382c0 .913 6.857 13.43 7.833 14.298 3.006 2.674 4.944 1.111 9.575-7.727 3.583-6.837 3.614-6.973 1.617-6.973-1.643 0-1.529-.145-5.011 6.4-4.034 7.583-3.505 7.657-8.027-1.125l-2.613-5.075-1.687-.123c-1.053-.077-1.687.046-1.687.325m30.049.698c-.641.605-1.879 2.45-2.752 4.1-.873 1.65-2.422 4.545-3.442 6.433-2.25 4.163-2.243 3.967-.141 3.967 1.667 0 1.747-.06 2.9-2.199l1.186-2.198 4.697-.002 4.696-.001 1.242 2.2c1.173 2.079 1.327 2.2 2.803 2.2 1.953 0 1.951-.025-.287-4.283a3423.209 3423.209 0 0 1-3.5-6.676c-2.42-4.63-4.963-5.847-7.402-3.541m18.529-.587c-.109.283-.148 3.748-.088 7.7l.11 7.187 9.461.107 9.461.107 1.187-.999c3.586-3.017 2.801-13.076-1.109-14.206-2.173-.628-18.776-.537-19.022.104m34.955-.185c-.959.391-1.993 1.831-3.93 5.472-.937 1.76-2.4 4.497-3.253 6.081-1.957 3.637-1.95 3.794.15 3.642 1.587-.115 1.772-.256 2.777-2.123l1.076-2 3.724-.2c5.532-.297 5.603-.276 6.967 2.12 1.103 1.936 1.301 2.089 2.87 2.203 2.134.156 2.27.69-1.779-6.989-4.225-8.014-5.676-9.398-8.602-8.206m-121.151 3.45c.264.318.421.993.349 1.5-.144 1.015-15.466 1.734-15.575.731a14.54 14.54 0 0 1-.045-1.209c0-.44.02-.98.045-1.2.077-.694 14.644-.523 15.226.178m28.338-.098c.651.651.651 7.589 0 8.24-1 1-13.763.64-14.497-.409-.877-1.251-.872-6.805.006-7.682.81-.811 13.697-.943 14.491-.149m76.149.182c.596.54.729 1.26.718 3.9-.019 4.862.324 4.677-8.438 4.547l-7.349-.109-.118-3.6c-.192-5.884-.855-5.4 7.394-5.4 6.009 0 7.17.099 7.793.662m-32.362 2.064c1.478 2.619 1.222 2.954-2.144 2.795-3.081-.146-3.261-.525-1.544-3.247 1.51-2.394 2.123-2.318 3.688.452m52.302-.448c1.874 2.956 1.704 3.322-1.542 3.322-3.465 0-3.5-.05-2.003-2.859 1.509-2.831 2.002-2.895 3.545-.463m-124.238 3.951c.776.775.811 1.922.077 2.531-.382.317-2.871.425-8.1.349l-7.548-.109-.034-1.2c-.062-2.251-.241-2.2 7.648-2.2 6.129 0 7.432.103 7.957.629" fill="#ebebeb"/><path d="M150.069 95.138c-.433.284-.503 3.818-.375 19.105l.157 18.757 1.148 3.794c4.002 13.22 14.107 24.805 28.801 33.02 3.041 1.7 1.684.604-3-2.423-12.441-8.039-21.161-17.996-24.339-27.791-2.352-7.246-2.434-8.162-2.449-27.286-.012-15.808.011-16.298.777-16.708.845-.452 59.983-.322 63.011.138 1.554.237 1.565.23.4-.228-1.452-.57-63.282-.935-64.131-.378M216 96.185c0 .101.765.371 1.7.6 6.616 1.62 12.215 4.646 16.805 9.082 4.11 3.972 5.312 5.878 9.42 14.933.442.974.448.969.223-.2-.992-5.171-7.147-13.851-12.904-18.2-3.86-2.915-15.244-7.557-15.244-6.215M184.5 120.7c4.345.064 11.455.064 15.8 0 4.345-.065.79-.118-7.9-.118-8.69 0-12.245.053-7.9.118m-9.186 1.9c.003 1.1.081 1.503.173.895.092-.609.09-1.509-.005-2-.095-.492-.171.005-.168 1.105m36.92-.889c7.386 2.855 10.512 11.539 8.456 23.489-.261 1.519-.237 1.644.15.8.794-1.728.932-11.012.21-14.084-1.502-6.386-4.874-10.123-9.86-10.923-1-.161-.707.041 1.044.718M244.446 123c-.019.66.141 1.47.354 1.8.49.758.49-.47 0-2-.314-.98-.321-.976-.354.2m1.03 5.4c.278 3.547.271 8.946-.018 13.4-.166 2.544-.135 2.831.148 1.4.479-2.415.489-14.194.014-16.2-.3-1.267-.33-.975-.144 1.4m-70.079 1.041c.399 3.382 3.703 8.07 8.892 12.615 3.624 3.174 15.208 9.759 18.511 10.523.55.127.19-.166-.8-.65l-5.634-2.759c-10.581-5.183-18.651-12.819-20.614-19.505l-.548-1.865.193 1.641m69.276 16.712c-.15.392-.273 1.158-.273 1.703 0 1.63-2.228 9.942-4.363 16.279-2.233 6.623-2.245 6.437.565 8.585 2.528 1.931 7.659 7.125 9.553 9.67.905 1.215 1.78 2.27 1.945 2.343.165.074.3.311.3.528 0 .217.503 1.147 1.117 2.067.615.92 1.342 2.19 1.615 2.824.274.633.602 1.047.73.92 1.304-1.305-8.129-13.005-15.545-19.279l-1.883-1.593 2.169-6.4c2.173-6.412 4.826-16.913 4.511-17.857-.11-.331-.261-.259-.441.21m-24.785 1.98c-.446 1.133-.373 1.712.15 1.189.24-.24.37-.771.288-1.18-.144-.716-.16-.716-.438-.009m-1.645 4.859c-1.839 4.816-1.219 4.655-7.96 2.06-6.19-2.383-6.463-2.467-6.099-1.878.127.205 1.251.67 2.497 1.032 2.233.65 4.832 1.688 7.051 2.818 2.552 1.299 4.565-.741 5.649-5.724.448-2.061.093-1.533-1.138 1.692M149.6 201.557c0 44.821.06 49.581.633 49.8 1.535.589 71.481.257 74.967-.356 12.823-2.254 23.89-9.923 29.988-20.779 1.372-2.443.638-2.077-.84.419-1.934 3.267-2.043 3.433-3.144 4.759-1.369 1.648-6.398 6.6-6.704 6.6-.137 0-.62.343-1.074.762-1.084 1-2.955 2.1-6.626 3.896-3.264 1.597-3.38 1.645-7.2 3.005l-2.6.926-37.929.205c-20.861.113-38.186.062-38.5-.114-.596-.334-.91-95.33-.321-96.867.193-.502.553-.208 1.556 1.267 1.628 2.394 4.157 5.255 4.172 4.72.007-.22-.661-1.129-1.483-2.019-.822-.89-1.736-2.078-2.03-2.639-.626-1.194-2.245-3.142-2.612-3.142-.139 0-.253 22.301-.253 49.557m6.8-40.967c0 .297 4.75 5.042 6.421 6.414 2.202 1.81 6.906 5.313 9.553 7.117l2.82 1.92.103 24.88.103 24.879h24c22.068 0 24.126-.057 25.561-.705 2.099-.948 1.662-1.233-.577-.377-1.608.615-4.094.682-25.184.682h-23.4l-.2-24.867c-.11-13.677-.29-24.947-.4-25.045-.11-.097-1.37-.961-2.8-1.919-4.6-3.082-8.85-6.456-12.468-9.899-1.943-1.849-3.532-3.234-3.532-3.08m25.6 10.438c0 .363 7.758 3.917 13 5.955 6.589 2.562 11.025 4.447 14.765 6.274 1.741.851 3.255 1.457 3.364 1.347.327-.326-8.887-4.54-15.329-7.01-6.407-2.457-13.096-5.363-14.389-6.252-.828-.569-1.411-.699-1.411-.314m31.6 13.944c0 .095 1.575 1.098 3.5 2.23s4.356 2.692 5.403 3.467c1.046.775 1.806 1.167 1.689.87-.402-1.019-10.592-7.337-10.592-6.567m11.2 7.261c0 .171.772 1.044 1.716 1.939 9.145 8.675 10.105 22.241 2.013 28.42-2.246 1.715-1.748 1.894.555.201 7.012-5.157 7.05-18.547.075-26.593-1.945-2.244-4.359-4.441-4.359-3.967m31.422.467c1.059 2.408 2.246 6.682 2.734 9.837.311 2.015.583 3.033.605 2.263.05-1.816-.945-6.999-1.776-9.243-.358-.966-.747-2.162-.864-2.657-.118-.495-.393-.9-.61-.9-.228 0-.266.297-.089.7m2.671 24.569c-.435 2.974-1.471 6.727-2.687 9.731-.223.551-.194.675.093.4 1.207-1.159 3.57-10.334 3.245-12.6-.079-.55-.372.561-.651 2.469m-135.026 76.598c-.147.146-.264.461-.261.7.004.262.13.239.319-.059.23-.362 2.808-.524 9.694-.608l9.381-.115-9.433-.093c-5.189-.05-9.554.028-9.7.175m36.213.031c1.914.073 5.154.073 7.2 0 2.046-.072.48-.132-3.48-.133-3.96 0-5.634.059-3.72.133m40.12-.031c1.259.331 1.51.774 1.015 1.79-.442.907-.435.913.174.151.924-1.155.603-1.996-.792-2.08-.718-.043-.877.013-.397.139m28.467 0c-.147.146-.264.461-.261.7.004.288.105.279.3-.027.162-.252.744-.543 1.294-.645l1-.186-1.033-.055c-.569-.029-1.154.066-1.3.213m6.233.031c2.145.072 5.655.072 7.8 0 2.145-.072.39-.131-3.9-.131s-6.045.059-3.9.131m29.1.108c-.422.276-.185.317.8.136 1.725-.317 2.051-.544.767-.536-.532.003-1.237.183-1.567.4m-54.225 1.294-1.175 1.3 1.398-1.2c.769-.66 1.474-1.245 1.567-1.3.092-.055-.008-.1-.223-.1-.216 0-.921.585-1.567 1.3m38.825-.686c.66.336 1.515.985 1.9 1.442.385.458.7.642.7.409 0-.555-2.513-2.466-3.238-2.463-.309.002-.022.277.638.612m-20.014 8.186.014 7.8 9.3.011 9.3.012-9.191-.119-9.192-.119-.122-7.692-.122-7.693.013 7.8m-100.926-3.509c.055 1.21.072 1.226.227.209l.166-1.1h14.44l-.197 1.03c-.127.666-.059.893.191.643 1.549-1.549.356-1.869-7.392-1.982l-7.495-.109.06 1.309m29.22-.811c-.704.704-.643 6.887.073 7.481.904.75 13.932.418 14.145-.361.123-.454.076-.476-.197-.09-.274.387-1.997.483-7.131.4l-6.77-.11v-7.2h14l.227 3.2.226 3.2.074-3.02c.099-4.106.338-3.98-7.527-3.98-4.631 0-6.785.145-7.12.48m18.471 3.92c0 2.53.065 3.565.145 2.3a44.671 44.671 0 0 0 0-4.6c-.08-1.265-.145-.23-.145 2.3m57.22-3.868c-.112.292-.152 2.137-.088 4.1l.117 3.568 6.947.11c7.127.112 8.082-.061 8.028-1.459-.018-.441-.143-.36-.387.249-.356.885-.476.9-7.375.9H232.8v-7.618l7.082.109 7.083.109.277 1c.233.838.285.867.318.18.079-1.629-.587-1.78-7.853-1.78-5.397 0-6.977.118-7.136.532m33.868 1.244c.462.783.917 1.424 1.011 1.424.284 0-1.014-2.331-1.448-2.599-.222-.137-.025.392.437 1.175M197.8 302c-.341.66-.531 1.2-.421 1.2.11 0 .48-.54.821-1.2.341-.66.531-1.2.421-1.2-.11 0-.48.54-.821 1.2m12.6.5c0 .165 1.17.3 2.6.3 1.43 0 2.6-.135 2.6-.3 0-.165-1.17-.3-2.6-.3-1.43 0-2.6.135-2.6.3m62.6.7c.341.66.711 1.2.821 1.2.11 0-.08-.54-.421-1.2-.341-.66-.711-1.2-.821-1.2-.11 0 .08.54.421 1.2m-8.7-.511c.715.089 1.885.089 2.6 0 .715-.088.13-.161-1.3-.161-1.43 0-2.015.073-1.3.161m-136.433 1.178c-.147.146-.267.78-.267 1.408v1.142l7.7-.108c7.684-.109 7.7-.111 7.753-1.015.044-.754.023-.771-.128-.1-.173.772-.489.806-7.553.806H128v-1.982l7.3-.119 7.3-.118-7.233-.091c-3.979-.049-7.354.03-7.5.177m26.436 5.633c.518.495 1.247.889 1.619.875.451-.017.346-.158-.314-.421-.545-.218-1.274-.612-1.619-.875-.346-.263-.204-.074.314.421m18.938-.066c-.748.531-1.163.966-.922.966.24 0 .941-.444 1.559-.987 1.413-1.244 1.13-1.234-.637.021m14.447-.021c.598.63 1.159 1.064 1.247.966.088-.099-.402-.614-1.088-1.145l-1.247-.965 1.088 1.144m14.064-.032c-.461 1.201 3.68 2.257 4.387 1.119.103-.165-.813-.237-2.033-.16-2.089.132-2.207.091-2.001-.7.249-.951-.013-1.144-.353-.259m57.258.189c-.359 1.13-4.03 1.24-4.358.13-.16-.545-.188-.523-.125.1.126 1.247 4.03 1.402 4.681.186.251-.47.369-.943.261-1.05-.108-.108-.315.177-.459.634m17.27.013c.225.862.146.892-1.986.757-1.22-.077-2.136-.005-2.033.16.102.165 1.081.3 2.175.3 2.052 0 2.967-.757 2.039-1.685-.307-.307-.363-.174-.195.468M123.703 310c.139.512 1.572.602 9.73.611l9.567.012-9.381-.119c-6.857-.087-9.475-.252-9.731-.612-.254-.358-.304-.328-.185.108m95.846.1c.56.714 3.804 1.024 4.189.4.102-.165-.611-.237-1.586-.159-1.081.086-2.04-.07-2.462-.4-.623-.489-.637-.473-.141.159m-59.249.598c2.035.073 5.365.073 7.4 0s.37-.132-3.7-.132-5.735.059-3.7.132m29.8-.022c.385.1 1.015.1 1.4 0 .385-.101.07-.183-.7-.183s-1.085.082-.7.183" fill="#591f1f"/><path d="M123.852 294.608c-.323.842-.331 14.32-.009 15.159.213.557 1.427.622 10.1.544l9.857-.09-9.8-.21-9.8-.211v-15.2l9.295-.107c12.534-.145 13.26.192 12.738 5.907-.13 1.43-.101 2.808.065 3.062s.302-1.226.302-3.29c0-3.567-.055-3.808-1.108-4.863l-1.109-1.109-10.139-.125c-9.108-.111-10.165-.057-10.392.533m31.915-.22c-.961.389-2.968 2.65-2.966 3.343.001.258.353-.107.783-.812 1.391-2.281 2.368-2.519 10.336-2.519 8.412 0 9.308.217 10.453 2.53.454.918.827 1.436.827 1.15 0-1.181-1.337-2.978-2.614-3.512-1.531-.639-15.318-.788-16.819-.18m24.233.256c0 .636 4.872 10.174 6.651 13.022 2.145 3.433 6.179 3.751 7.796.613.327-.635.093-.518-.844.421-1.625 1.627-3.808 1.79-5.37.4-.961-.855-7.833-13.378-7.833-14.275 0-.594 2.919-.533 3.601.075.477.425.481.396.031-.2-.723-.956-4.032-1.001-4.032-.056m16.59 1.456c-1.034 2.12-.568 1.804.691-.47.552-.996.939-1.23 2.034-1.23 1.895 0 1.979.24.86 2.449-.544 1.073-.898 1.951-.788 1.951.4 0 2.235-4.041 2.004-4.415-.876-1.417-3.78-.38-4.801 1.715m13.633-.8c-.75.715-2.395 3.28-3.656 5.7-1.26 2.42-2.107 4.22-1.882 4 .224-.22 1.35-2.2 2.5-4.4 4.167-7.968 7.131-8.342 10.761-1.359.96 1.848 1.931 3.539 2.157 3.759.225.22-.467-1.284-1.54-3.343-3.057-5.868-5.444-7.115-8.34-4.357m18.404-.62c-.22.577-.175.621.229.22.624-.619 17.013-.711 19.12-.107 1.086.311 1.268.291.878-.1-.906-.907-19.882-.919-20.227-.013m35.373-.396c-1.036.381-2.057 1.462-2.851 3.016-1.048 2.054-.706 1.884.693-.344 3.116-4.962 5.681-3.529 10.693 5.978 4.049 7.679 3.913 7.145 1.779 6.989-1.569-.114-1.767-.267-2.87-2.203-1.355-2.379-1.371-2.384-6.948-2.192l-3.704.127-.615 1.273c-.556 1.149-.556 1.197.004.496.34-.428.619-.928.619-1.113 0-.185 2.115-.286 4.7-.224l4.7.113 1.125 2.1c1.125 2.098 1.128 2.1 3.1 2.1 2.523 0 2.58.292-1.429-7.329-4.685-8.906-5.776-9.971-8.996-8.787m-14.4 1.161c0 .161.315.64.7 1.064 1.884 2.079 1.067 10.606-1.199 12.513l-1.195 1.005-9.553-.113c-5.255-.063-9.553.021-9.553.186.001.796 18.962.32 20.324-.51 2.375-1.448 3.495-8.778 1.917-12.554-.519-1.242-1.441-2.26-1.441-1.591m-64.794 1.034c-.009.393 3.965 7.893 4.886 9.221.926 1.335 1.334 1.377 1.952.2.461-.878.453-.883-.331-.187-.971.861-1.04.777-3.848-4.726-1.891-3.706-2.648-4.99-2.659-4.508M135 297.987l7.6.213v2l-7.6.218-7.6.218 7.8-.018 7.8-.018.131-.922c.277-1.959-.247-2.085-8.28-1.991l-7.451.086 7.6.214m21.629.242c-.485.484-.611 1.379-.549 3.9l.081 3.271.138-3.181c.076-1.75.331-3.415.568-3.7.603-.727 13.521-.744 14.334-.019.477.425.481.396.031-.2-.756-.999-13.613-1.062-14.603-.071m75.561.271c-.124.495-.172 2.52-.108 4.5l.118 3.6 7.349.109c8.762.13 8.419.315 8.438-4.547.019-4.662.205-4.562-8.511-4.562-6.989 0-7.063.009-7.286.9m-20.971 1.374c-1.717 2.722-1.537 3.101 1.544 3.247 3.366.159 3.622-.176 2.144-2.795-1.565-2.77-2.178-2.846-3.688-.452m35.901-1.394c.703.703.643 6.887-.073 7.481-.38.316-2.715.424-7.5.349l-6.947-.11-.117-3.568c-.064-1.963-.024-3.808.088-4.1.279-.727 13.826-.775 14.549-.052m16.939 1.22c-.489.935-.657 1.364-.374.953 1.612-2.341 1.78-2.461 2.569-1.84.686.54.702.531.197-.113-.851-1.086-1.428-.845-2.392 1m-49.65.578c1.589 2.506 1.58 2.522-1.409 2.522-1.43 0-2.6-.096-2.6-.213 0-.6 2.07-4.187 2.416-4.187.221 0 .938.845 1.593 1.878m-61.865 2.122c0 2.09.068 2.945.15 1.9a29.38 29.38 0 0 0 0-3.8c-.082-1.045-.15-.19-.15 1.9m44.296.799c-1.151 2.201-2.005 4.001-1.897 4.001.264 0 4.3-7.691 4.126-7.864-.075-.076-1.079 1.663-2.229 3.863m70.55-2.419c.955 1.848.803 2.02-1.79 2.02-2.017 0-2.401-.112-2.406-.7-.005-.581-.069-.601-.374-.119-.622.983-.079 1.219 2.804 1.219 2.24 0 2.776-.12 2.776-.62 0-.677-1.098-2.98-1.421-2.98-.11 0 .075.531.411 1.18m-74.19 1.62c-.666 1.32-1.122 2.4-1.012 2.4.11 0 .746-1.08 1.412-2.4.666-1.32 1.122-2.4 1.012-2.4-.11 0-.746 1.08-1.412 2.4m64.4 1.6c-.885 1.76-1.519 3.2-1.409 3.2.11 0 .924-1.44 1.809-3.2.885-1.76 1.519-3.2 1.409-3.2-.11 0-.924 1.44-1.809 3.2m-130.157-.167c-.386 1.005-.284 1.176.259.434.447-.612 1.281-.674 7.657-.577 7.545.116 8.377.337 7.717 2.056-.299.779-15.231 1.013-15.613.244-.112-.226-.157-.18-.1.1.141.697 14.865.951 15.685.27.734-.609.699-1.756-.077-2.531-.943-.944-15.166-.94-15.528.004m92.958-.071c0 .198.629 1.488 1.399 2.865 1.76 3.147 1.749 3.373-.162 3.373-1.476 0-1.63-.121-2.803-2.2l-1.242-2.2-4.696.001-4.697.002-1.186 2.198c-1.153 2.139-1.233 2.199-2.9 2.199-2.018 0-1.986.109-.707-2.413.553-1.093.916-1.987.806-1.987-.266 0-2.213 3.859-2.213 4.387 0 .228.881.413 1.971.413 1.969 0 1.971-.001 3.229-2.2l1.259-2.2h9.006l.553 1.1c1.424 2.831 1.955 3.3 3.743 3.3 2.279 0 2.366-.176 1.21-2.457-1.311-2.588-2.568-4.632-2.57-4.181M146.691 306c-.178 1.324-.567 2.091-1.473 2.9-.677.605-1.04 1.1-.806 1.1 1.358 0 3.232-3.671 2.695-5.279-.096-.286-.283.289-.416 1.279m24.417-.49c-.28 1.068-13.155 1.418-14.309.39-.477-.425-.481-.396-.031.2 1.325 1.751 15.34.823 14.74-.976-.092-.277-.272-.103-.4.386m-18.308 1.427c0 .845 2.093 3.07 2.869 3.049.292-.008.088-.26-.453-.559-.542-.3-1.307-1.146-1.7-1.88-.467-.87-.716-1.082-.716-.61m21.6.987c0 1.46-2.004 1.872-10.181 2.092l-8.019.217 7.72.083c6.05.066 7.96-.04 8.829-.49 1.307-.675 2.272-1.739 1.908-2.102-.141-.142-.257-.051-.257.2m80.814.45c-.86 1.607-.541 2.026 1.543 2.026 1.496 0 2.02-.165 2.224-.7.214-.561.167-.601-.237-.2-.613.609-3.544.67-3.544.074 0-.235.186-.775.414-1.2.228-.426.324-.774.214-.774-.11 0-.386.348-.614.774" fill="#7c7c7c"/></g></svg>