<svg xmlns="http://www.w3.org/2000/svg" xmlns:xlink="http://www.w3.org/1999/xlink" width="50" zoomAndPan="magnify" viewBox="0 0 37.5 37.499999" height="50" preserveAspectRatio="xMidYMid meet" version="1.0"><defs><clipPath id="f4a390ee30"><path d="M 0 0 L 37.007812 0 L 37.007812 37.007812 L 0 37.007812 Z M 0 0 " clip-rule="nonzero"/></clipPath><clipPath id="14e51f3181"><path d="M 0 13.535156 L 37.007812 13.535156 L 37.007812 24 L 0 24 Z M 0 13.535156 " clip-rule="nonzero"/></clipPath></defs><g clip-path="url(#f4a390ee30)"><path fill="#000" d="M 0 0 L 37.5 0 L 37.5 45 L 0 45 Z M 0 0 " fill-opacity="1" fill-rule="nonzero"/><path fill="#000" d="M 0 0 L 37.5 0 L 37.5 37.5 L 0 37.5 Z M 0 0 " fill-opacity="1" fill-rule="nonzero"/><path fill="#000" d="M 0 0 L 37.5 0 L 37.5 37.5 L 0 37.5 Z M 0 0 " fill-opacity="1" fill-rule="nonzero"/></g><path fill="#fff" d="M 26.253906 20.691406 L 26.253906 21.292969 C 26.253906 21.75 26.03125 21.972656 25.578125 21.972656 L 25.335938 21.972656 C 24.882812 21.972656 24.664062 21.75 24.664062 21.292969 L 24.664062 20.515625 L 25.203125 20.515625 L 25.203125 21.273438 C 25.203125 21.417969 25.269531 21.484375 25.414062 21.484375 L 25.492188 21.484375 C 25.636719 21.484375 25.703125 21.417969 25.703125 21.273438 L 25.703125 20.769531 C 25.714844 20.640625 25.644531 20.535156 25.550781 20.46875 L 24.980469 20.050781 C 24.757812 19.914062 24.632812 19.671875 24.652344 19.410156 L 24.652344 18.90625 C 24.652344 18.449219 24.875 18.226562 25.328125 18.226562 L 25.570312 18.226562 C 26.023438 18.226562 26.242188 18.449219 26.242188 18.90625 L 26.242188 19.574219 L 25.695312 19.574219 L 25.695312 18.925781 C 25.714844 18.828125 25.644531 18.730469 25.539062 18.710938 L 25.414062 18.710938 C 25.316406 18.691406 25.222656 18.761719 25.203125 18.867188 L 25.203125 19.332031 C 25.191406 19.457031 25.25 19.574219 25.355469 19.632812 L 25.925781 20.050781 C 26.15625 20.1875 26.28125 20.429688 26.253906 20.691406 Z M 27.378906 21.941406 L 26.820312 21.941406 L 26.820312 18.253906 L 27.699219 18.253906 C 28.152344 18.253906 28.375 18.476562 28.375 18.933594 L 28.375 19.914062 C 28.375 20.371094 28.152344 20.59375 27.699219 20.59375 L 27.378906 20.59375 Z M 27.613281 18.75 L 27.378906 18.75 L 27.378906 20.109375 L 27.613281 20.109375 C 27.757812 20.109375 27.824219 20.039062 27.824219 19.894531 L 27.824219 18.972656 C 27.824219 18.816406 27.757812 18.75 27.613281 18.75 Z M 29.886719 21.972656 L 29.585938 21.972656 C 29.132812 21.972656 28.914062 21.75 28.914062 21.292969 L 28.914062 18.90625 C 28.914062 18.449219 29.132812 18.226562 29.585938 18.226562 L 29.886719 18.226562 C 30.339844 18.226562 30.5625 18.449219 30.5625 18.90625 L 30.5625 21.28125 C 30.5625 21.75 30.339844 21.972656 29.886719 21.972656 Z M 29.789062 18.722656 L 29.683594 18.722656 C 29.578125 18.703125 29.480469 18.769531 29.472656 18.875 L 29.472656 21.261719 C 29.460938 21.371094 29.53125 21.46875 29.636719 21.476562 L 29.800781 21.476562 C 29.945312 21.476562 30.011719 21.410156 30.011719 21.261719 L 30.011719 18.933594 C 30 18.789062 29.933594 18.722656 29.789062 18.722656 Z M 32.75 20.691406 L 32.75 21.941406 L 32.191406 21.941406 L 32.191406 20.699219 C 32.191406 20.535156 32.113281 20.46875 31.957031 20.46875 L 31.707031 20.46875 L 31.707031 21.941406 L 31.148438 21.941406 L 31.148438 18.253906 L 32.0625 18.253906 C 32.515625 18.253906 32.738281 18.476562 32.738281 18.933594 L 32.738281 19.632812 C 32.738281 19.964844 32.625 20.117188 32.421875 20.207031 C 32.652344 20.265625 32.75 20.410156 32.75 20.691406 Z M 31.976562 18.761719 L 31.707031 18.761719 L 31.707031 19.972656 L 31.957031 19.972656 C 32.113281 19.972656 32.191406 19.894531 32.191406 19.75 L 32.191406 18.972656 C 32.207031 18.875 32.140625 18.777344 32.035156 18.761719 C 32.015625 18.75 31.996094 18.75 31.976562 18.761719 Z M 33.683594 21.941406 L 33.683594 18.769531 L 33.183594 18.769531 L 33.183594 18.253906 L 34.742188 18.253906 L 34.742188 18.761719 L 34.242188 18.761719 L 34.242188 21.941406 Z M 36.765625 20.691406 L 36.765625 21.292969 C 36.765625 21.75 36.546875 21.972656 36.09375 21.972656 L 35.851562 21.972656 C 35.398438 21.972656 35.175781 21.75 35.175781 21.292969 L 35.175781 20.515625 L 35.71875 20.515625 L 35.71875 21.273438 C 35.71875 21.417969 35.785156 21.484375 35.929688 21.484375 L 36.007812 21.484375 C 36.152344 21.484375 36.21875 21.417969 36.21875 21.273438 L 36.21875 20.769531 C 36.226562 20.640625 36.160156 20.535156 36.0625 20.46875 L 35.496094 20.050781 C 35.265625 19.902344 35.15625 19.691406 35.167969 19.417969 L 35.167969 18.914062 C 35.167969 18.460938 35.390625 18.234375 35.84375 18.234375 L 36.082031 18.234375 C 36.535156 18.234375 36.757812 18.460938 36.757812 18.914062 L 36.757812 19.585938 L 36.207031 19.585938 L 36.207031 18.933594 C 36.226562 18.835938 36.160156 18.742188 36.054688 18.722656 L 35.929688 18.722656 C 35.832031 18.703125 35.734375 18.777344 35.71875 18.875 L 35.71875 19.34375 C 35.707031 19.46875 35.765625 19.585938 35.871094 19.644531 L 36.429688 20.058594 C 36.660156 20.1875 36.785156 20.429688 36.765625 20.691406 Z M 22.476562 18.226562 L 22.726562 18.226562 L 22.726562 22.070312 L 22.476562 22.070312 Z M 17.9375 20.253906 C 17.648438 20.980469 17.394531 21.300781 16.941406 21.28125 C 16.488281 21.261719 16.316406 21.03125 16.296875 20.46875 C 16.277344 19.90625 16.777344 18.90625 17.519531 18.703125 C 18.261719 18.496094 18.464844 18.933594 18.464844 18.933594 C 18.464844 18.933594 18.234375 19.527344 17.9375 20.253906 M 8.933594 18.769531 C 8.742188 18.777344 8.453125 18.75 8.375 18.527344 C 8.328125 18.371094 8.382812 18.195312 8.519531 18.109375 C 8.625 18.023438 8.789062 18.042969 8.875 18.148438 C 8.894531 18.175781 8.914062 18.207031 8.925781 18.234375 C 8.964844 18.421875 8.972656 18.59375 8.933594 18.769531 M 20.585938 20.28125 C 20.558594 20.253906 20.507812 20.265625 20.488281 20.292969 C 20.488281 20.292969 20.488281 20.300781 20.480469 20.300781 C 20.324219 20.527344 19.816406 21.214844 19.113281 21.390625 C 18.28125 21.601562 18.582031 20.980469 18.640625 20.835938 C 18.6875 20.710938 19.4375 18.835938 19.640625 18.332031 C 19.652344 18.292969 19.632812 18.253906 19.59375 18.234375 C 19.582031 18.234375 19.5625 18.226562 19.554688 18.234375 L 18.8125 18.382812 C 18.726562 18.402344 18.648438 18.460938 18.609375 18.546875 L 18.570312 18.632812 C 18.570312 18.632812 18.242188 18.101562 17.183594 18.3125 C 16.125 18.527344 15.121094 19.664062 15.179688 20.632812 C 14.824219 21.109375 14.265625 21.390625 13.675781 21.410156 C 12.671875 21.4375 12.597656 20.476562 12.742188 19.875 C 12.886719 19.273438 13.300781 18.625 13.878906 18.632812 C 14.410156 18.644531 14.4375 19.234375 14.351562 19.515625 C 14.339844 19.554688 14.359375 19.59375 14.398438 19.613281 L 14.6875 19.738281 C 14.726562 19.757812 14.765625 19.738281 14.785156 19.699219 C 14.851562 19.507812 14.996094 18.984375 14.667969 18.613281 C 14.265625 18.160156 13.269531 18.109375 12.472656 18.691406 C 11.671875 19.273438 11.449219 20.265625 11.671875 20.914062 C 11.671875 20.914062 11.179688 21.410156 10.589844 21.410156 C 9.695312 21.410156 10.574219 20.097656 11.121094 18.914062 C 11.351562 18.410156 11.0625 18.101562 10.070312 18.46875 C 9.753906 18.585938 9.433594 18.683594 9.433594 18.683594 C 9.433594 18.683594 9.503906 18.214844 9.289062 17.945312 C 9.078125 17.671875 8.605469 17.558594 8.191406 17.847656 C 7.777344 18.140625 7.410156 19.207031 8.769531 19.324219 C 8.617188 19.808594 8.347656 20.253906 7.988281 20.621094 C 7.429688 21.195312 6.988281 21.390625 6.542969 21.398438 C 6.101562 21.410156 6.429688 20.757812 6.429688 20.757812 L 7.371094 18.382812 C 7.390625 18.324219 7.371094 18.265625 7.316406 18.246094 C 7.296875 18.234375 7.277344 18.234375 7.246094 18.234375 L 7.199219 18.246094 C 7.199219 18.246094 6.613281 18.34375 6.515625 18.402344 C 6.417969 18.460938 6.417969 18.421875 6.1875 19.003906 L 5.472656 20.796875 C 5.320312 21.183594 5.328125 21.882812 6.332031 21.882812 C 7.335938 21.882812 8.433594 21.234375 9.308594 19.304688 C 9.578125 19.253906 9.839844 19.195312 10.101562 19.117188 C 10.101562 19.117188 9.558594 20.449219 9.378906 20.882812 C 9.195312 21.320312 9.398438 21.863281 10.378906 21.863281 C 11.363281 21.863281 11.863281 21.292969 11.863281 21.292969 C 11.863281 21.292969 13.359375 22.640625 15.285156 21.167969 C 15.285156 21.167969 15.554688 21.71875 16.144531 21.824219 C 16.730469 21.933594 17.347656 21.757812 17.65625 21.351562 C 17.65625 21.351562 17.800781 21.875 18.550781 21.863281 C 19.285156 21.855469 20.125 21.515625 20.789062 20.582031 C 20.816406 20.546875 20.808594 20.488281 20.769531 20.457031 Z M 6.785156 17.78125 C 6.757812 17.78125 6.726562 17.761719 6.71875 17.730469 L 6.71875 17.703125 C 6.773438 17.558594 6.824219 17.449219 6.863281 17.3125 C 6.929688 17.140625 6.996094 17.070312 7.285156 17.023438 C 7.554688 16.984375 7.835938 16.925781 7.96875 16.917969 C 8.007812 16.917969 8.039062 16.945312 8.039062 16.984375 C 8.039062 16.992188 8.039062 17.003906 8.027344 17.011719 C 7.960938 17.21875 7.679688 17.652344 6.785156 17.78125 " fill-opacity="1" fill-rule="nonzero"/><g clip-path="url(#14e51f3181)"><path fill="#000000" d="M 5.617188 16.859375 C 5.484375 17.023438 5.609375 17.257812 5.714844 17.257812 C 6.667969 16.527344 7.574219 15.023438 7.574219 14.324219 C 7.574219 13.800781 7.035156 13.570312 6.246094 13.570312 C 3.519531 13.570312 0 16.917969 0 20.699219 C 0 22.476562 1.234375 23.84375 3.09375 23.988281 C 4.296875 24.085938 5.464844 23.621094 6.324219 22.863281 C 6.390625 22.804688 6.417969 22.707031 6.410156 22.621094 L 6.398438 22.554688 C 6.398438 22.523438 6.371094 22.503906 6.339844 22.515625 C 6.332031 22.515625 6.324219 22.515625 6.324219 22.523438 C 5.570312 23.097656 4.5 23.542969 3.429688 23.425781 C 2.207031 23.273438 1.367188 22.222656 1.367188 20.660156 C 1.367188 17.605469 3.699219 14.363281 5.984375 14.191406 C 6.582031 14.140625 6.699219 14.355469 6.621094 14.792969 C 6.523438 15.414062 6.082031 16.277344 5.617188 16.859375 Z M 37.113281 18.644531 L 37.113281 18.292969 L 37.046875 18.292969 L 37.046875 18.253906 L 37.230469 18.253906 L 37.230469 18.292969 L 37.164062 18.292969 L 37.164062 18.644531 Z M 37.25 18.644531 L 37.257812 18.253906 L 37.308594 18.253906 L 37.375 18.566406 L 37.441406 18.253906 L 37.492188 18.253906 L 37.5 18.644531 L 37.460938 18.644531 L 37.460938 18.363281 L 37.394531 18.644531 L 37.363281 18.644531 L 37.308594 18.363281 L 37.308594 18.644531 Z M 37.25 18.644531 " fill-opacity="1" fill-rule="nonzero"/></g></svg>
