<svg xmlns="http://www.w3.org/2000/svg" id="Layer_1" x="0" y="0" viewBox="0 0 389.1 107.5" style="enable-background:new 0 0 389.1 107.5" xml:space="preserve"><style>.st0{fill:#000}</style><path class="st0" d="M272.4 73.4v6.2c0 4.7-2.3 7-7 7h-2.5c-4.7 0-7-2.3-7-7v-8h5.6v7.8c0 1.5.7 2.2 2.2 2.2h.8c1.5 0 2.2-.7 2.2-2.2v-5.2c.1-1.3-.6-2.4-1.6-3.1l-5.9-4.3c-2.3-1.4-3.6-3.9-3.4-6.6V55c0-4.7 2.3-7 7-7h2.5c4.7 0 7 2.3 7 7v6.9h-5.7v-6.7c.2-1-.5-2-1.6-2.2h-1.3c-1-.2-2 .5-2.2 1.6v4.8c-.1 1.3.5 2.5 1.6 3.1l5.9 4.3c2.4 1.4 3.7 3.9 3.4 6.6zm11.7 12.9h-5.8v-38h9.1c4.7 0 7 2.3 7 7v10.1c0 4.7-2.3 7-7 7h-3.3v13.9zm2.4-32.9h-2.4v14h2.4c1.5 0 2.2-.7 2.2-2.2v-9.5c0-1.6-.7-2.3-2.2-2.3zm23.6 33.2H307c-4.7 0-7-2.3-7-7V55c0-4.7 2.3-7 7-7h3.1c4.7 0 7 2.3 7 7v24.5c0 4.8-2.3 7.1-7 7.1zm-1-33.5H308c-1.1-.2-2.1.5-2.2 1.6v24.6c-.1 1.1.6 2.1 1.7 2.2h1.7c1.5 0 2.2-.7 2.2-2.2v-24c-.1-1.5-.8-2.2-2.3-2.2zm30.7 20.3v12.9H334V73.5c0-1.7-.8-2.4-2.4-2.4H329v15.2h-5.8v-38h9.5c4.7 0 7 2.3 7 7v7.2c0 3.4-1.2 5-3.3 5.9 2.4.6 3.4 2.1 3.4 5zm-8-19.9H329V66h2.6c1.6 0 2.4-.8 2.4-2.3v-8c.2-1-.5-2-1.6-2.2-.2-.1-.4-.1-.6 0zm17.7 32.8V53.6h-5.2v-5.3h16.2v5.2h-5.2v32.8h-5.8zm32-12.9v6.2c0 4.7-2.3 7-7 7H372c-4.7 0-7-2.3-7-7v-8h5.6v7.8c0 1.5.7 2.2 2.2 2.2h.8c1.5 0 2.2-.7 2.2-2.2v-5.2c.1-1.3-.6-2.4-1.6-3.1l-5.9-4.3a7.4 7.4 0 0 1-3.4-6.5v-5.2c0-4.7 2.3-7 7-7h2.5c4.7 0 7 2.3 7 7V62h-5.7v-6.7c.2-1-.5-2-1.6-2.2h-1.3c-1-.2-2 .6-2.2 1.6v4.8c-.1 1.3.5 2.5 1.6 3.1l5.8 4.3c2.4 1.3 3.7 3.8 3.5 6.5zM233.2 48h2.6v39.6h-2.6zm-47.1 20.9c-3 7.5-5.6 10.8-10.3 10.6s-6.5-2.6-6.7-8.4 5-16.1 12.7-18.2 9.8 2.4 9.8 2.4-2.4 6.1-5.5 13.6M92.7 53.6c-2 .1-5-.2-5.8-2.5-.5-1.6.1-3.4 1.5-4.3 1.1-.9 2.8-.7 3.7.4.2.3.4.6.5.9.4 1.9.5 3.7.1 5.5m120.9 15.6c-.3-.3-.8-.2-1 .1 0 0 0 .1-.1.1-1.6 2.3-6.9 9.4-14.2 11.2-8.6 2.2-5.5-4.2-4.9-5.7.5-1.3 8.3-20.6 10.4-25.8.1-.4-.1-.8-.5-1-.1 0-.3-.1-.4 0l-7.7 1.5c-.9.2-1.7.8-2.1 1.7l-.4.9s-3.4-5.5-14.4-3.3-21.4 13.9-20.8 23.9c-3.7 4.9-9.5 7.8-15.6 8-10.4.3-11.2-9.6-9.7-15.8S138 52.1 144 52.2c5.5.1 5.8 6.2 4.9 9.1-.1.4.1.8.5 1l3 1.3c.4.2.8 0 1-.4.7-2 2.2-7.4-1.2-11.2-4.2-4.7-14.5-5.2-22.8.8s-10.6 16.2-8.3 22.9c0 0-5.1 5.1-11.2 5.1-9.3 0-.2-13.5 5.5-25.7 2.4-5.2-.6-8.4-10.9-4.6-3.3 1.2-6.6 2.2-6.6 2.2s.7-4.8-1.5-7.6-7.1-4-11.4-1-8.1 14 6 15.2c-1.6 5-4.4 9.6-8.1 13.4-5.8 5.9-10.4 7.9-15 8s-1.2-6.6-1.2-6.6l9.8-24.5c.2-.6 0-1.2-.6-1.4-.2-.1-.4-.1-.7-.1l-.5.1s-6.1 1-7.1 1.6-1 .2-3.4 6.2l-7.4 18.5c-1.6 4-1.5 11.2 8.9 11.2S87.5 79 96.6 59.1c2.8-.5 5.5-1.1 8.2-1.9 0 0-5.6 13.7-7.5 18.2s.2 10.1 10.4 10.1 15.4-5.9 15.4-5.9 15.5 13.9 35.5-1.3c0 0 2.8 5.7 8.9 6.8s12.5-.7 15.7-4.9c0 0 1.5 5.4 9.3 5.3 7.6-.1 16.3-3.6 23.2-13.2.3-.4.2-1-.2-1.3l-1.9-1.8zM70.4 43.4c-.3 0-.6-.2-.7-.5v-.3c.6-1.5 1.1-2.6 1.5-4 .7-1.8 1.4-2.5 4.4-3 2.8-.4 5.7-1 7.1-1.1.4 0 .7.3.7.7 0 .1 0 .2-.1.3-.7 2.1-3.6 6.6-12.9 7.9"/><path class="st0" d="M58.3 33.9c-1.4 1.7-.1 4.1 1 4.1 9.9-7.5 19.3-23 19.3-30.2C78.6 2.4 73 0 64.8 0 36.5 0 0 34.5 0 73.5c0 18.3 12.8 32.4 32.1 33.9 12.5 1 24.6-3.8 33.5-11.6.7-.6 1-1.6.9-2.5l-.1-.7c0-.3-.3-.5-.6-.4-.1 0-.2 0-.2.1-7.8 5.9-18.9 10.5-30 9.3-12.7-1.6-21.4-12.4-21.4-28.5 0-31.5 24.2-64.9 47.9-66.7 6.2-.5 7.4 1.7 6.6 6.2-1 6.4-5.6 15.3-10.4 21.3zm326.8 18.4v-3.6h-.7v-.4h1.9v.4h-.7v3.6h-.5zm1.4 0 .1-4h.5l.7 3.2.7-3.2h.5l.1 4h-.4v-2.9l-.7 2.9h-.3l-.6-2.9v2.9h-.6z"/></svg>