<svg xmlns="http://www.w3.org/2000/svg" xmlns:xlink="http://www.w3.org/1999/xlink" width="50" zoomAndPan="magnify" viewBox="0 0 37.5 37.499999" height="50" preserveAspectRatio="xMidYMid meet" version="1.0"><defs><clipPath id="8fad537d4f"><path d="M 0 0 L 37.007812 0 L 37.007812 37.007812 L 0 37.007812 Z M 0 0 " clip-rule="nonzero"/></clipPath><clipPath id="a9cf5bd356"><path d="M 14 0 L 37.007812 0 L 37.007812 37.007812 L 14 37.007812 Z M 14 0 " clip-rule="nonzero"/></clipPath></defs><g clip-path="url(#8fad537d4f)"><path fill="#ffffff" d="M 0 0 L 37.5 0 L 37.5 45 L 0 45 Z M 0 0 " fill-opacity="1" fill-rule="nonzero"/><path fill="#ffffff" d="M 0 0 L 37.5 0 L 37.5 37.5 L 0 37.5 Z M 0 0 " fill-opacity="1" fill-rule="nonzero"/><path fill="#ffffff" d="M 0 0 L 37.5 0 L 37.5 37.5 L 0 37.5 Z M 0 0 " fill-opacity="1" fill-rule="nonzero"/></g><g clip-path="url(#a9cf5bd356)"><path fill="#1493ff" d="M 18.921875 37.429688 C 20.324219 36.613281 21.664062 35.707031 22.949219 34.714844 C 24.234375 33.722656 25.449219 32.652344 26.59375 31.5 C 27.738281 30.347656 28.804688 29.128906 29.789062 27.839844 C 30.777344 26.550781 31.675781 25.203125 32.488281 23.796875 C 33.296875 22.390625 34.015625 20.941406 34.636719 19.441406 C 35.257812 17.941406 35.78125 16.410156 36.207031 14.84375 C 36.628906 13.273438 36.949219 11.6875 37.164062 10.078125 C 37.382812 8.46875 37.492188 6.855469 37.5 5.230469 C 37.5 5.113281 37.449219 5.023438 37.34375 4.960938 C 32.503906 2.199219 27.308594 0.59375 21.75 0.15625 C 21.632812 0.144531 21.535156 0.1875 21.464844 0.28125 C 19.984375 2.222656 18.726562 4.296875 17.691406 6.507812 C 17.675781 6.542969 17.675781 6.582031 17.699219 6.617188 C 17.722656 6.648438 17.753906 6.667969 17.792969 6.664062 L 18.75 6.664062 C 22.867188 6.65625 26.828125 7.441406 30.628906 9.019531 C 30.371094 11.042969 29.914062 13.019531 29.257812 14.949219 C 28.605469 16.882812 27.769531 18.730469 26.75 20.496094 C 25.730469 22.261719 24.546875 23.910156 23.199219 25.441406 C 21.855469 26.972656 20.371094 28.355469 18.75 29.59375 C 17.445312 28.597656 16.222656 27.5 15.09375 26.308594 C 15.054688 26.273438 15.011719 26.265625 14.964844 26.289062 C 14.917969 26.3125 14.898438 26.347656 14.90625 26.398438 C 15.519531 30.273438 16.765625 33.933594 18.648438 37.375 C 18.71875 37.484375 18.8125 37.503906 18.921875 37.429688 Z M 18.921875 37.429688 " fill-opacity="1" fill-rule="nonzero"/></g><path fill="#1493ff" d="M 12.285156 22.882812 C 11.535156 21.828125 10.859375 20.730469 10.25 19.589844 C 10.871094 19.296875 11.503906 19.035156 12.152344 18.808594 C 12.28125 18.761719 12.351562 18.667969 12.363281 18.53125 C 12.515625 16.234375 12.882812 13.976562 13.464844 11.75 C 13.476562 11.710938 13.46875 11.679688 13.441406 11.648438 C 13.410156 11.621094 13.378906 11.613281 13.339844 11.621094 C 11.414062 12.023438 9.558594 12.632812 7.773438 13.449219 C 7.359375 11.996094 7.058594 10.519531 6.871094 9.019531 C 9.464844 7.9375 12.160156 7.222656 14.953125 6.882812 C 15.0625 6.867188 15.140625 6.8125 15.183594 6.710938 C 16.171875 4.421875 17.375 2.253906 18.796875 0.207031 C 18.820312 0.175781 18.824219 0.140625 18.804688 0.105469 C 18.785156 0.0664062 18.757812 0.0507812 18.71875 0.046875 C 15.464844 0.0429688 12.265625 0.457031 9.121094 1.289062 C 5.976562 2.121094 2.992188 3.34375 0.167969 4.953125 C 0.0546875 5.019531 0 5.113281 0 5.242188 C 0 17.003906 5.859375 28.105469 14.820312 34.914062 C 14.863281 34.949219 14.910156 34.949219 14.953125 34.914062 C 14.996094 34.878906 15.007812 34.835938 14.984375 34.785156 C 13.441406 31.011719 12.554688 27.09375 12.332031 23.023438 C 12.328125 22.972656 12.3125 22.925781 12.285156 22.882812 Z M 12.285156 22.882812 " fill-opacity="1" fill-rule="nonzero"/></svg>