<svg xmlns="http://www.w3.org/2000/svg" width="400" height="443.902"><g fill-rule="evenodd"><path d="M10.309 277.9c-.049 46.585-.083 85.458-.075 86.385.019 2.213.79 2.993 3.857 3.902 1.38.41 2.871.978 3.314 1.263.443.285 1.973.816 3.4 1.18 1.427.364 3.225.977 3.995 1.362.77.385 2.087.825 2.927.977.84.153 2.55.703 3.8 1.223 2.319.966 5.135 1.931 10.473 3.592 1.65.514 3.537 1.218 4.194 1.566.656.348 2.158.833 3.338 1.077 1.18.245 2.713.776 3.407 1.18.693.404 1.981.863 2.861 1.02.88.158 2.5.678 3.6 1.156 1.1.478 3.17 1.192 4.6 1.586 1.43.394 2.78.858 3 1.031.22.173 1.57.632 3 1.02 1.43.389 3.269 1.039 4.087 1.445.818.406 2.416.937 3.552 1.181 1.136.243 2.627.765 3.313 1.16.687.394 1.878.835 2.648.98 1.638.309 3.181.837 5.4 1.847.88.401 2.493.927 3.584 1.169 1.091.241 2.213.63 2.494.863.281.233 1.753.75 3.272 1.148 1.518.399 3.456 1.075 4.305 1.502.85.427 2.262.907 3.138 1.066.876.16 2.316.642 3.2 1.071.884.43 2.935 1.131 4.558 1.558 1.624.428 3.167.956 3.43 1.174.262.218 1.634.691 3.048 1.052 1.414.361 3.231.991 4.037 1.401.806.409 2.31.934 3.342 1.165 1.033.231 2.606.772 3.496 1.203.89.43 2.266.898 3.057 1.041.792.142 2.148.595 3.015 1.007.867.411 2.937 1.127 4.6 1.591 1.663.463 3.204.984 3.424 1.156.22.173 1.57.632 3 1.02 1.43.389 3.269 1.039 4.087 1.445.818.406 2.416.937 3.552 1.181 1.136.243 2.627.765 3.313 1.16.687.394 1.878.84 2.648.992 1.83.36 4.871 1.365 5.39 1.783.226.181 1.67.696 3.21 1.143 3.789 1.101 7.549 2.401 10.2 3.526 1.21.513 2.92 1.056 3.8 1.205.88.149 2.179.596 2.886.994.708.397 2.418 1.003 3.8 1.347 1.383.343 3.27.988 4.193 1.432 3.606 1.734 7.288 1.718 11.164-.048.957-.436 2.869-1.08 4.248-1.432 1.38-.352 3.147-.964 3.928-1.361.78-.396 2.13-.85 3-1.008.869-.158 2.211-.602 2.981-.987s2.57-1.015 4-1.4c1.43-.386 2.994-.943 3.475-1.239.481-.296 1.741-.73 2.8-.965 1.059-.234 2.645-.768 3.525-1.185.88-.418 2.86-1.116 4.4-1.55 1.54-.434 3.7-1.141 4.8-1.571 2.563-1 6.51-2.336 9.743-3.298 1.398-.417 2.748-.927 3-1.135.251-.208 1.627-.68 3.057-1.049 1.43-.369 3.5-1.079 4.6-1.578 1.1-.499 2.72-1.036 3.6-1.194.88-.158 1.982-.533 2.448-.833.467-.3 2.401-.996 4.299-1.546 1.898-.55 3.676-1.144 3.952-1.32.275-.175 1.761-.709 3.301-1.185 3.98-1.231 7.68-2.496 10-3.419 1.1-.437 2.9-1.025 4-1.306 1.1-.282 2.817-.873 3.816-1.315.999-.442 2.439-.937 3.2-1.099.761-.163 2.014-.574 2.784-.914.77-.34 2.66-1.024 4.2-1.52 4.231-1.364 7.777-2.586 10-3.448 1.1-.426 3.35-1.201 5-1.722 5.249-1.657 8.15-2.652 10-3.431.99-.416 2.7-.971 3.8-1.233 1.1-.262 2.81-.877 3.8-1.365.99-.489 2.588-1.017 3.551-1.174.964-.157 2.314-.613 3-1.013.687-.399 2.419-1.026 3.849-1.392 1.43-.367 3.05-.913 3.6-1.215.55-.301 2.17-.902 3.6-1.335 3.769-1.141 7.51-2.407 9.8-3.317 1.1-.438 2.99-1.041 4.2-1.342 1.21-.3 2.913-.915 3.785-1.365.871-.451 1.91-.819 2.308-.819.398 0 2.336-.63 4.307-1.4 1.971-.77 3.919-1.4 4.329-1.4 2.459 0 2.26 7.39 2.375-88.242l.103-86.558H10.4l-.091 84.7M98.6 211.002c8.34.913 10.434 1.256 11.788 1.932.675.337 2.203.815 3.396 1.063 1.192.247 2.586.779 3.098 1.182.512.403 1.62 1.02 2.46 1.371.841.352 2.067 1.092 2.724 1.645.658.553 1.351 1.005 1.542 1.005.315 0 4.947 4.578 7.069 6.987.483.548 1.197 1.675 1.587 2.505a25.852 25.852 0 0 0 1.589 2.813c.483.718 1 2.023 1.148 2.9.148.877.416 1.595.595 1.595 1 0 2.636 10.994 2.261 15.2-.592 6.647-1.08 9.371-2.043 11.407-.558 1.179-1.014 2.404-1.014 2.723 0 .319-.63 1.496-1.4 2.615-.77 1.12-1.4 2.169-1.4 2.331 0 .82-6.631 7.222-8.432 8.14-2.277 1.162-1.912 3.026.767 3.921 2.766.924 9.345 7.442 10.64 10.541.318.762.848 1.609 1.176 1.881.329.273.721 1.069.872 1.769.151.699.689 1.992 1.197 2.872.88 1.526 1.215 3.168 2.205 10.825.571 4.411-.778 15.84-2.192 18.575-.512.99-1.052 2.361-1.202 3.046-.149.685-.597 1.596-.996 2.025-.4.428-1.041 1.443-1.426 2.254-.385.811-.855 1.475-1.044 1.475-.19 0-.62.533-.957 1.184-1.071 2.073-6.534 7.07-8.834 8.083-.646.284-1.308.726-1.471.983-.163.257-1.198.791-2.3 1.188-1.102.396-2.003.84-2.003.987 0 .329-2.909 1.416-4.8 1.793-.77.154-2.03.592-2.8.973-.893.442-4.587 1.084-10.2 1.773l-8.8 1.079-30.523-.122-30.523-.121-.768-1c-.751-.977-.768-2.595-.777-71.518l-.009-70.518.982-.982.982-.982 31.118-.006c25.288-.004 32.167.109 36.718.608m149.441.461c1.328 1.328 1.238 31.515-.097 32.637-.776.653-2.792.7-29.724.7h-28.892l-.464 1.019c-.66 1.448-.646 19.039.016 19.701.362.362 6.235.48 23.98.48h23.499l1.021 1.338 1.02 1.338v27.76l-.982.982-.982.982H188.9l-.25 1.25c-.32 1.599-.318 19.056.002 20.25l.241.9h28.593c25.485 0 28.741.07 29.954.646l1.36.645.084 14.455c.047 7.95.073 15.026.057 15.726-.03 1.416-.756 2.326-2.337 2.926-1.495.569-94.457.551-96.089-.018-2.217-.773-2.115 2.731-2.115-72.617v-70.199l.987-.987.986-.986 48.403.104 48.402.105.863.863m123.17-.387c1.632 1.115 1.64 1.203 1.674 16.799l.033 15.053-.901.936-.901.936H335.18l-.39 1.026c-.246.648-.39 20.625-.39 54.218v53.192l-.955.956c-1.411 1.411-2.181 1.462-20.18 1.329l-16.535-.121-.968-1.126-.968-1.125.001-53.275c0-29.3-.11-53.679-.244-54.174l-.244-.9h-17.78c-21.81 0-20.626.383-19.569-6.323.571-3.625 1.463-17.784 1.448-23.003-.007-2.696.392-3.63 1.904-4.45 1.783-.968 109.483-.917 110.901.052M68.586 240.965c-1.011 1.543-1.095 25.975-.091 26.601 2.115 1.321 21.464.305 23.459-1.231.525-.404 1.199-.735 1.499-.735.301 0 1.236-.675 2.078-1.5 6.887-6.742 4.32-19.805-4.415-22.467a414.24 414.24 0 0 1-4.076-1.261c-.638-.205-4.908-.372-9.49-.372h-8.332l-.632.965m-.186 54.731c-.832.699-.756 29.431.079 29.961.286.182 4.801.334 10.033.337l9.511.006 4.089-1.328c6.73-2.185 9.479-5.989 9.796-13.554l.179-4.282-1.536-3.118c-1.459-2.959-3.645-5.718-4.532-5.718-.224 0-1.523-.585-2.886-1.3l-2.478-1.3-10.828-.104c-8.25-.079-10.97.016-11.427.4" fill="#f8dc06"/><path d="M12.148 12.455c-.923.963-.973 1.188-.578 2.6.304 1.087.428 27.251.417 88.245-.011 60.905.112 86.938.413 87.5.428.8.738.801 188.714.7l188.286-.1.101-89.712c.08-71.561-.001-89.751-.4-89.902-.276-.104-84.975-.233-188.222-.287L13.158 11.4l-1.01 1.055M119.2 28.517c1.573.795 2.572 8.175 3.207 23.679.216 5.282.507 10.975.646 12.651.431 5.192 2.704 4.753-24.604 4.753-19.689 0-23.223.086-23.63.577-.395.476-.679 9.762-.45 14.68.051 1.094 1.442 1.176 19.669 1.151 18.774-.025 19.31.027 20.35 1.97.631 1.179.535 37.63-.101 38.452-1.137 1.47-2.778 1.589-21.418 1.558-9.988-.017-18.235.045-18.329.139-.094.093-.208 10.287-.255 22.654-.082 21.743-.111 22.502-.861 23.051-1.426 1.042-43.169.823-44.224-.232-.794-.794-.8-1.33-.795-71.9.006-74.669-.032-72.569 1.33-73.227 1.366-.661 88.154-.618 89.465.044m80.8.07c6.382.526 9.105 1.014 10.2 1.826.22.163 1.21.419 2.2.57 2.374.36 4.458 1.003 5.2 1.604.33.267 1.654.777 2.943 1.132 1.289.355 2.549.904 2.8 1.219.251.316 1.177.8 2.057 1.076.88.276 2.109.926 2.731 1.444.622.518 1.612 1.061 2.2 1.207.588.145 1.306.598 1.596 1.005.289.408 1.144 1 1.9 1.315.755.316 1.373.746 1.373.957 0 .21.769.832 1.708 1.383.94.551 2.64 1.918 3.778 3.038 1.138 1.12 2.182 2.037 2.32 2.037.314 0 1.394 1.063 1.394 1.371 0 .126 1.08 1.309 2.4 2.629 1.32 1.32 2.4 2.537 2.4 2.704 0 .168.627 1.023 1.392 1.9.766.878 1.396 1.808 1.4 2.067.005.259.434.806.954 1.215.52.409 1.081 1.188 1.245 1.729.164.542.707 1.435 1.206 1.985.498.55 1.126 1.688 1.395 2.528.269.84.741 1.625 1.05 1.743.308.119.855 1.227 1.214 2.462.359 1.236.987 2.701 1.395 3.257.408.555.954 2.09 1.213 3.41.258 1.32.593 2.49.743 2.6.669.49 1.157 2.051 1.567 5.011.242 1.754.797 5.043 1.233 7.309 1.058 5.496 1.065 12.67.019 17.756a126.94 126.94 0 0 0-1.249 7.344c-.275 2.084-.767 3.998-1.176 4.58-.387.55-.837 1.81-1 2.8-.276 1.681-1.185 3.943-1.768 4.4-.14.11-.573 1.23-.961 2.49-.389 1.259-.943 2.429-1.233 2.6-.289.17-.743.977-1.008 1.792-.265.815-.917 1.895-1.449 2.4-.533.505-.971 1.227-.975 1.604-.004.378-.547 1.239-1.207 1.914-.66.675-1.2 1.425-1.2 1.665 0 .436-1.75 2.606-4.014 4.978-.652.684-1.186 1.372-1.186 1.529 0 .442-1.092 1.428-1.581 1.428-.241 0-.617.467-.834 1.039-.217.571-.73 1.126-1.14 1.233-.41.108-.979.63-1.263 1.162-.284.531-.666.966-.849.966-.182 0-.999.63-1.815 1.4-.817.77-1.61 1.4-1.763 1.4-.154 0-1.033.63-1.955 1.4-.922.77-1.916 1.4-2.209 1.4-.293 0-.887.45-1.32 1-.432.55-.988 1-1.234 1-.531 0-1.919.748-3.037 1.635-.44.35-1.43.883-2.2 1.186-.77.302-1.987.946-2.705 1.43s-2.053 1.007-2.967 1.161c-.914.155-2.008.604-2.433 1-.425.396-1.951.925-3.393 1.176-1.441.251-3.269.786-4.061 1.189-4.742 2.412-30.921 2.405-35.638-.009-.772-.395-2.573-.924-4.003-1.175-1.43-.251-2.96-.787-3.4-1.192-.44-.405-1.52-.865-2.4-1.022-1.782-.318-3.8-1.23-3.8-1.716 0-.174-.99-.629-2.2-1.01-1.21-.382-2.2-.871-2.2-1.088 0-.216-.768-.722-1.706-1.125-.938-.402-1.934-1.006-2.213-1.342-.279-.337-1.055-.839-1.725-1.116-1.139-.472-2.268-1.359-4.81-3.779-.58-.551-1.183-1.003-1.341-1.003-.158 0-1.44-1.17-2.849-2.6-1.409-1.43-2.721-2.6-2.916-2.6-.194 0-.466-.45-.604-1-.138-.55-.513-1-.833-1-.321 0-.859-.535-1.197-1.188-.338-.654-.948-1.367-1.355-1.585-.408-.218-.968-.943-1.245-1.612-.277-.668-.724-1.215-.994-1.215s-.825-.765-1.234-1.7c-.41-.935-1.139-2.112-1.622-2.615-.482-.503-.996-1.391-1.142-1.973-.146-.582-.704-1.579-1.24-2.216-.536-.636-.974-1.469-.974-1.849 0-.38-.433-1.279-.963-1.997-.53-.718-1.276-2.463-1.659-3.878-.383-1.414-.831-2.572-.995-2.572-.454 0-.806-1.111-1.397-4.4-.296-1.65-.898-3.994-1.336-5.209-1.694-4.691-1.521-25.666.244-29.591.446-.99.938-2.88 1.096-4.2.157-1.32.708-3.21 1.224-4.2.516-.99 1.152-2.654 1.414-3.698.261-1.044.811-2.285 1.221-2.758.41-.473.913-1.467 1.118-2.208.204-.741.836-1.899 1.402-2.573.567-.673 1.031-1.558 1.031-1.965 0-.407.405-1.068.9-1.469s1.193-1.364 1.551-2.14c.679-1.471 1.82-2.982 3.593-4.759.574-.575 1.168-1.438 1.32-1.918.152-.479.638-.986 1.079-1.126.442-.14.975-.706 1.185-1.259.21-.552.697-1.087 1.082-1.188.385-.1 1.005-.713 1.377-1.361.372-.648.924-1.178 1.227-1.178.303 0 .794-.455 1.092-1.011.297-.556.951-1.114 1.453-1.24.502-.125 1.018-.561 1.147-.968.129-.407.613-.86 1.075-1.007.462-.146 1.308-.707 1.88-1.245 1.776-1.672 5.386-4.129 6.066-4.129.357 0 .969-.354 1.36-.786.391-.432 1.544-1.098 2.562-1.479 1.018-.382 2.301-1.007 2.851-1.39.55-.383 1.791-.901 2.758-1.152.967-.25 2.227-.795 2.8-1.21.573-.416 2.272-.948 3.776-1.182 1.504-.235 3.13-.687 3.614-1.004 1.001-.656 4.929-1.281 11.052-1.758 6.215-.485 6.785-.479 14.4.148m89.319-.161c1.001.278 1.642.744 1.878 1.366.197.519.604 1.093.904 1.276.3.182.79.962 1.087 1.732.298.77.869 1.768 1.269 2.217.4.45.941 1.44 1.203 2.2.263.761.801 1.615 1.197 1.898.396.283.905 1.201 1.131 2.041.226.839.855 2.005 1.397 2.59s1.201 1.782 1.464 2.659c.263.877.639 1.595.837 1.595.197 0 .73.855 1.184 1.9.454 1.045 1.148 2.26 1.542 2.7.394.44.922 1.576 1.174 2.524.68 2.561 2.641 2.369 3.582-.352.348-1.005 1.025-2.319 1.504-2.919.48-.6.989-1.622 1.132-2.271.143-.65.594-1.415 1.002-1.701.408-.286 1.009-1.294 1.335-2.24.326-.945.953-1.972 1.394-2.28.441-.309.921-1.106 1.067-1.771.146-.665.676-1.7 1.177-2.3.501-.599 1.049-1.54 1.217-2.09.168-.55.822-1.71 1.454-2.579.633-.868 1.15-1.852 1.15-2.186 0-.334.362-.973.804-1.421a22.772 22.772 0 0 0 1.565-1.814l.76-1h23.292c21.222 0 23.329.059 23.709.661.624.989-.45 5.068-1.52 5.769-.463.304-1.083 1.231-1.376 2.061-.293.83-.78 1.793-1.082 2.14-.544.623-1.737 2.756-3.63 6.492-.536 1.057-1.215 2.015-1.509 2.127-.294.113-.654.843-.8 1.621-.146.779-.669 1.801-1.162 2.272-.492.472-1.221 1.725-1.618 2.787-.397 1.061-.963 2.022-1.258 2.135-.295.113-.747.865-1.004 1.67-.257.806-.877 1.915-1.377 2.465-.5.55-1.033 1.586-1.184 2.303-.151.717-.589 1.472-.972 1.677-.384.205-.909 1.079-1.167 1.941-.259.863-.895 1.999-1.413 2.524-.519.525-1.156 1.608-1.416 2.407-.26.798-.809 1.756-1.221 2.129-.412.373-.869 1.154-1.015 1.736-.146.581-.792 1.774-1.435 2.649-.644.875-1.171 1.885-1.171 2.243 0 .358-.423 1.049-.941 1.535-.517.486-1.18 1.61-1.473 2.499-.293.888-.832 1.827-1.198 2.086-.366.259-.895 1.191-1.176 2.071-.281.88-.831 1.96-1.223 2.4-.392.44-1.006 1.513-1.365 2.384s-1.007 1.913-1.439 2.316c-.432.402-.785 1.059-.785 1.461 0 .401-.556 1.429-1.236 2.284-1.418 1.784-1.411 3.858.015 4.945.44.336 1.008 1.211 1.262 1.945s.888 1.795 1.41 2.358c.522.563.949 1.379.949 1.813 0 .433.54 1.403 1.2 2.155.66.752 1.2 1.707 1.2 2.122 0 .416.416 1.264.926 1.886.509.622 1.253 1.84 1.654 2.706.401.866 1.049 1.919 1.441 2.34.392.42.828 1.227.97 1.793.142.566.613 1.479 1.046 2.029.432.551 1.131 1.78 1.552 2.732.421.952.921 1.731 1.109 1.731.189 0 .662.886 1.052 1.968.389 1.083.945 2.059 1.234 2.171.29.111.854 1.07 1.254 2.131.399 1.062 1.035 2.155 1.412 2.43.378.276.803 1.032.946 1.682.143.649.652 1.672 1.132 2.272.923 1.155 1.966 3.002 3.641 6.446.561 1.155 1.188 2.1 1.393 2.1.204 0 .692.855 1.083 1.9.39 1.045 1.125 2.296 1.633 2.781.507.484.922 1.236.922 1.669 0 .434.438 1.309.974 1.946s1.275 1.91 1.643 2.831c.369.92.797 1.673.952 1.673.359 0 1.631 2.642 1.631 3.387 0 .307.348.67.774.805.908.288 2.147 3.628 1.954 5.269-.186 1.578.159 1.559-24.874 1.339l-22.746-.2-1.317-1.523c-.724-.838-1.435-1.996-1.579-2.573-.145-.578-.687-1.553-1.204-2.168-.517-.614-1.062-1.67-1.21-2.345-.149-.676-.614-1.444-1.034-1.706-.42-.262-1.048-1.334-1.396-2.381-.348-1.047-.808-1.904-1.023-1.904-.214 0-.766-.855-1.225-1.9-.459-1.045-1.258-2.409-1.777-3.031-.519-.622-.943-1.463-.943-1.869 0-.406-.43-1.25-.955-1.874-.526-.625-1.179-1.881-1.452-2.793-.847-2.824-2.962-2.731-3.805.167-.342 1.176-.875 2.235-1.185 2.354-.311.119-.775.876-1.033 1.681-.258.806-.785 1.825-1.171 2.265-.387.44-1.075 1.655-1.529 2.7-.454 1.045-1.001 1.9-1.215 1.9-.215 0-.69.902-1.056 2.004-.366 1.102-.987 2.176-1.38 2.386-.392.21-.83.966-.973 1.681-.143.715-.685 1.757-1.205 2.315-.519.557-1.153 1.644-1.409 2.414-.255.77-1.003 2.03-1.66 2.8l-1.197 1.4-22.887.2c-12.589.11-23.326.1-23.862-.022-1.482-.337-1.902-2.068-.857-3.534.457-.642.831-1.451.831-1.797 0-.345.45-.923 1-1.284.55-.36 1-.913 1-1.229 0-.803 1.204-3.073 1.823-3.436.283-.167.631-.832.773-1.48.142-.647.774-1.825 1.404-2.618.63-.793 1.262-1.972 1.405-2.621.142-.648.434-1.179.649-1.179.214 0 .83-.996 1.369-2.213.538-1.217 1.243-2.314 1.567-2.438.323-.125.702-.833.841-1.575.139-.741.702-1.833 1.251-2.425.55-.593 1.238-1.756 1.531-2.586.293-.829.905-1.881 1.36-2.336.455-.455.827-1.162.827-1.572 0-.41.53-1.412 1.178-2.227.648-.816 1.377-2.084 1.619-2.82.243-.735.672-1.426.953-1.533.281-.108.843-1.069 1.247-2.136.405-1.066 1.052-2.164 1.438-2.439.386-.276.821-1.045.967-1.71.146-.665.676-1.7 1.177-2.3.501-.599 1.049-1.528 1.216-2.062.168-.535.822-1.687 1.455-2.56.632-.874 1.15-1.84 1.15-2.147 0-.308.414-.956.919-1.44.506-.485 1.167-1.655 1.471-2.601.303-.945.772-1.845 1.043-2 .27-.154.964-1.315 1.541-2.58.577-1.265 1.221-2.3 1.43-2.3.209 0 .497-.495.64-1.1.142-.605.722-1.597 1.288-2.205 1.314-1.413 1.382-3.496.156-4.801-.48-.511-1.078-1.52-1.33-2.243-.252-.724-.886-1.743-1.408-2.265-.523-.522-.95-1.293-.95-1.713 0-.42-.53-1.43-1.178-2.245-.648-.816-1.377-2.084-1.619-2.82-.243-.735-.685-1.431-.982-1.545-.297-.114-.76-.895-1.029-1.735-.269-.84-.894-1.978-1.389-2.528s-1.018-1.501-1.162-2.113c-.145-.613-.616-1.416-1.048-1.786-.432-.37-1.067-1.518-1.41-2.552-.343-1.033-.865-1.972-1.159-2.085-.294-.112-.862-1.073-1.262-2.134-.399-1.062-1.035-2.155-1.412-2.43-.378-.276-.802-1.026-.943-1.667-.14-.641-.703-1.675-1.25-2.299-.546-.624-1.099-1.635-1.228-2.248-.129-.613-.541-1.333-.915-1.6-.375-.267-1.012-1.359-1.417-2.425-.404-1.067-.966-2.028-1.247-2.135-.281-.108-.819-1.036-1.196-2.061-.377-1.026-1.083-2.315-1.568-2.865-.486-.55-.991-1.45-1.124-2-.133-.55-.696-1.523-1.252-2.162-.555-.639-1.01-1.485-1.01-1.88 0-.394-.451-1.203-1.002-1.798-.551-.595-1.213-1.785-1.471-2.644-.257-.86-.79-1.736-1.183-1.946-.394-.211-.942-1.145-1.219-2.077-.277-.931-.821-1.963-1.21-2.293-1.039-.882-2.69-4.391-2.422-5.147.599-1.691.058-1.653 23.256-1.651 14.368.002 22.789.152 23.77.424M188.891 61.022c-2.525.714-4.958 2.947-5.702 5.232-.276.85-.747 1.901-1.046 2.335-.627.912-.826 64.389-.202 64.774.187.116.665 1.072 1.061 2.124.817 2.171 3.394 4.829 5.195 5.36 3.41 1.005 9.81.161 11.087-1.462.405-.516 1.07-1.044 1.478-1.173.451-.143.934-.925 1.236-2.003.272-.973.834-2.076 1.248-2.451.848-.767 1.219-64.558.375-64.558-.208 0-.781-1.106-1.274-2.457-.526-1.442-1.175-2.53-1.572-2.634-.372-.097-.904-.603-1.183-1.125-1.039-1.94-6.948-3.024-10.701-1.962M30.892 212.735c-.407.258-.508 14.172-.509 70.293L30.382 353l1.309.2c.72.11 17.239.1 36.709-.023l35.4-.223 2.6-1.036c1.43-.57 3.637-1.165 4.906-1.324 1.268-.158 2.708-.596 3.2-.974.491-.377 1.884-1.002 3.094-1.388 1.21-.386 2.56-1.032 3-1.437.44-.405 1.299-.86 1.909-1.011.61-.151 1.33-.584 1.6-.962.27-.377 1.023-1.032 1.674-1.454 1.565-1.016 5.817-5.406 5.817-6.005 0-.259.428-.751.951-1.094.523-.343 1.075-1.117 1.226-1.722.152-.604.644-1.614 1.093-2.245.449-.631 1.158-2.515 1.576-4.187.418-1.672.949-3.268 1.18-3.547 1.46-1.758 1.299-18.033-.215-21.797-.494-1.225-1.118-3.152-1.389-4.28-.271-1.128-.749-2.264-1.062-2.524-.313-.26-.917-1.259-1.342-2.22-.425-.961-.934-1.747-1.131-1.747-.197 0-.696-.694-1.108-1.542-.413-.848-1.252-1.829-1.865-2.181-.613-.352-1.116-.873-1.119-1.158-.002-.286-.719-.861-1.593-1.28-.874-.419-1.89-1.094-2.259-1.502-.368-.407-1.353-.924-2.189-1.149-3.911-1.053-3.83-4.827.125-5.799.593-.146 1.354-.684 1.689-1.197.336-.512.966-1.044 1.401-1.182.434-.138.905-.612 1.045-1.053.14-.442.689-.968 1.22-1.17.531-.202.966-.612.966-.911 0-.299.54-1.025 1.2-1.613.66-.588 1.2-1.313 1.2-1.61 0-.298.477-1.241 1.06-2.097.584-.856 1.376-2.726 1.76-4.156.385-1.43.98-3.32 1.322-4.2 1.216-3.124.908-14.534-.509-18.847-.642-1.954-1.292-4.228-1.444-5.053-.153-.825-.444-1.5-.648-1.5-.203 0-.735-.855-1.181-1.9-.446-1.045-1.23-2.35-1.741-2.9-.511-.55-1.049-1.396-1.195-1.88-.145-.483-.626-.994-1.067-1.134-.442-.14-.969-.692-1.173-1.227-.203-.536-.812-1.142-1.353-1.347-.54-.206-1.173-.73-1.406-1.166-.233-.435-.825-.919-1.315-1.075-.49-.155-1.771-.887-2.846-1.627-1.074-.739-2.269-1.344-2.655-1.344-.386 0-1.142-.347-1.681-.77-.538-.424-2.408-1.043-4.154-1.376-1.745-.333-3.872-.898-4.725-1.256-2.944-1.236-73.516-2.232-75.357-1.063m120.008-.053-.9.174v139.851l.9.241c1.181.316 94.443.325 95.267.009.562-.215.633-1.926.633-15.153v-14.911l-.9-.241c-.495-.133-13.59-.249-29.1-.259-22.808-.015-28.334-.12-28.9-.55-1.095-.831-1.069-23.385.028-24.378.656-.593 3.079-.669 24.5-.762l23.772-.103.112-13.2c.061-7.26.014-13.601-.106-14.091l-.217-.891-23.777-.109c-23.244-.107-23.791-.127-24.382-.909-1.143-1.512-.9-22.766.27-23.585.798-.559 4.06-.627 29.127-.607 15.525.013 28.53-.093 28.9-.235 1.119-.43 1.021-29.559-.101-30.159-.753-.403-93.052-.531-95.126-.132m110.653.121c-.455.265-.73 1.244-.924 3.287-.151 1.601-.431 3.54-.622 4.31-.556 2.249-1.329 22.038-.878 22.489.243.243 7.006.368 17.987.332l17.596-.058 1.144.984 1.144.984.108 51.934c.059 28.742-.049 52.677-.244 53.597-.321 1.523-.272 1.697.593 2.091 1.148.523 33.042.655 33.962.14.542-.303.607-6.299.588-53.786l-.021-53.446.972-1.131.973-1.13 17.749-.08c9.763-.044 18.013-.181 18.335-.304.599-.23.768-29.273.176-30.231-.321-.519-107.75-.501-108.638.018M91.555 239.7c1.165.605 2.342 1.1 2.616 1.1.273 0 .978.54 1.566 1.2.588.66 1.257 1.2 1.486 1.2.23 0 .68.585 1.001 1.3.321.715.986 1.807 1.478 2.427 1.5 1.89 1.421 14.673-.09 14.673-.182 0-.719.744-1.193 1.653-.878 1.685-2.268 3.11-3.057 3.134-.241.007-.763.372-1.16.811-2.366 2.614-24.243 4.025-27.274 1.758l-1.128-.843v-28.184l.973-.788c.923-.747 1.526-.781 11.818-.664l10.846.123 2.118 1.1m.224 54.578c1.748.467 3.388 1.136 3.644 1.486.256.35.678.636.938.636.669 0 4.439 3.6 4.439 4.239 0 .291.336.852.747 1.245 2.527 2.421 2.532 15.273.007 17.558-.415.375-.754.879-.755 1.12 0 .667-3.673 4.098-4.738 4.427-.517.159-1.267.617-1.668 1.018-1.257 1.257-23.504 2.146-27.275 1.09-1.529-.428-1.565-.861-1.433-17.481l.115-14.584 1.378-.929c1.974-1.33 19.433-1.206 24.601.175" fill="#052954"/><path d="M0 188.2c0 162.344.078 188.2.568 188.2.313 0 .682.517.821 1.148.272 1.242 1.679 1.652 5.667 1.652 1.569 0 1.744.095 1.744.95 0 1.114 1.123 1.45 4.85 1.45 2.207 0 2.35.058 2.35.95 0 1.114 1.123 1.45 4.85 1.45 2.212 0 2.35.056 2.35.957 0 1.229.62 1.443 4.183 1.443H30.3l.24 1.2.24 1.2H38v2.4h7.2v2.4h7.147l.126 1.1c.126 1.095.143 1.101 3.58 1.215l3.453.115.237 1.185c.231 1.156.296 1.185 2.647 1.185 1.658 0 2.412.156 2.416.5.017 1.339.796 1.702 4.075 1.9 2.911.176 3.329.297 3.461 1 .224 1.191.776 1.387 3.919 1.394 2.784.006 2.871.037 3.258 1.147.437 1.251 1.72 1.646 5.381 1.655 1.732.004 1.9.088 1.9.954 0 1.114 1.123 1.45 4.85 1.45 2.209 0 2.35.057 2.35.953 0 1.171.822 1.434 4.5 1.442 2.331.004 2.7.103 2.7.725 0 1.323.86 1.68 4.048 1.68h3.088l.264 1.2.264 1.2H116v2.4h7.147l.126 1.1c.126 1.096.141 1.1 3.602 1.215 3.449.115 3.476.124 3.6 1.2.125 1.083.131 1.085 3.825 1.2l3.7.115v1.185c0 1.18.01 1.185 2.373 1.185 2.111 0 2.404.099 2.654.9.415 1.329.867 1.487 4.273 1.494 2.716.005 3.1.095 3.1.726 0 1.324.86 1.68 4.053 1.68 3.076 0 3.095.006 3.22 1.098.146 1.263 1.064 1.577 4.827 1.655 2.139.044 2.3.113 2.3.995 0 1.072 1.295 1.44 5.1 1.448 1.819.003 2.1.109 2.1.79 0 1.165 1.216 1.614 4.374 1.614 2.455 0 2.826.095 2.826.72 0 1.345.854 1.68 4.28 1.68h3.32v2.4h3.6c2.933 0 3.6.111 3.6.6 0 .511 1.067.6 7.2.6 6.028 0 7.2-.095 7.2-.581 0-.433.636-.611 2.5-.7 2.387-.114 2.506-.168 2.625-1.204.124-1.076.151-1.085 3.6-1.2 3.449-.114 3.476-.123 3.6-1.2.124-1.076.151-1.085 3.6-1.2 3.449-.114 3.476-.123 3.6-1.2.124-1.076.151-1.085 3.6-1.2 3.461-.115 3.476-.119 3.602-1.215l.126-1.1h3.294c3.507 0 4.253-.327 4.253-1.864 0-.862.166-.91 3.5-1.02 3.488-.116 3.5-.12 3.627-1.216l.126-1.1h7.147v-2.4h7.136l.264-1.2.264-1.2h6.756l.24-1.2.24-1.2h3.07c3.169 0 4.03-.359 4.03-1.68 0-.629.377-.72 2.967-.72 3.614 0 4.233-.211 4.233-1.443 0-.891.149-.957 2.15-.957 3.372 0 4.627-.367 4.894-1.433.208-.831.499-.944 2.695-1.049 2.345-.112 2.467-.169 2.586-1.203.124-1.076.151-1.085 3.6-1.2 3.461-.115 3.476-.119 3.602-1.215l.126-1.1h3.294c3.398 0 4.253-.338 4.253-1.68 0-.632.382-.72 3.12-.72 3.335 0 4.08-.343 4.08-1.88 0-.892.11-.92 3.6-.92h3.6v-2.4h7.2v-2.4h7.136l.264-1.2.264-1.2h6.756l.24-1.2.24-1.2h3.07c3.169 0 4.03-.359 4.03-1.68 0-.629.377-.72 2.967-.72 3.614 0 4.233-.211 4.233-1.443 0-.903.141-.959 2.5-.997 3.361-.053 4.473-.404 4.625-1.458.111-.765.413-.879 2.6-.984 2.36-.112 2.481-.168 2.6-1.203.124-1.076.151-1.085 3.6-1.2 3.461-.115 3.476-.119 3.602-1.215l.126-1.1h3.294c3.398 0 4.253-.338 4.253-1.68 0-.629.377-.72 2.967-.72 3.737 0 4.233-.193 4.233-1.643 0-.762.205-1.157.6-1.157.532 0 .6-21.178.6-188.2V0H0v188.2M390.5 10.837c1.291 1.571.635 354.889-.662 356.321-.419.463-1.098.842-1.509.842-.41 0-2.358.63-4.329 1.4-1.971.77-3.909 1.4-4.307 1.4-.398 0-1.437.368-2.308.819-.872.45-2.575 1.065-3.785 1.365-1.21.301-3.1.904-4.2 1.342-2.29.91-6.031 2.176-9.8 3.317-1.43.433-3.05 1.034-3.6 1.335-.55.302-2.17.848-3.6 1.215-1.43.366-3.162.993-3.849 1.392-.686.4-2.036.856-3 1.013-.963.157-2.561.685-3.551 1.174-.99.488-2.7 1.103-3.8 1.365-1.1.262-2.81.817-3.8 1.233-1.85.779-4.751 1.774-10 3.431-1.65.521-3.9 1.296-5 1.722-2.223.862-5.769 2.084-10 3.448-1.54.496-3.43 1.18-4.2 1.52-.77.34-2.023.751-2.784.914-.761.162-2.201.657-3.2 1.099-.999.442-2.716 1.033-3.816 1.315-1.1.281-2.9.869-4 1.306-2.32.923-6.02 2.188-10 3.419-1.54.476-3.026 1.01-3.301 1.185-.276.176-2.054.77-3.952 1.32-1.898.55-3.832 1.246-4.299 1.546-.466.3-1.568.675-2.448.833-.88.158-2.5.695-3.6 1.194s-3.17 1.209-4.6 1.578c-1.43.369-2.806.841-3.057 1.049-.252.208-1.602.718-3 1.135-3.233.962-7.18 2.298-9.743 3.298-1.1.43-3.26 1.137-4.8 1.571-1.54.434-3.52 1.132-4.4 1.55-.88.417-2.466.951-3.525 1.185-1.059.235-2.319.669-2.8.965-.481.296-2.045.853-3.475 1.239-1.43.385-3.23 1.015-4 1.4s-2.112.829-2.981.987c-.87.158-2.22.612-3 1.008-.781.397-2.548 1.009-3.928 1.361-1.379.352-3.291.996-4.248 1.432-3.876 1.766-7.558 1.782-11.164.048-.923-.444-2.81-1.089-4.193-1.432-1.382-.344-3.092-.95-3.8-1.347-.707-.398-2.006-.845-2.886-.994-.88-.149-2.59-.692-3.8-1.205-2.651-1.125-6.411-2.425-10.2-3.526-1.54-.447-2.984-.962-3.21-1.143-.519-.418-3.56-1.423-5.39-1.783-.77-.152-1.961-.598-2.648-.992-.686-.395-2.177-.917-3.313-1.16-1.136-.244-2.734-.775-3.552-1.181-.818-.406-2.657-1.056-4.087-1.445-1.43-.388-2.78-.847-3-1.02-.22-.172-1.761-.693-3.424-1.156-1.663-.464-3.733-1.18-4.6-1.591-.867-.412-2.223-.865-3.015-1.007-.791-.143-2.167-.611-3.057-1.041-.89-.431-2.463-.972-3.496-1.203-1.032-.231-2.536-.756-3.342-1.165-.806-.41-2.623-1.04-4.037-1.401-1.414-.361-2.786-.834-3.048-1.052-.263-.218-1.806-.746-3.43-1.174-1.623-.427-3.674-1.128-4.558-1.558-.884-.429-2.324-.911-3.2-1.071-.876-.159-2.288-.639-3.138-1.066-.849-.427-2.787-1.103-4.305-1.502-1.519-.398-2.991-.915-3.272-1.148-.281-.233-1.403-.622-2.494-.863-1.091-.242-2.704-.768-3.584-1.169-2.219-1.01-3.762-1.538-5.4-1.847-.77-.145-1.961-.586-2.648-.98-.686-.395-2.177-.917-3.313-1.16-1.136-.244-2.734-.775-3.552-1.181-.818-.406-2.657-1.056-4.087-1.445-1.43-.388-2.78-.847-3-1.02-.22-.173-1.57-.637-3-1.031-1.43-.394-3.5-1.108-4.6-1.586-1.1-.478-2.72-.998-3.6-1.156-.88-.157-2.168-.616-2.861-1.02-.694-.404-2.227-.935-3.407-1.18-1.18-.244-2.682-.729-3.338-1.077-.657-.348-2.544-1.052-4.194-1.566-5.338-1.661-8.154-2.626-10.473-3.592-1.25-.52-2.96-1.07-3.8-1.223-.84-.152-2.157-.592-2.927-.977s-2.568-.998-3.995-1.362c-1.427-.364-2.957-.895-3.4-1.18-.443-.285-1.934-.853-3.314-1.263-1.38-.409-2.778-1.042-3.108-1.406-.527-.582-.61-11.177-.694-88.821-.053-48.488-.143-128.14-.201-177.005-.058-48.864.015-89.159.163-89.544.637-1.659-4.908-1.615 190.992-1.518l188.557.093.7.851M30.014 30.374c-.797 1.489-.553 141.412.247 142.077.993.824 41.299.812 42.293-.013.622-.516.673-2.355.625-22.779-.048-20.881-.008-22.248.661-22.738.561-.41 4.641-.521 19.187-.521 15.451 0 18.552-.093 18.945-.567.343-.412.492-5.504.549-18.739l.079-18.174-.903-.681c-.824-.621-2.514-.675-19.136-.61-16.108.062-18.306-.003-18.862-.558-.9-.9-.906-17.235-.007-18.134.499-.499 3.955-.579 23.788-.55 20.432.03 23.266-.04 23.716-.582.569-.686.261-10.849-.431-14.205-.205-.99-.63-6.643-.945-12.562-.422-7.918-.712-10.85-1.097-11.094-1.292-.82-88.266-.398-88.709.43m153.504-.383c-1.475.187-2.849.443-3.054.569-.204.127-2.309.604-4.677 1.061-2.368.457-5.044 1.16-5.946 1.562-.903.402-2.631 1.037-3.841 1.41-1.21.374-2.47.917-2.8 1.207-.33.29-1.545.835-2.7 1.21-1.155.375-2.1.819-2.1.987 0 .167-.872.68-1.938 1.138-1.066.459-2.177 1.121-2.468 1.473-.292.351-1.085.894-1.762 1.207-.678.313-2.312 1.474-3.632 2.579-1.32 1.106-2.67 2.134-3 2.284-.769.352-8.4 8.046-8.4 8.47 0 .176-.54.801-1.2 1.389-.66.588-1.2 1.264-1.2 1.503 0 .238-.63 1.169-1.4 2.068-.77.9-1.4 1.842-1.4 2.094 0 .252-.435.867-.966 1.366-.532.499-1.086 1.386-1.231 1.97-.146.584-.672 1.602-1.169 2.262-.497.66-1.202 2.085-1.567 3.167-.365 1.082-.928 2.258-1.25 2.614-.323.357-.848 1.722-1.167 3.034-.319 1.312-.939 3.285-1.377 4.385-3.805 9.558-3.672 32.24.243 41.412.42.984.894 2.492 1.054 3.352.16.86.817 2.551 1.46 3.756.644 1.206 1.17 2.402 1.17 2.658 0 .255.517 1.175 1.15 2.043.632.869 1.286 2.029 1.454 2.579.168.55.731 1.509 1.251 2.131.52.622.945 1.271.945 1.443 0 .173.628 1.104 1.396 2.07.768.966 1.398 1.909 1.4 2.096.002.186.499.849 1.104 1.472.605.623 1.64 1.767 2.3 2.541 1.243 1.46 3.768 3.967 6.091 6.047.737.66 1.867 1.695 2.511 2.3.644.605 1.267 1.1 1.383 1.1.187 0 3.82 2.547 5.996 4.205.43.327.976.595 1.214.595s1.41.63 2.605 1.4c1.195.77 2.452 1.4 2.794 1.4.341 0 1.247.426 2.013.946.766.521 2.023 1.08 2.793 1.243.77.163 2.225.705 3.234 1.204 1.008.499 3.528 1.227 5.6 1.618 2.071.392 3.946.847 4.166 1.013.401.303 5.397.935 11 1.392 3.55.289 14.663-.758 17-1.603.88-.318 1.996-.586 2.48-.595 1.336-.027 4.923-1.06 6.72-1.935.88-.428 2.257-.897 3.059-1.041.803-.145 1.883-.585 2.4-.978.518-.393 1.794-1.032 2.837-1.421 1.043-.388 2-.875 2.127-1.081.128-.206.892-.65 1.699-.987.807-.337 1.832-.956 2.278-1.375.446-.419 1.467-1.036 2.269-1.371.802-.335 1.519-.749 1.594-.919.076-.171 1.127-1.063 2.337-1.983 2.005-1.525 2.815-2.207 5.664-4.769 1.213-1.091 5.939-6.378 6.7-7.495.323-.475.825-1.008 1.115-1.184.289-.177.889-1.032 1.332-1.9.443-.869.968-1.579 1.166-1.579.199 0 .559-.601.801-1.335.243-.734.794-1.713 1.225-2.177.432-.463 1.091-1.617 1.465-2.565.374-.948 1.02-2.189 1.434-2.759.415-.571.929-1.813 1.142-2.76.213-.948.712-2.192 1.11-2.764.397-.572 1.099-2.57 1.558-4.44.46-1.87 1.124-4.39 1.476-5.6 1.998-6.856 1.624-25.915-.638-32.588-.445-1.313-.993-3.378-1.217-4.59-.224-1.211-.743-2.675-1.154-3.252-.412-.578-.918-1.808-1.127-2.735-.208-.927-.827-2.349-1.375-3.16-.548-.811-1.126-1.925-1.283-2.475-.157-.55-.604-1.36-.993-1.8-.389-.44-1.02-1.43-1.401-2.2-.381-.77-1.012-1.76-1.401-2.2-.389-.44-.83-1.205-.98-1.7-.15-.495-.435-.9-.633-.9-.199 0-1.063-.945-1.921-2.1C245.939 53.301 236.371 44 235.4 44c-.162 0-.877-.495-1.588-1.1-1.277-1.086-2.191-1.681-5.78-3.763-2.343-1.359-5.223-2.737-5.72-2.737-.212 0-.821-.343-1.354-.761-.532-.419-1.91-.983-3.063-1.255-1.152-.271-2.725-.809-3.495-1.195-.77-.387-3.02-1.003-5-1.369-1.98-.367-4.5-.943-5.6-1.281-2.354-.723-15.981-1.091-20.282-.548m60.998.053c-.578.578.07 2.543 1.348 4.087.515.622.936 1.298.936 1.503 0 .205.54 1.118 1.2 2.029.66.912 1.2 1.959 1.2 2.327 0 .369.423 1.068.941 1.554.517.486 1.175 1.595 1.462 2.464.287.869.847 1.875 1.244 2.235.398.359.936 1.307 1.196 2.105.26.799.897 1.961 1.415 2.583.518.622.942 1.325.942 1.562 0 .237.424.988.942 1.669.519.681 1.084 1.684 1.256 2.229.172.545.918 1.87 1.658 2.945.739 1.074 1.344 2.176 1.344 2.447 0 .271.439 1.003.975 1.627.536.624 1.09 1.597 1.231 2.162.141.565.5 1.298.797 1.628.587.652 2.611 4.201 3.607 6.326.342.729 1.155 2.061 1.806 2.96s1.184 1.863 1.184 2.143c0 .28.424 1.018.942 1.64.518.622 1.157 1.792 1.421 2.599.263.807.734 1.68 1.046 1.94.313.259 1.035 1.399 1.606 2.532 1.76 3.497 2.749 5.252 3.685 6.543.495.682.9 1.424.9 1.648 0 .224.43.919.955 1.543 1.847 2.195 2.282 7.726.607 7.726-.224 0-.752.779-1.173 1.731-.421.952-1.111 2.17-1.533 2.707-.422.536-1.063 1.602-1.424 2.369-.361.766-1.365 2.563-2.232 3.993-.867 1.43-1.872 3.228-2.234 3.997-.361.768-1.087 1.907-1.612 2.53-.525.624-.954 1.419-.954 1.766s-.453 1.225-1.006 1.951c-.554.726-1.377 2.093-1.83 3.038-1.283 2.677-2.674 5.153-3.297 5.867-.313.358-.94 1.506-1.395 2.551-.455 1.045-1 1.9-1.212 1.9-.212 0-.671.84-1.021 1.867-.35 1.027-.952 2.215-1.337 2.64-.691.762-1.18 1.62-3.449 6.052-.631 1.233-1.292 2.241-1.469 2.241-.177 0-.538.675-.801 1.5-.264.825-.886 1.95-1.383 2.5s-1.112 1.653-1.367 2.452c-.255.798-.81 1.765-1.233 2.148-.423.383-.978 1.35-1.233 2.148-.255.799-.855 1.902-1.333 2.452s-1.173 1.675-1.545 2.5c-.372.825-.829 1.5-1.015 1.5-.672 0-1.193 2.622-.665 3.345.455.622 2.236.666 22.559.565l22.065-.11 1.368-1.6c.753-.88 1.582-2.23 1.842-3s.897-1.909 1.415-2.531c.518-.622.943-1.342.944-1.6.001-.258.549-1.279 1.218-2.269.669-.99 1.484-2.34 1.812-3 1.088-2.19 2.357-4.395 3.241-5.63.481-.67.987-1.67 1.126-2.222.138-.552.69-1.514 1.226-2.138.536-.624.976-1.421.976-1.772.009-3.818 4.467-4.326 5.604-.638.272.88.802 1.96 1.18 2.4.377.44.928 1.43 1.223 2.2.296.77.955 1.909 1.465 2.531.51.622 1.041 1.612 1.18 2.2.138.588.568 1.429.954 1.869.387.44 1.107 1.61 1.602 2.6.494.99 1.047 1.896 1.229 2.014.182.118.628.928.991 1.8.364.872.78 1.676.925 1.786.531.401 1.646 2.387 1.646 2.93 0 .306.735 1.393 1.634 2.414l1.634 1.856h21.917c24.087 0 23.163.097 22.619-2.383-.147-.669-.587-1.441-.978-1.717-.391-.275-.839-.905-.995-1.4-.157-.495-.903-1.818-1.658-2.94-.755-1.122-1.373-2.236-1.373-2.474 0-.239-.331-.806-.735-1.26-.405-.454-.974-1.456-1.265-2.226-.291-.77-.833-1.76-1.204-2.2-.372-.44-1.078-1.655-1.571-2.7-.493-1.045-1.046-1.9-1.229-1.9-.183 0-.452-.544-.598-1.21-.146-.665-.703-1.729-1.237-2.364-.535-.635-1.26-1.846-1.611-2.69-.352-.845-.759-1.626-.904-1.736-.534-.404-1.646-2.388-1.646-2.937 0-.311-.252-.775-.561-1.031-.309-.256-1.008-1.408-1.553-2.561-.546-1.152-1.284-2.337-1.639-2.632-.356-.295-.647-.789-.647-1.098 0-.308-.63-1.476-1.4-2.596-.77-1.119-1.4-2.253-1.4-2.519s-.535-1.191-1.189-2.055c-.654-.864-1.194-1.861-1.2-2.216-.006-.355-.551-1.324-1.211-2.155-.66-.831-1.2-1.741-1.2-2.024 0-.283-.417-1.023-.927-1.645-.51-.622-1.173-1.761-1.473-2.531-.3-.77-.948-1.891-1.439-2.49-.491-.6-1.013-1.635-1.159-2.3-.146-.666-.415-1.21-.598-1.21s-.736-.855-1.229-1.9c-.493-1.045-1.223-2.265-1.622-2.711-2.191-2.449-2.095-5.283.284-8.401.529-.695.963-1.489.963-1.764 0-.275.405-1.059.9-1.741.883-1.218 1.722-2.693 3.572-6.283.511-.99 1.309-2.34 1.776-3 .466-.66.966-1.583 1.111-2.051.145-.468.708-1.368 1.252-2 .543-.632.988-1.44.989-1.795 0-.355.405-1.155.9-1.778.875-1.1 2.109-3.295 3.924-6.976.487-.99 1.118-1.936 1.401-2.103.283-.167.731-.977.994-1.8.264-.823.8-1.857 1.192-2.297.392-.44 1.008-1.518 1.37-2.395.361-.877.979-1.957 1.373-2.4.394-.443.953-1.435 1.243-2.205.29-.77.767-1.598 1.061-1.841.293-.243.823-1.143 1.176-2 .354-.857.965-1.919 1.358-2.359.394-.44.848-1.25 1.008-1.8.161-.55.684-1.54 1.162-2.2.478-.66 1.205-1.965 1.614-2.9.41-.935.879-1.7 1.041-1.7.163 0 .593-.741.955-1.647.363-.906 1.102-2.228 1.644-2.938.541-.71.984-1.485.984-1.722 0-.237.445-.96.989-1.607 1.352-1.606 1.874-3.063 1.302-3.635-.684-.684-44.504-.636-45.08.049-1.418 1.686-2.811 3.665-2.811 3.993 0 .211-.405.944-.9 1.63-.898 1.243-2.243 3.669-3.924 7.077-.489.99-1.058 1.865-1.265 1.944-.208.08-.735.98-1.171 2-.437 1.021-1.118 2.216-1.514 2.656-.397.44-.839 1.3-.984 1.91-.144.611-.63 1.478-1.08 1.928-.449.449-1.059 1.623-1.356 2.608-1.271 4.222-5.806 3.954-5.806-.344 0-.318-.439-1.088-.975-1.712-.536-.624-1.088-1.585-1.226-2.135-.138-.551-.689-1.522-1.225-2.159-.536-.636-.974-1.342-.974-1.569 0-.226-.523-1.185-1.161-2.131-.639-.947-1.293-2.143-1.455-2.658-.161-.516-.719-1.447-1.239-2.069-.52-.622-1.058-1.612-1.197-2.2-.138-.588-.657-1.519-1.153-2.069s-1.272-1.855-1.726-2.9c-.453-1.045-1.014-1.9-1.247-1.9-.232 0-.422-.242-.422-.538 0-1.857-.058-1.862-23.451-1.862-15.576 0-22.118.129-22.433.444M197.449 59.72c2.083 1.269 5.281 4.231 5.577 5.163.14.44.686 1.436 1.214 2.214l.96 1.415v32.357c0 34.941.121 32.837-2.097 36.367-1.281 2.036-3.831 4.165-5.703 4.76-.88.279-1.849.707-2.153.949-.305.243-1.586.442-2.847.442s-2.542-.199-2.847-.442c-.304-.242-1.194-.647-1.977-.899-1.331-.428-4.776-3.225-4.776-3.877 0-.161-.458-.894-1.017-1.627-1.807-2.369-1.913-5.062-1.532-38.87.314-27.858.413-30.965.997-31.291.356-.199.888-.951 1.183-1.672.63-1.54 3.201-4.143 4.476-4.532.491-.149 1.163-.505 1.493-.791 1.428-1.235 6.799-1.037 9.049.334" fill="#f9f9f9"/><path d="M11.603 10.256c-.596.25-1.204.77-1.352 1.155-.295.77-.365 180.081-.07 180.559.189.306 2.619.081 2.619-.242 0-.099-.186-.529-.414-.954-.282-.528-.409-28.431-.399-87.474.011-61.406-.111-87.154-.42-88.258-.409-1.46-.365-1.622.698-2.6L13.4 11.4l188 .2 188 .2v90.08c0 84.138.044 90.091.674 90.255.371.097.776-.088.9-.412.687-1.791.22-180.042-.474-180.886l-.7-.851-188.557-.093c-140.309-.069-188.834.024-189.64.363m18.132 18.217c-1.362.658-1.324-1.442-1.33 73.227-.005 70.57.001 71.106.795 71.9 1.055 1.055 42.798 1.274 44.224.232.75-.549.779-1.308.861-23.051.047-12.367.161-22.561.255-22.654.094-.094 8.341-.156 18.329-.139 18.64.031 20.281-.088 21.418-1.558.636-.822.732-37.273.101-38.452-1.04-1.943-1.576-1.995-20.35-1.97-18.227.025-19.618-.057-19.669-1.151-.229-4.918.055-14.204.45-14.68.407-.491 3.941-.577 23.63-.577 27.308 0 25.035.439 24.604-4.753-.139-1.676-.43-7.369-.646-12.651-.635-15.504-1.634-22.884-3.207-23.679-1.311-.662-88.099-.705-89.465-.044m155.865-.034c-6.123.477-10.051 1.102-11.052 1.758-.484.317-2.11.769-3.614 1.004-1.504.234-3.203.766-3.776 1.182-.573.415-1.833.96-2.8 1.21-.967.251-2.208.769-2.758 1.152-.55.383-1.833 1.008-2.851 1.39-1.018.381-2.171 1.047-2.562 1.479-.391.432-1.003.786-1.36.786-.68 0-4.29 2.457-6.066 4.129-.572.538-1.418 1.099-1.88 1.245-.462.147-.946.6-1.075 1.007-.129.407-.645.843-1.147.968-.502.126-1.156.684-1.453 1.24-.298.556-.789 1.011-1.092 1.011-.303 0-.855.53-1.227 1.178-.372.648-.992 1.261-1.377 1.361-.385.101-.872.636-1.082 1.188-.21.553-.743 1.119-1.185 1.259-.441.14-.927.647-1.079 1.126-.152.48-.746 1.343-1.32 1.918-1.773 1.777-2.914 3.288-3.593 4.759-.358.776-1.056 1.739-1.551 2.14-.495.401-.9 1.062-.9 1.469 0 .407-.464 1.292-1.031 1.965-.566.674-1.198 1.832-1.402 2.573-.205.741-.708 1.735-1.118 2.208-.41.473-.96 1.714-1.221 2.758-.262 1.044-.898 2.708-1.414 3.698-.516.99-1.067 2.88-1.224 4.2-.158 1.32-.65 3.21-1.096 4.2-1.765 3.925-1.938 24.9-.244 29.591.438 1.215 1.04 3.559 1.336 5.209.591 3.289.943 4.4 1.397 4.4.164 0 .612 1.158.995 2.572.383 1.415 1.129 3.16 1.659 3.878s.963 1.617.963 1.997c0 .38.438 1.213.974 1.849.536.637 1.094 1.634 1.24 2.216.146.582.66 1.47 1.142 1.973.483.503 1.212 1.68 1.622 2.615.409.935.964 1.7 1.234 1.7s.717.547.994 1.215c.277.669.837 1.394 1.245 1.612.407.218 1.017.931 1.355 1.585.338.653.876 1.188 1.197 1.188.32 0 .695.45.833 1s.41 1 .604 1c.195 0 1.507 1.17 2.916 2.6 1.409 1.43 2.691 2.6 2.849 2.6.158 0 .761.452 1.341 1.003 2.542 2.42 3.671 3.307 4.81 3.779.67.277 1.446.779 1.725 1.116.279.336 1.275.94 2.213 1.342.938.403 1.706.909 1.706 1.125 0 .217.99.706 2.2 1.088 1.21.381 2.2.836 2.2 1.01 0 .486 2.018 1.398 3.8 1.716.88.157 1.96.617 2.4 1.022.44.405 1.97.941 3.4 1.192s3.231.78 4.003 1.175c4.717 2.414 30.896 2.421 35.638.009.792-.403 2.62-.938 4.061-1.189 1.442-.251 2.968-.78 3.393-1.176.425-.396 1.519-.845 2.433-1 .914-.154 2.249-.677 2.967-1.161s1.935-1.128 2.705-1.43c.77-.303 1.76-.836 2.2-1.186 1.118-.887 2.506-1.635 3.037-1.635.246 0 .802-.45 1.234-1 .433-.55 1.027-1 1.32-1 .293 0 1.287-.63 2.209-1.4.922-.77 1.801-1.4 1.955-1.4.153 0 .946-.63 1.763-1.4.816-.77 1.633-1.4 1.815-1.4.183 0 .565-.435.849-.966.284-.532.853-1.054 1.263-1.162.41-.107.923-.662 1.14-1.233.217-.572.593-1.039.834-1.039.489 0 1.581-.986 1.581-1.428 0-.157.534-.845 1.186-1.529 2.264-2.372 4.014-4.542 4.014-4.978 0-.24.54-.99 1.2-1.665.66-.675 1.203-1.536 1.207-1.914.004-.377.442-1.099.975-1.604.532-.505 1.184-1.585 1.449-2.4.265-.815.719-1.622 1.008-1.792.29-.171.844-1.341 1.233-2.6.388-1.26.821-2.38.961-2.49.583-.457 1.492-2.719 1.768-4.4.163-.99.613-2.25 1-2.8.409-.582.901-2.496 1.176-4.58a126.94 126.94 0 0 1 1.249-7.344c1.046-5.086 1.039-12.26-.019-17.756-.436-2.266-.991-5.555-1.233-7.309-.41-2.96-.898-4.521-1.567-5.011-.15-.11-.485-1.28-.743-2.6-.259-1.32-.805-2.855-1.213-3.41-.408-.556-1.036-2.021-1.395-3.257-.359-1.235-.906-2.343-1.214-2.462-.309-.118-.781-.903-1.05-1.743-.269-.84-.897-1.978-1.395-2.528-.499-.55-1.042-1.443-1.206-1.985-.164-.541-.725-1.32-1.245-1.729-.52-.409-.949-.956-.954-1.215-.004-.259-.634-1.189-1.4-2.067-.765-.877-1.392-1.732-1.392-1.9 0-.167-1.08-1.384-2.4-2.704-1.32-1.32-2.4-2.503-2.4-2.629 0-.308-1.08-1.371-1.394-1.371-.138 0-1.182-.917-2.32-2.037-1.138-1.12-2.838-2.487-3.778-3.038-.939-.551-1.708-1.173-1.708-1.383 0-.211-.618-.641-1.373-.957-.756-.315-1.611-.907-1.9-1.315-.29-.407-1.008-.86-1.596-1.005-.588-.146-1.578-.689-2.2-1.207-.622-.518-1.851-1.168-2.731-1.444-.88-.276-1.806-.76-2.057-1.076-.251-.315-1.511-.864-2.8-1.219-1.289-.355-2.613-.865-2.943-1.132-.742-.601-2.826-1.244-5.2-1.604-.99-.151-1.98-.407-2.2-.57-1.095-.812-3.818-1.3-10.2-1.826-7.615-.627-8.185-.633-14.4-.148m57.311.061a4.96 4.96 0 0 0-.618 1.153c-.268.756 1.383 4.265 2.422 5.147.389.33.933 1.362 1.21 2.293.277.932.825 1.866 1.219 2.077.393.21.926 1.086 1.183 1.946.258.859.92 2.049 1.471 2.644.551.595 1.002 1.404 1.002 1.798 0 .395.455 1.241 1.01 1.88.556.639 1.119 1.612 1.252 2.162.133.55.638 1.45 1.124 2 .485.55 1.191 1.839 1.568 2.865.377 1.025.915 1.953 1.196 2.061.281.107.843 1.068 1.247 2.135.405 1.066 1.042 2.158 1.417 2.425.374.267.786.987.915 1.6.129.613.682 1.624 1.228 2.248.547.624 1.11 1.658 1.25 2.299.141.641.565 1.391.943 1.667.377.275 1.013 1.368 1.412 2.43.4 1.061.968 2.022 1.262 2.134.294.113.816 1.052 1.159 2.085.343 1.034.978 2.182 1.41 2.552.432.37.903 1.173 1.048 1.786.144.612.667 1.563 1.162 2.113.495.55 1.12 1.688 1.389 2.528.269.84.732 1.621 1.029 1.735.297.114.739.81.982 1.545.242.736.971 2.004 1.619 2.82.648.815 1.178 1.825 1.178 2.245 0 .42.427 1.191.95 1.713.522.522 1.156 1.541 1.408 2.265.252.723.85 1.732 1.33 2.243 1.226 1.305 1.158 3.388-.156 4.801-.566.608-1.146 1.6-1.288 2.205-.143.605-.431 1.1-.64 1.1-.209 0-.853 1.035-1.43 2.3s-1.271 2.426-1.541 2.58c-.271.155-.74 1.055-1.043 2-.304.946-.965 2.116-1.471 2.601-.505.484-.919 1.132-.919 1.44 0 .307-.518 1.273-1.15 2.147-.633.873-1.287 2.025-1.455 2.56-.167.534-.715 1.463-1.216 2.062-.501.6-1.031 1.635-1.177 2.3-.146.665-.581 1.434-.967 1.71-.386.275-1.033 1.373-1.438 2.439-.404 1.067-.966 2.028-1.247 2.136-.281.107-.71.798-.953 1.533-.242.736-.971 2.004-1.619 2.82-.648.815-1.178 1.817-1.178 2.227 0 .41-.372 1.117-.827 1.572-.455.455-1.067 1.507-1.36 2.336-.293.83-.981 1.993-1.531 2.586-.549.592-1.112 1.684-1.251 2.425-.139.742-.518 1.45-.841 1.575-.324.124-1.029 1.221-1.567 2.438-.539 1.217-1.155 2.213-1.369 2.213-.215 0-.507.531-.649 1.179-.143.649-.775 1.828-1.405 2.621-.63.793-1.262 1.971-1.404 2.618-.142.648-.49 1.313-.773 1.48-.619.363-1.823 2.633-1.823 3.436 0 .316-.45.869-1 1.229-.55.361-1 .939-1 1.284 0 .346-.374 1.155-.831 1.797-1.045 1.466-.625 3.197.857 3.534.536.122 11.273.132 23.862.022l22.887-.2 1.197-1.4c.657-.77 1.405-2.03 1.66-2.8.256-.77.89-1.857 1.409-2.414.52-.558 1.062-1.6 1.205-2.315.143-.715.581-1.471.973-1.681.393-.21 1.014-1.284 1.38-2.386.366-1.102.841-2.004 1.056-2.004.214 0 .761-.855 1.215-1.9.454-1.045 1.142-2.26 1.529-2.7.386-.44.913-1.459 1.171-2.265.258-.805.722-1.562 1.033-1.681.31-.119.843-1.178 1.185-2.354.843-2.898 2.958-2.991 3.805-.167.273.912.926 2.168 1.452 2.793.525.624.955 1.468.955 1.874 0 .406.424 1.247.943 1.869.519.622 1.318 1.986 1.777 3.031.459 1.045 1.011 1.9 1.225 1.9.215 0 .675.857 1.023 1.904.348 1.047.976 2.119 1.396 2.381.42.262.885 1.03 1.034 1.706.148.675.693 1.731 1.21 2.345.517.615 1.059 1.59 1.204 2.168.144.577.855 1.735 1.579 2.573l1.317 1.523 22.746.2c25.033.22 24.688.239 24.874-1.339.193-1.641-1.046-4.981-1.954-5.269-.426-.135-.774-.498-.774-.805 0-.745-1.272-3.387-1.631-3.387-.155 0-.583-.753-.952-1.673-.368-.921-1.107-2.194-1.643-2.831s-.974-1.512-.974-1.946c0-.433-.415-1.185-.922-1.669-.508-.485-1.243-1.736-1.633-2.781-.391-1.045-.879-1.9-1.083-1.9-.205 0-.832-.945-1.393-2.1-1.675-3.444-2.718-5.291-3.641-6.446-.48-.6-.989-1.623-1.132-2.272-.143-.65-.568-1.406-.946-1.682-.377-.275-1.013-1.368-1.412-2.43-.4-1.061-.964-2.02-1.254-2.131-.289-.112-.845-1.088-1.234-2.171-.39-1.082-.863-1.968-1.052-1.968-.188 0-.688-.779-1.109-1.731-.421-.952-1.12-2.181-1.552-2.732-.433-.55-.904-1.463-1.046-2.029-.142-.566-.578-1.373-.97-1.793-.392-.421-1.04-1.474-1.441-2.34-.401-.866-1.145-2.084-1.654-2.706-.51-.622-.926-1.47-.926-1.886 0-.415-.54-1.37-1.2-2.122-.66-.752-1.2-1.722-1.2-2.155 0-.434-.427-1.25-.949-1.813s-1.156-1.624-1.41-2.358-.822-1.609-1.262-1.945c-1.426-1.087-1.433-3.161-.015-4.945.68-.855 1.236-1.883 1.236-2.284 0-.402.353-1.059.785-1.461.432-.403 1.08-1.445 1.439-2.316.359-.871.973-1.944 1.365-2.384.392-.44.942-1.52 1.223-2.4.281-.88.81-1.812 1.176-2.071.366-.259.905-1.198 1.198-2.086.293-.889.956-2.013 1.473-2.499.518-.486.941-1.177.941-1.535 0-.358.527-1.368 1.171-2.243.643-.875 1.289-2.068 1.435-2.649.146-.582.603-1.363 1.015-1.736.412-.373.961-1.331 1.221-2.129.26-.799.897-1.882 1.416-2.407.518-.525 1.154-1.661 1.413-2.524.258-.862.783-1.736 1.167-1.941.383-.205.821-.96.972-1.677.151-.717.684-1.753 1.184-2.303.5-.55 1.12-1.659 1.377-2.465.257-.805.709-1.557 1.004-1.67.295-.113.861-1.074 1.258-2.135.397-1.062 1.126-2.315 1.618-2.787.493-.471 1.016-1.493 1.162-2.272.146-.778.506-1.508.8-1.621.294-.112.973-1.07 1.509-2.127 1.893-3.736 3.086-5.869 3.63-6.492.302-.347.789-1.31 1.082-2.14.293-.83.913-1.757 1.376-2.061 1.07-.701 2.144-4.78 1.52-5.769-.38-.602-2.487-.661-23.709-.661h-23.292l-.76 1a22.772 22.772 0 0 1-1.565 1.814c-.442.448-.804 1.087-.804 1.421 0 .334-.517 1.318-1.15 2.186-.632.869-1.286 2.029-1.454 2.579-.168.55-.716 1.491-1.217 2.09-.501.6-1.031 1.635-1.177 2.3-.146.665-.626 1.462-1.067 1.771-.441.308-1.068 1.335-1.394 2.28-.326.946-.927 1.954-1.335 2.24-.408.286-.859 1.051-1.002 1.701-.143.649-.652 1.671-1.132 2.271-.479.6-1.156 1.914-1.504 2.919-.941 2.721-2.902 2.913-3.582.352-.252-.948-.78-2.084-1.174-2.524-.394-.44-1.088-1.655-1.542-2.7-.454-1.045-.987-1.9-1.184-1.9-.198 0-.574-.718-.837-1.595s-.922-2.074-1.464-2.659c-.542-.585-1.171-1.751-1.397-2.59-.226-.84-.735-1.758-1.131-2.041-.396-.283-.934-1.137-1.197-1.898-.262-.76-.803-1.75-1.203-2.2-.4-.449-.971-1.447-1.269-2.217-.297-.77-.787-1.55-1.087-1.732-.3-.183-.707-.757-.904-1.276-.236-.622-.877-1.088-1.878-1.366-2.344-.651-45.901-.582-46.408.074m-124.188 1.444c.385.244.675 3.176 1.097 11.094.315 5.919.74 11.572.945 12.562.692 3.356 1 13.519.431 14.205-.45.542-3.284.612-23.716.582-19.833-.029-23.289.051-23.788.55-.899.899-.893 17.234.007 18.134.556.555 2.754.62 18.862.558 16.622-.065 18.312-.011 19.136.61l.903.681-.079 18.174c-.057 13.235-.206 18.327-.549 18.739-.393.474-3.494.567-18.945.567-14.546 0-18.626.111-19.187.521-.669.49-.709 1.857-.661 22.738.048 20.424-.003 22.263-.625 22.779-.994.825-41.3.837-42.293.013-.8-.665-1.044-140.588-.247-142.077.443-.828 87.417-1.25 88.709-.43m85.077.595c1.1.338 3.62.914 5.6 1.281 1.98.366 4.23.982 5 1.369.77.386 2.343.924 3.495 1.195 1.153.272 2.531.836 3.063 1.255.533.418 1.142.761 1.354.761.497 0 3.377 1.378 5.72 2.737 3.589 2.082 4.503 2.677 5.78 3.763.711.605 1.426 1.1 1.588 1.1.971 0 10.539 9.301 13.065 12.7.858 1.155 1.722 2.1 1.921 2.1.198 0 .483.405.633.9.15.495.591 1.26.98 1.7.389.44 1.02 1.43 1.401 2.2.381.77 1.012 1.76 1.401 2.2.389.44.836 1.25.993 1.8.157.55.735 1.664 1.283 2.475.548.811 1.167 2.233 1.375 3.16.209.927.715 2.157 1.127 2.735.411.577.93 2.041 1.154 3.252.224 1.212.772 3.277 1.217 4.59 2.262 6.673 2.636 25.732.638 32.588-.352 1.21-1.016 3.73-1.476 5.6-.459 1.87-1.161 3.868-1.558 4.44-.398.572-.897 1.816-1.11 2.764-.213.947-.727 2.189-1.142 2.76-.414.57-1.06 1.811-1.434 2.759-.374.948-1.033 2.102-1.465 2.565-.431.464-.982 1.443-1.225 2.177-.242.734-.602 1.335-.801 1.335-.198 0-.723.71-1.166 1.579-.443.868-1.043 1.723-1.332 1.9-.29.176-.792.709-1.115 1.184-.761 1.117-5.487 6.404-6.7 7.495-2.849 2.562-3.659 3.244-5.664 4.769-1.21.92-2.261 1.812-2.337 1.983-.075.17-.792.584-1.594.919-.802.335-1.823.952-2.269 1.371-.446.419-1.471 1.038-2.278 1.375-.807.337-1.571.781-1.699.987-.127.206-1.084.693-2.127 1.081-1.043.389-2.319 1.028-2.837 1.421-.517.393-1.597.833-2.4.978-.802.144-2.179.613-3.059 1.041-1.797.875-5.384 1.908-6.72 1.935-.484.009-1.6.277-2.48.595-2.337.845-13.45 1.892-17 1.603-5.603-.457-10.599-1.089-11-1.392-.22-.166-2.095-.621-4.166-1.013-2.072-.391-4.592-1.119-5.6-1.618-1.009-.499-2.464-1.041-3.234-1.204-.77-.163-2.027-.722-2.793-1.243-.766-.52-1.672-.946-2.013-.946-.342 0-1.599-.63-2.794-1.4-1.195-.77-2.367-1.4-2.605-1.4s-.784-.268-1.214-.595c-2.176-1.658-5.809-4.205-5.996-4.205-.116 0-.739-.495-1.383-1.1a173.55 173.55 0 0 0-2.511-2.3c-2.323-2.08-4.848-4.587-6.091-6.047a64.603 64.603 0 0 0-2.3-2.541c-.605-.623-1.102-1.286-1.104-1.472-.002-.187-.632-1.13-1.4-2.096-.768-.966-1.396-1.897-1.396-2.07 0-.172-.425-.821-.945-1.443-.52-.622-1.083-1.581-1.251-2.131-.168-.55-.822-1.71-1.454-2.579-.633-.868-1.15-1.788-1.15-2.043 0-.256-.526-1.452-1.17-2.658-.643-1.205-1.3-2.896-1.46-3.756-.16-.86-.634-2.368-1.054-3.352-3.915-9.172-4.048-31.854-.243-41.412.438-1.1 1.058-3.073 1.377-4.385.319-1.312.844-2.677 1.167-3.034.322-.356.885-1.532 1.25-2.614.365-1.082 1.07-2.507 1.567-3.167.497-.66 1.023-1.678 1.169-2.262.145-.584.699-1.471 1.231-1.97.531-.499.966-1.114.966-1.366s.63-1.194 1.4-2.094c.77-.899 1.4-1.83 1.4-2.068 0-.239.54-.915 1.2-1.503.66-.588 1.2-1.213 1.2-1.389 0-.424 7.631-8.118 8.4-8.47.33-.15 1.68-1.178 3-2.284 1.32-1.105 2.954-2.266 3.632-2.579.677-.313 1.47-.856 1.762-1.207.291-.352 1.402-1.014 2.468-1.473 1.066-.458 1.938-.971 1.938-1.138 0-.168.945-.612 2.1-.987 1.155-.375 2.37-.92 2.7-1.21.33-.29 1.59-.833 2.8-1.207 1.21-.373 2.938-1.008 3.841-1.41.902-.402 3.578-1.105 5.946-1.562 2.368-.457 4.473-.934 4.677-1.061 1.73-1.069 19.872-1.085 23.336-.021m85.869-.277c.402.364.731.904.731 1.2 0 .296.19.538.422.538.233 0 .794.855 1.247 1.9.454 1.045 1.23 2.35 1.726 2.9.496.55 1.015 1.481 1.153 2.069.139.588.677 1.578 1.197 2.2.52.622 1.078 1.553 1.239 2.069.162.515.816 1.711 1.455 2.658.638.946 1.161 1.905 1.161 2.131 0 .227.438.933.974 1.569.536.637 1.087 1.608 1.225 2.159.138.55.69 1.511 1.226 2.135.536.624.975 1.394.975 1.712 0 4.298 4.535 4.566 5.806.344.297-.985.907-2.159 1.356-2.608.45-.45.936-1.317 1.08-1.928.145-.61.587-1.47.984-1.91.396-.44 1.077-1.635 1.514-2.656.436-1.02.963-1.92 1.171-2 .207-.079.776-.954 1.265-1.944 1.681-3.408 3.026-5.834 3.924-7.077.495-.686.9-1.419.9-1.63 0-.328 1.393-2.307 2.811-3.993.576-.685 44.396-.733 45.08-.049.572.572.05 2.029-1.302 3.635-.544.647-.989 1.37-.989 1.607 0 .237-.443 1.012-.984 1.722-.542.71-1.281 2.032-1.644 2.938-.362.906-.792 1.647-.955 1.647-.162 0-.631.765-1.041 1.7-.409.935-1.136 2.24-1.614 2.9-.478.66-1.001 1.65-1.162 2.2-.16.55-.614 1.36-1.008 1.8-.393.44-1.004 1.502-1.358 2.359-.353.857-.883 1.757-1.176 2-.294.243-.771 1.071-1.061 1.841-.29.77-.849 1.762-1.243 2.205-.394.443-1.012 1.523-1.373 2.4-.362.877-.978 1.955-1.37 2.395-.392.44-.928 1.474-1.192 2.297-.263.823-.711 1.633-.994 1.8-.283.167-.914 1.113-1.401 2.103-1.815 3.681-3.049 5.876-3.924 6.976-.495.623-.9 1.423-.9 1.778-.001.355-.446 1.163-.989 1.795-.544.632-1.107 1.532-1.252 2-.145.468-.645 1.391-1.111 2.051-.467.66-1.265 2.01-1.776 3-1.85 3.59-2.689 5.065-3.572 6.283-.495.682-.9 1.466-.9 1.741 0 .275-.434 1.069-.963 1.764-2.379 3.118-2.475 5.952-.284 8.401.399.446 1.129 1.666 1.622 2.711.493 1.045 1.046 1.9 1.229 1.9.183 0 .452.544.598 1.21.146.665.668 1.7 1.159 2.3.491.599 1.139 1.72 1.439 2.49.3.77.963 1.909 1.473 2.531.51.622.927 1.362.927 1.645 0 .283.54 1.193 1.2 2.024.66.831 1.205 1.8 1.211 2.155.006.355.546 1.352 1.2 2.216.654.864 1.189 1.789 1.189 2.055 0 .266.63 1.4 1.4 2.519.77 1.12 1.4 2.288 1.4 2.596 0 .309.291.803.647 1.098.355.295 1.093 1.48 1.639 2.632.545 1.153 1.244 2.305 1.553 2.561.309.256.561.72.561 1.031 0 .549 1.112 2.533 1.646 2.937.145.11.552.891.904 1.736.351.844 1.076 2.055 1.611 2.69.534.635 1.091 1.699 1.237 2.364.146.666.415 1.21.598 1.21s.736.855 1.229 1.9c.493 1.045 1.199 2.26 1.571 2.7.371.44.913 1.43 1.204 2.2.291.77.86 1.772 1.265 2.226.404.454.735 1.021.735 1.26 0 .238.618 1.352 1.373 2.474s1.501 2.445 1.658 2.94c.156.495.604 1.125.995 1.4.391.276.831 1.048.978 1.717.544 2.48 1.468 2.383-22.619 2.383h-21.917l-1.634-1.856c-.899-1.021-1.634-2.108-1.634-2.414 0-.543-1.115-2.529-1.646-2.93-.145-.11-.561-.914-.925-1.786-.363-.872-.809-1.682-.991-1.8-.182-.118-.735-1.024-1.229-2.014-.495-.99-1.215-2.16-1.602-2.6-.386-.44-.816-1.281-.954-1.869-.139-.588-.67-1.578-1.18-2.2-.51-.622-1.169-1.761-1.465-2.531-.295-.77-.846-1.76-1.223-2.2-.378-.44-.908-1.52-1.18-2.4-1.137-3.688-5.595-3.18-5.604.638 0 .351-.44 1.148-.976 1.772-.536.624-1.088 1.586-1.226 2.138-.139.552-.645 1.552-1.126 2.222-.884 1.235-2.153 3.44-3.241 5.63-.328.66-1.143 2.01-1.812 3-.669.99-1.217 2.011-1.218 2.269-.001.258-.426.978-.944 1.6-.518.622-1.155 1.761-1.415 2.531-.26.77-1.089 2.12-1.842 3l-1.368 1.6-22.065.11c-20.323.101-22.104.057-22.559-.565-.528-.723-.007-3.345.665-3.345.186 0 .643-.675 1.015-1.5.372-.825 1.067-1.95 1.545-2.5s1.078-1.653 1.333-2.452c.255-.798.81-1.765 1.233-2.148.423-.383.978-1.35 1.233-2.148.255-.799.87-1.902 1.367-2.452s1.119-1.675 1.383-2.5c.263-.825.624-1.5.801-1.5.177 0 .838-1.008 1.469-2.241 2.269-4.432 2.758-5.29 3.449-6.052.385-.425.987-1.613 1.337-2.64.35-1.027.809-1.867 1.021-1.867.212 0 .757-.855 1.212-1.9.455-1.045 1.082-2.193 1.395-2.551.623-.714 2.014-3.19 3.297-5.867.453-.945 1.276-2.312 1.83-3.038.553-.726 1.006-1.604 1.006-1.951s.429-1.142.954-1.766c.525-.623 1.251-1.762 1.612-2.53.362-.769 1.367-2.567 2.234-3.997.867-1.43 1.871-3.227 2.232-3.993.361-.767 1.002-1.833 1.424-2.369.422-.537 1.112-1.755 1.533-2.707.421-.952.949-1.731 1.173-1.731 1.675 0 1.24-5.531-.607-7.726-.525-.624-.955-1.319-.955-1.543 0-.224-.405-.966-.9-1.648-.936-1.291-1.925-3.046-3.685-6.543-.571-1.133-1.293-2.273-1.606-2.532-.312-.26-.783-1.133-1.046-1.94-.264-.807-.903-1.977-1.421-2.599-.518-.622-.942-1.36-.942-1.64 0-.28-.533-1.244-1.184-2.143-.651-.899-1.464-2.231-1.806-2.96-.996-2.125-3.02-5.674-3.607-6.326-.297-.33-.656-1.063-.797-1.628-.141-.565-.695-1.538-1.231-2.162-.536-.624-.975-1.356-.975-1.627 0-.271-.605-1.373-1.344-2.447-.74-1.075-1.486-2.4-1.658-2.945-.172-.545-.737-1.548-1.256-2.229-.518-.681-.942-1.432-.942-1.669 0-.237-.424-.94-.942-1.562-.518-.622-1.155-1.784-1.415-2.583-.26-.798-.798-1.746-1.196-2.105-.397-.36-.957-1.366-1.244-2.235-.287-.869-.945-1.978-1.462-2.464-.518-.486-.941-1.185-.941-1.554 0-.368-.54-1.415-1.2-2.327-.66-.911-1.2-1.824-1.2-2.029 0-.205-.421-.881-.936-1.503-1.278-1.544-1.926-3.509-1.348-4.087.816-.816 44.242-.606 45.153.218M190.2 58.674c-.66.106-1.47.427-1.8.712-.33.286-1.002.642-1.493.791-1.275.389-3.846 2.992-4.476 4.532-.295.721-.827 1.473-1.183 1.672-.584.326-.683 3.433-.997 31.291-.381 33.808-.275 36.501 1.532 38.87.559.733 1.017 1.466 1.017 1.627 0 .652 3.445 3.449 4.776 3.877.783.252 1.673.657 1.977.899.305.243 1.586.442 2.847.442s2.542-.199 2.847-.442c.304-.242 1.273-.67 2.153-.949 1.872-.595 4.422-2.724 5.703-4.76 2.218-3.53 2.097-1.426 2.097-36.367V68.512l-.96-1.415c-.528-.778-1.074-1.774-1.214-2.214-.296-.932-3.494-3.894-5.577-5.163-1.485-.905-4.988-1.41-7.249-1.046m7.042 2.73c1.103.378 2.045 1.012 2.35 1.58.279.522.811 1.028 1.183 1.125.397.104 1.046 1.192 1.572 2.634.493 1.351 1.066 2.457 1.274 2.457.844 0 .473 63.791-.375 64.558-.414.375-.976 1.478-1.248 2.451-.302 1.078-.785 1.86-1.236 2.003-.408.129-1.073.657-1.478 1.173-1.277 1.623-7.677 2.467-11.087 1.462-1.801-.531-4.378-3.189-5.195-5.36-.396-1.052-.874-2.008-1.061-2.124-.624-.385-.425-63.862.202-64.774.299-.434.77-1.485 1.046-2.335 1.566-4.811 7.844-6.977 14.053-4.85M47.07 212.3c8.619.06 22.839.06 31.6 0 8.762-.06 1.71-.109-15.67-.11-17.38 0-24.548.05-15.93.11m103.43.112-.9.362v69.964c0 59.035.086 70.036.553 70.423.776.644 95.504.66 96.536.015 1.09-.68.962-29.857-.135-30.659-.562-.411-6.567-.517-29.381-.517-30.276 0-29.225.064-29.684-1.8-.169-.689-.203-.667-.243.156-.1 2.061-.735 2.017 29.554 2.037 15.51.01 28.605.126 29.1.259l.9.241v14.911c0 13.227-.071 14.938-.633 15.153-.824.316-94.086.307-95.267-.009l-.9-.241V212.9l1.25-.25c2.241-.448 93.929-.29 94.776.164.744.398.774.99.774 15.139v14.725l-.9.434c-.543.262-.662.44-.3.448 1.78.043 1.8-.133 1.8-15.841v-14.882l-.919-.418c-1.167-.532-94.658-.538-95.981-.007m110.361.288c-.702.594-.86 1.305-1.042 4.7-.245 4.582.335 3.696.795-1.214.216-2.308.451-3.1 1.008-3.398.996-.533 108.243-.53 108.572.003.768 1.242.399 29.815-.394 30.554-.789.735-.786.737.2.151l1-.593.106-14.952c.096-13.7.048-14.993-.577-15.451-1.237-.907-108.591-.711-109.668.2m-163.75-.007c.94.085 2.38.084 3.2-.002.819-.086.049-.155-1.711-.154-1.76.002-2.43.072-1.489.156m7.17.527c.925.182 2.041.524 2.479.759.89.476 6.896 1.699 7.141 1.454.086-.086-.442-.278-1.172-.425-.731-.148-2.795-.705-4.587-1.239-1.792-.533-3.772-.949-4.4-.925-.907.035-.797.112.539.376M30.195 283c0 37.18.047 52.331.105 33.668.057-18.662.057-49.082 0-67.6-.058-18.517-.105-3.248-.105 33.932m84.949-66.587c.52.433 1.24.786 1.6.786.391-.001.126-.325-.654-.8-1.665-1.016-2.173-1.008-.946.014m4.32 2.131c1.075.74 2.339 1.467 2.81 1.616.47.149 1.145.714 1.499 1.256.355.541.849.984 1.098.984.804 0-1-1.642-3.783-3.444-3.168-2.051-4.496-2.387-1.624-.412m139.624 7.817c-.158 2.069-.261 5.399-.228 7.4.047 2.857.133 2.221.401-2.961.381-7.386.271-10.227-.173-4.439M126.4 223.974c0 .219.405.611.9.872.495.26 1.032.672 1.194.914.198.296.296.301.3.015.003-.233-.534-.824-1.194-1.312-.66-.488-1.2-.708-1.2-.489m2.4 2.692c0 .225.386.753.858 1.172.472.419 1.279 1.707 1.795 2.862.515 1.155 1.147 2.1 1.404 2.1.307 0 .263-.24-.129-.7-.328-.385-.822-1.27-1.097-1.967-.531-1.344-2.831-4.161-2.831-3.467m4.632 7.734c.379 2.1 2.514 8.321 2.54 7.4.012-.44-.611-2.6-1.385-4.8-.774-2.2-1.294-3.37-1.155-2.6m125.044 5.871c-.055 1.792.097 2.645.553 3.1.862.863 1.247.797.456-.077-.388-.429-.697-1.648-.787-3.1l-.147-2.394-.075 2.471m-191.703-1.13-.973.788v28.184l1.128.843c1.287.963 14.125 1.468 18.088.712 1.507-.288-.286-.389-7.462-.423-8.914-.042-9.505-.092-10.5-.874L66 267.542v-13.327c0-12.53.046-13.383.765-14.271l.766-.944h10.734c10.404 0 10.795.029 12.674.928 1.066.51 2.021.846 2.121.746 1.945-1.945-23.916-3.452-26.287-1.533m28.981 3.508c1.235 1.017 2.246 2.024 2.246 2.238 0 .214.4.952.89 1.639.489.688 1.12 2.245 1.4 3.462l.511 2.212-.193-2.194c-.12-1.362-.498-2.576-.997-3.2-.442-.553-1.066-1.591-1.387-2.306-.321-.715-.771-1.3-1.001-1.3-.229 0-.898-.54-1.486-1.2-.588-.66-1.33-1.2-1.649-1.2-.319 0 .431.832 1.666 1.849m92.335 1.174a1.953 1.953 0 0 0-.853 1.7c.035 1.032.052 1.023.412-.223.206-.715.415-1.342.463-1.393.049-.052 12.779-.189 28.289-.306l28.2-.212-27.811-.094c-24.625-.084-27.913-.024-28.7.528m90.111-.221c9.46.121 17.227.26 17.261.309.872 1.278.954 6.214.928 55.673-.027 52.313-.017 53.023.76 53.544 1.403.94 34.378.751 35.214-.202.578-.659.618-5.577.437-53.126-.11-28.82-.062-52.966.107-53.657.583-2.39.102-2.324 18.654-2.558l17.039-.215-17.335.015-17.335.015-.972 1.13-.972 1.131.021 53.446c.019 47.487-.046 53.483-.588 53.786-.92.515-32.814.383-33.962-.14-.865-.394-.914-.568-.593-2.091.195-.92.303-24.855.244-53.597L297 245.131l-1.122-.966-1.123-.965-16.877.092-16.878.091 17.2.219M136.161 249.6c0 3.41.061 4.805.136 3.1a85.45 85.45 0 0 0 0-6.2c-.075-1.705-.136-.31-.136 3.1m-35.93 8.556c-.709 4.677-5.433 9.254-10.756 10.421-1.361.298-2.025.559-1.475.578 1.672.059 5.246-1.059 6.175-1.932.482-.453 1.045-.829 1.251-.836.732-.026 2.144-1.505 2.993-3.134.474-.909 1.011-1.653 1.193-1.653.42 0 1.354-4.105 1.103-4.846-.104-.305-.322.326-.484 1.402m35.401-.907c-.018.357-.404 1.49-.858 2.517-.454 1.027-.761 2.175-.681 2.551.08.376.557-.532 1.059-2.018.503-1.486.823-2.926.713-3.2-.128-.317-.213-.263-.233.15m51.582 8.551c.035 2.513-1.199 2.389 24.998 2.509l23.777.109.217.891c.12.49.167 6.831.106 14.091l-.112 13.2-23.772.103c-26.069.113-25.258.034-25.205 2.459.02.931.071.894.5-.362l.477-1.4 23.763-.103c16.741-.073 23.921-.235 24.3-.549.841-.698.784-27.645-.06-28.346-.461-.382-5.397-.48-21.582-.427-24.619.081-25.593.017-26.66-1.731-.604-.992-.756-1.082-.747-.444m-54.748.321c-.685.825-1.764 3.587-1.287 3.292.232-.143.421-.495.421-.783 0-.287.381-1.006.846-1.597.846-1.076.865-1.93.02-.912m-3.004 4.61c-.364.403-.662.947-.662 1.21 0 .264-.435.644-.966.846-.531.202-1.08.728-1.22 1.17-.14.441-.611.915-1.045 1.053-.435.138-1.065.67-1.401 1.182-.335.513-1.096 1.051-1.689 1.197-3.982.979-4.033 4.746-.078 5.811.861.232 1.678.604 1.816.827.372.603 3.289 2.376 3.875 2.355.279-.009-.135-.357-.921-.773-.785-.415-1.647-1.019-1.915-1.342-.268-.323-1.452-.978-2.631-1.457-3.236-1.313-3.36-4.094-.225-5.007.55-.16 1.36-.614 1.8-1.01 1.082-.973 5.274-5.224 6.009-6.093.788-.933.099-.904-.747.031m-1.056 16.346c-.006.515 1.517 1.723 2.172 1.723.22 0-.045-.305-.589-.677-.544-.372-1.121-.867-1.283-1.1-.197-.284-.296-.267-.3.054m2.452 2.323c.628 1.5 1.325 2.585 1.768 2.755.285.109.071-.461-.477-1.268-1.057-1.558-1.566-2.145-1.291-1.487m2.825 4.4c.258.66.772 1.56 1.142 2 .37.44.772 1.07.893 1.4.12.33.233.383.25.118.018-.265-.373-1.098-.868-1.851l-1.394-2.117c-.398-.605-.403-.518-.023.45m-66.524.316-1.359.916v15.699c0 16.853-.043 16.496 2 16.431.57-.018.628-.088.2-.246-2.051-.754-2-.336-2-16.349v-14.909l1.054-.829c1.006-.791 1.54-.829 11.7-.835 7.021-.004 10.442-.138 10.046-.394-1.436-.928-20.161-.482-21.641.516m24.689.591c1.347.381 2.771.963 3.165 1.293.637.533.695.533.521 0-.216-.664-2.189-1.424-4.578-1.764-1.019-.145-.711.018.892.471m4.752 2.159c.44.243 1.565 1.259 2.5 2.257.935.999 1.7 1.629 1.7 1.401 0-.587-3.859-4.127-4.483-4.112-.284.007-.157.211.283.454m39.618 2.256c.14.727.694 2.347 1.23 3.6.614 1.438.89 1.824.746 1.047-.125-.677-.678-2.297-1.229-3.6-.671-1.585-.918-1.932-.747-1.047m-35.418 2.331c0 .156.285.599.633.984.349.385.873 1.569 1.165 2.631.292 1.063.547 1.554.566 1.092.054-1.257-.785-3.465-1.624-4.276-.407-.393-.74-.587-.74-.431m37.783 12.147c-.004 4.671.111 7.339.269 6.2.359-2.586.368-10.283.014-12.6-.151-.99-.278 1.89-.283 6.4m-35.255-3.2c0 1.43.073 2.015.161 1.3.089-.715.089-1.885 0-2.6-.088-.715-.161-.13-.161 1.3m-.697 5.4c-.164.88-.676 2.23-1.139 3-.84 1.4-.84 1.4-.013.68.873-.759 1.933-3.849 1.629-4.75-.098-.291-.313.19-.477 1.07m-3.6 6.338c-.864.914-2.124 1.983-2.8 2.376-1.069.62-1.1.679-.231.452.987-.259 5.112-3.992 4.774-4.321-.096-.093-.88.578-1.743 1.493M138 323.139c0 .406-.269 1.277-.597 1.935-.328.658-.692 1.811-.808 2.561-.207 1.337-.195 1.329.599-.379.836-1.798 1.501-4.856 1.057-4.856-.138 0-.251.332-.251.739m-44.561 2.783c-.639.319-2.079.715-3.2.879-1.657.243-1.777.307-.639.34 1.737.05 4.356-.537 4.922-1.103.685-.685.168-.74-1.083-.116m-20.116 1.577c2.597.07 6.737.069 9.2-.001 2.462-.07.337-.127-4.723-.126-5.06 0-7.075.057-4.477.127m61.587 4.702c-.484.739-.999 1.816-1.144 2.394-.146.578-.692 1.331-1.215 1.674-.523.343-.951.835-.951 1.094 0 .599-4.252 4.989-5.817 6.005-.651.422-1.404 1.077-1.674 1.454-.27.378-.99.811-1.6.962-.61.151-1.469.606-1.909 1.011-.44.405-1.79 1.048-3 1.43-1.21.382-2.516.966-2.901 1.298-.386.332-1.376.734-2.2.894-1.334.259-1.371.296-.339.337.638.025 2.078-.397 3.2-.938 1.122-.541 2.85-1.357 3.84-1.812 6.53-3.006 12.386-8.494 15.615-14.632 1.362-2.59 1.41-3.178.095-1.171M106.6 351.82c-1.679.684-1.991.905-1.038.734 2.229-.4 5.599-1.694 4.438-1.704-.55-.005-2.08.432-3.4.97m-76.355 1.347c.519.564 66.595.573 70.755.01 1.846-.251 1.385-.286-2-.154-7.305.285-68.196.224-68.716-.068-.359-.202-.369-.148-.039.212" fill="#48656e"/><path d="M11.833 191.947c-5.696 1.234-2.771 1.253 188.734 1.253 129.618 0 190.233-.131 190.233-.41 0-.225-.462-.585-1.026-.8-1.14-.433-375.941-.476-377.941-.043m17.949 19.435-.982.982.009 70.518c.009 68.923.026 70.541.777 71.518l.768 1 30.523.121 30.523.122 8.8-1.079c5.613-.689 9.307-1.331 10.2-1.773.77-.381 2.03-.819 2.8-.973 1.891-.377 4.8-1.464 4.8-1.793 0-.147.901-.591 2.003-.987 1.102-.397 2.137-.931 2.3-1.188.163-.257.825-.699 1.471-.983 2.3-1.013 7.763-6.01 8.834-8.083.337-.651.767-1.184.957-1.184.189 0 .659-.664 1.044-1.475s1.026-1.826 1.426-2.254c.399-.429.847-1.34.996-2.025.15-.685.69-2.056 1.202-3.046 1.414-2.735 2.763-14.164 2.192-18.575-.99-7.657-1.325-9.299-2.205-10.825-.508-.88-1.046-2.173-1.197-2.872-.151-.7-.543-1.496-.872-1.769-.328-.272-.858-1.119-1.176-1.881-1.295-3.099-7.874-9.617-10.64-10.541-2.679-.895-3.044-2.759-.767-3.921 1.801-.918 8.432-7.32 8.432-8.14 0-.162.63-1.211 1.4-2.331.77-1.119 1.4-2.296 1.4-2.615 0-.319.456-1.544 1.014-2.723.963-2.036 1.451-4.76 2.043-11.407.375-4.206-1.261-15.2-2.261-15.2-.179 0-.447-.718-.595-1.595-.148-.877-.665-2.182-1.148-2.9a25.852 25.852 0 0 1-1.589-2.813c-.39-.83-1.104-1.957-1.587-2.505-2.122-2.409-6.754-6.987-7.069-6.987-.191 0-.884-.452-1.542-1.005-.657-.553-1.883-1.293-2.724-1.645-.84-.351-1.948-.968-2.46-1.371s-1.906-.935-3.098-1.182c-1.193-.248-2.721-.726-3.396-1.063-4.008-2-14.443-2.546-48.506-2.54l-31.118.006-.982.982m119.605-.005-.987.987v70.199c0 75.348-.102 71.844 2.115 72.617 1.632.569 94.594.587 96.089.018 1.581-.6 2.307-1.51 2.337-2.926.016-.7-.01-7.776-.057-15.726l-.084-14.455-1.36-.645c-1.213-.576-4.469-.646-29.954-.646h-28.593l-.241-.9c-.32-1.194-.322-18.651-.002-20.25l.25-1.25h47.536l.982-.982.982-.982v-27.76l-1.02-1.338-1.021-1.338H212.86c-17.745 0-23.618-.118-23.98-.48-.662-.662-.676-18.253-.016-19.701l.464-1.019h28.892c26.932 0 28.948-.047 29.724-.7 1.335-1.122 1.425-31.309.097-32.637l-.863-.863-48.402-.105-48.403-.104-.986.986m110.923-.353c-1.512.82-1.911 1.754-1.904 4.45.015 5.219-.877 19.378-1.448 23.003-1.057 6.706-2.241 6.323 19.569 6.323h17.78l.244.9c.134.495.244 24.874.244 54.174l-.001 53.275.968 1.125.968 1.126 16.535.121c17.999.133 18.769.082 20.18-1.329l.955-.956v-53.192c0-33.593.144-53.57.39-54.218l.39-1.026h35.936l.901-.936.901-.936-.033-15.053c-.034-15.596-.042-15.684-1.674-16.799-1.418-.969-109.118-1.02-110.901-.052M98.4 212.413c3.63.225 7.41.668 8.4.983.99.316 3.19.94 4.889 1.388 1.698.447 3.678 1.174 4.4 1.613.721.44 1.53.801 1.799.802 1.453.004 10.912 7.547 10.912 8.702 0 .195.524.942 1.165 1.66s1.391 1.875 1.666 2.572c.275.697.728 1.537 1.005 1.867.278.33 1.192 2.58 2.031 5l1.527 4.4.003 8c.003 7.773-.03 8.097-1.152 11.4-2.201 6.477-3.633 8.863-7.845 13.075-3.214 3.213-3.695 3.607-4.8 3.928-3.127.911-3.011 3.694.209 5.001 1.17.475 2.425 1.192 2.788 1.593.364.401 1.182.946 1.819 1.209.636.264 1.256.792 1.377 1.173s.622.913 1.114 1.182c.774.423 1.94 2.057 5.308 7.439.845 1.351 2.328 5.301 3.228 8.6 1.517 5.561.94 18.773-1.019 23.344-.453 1.057-.825 2.132-.825 2.389-.012 4.542-9.675 14.807-17.199 18.271-.99.455-2.718 1.271-3.84 1.812-1.122.541-2.472.986-3 .989-.528.003-2.318.439-3.977.969-1.659.53-4.719 1.153-6.8 1.384-4.639.516-70.734.651-71.24.145-.194-.194-.353-31.212-.36-70.325L29.971 213l.914-.494c1.166-.63 57.608-.707 67.515-.093m148.081.006.919.418v14.882c0 12.744-.086 14.951-.6 15.368-.459.373-7.337.492-29.2.506-15.73.011-28.828.164-29.107.341-1.543.979-1.994 19.912-.532 22.31 1.067 1.748 2.041 1.812 26.66 1.731 16.185-.053 21.121.045 21.582.427.794.66.905 27.53.117 28.318-.363.363-6.281.48-24.186.48h-23.706l-.514.9c-.768 1.345-.737 22.309.035 23.239.501.604 3.039.661 29.224.661 22.814 0 28.819.106 29.381.517 1.097.802 1.225 29.979.135 30.659-1.032.645-95.76.629-96.536-.015-.467-.387-.553-11.388-.553-70.423v-69.964l.9-.362c1.323-.531 94.814-.525 95.981.007m123.945-.005c1.024.548 1.228 29.911.214 30.753-.408.338-5.332.459-18.101.441-19.384-.025-18.992-.075-19.623 2.504-.174.708-.226 24.868-.116 53.688.181 47.549.141 52.467-.437 53.126-.836.953-33.811 1.142-35.214.202-.777-.521-.787-1.231-.76-53.58.028-53.106-.012-54.798-1.314-55.638-.261-.168-8.47-.3-18.242-.292-14.075.011-17.836-.094-18.102-.502-.363-.557-.129-9.328.472-17.716.916-12.788.834-12.18 1.734-12.811 1.05-.735 108.123-.906 109.489-.175m-302.7 26.771c-1.642.695-1.726 1.431-1.726 15.16v13.197l1.054.829c1.373 1.08 17.292 1.25 22.11.237 9.607-2.021 14.996-14.042 9.819-21.899-.541-.821-.983-1.654-.983-1.851 0-.439-4.342-4.058-4.868-4.058-.207 0-1.221-.402-2.254-.893-2.048-.973-21.151-1.569-23.152-.722m19.314 1.187c.638.205 2.472.772 4.076 1.261 8.735 2.662 11.302 15.725 4.415 22.467-.842.825-1.777 1.5-2.078 1.5-.3 0-.974.331-1.499.735-1.995 1.536-21.344 2.552-23.459 1.231-1.004-.626-.92-25.058.091-26.601l.632-.965h8.332c4.582 0 8.852.167 9.49.372m-19.986 54.457-1.054.829v14.909c0 18.541-1.459 16.394 11.245 16.553 15.666.197 19.691-1.082 23.777-7.555 2.71-4.293 2.946-14.327.404-17.137-.344-.38-.626-.885-.626-1.122 0-1.706-5.364-5.544-9.2-6.584-4.226-1.144-23.059-1.062-24.546.107m26.079 1.871c1.363.715 2.662 1.3 2.886 1.3.887 0 3.073 2.759 4.532 5.718l1.536 3.118-.179 4.282c-.317 7.565-3.066 11.369-9.796 13.554L88.023 326l-9.511-.006c-5.232-.003-9.747-.155-10.033-.337-.835-.53-.911-29.262-.079-29.961.457-.384 3.177-.479 11.427-.4l10.828.104 2.478 1.3" fill="#888c2c"/></g></svg>