<svg xmlns="http://www.w3.org/2000/svg" width="400" height="400"><g fill-rule="evenodd"><path d="M69.481 110.6c-.793.77-1.624 1.4-1.847 1.4-.223 0-.607.375-.852.834-1.161 2.169-4.102 2.337-6.571.375-2.47-1.963-5.785-1.559-4.85.591 2.812 6.464 2.834 6.184-.773 9.947-3.772 3.934-3.646 4.321 1.38 4.249 1.887-.027 3.824-.037 4.303-.022.64.019 1.145.581 1.909 2.126.571 1.155 1.301 2.55 1.623 3.1.322.55.588 1.315.591 1.7.003.385.186.7.406.7.22 0 .4-.45.4-1s.18-1 .4-1c.22 0 .4.21.4.467 0 .256.128.338.285.181.46-.459 1.714-3.979 1.715-4.81 0-1.805 1.854-3.365 4.298-3.618 3.165-.328 6.503-1.021 6.496-1.349-.02-.862-4.213-3.816-6.078-4.28-2.175-.541-2.235-.996-.903-6.886.584-2.584.589-2.96.049-3.5-.794-.794-.719-.818-2.381.795m266.962.154c-.64.685-1.293 1.246-1.451 1.246-.157 0-.924.56-1.704 1.245-1.785 1.567-4.375 1.496-6.802-.186-1.635-1.133-4.488-1.489-4.484-.559.001.275.555 1.924 1.232 3.664 1.537 3.951 1.386 5.343-.751 6.906-2.092 1.53-2.483 2.1-2.483 3.621v1.338l3.708-.095c4.577-.117 4.391-.24 6.489 4.281 1.196 2.577 1.922 3.697 2.354 3.633.911-.133.945-.203 1.592-3.257.325-1.535.966-3.627 1.425-4.649l.833-1.859 3.299-.27c1.815-.149 3.615-.36 4-.469 1.231-.348.793-3.344-.489-3.344-.387 0-1.156-.356-1.71-.792-.554-.436-1.465-.966-2.025-1.179-1.412-.537-1.561-6.681-.202-8.318.432-.52.101-2.019-.347-1.572-.139.14-.493.055-.787-.189-.409-.339-.803-.153-1.697.804M182.6 118.013c-7.802.534-26.235 3.511-31.8 5.135-.77.225-3.171.856-5.337 1.403-3.832.969-7.031 1.939-9.063 2.748-.55.22-1.9.634-3 .922-3.592.941-14.345 5.171-18.08 7.113-.704.366-1.613.666-2.02.666-.407 0-.931.191-1.165.425-.234.234-2.025 1.181-3.98 2.103-1.955.922-5.011 2.531-6.79 3.574-1.779 1.044-3.603 1.898-4.051 1.898-.449 0-1.063.343-1.365.763-.302.419-2.079 1.624-3.949 2.676-4.439 2.499-6.428 4.561-4.4 4.561.22 0 .4.23.4.511s.688 1.426 1.528 2.544c.84 1.119 1.835 2.644 2.211 3.389.376.746.903 1.712 1.172 2.146 2.411 3.897 2.992 4.967 3.247 5.987.162.645.537 1.365.833 1.598.296.234 1.107 1.865 1.803 3.625s1.491 3.65 1.766 4.2c.276.55.922 2.35 1.437 4 .514 1.65 1.176 3.567 1.469 4.26.294.694.534 1.488.534 1.765 0 .549 1.104 4.484 1.62 5.775.175.44.625 2.78.999 5.2.373 2.42.843 5.21 1.043 6.2 1.789 8.847.223 34.297-2.633 42.8-.555 1.65-1.013 3.309-1.019 3.688-.017 1.162-2.432 8.324-4.017 11.912-.826 1.87-1.635 3.85-1.8 4.4-.164.55-.636 1.48-1.049 2.066-.413.587-.863 1.628-1 2.315-.137.686-.586 1.427-.997 1.647-.411.22-.747.684-.747 1.032 0 .541-3.353 6.366-3.995 6.94-.43.385-1.806 2.609-2.275 3.678-.67 1.528-.114 3.201 1.298 3.909.645.323 2.072 1.146 3.172 1.828 1.1.681 2.27 1.362 2.6 1.512.33.15 2.22 1.175 4.2 2.278 1.98 1.102 5.58 3 8 4.217 2.42 1.217 4.67 2.366 5 2.554.33.188 1.93.849 3.555 1.469 1.625.62 3.364 1.448 3.863 1.841.5.393 1.273.714 1.719.714.446 0 1.947.469 3.337 1.043 3.862 1.594 4.069 1.675 4.926 1.909.67.183 4.393 1.516 6.6 2.362 1.507.579 7.98 2.386 9.6 2.681.99.18 2.79.631 4 1.002 1.21.37 2.92.815 3.8.987.88.172 2.95.597 4.6.945 1.65.347 4.26.81 5.8 1.029 1.54.219 4.338.677 6.219 1.019 15.133 2.751 39.027 2.754 57.581.008 2.31-.342 5.37-.789 6.8-.994 1.43-.204 3.41-.54 4.4-.745.99-.206 2.88-.58 4.2-.831 2.163-.412 4.66-1.059 7.96-2.062.638-.194 1.6-.353 2.139-.353.539 0 1.547-.249 2.241-.553.693-.303 2.7-.946 4.46-1.427 1.76-.481 3.56-1.021 4-1.199.887-.36 5.103-1.912 8.8-3.239l4-1.436c.88-.316 2.68-1.088 4-1.715a121.7 121.7 0 0 1 4-1.813c.88-.37 3.4-1.561 5.6-2.646 2.2-1.086 4.25-1.974 4.556-1.973.306 0 .756-.259 1-.576.244-.318 2.064-1.419 4.044-2.447 1.98-1.027 4.536-2.489 5.68-3.248a62.45 62.45 0 0 1 4.08-2.453c7.129-3.83 7.369-4.34 4.261-9.061-1.199-1.82-2.295-3.769-2.436-4.332-.141-.563-.601-1.334-1.021-1.715-.42-.38-.764-.846-.764-1.035 0-.189-.794-2.006-1.764-4.038-2.039-4.271-3.756-8.373-4.225-10.094-.18-.66-.634-2.01-1.008-3-.971-2.565-1.778-5.661-3.338-12.8-3.047-13.947-2.621-39.686.821-49.6.114-.33.573-2.13 1.02-4 .746-3.122 2.795-9.482 3.672-11.4.201-.44 1.032-2.33 1.846-4.2.814-1.87 1.705-3.67 1.981-4 .275-.33.637-1.05.804-1.6.167-.55.729-1.627 1.247-2.393.519-.766.944-1.697.944-2.069 0-.372.428-1.185.951-1.807 1.637-1.946 3.325-5.457 3.077-6.399-.189-.72-4.611-4.132-5.355-4.132-.42 0-5.664-3.334-6.673-4.242-.55-.496-1.518-1.029-2.152-1.186-.634-.157-2.254-.946-3.6-1.753-1.346-.808-4.158-2.258-6.248-3.223-2.09-.965-4.07-1.968-4.4-2.228-.33-.26-1.05-.61-1.6-.777-.55-.166-1.627-.638-2.394-1.047-.767-.409-1.55-.744-1.74-.744-.335 0-.811-.194-5.466-2.229-1.21-.529-3.46-1.397-5-1.928-4.085-1.411-6.691-2.329-7.6-2.68-1.621-.626-8.055-2.457-9.8-2.789-.99-.189-2.79-.634-4-.989-2.229-.655-4.334-1.148-7.6-1.78a54.49 54.49 0 0 1-3.4-.787c-.88-.241-3.67-.712-6.2-1.046-2.53-.334-5.59-.79-6.8-1.012-1.21-.223-3.46-.564-5-.759-4.103-.518-32.341-.803-38.4-.388m-1.315 17.487c.384.442.698 1.923.851 4.02.308 4.217.19 4.084 3.588 4.056 6.792-.056 7.197-.293 7.312-4.269.118-4.074.602-4.507 5.035-4.507 4.876 0 5.514.517 5.523 4.471.008 3.759.034 3.774 7.009 4.122 6.89.345 6.101.796 6.572-3.756.211-2.038.595-3.96.853-4.271.863-1.04 7.899-.49 9.472.741.335.262.5 1.6.5 4.062 0 4.023.277 4.631 2.106 4.631.631 0 1.474.175 1.874.389 2.356 1.261 9.971 1.02 10.032-.318.374-8.202 1.534-9.51 7.356-8.292 4.359.912 4.518 1.203 3.614 6.622-.881 5.281-.77 5.591 2.259 6.314 1.187.284 3.397.905 4.91 1.38 2.517.791 5.252 1.129 5.538.685.613-.952 3.111-6.518 3.111-6.933 0-3.119 3.195-3.163 9.2-.128 1.498.758 1.507 2.587.027 5.749-1.735 3.708-1.656 5.051.373 6.332 1.914 1.209 1.955 1.621.558 5.733-1.429 4.21-1.963 4.712-4.362 4.108-2.624-.661-3.104-.381-4.579 2.667-2.297 4.746-2.978 4.977-7.639 2.592-3.978-2.035-4.201-2.479-2.765-5.5 1.589-3.346 1.546-3.53-1.113-4.722-2.294-1.029-7.425-2.095-8.093-1.682-.194.12-.579 1.25-.855 2.511-1.176 5.376-1.476 5.612-6.241 4.903-4.659-.693-5.115-1.172-4.726-4.964.521-5.08.588-4.773-1.161-5.353-2.455-.813-9.818-1.459-10.37-.909-.25.249-.65 2.325-.889 4.615-.567 5.43-.539 5.401-5.385 5.401-5.3 0-5.226.091-5.154-6.269.067-5.905.386-5.443-3.942-5.713-7.878-.493-8.252-.208-7.698 5.863.524 5.759.381 5.917-5.689 6.274-4.547.268-4.704.071-4.983-6.251-.266-6.008-.193-5.905-4.228-5.899-5.444.01-5.086-.402-5.086 5.852 0 6.313.353 5.914-5.523 6.239-4.676.259-4.846.075-5.342-5.798-.406-4.797-.42-4.812-4.335-4.501-8.486.672-8.919.97-8.295 5.698.696 5.267.923 5.071-6.932 5.953l-2.227.25-.639-1.749c-.351-.962-.753-2.589-.892-3.616-.352-2.587-.787-2.849-3.904-2.351-6.847 1.094-8.148 2.426-6.111 6.256 1.681 3.162 1.028 4.122-4.162 6.123-3.984 1.537-4.922 1.249-5.675-1.743-.245-.973-.787-2.078-1.204-2.455-.418-.378-.759-1.019-.759-1.425 0-.877-1.308-.978-3.635-.28-2.619.784-3.481-.199-5.166-5.892-.659-2.228-.422-3.053 1.097-3.813 3.003-1.502 3.127-2.206 1.104-6.298-1.85-3.744-1.555-6.455.703-6.455.277 0 1.368-.46 2.424-1.023 2.755-1.466 4.648-1.253 5.534.623.364.77 1.354 2.887 2.2 4.704 1.789 3.842 2.16 4.046 5.242 2.889 1.263-.474 3.214-1.013 4.336-1.197 1.121-.184 2.713-.616 3.537-.96l1.499-.626-.249-2.305c-.697-6.446-.707-7.753-.063-8.464.918-1.014 8.08-1.986 8.815-1.196.744.799 1.422 3.045 1.422 4.71 0 4.69 1.12 5.316 7.8 4.364 7.292-1.039 7-.807 7-5.563 0-4.358.022-4.396 2.8-4.792 3.705-.529 6.24-.405 6.885.336M72.924 159.906A394.534 394.534 0 0 1 67.16 165a338.377 338.377 0 0 0-10.42 9.4c-1.052.99-2.144 1.998-2.426 2.239-2.079 1.776-6.854 7.349-10.078 11.761-1.206 1.65-2.538 3.36-2.96 3.8-.422.44-.905 1.25-1.073 1.8-.168.55-.732 1.736-1.254 2.635-.522.899-.949 1.898-.949 2.22 0 .322-.203.788-.452 1.037-3.516 3.516-5.097 19.167-2.916 28.862.749 3.331.889 3.715 3.955 10.846.985 2.29 5.294 8.8 5.825 8.8.214 0 .388.234.388.519 0 .286.72 1.269 1.6 2.185.88.916 1.604 1.807 1.609 1.981.016.569 6.097 6.703 10.991 11.086 7.297 6.534 9.812 8.806 12 10.833 4.778 4.428 6.634 4.221 9.374-1.047.502-.967 1.029-1.847 1.17-1.957.141-.11.682-1.01 1.202-2C86.231 263.37 88 259.842 88 259.521c0-.204.417-1.304.926-2.446 1.83-4.098 3.559-9.191 4.44-13.075.374-1.65.832-3.63 1.017-4.4l.767-3.2c1.679-7.009 1.726-33.17.067-36.331-.193-.368-.655-2.109-1.026-3.869-.37-1.76-.825-3.74-1.01-4.4-1.272-4.539-2.122-7.256-2.377-7.6-.164-.22-.939-2.2-1.723-4.4-1.408-3.949-4.624-10.604-5.718-11.831-.31-.348-.565-.888-.567-1.2-.002-.313-.613-1.335-1.357-2.271-.744-.936-1.46-2.125-1.589-2.642-.941-3.748-4.009-4.611-6.926-1.95m252.712 2.807c-.838.882-1.921 2.387-2.406 3.345-.485.958-1.228 2.282-1.65 2.942-.423.66-.956 1.65-1.185 2.2-.229.55-.841 1.81-1.361 2.8-.519.99-1.611 3.51-2.425 5.6-.814 2.09-1.625 4.16-1.802 4.6-.864 2.144-2.134 6.19-2.448 7.8-.193.99-.639 3.24-.99 5-2.567 12.843-2.699 30.431-.308 41 .323 1.43.751 3.488.951 4.573.638 3.47 3.973 13.519 5.583 16.827.856 1.76 1.956 4.1 2.443 5.2.487 1.1 1.106 2.27 1.375 2.6.269.33.922 1.41 1.451 2.4 3.689 6.908 4.07 6.925 10.623.448 1.808-1.786 3.444-3.248 3.635-3.248.782 0 15.13-14.756 16.795-17.273.376-.567 1.397-2.088 2.271-3.379a169.375 169.375 0 0 0 2.089-3.148c.719-1.147 3.475-6.947 4.086-8.6.285-.77.661-1.76.837-2.2 2.032-5.098 2.542-19.221.888-24.6-3.501-11.381-8.385-19.267-18.459-29.8-2.765-2.89-14.575-13.659-17.349-15.817l-1.119-.872-1.525 1.602m-149.818 22.592c3.944.104 6.037 1.227 8.911 4.783.589.729 2.03 2.215 3.201 3.302 2.83 2.625 2.872 2.73 3.072 7.809.232 5.871.542 5.669-8.643 5.633-7.936-.031-8.359-.183-8.359-3.005 0-3.187-.468-3.427-6.691-3.427-7.724 0-6.909-2.316-6.909 19.631v18.307l1.3.412c1.476.467 11.038.402 11.8-.08.346-.22.5-1.56.5-4.355v-4.038l-1.576-1.455-1.575-1.454-.022-5.491-.023-5.491 1.298-.792c1.941-1.183 15.829-1.199 17.762-.02l1.265.771.046 18.388c.041 16.355-.024 18.459-.593 19.028-1.611 1.611-37.66.759-38.557-.912-.373-.695-3.544-3.994-6.449-6.709-1.992-1.863-2.468-2.417-3.122-3.639-.618-1.154-.636-42.431-.019-44.651.449-1.619 9.024-10.727 11.165-11.86 1.912-1.012 5.538-1.123 22.218-.685m84.493.518c.878.615.889.743.884 10.5-.008 13.052.742 11.677-6.362 11.677-6.723 0-6.831-.047-6.838-2.98-.012-4.227-2.449-5.796-6.569-4.23l-1.026.39v37.492l2.205.529c2.997.719 2.986.693 3.158 7.528.21 8.306 1.805 7.447-14.086 7.586-16.062.141-14.44.986-14.198-7.395.217-7.556.158-7.32 1.832-7.32 3.03 0 2.876.967 3.001-18.765.134-21.092.268-20.195-3.039-20.354-2.864-.138-3.273.344-3.273 3.856 0 3.497-.328 3.663-7.209 3.663-5.486 0-5.996-.062-6.377-.774-.763-1.425-.542-20.422.248-21.295.944-1.043 56.166-1.147 57.649-.108m-6.613 78.713c1.045.276 2.116.718 2.38.982.265.265.682.482.927.482 1.315 0 3.395 3.423 3.395 5.587 0 2.351-6.09 2.886-9.16.806-2.022-1.37-2.746-1.474-3.46-.498-.58.793.904 2.089 2.42 2.112 8.764.137 14.384 9.111 9.47 15.121-3.651 4.467-17.69 5.087-19.867.879-.286-.555-.886-1.339-1.333-1.744-4.467-4.042 3.41-8.024 8.038-4.063 1.685 1.442 3.331 1.801 4.212.92 1.346-1.346-.082-2.567-3.471-2.968-1.805-.214-6.902-2.406-7.197-3.095-.082-.19-.558-.702-1.058-1.137-2.175-1.891-2.166-7.308.017-10.17 2.469-3.238 9.099-4.688 14.687-3.214m-92.098.871c4.084 2.064 5.408 5.634 3.791 10.219-.589 1.668-.574 1.797.446 3.811 2.252 4.452.829 9.731-3.205 11.889-2.387 1.278-19.141 1.359-20.064.098-.736-1.006-.834-23.045-.113-25.45l.455-1.518 8.645.122c7.31.103 8.861.231 10.045.829m34.797-.608c1.439.769 1.913 5.714.648 6.764-.248.205-2.84.504-5.76.662-2.919.159-5.413.459-5.542.667-.529.857.903 1.319 4.708 1.52 5.398.284 6.233 1.315 4.905 6.051-.291 1.037-1.247 1.289-5.752 1.521-3.738.192-4.212.3-4.343.99-.283 1.479.964 1.826 6.566 1.826 6.183 0 6.253.041 6.253 3.613 0 4.111.358 3.987-11.528 3.987-12.56 0-11.152 1.717-11.152-13.6 0-13.941-.006-13.905 2.302-14.091 4.38-.354 17.989-.288 18.695.09m33.67.308c.623.623.915 5.672.375 6.476-.237.352-1.633.755-3.513 1.015l-3.12.431-.282 1.585c-.154.872-.291 4.957-.304 9.077-.028 9.059.121 8.815-5.268 8.626-4.479-.157-4.342.184-4.349-10.774-.007-9.86.288-9.143-3.762-9.143-3.418 0-3.882-.42-3.897-3.53-.008-1.616.21-2.85.61-3.461l.622-.949 11.191.07c8.428.053 11.315.195 11.697.577m-77.8 7.16c-1.165 1.164-.223 2.533 1.742 2.533 2.213 0 3.736-1.557 2.368-2.423-.668-.422-3.716-.505-4.11-.11m-.278 9.754c-.242.451-.383 1.216-.314 1.7.27 1.898 5.925 1.173 5.925-.76 0-1.681-4.786-2.483-5.611-.94" fill="#e75b13"/><path d="M190.251 72.282c-.452.452-.287 18.449.172 18.732.232.144.862.151 1.4.016l.977-.245.006-6.093c.003-3.35.165-6.343.36-6.65.437-.691 1.634-.29 1.634.548 0 .526 1.677 5.084 3.39 9.21.274.66.699 1.695.945 2.3.549 1.35 3.665 1.55 3.665.235 0-.208.36-1.179.8-2.157.44-.978 1.166-2.633 1.614-3.678.448-1.045.988-2.213 1.2-2.595.212-.382.386-.974.386-1.316 0-.341.387-1.379.859-2.305 1.238-2.424 1.479-1.4 1.513 6.416l.028 6.5h2.76l.12-5.9c.066-3.245.068-7.475.004-9.4l-.115-3.5h-2.785c-2.091 0-2.784.136-2.784.548 0 .302-.525 1.787-1.166 3.3-1.258 2.968-1.329 3.15-2.635 6.752-.908 2.503-2.219 3.332-2.533 1.6-.08-.44-.384-1.34-.676-2-.423-.956-2.951-8.047-3.58-10.04-.147-.467-5.121-.715-5.559-.278m-17.053 1.722c-.4.747-.853 2.537-2.985 11.796-.304 1.32-.814 3.359-1.133 4.532-.9 3.309 2.012 3.596 3.135.308.689-2.02.906-2.128 4.932-2.464 3.837-.319 4.306-.149 5.423 1.966.612 1.157 1.007 1.458 1.913 1.458 1.229 0 1.861-.887 1.216-1.705-.215-.272-.885-1.755-1.489-3.295-.603-1.54-1.564-3.79-2.135-5-.571-1.21-1.596-3.55-2.278-5.2l-1.24-3-2.454-.118c-2.152-.104-2.511-.015-2.905.722m45.443-.352c-.163.524-.756 6.443-1.417 14.148-.365 4.252-.665 3.948 4.5 4.56l5.476.649c1.777.21 2.506-.244 2.335-1.454-.128-.903-.355-.977-4.178-1.355-4.387-.434-5.555-.975-5.093-2.356.155-.464.386-1.564.513-2.444l.231-1.6 2.596.108c1.428.06 3.362.206 4.299.325 1.339.171 1.756.078 1.953-.435.403-1.05-.259-1.344-3.965-1.765-4.56-.519-4.898-.722-4.743-2.859.248-3.436.458-3.498 8.552-2.522l1.9.229V75.64c0-.71-.214-1.252-.5-1.268-.275-.016-2.12-.202-4.1-.413-8.301-.885-8.18-.881-8.359-.307m-64.753 2.157c-5.641 1.23-6.1 1.786-6.05 7.335.046 5.195.955 8.788 2.654 10.486 2.092 2.092 9.675 1.463 13.008-1.079l1.378-1.051-.139-3.336c-.185-4.429-.388-4.614-4.422-4.019-3.281.484-4.183.984-3.762 2.083.216.563.608.64 2.256.445 3.088-.365 4.224 2.54 1.754 4.483-2.098 1.65-8.565 1.373-8.565-.368 0-.412-.27-1.786-.6-3.053-.852-3.271-.802-7.437.1-8.216 2.077-1.797 7.287-2.121 8.337-.519 1.567 2.392 3.969.899 2.701-1.679-1.054-2.145-3.661-2.601-8.65-1.512m23.375 2.091c.245.605.97 2.252 1.611 3.66 1.663 3.652 1.493 4.175-1.474 4.516-3.832.44-4.96-1.6-2.96-5.35.198-.37.36-1.057.36-1.526 0-2.279 1.702-3.178 2.463-1.3m67.68-.496c-.427 1.113.398 1.964 2.204 2.272 2.944.503 2.949.535 1.405 7.924-1.622 7.756-1.66 8.708-.36 9.034 1.474.37 1.733-.025 2.404-3.659.323-1.746.761-3.805.973-4.575.213-.77.616-2.536.897-3.924.663-3.283.992-3.534 3.761-2.87 2.527.607 3.228.264 2.816-1.377-.168-.669-.533-1.029-1.045-1.029-.779 0-2.732-.424-6.598-1.433-3.924-1.024-6.155-1.149-6.457-.363m18.891 4.269c-.349.498-.634 1.212-.634 1.587 0 .772-2.485 10.315-3.464 13.306-.609 1.859-.604 1.995.086 2.5 1.543 1.128 2.415.661 3.013-1.613.181-.689.618-2.333.971-3.653.353-1.32 1.07-4.11 1.593-6.2.523-2.09 1.054-4.16 1.181-4.6.5-1.736-1.711-2.805-2.746-1.327m-137.434.33c-5.322.915-7.87 3.136-7.428 6.473.256 1.93.467 2.527 1.356 3.853.709 1.057 3.052 1.193 7.129.413l3.943-.755.9 1.029c1.768 2.02 1.045 4.273-1.7 5.302-3.128 1.172-5.566 1.049-5.995-.302-.58-1.828-3.194-1.166-2.761.7.659 2.839 3.032 3.575 7.572 2.346 6.132-1.659 7.774-3.399 6.709-7.114-1.244-4.34-2.773-4.97-8.996-3.709-3.977.805-5.129.314-5.129-2.186 0-1.813.684-2.542 3.2-3.416 2.431-.845 2.943-.802 4.327.363 2.081 1.751 4.357.744 3.042-1.345-1.331-2.116-2.167-2.339-6.169-1.652m146.623 2.486c-.343.489-.623 1.137-.623 1.44 0 .302-.254 1.117-.564 1.811-.309.693-.653 1.71-.762 2.26-.192.968-1.572 4.97-2.276 6.6-1.539 3.566-1.352 5.194.563 4.919.889-.127 2.573-3.058 2.615-4.552.013-.459.143-.953.289-1.099.405-.405 1.735-4.344 1.735-5.139 0-.385.356-.891.79-1.124 1.061-.568 1.146-.073 1.318 7.661.152 6.905.357 7.534 2.446 7.534.904 0 1.479-.304 2.051-1.085.77-1.051 3.354-4.043 5.972-6.915.702-.77 1.392-1.712 1.534-2.093.282-.755 1.489-.552 1.489.25 0 .516-1.407 4.766-2 6.043-2.033 4.375-2.1 7-.177 7 1.164 0 .945.464 4.155-8.8 2.626-7.579 2.914-9.2 1.636-9.2-.433 0-1.399-.292-2.148-.649-1.928-.919-1.701-1.12-9.012 7.975-2.713 3.375-3.04 3.116-3.099-2.46-.025-2.346-.07-5.468-.1-6.937l-.055-2.672-2.215-.828c-2.747-1.028-2.801-1.027-3.562.06M110.9 87.065c-.785.317-.585 2.075.3 2.628.534.333.8.933.8 1.803 0 1.535.538 1.676 1.396.366.555-.847.55-1.137-.052-3-.648-2.009-1.098-2.34-2.444-1.797m-9.1 3.177c-1.32.543-2.76 1.151-3.2 1.351-.44.2-1.7.739-2.8 1.199-2.909 1.215-3.188 1.407-3.319 2.284-.173 1.152.844 1.878 1.888 1.347.457-.233 1.193-.606 1.636-.829 1.483-.749 2.654-.082 3.407 1.939a95.021 95.021 0 0 0 1.381 3.467 253.2 253.2 0 0 1 1.993 4.906c1.493 3.773 1.585 3.872 2.984 3.235 1.248-.569 1.297-1.437.204-3.66a36.115 36.115 0 0 1-1.442-3.481c-.339-.99-1.068-2.79-1.621-4-1.779-3.898-1.364-4.956 2.416-6.163.517-.166.69-.55.6-1.335-.167-1.453-1.087-1.511-4.127-.26M298.773 97.1c-.891 1.925-2.045 4.4-2.565 5.5-3.734 7.9-3.723 7.797-.908 8.995 1.155.491 3.379 1.503 4.942 2.249 2.905 1.386 4.318 1.669 4.76.952.428-.692-.203-1.943-1.122-2.223-.484-.148-1.644-.611-2.579-1.03a64.34 64.34 0 0 0-2.675-1.133c-1.691-.643-1.895-1.623-.821-3.941 1.149-2.48 1.268-2.493 5.62-.624 3.724 1.6 5.341 1.562 4.269-.1-.264-.41-4.426-2.48-6.194-3.082-.963-.327-.913-2.509.096-4.163.814-1.337 1.498-1.572 2.709-.934 4.773 2.513 7.423 3.129 7.618 1.77.129-.903.118-.91-7.598-4.494-3.733-1.733-3.698-1.747-5.552 2.258M86.3 97.038c-1.495.798-1.475.89 1.643 7.418 1.509 3.159 2.871 6.149 3.027 6.644.156.495.452.9.657.9.205 0 .373.338.373.751 0 1.48 2.624 2.105 3.421.815.2-.324-2.174-5.575-5.262-11.634-.747-1.468-1.363-2.908-1.368-3.2-.024-1.417-1.337-2.31-2.491-1.694m98.9 10.001c-.77.085-3.74.351-6.6.591-5.741.482-12.62 1.359-15.4 1.965-.99.215-4.32.861-7.4 1.435-5.951 1.108-10.287 2.077-11.6 2.591-.44.172-2.6.79-4.8 1.373-5.022 1.33-11.294 3.31-14 4.417-.66.27-2.1.81-3.2 1.2-6.858 2.431-20.727 8.883-29.2 13.586-1.1.611-2.675 1.45-3.5 1.866-.825.416-1.5.919-1.5 1.119 0 .2-.405.492-.9.649-.495.156-2.043.978-3.441 1.827-1.397.848-2.588 1.542-2.645 1.542-.058 0-1.434.904-3.059 2.008a1748.189 1748.189 0 0 1-6.841 4.618c-3.809 2.558-4.865 3.359-7.087 5.374a86.773 86.773 0 0 1-2.265 1.967c-14.168 11.784-24.697 23.165-30.658 33.138-1.487 2.488-2.704 4.678-2.704 4.868 0 .19-.516 1.398-1.146 2.686-4.025 8.219-5.881 21.468-4.251 30.341 3.301 17.973 11.869 31.373 30.597 47.856 4.406 3.877 6.218 5.495 8.858 7.907 4.215 3.851 7.071 5.923 14.677 10.65.366.228 1.925 1.234 3.465 2.237 1.54 1.003 3.79 2.347 5 2.987 1.21.64 2.344 1.388 2.52 1.663.176.275.506.5.733.5.227 0 2.243 1.054 4.48 2.341 7.954 4.579 21.918 10.985 31.067 14.253 1.65.589 3.36 1.224 3.8 1.41 1.822.772 5.857 1.996 6.578 1.996.426 0 .886.18 1.022.4.136.22.655.4 1.154.4.498 0 2.152.421 3.676.936 1.523.515 6.28 1.697 10.57 2.626 4.29.929 8.353 1.857 9.028 2.063.676.206 1.689.375 2.251.375.563 0 2.26.257 3.772.571 12.614 2.618 36.274 3.22 55.549 1.413 8.996-.844 10.122-1.015 19-2.89 2.09-.441 4.61-.947 5.6-1.123a79.68 79.68 0 0 0 6.8-1.537c.99-.267 2.34-.629 3-.805.66-.175 2.19-.603 3.4-.95s3.01-.845 4-1.107c1.955-.517 4.926-1.465 6.2-1.979.44-.178 3.77-1.439 7.4-2.804 3.63-1.364 6.999-2.73 7.486-3.035.487-.304 1.143-.554 1.456-.554.314 0 2.166-.786 4.115-1.746 1.948-.96 5.073-2.487 6.943-3.392 1.87-.906 3.85-1.907 4.4-2.225.55-.318 1.27-.683 1.6-.811.33-.128 1.14-.562 1.8-.964.66-.402 2.273-1.327 3.585-2.055a103.358 103.358 0 0 0 4.481-2.666c1.152-.738 2.204-1.341 2.336-1.341.132 0 1.446-.776 2.919-1.724 5.85-3.765 7.97-5.093 10.079-6.312 1.21-.7 2.29-1.403 2.4-1.562.11-.16 1.73-1.599 3.6-3.198 3.026-2.587 5.835-5.131 14.141-12.804 2.068-1.91 8.06-7.976 10.459-10.586 1.972-2.145 9.798-13.086 9.802-13.701.001-.172.623-1.524 1.383-3.005 4.888-9.523 7.286-24.835 5.391-34.408-1.248-6.307-1.87-8.428-3.788-12.929-2.173-5.1-5.5-11.019-8.077-14.371-.508-.66-1.055-1.38-1.217-1.6-.162-.221-.789-1.064-1.394-1.874-.605-.81-1.1-1.578-1.1-1.706 0-.128-.768-.995-1.706-1.927-.938-.931-2.969-3.043-4.513-4.693-3.355-3.586-5.727-5.776-13.781-12.725-1.87-1.613-3.676-3.235-4.013-3.604-2.156-2.36-12.106-9.251-21.587-14.949-4.529-2.722-6.408-3.803-11.4-6.559-2.857-1.578-10.72-5.431-14-6.861-1.76-.768-4.19-1.843-5.4-2.391-2.374-1.073-3.39-1.468-8-3.108-1.65-.587-3.36-1.22-3.8-1.406-2.188-.927-15.435-4.911-19.822-5.962-4.352-1.042-10.739-2.37-13.578-2.824-15.939-2.545-19.891-2.868-36.8-3.006-8.25-.067-15.63-.052-16.4.034m32.909 10.564c4.23.442 8.771.971 10.091 1.176l6.551 1.013c2.284.352 5.434.925 7 1.272 1.567.347 3.569.78 4.449.962 3.232.668 4.832 1.05 6.2 1.48.77.242 2.21.648 3.2.902 2.127.545 11.177 3.451 16 5.137 3.102 1.084 5.161 1.913 8.66 3.488.694.312 1.414.566 1.6.564.675-.007 16.985 8.133 18.886 9.424.792.539 1.722.979 2.067.979.345 0 .798.171 1.007.38.481.48 6.94 4.411 7.307 4.447.15.014 1.083.643 2.073 1.398.99.754 2.2 1.546 2.689 1.759 2.087.91 1.652 2.772-1.872 8.016-1.294 1.926-7.217 13.616-7.217 14.244 0 .129-.285.892-.633 1.696-.349.803-.864 2-1.144 2.66-5.378 12.635-8.716 41.036-6.253 53.2.223 1.1.689 3.856 1.035 6.125 1.93 12.625 7.88 28.489 14.806 39.475 3.643 5.779 3.643 5.795-.06 8.034-1.424.861-3.526 2.136-4.67 2.832-7.916 4.818-20.656 11.44-27.281 14.182-2.64 1.092-5.16 2.19-5.6 2.439-.866.49-7.426 2.855-13.2 4.76-3.291 1.085-10.766 3.174-14.2 3.968-.77.179-2.57.617-4 .976-19.29 4.831-45.304 6.362-67.8 3.991-7.031-.741-23.44-3.387-25.4-4.095-1.149-.416-5.825-1.721-9.6-2.681-3.789-.963-19.081-6.085-20.6-6.9-.44-.236-2.845-1.275-5.345-2.308-2.5-1.034-6.657-2.941-9.239-4.239-2.581-1.297-4.842-2.359-5.023-2.359-.182 0-.614-.244-.962-.542-.347-.298-2.251-1.406-4.231-2.462-1.98-1.057-4.699-2.613-6.043-3.458-1.344-.846-2.633-1.538-2.865-1.538-1.117 0-2.544-2.471-1.933-3.35.493-.71 3.701-5.722 5.024-7.85 2.841-4.567 5.364-9.625 7.808-15.65 1.015-2.502 1.997-4.91 2.182-5.35.185-.44.562-1.61.839-2.6.277-.99.727-2.52 1.001-3.4 4.297-13.811 5.796-38.729 2.997-49.8-.195-.77-.637-3.122-.983-5.227-.59-3.59-2.814-11.488-3.993-14.175-.29-.66-.661-1.83-.825-2.6-.164-.769-.527-1.668-.806-1.998-.28-.33-.641-1.05-.803-1.6-.507-1.716-3.328-7.85-4.048-8.8-.25-.33-1.127-1.86-1.95-3.4-.822-1.54-1.834-3.278-2.248-3.862-.415-.584-.754-1.171-.754-1.306 0-.134-.9-1.482-2-2.994-1.1-1.512-2-2.937-2-3.165 0-.443 2.778-2.873 3.284-2.873.166 0 1.43-.687 2.809-1.526 1.379-.839 2.777-1.651 3.107-1.803.33-.153 1.14-.611 1.8-1.018 5.192-3.201 16.609-8.732 23.2-11.24.44-.167 1.644-.696 2.675-1.174 2.074-.962 6.739-2.646 9.525-3.436.99-.282 2.879-.909 4.197-1.395 1.319-.486 4.109-1.328 6.2-1.871l7.603-1.976c6.283-1.635 14.078-2.981 24-4.146 3.85-.452 8.08-.976 9.4-1.163 5.075-.72 26.112-.505 34.309.351M175.6 135.759l-3.4.441v4.128c0 4.936-.101 5.064-4.324 5.477a98.529 98.529 0 0 0-5.933.812c-3.358.583-4.617.439-4.907-.56-.172-.593-.603-2.99-1.233-6.857-.363-2.226-1.141-3-2.487-2.474-.614.24-2.156.556-3.427.703-3.555.409-3.917 1.5-2.44 7.355 1.025 4.064.772 4.405-4.14 5.579-1.93.462-4.499 1.115-5.709 1.453-3.718 1.037-4.39.702-6.115-3.044-.817-1.773-1.491-3.437-1.498-3.698-.051-1.796-2.065-2.632-4.127-1.712-.693.31-1.724.665-2.291.791-.567.125-1.508.67-2.091 1.21l-1.059.981 1.03 2.328c.566 1.28 1.381 3.112 1.812 4.069 1.058 2.356.869 2.887-1.462 4.097-2.418 1.255-2.584 2.712-.769 6.757 1.21 2.696 1.607 2.85 4.602 1.794.953-.336 1.939-.532 2.191-.435.526.201 2.977 5.108 2.977 5.959 0 1.826 1.422 2.035 4.681.689 4.921-2.034 5.012-2.176 3.49-5.503-1.884-4.118-1.687-4.651 2.054-5.544 1.526-.365 3.619-.909 4.65-1.209 3.958-1.152 4.149-1.018 5.074 3.557.825 4.08.968 4.169 5.583 3.485 4.311-.638 4.206-.481 3.62-5.452-.59-5.002-.507-5.051 10.091-5.977 3.618-.316 3.414-.557 3.77 4.445.458 6.445.538 6.526 5.853 5.916 4.424-.508 4.111-.002 3.534-5.717-.653-6.475-.714-6.403 5.438-6.403 5.463 0 5.109-.417 5.362 6.315.238 6.338.144 6.217 4.6 5.882 5.147-.385 4.759.115 4.462-5.758-.361-7.139-.549-6.941 6.27-6.606 7.398.364 7.135.112 6.81 6.531-.302 5.953-.712 5.418 4.48 5.842 4.063.332 4.192.196 4.684-4.928.623-6.489.263-6.324 10.258-4.721 4.255.682 4.563.932 4.238 3.443-.873 6.757-.992 6.483 3.105 7.184 4.787.819 5.854-.089 5.885-5.008.02-3.051 1.381-3.137 10.12-.637 2.932.838 3.128 1.469 1.582 5.111-1.465 3.453-1.435 3.524 2.199 5.18 4.429 2.018 4.502 1.995 6.56-2.13 1.938-3.882 1.394-3.584 5.863-3.21 1.46.122 1.912-.485 3.631-4.874.962-2.457.858-2.717-1.578-3.933-1.854-.925-1.933-2.173-.351-5.565 2.47-5.295 2.181-6.121-2.713-7.75-3.008-1.001-3.548-.861-4.345 1.126-2.954 7.365-3.766 8.377-6.152 7.667-1.855-.551-8.194-2.081-9.408-2.271-2.734-.427-2.962-1.27-1.948-7.215.773-4.536.505-5.001-3.15-5.468-1.156-.147-2.686-.42-3.4-.605-1.466-.38-1.845.465-2.91 6.478-.75 4.232-.38 4.081-7.595 3.108-3.408-.46-6.695-1.028-7.304-1.263l-1.106-.427.106-4.248.107-4.248-3.4-.462c-5.44-.738-5.284-.867-5.872 4.86l-.328 3.2-6.662.109c-8.159.135-7.938.26-7.938-4.495 0-3.922.125-3.817-4.533-3.808-4.262.008-4.338.071-4.45 3.655-.149 4.79-.08 4.739-6.396 4.739h-5.351l-.223-1.5c-.123-.825-.336-2.507-.474-3.739-.394-3.531-.654-3.666-5.773-3.002M78.449 158.5c.857.935 1.67 2.06 1.809 2.5.138.44.632 1.256 1.097 1.813.465.558 1.295 1.903 1.845 2.99.55 1.087 1.225 2.219 1.5 2.515.275.297.5.751.501 1.011.001.259.631 1.515 1.4 2.791.769 1.276 1.401 2.536 1.403 2.8.002.264.446 1.38.987 2.48.541 1.1.99 2.22.996 2.489.007.269.438 1.439.958 2.6 1.383 3.09 2.823 8.318 4.603 16.711 3.495 16.47 1.475 39.992-4.745 55.256-.66 1.619-1.201 3.104-1.202 3.3-.001.44-6.787 13.967-7.144 14.244-.508.392-2.457 3.45-2.457 3.855 0 .734-3.055 3.745-3.801 3.745-.738 0-3.117-1.585-4.199-2.797-.33-.37-2.13-1.949-4-3.508-1.87-1.56-3.691-3.165-4.047-3.566-.356-.401-1.705-1.629-2.997-2.729-2.124-1.809-12.188-11.744-14.383-14.2-.929-1.039-4.025-5.427-6.46-9.154-7.587-11.617-9.507-28.62-4.634-41.046 1.366-3.482 4.772-10.1 6.109-11.868a386.657 386.657 0 0 0 3.329-4.5c1.054-1.448 2.077-2.632 2.273-2.632.196 0 .463-.336.593-.746.286-.901 8.605-9.388 12.209-12.454 1.421-1.21 3.148-2.74 3.836-3.4.688-.66 2.133-1.945 3.211-2.856 1.949-1.645 3.301-2.84 5.52-4.879 3.177-2.918 3.84-3.004 5.89-.765m255.009 6.9c11.589 10.234 20.968 20.241 23.788 25.385a60.993 60.993 0 0 0 1.533 2.615c.707 1.121 2.452 4.581 3.228 6.4 1.572 3.685 1.989 4.791 2.516 6.661 4.062 14.432-.834 33.734-11.55 45.539-.3.33-2.091 2.343-3.98 4.474-1.89 2.13-3.593 3.93-3.785 4-.193.069-1.68 1.386-3.306 2.926a392.65 392.65 0 0 1-5.929 5.478 331.847 331.847 0 0 0-5.517 5.1c-3.306 3.148-4.22 3.063-6.222-.578-.363-.66-1.196-2.1-1.852-3.2-1.684-2.828-6.382-12.479-6.382-13.112 0-.29-.155-.699-.345-.908-.704-.774-3.542-9.719-4.88-15.38-5.408-22.886-.638-54.903 10.933-73.386a316.51 316.51 0 0 0 2.06-3.4c3.04-5.066 2.257-5.178 9.69 1.386m-183.752 25.2c-2.556 2.53-4.806 4.6-4.999 4.6-1.888 0-3.002 44.333-1.194 47.497 1.181 2.068 10.493 10.804 11.793 11.065 2.23.447 34.027.226 34.589-.241.968-.803.709-36.984-.269-37.507-1.173-.628-16.489-.549-17.362.09-.603.44-.675 1.173-.576 5.881l.112 5.377 1.5.79 1.5.789v5.122c0 6.14.794 5.612-8.2 5.451l-6.4-.114v-39.2l6.747-.11c7.667-.125 7.853-.064 7.853 2.585 0 3.382-.138 3.325 8.006 3.325h7.179l.248-.988c.136-.543.184-2.593.107-4.556l-.14-3.568-3.6-3.74c-1.98-2.056-4.461-4.506-5.513-5.444L179.173 186h-24.82l-4.647 4.6m53.574-4.12c-.508.508-.724 19.218-.237 20.487.205.535 1.1.633 5.786.633 6.459 0 6.371.057 6.371-4.094 0-3.268.271-3.506 4-3.506 4.353 0 4.001-1.742 3.994 19.78-.007 20.859.129 19.905-2.871 20.207l-2.123.213-.11 6.481c-.1 5.92-.047 6.514.618 6.87.827.442 19.583.605 23.501.204l2.549-.261.121-1.447c.067-.796.067-3.808 0-6.694l-.121-5.247-2.048-.242c-1.127-.134-2.199-.393-2.383-.577-.184-.184-.288-9.054-.231-19.711l.104-19.376 3.704-.115c4.322-.134 4.496.033 4.496 4.327 0 3.065.252 3.188 6.531 3.188 4.365 0 5.021-.087 5.285-.7.636-1.477.6-19.016-.041-19.994l-.593-.906h-27.911c-21.175 0-28.027.116-28.391.48m43.088 78.292c-9.938 1.943-11.752 12.911-2.568 15.525.88.25 2.5.715 3.6 1.032 1.1.317 2.493.691 3.095.83.602.14 1.391.705 1.753 1.258 1.828 2.79-4.227 3.882-6.572 1.184-.919-1.056-3.448-1.347-6.471-.742-1.234.247-1.285.33-1.092 1.768 1.105 8.238 20.02 8.96 22.272.85 1.668-6.005-.942-9.363-8.769-11.281-5.237-1.283-6.944-3.023-4.252-4.334 1.463-.713 3.468-.305 4.642.944 1.232 1.312 6.886 1.517 7.551.274 1.999-3.735-6.73-8.571-13.189-7.308M143.5 265.887c-.826.916-1.085 23.447-.286 24.939.697 1.303 15.752 1.159 18.586-.176 4.739-2.234 6.099-7.965 2.756-11.614-1.334-1.456-1.371-1.798-.329-3.036 2.457-2.919.896-7.938-3.027-9.732-2.738-1.251-16.644-1.551-17.7-.381m32.696.213c-.121.495-.17 6.39-.108 13.1l.112 12.2 10.255.107c11.47.119 10.52.38 10.971-3.019.363-2.733.07-2.874-6.482-3.129-6.655-.259-6.399-.191-6.627-1.742-.326-2.223.245-2.512 5.147-2.603 5.318-.099 5.336-.108 5.336-2.824 0-2.568-.607-3.082-3.526-2.983-5.904.201-6.974-.072-6.974-1.778 0-1.586.097-1.613 6.432-1.829l5.868-.2.121-2.59c.175-3.724.515-3.61-10.79-3.61h-9.516l-.219.9m31.104-.3c-.728.522-.9 1.029-.9 2.649 0 3.276.31 3.551 4 3.551 4.079 0 3.888-.489 3.975 10.176.084 10.413-.338 9.424 4.025 9.424 4.476 0 4.145.771 4.392-10.2l.208-9.2 3.4-.2 3.4-.2.103-2.6c.16-4.029.865-3.782-11.188-3.923-9.169-.107-10.63-.04-11.415.523m-50.9 5.915c2.535 1.276.692 4.285-2.625 4.285-2.05 0-2.975-.773-2.975-2.484 0-2.114 3.038-3.091 5.6-1.801m.343 9.125c3.827 1.334 1.577 4.76-3.126 4.76-2.794 0-3.431-1.068-2.565-4.3.278-1.036 3.331-1.283 5.691-.46" fill="#f9f4ee"/><path d="M0 200v200h400V0H0v200M195.834 71.618c.833.312 2.403 3.927 4.031 9.282.778 2.559 1.168 2.827 1.745 1.2.215-.605.57-1.413.79-1.795.22-.382.4-.877.4-1.102 0-.224.45-1.34 1-2.48s1-2.379 1-2.754c0-1.84 1.202-2.413 4.8-2.287l3.4.118.107 9.75c.119 10.784.105 10.85-2.323 10.85-2.814 0-2.784.059-2.784-5.443 0-6.603-.023-6.595-3.019 1.043-1.685 4.295-1.768 4.385-4.019 4.394-1.938.007-2.534-.566-3.532-3.394-.388-1.1-.938-2.54-1.222-3.2a51.201 51.201 0 0 1-1.035-2.679C194.338 80.74 194 81.74 194 86.595c0 5.687-.653 6.53-4.3 5.553l-.9-.241v-9.931c0-11.891.592-12.763 7.034-10.358M179.291 72.7c.338.385.739 1.15.892 1.7.153.55.607 1.72 1.009 2.6.402.88 1.094 2.41 1.537 3.4.443.99 1.428 3.15 2.188 4.8 2.893 6.28 2.914 7.008.213 7.293-2.21.233-2.987-.175-3.734-1.965l-.603-1.443-2.96.224c-3.516.266-4.633.767-4.633 2.076 0 2.295-4.826 3.759-5.361 1.627-.137-.544-.051-1.759.189-2.7.241-.942.574-2.522.739-3.512.166-.99.525-2.61.799-3.6.273-.99.675-2.52.893-3.4.217-.88.563-2.153.768-2.828.205-.676.373-1.63.373-2.119 0-2.454 5.962-4.122 7.691-2.153m46.709.053c5.47.454 6.402.824 6.394 2.537-.011 2.356-.191 2.427-5.369 2.103l-4.676-.292.126 1.749.125 1.75 3.334.276c3.747.311 5.266 1.033 5.266 2.505 0 1.83-.773 2.118-5.128 1.908-4.372-.21-5.271.266-4.711 2.497.239.952.338.978 6.52 1.675 3.004.339 4.519 3.103 2.414 4.404-.877.542-13.467-.504-14.138-1.175-.333-.333-.235-5.44.115-6.007.155-.25.422-2.171.595-4.269.883-10.709.848-10.601 3.268-10.25.916.133 3.555.398 5.865.589m-63.805 2.114c2.29 1.801 2.825 4.792 1.025 5.723-1.666.861-2.632.761-3.784-.39-1.232-1.232-4.227-1.373-6.468-.304l-1.46.696.271 2.204c.149 1.212.376 3.104.505 4.204.433 3.705 1.854 4.818 5.179 4.06 3.992-.91 5.077-3.777 1.258-3.325-2.351.278-3.521-.376-3.521-1.968 0-1.336 1.054-2.167 2.749-2.167.82 0 1.666-.175 1.88-.389.452-.452 4.244-.661 4.878-.269.612.379 1.293 3.891 1.293 6.671 0 2.989-1.221 4.561-4 5.151-.99.21-2.658.575-3.706.809-8.169 1.83-10.687-.578-11.538-11.03-.464-5.686-.068-7.135 2.306-8.444 3.62-1.997 11.25-2.713 13.133-1.232m87.844 1.575c2.069.463 4.841 1.021 6.161 1.239 3.541.586 4.428 1.168 4.258 2.793-.285 2.731-1.441 3.318-4.459 2.266-1.607-.56-2.199.031-2.602 2.597-.144.915-.417 2.203-.607 2.863-.19.66-.651 2.82-1.024 4.8-.938 4.977-1.744 5.748-4.55 4.348-1.687-.842-1.647-1.563.606-10.948.343-1.43.726-3.011.85-3.514.321-1.294-.881-2.486-2.505-2.486-1.613 0-2.567-.892-2.567-2.4 0-2.517 1.036-2.768 6.439-1.558m-74.152 3.636c-.346.814-.686 2.254-.758 3.2L175 85l1.8-.141c2.266-.176 2.237-.136 1.425-1.945-1.07-2.386-1.354-3.071-1.539-3.714-.107-.374-.408-.044-.799.878m91.413.479c.787.597.871 1.417.331 3.215-.203.675-.657 2.308-1.01 3.628-1.263 4.721-1.516 5.611-1.822 6.4-.171.44-.621 1.97-1.001 3.4a244.03 244.03 0 0 1-.851 3.152c-.246.84-3.376.299-4.208-.728-.505-.624-.581-1.095-.31-1.925.197-.604 1.167-4.366 2.155-8.358 2.314-9.354 2.31-9.344 4.38-9.328.9.007 1.951.252 2.336.544m-134.2 1.907c1.754 2.19 1.704 2.716-.386 4.045-1.581 1.006-2.914.874-3.828-.38l-.78-1.072-2.236.704c-3.218 1.012-3.698 4.314-.533 3.665 7.839-1.607 9.972-1.09 11.268 2.728 2.144 6.316-.903 9.596-9.72 10.465-3.866.381-5.219-.408-6.105-3.559-.817-2.908 3.33-4.583 5.008-2.022.744 1.136 2.098 1.121 4.912-.054 2.282-.953 1.318-4.202-1.058-3.56-7.346 1.984-9.982 1.263-11.396-3.117-1.589-4.919-.799-6.158 5.754-9.017.55-.24 2.53-.439 4.4-.442l3.4-.007 1.3 1.623m143.474.508c3.367 1.014 3.426 1.145 3.426 7.657 0 7.07.116 7.457 1.635 5.472 5.731-7.485 8.842-9.842 10.165-7.701.136.22.687.4 1.224.4 2.871 0 2.905 1.768.181 9.2-.928 2.53-1.784 4.96-1.904 5.4-.119.44-.346.98-.504 1.2-.158.22-.414.94-.569 1.6-.657 2.793-2.064 3.605-4.401 2.539-1.763-.803-1.772-1.836-.049-5.739 2.443-5.533 2.188-6.712-.647-3-.589.77-1.894 2.27-2.9 3.334-1.007 1.063-1.831 2.098-1.831 2.3 0 .541-3.299.42-4.014-.147-.72-.57-1.576-5.955-1.607-10.108l-.021-2.779-.813 2.2c-3.401 9.197-3.126 8.821-5.725 7.829-2.307-.881-2.428-1.485-.972-4.829.192-.44.698-1.88 1.125-3.2 4.14-12.797 4.171-12.841 8.201-11.628M113.72 86.9c1.562 3.325 1.11 6.519-1.031 7.271-1.39.489-2.024-.089-1.976-1.803.02-.698-.304-1.741-.719-2.318-1.341-1.863-1.374-2.96-.111-3.739 1.819-1.123 3.127-.922 3.837.589m-7.229 1.8c1.543 1.757.741 4.5-1.316 4.5-.378 0-1.06.315-1.516.7l-.829.7.78 2.2c.429 1.21 1.142 2.855 1.585 3.654.443.8.805 1.723.805 2.05 0 .327.462 1.422 1.026 2.432 1.482 2.651 1.244 4.234-.785 5.225-2.52 1.23-2.511 1.241-6.042-7.761-.819-2.09-1.649-3.971-1.844-4.18-.195-.209-.355-.704-.355-1.1 0-.974-1.208-.924-2.982.123-1.667.983-3.194.391-3.647-1.416-.538-2.142.07-2.725 4.629-4.444 3.131-1.18 3.772-1.443 4.932-2.02.623-.31 1.468-.563 1.877-.563.409 0 .855-.18.991-.4.397-.642 2.022-.461 2.691.3m195.96 3.906c.742.333 1.619.761 1.949.951 1.884 1.084 6.516 3.243 6.958 3.243 1.45 0 2.063 1.574 1.218 3.129-1.028 1.891-2.126 1.88-6.099-.06-3.231-1.578-3.907-1.553-4.282.155-.307 1.398-.006 1.976 1.029 1.976.427 0 .776.18.776.4 0 .22.232.4.515.4.594 0 3.243 1.301 4.103 2.015 1.3 1.079.257 3.585-1.493 3.585-.449 0-2.178-.637-3.841-1.416-3.319-1.554-3.641-1.558-4.444-.059-.902 1.686 1.194 3.378 6.448 5.202 1.118.388 1.338 2.179.419 3.408-.957 1.278-2.154 1.244-4.881-.136a103.79 103.79 0 0 0-4.226-1.98c-1.32-.58-2.85-1.278-3.4-1.55-1.531-.757-1.495-2.357.127-5.643 1.438-2.912 2.415-5.058 4.649-10.207 1.737-4.005 2.264-4.406 4.475-3.413M88.501 96.3c.578.647 2.755 5.064 5.867 11.9a206.99 206.99 0 0 0 1.689 3.64c.726 1.472.259 2.664-1.381 3.525-2.185 1.148-2.482.891-4.79-4.165a561.67 561.67 0 0 0-3.446-7.273c-2.672-5.557-2.921-6.757-1.54-7.43 2.158-1.051 2.807-1.087 3.601-.197m126.299 9.714c6.584.401 9.924.755 17 1.806 2.42.359 5.12.737 6 .839.88.103 1.96.34 2.4.528.761.326 3.449.917 7.4 1.63 3.269.589 5.79 1.21 6.495 1.599.382.211 1.138.384 1.681.384.542 0 1.4.168 1.905.373.506.205 1.999.677 3.319 1.049 4.566 1.286 10.402 3.111 11 3.439 1.051.577 8.178 3.133 8.746 3.136.3.002 1.38.437 2.4.968 2.55 1.328 6.336 3.035 6.729 3.035.612 0 19.743 9.84 20.125 10.351.374.5 2.37 1.649 2.864 1.649.271 0 1.133.419 1.914.93 3.685 2.411 6.281 4.092 6.895 4.463.37.224 2.26 1.472 4.2 2.773 1.94 1.301 4.23 2.83 5.089 3.397.859.567 2.046 1.483 2.637 2.034.592.552 2.049 1.846 3.238 2.876a375.378 375.378 0 0 1 3.363 2.946c.66.59 1.605 1.342 2.1 1.673.495.33.9.775.9.99 0 .415 1.607 1.882 2.086 1.905.158.007.803.508 1.433 1.113.631.605 2.122 2.025 3.314 3.155 5.45 5.169 12.347 12.955 14.833 16.745 3.25 4.955 4.455 7.026 6.165 10.6.79 1.65 1.705 3.501 2.033 4.113.328.612 1.05 2.682 1.604 4.6 2.923 10.121 3.3 20.536 1.104 30.487-.316 1.43-.574 2.855-.573 3.166.003 1.507-5.719 13.634-6.433 13.634-.201 0-.366.291-.366.646 0 .697-2.875 5.232-5.168 8.154-4.209 5.362-8.259 9.631-15.08 15.895a354.666 354.666 0 0 0-4.552 4.243c-4.557 4.389-10.939 9.906-13.005 11.243-9.087 5.88-12.358 7.927-15.68 9.81a319.037 319.037 0 0 0-5.968 3.509c-1.916 1.155-3.701 2.1-3.966 2.1-.266 0-.677.234-.915.521-.238.286-1.745 1.164-3.349 1.95-7.259 3.56-11.413 5.529-11.663 5.529-.148 0-1.793.72-3.654 1.6-1.861.88-3.522 1.599-3.692 1.599-.291-.001-4.007 1.456-6.768 2.654-.694.301-1.551.547-1.906.547s-.957.162-1.339.36c-.382.198-1.775.686-3.095 1.084-1.32.398-2.58.85-2.8 1.005-.392.276-5.829 1.818-7.8 2.211-.55.11-1.36.344-1.8.52-1.612.645-5.294 1.62-6.116 1.62-.466 0-1.26.164-1.765.365-.506.2-2.719.658-4.919 1.018-2.2.359-5.26.902-6.8 1.206-1.54.304-4.42.753-6.4.998-1.98.245-4.41.62-5.4.833-7.969 1.715-39.986 1.561-51.8-.249-2.2-.337-5.17-.762-6.6-.945-5.497-.702-15.333-2.672-21.6-4.326-8.318-2.195-8.721-2.313-13.2-3.881-2.31-.808-4.882-1.641-5.717-1.85-.834-.209-2.274-.714-3.2-1.121-.925-.407-3.033-1.237-4.683-1.844s-3.788-1.531-4.75-2.054c-.963-.522-1.953-.951-2.2-.953-.439-.003-8.258-3.624-9.45-4.376-.33-.208-1.68-.923-3-1.59-1.32-.666-2.67-1.367-3-1.557-.33-.19-1.59-.852-2.8-1.47-1.21-.618-2.974-1.637-3.92-2.264-.946-.627-1.936-1.14-2.2-1.14-.264-.001-1.003-.451-1.642-1-.639-.55-1.379-1-1.643-1s-1.305-.63-2.313-1.4c-1.009-.77-1.937-1.4-2.063-1.4-.126 0-1.955-1.17-4.064-2.6-2.109-1.43-3.975-2.6-4.146-2.6-.171 0-.538-.273-.815-.607-.277-.334-1.089-.885-1.804-1.225-.716-.339-2.225-1.461-3.355-2.492-2.137-1.952-5.751-5.183-6.572-5.876-7.948-6.712-22.663-21.498-22.663-22.773 0-.156-.299-.583-.664-.948-1.005-1.005-5.416-7.936-6.924-10.879a305.28 305.28 0 0 0-1.655-3.2c-.597-1.11-2.757-7.978-2.757-8.77 0-.43-.156-.879-.347-.997-.191-.118-.455-.984-.587-1.924a56 56 0 0 0-.636-3.509c-.487-2.217-.501-13.868-.019-16.6.575-3.264 1.078-5.467 1.781-7.8.365-1.21.819-2.74 1.009-3.4 1.037-3.607 4.082-9.722 6.699-13.454.715-1.019 1.3-1.983 1.3-2.142 0-.159.453-.854 1.006-1.546.553-.692 1.14-1.438 1.304-1.658 3.815-5.13 12.642-14.416 17.871-18.8 1.05-.88 2.564-2.23 3.364-3.001 3.921-3.775 10.583-9.191 14.401-11.708a814.924 814.924 0 0 0 7.559-5.047c3.648-2.477 6.589-4.255 8.047-4.865.524-.22 1.452-.755 2.063-1.189 1.688-1.202 6.006-3.59 6.492-3.59.236 0 .714-.244 1.062-.542.959-.825 5.726-3.295 6.95-3.602.594-.149 1.081-.421 1.081-.604 0-.182 1.215-.837 2.7-1.454 1.485-.618 2.871-1.275 3.08-1.46.209-.186.632-.338.94-.338.308 0 2.076-.72 3.928-1.6 1.852-.88 3.713-1.6 4.136-1.6.423 0 .88-.18 1.016-.4.136-.22.524-.4.863-.4.339 0 1.183-.253 1.877-.562.693-.31 2.16-.879 3.26-1.266 1.1-.387 2.171-.854 2.38-1.038.209-.184.706-.334 1.105-.334s1.038-.177 1.42-.394c.796-.451 10.404-3.238 13.695-3.973 1.21-.27 3.1-.733 4.2-1.029 2.135-.574 4.475-1.064 9.6-2.01 1.76-.325 4.1-.765 5.2-.977 5.163-.995 17.167-2.365 22.4-2.557 7.338-.27 23.44-.184 29 .154m-141.271 1.903c.072.499-.221 2.117-.649 3.595-1.96 6.759-1.844 8.407.599 8.475.263.007 1.343.486 2.4 1.064 1.056.579 2.397 1.302 2.979 1.609 2.852 1.501 2.314 2.717-1.362 3.073-9.239.895-8.608.315-10.28 9.444-.517 2.822-2.416 4.546-2.416 2.194 0-.32-.175-.894-.389-1.276-.213-.382-1.154-2.36-2.091-4.395-1.887-4.102-1.762-4.028-5.565-3.271-9.455 1.88-10.035 1.15-3.364-4.229 3.786-3.052 4.132-3.79 3-6.4-.191-.44-.725-1.7-1.186-2.8-.461-1.1-1.101-2.478-1.421-3.062-1.313-2.387-.394-3.453 1.756-2.038 2.055 1.352 2.678 1.712 4.768 2.752 1.159.577 2.204 1.206 2.323 1.398.605.979 4.14-1.504 8.169-5.736 1.553-1.632 2.533-1.775 2.729-.397m267.008.492c-.035.765-.53 3.101-1.099 5.191-1.328 4.874-1.231 5.23 1.861 6.813 5.83 2.986 6.301 3.284 6.301 3.989 0 .727-1.464 1.125-5.716 1.553-5.277.531-5.648.716-6.247 3.129a145.695 145.695 0 0 1-1.057 3.951c-.319 1.119-.58 2.384-.58 2.811 0 2.037-1.611 3.061-2.287 1.454a353.929 353.929 0 0 0-1.662-3.827c-.66-1.5-1.318-3.268-1.463-3.927-.369-1.682-.748-1.73-6.457-.812-7.998 1.285-8.1.772-1.036-5.242 3.245-2.762 3.431-3.305 2.105-6.166-.44-.949-1.173-2.581-1.629-3.626-.455-1.045-1.002-2.222-1.213-2.616-.811-1.509.593-1.945 2.642-.82.66.362 1.74.953 2.4 1.312.66.36 2.049 1.156 3.088 1.77 2.412 1.426 2.551 1.368 7.112-2.95 4.086-3.868 5.04-4.251 4.937-1.987" fill="#040404"/><path d="M189.7 71.41c-.892.63-.9.723-.9 10.566v9.931l.9.241c3.647.977 4.3.134 4.3-5.553 0-4.855.338-5.855 1.173-3.474.286.814.751 2.019 1.035 2.679.284.66.834 2.1 1.222 3.2.998 2.828 1.594 3.401 3.532 3.394 2.251-.009 2.334-.099 4.019-4.394 2.996-7.638 3.019-7.646 3.019-1.043 0 5.502-.03 5.443 2.784 5.443 2.428 0 2.442-.066 2.323-10.85L213 71.8l-3.4-.118c-3.598-.126-4.8.447-4.8 2.287 0 .375-.45 1.614-1 2.754s-1 2.256-1 2.48c0 .225-.18.72-.4 1.102-.22.382-.575 1.19-.79 1.795-.577 1.627-.967 1.359-1.745-1.2-1.628-5.355-3.198-8.97-4.031-9.282-1.996-.745-5.219-.854-6.134-.208m5.7.42c.86.235 1.604 1.924 3.82 8.67 1.275 3.882 2.07 4.806 2.58 3 .14-.495.629-1.89 1.086-3.1.816-2.159 1.018-2.653 2.666-6.517l.818-1.917 3.115.117 3.115.117.108 9.112c.119 10.114.009 10.688-2.042 10.688-2.122 0-2.266-.411-2.266-6.48 0-4.64-.096-5.52-.6-5.52-.33 0-.6.337-.6.748 0 .649-.779 2.668-3.053 7.912-.301.694-.547 1.448-.547 1.678 0 .678-1.693 1.662-2.86 1.662-1.113 0-2.74-1.58-2.74-2.659 0-.304-.158-.864-.35-1.246-.644-1.275-2.85-7.144-2.85-7.58 0-.606-1.193-.996-1.232-.402-.017.268-.004 2.679.028 5.359.073 5.967-.883 7.58-3.622 6.114-.95-.508-1.222-18.578-.294-19.506.486-.486 4.253-.651 5.72-.25m-22.742 1.151c-.582.539-1.058 1.382-1.058 1.872 0 .489-.168 1.443-.373 2.119a65.213 65.213 0 0 0-.763 2.828c-.214.88-.677 2.606-1.027 3.835-.35 1.229-.619 2.759-.596 3.4l.041 1.165.333-1.2c.183-.66.899-3.63 1.591-6.6.692-2.97 1.476-5.85 1.741-6.4.957-1.982 7.053-1.905 7.053.089 0 .404 5.151 12.342 6.468 14.989 1.169 2.35.814 2.997-1.563 2.844-1.776-.114-1.952-.226-2.634-1.679l-.731-1.558-3.6.234c-3.661.237-4.74.656-4.74 1.841 0 1.53-1.192 2.488-2.938 2.361-1.827-.133-1.936-.44-1.256-3.521.17-.77.177-1.279.016-1.131-.515.472-1.04 3.519-.783 4.543.535 2.132 5.361.668 5.361-1.627 0-1.309 1.117-1.81 4.633-2.076l2.96-.224.603 1.443c.747 1.79 1.524 2.198 3.734 1.965 2.701-.285 2.68-1.013-.213-7.293-.76-1.65-1.745-3.81-2.188-4.8-.443-.99-1.135-2.52-1.537-3.4-.402-.88-.856-2.05-1.009-2.6-.738-2.658-5.266-3.512-7.525-1.419m45.396-.281c-.377.705-.608 2.585-.996 8.1-.279 3.962.358.292.783-4.512.311-3.52.419-3.651 2.935-3.574 1.368.041 1.624-.034 1.024-.302-1.396-.621-3.34-.472-3.746.288m6.346.311c.33.066 2.185.335 4.121.599l3.522.479-.122 1.456L231.8 77h-9.6l-.121 1.887c-.138 2.139-.492 1.939 4.678 2.649 3.204.44 4.276 1.1 3.869 2.382-.368 1.16-.854 1.239-4.669.767-3.863-.479-4.757-.295-4.757.979 0 .842.029.85.537.155.476-.652.974-.712 4.426-.531 4.251.222 5.037-.075 5.037-1.907 0-1.472-1.519-2.194-5.266-2.505L222.6 80.6l-.125-1.746-.125-1.745 4.806.288 4.807.289.252-1.002c.71-2.831-.826-3.837-5.815-3.807-1.43.009-2.33.069-2 .134m-70.877 1.616c-5.284 1.053-6.682 2.283-6.941 6.107L146.428 83l.365-1.988c.659-3.582 1.62-4.505 5.838-5.603 6.057-1.578 9.676-.739 10.975 2.545.9 2.275-2.169 3.483-4.055 1.597-.996-.996-5.813-.945-7.451.079-1 .625-1.235 3.26-.533 5.97.199.77.476 2.231.614 3.246.362 2.657 1.97 3.516 5.22 2.789 4.511-1.01 5.447-4.139 1.302-4.355-3.61-.188-4.351-3.273-.789-3.285.817-.002 2.444-.259 3.615-.571 2.989-.796 3.499-.232 3.875 4.285.394 4.732-.376 5.843-4.804 6.931-1.515.373-1.72.5-.846.526 3.889.115 6.246-1.989 6.246-5.577 0-2.759-.683-6.269-1.293-6.647-.634-.392-4.426-.183-4.878.269-.214.214-1.06.389-1.88.389-1.695 0-2.749.831-2.749 2.167 0 1.592 1.17 2.246 3.521 1.968 3.819-.452 2.734 2.415-1.258 3.325-3.325.758-4.746-.355-5.179-4.06-.129-1.1-.356-2.992-.505-4.204l-.271-2.204 1.46-.696c2.241-1.069 5.236-.928 6.468.304 2.541 2.541 5.814.208 4.412-3.146-1.269-3.038-4.017-3.684-10.325-2.427m90.706 1.602c-1.562 1.562-.35 4.171 1.938 4.171 1.262 0 2.23.695 2.783 2 .14.33.149.06.02-.599-.296-1.513-.149-1.407-2.423-1.732-2.434-.349-3.302-1.892-1.869-3.325.917-.917.306-.972 7.522.672 1.32.301 3.03.658 3.8.794 4.042.714 4.969 1.761 3.3 3.725-.64.752-.88.786-2.796.392-2.243-.462-3.304-.077-3.304 1.196 0 .344-.256 1.717-.568 3.051a198.941 198.941 0 0 0-1.264 6.026c-.789 4.074-1.068 4.6-2.443 4.6-2.71 0-2.955-1.116-1.49-6.784.311-1.201.553-2.641.539-3.2-.025-.935-.276-.111-1.555 5.09-.775 3.153-.575 4.358.842 5.065 2.756 1.374 3.572.583 4.505-4.371.373-1.98.834-4.14 1.024-4.8.19-.66.463-1.948.607-2.863.403-2.566.995-3.157 2.602-2.597 3.018 1.052 4.174.465 4.459-2.266.17-1.625-.717-2.207-4.258-2.793-1.32-.218-4.092-.776-6.161-1.239-4.504-1.008-4.997-1.027-5.81-.213m-68.634 2.784c-1.951 5.131-1.656 6.675 1.243 6.51 2.625-.149 2.766-.916.923-5.023-1.236-2.752-1.592-2.997-2.166-1.487m1.607 1.587c.189.44.65 1.481 1.023 2.314.812 1.809.841 1.769-1.425 1.945L175 85l.129-1.722c.151-1.998 1.295-4.994 1.557-4.078.095.33.327.96.516 1.4m85.435 1.1c-.96 2.595-3.875 14.42-3.722 15.1.074.33.424-.57.778-2 .563-2.273 1.54-6.025 3.23-12.4.519-1.96 1.741-2.529 3.457-1.611 1.067.572 1.039 1.536-.179 6.082-.549 2.051-.987 3.999-.973 4.329.038.876.572-.54 1.357-3.6.367-1.43.835-3.153 1.041-3.828.826-2.711.09-3.738-2.693-3.759-1.599-.012-1.692.056-2.296 1.687M124 81.29c-6.553 2.859-7.343 4.098-5.754 9.017 1.414 4.38 4.05 5.101 11.396 3.117 2.376-.642 3.34 2.607 1.058 3.56-2.814 1.175-4.168 1.19-4.912.054-.868-1.325-3.657-1.488-4.752-.278-1.172 1.295.044 4.512 2.123 5.62 2.419 1.289 11.564-1.015 13.241-3.336.731-1.012 1.277-2.739.766-2.423-.201.124-.366.461-.366.748 0 3.108-11.586 6.278-14.154 3.872-1.541-1.444-2.159-3.623-1.223-4.308 1.213-.886 2.965-.656 3.882.51 1.228 1.561 6.505.672 7.23-1.217.922-2.404-1.101-3.66-4.578-2.841-6.444 1.519-8.359.624-9.542-4.462-.961-4.129 2.011-6.716 8.865-7.714l2.12-.309-2.2-.023c-1.21-.013-2.65.173-3.2.413m7.466.101c2.326 1.63 2.753 3.868.918 4.817-1.533.793-1.761.76-3.061-.444-1.841-1.707-6.523-.427-6.523 1.783 0 2.647.918 2.971 5.2 1.836l2.2-.583-1.8.184c-.99.102-2.368.301-3.063.443-3.165.647-2.685-2.654.533-3.666l2.236-.704.78 1.072c1.124 1.542 3.855 1.164 5.208-.72.678-.944-1.583-4.543-2.883-4.588-.393-.014-.308.176.255.57M272.7 82.832c-.385.224-.696.714-.691 1.088.007.538.165.476.759-.296l.75-.976 2.446.741c3.269.99 3.17.759 3.525 8.206.241 5.067.438 6.582.875 6.727.428.142.477.005.203-.567-.198-.415-.416-3.451-.484-6.747-.143-6.867-.227-7.063-3.421-8.012-2.336-.694-3.005-.721-3.962-.164m-24.427 1.321c-.15.392-.262 1.013-.248 1.38.017.442.156.341.412-.299.212-.531.324-1.152.248-1.38-.076-.227-.261-.093-.412.299M146.995 86.4c.294 7.76 4.84 11.638 10.805 9.219.495-.2-.523-.316-2.664-.302-5.597.036-7.27-2.018-8.077-9.917-.089-.88-.119-.43-.064 1m124.11.24c-1.463 4.375-3.556 10.409-3.87 11.16-1.432 3.419-1.325 3.947.985 4.829 2.243.857 2.611.579 3.922-2.958l1.803-4.871.813-2.2.021 2.779c.031 4.153.887 9.538 1.607 10.108.719.571 4.014.686 4.014.141 0-.205.996-1.42 2.214-2.7 1.218-1.281 2.499-2.793 2.847-3.361.96-1.568 2.346-2.349 1.964-1.106-.659 2.14-.682 2.981-.044 1.593.34-.74.619-1.675.619-2.076 0-.402.18-.842.4-.978.582-.36.491-1.413-.1-1.165-.275.115-2.3 2.349-4.5 4.964-2.818 3.35-4.26 4.761-4.881 4.778-1.299.034-2.919-.814-2.919-1.528 0-1.627-.882-11.92-1.066-12.449-.12-.343-.603.512-1.129 2-3.424 9.686-3.73 10.085-6.202 8.083-1.022-.828-1.017-.857 1.386-7.483 2.403-6.625 3.056-8.666 2.91-9.103-.076-.229-.434.465-.794 1.543m-161.222-.329c-1.263.779-1.23 1.876.111 3.739.415.577.739 1.62.719 2.318-.048 1.714.586 2.292 1.976 1.803 1.531-.538 2.185-1.984 1.887-4.171-.562-4.126-2.068-5.31-4.693-3.689m106.353.589c-.425 2.749-.49 3.913-.203 3.613.367-.384.948-4.913.631-4.913-.125 0-.318.585-.428 1.3m-102.885.4c1.433 3.162 1.115 5.667-.78 6.143-1.286.323-1.9-.439-1.234-1.533.383-.63.315-.883-.389-1.461-1.352-1.11-1.595-3.031-.482-3.81 1.39-.974 2.232-.781 2.885.661m107.476.592c-.019.615.253.952.873 1.082 3.537.743 5.311 1.026 6.44 1.026 1.495 0 2.263.606 2.254 1.78-.009 1.238-.583 1.899-1.642 1.891-3.362-.026-11.083-1.006-11.852-1.505-.793-.515-.9-.513-.9.017 0 .699.485.821 5.6 1.407 7.837.9 8.973.752 9.407-1.221.382-1.742-.56-2.618-3.126-2.908-5.87-.662-6.194-.741-6.614-1.608l-.413-.853-.027.892M103.8 88.4c-.136.22-.582.4-.991.4-.409 0-1.254.253-1.877.563-1.16.577-1.801.84-4.932 2.02-4.559 1.719-5.167 2.302-4.629 4.444.453 1.807 1.98 2.399 3.647 1.416C96.792 96.196 98 96.146 98 97.12c0 .396.16.891.355 1.1.195.209 1.025 2.09 1.844 4.18 3.531 9.002 3.522 8.991 6.042 7.761 2.029-.991 2.267-2.574.785-5.225-.564-1.01-1.026-2.105-1.026-2.432 0-.327-.362-1.25-.805-2.05-.443-.799-1.156-2.444-1.585-3.654l-.78-2.2.829-.7c.456-.385 1.138-.7 1.516-.7 1.158 0 2.543-1.791 2.215-2.866-.592-1.942-2.838-3.152-3.59-1.934m183.151 1.307c-1.464 1.611-2.768 3.169-5.198 6.21-.579.724-.965 1.404-.859 1.51.107.107.925-.756 1.818-1.916 5.564-7.233 6.268-7.688 9.888-6.392 1.516.542 2.032.938 2.133 1.637.117.814-3.608 12.415-4.317 13.444-.152.22-.488 1.144-.748 2.053-.653 2.286-1.283 2.736-3.028 2.16-1.783-.588-1.847-4.14-.105-5.881.39-.391.323-1.015-.083-.764-1.791 1.107-2.25 6.231-.625 6.971 2.337 1.066 3.744.254 4.401-2.539.155-.66.411-1.38.569-1.6.158-.22.385-.76.504-1.2.12-.44.976-2.87 1.904-5.4 2.724-7.432 2.69-9.2-.181-9.2-.537 0-1.088-.18-1.224-.4-.688-1.114-3.285-.414-4.849 1.307M106.243 89.1c1.177 1.551.706 2.732-1.448 3.627-3.084 1.281-3.094 1.195 1.382 11.477 1.561 3.587 1.531 4.637-.158 5.482-1.401.703-2.819.206-2.819-.988 0-.207-.252-.944-.56-1.638-.307-.693-1.432-3.398-2.499-6.011-2.085-5.106-2.4-5.448-4.3-4.674-2.427.989-2.928.969-3.662-.152-1.024-1.562-.328-2.748 2.086-3.556 1.064-.356 3.825-1.449 6.135-2.428 4.794-2.034 5.116-2.096 5.843-1.139m28.273.505c.894.704 1.83 2.795 2.412 5.395.144.644.187.605.22-.2.091-2.251-1.84-6-3.091-6-.335 0-.148.328.459.805M264.449 93.4c-.265.88-.684 2.276-.93 3.102-.247.826-.354 1.596-.239 1.711.115.116.431-.65.702-1.702.271-1.051.676-2.298.902-2.772.225-.473.327-1.103.228-1.4-.1-.296-.398.181-.663 1.061m35.486-.869c-.366.279-1.247 1.848-1.959 3.488-2.234 5.149-3.211 7.295-4.649 10.207-1.622 3.286-1.658 4.886-.127 5.643.55.272 2.08.97 3.4 1.55 1.32.58 3.222 1.471 4.226 1.98 2.727 1.38 3.924 1.414 4.881.136.919-1.229.699-3.02-.419-3.408-5.254-1.824-7.35-3.516-6.448-5.202.803-1.499 1.125-1.495 4.444.059 1.663.779 3.392 1.416 3.841 1.416 1.75 0 2.793-2.506 1.493-3.585-.86-.714-3.509-2.015-4.103-2.015-.283 0-.515-.18-.515-.4 0-.22-.349-.4-.776-.4-1.035 0-1.336-.578-1.029-1.976.375-1.708 1.051-1.733 4.282-.155 3.973 1.94 5.071 1.951 6.099.06.845-1.555.232-3.129-1.218-3.129-.442 0-5.074-2.159-6.958-3.243-2.577-1.483-3.566-1.71-4.465-1.026M306.147 95c2.546 1.21 4.901 2.2 5.233 2.2.805 0 1.229 1.824.696 2.993-.52 1.141-1.647.955-5.767-.949-3.41-1.576-3.766-1.56-4.504.205-.816 1.955-.764 2.447.295 2.782 4.824 1.525 7.358 3.689 5.958 5.089l-.823.822-3.317-1.474c-4.16-1.849-4.511-1.842-5.506.109-1.007 1.972-.806 2.498 1.304 3.416 6.22 2.707 6.782 3.188 5.684 4.863-.872 1.33-1.61 1.206-6.275-1.055-2.269-1.1-4.381-2-4.694-2-.743-.001-2.031-1.179-2.031-1.857 0-.456 3.355-8.149 6.649-15.244 1.227-2.644 1.327-2.643 7.098.1m-218.814.882c.785.203 7.867 14.331 7.867 15.696 0 .232.192.422.427.422.924 0 .172 2.195-.933 2.722-1.775.846-2.493.301-4.123-3.132-.832-1.751-1.594-3.1-1.695-2.999-.166.165 1.154 3.18 2.542 5.809 1.608 3.045 6.164.532 4.639-2.56-.228-.462-.988-2.1-1.689-3.64-4.984-10.949-5.944-12.64-7.13-12.554-.487.036-.465.091.095.236m-2.633.675c-.385.292-.7.918-.7 1.39 0 .97 4.347 10.239 4.657 9.93.11-.11-.803-2.286-2.029-4.836-2.586-5.379-2.54-5.138-1.174-6.212.58-.456.805-.823.5-.816-.305.007-.869.252-1.254.544m173.597 1.534c-.465 1.212.971 2.426 2.923 2.47 1.46.032 1.778-.095 1.889-.761.082-.491.01-.622-.187-.34-.903 1.292-3.636.784-4.033-.75-.252-.97-.398-1.123-.592-.619M185.8 105.86c-5.233.192-17.237 1.562-22.4 2.557-1.1.212-3.44.652-5.2.977-5.125.946-7.465 1.436-9.6 2.01-1.1.296-2.99.759-4.2 1.029-3.291.735-12.899 3.522-13.695 3.973-.382.217-1.021.394-1.42.394s-.896.15-1.105.334c-.209.184-1.28.651-2.38 1.038-1.1.387-2.567.956-3.26 1.266-.694.309-1.538.562-1.877.562-.339 0-.727.18-.863.4-.136.22-.593.4-1.016.4-.423 0-2.284.72-4.136 1.6-1.852.88-3.62 1.6-3.928 1.6-.308 0-.731.15-.94.333-.209.182-1.519.813-2.91 1.401-1.392.588-2.8 1.339-3.129 1.668-.847.846-.643.781 2.898-.929 1.738-.84 3.791-1.767 4.561-2.06.77-.294 2.57-1.063 4-1.71 2.848-1.289 6.09-2.473 14.6-5.334 3.08-1.036 5.96-2.024 6.4-2.196.44-.172 1.25-.408 1.8-.523.55-.116 3.354-.834 6.23-1.595 2.877-.761 7.107-1.758 9.4-2.216a660.58 660.58 0 0 0 5.97-1.216c22.503-4.803 58.034-4.661 81.6.326 3.288.696 5.085.91 4.153.494-.466-.208-1.726-.505-2.8-.661-1.074-.156-2.133-.421-2.353-.59-.22-.168-1.21-.398-2.2-.509-.99-.112-3.78-.499-6.2-.86-13.131-1.959-28.394-2.61-46-1.963m-115.232 2.663c-.897.922-2.697 2.613-4 3.757-1.302 1.144-2.125 2.089-1.828 2.1.296.011 1.043-.52 1.66-1.18.617-.66 1.31-1.2 1.541-1.2.23 0 .563-.256.739-.569.176-.312 1.204-1.242 2.283-2.066l1.964-1.498-.274 1.366c-.76 3.79-.699 4.648.153 2.167 1.524-4.437.527-5.718-2.238-2.877m268.016-.947c-.431.441-2.275 2.157-4.098 3.813-1.822 1.656-3.133 3.011-2.913 3.011.219 0 1.014-.54 1.766-1.2.752-.66 1.475-1.2 1.607-1.2.132 0 1.085-.81 2.119-1.8 1.033-.99 2.02-1.8 2.194-1.8.414 0 .328 2.874-.103 3.426-.182.235-.425 1.495-.54 2.8l-.208 2.374 1.031-3.6c1.645-5.748 1.309-8.039-.855-5.824M53.2 110.038c0 .461.263 1.316.584 1.9.32.584.96 1.962 1.421 3.062.461 1.1.995 2.36 1.186 2.8 1.132 2.61.786 3.348-3 6.4-6.588 5.311-5.99 6.158 3.009 4.266 1.784-.375 1.775-.379-1.074-.422-1.581-.024-3.336.132-3.9.346-1.696.645-1.024-.297 3.674-5.15 2.989-3.088 3.001-3.359.423-9.057-.203-.45-.414-1.119-.468-1.489-.054-.369-.224-.796-.377-.949-.457-.457-.316-.945.273-.945.303 0 .775.27 1.049.6.274.33.948.6 1.498.6 1.042 0 .603-1.188-.447-1.209-.248-.005-.901-.361-1.451-.791-1.339-1.047-2.4-1.03-2.4.038m267.01-.054c-.13.211-.064.706.148 1.1.47.875 1.758 3.767 2.617 5.877.349.859.733 1.464.852 1.346.119-.119-.213-1.273-.737-2.563-1.718-4.227-1.691-5.974.067-4.383.388.351.952.639 1.253.639.301 0 1.187.439 1.968.975.782.536 1.962 1.092 2.622 1.237l1.2.262-1.4-.897a67.748 67.748 0 0 0-3.2-1.886l-2.8-1.537c-1.169-.642-2.254-.713-2.59-.17m-73.81.935c.11.115 1.55.494 3.2.842 1.65.348 3.45.749 4 .89.666.172.866.124.6-.142-.602-.601-8.366-2.184-7.8-1.59m-186.386 2.098c.703.847 2.571 1.791 3.466 1.751.561-.024.587-.081.12-.257-.33-.124-1.05-.53-1.6-.903-1.574-1.067-2.645-1.386-1.986-.591m198.186.847c1.76.54 4.19 1.266 5.4 1.613 3.606 1.036 8.173 2.625 8.58 2.986.209.185.698.337 1.086.337.389 0 1.298.256 2.02.568.723.313 2.394.97 3.714 1.461 1.32.491 3.39 1.335 4.6 1.875 1.21.54 3.1 1.334 4.2 1.765 2.891 1.132 15.976 7.627 16.133 8.008.074.178.317.323.54.323.223 0 2.143 1.025 4.267 2.279 2.123 1.253 4.639 2.695 5.591 3.205.952.51 3.356 2.004 5.342 3.321 1.985 1.317 3.657 2.395 3.713 2.395.474 0 9.789 6.621 11.275 8.014 1.046.98 3.164 2.837 4.707 4.126 1.543 1.29 2.991 2.586 3.219 2.882.227.296 1.133 1.102 2.013 1.793.88.69 2.995 2.595 4.7 4.233 1.705 1.638 3.1 2.787 3.1 2.554 0-.234-1.02-1.365-2.267-2.513a311.51 311.51 0 0 1-3.414-3.189c-.63-.605-1.275-1.106-1.433-1.113-.479-.023-2.086-1.49-2.086-1.905 0-.215-.405-.66-.9-.99-.495-.331-1.44-1.083-2.1-1.673-.66-.59-2.173-1.915-3.363-2.946a157.226 157.226 0 0 1-3.238-2.876c-.591-.551-1.778-1.467-2.637-2.034-.859-.567-3.149-2.096-5.089-3.397-1.94-1.301-3.83-2.549-4.2-2.773-.614-.371-3.21-2.052-6.895-4.463-.781-.511-1.643-.93-1.914-.93-.494 0-2.49-1.149-2.864-1.649-.382-.511-19.513-10.351-20.125-10.351-.393 0-4.179-1.707-6.729-3.035-1.02-.531-2.1-.966-2.4-.968-.568-.003-7.695-2.559-8.746-3.136-.598-.328-6.434-2.153-11-3.439-1.32-.372-2.813-.844-3.319-1.049-.505-.205-1.315-.355-1.8-.332-.484.022.559.482 2.319 1.023M71.299 115.59c-.938 3.004-.619 3.983 1.501 4.606 1.921.565 5.975 3.457 5.994 4.275.007.328-3.331 1.021-6.496 1.349-2.444.253-4.298 1.813-4.298 3.618-.001.831-1.255 4.351-1.715 4.81-.157.157-.285.695-.285 1.195 0 .5-.18 1.021-.4 1.157-.22.136-.4-.033-.4-.376 0-.343-.18-.624-.4-.624-.22 0-.403-.315-.406-.7-.003-.385-.269-1.15-.591-1.7-.322-.55-1.058-1.957-1.635-3.126-1.735-3.512-1.553-2.021.218 1.789.905 1.945 1.818 3.85 2.03 4.232.211.382.384.956.384 1.276 0 2.352 1.899.628 2.416-2.194 1.672-9.129 1.041-8.549 10.28-9.444 3.676-.356 4.214-1.572 1.362-3.073-.582-.307-1.923-1.03-2.979-1.609-1.057-.578-2.137-1.057-2.4-1.064-1.544-.043-2.392-1.555-1.886-3.362.63-2.25.37-3.164-.294-1.035m267.107 3.32c-.003.401.45.883 1.041 1.108.576.219 1.5.754 2.054 1.19.554.436 1.243.792 1.532.792.617 0 2.567 1.722 2.567 2.266 0 .574-2.453 1.33-4.428 1.366-.975.017-1.533.127-1.24.244.857.342 6.339-.293 7.056-.817.936-.685.413-1.646-1.311-2.41-2.66-1.179-6.614-3.423-6.943-3.941-.233-.367-.323-.311-.328.202m-18.524 5.668c-4.472 3.981-4.533 4.06-3.563 4.579.695.372 9.387-.729 9.913-1.256.36-.359-5.609.126-7.134.581-2.125.633-2.249.18-.456-1.673.857-.885 1.828-1.896 2.158-2.248.33-.351 1.23-1.144 2-1.761s1.289-1.236 1.153-1.374c-.136-.139-1.968 1.279-4.071 3.152m16.385 1.689c-.452.451-.295.998.198.693.256-.158 1.021-.421 1.7-.583l1.235-.295-1.433-.041c-.789-.023-1.554.079-1.7.226m-1.211 2.91c-.355.886-.763 2.378-.907 3.317-.144.938-.552 2.397-.906 3.241l-.643 1.535-2.093-4.335c-2.174-4.501-2.484-4.067-.43.6.646 1.466 1.382 3.16 1.636 3.765.676 1.607 2.287.583 2.287-1.454 0-.427.257-1.692.572-2.811 1.549-5.515 1.733-6.979.484-3.858m-235.958.38c-1.486.818-2.917 1.702-3.18 1.965-.263.263-.695.478-.96.478-.527 0-4.775 2.33-6.543 3.59-.611.434-1.539.969-2.063 1.189-1.458.61-4.399 2.388-8.047 4.865a814.924 814.924 0 0 1-7.559 5.047c-3.818 2.517-10.48 7.933-14.401 11.708-.8.771-2.314 2.121-3.364 3.001-5.229 4.384-14.056 13.67-17.871 18.8-.164.22-.751.966-1.304 1.658s-1.006 1.387-1.006 1.546c0 .159-.585 1.123-1.3 2.142-2.931 4.18-5.925 10.526-7.289 15.454-.366 1.32-.833 2.813-1.038 3.319-.205.505-.362 1.405-.349 2 .023 1.029.222.441 2.129-6.301.34-1.2 1.178-3.36 1.863-4.8s1.453-3.068 1.706-3.618c.437-.95 5.308-8.954 5.963-9.8 4.468-5.764 6.483-8.058 10.893-12.4 6.826-6.722 9.66-9.4 9.95-9.4.128 0 .827-.591 1.553-1.314 5.025-5.004 25.141-19.886 26.881-19.886.096 0 1.584-.871 3.306-1.936 2.995-1.85 7.808-4.506 12.532-6.915 1.21-.618 2.47-1.306 2.8-1.53 1.547-1.049-.786-.245-3.302 1.138m253.707 38.561c-.003.174 1.48 1.885 3.295 3.801 19.993 21.108 25.989 47.06 16.008 69.281-1.876 4.177-3.109 6.601-3.508 6.894-.253.186-.229.296.066.3.794.01 6.536-11.966 6.533-13.628-.001-.311.257-1.736.573-3.166 2.196-9.951 1.819-20.366-1.104-30.487-.554-1.918-1.276-3.988-1.604-4.6-.328-.612-1.243-2.463-2.033-4.113-1.71-3.574-2.915-5.645-6.165-10.6-2.324-3.543-12.047-14.573-12.061-13.682M22.119 208.653c-.537 1.931-.374 18.599.194 19.747.457.925.478.88.273-.6-.552-3.996-.655-14.06-.172-16.88.502-2.937.308-4.431-.295-2.267m.713 22.023c-.018.702.148 1.388.368 1.524.22.136.4.6.4 1.03 0 .792 2.16 7.66 2.757 8.77.178.33.923 1.77 1.655 3.2 1.508 2.943 5.919 9.874 6.924 10.879.365.365.664.792.664.948 0 1.275 14.715 16.061 22.663 22.773.821.693 4.435 3.924 6.572 5.876 1.13 1.031 2.639 2.153 3.355 2.492.715.34 1.527.891 1.804 1.225.277.334.644.607.815.607.171 0 2.037 1.17 4.146 2.6 2.109 1.43 3.938 2.6 4.064 2.6.126 0 1.054.63 2.063 1.4 1.008.77 2.049 1.4 2.313 1.4.264 0 1.004.45 1.643 1 .639.549 1.378.999 1.642 1 .264 0 1.254.513 2.2 1.14.946.627 2.71 1.646 3.92 2.264 1.21.618 2.47 1.28 2.8 1.47.33.19 1.68.891 3 1.557 1.32.667 2.67 1.382 3 1.59 1.192.752 9.011 4.373 9.45 4.376.247.002 1.237.431 2.2.953.962.523 3.1 1.447 4.75 2.054 1.65.607 3.758 1.437 4.683 1.844.926.407 2.366.912 3.2 1.121.835.209 3.407 1.042 5.717 1.85 2.31.809 5.01 1.692 6 1.963 11.67 3.197 19.776 5.044 21.8 4.969.66-.024-.78-.445-3.2-.935-6.101-1.235-13.47-3.032-16.4-4-.88-.29-3.04-.932-4.8-1.426-4.155-1.167-6.706-2.04-7.18-2.456-.209-.184-.655-.334-.99-.334-.586 0-4.867-1.516-7.49-2.654-.694-.3-1.368-.546-1.499-.546s-1.602-.63-3.269-1.4c-1.667-.77-3.135-1.4-3.263-1.4-.428 0-13.439-6.333-15.909-7.743-.44-.251-2.33-1.316-4.2-2.367-1.87-1.05-3.67-2.078-4-2.284-2.002-1.25-5.943-3.499-6.52-3.72-.374-.143-.68-.447-.68-.673 0-.227-.171-.413-.38-.413-.759 0-14.272-9.208-16.26-11.079-1.123-1.057-3.981-3.631-6.352-5.721C45.568 267.917 32 253.253 32 250.972c0-.124-.431-.798-.957-1.499-2.253-2.997-5.599-10.857-7.439-17.473-.276-.99-.555-1.98-.621-2.2-.066-.22-.134.174-.151.876m345.2 18.591c-.018.366-.168.726-.334.8-.166.073-1.107 1.379-2.092 2.903-1.956 3.026-1.933 2.996-5.857 7.63-3.967 4.685-10.278 10.841-20.138 19.645a167.02 167.02 0 0 0-3.024 2.755c-1.506 1.444-5.691 5-5.884 5-.104 0-1.79 1.049-3.746 2.332s-6.077 3.844-9.157 5.692c-3.08 1.848-5.66 3.498-5.733 3.668a.572.572 0 0 1-.485.308c-.193 0-2.473 1.195-5.066 2.656-5.426 3.056-12.575 6.655-16.916 8.515a241.81 241.81 0 0 0-5.518 2.457c-1.385.645-2.692 1.172-2.905 1.172-.213 0-.7.179-1.082.399-.901.517-5.165 2.049-10.695 3.841-2.42.785-4.76 1.574-5.2 1.754-.875.357-6.992 2.103-10.8 3.082-1.32.34-5.28 1.211-8.8 1.936-3.52.725-5.909 1.334-5.308 1.353 1.234.04 7.071-.991 8.936-1.578.676-.213 1.56-.387 1.965-.387.734 0 4.488-1.012 6.007-1.62.44-.176 1.25-.41 1.8-.52 1.971-.393 7.408-1.935 7.8-2.211.22-.155 1.48-.607 2.8-1.005 1.32-.398 2.713-.886 3.095-1.084.382-.198.984-.36 1.339-.36s1.212-.246 1.906-.547c2.761-1.198 6.477-2.655 6.768-2.654.17 0 1.831-.719 3.692-1.599 1.861-.88 3.506-1.6 3.654-1.6.25 0 4.404-1.969 11.663-5.529 1.604-.786 3.111-1.664 3.349-1.95.238-.287.649-.521.915-.521.265 0 2.05-.945 3.966-2.1a319.037 319.037 0 0 1 5.968-3.509c3.322-1.883 6.593-3.93 15.68-9.81 2.066-1.337 8.448-6.854 13.005-11.243.77-.742 2.818-2.651 4.552-4.243 6.821-6.264 10.871-10.533 15.08-15.895 2.509-3.197 5.238-7.592 5.032-8.103-.124-.307-.213-.242-.232.17M162.6 327.775c1.1.302 2.81.541 3.8.533l1.8-.015-1.8-.297c-.99-.163-2.7-.403-3.8-.533l-2-.236 2 .548m73.341-.382c-.106.106-1.171.37-2.367.586l-2.174.395 2.428-.174c1.336-.095 2.866-.347 3.4-.561l.972-.388-1.033-.026c-.569-.014-1.12.062-1.226.168m-67.484 1.197c2.194 2.194 51.35 3.057 56.055.984.634-.279.029-.331-2.112-.18-11.749.828-15.535.995-22.74 1-9.412.007-20.034-.567-26.066-1.408-4.483-.625-5.44-.699-5.137-.396m58.543.21-1.6.286 1.8.01c.99.005 2.34-.128 3-.296l1.2-.305-1.4.009c-.77.005-2.12.138-3 .296" fill="#564c47"/><path d="M189.68 72.08c-.928.928-.656 18.998.294 19.506 2.739 1.466 3.695-.147 3.622-6.114-.032-2.68-.045-5.091-.028-5.359.039-.594 1.232-.204 1.232.402 0 .436 2.206 6.305 2.85 7.58.192.382.35.942.35 1.246 0 1.079 1.627 2.659 2.74 2.659 1.167 0 2.86-.984 2.86-1.662 0-.23.246-.984.547-1.678 2.274-5.244 3.053-7.263 3.053-7.912 0-.411.27-.748.6-.748.504 0 .6.88.6 5.52 0 6.069.144 6.48 2.266 6.48 2.051 0 2.161-.574 2.042-10.688L212.6 72.2l-3.115-.117-3.115-.117-.818 1.917c-1.648 3.864-1.85 4.358-2.666 6.517-.457 1.21-.946 2.605-1.086 3.1-.51 1.806-1.305.882-2.58-3-1.798-5.473-2.971-8.487-3.307-8.494-.159-.003-.215.219-.126.494.796 2.46 3.182 9.147 3.603 10.1.292.66.596 1.56.676 2 .314 1.732 1.625.903 2.533-1.6 1.306-3.602 1.377-3.784 2.635-6.752.641-1.513 1.166-2.998 1.166-3.3 0-.412.693-.548 2.784-.548h2.785l.115 3.5c.064 1.925.062 6.155-.004 9.4l-.12 5.9h-2.76l-.028-6.5c-.034-7.816-.275-8.84-1.513-6.416-.472.926-.859 1.964-.859 2.305 0 .342-.174.934-.386 1.316-.212.382-.752 1.55-1.2 2.595-.448 1.045-1.174 2.7-1.614 3.678-.44.978-.8 1.949-.8 2.157 0 1.315-3.116 1.115-3.665-.235a412.32 412.32 0 0 0-.945-2.3c-1.713-4.126-3.39-8.684-3.39-9.21 0-.838-1.197-1.239-1.634-.548-.195.307-.357 3.3-.36 6.65l-.006 6.093-1.029.258c-1.713.43-1.792-.024-1.679-9.671l.108-9.172 2.301-.034c1.265-.019 2.42-.154 2.566-.3.147-.146-.898-.266-2.32-.266-1.479 0-2.793.206-3.067.48m-14.867.68c-2.223.299-2.35.54-4.013 7.64-.696 2.97-1.627 6.876-2.069 8.68-.929 3.794-.828 4.12 1.27 4.12 1.62 0 2.799-1.027 2.799-2.44 0-1.185 1.079-1.604 4.74-1.841l3.6-.234.731 1.558c.682 1.453.858 1.565 2.634 1.679 2.377.153 2.732-.494 1.563-2.844-1.317-2.647-6.468-14.585-6.468-14.989 0-.642-1.437-1.691-2.231-1.629-.423.033-1.573.168-2.556.3m43.795.217c-.3.238-.623 1.562-.739 3.023-.284 3.594-1.399 13.169-1.685 14.474-.371 1.687.896 2.21 6.616 2.733 6.397.584 6.835.58 7.246-.068.992-1.565.076-3.139-1.826-3.139-1.325-.001-6.959-1.006-7.246-1.293-.423-.423.386-3.994.955-4.212.335-.129 2.148-.043 4.028.19 3.815.472 4.301.393 4.669-.767.407-1.282-.665-1.942-3.869-2.382-5.17-.71-4.816-.51-4.678-2.649L222.2 77h9.6l.121-1.448.121-1.448-3.121-.469c-5.639-.848-9.743-1.11-10.313-.658M179.797 76.4c.682 1.65 1.707 3.99 2.278 5.2s1.532 3.46 2.135 5c.604 1.54 1.274 3.023 1.489 3.295.645.818.013 1.705-1.216 1.705-.906 0-1.301-.301-1.913-1.458-1.117-2.115-1.586-2.285-5.423-1.966-4.026.336-4.243.444-4.932 2.464-1.123 3.288-4.035 3.001-3.135-.308.319-1.173.829-3.212 1.133-4.532 3.174-13.783 2.653-12.675 5.89-12.518l2.454.118 1.24 3M227 73.959c1.98.211 3.825.397 4.1.413.286.016.5.558.5 1.268v1.241l-1.9-.229c-8.094-.976-8.304-.914-8.552 2.522-.155 2.137.183 2.34 4.743 2.859 3.706.421 4.368.715 3.965 1.765-.197.513-.614.606-1.953.435-.937-.119-2.871-.265-4.299-.325l-2.596-.108-.231 1.6c-.127.88-.358 1.98-.513 2.444-.462 1.381.706 1.922 5.093 2.356 3.823.378 4.05.452 4.178 1.355.171 1.21-.558 1.664-2.335 1.454-11.618-1.375-10.361-.719-9.976-5.209.661-7.705 1.254-13.624 1.417-14.148.179-.574.058-.578 8.359.307m-74.543 1.47c-4.731 1.273-5.485 2.343-5.389 7.645.196 10.841 2.647 13.332 11.668 11.855 6.099-.998 7.096-2.078 6.668-7.22-.376-4.517-.886-5.081-3.875-4.285-1.171.312-2.798.569-3.615.571-3.562.012-2.821 3.097.789 3.285 4.145.216 3.209 3.345-1.302 4.355-3.25.727-4.858-.132-5.22-2.789-.138-1.015-.415-2.476-.614-3.246-.702-2.71-.467-5.345.533-5.97 1.638-1.024 6.455-1.075 7.451-.079 1.886 1.886 4.955.678 4.055-1.597-1.288-3.257-5.165-4.135-11.149-2.525m8.343.12c1.11.3 2.622 2.895 2.251 3.862-.381.992-2.47.725-3.214-.411-1.05-1.602-6.26-1.278-8.337.519-.902.779-.952 4.945-.1 8.216.33 1.267.6 2.641.6 3.053 0 1.741 6.467 2.018 8.565.368 2.47-1.943 1.334-4.848-1.754-4.483-1.648.195-2.04.118-2.256-.445-.421-1.099.481-1.599 3.762-2.083 4.034-.595 4.237-.41 4.422 4.019l.139 3.336-1.378 1.051c-3.333 2.542-10.916 3.171-13.008 1.079-2.414-2.413-3.813-13.5-1.963-15.55 1.751-1.94 8.953-3.425 12.271-2.531m83.789 1.263c-.841.929-.438 2.919.619 3.057 4.116.538 4.298.816 3.349 5.126-2.694 12.245-2.696 12.205.368 12.205 1.375 0 1.654-.526 2.443-4.6.383-1.98.952-4.692 1.264-6.026.312-1.334.568-2.707.568-3.051 0-1.273 1.061-1.658 3.304-1.196 1.916.394 2.156.36 2.796-.392 1.669-1.964.742-3.011-3.3-3.725-1.304-.23-3.439-.697-8.106-1.771-2.478-.571-2.448-.574-3.305.373m-69.375.762c-.228.425-.414 1.157-.414 1.626 0 .469-.162 1.156-.36 1.526-2 3.75-.872 5.79 2.96 5.35 2.967-.341 3.137-.864 1.474-4.516a133.03 133.03 0 0 1-1.611-3.66c-.519-1.282-1.458-1.431-2.049-.326m76.186.193c3.866 1.009 5.819 1.433 6.598 1.433.512 0 .877.36 1.045 1.029.412 1.641-.289 1.984-2.816 1.377-2.769-.664-3.098-.413-3.761 2.87-.281 1.388-.684 3.154-.897 3.924-.212.77-.65 2.829-.973 4.575-.671 3.634-.93 4.029-2.404 3.659-1.3-.326-1.262-1.278.36-9.034 1.544-7.389 1.539-7.421-1.405-7.924-1.806-.308-2.631-1.159-2.204-2.272.302-.786 2.533-.661 6.457.363M177.761 80.5c1.843 4.107 1.702 4.874-.923 5.023-2.671.152-2.868-.131-2.173-3.137 1.192-5.159 1.533-5.367 3.096-1.886m85.679.235c-.114.184-.382 1.039-.596 1.9-.361 1.456-1.128 4.394-3.228 12.365-1.009 3.827-.851 4.98.692 5.047 2.415.105 2.498.05 2.905-1.931.171-.834.599-2.506.951-3.716 1.374-4.726 3.034-11.443 3.035-12.286.002-1.33-3.088-2.464-3.759-1.379m-136.16.474c-6.854.998-9.826 3.585-8.865 7.714 1.183 5.086 3.098 5.981 9.542 4.462 3.477-.819 5.5.437 4.578 2.841-.725 1.889-6.002 2.778-7.23 1.217-1.696-2.156-4.959-1.03-4.146 1.432 1.323 4.009 5.843 4.459 12.7 1.265 2.961-1.38 3.611-2.854 2.754-6.246-1.179-4.661-2.547-5.567-7.121-4.716-6.369 1.184-6.674 1.116-6.686-1.498-.011-2.335 4.601-3.692 6.517-1.916 1.3 1.204 1.528 1.237 3.061.444 1.835-.949 1.408-3.187-.918-4.817-.912-.639-1.02-.644-4.186-.182m139.225.545c.168.245.202.806.075 1.246-.127.44-.658 2.51-1.181 4.6a502.25 502.25 0 0 1-1.593 6.2c-.353 1.32-.79 2.964-.971 3.653-.598 2.274-1.47 2.741-3.013 1.613-.69-.505-.695-.641-.086-2.5.979-2.991 3.464-12.534 3.464-13.306 0-1.973 2.276-3.01 3.305-1.506m-135.229.346c1.45 1.152 2.014 2.553 1.312 3.255-.898.898-1.679.807-3.061-.355-1.384-1.165-1.896-1.208-4.327-.363-2.516.874-3.2 1.603-3.2 3.416 0 2.5 1.152 2.991 5.129 2.186 6.223-1.261 7.752-.631 8.996 3.709 1.065 3.715-.577 5.455-6.709 7.114-4.54 1.229-6.913.493-7.572-2.346-.433-1.866 2.181-2.528 2.761-.7.429 1.351 2.867 1.474 5.995.302 2.745-1.029 3.468-3.282 1.7-5.302l-.9-1.029-3.943.755c-6.358 1.216-7.857.462-8.485-4.266-.213-1.609-.123-2.291.411-3.106 1.548-2.363 10.082-4.71 11.893-3.27m141.37 1.686c-.355.542-.646 1.178-.646 1.413 0 .486-.919 3.235-3.011 9.001-2.403 6.626-2.408 6.655-1.386 7.483 2.468 1.998 2.84 1.513 6.178-8.045 1.114-3.19 1.269-2.936 1.632 2.669.462 7.158.859 7.668.695.893-.186-7.704-.265-8.158-1.318-7.595-.434.233-.79.739-.79 1.124 0 .795-1.33 4.734-1.735 5.139-.146.146-.276.64-.289 1.099-.042 1.494-1.726 4.425-2.615 4.552-1.915.275-2.102-1.353-.563-4.919.717-1.66 2.085-5.639 2.27-6.6.106-.55.356-1.36.557-1.8.2-.44.591-1.502.869-2.361.728-2.247 1.306-2.455 4.006-1.443l2.3.861.055 2.672c.03 1.469.075 4.591.1 6.937.059 5.576.386 5.835 3.099 2.46 7.311-9.095 7.084-8.894 9.012-7.975.749.357 1.715.649 2.148.649 1.278 0 .99 1.621-1.636 9.2-3.21 9.264-2.991 8.8-4.155 8.8-1.923 0-1.856-2.625.177-7 .593-1.277 2-5.527 2-6.043 0-.802-1.207-1.005-1.489-.25-.142.381-.832 1.323-1.534 2.093-2.618 2.872-5.202 5.864-5.972 6.915-.928 1.266-2.725 1.462-3.874.423-.62-.561-.731-.571-.731-.064 0 .694 1.641 1.538 2.919 1.5.608-.018 1.936-1.272 4.281-4.04 5.31-6.267 6.576-7.369 5.323-4.633-.227.494-.638 1.619-.914 2.499-.275.88-.731 2.14-1.011 2.8-1.978 4.651-1.972 5.549.042 6.213 1.745.576 2.375.126 3.028-2.16.26-.909.596-1.833.748-2.053.709-1.029 4.434-12.63 4.317-13.444-.101-.699-.617-1.095-2.133-1.637-2.806-1.004-3.609-.91-4.952.581-3.345 3.712-4.15 4.671-5.537 6.591-2.128 2.944-2.271 2.687-2.624-4.722-.346-7.274-.291-7.138-3.258-8.118-2.581-.852-2.82-.83-3.583.335m-162.18 2.853c-1.113.779-.87 2.7.482 3.81.704.578.772.831.389 1.461-.666 1.094-.052 1.856 1.234 1.533 1.895-.476 2.213-2.981.78-6.143-.653-1.442-1.495-1.635-2.885-.661m2.878 2.223c.602 1.863.607 2.153.052 3-.858 1.31-1.396 1.169-1.396-.366 0-.87-.266-1.47-.8-1.803-.885-.553-1.085-2.311-.3-2.628 1.346-.543 1.796-.212 2.444 1.797M100.4 90.239c-2.31.979-5.071 2.072-6.135 2.428-2.414.808-3.11 1.994-2.086 3.556.734 1.121 1.235 1.141 3.662.152 1.9-.774 2.215-.432 4.3 4.674 1.067 2.613 2.192 5.318 2.499 6.011.308.694.56 1.431.56 1.638 0 1.194 1.418 1.691 2.819.988 1.689-.845 1.719-1.895.158-5.482-4.476-10.282-4.466-10.196-1.382-11.477 2.154-.895 2.625-2.076 1.448-3.627-.727-.957-1.049-.895-5.843 1.139m5.527.263c.09.785-.083 1.169-.6 1.335-3.78 1.207-4.195 2.265-2.416 6.163.553 1.21 1.282 3.01 1.621 4 .339.99.988 2.556 1.442 3.481 1.093 2.223 1.044 3.091-.204 3.66-1.399.637-1.491.538-2.984-3.235a253.2 253.2 0 0 0-1.993-4.906c-.377-.88-.998-2.44-1.381-3.467-.753-2.021-1.924-2.688-3.407-1.939-.443.223-1.179.596-1.636.829-1.044.531-2.061-.195-1.888-1.347.131-.877.41-1.069 3.319-2.284 1.1-.46 2.36-.999 2.8-1.199 5.679-2.582 7.13-2.799 7.327-1.091M299.049 94.9c-3.294 7.095-6.649 14.788-6.649 15.244 0 .678 1.288 1.856 2.031 1.857.313 0 2.425.9 4.694 2 4.665 2.261 5.403 2.385 6.275 1.055 1.098-1.675.536-2.156-5.684-4.863-2.11-.918-2.311-1.444-1.304-3.416.995-1.951 1.346-1.958 5.506-.109l3.317 1.474.823-.822c1.4-1.4-1.134-3.564-5.958-5.089-1.059-.335-1.111-.827-.295-2.782.738-1.765 1.094-1.781 4.504-.205 4.12 1.904 5.247 2.09 5.767.949.533-1.169.109-2.993-.696-2.993-.332 0-2.687-.99-5.233-2.2-5.771-2.743-5.871-2.744-7.098-.1m5.276-.058c7.716 3.584 7.727 3.591 7.598 4.494-.195 1.359-2.845.743-7.618-1.77-1.211-.638-1.895-.403-2.709.934-1.009 1.654-1.059 3.836-.096 4.163 1.768.602 5.93 2.672 6.194 3.082 1.072 1.662-.545 1.7-4.269.1-4.352-1.869-4.471-1.856-5.62.624-1.074 2.318-.87 3.298.821 3.941a64.34 64.34 0 0 1 2.675 1.133c.935.419 2.095.882 2.579 1.03.919.28 1.55 1.531 1.122 2.223-.442.717-1.855.434-4.76-.952a155.072 155.072 0 0 0-4.942-2.249c-2.815-1.198-2.826-1.095.908-8.995.52-1.1 1.674-3.575 2.565-5.5 1.854-4.005 1.819-3.991 5.552-2.258M85.454 96.829c-1.352 1.063-1.366.959.714 5.289a479.062 479.062 0 0 1 3.57 7.651c2.536 5.585 3.549 6.385 5.76 4.55.596-.495.676-2.319.102-2.319-.22 0-.4-.19-.4-.422 0-.505-.819-2.327-4.437-9.878-2.954-6.163-3.283-6.465-5.309-4.871m3.337 1.903c.005.292.621 1.732 1.368 3.2 3.088 6.059 5.462 11.31 5.262 11.634-.797 1.29-3.421.665-3.421-.815 0-.413-.168-.751-.373-.751s-.501-.405-.657-.9c-.156-.495-1.518-3.485-3.027-6.644-3.118-6.528-3.138-6.62-1.643-7.418 1.154-.616 2.467.277 2.491 1.694m94.409 7.887c-9.602.671-17.205 1.639-23.6 3.004-.99.211-3.676.758-5.97 1.216-2.293.458-6.523 1.455-9.4 2.216-2.876.761-5.68 1.479-6.23 1.595-.55.115-1.36.351-1.8.523-.44.172-3.32 1.16-6.4 2.196-8.51 2.861-11.752 4.045-14.6 5.334-1.43.647-3.23 1.413-4 1.704-3.901 1.47-18.816 9.169-24.132 12.456-1.722 1.065-3.21 1.937-3.306 1.937-1.74 0-21.856 14.882-26.881 19.886-.726.723-1.425 1.314-1.553 1.314-.29 0-3.124 2.678-9.95 9.4-4.41 4.342-6.425 6.636-10.893 12.4-.641.828-5.522 8.841-5.969 9.8-.256.55-1.107 2.369-1.891 4.042-.784 1.673-1.425 3.225-1.425 3.448 0 .223-.374 1.554-.831 2.958-2.795 8.579-3.138 22.319-.754 30.152 2.258 7.417 5.25 14.376 7.428 17.273.526.701.957 1.375.957 1.499 0 2.281 13.568 16.945 25.008 27.028 2.371 2.09 5.229 4.664 6.352 5.721 1.923 1.81 15.49 11.079 16.217 11.079.186 0 .441.27.568.6.126.33.397.6.602.6.305 0 3.854 1.983 6.453 3.606.33.206 2.13 1.234 4 2.284 1.87 1.051 3.76 2.116 4.2 2.367 2.47 1.41 15.481 7.743 15.909 7.743.128 0 1.596.63 3.263 1.4 1.667.77 3.138 1.4 3.269 1.4.131 0 .805.246 1.499.546 2.623 1.138 6.904 2.654 7.49 2.654.335 0 .781.15.99.334.474.416 3.025 1.289 7.18 2.456 1.76.494 3.92 1.136 4.8 1.426 1.664.55 4.038 1.171 9.8 2.562 3.001.725 5.195 1.155 14.4 2.821 21.284 3.852 51.967 3.668 73.6-.442 6.409-1.217 13.553-2.705 16-3.333 3.586-.92 9.739-2.679 10.6-3.03.44-.18 2.78-.969 5.2-1.754 5.53-1.792 9.794-3.324 10.695-3.841.382-.22.869-.399 1.082-.399.213 0 1.52-.527 2.905-1.172a241.81 241.81 0 0 1 5.518-2.457c4.341-1.86 11.49-5.459 16.916-8.515 2.593-1.461 4.873-2.656 5.066-2.656a.572.572 0 0 0 .485-.308c.073-.17 2.653-1.82 5.733-3.668 3.08-1.848 7.201-4.409 9.157-5.692 1.956-1.283 3.642-2.332 3.746-2.332.193 0 4.378-3.556 5.884-5 .459-.44 1.82-1.68 3.024-2.755 9.86-8.804 16.171-14.96 20.138-19.645 3.924-4.634 3.901-4.604 5.857-7.63.985-1.524 1.926-2.83 2.092-2.903.166-.074.302-.376.302-.672 0-.296.225-.776.5-1.066.502-.531 1.77-3.035 3.608-7.129 11.653-25.944.539-58.378-27.558-80.424-.853-.669-1.736-1.458-1.963-1.754-.228-.296-1.676-1.592-3.219-2.882-1.543-1.289-3.661-3.146-4.707-4.126-1.486-1.393-10.801-8.014-11.275-8.014-.056 0-1.728-1.078-3.713-2.395-1.986-1.317-4.39-2.811-5.342-3.321-.952-.51-3.468-1.952-5.591-3.205-2.124-1.254-4.044-2.279-4.267-2.279-.223 0-.466-.145-.54-.323-.157-.381-13.242-6.876-16.133-8.008-1.1-.431-2.99-1.225-4.2-1.765a94.658 94.658 0 0 0-4.6-1.875c-1.32-.491-2.991-1.148-3.714-1.461-.722-.312-1.631-.568-2.02-.568-.388 0-.877-.156-1.086-.348-.381-.348-4.53-1.845-6.78-2.446a592.6 592.6 0 0 1-6-1.705c-6.033-1.738-8.987-2.453-16.4-3.966a99.41 99.41 0 0 1-3.4-.757c-11.401-2.845-38.042-4.243-56.4-2.959m39 1.129c4.984.552 8.999 1.113 16.2 2.263 2.839.454 9.226 1.782 13.578 2.824 4.387 1.051 17.634 5.035 19.822 5.962.44.186 2.15.819 3.8 1.406 4.61 1.64 5.626 2.035 8 3.108 1.21.548 3.64 1.623 5.4 2.391 3.28 1.43 11.143 5.283 14 6.861 4.992 2.756 6.871 3.837 11.4 6.559 9.481 5.698 19.431 12.589 21.587 14.949.337.369 2.143 1.991 4.013 3.604 8.054 6.949 10.426 9.139 13.781 12.725 1.544 1.65 3.575 3.762 4.513 4.693.938.932 1.706 1.799 1.706 1.927 0 .128.495.896 1.1 1.706.605.81 1.232 1.653 1.394 1.874.162.22.709.94 1.217 1.6 2.577 3.352 5.904 9.271 8.077 14.371 1.918 4.501 2.54 6.622 3.788 12.929 1.895 9.573-.503 24.885-5.391 34.408-.76 1.481-1.382 2.833-1.383 3.005-.004.615-7.83 11.556-9.802 13.701-2.399 2.61-8.391 8.676-10.459 10.586-8.306 7.673-11.115 10.217-14.141 12.804-1.87 1.599-3.49 3.038-3.6 3.198-.11.159-1.19.862-2.4 1.562-2.109 1.219-4.229 2.547-10.079 6.312-1.473.948-2.787 1.724-2.919 1.724-.132 0-1.184.603-2.336 1.341-1.153.737-3.17 1.937-4.481 2.666a135.031 135.031 0 0 0-3.585 2.055c-.66.402-1.47.836-1.8.964-.33.128-1.05.493-1.6.811-.55.318-2.53 1.319-4.4 2.225-1.87.905-4.995 2.432-6.943 3.392-1.949.96-3.801 1.746-4.115 1.746-.313 0-.969.25-1.456.554-.487.305-3.856 1.671-7.486 3.035a919.47 919.47 0 0 0-7.4 2.804c-1.274.514-4.245 1.462-6.2 1.979-.99.262-2.79.76-4 1.107s-2.74.775-3.4.95c-.66.176-2.01.538-3 .805a79.68 79.68 0 0 1-6.8 1.537c-.99.176-3.51.682-5.6 1.123-8.878 1.875-10.004 2.046-19 2.89-19.275 1.807-42.935 1.205-55.549-1.413-1.512-.314-3.209-.571-3.772-.571-.562 0-1.575-.169-2.251-.375-.675-.206-4.738-1.134-9.028-2.063-4.29-.929-9.047-2.111-10.57-2.626-1.524-.515-3.178-.936-3.676-.936-.499 0-1.018-.18-1.154-.4-.136-.22-.596-.4-1.022-.4-.721 0-4.756-1.224-6.578-1.996-.44-.186-2.15-.821-3.8-1.41-9.149-3.268-23.113-9.674-31.067-14.253-2.237-1.287-4.253-2.341-4.48-2.341-.227 0-.557-.225-.733-.5-.176-.275-1.31-1.023-2.52-1.663-1.21-.64-3.46-1.984-5-2.987a369.578 369.578 0 0 0-3.465-2.237c-7.606-4.727-10.462-6.799-14.677-10.65-2.64-2.412-4.452-4.03-8.858-7.907-18.728-16.483-27.296-29.883-30.597-47.856-1.63-8.873.226-22.122 4.251-30.341.63-1.288 1.146-2.496 1.146-2.686 0-.734 5.547-9.577 8.269-13.182 2.595-3.438 9.721-10.967 14.763-15.599 3.068-2.819 9.045-8.156 10.33-9.225a86.773 86.773 0 0 0 2.265-1.967c2.222-2.015 3.278-2.816 7.087-5.374 2.137-1.435 5.216-3.513 6.841-4.618 1.625-1.104 3.001-2.008 3.059-2.008.057 0 1.248-.694 2.645-1.542 1.398-.849 2.946-1.671 3.441-1.827.495-.157.9-.449.9-.649s.675-.703 1.5-1.119c.825-.416 2.4-1.255 3.5-1.866 8.473-4.703 22.342-11.155 29.2-13.586 1.1-.39 2.54-.93 3.2-1.2 2.706-1.107 8.978-3.087 14-4.417 2.2-.583 4.36-1.201 4.8-1.373 1.313-.514 5.649-1.483 11.6-2.591 3.08-.574 6.41-1.22 7.4-1.435 2.78-.606 9.659-1.483 15.4-1.965 2.86-.24 5.83-.506 6.6-.591 3.7-.411 31.746.127 37 .709m-150.105.717c-.601.601-.651 1.535-.082 1.535.483 0 .925-.985.72-1.602-.096-.286-.307-.264-.638.067m266.32.517c-.593.715-.205 1.466.598 1.158.625-.24.828-1.74.236-1.74-.193 0-.569.262-.834.582M54.4 111.151c0 .59 1.138 1.335 1.602 1.048.312-.193.303-.431-.032-.835-.517-.623-1.57-.766-1.57-.213m267.467-.084c-.552.551-.232.933.782.933.887 0 .972-.093.551-.6-.542-.653-.919-.747-1.333-.333M183.8 117.252c-1.32.187-5.55.711-9.4 1.163-9.922 1.165-17.717 2.511-24 4.146l-7.603 1.976c-2.091.543-4.881 1.385-6.2 1.871-1.318.486-3.207 1.113-4.197 1.395-2.786.79-7.451 2.474-9.525 3.436-1.031.478-2.235 1.007-2.675 1.174-6.591 2.508-18.008 8.039-23.2 11.24-.66.407-1.47.865-1.8 1.018-.33.152-1.728.964-3.107 1.803-1.379.839-2.643 1.526-2.809 1.526-.506 0-3.284 2.43-3.284 2.873 0 .228.9 1.653 2 3.165s2 2.86 2 2.994c0 .135.339.722.754 1.306.414.584 1.426 2.322 2.248 3.862.823 1.54 1.7 3.07 1.95 3.4.72.95 3.541 7.084 4.048 8.8.162.55.523 1.27.803 1.6.279.33.642 1.229.806 1.998.164.77.535 1.94.825 2.6 1.179 2.687 3.403 10.585 3.993 14.175.346 2.105.788 4.457.983 5.227.464 1.835 1.102 8.846 1.421 15.601.444 9.415-1.578 25.071-4.418 34.199-.274.88-.724 2.41-1.001 3.4-.277.99-.654 2.16-.839 2.6-.185.44-1.167 2.848-2.182 5.35-2.444 6.025-4.967 11.083-7.808 15.65-1.323 2.128-4.531 7.14-5.024 7.85-.611.879.816 3.35 1.933 3.35.232 0 1.521.692 2.865 1.538 1.344.845 4.063 2.401 6.043 3.458 1.98 1.056 3.884 2.164 4.231 2.462.348.298.78.542.962.542.181 0 2.442 1.062 5.023 2.359 2.582 1.298 6.739 3.205 9.239 4.239 2.5 1.033 4.905 2.072 5.345 2.308 1.519.815 16.811 5.937 20.6 6.9 3.775.96 8.451 2.265 9.6 2.681 1.96.708 18.369 3.354 25.4 4.095 22.496 2.371 48.51.84 67.8-3.991 1.43-.359 3.23-.797 4-.976 3.434-.794 10.909-2.883 14.2-3.968 5.774-1.905 12.334-4.27 13.2-4.76.44-.249 2.96-1.347 5.6-2.439 6.625-2.742 19.365-9.364 27.281-14.182 1.144-.696 3.246-1.971 4.67-2.832 3.703-2.239 3.703-2.255.06-8.034-6.926-10.986-12.876-26.85-14.806-39.475-.346-2.269-.812-5.025-1.035-6.125-2.463-12.164.875-40.565 6.253-53.2.28-.66.795-1.857 1.144-2.66.348-.804.633-1.567.633-1.696 0-.628 5.923-12.318 7.217-14.244 3.524-5.244 3.959-7.106 1.872-8.016-.489-.213-1.699-1.005-2.689-1.759-.99-.755-1.923-1.384-2.073-1.398-.367-.036-6.826-3.967-7.307-4.447-.209-.209-.662-.38-1.007-.38-.345 0-1.275-.44-2.067-.979-1.901-1.291-18.211-9.431-18.886-9.424-.186.002-.906-.252-1.6-.564-3.499-1.575-5.558-2.404-8.66-3.488-4.823-1.686-13.873-4.592-16-5.137-.99-.254-2.43-.66-3.2-.902-1.368-.43-2.968-.812-6.2-1.48-.88-.182-2.882-.615-4.449-.962-1.566-.347-4.716-.92-7-1.272l-6.551-1.013c-11.534-1.788-36.507-2.647-44.4-1.527m37.2 1.149c1.54.195 3.79.536 5 .759 1.21.222 4.27.678 6.8 1.012 2.53.334 5.32.805 6.2 1.046.88.242 2.41.596 3.4.787 3.266.632 5.371 1.125 7.6 1.78 1.21.355 3.01.8 4 .989 1.745.332 8.179 2.163 9.8 2.789.909.351 3.515 1.269 7.6 2.68 1.54.531 3.79 1.399 5 1.928 4.655 2.035 5.131 2.229 5.466 2.229.19 0 .973.335 1.74.744s1.844.881 2.394 1.047c.55.167 1.27.517 1.6.777.33.26 2.31 1.263 4.4 2.228 2.09.965 4.902 2.415 6.248 3.223 1.346.807 2.966 1.596 3.6 1.753.634.157 1.602.69 2.152 1.186 1.009.908 6.253 4.242 6.673 4.242.744 0 5.166 3.412 5.355 4.132.248.942-1.44 4.453-3.077 6.399-.523.622-.951 1.435-.951 1.807 0 .372-.425 1.303-.944 2.069-.518.766-1.08 1.843-1.247 2.393-.167.55-.529 1.27-.804 1.6-.276.33-1.167 2.13-1.981 4-.814 1.87-1.645 3.76-1.846 4.2-.877 1.918-2.926 8.278-3.672 11.4-.447 1.87-.906 3.67-1.02 4-3.442 9.914-3.868 35.653-.821 49.6 1.56 7.139 2.367 10.235 3.338 12.8.374.99.828 2.34 1.008 3 .469 1.721 2.186 5.823 4.225 10.094.97 2.032 1.764 3.849 1.764 4.038 0 .189.344.655.764 1.035.42.381.88 1.152 1.021 1.715.141.563 1.237 2.512 2.436 4.332 3.108 4.721 2.868 5.231-4.261 9.061a62.45 62.45 0 0 0-4.08 2.453c-1.144.759-3.7 2.221-5.68 3.248-1.98 1.028-3.8 2.129-4.044 2.447-.244.317-.694.576-1 .576-.306-.001-2.356.887-4.556 1.973-2.2 1.085-4.72 2.276-5.6 2.646a121.7 121.7 0 0 0-4 1.813c-1.32.627-3.12 1.399-4 1.715l-4 1.436c-3.697 1.327-7.913 2.879-8.8 3.239-.44.178-2.24.718-4 1.199-1.76.481-3.767 1.124-4.46 1.427-.694.304-1.702.553-2.241.553-.539 0-1.501.159-2.139.353-3.3 1.003-5.797 1.65-7.96 2.062a305.9 305.9 0 0 0-4.2.831c-.99.205-2.97.541-4.4.745-1.43.205-4.49.652-6.8.994-18.554 2.746-42.448 2.743-57.581-.008-1.881-.342-4.679-.8-6.219-1.019-1.54-.219-4.15-.682-5.8-1.029-1.65-.348-3.72-.773-4.6-.945-.88-.172-2.59-.617-3.8-.987-1.21-.371-3.01-.822-4-1.002-1.62-.295-8.093-2.102-9.6-2.681-2.207-.846-5.93-2.179-6.6-2.362-.857-.234-1.064-.315-4.926-1.909-1.39-.574-2.891-1.043-3.337-1.043-.446 0-1.219-.321-1.719-.714-.499-.393-2.238-1.221-3.863-1.841-1.625-.62-3.225-1.281-3.555-1.469-.33-.188-2.58-1.337-5-2.554a263.283 263.283 0 0 1-8-4.216c-1.98-1.102-3.96-2.173-4.4-2.38-.44-.207-1.61-.927-2.6-1.599-.99-.673-2.027-1.224-2.304-1.225-.277-.001-1.043-.518-1.704-1.149l-1.2-1.147.711-1.553c.682-1.491 2.034-3.734 2.502-4.153.642-.574 3.995-6.399 3.995-6.94 0-.348.336-.812.747-1.032.411-.22.86-.961.997-1.647.137-.687.587-1.728 1-2.315.413-.586.885-1.516 1.049-2.066.165-.55.974-2.53 1.8-4.4 1.585-3.588 4-10.75 4.017-11.912.006-.379.464-2.038 1.019-3.688 2.856-8.503 4.422-33.953 2.633-42.8-.2-.99-.67-3.78-1.043-6.2-.374-2.42-.824-4.76-.999-5.2-.516-1.291-1.62-5.226-1.62-5.775 0-.277-.24-1.071-.534-1.765-.293-.693-.955-2.61-1.469-4.26-.515-1.65-1.161-3.45-1.437-4-.275-.55-1.07-2.44-1.766-4.2-.696-1.76-1.507-3.391-1.803-3.625-.296-.233-.671-.953-.833-1.598-.255-1.02-.836-2.09-3.247-5.987-.269-.434-.796-1.4-1.172-2.146-.376-.745-1.371-2.27-2.211-3.389-.84-1.118-1.528-2.263-1.528-2.544 0-.281-.18-.511-.4-.511-2.028 0-.039-2.062 4.4-4.561 1.87-1.052 3.647-2.257 3.949-2.676.302-.42.916-.763 1.365-.763.448 0 2.272-.854 4.051-1.898 1.779-1.043 4.835-2.652 6.79-3.574 1.955-.922 3.746-1.869 3.98-2.103.234-.234.758-.425 1.165-.425.407 0 1.316-.3 2.02-.666 3.735-1.942 14.488-6.172 18.08-7.113 1.1-.288 2.45-.702 3-.922 2.032-.809 5.231-1.779 9.063-2.748 2.166-.547 4.567-1.178 5.337-1.403 5.565-1.624 23.998-4.601 31.8-5.135 6.059-.415 34.297-.13 38.4.388m123.4 5.612c0 .433.27.787.6.787.33 0 .6-.251.6-.557 0-.307-.27-.661-.6-.788-.408-.156-.6.022-.6.558m-25.9 3.03c-1.486 1.422-1.596 1.757-.576 1.757 1.211 0 2.164-.958 2.014-2.022l-.138-.978-1.3 1.243m-267.64.799c-.698.789-.489.951.666.515.509-.193.813-.532.676-.754-.34-.549-.703-.485-1.342.239m14.34 7.382c0 .98.158 1.525.4 1.376.22-.136.4-.867.4-1.624 0-.757-.18-1.376-.4-1.376-.22 0-.4.731-.4 1.624m109.2-.06c-2.778.396-2.8.434-2.8 4.792 0 4.756.292 4.524-7 5.563-6.68.952-7.8.326-7.8-4.364 0-1.665-.678-3.911-1.422-4.71-.735-.79-7.897.182-8.815 1.196-.644.711-.634 2.018.063 8.464l.249 2.305-1.499.626c-.824.344-2.416.776-3.537.96-1.122.184-3.073.723-4.336 1.197-3.082 1.157-3.453.953-5.242-2.889-.846-1.817-1.836-3.934-2.2-4.704-.886-1.876-2.779-2.089-5.534-.623-1.056.563-2.147 1.023-2.424 1.023-2.258 0-2.553 2.711-.703 6.455 2.023 4.092 1.899 4.796-1.104 6.298-1.519.76-1.756 1.585-1.097 3.813 1.685 5.693 2.547 6.676 5.166 5.892 2.327-.698 3.635-.597 3.635.28 0 .406.341 1.047.759 1.425.417.377.959 1.482 1.204 2.455.753 2.992 1.691 3.28 5.675 1.743 5.19-2.001 5.843-2.961 4.162-6.123-2.037-3.83-.736-5.162 6.111-6.256 3.117-.498 3.552-.236 3.904 2.351.139 1.027.541 2.654.892 3.616l.639 1.749 2.227-.25c7.855-.882 7.628-.686 6.932-5.953-.624-4.728-.191-5.026 8.295-5.698 3.915-.311 3.929-.296 4.335 4.501.496 5.873.666 6.057 5.342 5.798 5.876-.325 5.523.074 5.523-6.239 0-6.254-.358-5.842 5.086-5.852 4.035-.006 3.962-.109 4.228 5.899.279 6.322.436 6.519 4.983 6.251 6.07-.357 6.213-.515 5.689-6.274-.554-6.071-.18-6.356 7.698-5.863 4.328.27 4.009-.192 3.942 5.713-.072 6.36-.146 6.269 5.154 6.269 4.846 0 4.818.029 5.385-5.401.239-2.29.639-4.366.889-4.615.552-.55 7.915.096 10.37.909 1.749.58 1.682.273 1.161 5.353-.389 3.792.067 4.271 4.726 4.964 4.765.709 5.065.473 6.241-4.903.276-1.261.661-2.391.855-2.511.668-.413 5.799.653 8.093 1.682 2.659 1.192 2.702 1.376 1.113 4.722-1.436 3.021-1.213 3.465 2.765 5.5 4.661 2.385 5.342 2.154 7.639-2.592 1.475-3.048 1.955-3.328 4.579-2.667 2.399.604 2.933.102 4.362-4.108 1.397-4.112 1.356-4.524-.558-5.733-2.029-1.281-2.108-2.624-.373-6.332 1.48-3.162 1.471-4.991-.027-5.749-6.005-3.035-9.2-2.991-9.2.128 0 .415-2.498 5.981-3.111 6.933-.286.444-3.021.106-5.538-.685-1.513-.475-3.723-1.096-4.91-1.38-3.029-.723-3.14-1.033-2.259-6.314.904-5.419.745-5.71-3.614-6.622-5.822-1.218-6.982.09-7.356 8.292-.061 1.338-7.676 1.579-10.032.318-.4-.214-1.243-.389-1.874-.389-1.829 0-2.106-.608-2.106-4.631 0-2.462-.165-3.8-.5-4.062-1.573-1.231-8.609-1.781-9.472-.741-.258.311-.642 2.233-.853 4.271-.471 4.552.318 4.101-6.572 3.756-6.975-.348-7.001-.363-7.009-4.122-.009-3.954-.647-4.471-5.523-4.471-4.433 0-4.917.433-5.035 4.507-.115 3.976-.52 4.213-7.312 4.269-3.398.028-3.28.161-3.588-4.056-.355-4.855-1.141-5.298-7.736-4.356m6.462.951c.143.225.374 1.415.511 2.646.138 1.232.351 2.914.474 3.739l.223 1.5h5.351c6.316 0 6.247.051 6.396-4.739.112-3.584.188-3.647 4.45-3.655 4.658-.009 4.533-.114 4.533 3.808 0 4.755-.221 4.63 7.938 4.495l6.662-.109.328-3.2c.588-5.727.432-5.598 5.872-4.86l3.4.462-.107 4.248-.106 4.248 1.106.427c.609.235 3.896.803 7.304 1.263 7.215.973 6.845 1.124 7.595-3.108 1.065-6.013 1.444-6.858 2.91-6.478.714.185 2.244.458 3.4.605 3.655.467 3.923.932 3.15 5.468-1.014 5.945-.786 6.788 1.948 7.215 1.214.19 7.553 1.72 9.408 2.271 2.386.71 3.198-.302 6.152-7.667.797-1.987 1.337-2.127 4.345-1.126 4.894 1.629 5.183 2.455 2.713 7.75-1.582 3.392-1.503 4.64.351 5.565 2.436 1.216 2.54 1.476 1.578 3.933-1.719 4.389-2.171 4.996-3.631 4.874-4.469-.374-3.925-.672-5.863 3.21-2.058 4.125-2.131 4.148-6.56 2.13-3.634-1.656-3.664-1.727-2.199-5.18 1.546-3.642 1.35-4.273-1.582-5.111-8.739-2.5-10.1-2.414-10.12.637-.031 4.919-1.098 5.827-5.885 5.008-4.097-.701-3.978-.427-3.105-7.184.325-2.511.017-2.761-4.238-3.443-9.995-1.603-9.635-1.768-10.258 4.721-.492 5.124-.621 5.26-4.684 4.928-5.192-.424-4.782.111-4.48-5.842.325-6.419.588-6.167-6.81-6.531-6.819-.335-6.631-.533-6.27 6.606.297 5.873.685 5.373-4.462 5.758-4.456.335-4.362.456-4.6-5.882-.253-6.732.101-6.315-5.362-6.315-6.152 0-6.091-.072-5.438 6.403.577 5.715.89 5.209-3.534 5.717-5.315.61-5.395.529-5.853-5.916-.356-5.002-.152-4.761-3.77-4.445-10.598.926-10.681.975-10.091 5.977.586 4.971.691 4.814-3.62 5.452-4.615.684-4.758.595-5.583-3.485-.925-4.575-1.116-4.709-5.074-3.557-1.031.3-3.124.844-4.65 1.209-3.741.893-3.938 1.426-2.054 5.544 1.522 3.327 1.431 3.469-3.49 5.503-3.259 1.346-4.681 1.137-4.681-.689 0-.851-2.451-5.758-2.977-5.959-.252-.097-1.238.099-2.191.435-2.995 1.056-3.392.902-4.602-1.794-1.815-4.045-1.649-5.502.769-6.757 2.331-1.21 2.52-1.741 1.462-4.097a816.306 816.306 0 0 1-1.812-4.069l-1.03-2.328 1.059-.981c.583-.54 1.524-1.085 2.091-1.21.567-.126 1.598-.481 2.291-.791 2.062-.92 4.076-.084 4.127 1.712.007.261.681 1.925 1.498 3.698 1.725 3.746 2.397 4.081 6.115 3.044 1.21-.338 3.779-.991 5.709-1.453 4.912-1.174 5.165-1.515 4.14-5.579-1.477-5.855-1.115-6.946 2.44-7.355 1.271-.147 2.813-.463 3.427-.703 1.346-.526 2.124.248 2.487 2.474.63 3.867 1.061 6.264 1.233 6.857.29.999 1.549 1.143 4.907.56a98.529 98.529 0 0 1 5.933-.812c4.223-.413 4.324-.541 4.324-5.477V136.2l3.4-.441c3.481-.451 4.8-.362 5.262.356M74.759 157.503c-.572.383-1.562 1.176-2.2 1.762-2.219 2.039-3.571 3.234-5.52 4.879-1.078.911-2.523 2.196-3.211 2.856-.688.66-2.415 2.19-3.836 3.4-3.604 3.066-11.923 11.553-12.209 12.454-.13.41-.397.746-.593.746-.196 0-1.219 1.184-2.273 2.632a386.657 386.657 0 0 1-3.329 4.5c-1.337 1.768-4.743 8.386-6.109 11.868-4.873 12.426-2.953 29.429 4.634 41.046 2.435 3.727 5.531 8.115 6.46 9.154 2.195 2.456 12.259 12.391 14.383 14.2 1.292 1.1 2.641 2.328 2.997 2.729.356.401 2.177 2.006 4.047 3.566 1.87 1.559 3.67 3.138 4 3.508 1.082 1.212 3.461 2.797 4.199 2.797.746 0 3.801-3.011 3.801-3.745 0-.405 1.949-3.463 2.457-3.855.357-.277 7.143-13.804 7.144-14.244.001-.196.542-1.681 1.202-3.3 6.22-15.264 8.24-38.786 4.745-55.256-1.78-8.393-3.22-13.621-4.603-16.711-.52-1.161-.951-2.331-.958-2.6-.006-.269-.455-1.389-.996-2.489-.541-1.1-.985-2.216-.987-2.48-.002-.264-.634-1.524-1.403-2.8-.769-1.276-1.399-2.532-1.4-2.791-.001-.26-.226-.714-.501-1.011-.275-.296-.95-1.428-1.5-2.515-.55-1.087-1.38-2.432-1.845-2.99-.465-.557-.959-1.373-1.097-1.813-.863-2.742-3.82-4.623-5.499-3.497m3.519 1.955c.735.802 1.442 1.881 1.572 2.398.129.517.845 1.706 1.589 2.642.744.936 1.355 1.958 1.357 2.271.002.312.257.852.567 1.2 1.094 1.227 4.31 7.882 5.718 11.831.784 2.2 1.559 4.18 1.723 4.4.255.344 1.105 3.061 2.377 7.6.185.66.64 2.64 1.01 4.4.371 1.76.833 3.501 1.026 3.869 1.659 3.161 1.612 29.322-.067 36.331l-.767 3.2c-.185.77-.643 2.75-1.017 4.4-.881 3.884-2.61 8.977-4.44 13.075-.509 1.142-.926 2.242-.926 2.446 0 .321-1.769 3.849-5.254 10.479-.52.99-1.061 1.89-1.202 2-.141.11-.668.99-1.17 1.957-2.74 5.268-4.596 5.475-9.374 1.047-2.188-2.027-4.703-4.299-12-10.833-4.894-4.383-10.975-10.517-10.991-11.086-.005-.174-.729-1.065-1.609-1.981-.88-.916-1.6-1.899-1.6-2.185 0-.285-.174-.519-.388-.519-.531 0-4.84-6.51-5.825-8.8-3.768-8.764-4.226-10.397-5.007-17.849-.383-3.658-.352-5.065.191-8.755.839-5.693 2.65-11.977 3.777-13.104.249-.249.452-.715.452-1.037 0-.322.427-1.321.949-2.22.522-.899 1.086-2.085 1.254-2.635.168-.55.651-1.36 1.073-1.8.422-.44 1.754-2.15 2.96-3.8 3.224-4.412 7.999-9.985 10.078-11.761.282-.241 1.374-1.249 2.426-2.239a338.377 338.377 0 0 1 10.42-9.4 394.534 394.534 0 0 0 5.764-5.094c2.56-2.335 3.55-2.418 5.354-.448m247.666 1.227c-.334.393-1.313 1.891-2.176 3.329a316.51 316.51 0 0 1-2.06 3.4c-11.571 18.483-16.341 50.5-10.933 73.386 1.338 5.661 4.176 14.606 4.88 15.38.19.209.345.618.345.908 0 .633 4.698 10.284 6.382 13.112.656 1.1 1.489 2.54 1.852 3.2 2.002 3.641 2.916 3.726 6.222.578a331.847 331.847 0 0 1 5.517-5.1 392.65 392.65 0 0 0 5.929-5.478c1.626-1.54 3.113-2.857 3.306-2.926.192-.07 1.895-1.87 3.785-4 1.889-2.131 3.68-4.144 3.98-4.474 10.716-11.805 15.612-31.107 11.55-45.539-.527-1.87-.944-2.976-2.516-6.661-.776-1.819-2.521-5.279-3.228-6.4a60.993 60.993 0 0 1-1.533-2.615c-2.82-5.144-12.199-15.151-23.788-25.385-6.38-5.634-6.611-5.779-7.514-4.715m10.04 8.042c16.753 14.944 23.699 24.551 28.104 38.873 1.654 5.379 1.144 19.502-.888 24.6-.176.44-.552 1.43-.837 2.2-.611 1.653-3.367 7.453-4.086 8.6-.276.44-1.216 1.857-2.089 3.148a568.386 568.386 0 0 0-2.271 3.379c-1.665 2.517-16.013 17.273-16.795 17.273-.191 0-1.827 1.462-3.635 3.248-6.553 6.477-6.934 6.46-10.623-.448-.529-.99-1.182-2.07-1.451-2.4-.269-.33-.888-1.5-1.375-2.6s-1.587-3.44-2.443-5.2c-1.61-3.308-4.945-13.357-5.583-16.827a144.44 144.44 0 0 0-.951-4.573c-2.391-10.569-2.259-28.157.308-41 .351-1.76.797-4.01.99-5 .314-1.61 1.584-5.656 2.448-7.8.177-.44.988-2.51 1.802-4.6.814-2.09 1.906-4.61 2.425-5.6.52-.99 1.132-2.25 1.361-2.8.229-.55.762-1.54 1.185-2.2.422-.66 1.165-1.984 1.65-2.942.485-.958 1.568-2.463 2.406-3.345l1.525-1.602 1.119.872c.616.479 4.083 3.514 7.704 6.744M155.72 185.23c-2.009.414-3.052 1.221-7.987 6.18-3.69 3.706-4.972 5.265-5.298 6.44-.617 2.22-.599 43.497.019 44.651.654 1.222 1.13 1.776 3.122 3.639 2.905 2.715 6.076 6.014 6.449 6.709.897 1.671 36.946 2.523 38.557.912.569-.569.634-2.673.593-19.028l-.046-18.388-1.265-.771c-1.933-1.179-15.821-1.163-17.762.02l-1.298.792.023 5.491.022 5.491 1.575 1.454 1.576 1.455v4.038c0 2.795-.154 4.135-.5 4.355-.762.482-10.324.547-11.8.08l-1.3-.412v-18.307c0-21.947-.815-19.631 6.909-19.631 6.223 0 6.691.24 6.691 3.427 0 2.822.423 2.974 8.359 3.005 9.185.036 8.875.238 8.643-5.633-.2-5.079-.242-5.184-3.072-7.809-1.171-1.087-2.612-2.573-3.201-3.302-2.874-3.556-4.967-4.679-8.911-4.783-9.401-.247-19.085-.283-20.098-.075m46.942.701c-.79.873-1.011 19.87-.248 21.295.381.712.891.774 6.377.774 6.881 0 7.209-.166 7.209-3.663 0-3.512.409-3.994 3.273-3.856 3.307.159 3.173-.738 3.039 20.354-.125 19.732.029 18.765-3.001 18.765-1.674 0-1.615-.236-1.832 7.32-.242 8.381-1.864 7.536 14.198 7.395 15.891-.139 14.296.72 14.086-7.586-.172-6.835-.161-6.809-3.158-7.528l-2.205-.529V201.18l1.026-.39c4.12-1.566 6.557.003 6.569 4.23.007 2.933.115 2.98 6.838 2.98 7.104 0 6.354 1.375 6.362-11.677.005-9.757-.006-9.885-.884-10.5-1.483-1.039-56.705-.935-57.649.108m-21.575 1.773c1.052.938 3.533 3.388 5.513 5.444l3.6 3.74.14 3.568c.077 1.963.029 4.013-.107 4.556l-.248.988h-7.179c-8.144 0-8.006.057-8.006-3.325 0-2.649-.186-2.71-7.853-2.585l-6.747.11v39.2l6.4.114c8.994.161 8.2.689 8.2-5.451v-5.122l-1.5-.789-1.5-.79-.112-5.377c-.099-4.708-.027-5.441.576-5.881.873-.639 16.189-.718 17.362-.09.978.523 1.237 36.704.269 37.507-.562.467-32.359.688-34.589.241-1.3-.261-10.612-8.997-11.793-11.065-1.808-3.164-.694-47.497 1.194-47.497.193 0 2.443-2.07 4.999-4.6l4.647-4.6h24.82l1.914 1.704m79.088-.798c.641.978.677 18.517.041 19.994-.264.613-.92.7-5.285.7-6.279 0-6.531-.123-6.531-3.188 0-4.294-.174-4.461-4.496-4.327l-3.704.115-.104 19.376c-.057 10.657.047 19.527.231 19.711.184.184 1.256.443 2.383.577l2.048.242.121 5.247c.067 2.886.067 5.898 0 6.694l-.121 1.447-2.549.261c-3.918.401-22.674.238-23.501-.204-.665-.356-.718-.95-.618-6.87l.11-6.481 2.123-.213c3-.302 2.864.652 2.871-20.207.007-21.522.359-19.78-3.994-19.78-3.729 0-4 .238-4 3.506 0 4.151.088 4.094-6.371 4.094-4.686 0-5.581-.098-5.786-.633-.487-1.269-.271-19.979.237-20.487.364-.364 7.216-.48 28.391-.48h27.911l.593.906m-17.669 78.305c-5.125 2.5-7.088 9.6-3.512 12.709.5.435.976.947 1.058 1.137.295.689 5.392 2.881 7.197 3.095 3.389.401 4.817 1.622 3.471 2.968-.881.881-2.527.522-4.212-.92-4.628-3.961-12.505.021-8.038 4.063.447.405 1.047 1.189 1.333 1.744 2.177 4.208 16.216 3.588 19.867-.879 5.234-6.402 1.027-12.797-10.07-15.308-1.703-.385-2.607-1.288-2.01-2.007.749-.903 1.68-.755 3.65.58 3.07 2.08 9.16 1.545 9.16-.806 0-2.164-2.08-5.587-3.395-5.587-.245 0-.662-.217-.927-.482-1.867-1.867-9.996-2.052-13.572-.307m-100.051.763c-.721 2.405-.623 24.444.113 25.45.923 1.261 17.677 1.18 20.064-.098 4.034-2.158 5.457-7.437 3.205-11.889-1.02-2.014-1.035-2.143-.446-3.811 1.214-3.442.656-6.774-1.453-8.669-2.32-2.084-3.181-2.249-12.383-2.379l-8.645-.122-.455 1.518m35.247-1.265c-2.308.186-2.302.15-2.302 14.091 0 15.317-1.408 13.6 11.152 13.6 11.886 0 11.528.124 11.528-3.987 0-3.572-.07-3.613-6.253-3.613-5.602 0-6.849-.347-6.566-1.826.131-.69.605-.798 4.343-.99 4.505-.232 5.461-.484 5.752-1.521 1.328-4.736.493-5.767-4.905-6.051-3.805-.201-5.237-.663-4.708-1.52.129-.208 2.623-.508 5.542-.667 2.92-.158 5.512-.457 5.76-.662 1.265-1.05.791-5.995-.648-6.764-.706-.378-14.315-.444-18.695-.09m28.855.7c-.4.611-.618 1.845-.61 3.461.015 3.11.479 3.53 3.897 3.53 4.05 0 3.755-.717 3.762 9.143.007 10.958-.13 10.617 4.349 10.774 5.389.189 5.24.433 5.268-8.626.013-4.12.15-8.205.304-9.077l.282-1.585 3.12-.431c3.733-.516 3.945-.757 3.775-4.291-.188-3.907.499-3.697-12.334-3.777l-11.191-.07-.622.949m45.964-.358c4.449 1.007 8.235 4.788 7.036 7.029-.665 1.243-6.319 1.038-7.551-.274-1.174-1.249-3.179-1.657-4.642-.944-2.692 1.311-.985 3.051 4.252 4.334 7.827 1.918 10.437 5.276 8.769 11.281-2.252 8.11-21.167 7.388-22.272-.85-.193-1.438-.142-1.521 1.092-1.768 3.023-.605 5.552-.314 6.471.742 2.345 2.698 8.4 1.606 6.572-1.184-.362-.553-1.151-1.118-1.753-1.258a78.517 78.517 0 0 1-3.095-.83c-1.1-.317-2.72-.782-3.6-1.032-7.238-2.06-7.981-11.545-1.123-14.328 4.076-1.655 5.854-1.82 9.844-.918m-91.321 1.217c3.923 1.794 5.484 6.813 3.027 9.732-1.042 1.238-1.005 1.58.329 3.036 3.343 3.649 1.983 9.38-2.756 11.614-2.834 1.335-17.889 1.479-18.586.176-.799-1.492-.54-24.023.286-24.939 1.056-1.17 14.962-.87 17.7.381m34.945-.558c.564.413.675 1.006.576 3.1l-.121 2.59-5.868.2c-6.335.216-6.432.243-6.432 1.829 0 1.706 1.07 1.979 6.974 1.778 2.919-.099 3.526.415 3.526 2.983 0 2.716-.018 2.725-5.336 2.824-4.902.091-5.473.38-5.147 2.603.228 1.551-.028 1.483 6.627 1.742 6.552.255 6.845.396 6.482 3.129-.451 3.399.499 3.138-10.971 3.019L176.2 291.4l-.112-12.2c-.062-6.71-.013-12.605.108-13.1l.219-.9h9.516c7.084 0 9.694.13 10.214.51m33.473.29c.214.33.342 1.77.285 3.2l-.103 2.6-3.4.2-3.4.2-.208 9.2c-.247 10.971.084 10.2-4.392 10.2-4.363 0-3.941.989-4.025-9.424-.087-10.665.104-10.176-3.975-10.176-3.69 0-4-.275-4-3.551 0-3.324-.03-3.316 12.315-3.172 8.813.103 10.578.22 10.903.723m-78.118 5.757c-.875.664-.917 2.769-.071 3.614 1.7 1.701 6.35.091 6.093-2.108-.213-1.82-4.272-2.835-6.022-1.506m4.877.62c1.368.866-.155 2.423-2.368 2.423-1.965 0-2.907-1.369-1.742-2.533.394-.395 3.442-.312 4.11.11m-5.325 8.923c-.866 3.232-.229 4.3 2.565 4.3 3.85 0 5.22-1.005 4.622-3.389-.476-1.893-6.712-2.684-7.187-.911m5.659.523c2.001 1.401.399 3.08-2.767 2.899-2.335-.133-2.907-.923-1.955-2.701.546-1.021 3.377-1.14 4.722-.198" fill="#7c7c7c"/></g></svg>