<svg xmlns="http://www.w3.org/2000/svg" width="400" height="66.667"><g fill-rule="evenodd"><path d="M0 33.333v33.334h400V0H0v33.333M213.19 19h3.31l.64.625c.353.344.73.794.84 1 .109.206.308.375.443.375.134 0 .244.076.244.168 0 .093.225.404.5.692.275.287.5.593.5.679 0 .086.6.757 1.333 1.491.733.735 1.333 1.4 1.333 1.478 0 .079.169.325.375.546.207.222.75.83 1.209 1.351.458.522.996 1.129 1.195 1.35.199.22.412.559.473.752.077.241.198.317.388.243.153-.059.485-.149.739-.2.254-.051.5-.156.548-.232.047-.077.238.014.425.201.319.319 7.378.421 8.898.128.251-.048.411.095.645.575.334.682.231.977-.328.941-3.982-.26-7.008-.238-7.343.053-.335.292-.386.295-.774.041a1.066 1.066 0 0 0-.849-.163c-.685.172-.582.543.441 1.576.252.255.458.542.458.637 0 .096.14.272.312.392.402.282 2.522 2.774 2.522 2.966 0 .08.15.193.333.252.183.058.333.245.333.416 0 .171.155.36.343.42.189.06.412.29.496.511.084.222.249.407.366.412.116.005.443.361.725.791.651.995 1.238 1.309 1.921 1.026.3-.125.792-.163 1.265-.098.853.117 1.884-.162 1.884-.51 0-.119.157-.31.348-.425.19-.116.492-.491.67-.835.177-.344.395-.625.483-.625.089 0 .271-.263.405-.583.134-.321.329-.584.433-.584.344 0 .061-.405-.35-.502-.817-.193-.544-1.018.477-1.445.302-.127.591-.34.643-.475.151-.393.356-.283.475.256.125.568.508.664.666.166.059-.183.253-.333.432-.333.193 0 .39-.167.481-.407.085-.223.308-.488.496-.589.188-.1.341-.289.341-.418 0-.13.107-.296.237-.369.13-.074.721-.696 1.312-1.384a87.038 87.038 0 0 1 3.289-3.589c.181-.186.329-.4.329-.475 0-.074.206-.338.458-.587.252-.248 1.396-1.532 2.542-2.853 1.146-1.321 2.252-2.563 2.458-2.759.207-.197.375-.428.375-.513 0-.085.303-.432.673-.772l.672-.618 3.036-.013c1.67-.006 3.432-.068 3.915-.137.701-.1.976-.066 1.357.166.857.521.855.531-.444 1.929-.207.222-.375.456-.375.521s-.394.547-.875 1.071a41.656 41.656 0 0 0-1.625 1.896c-.413.52-.958 1.167-1.212 1.438-.253.271-.874.993-1.379 1.603l-1.122 1.355c-.112.135-.671.847-1.241 1.583-.57.736-1.227 1.547-1.458 1.803-.232.256-.422.532-.422.614 0 .081-.15.196-.333.254-.183.058-.333.184-.333.279 0 .095-.188.321-.417.501-.229.18-.417.425-.417.545 0 .12-.146.321-.325.446-.579.407-.615 1.083-.064 1.221.535.134.716.353.72.869.002.199.202.507.446.684.495.361.449.872-.078.872-.216 0-.379-.204-.529-.659-.169-.512-.324-.682-.694-.763-.31-.068-.476-.21-.476-.407 0-.357-.504-.6-.674-.325-.191.308.022.82.341.82.162 0 .333.149.381.332.048.182.279.404.515.494a.9.9 0 0 1 .54.627c.29 1.196.495 1.3 3.012 1.522 3.477.307 5.552.564 5.552.689 0 .171-2.004.503-3.033.503-1.026 0-4.736.698-5.292.996-.288.153-.342.291-.261.66.078.352 0 .588-.322.97-.234.278-.425.646-.425.818 0 .322-1.387 1.889-1.673 1.889-.088 0-.161.107-.161.238 0 .345-.787 1.225-1.215 1.36-.203.063-.547.255-.765.425-.296.231-.678.311-1.49.311-1.706 0-2.322-.385-3.606-2.25-.228-.331-.232-.331-.618.036-1.335 1.267-2.639 2.61-2.639 2.717 0 .556-1.472.808-4.267.731-3.984-.11-3.974-.106-5.861-2.484-.363-.459-.863-1.02-1.11-1.247a5.493 5.493 0 0 1-.786-.959c-.185-.299-.436-.544-.557-.544-.121 0-.296-.218-.389-.485-.092-.266-.325-.534-.516-.594-.191-.061-.347-.218-.347-.349 0-.131-.423-.67-.94-1.197-.516-.527-1.535-1.668-2.263-2.536-.728-.867-1.468-1.678-1.644-1.801-.176-.123-.32-.285-.32-.359 0-.074-.562-.71-1.25-1.413-.687-.703-1.25-1.351-1.25-1.439 0-.088-.157-.161-.349-.161a.443.443 0 0 1-.436-.333c-.048-.183-.191-.333-.318-.333-.305 0-.296.683.014 1.093.249.329.359 1.485.131 1.374-.835-.407-1.049-.561-1.129-.811-.2-.632-.556-.736-1.111-.326-1.382 1.021-2.662.393-3.124-1.533-.157-.656-.318-.962-.535-1.018-.17-.045-.31-.201-.31-.347 0-.317.67-.363.967-.066.156.156.2.085.2-.317 0-.559-.549-.883-1.498-.883-.247 0-.78-.099-1.184-.22-.451-.136-.922-.171-1.218-.091-.453.121-1.239-.105-1.044-.3.047-.047.407-.157.802-.246.394-.089.766-.24.826-.337.059-.096.474-.214.92-.262.998-.107 1.191-.251 1.329-.99.06-.319.212-.62.338-.668.441-.169.121-1.411-.477-1.853-.162-.12-.294-.296-.294-.392 0-.095-.206-.38-.458-.631-.466-.465-.729-.78-1.625-1.944a9.705 9.705 0 0 0-.959-1.061c-.252-.227-.458-.48-.458-.563 0-.082-.375-.49-.833-.906-1.273-1.154-.759-2.181.981-1.961.403.05 2.221.092 4.042.092m-175.555.43.377.264-.108 11.528c-.089 9.591-.069 11.575.119 11.808.262.323 7.113.398 28.797.315l11.736-.046.302.392c.262.341.302.746.305 3.089l.004 2.696-.43.338c-.641.504-47.251.413-47.758-.094-.462-.462-.499-30.005-.037-30.342.464-.34 6.197-.295 6.693.052m184.168 3.112c-.029.206-.128.375-.22.375-.091 0-.19-.169-.22-.375-.036-.258.032-.375.22-.375s.257.117.22.375m-22.736 3.348.433.284-.012 9.288c-.017 13.378-.021 13.399-2.978 14.811l-.906.433-12.306-.005-12.307-.004-.826-.432c-1.035-.541-1.624-.544-2.644-.01l-.807.422-12.482-.047-12.482-.047-.667-.402c-1.085-.654-1.862-1.494-2.314-2.501l-.424-.946-.018-10.239-.018-10.239.377-.305c.582-.471 5.598-.363 6.153.132l.374.334-.084 7.166c-.099 8.435-.026 10.17.445 10.514.332.243 18.331.369 19.204.135.756-.203.781-.55.677-9.494l-.097-8.4.386-.304c.51-.4 5.845-.444 6.318-.052.255.212.278.983.267 8.923-.013 9.168-.013 9.175.558 9.324.896.235 19.022-.097 19.316-.354.263-.23.286-.924.284-8.771-.001-4.686.002-8.607.006-8.713.03-.812 5.466-1.227 6.574-.501m94.6-.161c1.97.004 4.521-.005 5.666-.02 8.289-.109 16.054.077 16.287.391.387.522.229 5.256-.192 5.72-.31.343-.409.347-9.611.347-5.113 0-9.338.065-9.387.144-.185.301-.118 11.568.071 11.756.129.128 2.881.185 9.216.188 9.098.006 9.667.037 9.925.548.246.489-.02 5.315-.309 5.597-.354.346-44.657.454-45.072.109-.458-.38-.38-5.517.091-5.942.336-.304.738-.317 9.513-.317 8.388 0 9.179-.024 9.366-.28.154-.21.203-1.722.196-6l-.01-5.72-9.334-.037c-6.92-.027-9.431-.089-9.712-.238-.374-.2-.378-.237-.333-3.045l.045-2.844.584-.289c.541-.269 1.264-.282 10-.183 5.179.059 11.029.111 13 .115M129 25.932c1.327.217 2.302.998 2.968 2.378l.615 1.273v8.5c-.001 8.467-.002 8.503-.375 9.283-.206.43-.375.893-.375 1.029 0 .303-1.183 1.341-2.083 1.828l-.667.36h-19.172c-18.604 0-19.194-.009-19.916-.323-1.149-.498-2.109-1.342-2.337-2.052-.11-.344-.305-.745-.433-.892-.192-.221-.234-1.778-.242-9l-.009-8.733.411-.916c.478-1.066 1.416-2.091 2.267-2.479.833-.378 37.144-.615 39.348-.256m237.446-.119c.803.084 1.137 4.97.402 5.877l-.319.393-13.973.033c-7.685.018-16.152.036-18.816.041-3.603.007-4.916.063-5.128.218-.45.329-.509 11.129-.064 11.576.483.486 31.193.462 31.549-.025.292-.4.319-2.276.036-2.559-.151-.152-2.821-.2-10.996-.2h-10.796l-.272-.416c-.222-.338-.269-.857-.256-2.813.018-2.761.04-2.854.725-3.093.554-.193 26.823-.264 27.768-.075.816.163.862.547.801 6.647l-.054 5.5-.512 1c-.597 1.169-1.332 1.896-2.369 2.345-.721.311-1.341.321-19.922.321s-19.201-.01-19.922-.321c-1.085-.469-1.803-1.205-2.348-2.403l-.48-1.057.001-8.776.001-8.776.561-1.083c.354-.685.737-1.178 1.04-1.339.264-.14.7-.401.969-.581.416-.277.878-.338 3.084-.411 2.127-.071 38.64-.092 39.29-.023m-152.692 3.014c-.141.228-.016.4.23.315.101-.034.114-.152.031-.285-.104-.167-.171-.175-.261-.03m25.411 2.146c-.114.038-.341.203-.504.366-.286.286-.312.283-.646-.073-.485-.517-.443-.599.308-.599.362 0 .716-.094.788-.209.094-.148.15-.114.196.119.035.18-.029.358-.142.396M95.001 32.159c-1.296.129-1.276.044-1.402 6.104-.106 5.093-.102 5.188.242 5.625l.35.445h31.135l.264-.403c.408-.622.297-11.115-.122-11.533-.283-.283-27.846-.498-30.467-.238m141.082 2.174c-.08.131-.176.14-.287.029a.308.308 0 0 1-.046-.362c.081-.13.177-.14.288-.029a.31.31 0 0 1 .045.362m-.614.876c.074.637-.414.811-.831.297-.243-.3-.267-.433-.113-.619.325-.392.884-.201.944.322m1.531.196c0 .314-.094.673-.208.798-.115.125-.29.375-.389.554-.099.18-.336.397-.526.484-.226.103-.38.376-.446.792-.117.732-.521.857-.758.233-.084-.22-.232-.449-.329-.51-.428-.264-.159-.513.489-.451.637.06.667.042.67-.412.003-.559.137-.794.542-.943.162-.06.34-.336.396-.613.141-.708.559-.657.559.068m18.5-.169c0 .13.045.355.101.499.119.311-.375.558-.621.311-.226-.225.001-1.046.288-1.046.128 0 .232.106.232.236m-13.323.412c-.136.254-.105.332.16.401.374.098.57-.116.433-.474-.129-.335-.393-.302-.593.073m14.181 1.102c0 .087-.08.185-.179.218-.098.033-.179-.065-.179-.218s.081-.251.179-.218c.099.033.179.131.179.218m-16.191.75c0 .092-.107.167-.237.167s-.355.045-.5.101c-.173.066-.263.009-.263-.167 0-.186.152-.268.5-.268.275 0 .5.075.5.167m-3.875 3.952c-.328.081-.382.306-.115.471.097.06.247.295.333.521.244.641 1.147.269 1.154-.476.002-.155-.054-.313-.122-.352-.25-.14-.966-.234-1.25-.164m-7.875 4.715c-.081.13-.177.14-.288.029a.31.31 0 0 1-.046-.363c.081-.13.177-.14.288-.029a.31.31 0 0 1 .046.363" fill="#252627"/><path d="M31.484 20.03c-.265.495.062 28.646.329 28.379.056-.056.15-1.202.208-2.547.128-2.921.3-3.529 1.001-3.529.314 0 .525-.103.592-.291.168-.47 1.276-1.536 1.6-1.539.163-.002.34-.116.392-.253.156-.405.394-.287.394.195 0 .245-.123.582-.274.749-.456.503-.502 1.863-.079 2.287.194.194.353.45.353.57 0 .574.419.793 1.668.874 1.683.108.985.1 9.665.118 9.19.02 6.821.023 19.391-.021 11.629-.041 10.694-.168 10.859 1.473.152 1.516.02 1.996-.702 2.547l-.601.458h.61c.447 0 .61-.071.61-.266 0-.146.146-.303.324-.35.297-.078.616-4.013.372-4.596-.029-.071-9.253-.124-20.496-.117-19.479.01-20.454-.003-20.673-.288-.188-.246-.211-1.196-.128-5.3.265-13.081.298-18.009.122-18.458l-.179-.458H34.26c-2.483 0-2.589.014-2.776.363m177.016-.234c0 .273 1.271 1.84 4.02 4.954.608.689 2.099 2.524 2.572 3.167.27.366.581.741.691.833.11.092.361.603.558 1.136.314.851.502 1.077 1.55 1.864 1.415 1.063 3.283 2.952 5.519 5.583.896 1.054 1.733 1.977 1.859 2.05.127.074.231.226.231.338 0 .113.206.398.458.635s.772.797 1.155 1.246c.383.448.964 1.124 1.291 1.502.328.377.596.735.596.795 0 .059.375.487.833.95.459.463.834.949.834 1.08 0 .131.095.238.212.238.116 0 .473.311.791.691.319.38.719.822.888.983.17.161.395.379.5.484.106.105.323.317.484.47.16.154.291.375.291.492 0 .166.724.213 3.25.213 1.788 0 3.25-.061 3.25-.136 0-.216 2.1-2.364 2.311-2.364.104 0 .189-.111.189-.248 0-.618 3.08-3.298 4.5-3.917.505-.22 1.179-.643 1.5-.941.321-.297.809-.626 1.084-.73l.5-.19-.522-.22c-1.009-.427-.767-1.163 1.147-3.49.252-.307.458-.63.458-.719 0-.088.16-.303.356-.478.32-.285.944-1.014 4.617-5.391.581-.693 1.421-1.672 1.866-2.176a86.513 86.513 0 0 0 1.831-2.167 102.49 102.49 0 0 1 1.822-2.166c2.432-2.777 3.639-4.256 3.568-4.371-.044-.071-1.722-.129-3.729-.129h-3.65l-.645.625c-.558.54-2.835 3.149-3.801 4.355-.175.219-.506.603-.735.853-.229.25-.567.633-.75.85l-1.333 1.576-2.61 3.086c-.885 1.048-1.916 2.201-2.292 2.563-.375.363-.682.73-.682.817 0 .086-.318.505-.708.931-1.439 1.575-2.048 2.269-2.292 2.615-.48.683-1.589 1.944-2.308 2.625-.399.378-.84.912-.981 1.187-1.255 2.45-2.658 2.613-3.782.44-.141-.272-.745-.991-1.342-1.597-.598-.607-1.087-1.154-1.087-1.217 0-.062-.189-.304-.42-.536-.87-.875-3.026-3.435-3.129-3.715-.059-.16-.174-.292-.256-.292-.082 0-.59-.571-1.13-1.269-1.583-2.047-2.023-2.582-3.136-3.814a85.169 85.169 0 0 1-2.086-2.417c-2.749-3.33-5.285-6.269-6.071-7.037l-.645-.629h-3.73c-2.052 0-3.73.058-3.73.129M90.759 26.454c-1.247.188-2.58 1.562-2.875 2.963-.248 1.178-.281 4.431-.059 5.785.085.524.164 2.811.174 5.084.027 5.777.129 7.214.513 7.214.216 0 .315.15.352.535.041.413.148.557.469.632.264.061.437.232.47.465.048.333.149.368 1.056.368 1.217 0 1.287-.367.096-.507-.938-.109-1.788-.884-1.788-1.629 0-.284-.161-.623-.402-.85-.372-.349-.385-.417-.181-.905.134-.323.223-1.234.229-2.346.009-1.971.144-2.338.683-1.85.372.337.436 1.021.154 1.641-.138.302-.133.501.02.786l.205.383.223-.403c.123-.222.226-.557.229-.744.005-.256.176-.386.686-.522.773-.206.742-.244.9 1.1.134 1.14.298 1.442.967 1.78.295.15.705.425.91.613.34.311.399.318.667.081.36-.319 4.674-.398 18.543-.338 5.087.021 9.464-.008 9.725-.065.261-.057.88-.006 1.376.113 2.067.496 3.638-.62 3.668-2.605.016-1.058.077-1.308.404-1.656.538-.573.588-.537.827.588.27 1.276.482 1.461 1.059.926l.441-.408.01 1.2c.016 1.953.375 3.455.738 3.091.048-.048.134-2.293.191-4.989.057-2.696.129-5.389.161-5.985.37-6.973.178-7.922-1.85-9.099l-.833-.484-18.834-.018c-10.358-.01-19.054.015-19.324.055m48.408-.014c-.301.082-.296 6.036.007 7.893.097.596.154 1.459.126 1.917-.068 1.135.2 7.967.353 9l.124.833.264-.916c.146-.504.309-1.18.363-1.5.099-.591.749-1.107 1.042-.827.076.072.472.195.881.274.668.129.756.201.858.698.172.842 1.2 1.804 2.042 1.91.379.048 4.688.112 9.574.141l8.885.054.289.384.29.384.459-.426c.268-.248.657-.426.931-.426.259 0 .564-.112.678-.25.114-.137.303-.25.418-.25.116 0 .337-.192.491-.427.226-.345.327-.39.519-.23.347.288.295.664-.189 1.376-.429.632-.483 1.117-.136 1.232.103.034.231-.162.286-.435.094-.469.151-.501.98-.548.953-.055.917.006.684-1.174-.16-.812.53-.877 1.286-.122.739.74 1.383.912 3.411.912 1.429 0 1.503.018 1.554.375.035.249-.033.375-.203.375-.277 0-.601.487-.601.905 0 .188.165.261.584.261.53 0 .583-.043.583-.474 0-1.119 1.587-1.621 3.282-1.04 1.853.636 4.784 1.012 5.551.712l.417-.163-.469-.184c-.258-.101-.869-.184-1.357-.184-.636 0-.916-.071-.984-.25-.084-.218.407-.25 3.815-.25 4.219 0 4.298.013 3.138.51-.425.182-.733.373-.683.423.128.127 2.597.734 2.989.734.254 0 .312.097.27.458l-.052.458-4.667.019c-2.567.01-6.429.095-8.583.188-3.688.159-3.954.15-4.547-.144-.789-.391-.869-.39-1.254.024-.259.278-.489.329-1.293.292-.819-.038-.987.002-1.038.246-.056.276.645.292 12.869.292 8.281 0 12.929-.058 12.929-.162 0-.09.22-.276.489-.415.268-.139.536-.404.594-.588.059-.184.214-.335.345-.335.173 0 .239-.211.239-.76 0-.417.077-1.261.172-1.875.403-2.615.793-18.678.459-18.891-.291-.184-4.822-.173-5.116.013-.201.128-.211 1.392-.068 8.706.175 9 .154 9.38-.55 9.648-.859.326-20.68.211-21.142-.123-.762-.552-.827-1.893-.434-8.968.279-5.014.241-9.191-.085-9.316-.406-.155-4.623-.114-4.879.048-.185.117-.208.855-.126 4.039.367 14.182.377 13.761-.339 14.23-.559.366-19.995.517-21.05.164-.759-.254-.859-.667-.77-3.165.264-7.355.304-15.121.079-15.263-.227-.144-4.481-.184-4.984-.047m131.83.001c-.343.093-.359 4.373-.017 4.785.197.238 1.133.255 9.245.175l9.025-.089.522.483.522.484.122 4.24c.068 2.332.133 5.132.145 6.222l.022 1.983-.5.146c-.275.08-4.59.138-9.589.129-8.977-.016-9.779.017-9.535.393.069.105.162 1.091.208 2.191.073 1.769.117 1.999.375 1.986.16-.007 7.908-.026 17.218-.041 10.346-.017 16.889-.088 16.831-.183-.225-.363-1.242-.544-1.721-.305-.379.189-.628.196-1.335.037-.711-.161-1.096-.149-2.112.063-1.252.262-2.626.118-3.198-.334-.117-.094-.615-.045-1.295.126-1.47.369-2.597.031-2.597-.779 0-.442-.051-.486-.569-.486-.816 0-1.097-.149-1.097-.581 0-.534.383-.789 1.118-.744 1 .06 1.048.033 1.048-.592 0-.356.082-.583.209-.583.295.001 1.291.631 1.291.817 0 .371-.224.683-.49.683-.562 0-.503.228.114.443.862.3.962.284 1.181-.197.121-.266.377-.458.697-.522.278-.055.546-.166.595-.246.228-.369 2.665-.16 3.062.264l.384.408.807-.408c.83-.421 6.583-.617 8.877-.303l.773.106v.674c0 .554.096.754.542 1.131.857.724.513 1.083-.971 1.012a10.95 10.95 0 0 0-2.227.166c-1.085.22-1.067.222 2.24.305 1.833.046 3.387.044 3.453-.003.066-.048.141-1.06.166-2.25l.047-2.164-9.083-.014c-9.621-.015-10.113-.045-10.257-.624-.081-.325-.011-4.39.175-10.112l.067-2.083.527-.473.527-.474 9 .049c8.671.048 9.008.038 9.23-.267.358-.489.329-4.512-.033-4.651-.289-.111-43.33-.104-43.739.007m54.336.041c-1.107.193-2.297 1.159-2.743 2.227-.308.736-.36 6.81-.093 10.676.09 1.301.189 3.705.22 5.342.048 2.488.1 3.001.318 3.123.144.08.31.339.369.575.081.324.198.417.475.377.545-.077.546-.583.003-1.361-.473-.679-.481-.727-.45-2.742.034-2.21.076-2.381.489-1.969.191.192.574.27 1.323.27.783 0 1.078.064 1.15.25.16.418-.072.749-.537.764-1.618.049-1.774.077-1.774.319 0 .411 1.185.718 1.634.423.336-.22.436-.195 1.177.294 1.575 1.038 1.726 1.095 2.403.908a5.34 5.34 0 0 1 1.203-.167l15.373.062 14.79.058.377-.377c.508-.51.209-.679-.926-.525-1.193.162-32.57.091-32.734-.074-.15-.152-.115-10.413.041-11.727.089-.753.187-.94.703-1.334l.6-.457 18.659-.038c16.546-.034 18.68-.067 18.846-.294.127-.174.161-.966.104-2.462l-.083-2.206-20.167-.019c-11.091-.01-20.429.028-20.75.084m-199.467 5.385c.78.594.96 1.991.987 7.633.021 4.36-.059 5.243-.494 5.426-.152.064-7.513.136-16.359.161-18.031.05-17.008.116-17.343-1.116-.265-.978.084-10.76.412-11.545.479-1.146-.372-1.093 16.777-1.049l15.43.04.59.45m212.833 3.844c-.115.139-.136.931-.062 2.326l.113 2.115 10.735.089c9.195.076 10.789.125 11.119.34.211.139.562.252.779.252.573 0 .628.132.35.829-.43 1.073-.26 2.703.298 2.851l.447.119-.097-1.149c-.103-1.236.263-1.669.619-.733.212.557.763.553.903-.007.059-.233.18-.378.269-.323.212.131.208.865-.005.997-.201.124-.226 1.916-.027 1.916.077 0 .232-.304.343-.677.386-1.286.883.073.871 2.381-.002.57.213.952.42.744.047-.047.156-2.023.243-4.391.086-2.369.188-5.017.226-5.886.042-.968 0-1.661-.108-1.792-.257-.31-27.178-.312-27.436-.001M32.792 40.264c-.159.159-.478-.099-.359-.29.07-.114.163-.111.283.009.098.098.132.224.076.281m330.733.819c0 .087-.081.186-.179.218-.099.033-.179-.065-.179-.218 0-.152.08-.251.179-.218.098.033.179.131.179.218m-194.108 2.503c0 .339-.052.345-1.125.133-.622-.122-.579-.349.083-.433.854-.109 1.042-.055 1.042.3m123.25.747c0 .448-.32.585-.634.272-.246-.247-.242-.288.056-.505.382-.28.578-.201.578.233m-97.339.834c.002.045-.213.229-.479.407-.274.184-.575.6-.694.961-.36 1.09-1.655 1.63-1.655.69 0-.266-.11-.642-.245-.835-.275-.391.128-.557 1.354-.557.574 0 .615-.045.798-.879.093-.424.895-.238.921.213m95.099.624c.555-.106.531.286-.04.661-.861.564-1.974.084-1.568-.676.204-.381.239-.388.708-.154.272.135.677.211.9.169m-199.82-.175c-.2.199-.108.551.143.551.138 0 .25-.108.25-.24 0-.279-.238-.467-.393-.311m234.489.162c-.137.356.168.691.409.45.182-.181.052-.728-.172-.728-.072 0-.179.125-.237.278m-287.554.009c-.708.088-.693.336.028.472.992.186 2.066-.21 1.333-.491-.267-.103-.393-.101-1.361.019m90.157.225c.032.099.131.18.218.18s.185-.081.218-.18c.033-.098-.066-.179-.218-.179-.153 0-.251.081-.218.179m148.343.732c.361.253.359.256-.172.256-.495 0-.536-.042-.532-.542.005-.441.036-.488.172-.256.092.157.331.401.532.542m2.238.766.591.195-.425.425c-.324.324-.644.442-1.352.501-.869.072-1.214-.101-.761-.381.092-.057.167-.396.167-.754 0-.48.087-.698.333-.829.184-.098.34-.307.347-.465.007-.157.124.029.261.414.199.563.362.736.839.894m7.629-1.218c-.33.759-.292 1.375.084 1.375.587 0 .956-.287 1.064-.828.128-.64.363-.643.69-.011.248.479.293.495 1.38.472 1.657-.035 2.29.178 2.29.772 0 .748-.993.977-3.25.75-2.467-.248-2.5-.258-2.5-.742 0-.361-.074-.413-.584-.413h-.583V46h.768c.668 0 .751.038.641.292m27.891-.083c.356.43.398 1.091.108 1.701-.522 1.101-1.006.55-1.055-1.202-.021-.746.509-1.025.947-.499m13.658.394c-.563.296-.568.402-.042.896.513.482.62.392.553-.468l-.052-.67-.459.242m-179.527.04c-.144.234.078.715.298.642.247-.082.242-.656-.005-.738-.107-.036-.238.008-.293.096m14.303.088c-.109.284.037.602.276.602.21 0 .201-.619-.011-.75-.092-.057-.212.01-.265.148m7.766.195c0 .392.296.39.792-.005.024-.018-.145-.119-.375-.224-.385-.175-.417-.157-.417.229m191.238-.241c-.143.233.291.52.488.323.16-.161.006-.508-.226-.508-.081 0-.199.083-.262.185m-164.118.591c.252.34.131.557-.312.557a.444.444 0 0 0-.426.334c-.141.536-.382.383-.382-.241 0-.402-.112-.657-.375-.851-.363-.269-.349-.275.458-.175.48.059.92.218 1.037.376m85.547-.103c1.779.427 1.551 1.01-.535 1.368-.996.17-1.11.154-2.106-.293l-1.053-.472 1.222-.458c.672-.251 1.297-.436 1.388-.411.092.025.579.145 1.084.266m-152.494.149c-.095.178-.175.421-.178.542-.009.351-.784 1.136-1.122 1.136-.17 0-.455.11-.633.245-.298.225-.255.245.54.25.765.004.87-.037.917-.363.033-.233.206-.404.469-.466.235-.055.441-.239.474-.423.033-.18.127-.398.21-.485.082-.087.15-.293.15-.458 0-.408-.606-.391-.827.022m143.452.836c.028.041.269-.054.533-.21.474-.28.488-.277.836.165.318.404.326.465.082.601-.364.204-1.404-.006-1.519-.307-.051-.132-.193-.24-.315-.24-.333 0-.454-.299-.323-.801l.118-.449.268.583c.147.321.291.617.32.658m-133.958-.653c0 .095.107.213.238.264.131.05.315.31.408.578.111.317.285.486.5.486.185 0 .378.148.437.334.153.482.692.422.82-.091.135-.536.008-.743-.455-.743-.22 0-.498-.199-.698-.5-.329-.492-1.25-.734-1.25-.328m225.111.606c-.203.203-.115.556.139.556.139 0 .25-.148.25-.334 0-.332-.178-.433-.389-.222m-201.657.479c-.328.354-.586.438-1.549.507-3.319.24-3.56.359-.769.381 2.914.024 4.267-.375 3.679-1.083-.298-.359-.932-.268-1.361.195m2.933.334c-.888.392-.825.576.198.576.876 0 .934-.025.885-.373-.065-.454-.381-.513-1.083-.203m-19.098.146c-.437.117-.844.262-.903.322-.06.059 2.023.095 4.628.08 3.921-.023 4.377-.048 2.652-.145-1.145-.065-2.618-.08-3.272-.033-.933.067-1.273.026-1.579-.188-.453-.317-.48-.318-1.526-.036m177.919-.065c-.79.318-.366.495 1.167.488l1.541-.007-.583-.319c-.622-.341-1.511-.408-2.125-.162m4.125.162-.583.319 4.666.002c3.526.001 4.588-.044 4.345-.185-.223-.129-1.222-.156-3.25-.088-2.347.079-3.011.052-3.345-.136-.568-.319-1.139-.292-1.833.088m32.988.036c-.585.217-.336.297.929.297.687 0 1.25-.068 1.25-.151 0-.19-1.745-.307-2.179-.146m-268.155.13c-.183.119-.072.159.417.153.524-.007.595-.04.333-.153-.438-.188-.458-.188-.75 0m21.584.004c-.287.071.669.132 2.236.143 1.505.011 2.705-.007 2.666-.04-.149-.13-4.431-.219-4.902-.103m-12.2.121c.899.03 2.324.03 3.167-.001.843-.03.108-.054-1.634-.054s-2.432.025-1.533.055m250.158 0c1.077.029 2.84.029 3.917 0s.196-.053-1.959-.053c-2.154 0-3.035.024-1.958.053" fill="#cfd0d0"/><path d="m208.177 19.625-.36.292.707.666.708.667-.533-.631c-.633-.75-.647-.846-.157-1.082.206-.1.289-.186.185-.192-.105-.007-.352.12-.55.28m2.781-.167c.94.029 2.477.029 3.417 0 .94-.03.171-.054-1.708-.054-1.88 0-2.648.024-1.709.054m49 0a80.83 80.83 0 0 0 3.75 0c1.032-.029.188-.053-1.875-.053-2.062 0-2.906.024-1.875.053m-228.773.269c-.136.164-.176 2.322-.143 7.709l.045 7.481.04-7.534c.037-6.974.061-7.546.331-7.703.161-.093.207-.172.104-.175-.103-.003-.273.097-.377.222m5.937-.047c.149.191.219 1.527.253 4.834l.047 4.569.039-4.604c.036-4.215.014-4.624-.253-4.834-.257-.202-.267-.198-.086.035m180.539 1.452c.868.936 1.608 1.701 1.645 1.701.142 0-2.689-3.075-3.015-3.274-.114-.07.502.638 1.37 1.573m48.084-1.491c.077.135-.025.433-.257.75-.249.34-.282.442-.094.289.481-.39.667-.855.43-1.073-.158-.145-.176-.137-.079.034m-2.565 3.471c-1.015 1.162-1.847 2.191-1.847 2.287 0 .096.169-.06.375-.347.207-.287 1.074-1.316 1.929-2.287.854-.971 1.517-1.765 1.472-1.765-.045 0-.913.951-1.929 2.112m-53.118-.73c.446.523.847.951.89.951.112 0-1.276-1.641-1.509-1.784-.106-.065.172.309.619.833m43.605 1.785c-.291.366-.491.666-.445.666.046 0 .321-.3.611-.666.291-.367.491-.667.445-.667-.046 0-.321.3-.611.667m-33.334.052c0 .029.244.272.542.541l.542.49-.49-.542c-.456-.505-.594-.618-.594-.489m-7.89.948c.245.275.473.5.506.5.034 0-.105-.225-.309-.5-.203-.275-.431-.5-.506-.5-.075 0 .064.225.309.5m40.13.375-.49.541.542-.489c.505-.456.618-.594.49-.594-.029 0-.273.244-.542.542m-30.973.157c.188.211.93 1.097 1.649 1.968 1.566 1.897 1.895 2.248 1.482 1.583-.17-.275-.399-.575-.509-.667-.318-.266-2.389-2.81-2.389-2.935 0-.062-.129-.162-.287-.223-.24-.092-.231-.046.054.274m38.91.538-.572.68.647-.62c.357-.34.615-.646.573-.679-.041-.033-.332.245-.648.619m-144.63-.114a10.87 10.87 0 0 0 1.5-.001c.387-.035.028-.063-.797-.063-.825.001-1.141.029-.703.064m3.828 0c.527.033 1.39.033 1.917 0 .527-.033.096-.06-.958-.06-1.055 0-1.486.027-.959.06m20.75.001a31.42 31.42 0 0 0 2.417 0c.665-.032.121-.058-1.208-.058-1.33 0-1.873.026-1.209.058m26.336-.006c.207.04.507.038.666-.003.16-.042-.01-.075-.377-.073-.366.002-.497.036-.289.076m2.661.002c.295.037.82.038 1.166.002s.104-.067-.538-.067c-.641-.001-.924.028-.628.065m23.987.005c-.043.069.721.105 1.698.081 3.16-.078 3.502-.144.912-.175-1.393-.017-2.567.025-2.61.094m82.528 0c2.688.026 7.038.026 9.667 0 2.629-.026.43-.047-4.887-.047-5.317 0-7.468.021-4.78.047m23.749 0c1.725.027 4.5.027 6.167 0 1.667-.027.256-.05-3.136-.05-3.392 0-4.756.023-3.031.05m14.156-.01c.16.042.423.042.583 0 .161-.042.029-.076-.291-.076-.321 0-.452.034-.292.076m17.177.01c1.45.028 3.775.027 5.167 0 1.392-.028.206-.051-2.636-.051-2.841 0-3.98.023-2.531.051m8.409-.004c.3.037.75.036 1-.002.251-.038.006-.068-.544-.067-.55.001-.755.032-.456.069m10.747-.006c.161.042.423.042.584 0 .16-.042.029-.076-.292-.076s-.452.034-.292.076m2.834.009a26.38 26.38 0 0 0 2.25 0c.618-.032.112-.059-1.125-.059-1.238 0-1.744.027-1.125.059m5.676.001c1.082.029 2.807.029 3.833-.001 1.026-.029.141-.053-1.968-.053-2.108.001-2.948.024-1.865.054m-220.018.242c-.11.11-.191.353-.181.541.019.335.021.335.102.009.045-.184.158-.427.251-.542.215-.266.091-.272-.172-.008m5.618.016c.199.253.218 1.607.12 8.779l-.116 8.48.523.596.523.595 4.941-.038 4.941-.038-4.994-.087-4.993-.087-.384-.57-.384-.569.112-8.431c.109-8.167.102-8.437-.206-8.68-.295-.232-.301-.229-.083.05m27.224-.036c.246.143.297.458.327 2.036l.035 1.867.054-1.809c.053-1.782-.062-2.282-.52-2.269-.103.003-.057.081.104.175m27.247 0c.146.188.219 1.427.253 4.333l.048 4.07.038-4.105c.035-3.738.013-4.125-.253-4.333-.258-.202-.268-.198-.086.035m52.684.445c-.785.825-2.141 2.523-2.134 2.673.003.065.171-.107.373-.382.203-.275.841-1.043 1.418-1.708 1.133-1.305 1.3-1.589.343-.583m63.569-.445c.16.093.297.297.304.453.009.182.044.207.1.069.099-.248-.233-.705-.508-.697-.103.003-.057.081.104.175m51.591 2.308c.042 1.908.007 2.326-.208 2.505-.142.118-.256.299-.253.402.003.103.153.011.334-.205.338-.407.516-4.72.202-4.915-.068-.043-.102.953-.075 2.213m-173.561 2.178c0 2.338.024 3.294.053 2.125.028-1.168.028-3.081 0-4.25-.029-1.168-.053-.212-.053 2.125m21.281-3.291c.686.946.975 1.234.667.666-.086-.16-.429-.591-.76-.958-.578-.639-.574-.627.093.292m-48.459 7.735.023 8.528-.404.431-.404.431-4.346.038-4.346.039 4.316.048c6.123.067 5.529 1.159 5.307-9.752l-.168-8.29.022 8.527m-77.488-7.665c-.256.336-.381.559-.277.495.213-.132.935-1.107.819-1.107-.041 0-.285.275-.542.612m42.366-.277c.196.228.512.715.701 1.082.19.366.349.607.353.535.016-.282-.644-1.386-1.017-1.701l-.392-.332.355.416m139.624 1.415c0 1.008.028 1.399.061.869.033-.531.033-1.356-.001-1.833-.034-.478-.061-.044-.06.964m-131.682 0c.002.458.034.626.072.373a2.94 2.94 0 0 0-.002-.834c-.04-.205-.071.003-.07.461m176.513.75c0 .871.028 1.227.062.792.035-.436.035-1.148 0-1.584-.034-.435-.062-.079-.062.792m-56.646-.872c-.241.174-2.959 3.372-2.866 3.372.042 0 .764-.788 1.603-1.75.839-.963 1.504-1.749 1.479-1.747a.79.79 0 0 0-.216.125m-43.174.455c.416.806.352 1.643-.117 1.525-.497-.124-1.001.155-.575.318.16.062.436.073.615.027.178-.047.404.01.501.127.097.117.831.61 1.631 1.095s1.707 1.151 2.015 1.479c1.371 1.46 3.391 3.72 4.592 5.138.719.848 1.338 1.541 1.377 1.541.149 0-.233-.511-1.196-1.598-2.518-2.842-3.012-3.393-4.055-4.526-.611-.664-1.412-1.413-1.778-1.664-2.295-1.569-2.366-1.641-2.459-2.469-.055-.491-.222-.912-.449-1.136l-.36-.357.258.5m106.7-.048a2.88 2.88 0 0 0-.088.715c.008.183.083.041.167-.317.163-.692.093-1.041-.079-.398m-73.913 1.592c-.857 1.083-.861 1.093-.119.29.681-.738 1.191-1.421 1.056-1.415-.026.001-.448.508-.937 1.125m-23.027-.868c0 .051.431.604.958 1.229a127.52 127.52 0 0 1 1.792 2.184 43.731 43.731 0 0 0 1.296 1.562c.555.618.677.762 1.601 1.891.395.481.804.873.91.869.106-.003.042-.134-.142-.291-.33-.282-2.878-3.278-4.483-5.271-1.031-1.281-1.932-2.294-1.932-2.173m-93.128.741c0 .321.034.452.076.292a1.37 1.37 0 0 0 0-.584c-.042-.16-.076-.029-.076.292m189.91 8c.046 4.538.152 8.362.234 8.5.088.149.108-.996.047-2.833a1386.3 1386.3 0 0 1-.233-8.5c-.11-4.491-.119-4.007-.048 2.833M87.218 31.583c.001.55.032.755.069.456.038-.3.037-.75-.001-1-.038-.251-.069-.006-.068.544m183.12-.47c-.006.254.462.722.716.715.108-.003.067-.08-.09-.172a1.486 1.486 0 0 1-.454-.453c-.091-.157-.169-.198-.172-.09M138.736 39l.019 7.75.429.835c.236.46.68 1.097.987 1.417.585.611.537.508-.279-.585-.952-1.278-.961-1.362-1.072-9.584l-.103-7.583.019 7.75m175.954-7.486c-.217.176-.325.319-.24.319.223 0 .814-.458.716-.555-.045-.045-.26.061-.476.236m-212.815.278c4.285.024 11.298.024 15.583 0 4.286-.025.779-.045-7.791-.045-8.571 0-12.077.02-7.792.045m170.922-.002a13.62 13.62 0 0 0 1.667-.001c.432-.034.036-.062-.881-.061-.916 0-1.27.028-.786.062m6.245.001c1.902.027 5.014.027 6.916 0 1.902-.026.346-.048-3.458-.048-3.804 0-5.36.022-3.458.048m17.039.212c-.291.321-.412 3.889-.141 4.159.046.046.066-.793.044-1.864-.055-2.751-1.148-2.454 9.244-2.506l8.855-.045-8.849-.04c-8.687-.04-8.855-.034-9.153.296m33.211-.219c.206.04.543.04.75 0 .206-.039.037-.072-.375-.072-.413 0-.582.033-.375.072m9.987.008c4.874.024 12.899.024 17.833 0 4.934-.025.946-.045-8.862-.045s-13.845.02-8.971.045m-213.444.427.41.469.021 5.364c.027 6.956.18 6.564-2.599 6.667-1.13.042-1.063.051.327.042l1.744-.011.397-.583.398-.584-.066-5.462-.066-5.463-.488-.454-.487-.454.409.469m121.01-.077c-.131.151-.619.699-1.083 1.217a93.362 93.362 0 0 0-1.429 1.631c-.321.379-.704.817-.852.974a3.609 3.609 0 0 0-.479.703c-.248.492-.115.363.761-.74.93-1.171 1.101-1.369 2.345-2.719.613-.665 1.083-1.238 1.045-1.275-.039-.036-.177.058-.308.209m42.846-.059c.151.184.311.484.356.667.078.321.082.32.1-.016.011-.192-.149-.492-.355-.667-.372-.314-.373-.314-.101.016m38.324.151c-.243.259-.35.538-.301.791.069.365.075.361.097-.055.013-.264.201-.586.461-.791.242-.19.368-.346.28-.346-.089 0-.33.18-.537.401m-234.676.088c-.095.178-.159.909-.144 1.625l.029 1.303.096-1.417c.053-.779.157-1.51.232-1.625.074-.114.095-.208.047-.208s-.165.145-.26.322m161.312.886c-.485.573-1.031 1.211-1.212 1.417-.182.206-.288.375-.236.375.052 0 .631-.638 1.287-1.417.657-.779 1.16-1.416 1.118-1.416-.041 0-.472.468-.957 1.041m-82.77.375c.001.459.034.626.072.373a3.008 3.008 0 0 0-.002-.833c-.04-.205-.071.002-.07.46m118.011 5.042c.007 4.223-.041 5.591-.2 5.75-.16.16-2.394.228-9.609.292-7.452.066-9.445.128-9.616.302-.179.18-.135.188.252.041.31-.116 3.567-.179 9.584-.182 8.53-.005 9.137-.025 9.473-.306.4-.334.52-5.224.234-9.522-.093-1.399-.125-.42-.118 3.625M37.22 34.667c0 .595.03.839.067.541a5.297 5.297 0 0 0 0-1.083c-.037-.298-.067-.054-.067.542m50.167 1c0 .595.03.839.067.541a5.297 5.297 0 0 0 0-1.083c-.037-.298-.067-.054-.067.542m44.617 2.5c-.116 7.115-.14 7.761-.316 8.5-.251 1.047-.212 1.2.106.416.267-.66.508-9.053.332-11.583-.036-.504-.09.696-.122 2.667m209.373-3.047c.254.038.629.037.834-.003.205-.039-.003-.071-.461-.069-.458.001-.626.033-.373.072m19.366.005 5.161.047.5.455c.288.263.397.315.256.123-.545-.745-.507-.741-5.91-.706l-5.167.034 5.16.047m-108.104.5c-.233.252-.805.983-1.272 1.625-.466.642-.99 1.354-1.165 1.583-.881 1.159-.675 1.458 1.298 1.882.596.128.971.273.833.321-.137.048-.7.219-1.25.378-.768.223-1.17.467-1.733 1.05-.605.627-.879.783-1.568.892-1.236.196-2.704 1.296-4.902 3.674-.112.121-.51.52-.884.887-.375.366-.79.891-.924 1.166-.134.275-.149.355-.033.177.511-.785 4.605-4.746 5.132-4.965.319-.133 1.085-.288 1.703-.345 1.337-.124 1.681-.283 1.945-.902.31-.725 1.24-1.32 2.562-1.638.661-.159 1.273-.329 1.359-.379.211-.121-1.598-.621-2.784-.769-1.038-.13-1.313-.624-.695-1.248.144-.145.711-.902 1.261-1.681.549-.779 1.157-1.585 1.351-1.791.193-.207.315-.375.271-.375-.045 0-.272.206-.505.458m85.787-.088c-.143.204-.25.635-.238.958.02.579.022.577.136-.123.154-.946.245-1.011 1.509-1.081l1.084-.06-1.116-.032c-.984-.029-1.146.011-1.375.338m8.616-.246c1.352.028 3.564.028 4.916 0 1.352-.028.246-.051-2.458-.051s-3.81.023-2.458.051M93.014 37.667c-.095 4.512-.076 6.005.08 6.161.097.097.139-1.094.113-3.128-.063-4.7-.134-5.822-.193-3.033M31.048 36.25c.001.458.033.626.072.373a2.975 2.975 0 0 0-.003-.834c-.039-.205-.071.003-.069.461m161.997.417c0 .412.033.581.073.375a2.418 2.418 0 0 0 0-.75c-.04-.207-.073-.038-.073.375m173.408 4.416c-.072 2.75-.168 5.3-.213 5.667-.075.616-.066.635.12.25.193-.399.416-8.602.279-10.25-.031-.367-.114 1.583-.186 4.333m-329.32-1.791c-.045 4.026-.058 3.896.447 4.331l.439.377 13.699-.041 13.699-.04-13.681-.044-13.68-.044-.391-.417c-.388-.412-.392-.452-.349-3.749.023-1.832-.001-3.332-.053-3.332-.053 0-.111 1.332-.13 2.959m258.532.166c-.001 1.719-.046 3.392-.1 3.718-.08.484-.016.69.35 1.125l.448.532h9.079c5.749 0 9.194.062 9.392.167.457.245.305 4.172-.189 4.875-.177.252-.246.458-.154.458.722 0 1.147-4.934.466-5.411-.317-.222-1.562-.255-9.49-.255h-9.126l-.265-.405c-.224-.342-.263-.989-.249-4.167.009-2.069-.024-3.762-.072-3.762-.049 0-.089 1.407-.09 3.125M87.361 41.834c.05 4.392.088 4.969.358 5.416.166.275.251.35.188.167-.21-.613-.357-3.133-.394-6.748-.02-1.97-.075-3.62-.122-3.666-.046-.047-.06 2.127-.03 4.831m-56.158 1.621-.036 6.039.375.09c.206.05 10.462.07 22.791.044l22.417-.046-22.625-.041c-12.444-.023-22.64-.06-22.659-.083-.019-.023-.078-2.741-.13-6.041l-.096-6-.037 6.038m200.782-5.538c.096.183.558.745 1.025 1.25.837.902 1.005.947.278.074-.8-.962-1.469-1.641-1.303-1.324m8.937 1.052c-.6.717-1.306 1.463-1.57 1.658-.432.319-1.436 1.844-1.302 1.978.03.03.237-.255.46-.634a6.968 6.968 0 0 1 1.032-1.275c.683-.639 2.702-3.029 2.559-3.029-.049 0-.579.586-1.179 1.302m97.264-.604c-.011.43.04.819.113.863.072.045.105-.194.073-.531-.097-1.031-.166-1.153-.186-.332m-166.477.218c.002.367.036.497.076.29a1.835 1.835 0 0 0-.004-.667c-.042-.159-.074.011-.072.377m27.197 3.75c0 2.338.023 3.294.052 2.125.029-1.168.029-3.081 0-4.25-.029-1.168-.052-.212-.052 2.125m128.628-1.619c-.051 3.987.059 4.138 2.997 4.086l1.886-.034-1.983-.091c-2.704-.125-2.652-.053-2.775-3.811l-.092-2.781-.033 2.631m-155.825-.797c.002.366.036.497.076.289a1.83 1.83 0 0 0-.004-.666c-.042-.16-.074.01-.072.377m21.458 1.57v2.154l-.513.513-.513.513h-19.617l-.345-.439c-.19-.242-.346-.355-.346-.25 0 .864-.108.855 10.517.855h9.85l.567-.566.566-.567v-2.183c0-1.201-.037-2.184-.083-2.184-.046 0-.083.97-.083 2.154m145.019-1.721c-.051.924-.245.907 10.162.859l9.569-.044-9.605-.041c-10.117-.042-9.835-.02-10.025-.79-.079-.321-.082-.32-.101.016m-103.927.833c.281.266.839.934 1.241 1.484 1.045 1.429 1.765 1.715 2.37.941.182-.234.177-.247-.037-.088-.695.518-1.164.392-1.853-.498-1.26-1.626-1.565-1.971-1.897-2.147-.193-.102-.12.027.176.308m-8.18.568c.356.412.945 1.05 1.31 1.416l.664.667-.513-.667a14.737 14.737 0 0 0-1.31-1.416l-.797-.75.646.75m134.405.031c.361.626.278 2.774-.123 3.175-.162.162-2.205.23-8.828.297l-8.616.086 8.532.039 8.532.038.459-.394c.794-.683.723-3.176-.106-3.688-.092-.058-.025.144.15.447M171.718 42.75c.001.55.032.755.069.455a4.392 4.392 0 0 0-.001-1c-.038-.25-.069-.005-.068.545m56.628.997c.563.719 3.189 3.61 3.132 3.447-.034-.094-.436-.596-.895-1.115-.986-1.116-2.614-2.814-2.237-2.332m-150.216.179c.69.484.516 5.555-.192 5.593-.294.016-.303.033-.055.097.684.178.784-.185.784-2.861 0-2.575-.126-3.088-.759-3.088-.082 0 .018.116.222.259m-11.167.03a8.34 8.34 0 0 0 1.333-.002c.341-.035.021-.064-.713-.064-.733.001-1.012.03-.62.066m4.662.002a95.82 95.82 0 0 0 4.083 0c1.123-.029.204-.053-2.041-.053-2.246 0-3.165.024-2.042.053m21.942.5c.175.207.475.367.667.356.336-.019.337-.022.016-.101-.183-.044-.483-.204-.667-.355-.33-.272-.33-.272-.016.1m9.129.334c3.454.025 9.154.025 12.667 0 3.513-.026.687-.046-6.28-.046-6.966 0-9.841.02-6.387.046m232.105-.001c.944.03 2.444.03 3.333 0 .889-.03.116-.054-1.717-.054-1.834 0-2.561.024-1.616.054m-64.395 2.8c.023 2.398.092 2.742.546 2.742.229 0 .222-.048-.046-.345-.271-.3-.306-.577-.265-2.125.026-.979-.021-1.964-.105-2.189-.103-.276-.145.346-.13 1.917m-71.901-.186c-.095.248-.25.596-.344.773-.095.177-.134.322-.087.322.143 0 .789-1.359.692-1.456-.049-.05-.167.113-.261.361m33.399.345c.166.275.419.593.561.706.142.113.395.413.562.666.167.254.305.37.305.259.001-.112-.347-.599-.772-1.084-.983-1.119-1.022-1.152-.656-.547m-100.571.212c0 .237-.793 1.082-1.343 1.431-.897.569-2.069.604-20.135.608-16.77.004-18.624-.035-20.105-.428-.257-.069-.276-.053-.083.066 1.068.664 1.966.694 20.348.694 17.354 0 17.721-.006 18.845-.341 1.397-.416 2.973-1.715 2.57-2.117-.053-.054-.097-.014-.097.087m-43.32.174c-.013.223 1.152 1.421 1.268 1.305.035-.035-.192-.287-.503-.561-.312-.274-.609-.603-.659-.731-.071-.178-.096-.181-.106-.013m277.237.697c-.358.367-.58.666-.492.664.143-.003 1.343-1.33 1.202-1.33-.033 0-.352.3-.71.666m-42.166 0c.274.32.518.614.541.652.023.039.078.034.123-.01.044-.045-.2-.338-.542-.653l-.622-.572.5.583m-125.538.042c-.304.394-.44.748-.176.458.126-.137.334-.343.463-.458.129-.115.153-.208.054-.208s-.252.093-.341.208m-28.713.245c-.794.143-.763.386.046.356.634-.024.748-.073.599-.253-.102-.123-.195-.213-.207-.2a3.051 3.051 0 0 1-.438.097m-27.999.434c.747.735 1.543.78 13.827.772l11.756-.008.75-.401c.903-.484.795-.526-.286-.111-.903.347-23.125.397-24.487.055-1.21-.303-1.643-.388-1.56-.307m29.749.374.834.401 8.819.002c4.851.001 8.788-.028 8.75-.066-.038-.037-3.963-.091-8.722-.12-7.778-.048-8.738-.083-9.494-.349-1.13-.398-1.193-.353-.187.132M196 49.802c-.43.202-1.284.299-3.25.371l-2.667.097 2.609.031c2.465.031 2.657.01 3.5-.383.49-.228.779-.409.641-.403-.137.007-.512.136-.833.287m128.25-.148c1.502.703 1.222.694 20.25.635 16.177-.05 18.171-.084 18.917-.328.909-.297.575-.381-.515-.129-.394.091-8.094.187-18.25.226-17.61.069-18.282.053-20.386-.472-.336-.084-.337-.082-.016.068m-88.708.137c.893.03 2.356.03 3.25 0 .893-.03.162-.055-1.625-.055-1.788 0-2.519.025-1.625.055m51.125.377c-10.106.077-9.285.09 8.069.125 10.626.022 19.28.001 19.232-.047-.132-.132-14.649-.173-27.301-.078" fill="#939495"/><path d="M207.875 19.155c-.744.467-.682.831.292 1.714.458.416.833.824.833.906 0 .083.206.336.458.563.252.227.684.704.959 1.061.896 1.164 1.159 1.479 1.625 1.944.252.251.458.536.458.631 0 .096.132.272.294.392.598.442.918 1.684.477 1.853-.126.048-.278.349-.338.668-.138.739-.331.883-1.329.99-.446.048-.861.166-.92.262-.06.097-.432.248-.826.337-.395.089-.755.199-.802.246-.195.195.591.421 1.044.3.296-.08.767-.045 1.218.091.404.121.937.22 1.184.22.949 0 1.498.324 1.498.883 0 .402-.044.473-.2.317-.297-.297-.967-.251-.967.066 0 .146.14.302.31.347.217.056.378.362.535 1.018.462 1.926 1.742 2.554 3.124 1.533.555-.41.911-.306 1.111.326.08.25.294.404 1.129.811.228.111.118-1.045-.131-1.374-.31-.41-.319-1.093-.014-1.093.127 0 .27.15.318.333a.443.443 0 0 0 .436.333c.192 0 .349.073.349.161 0 .088.563.736 1.25 1.439.688.703 1.25 1.339 1.25 1.413 0 .074.144.236.32.359.176.123.916.934 1.644 1.801.728.868 1.747 2.009 2.263 2.536.517.527.94 1.066.94 1.197s.156.288.347.349c.191.06.424.328.516.594.093.267.268.485.389.485s.372.245.557.544c.185.3.539.731.786.959.247.227.747.788 1.11 1.247 1.887 2.378 1.877 2.374 5.861 2.484 2.795.077 4.267-.175 4.267-.731 0-.107 1.304-1.45 2.639-2.717.386-.367.39-.367.618-.036 1.284 1.865 1.9 2.25 3.606 2.25.812 0 1.194-.08 1.49-.311.218-.17.562-.362.765-.425.428-.135 1.215-1.015 1.215-1.36 0-.131.073-.238.161-.238.286 0 1.673-1.567 1.673-1.889 0-.172.191-.54.425-.818.322-.382.4-.618.322-.97-.081-.369-.027-.507.261-.66.556-.298 4.266-.996 5.292-.996 1.029 0 3.033-.332 3.033-.503 0-.125-2.075-.382-5.552-.689-2.517-.222-2.722-.326-3.012-1.522a.9.9 0 0 0-.54-.627c-.236-.09-.467-.312-.515-.494-.048-.183-.219-.332-.381-.332-.319 0-.532-.512-.341-.82.17-.275.674-.032.674.325 0 .197.166.339.476.407.37.081.525.251.694.763.15.455.313.659.529.659.527 0 .573-.511.078-.872-.244-.177-.444-.485-.446-.684-.004-.516-.185-.735-.72-.869-.551-.138-.515-.814.064-1.221.179-.125.325-.326.325-.446s.188-.365.417-.545c.229-.18.417-.406.417-.501 0-.095.15-.221.333-.279.183-.058.333-.173.333-.254 0-.082.19-.358.422-.614.231-.256.888-1.067 1.458-1.803s1.129-1.448 1.241-1.583l1.122-1.355a48.509 48.509 0 0 1 1.379-1.603c.254-.271.799-.918 1.212-1.438a41.656 41.656 0 0 1 1.625-1.896c.481-.524.875-1.006.875-1.071 0-.065.168-.299.375-.521 1.299-1.398 1.301-1.408.444-1.929-.381-.232-.656-.266-1.357-.166-.483.069-2.245.131-3.915.137l-3.036.013-.672.618c-.37.34-.673.687-.673.772 0 .085-.168.316-.375.513-.206.196-1.312 1.438-2.458 2.759-1.146 1.321-2.29 2.605-2.542 2.853-.252.249-.458.513-.458.587 0 .075-.148.289-.329.475a87.038 87.038 0 0 0-3.289 3.589c-.591.688-1.182 1.31-1.312 1.384-.13.073-.237.239-.237.369 0 .129-.153.318-.341.418-.188.101-.411.366-.496.589-.091.24-.288.407-.481.407-.179 0-.373.15-.432.333-.158.498-.541.402-.666-.166-.119-.539-.324-.649-.475-.256-.052.135-.341.348-.643.475-1.021.427-1.294 1.252-.477 1.445.411.097.694.502.35.502-.104 0-.299.263-.433.584-.134.32-.316.583-.405.583-.088 0-.306.281-.483.625-.178.344-.48.719-.67.835-.191.115-.348.306-.348.425 0 .348-1.031.627-1.884.51-.473-.065-.965-.027-1.265.098-.683.283-1.27-.031-1.921-1.026-.282-.43-.609-.786-.725-.791-.117-.005-.282-.19-.366-.412-.084-.221-.307-.451-.496-.511-.188-.06-.343-.249-.343-.42 0-.171-.15-.358-.333-.416-.183-.059-.333-.172-.333-.252 0-.192-2.12-2.684-2.522-2.966-.172-.12-.312-.296-.312-.392 0-.095-.206-.382-.458-.637-1.023-1.033-1.126-1.404-.441-1.576.28-.07.582-.013.849.163.388.254.439.251.774-.041.335-.291 3.361-.313 7.343-.053.559.036.662-.259.328-.941-.234-.48-.394-.623-.645-.575-1.52.293-8.579.191-8.898-.128-.187-.187-.378-.278-.425-.201-.048.076-.294.181-.548.232a5.685 5.685 0 0 0-.739.2c-.19.074-.311-.002-.388-.243-.061-.193-.274-.532-.473-.752-.199-.221-.737-.828-1.195-1.35a91.947 91.947 0 0 0-1.209-1.351c-.206-.221-.375-.467-.375-.546 0-.078-.6-.743-1.333-1.478-.733-.734-1.333-1.405-1.333-1.491 0-.086-.225-.392-.5-.679-.275-.288-.5-.599-.5-.692 0-.092-.11-.168-.244-.168-.135 0-.334-.169-.443-.375-.11-.206-.487-.656-.84-1L216.5 19h-3.31c-1.821 0-3.639-.042-4.042-.092-.561-.071-.857-.014-1.273.247m-176.933.223c-.462.337-.425 29.88.037 30.342.507.507 47.117.598 47.758.094l.43-.338-.004-2.696c-.003-2.343-.043-2.748-.305-3.089l-.302-.392-11.736.046c-21.684.083-28.535.008-28.797-.315-.188-.233-.208-2.217-.119-11.808l.108-11.528-.377-.264c-.496-.347-6.229-.392-6.693-.052m6.201.224.383.269-.101 10.689c-.056 5.88-.138 11.039-.183 11.465-.07.66-.018.851.354 1.293l.437.519 20.087-.006c14.861-.004 20.146.044 20.316.185.308.256.336 5.146.031 5.451-.227.226-46.723.297-47.078.071-.325-.207-.515-29.559-.193-29.827.159-.131 1.081-.219 2.649-.253 1.323-.028 2.52-.068 2.66-.088.14-.02.427.084.638.232m179.027-.1c.353.189 1.606 1.493 2.64 2.748.378.458.894 1.06 1.147 1.338.664.728 1.87 2.142 3.052 3.579a98.58 98.58 0 0 0 1.253 1.5l1.061 1.174a54.524 54.524 0 0 1 1.715 2.017c1.267 1.575 3.98 4.78 4.706 5.559.342.366.818.929 1.058 1.25.239.32.551.712.692.869l1.051 1.167a32.523 32.523 0 0 1 1.447 1.737c.908 1.19 1.491 1.099 2.279-.358.295-.545.835-1.255 1.201-1.578.366-.323 1.134-1.15 1.708-1.837.574-.688 1.236-1.449 1.473-1.692.237-.243.618-.69.847-.994.229-.303.609-.741.845-.974.236-.233.498-.549.583-.702.086-.152.643-.792 1.239-1.421a51.55 51.55 0 0 0 1.904-2.138c.451-.548.908-1.071 1.014-1.163.107-.091.558-.616 1.004-1.166.445-.55 1.363-1.638 2.039-2.417.675-.779 1.542-1.779 1.925-2.223.383-.443.885-1.021 1.114-1.284.229-.263.679-.784 1-1.156.32-.373.835-.958 1.143-1.299l.561-.621 3.725-.051c3.595-.049 4.404.037 4.404.465 0 .164-1.02 1.42-2.998 3.69-.688.79-1.395 1.615-1.57 1.833-.174.218-.587.7-.916 1.071-.33.372-.824.962-1.099 1.311a80.366 80.366 0 0 1-1.667 1.992c-2.778 3.228-5.415 6.452-6.289 7.689-.518.733-1.059 1.452-1.201 1.597-.616.626-.341 1.119.696 1.248 1.186.148 2.995.648 2.784.769-.086.05-.698.22-1.359.379-1.322.318-2.252.913-2.562 1.638-.264.619-.608.778-1.945.902-.618.057-1.384.212-1.703.345-.58.241-5.004 4.537-5.004 4.86 0 .51-.984.678-3.967.678-2.765 0-4.033-.155-4.033-.493 0-.07-.244-.394-.542-.721a45.658 45.658 0 0 1-.936-1.065c-.217-.259-.968-1.108-1.668-1.887-.701-.78-1.648-1.867-2.106-2.417-.457-.55-.953-1.113-1.102-1.25-.149-.138-1.121-1.263-2.16-2.5a148.845 148.845 0 0 0-5.176-5.846c-.308-.328-1.215-.994-2.015-1.479-.8-.485-1.534-.978-1.631-1.095-.097-.117-.323-.174-.501-.127a1.182 1.182 0 0 1-.615-.027c-.438-.168.086-.441.6-.312 1.125.283.279-1.546-2.057-4.447-1.618-2.009-2.137-2.618-4.361-5.115l-1.066-1.198.371-.26c.443-.31 7.41-.391 7.968-.092m5.193 3.04c.03.206.129.375.22.375.092 0 .191-.169.22-.375.037-.258-.032-.375-.22-.375s-.256.117-.22.375m-28.377 3.349c-.267.17-.489.395-.493.5-.004.106-.007 4.027-.006 8.713.002 7.847-.021 8.541-.284 8.771-.294.257-18.42.589-19.316.354-.571-.149-.571-.156-.558-9.324.011-7.94-.012-8.711-.267-8.923-.473-.392-5.808-.348-6.318.052l-.386.304.097 8.4c.104 8.944.079 9.291-.677 9.494-.873.234-18.872.108-19.204-.135-.471-.344-.544-2.079-.445-10.514l.084-7.166-.374-.334c-.555-.495-5.571-.603-6.153-.132l-.377.305.018 10.239.018 10.239.424.946c.452 1.007 1.229 1.847 2.314 2.501l.667.402 12.482.047 12.482.047.807-.422c1.02-.534 1.609-.531 2.644.01l.826.432 12.307.004 12.306.005.906-.433c2.957-1.412 2.961-1.433 2.978-14.811l.012-9.288-.433-.284c-.671-.439-5.387-.438-6.081.001m77.681-.094-.584.289-.045 2.844c-.045 2.808-.041 2.845.333 3.045.281.149 2.792.211 9.712.238l9.334.037.01 5.72c.007 4.278-.042 5.79-.196 6-.187.256-.978.28-9.366.28-8.775 0-9.177.013-9.513.317-.471.425-.549 5.562-.091 5.942.415.345 44.718.237 45.072-.109.289-.282.555-5.108.309-5.597-.258-.511-.827-.542-9.925-.548-6.335-.003-9.087-.06-9.216-.188-.189-.188-.256-11.455-.071-11.756.049-.079 4.274-.144 9.387-.144 9.202 0 9.301-.004 9.611-.347.421-.464.579-5.198.192-5.72-.233-.314-7.998-.5-16.287-.391-3.433.045-8.728.018-18.666-.095-8.736-.099-9.459-.086-10 .183m-167.917.036c-13.933.093-13.102.019-14.325 1.272-.346.355-.814 1.057-1.04 1.562l-.411.916.009 8.733c.008 7.222.05 8.779.242 9 .128.147.323.548.433.892.228.71 1.188 1.554 2.337 2.052.722.314 1.312.323 19.916.323h19.172l.667-.36c.9-.487 2.083-1.525 2.083-1.828 0-.136.169-.599.375-1.029.373-.78.374-.816.375-9.283v-8.5l-.615-1.273c-.666-1.38-1.641-2.161-2.968-2.378-.904-.147-12.482-.191-26.25-.099m224.406.003c-2.206.073-2.668.134-3.084.411-.269.18-.705.441-.969.581-.303.161-.686.654-1.04 1.339l-.561 1.083-.001 8.776-.001 8.776.48 1.057c.545 1.198 1.263 1.934 2.348 2.403.721.311 1.341.321 19.922.321s19.201-.01 19.922-.321c1.037-.449 1.772-1.176 2.369-2.345l.512-1 .054-5.5c.061-6.1.015-6.484-.801-6.647-.945-.189-27.214-.118-27.768.075-.685.239-.707.332-.725 3.093-.013 1.956.034 2.475.256 2.813l.272.416h10.796c8.175 0 10.845.048 10.996.2.283.283.256 2.159-.036 2.559-.356.487-31.066.511-31.549.025-.445-.447-.386-11.247.064-11.576.212-.155 1.525-.211 5.128-.218 2.664-.005 11.131-.023 18.816-.041l13.973-.033.319-.393c.735-.907.401-5.793-.402-5.877-.65-.069-37.163-.048-39.29.023m-197.624.636c2.603 1.271 2.68 1.629 2.6 12.028-.078 10.119-.209 10.58-3.264 11.49-1.547.46-35.743.541-37.701.088C89.364 49.662 88 48.804 88 48.086c0-.148-.13-.509-.29-.803-.451-.831-.62-15.989-.196-17.666.354-1.406.984-2.337 1.974-2.919l.762-.448 4.417-.083c2.429-.046 11.091-.082 19.25-.08l14.833.003.782.382m14.791-.194.397.278-.112 8.394c-.118 8.843-.112 8.924.613 9.526.183.152 2.631.201 10.041.203l9.799.002.428-.428.428-.429v-3.37c0-1.854-.038-5.747-.084-8.651l-.083-5.281.417-.237c.566-.321 5.154-.308 5.544.016.236.195.254 1.124.175 8.834l-.089 8.615.364.458.363.459h19.617l.524-.524.523-.524-.116-8.48c-.111-8.008-.1-8.498.181-8.809.43-.475 4.997-.503 5.576-.033l.367.296-.145 10.245c-.172 12.15-.109 11.855-2.779 13.055l-.979.44-11.938-.001-11.938-.002-.917-.434c-1.168-.553-2.217-.545-3.34.024l-.816.413h-23.462l-1.138-.413c-2.988-1.083-3.063-1.441-3.092-14.753l-.02-8.75.392-.206c.642-.337 4.798-.284 5.299.067m170.894.059c.383.424.132 4.951-.291 5.26-.27.197-1.831.236-9.437.236-7.385 0-9.15.042-9.299.222-.396.477-.502 11.615-.117 12.203l.268.409h9.144c8.466 0 9.17.021 9.492.291.449.378.345 4.485-.128 5.056-.307.372-43.876.526-44.245.157-.097-.097-.183-1.244-.201-2.682l-.032-2.511.409-.156c.234-.089 4.261-.155 9.449-.155 7.285 0 9.1-.044 9.345-.223.388-.283.474-11.902.092-12.361-.179-.216-1.457-.25-9.508-.25-11.077 0-9.825.382-9.825-2.998v-2.474l.459-.169c.817-.3 44.151-.159 44.425.145m51.158-.059.458.231v2.253c0 2.172-.014 2.268-.41 2.663l-.41.411-18.63-.004c-20.765-.005-19.312-.086-19.572 1.102-.236 1.083-.155 10.395.095 10.878.493.954-.495.901 16.355.878 16.203-.022 16.165-.02 16.31-.736.252-1.247.223-2.264-.079-2.76l-.312-.514-10.705-.01c-12.666-.011-11.262.323-11.265-2.682-.004-3.193-1.899-2.804 14.144-2.902l13.603-.083.397.396.396.396-.101 5.394c-.127 6.727-.459 7.904-2.396 8.483-.368.11-1.002.304-1.408.431-.885.276-36.372.348-37.045.075a21.259 21.259 0 0 0-1.3-.436c-1.072-.328-1.706-.981-2.161-2.225-.373-1.023-.675-15.77-.361-17.662.424-2.551 1.683-3.548 4.656-3.685 4.796-.221 39.273-.127 39.741.108m-152.391 2.864c-.246.085-.371-.087-.23-.315.09-.145.157-.137.261.03.083.133.07.251-.031.285m25.127 1.316c-.072.115-.426.209-.788.209-.751 0-.793.082-.308.599.334.356.36.359.646.073.163-.163.39-.328.504-.366.113-.038.177-.216.142-.396-.046-.233-.102-.267-.196-.119m-145.426 1.69c-.669.669-.74 11.539-.079 12.199l.355.355 15.701-.02c9.898-.012 15.814-.08 16.006-.183.554-.296.631-1.136.605-6.529l-.027-5.28-.402-.429-.402-.428h-15.721c-15.19 0-15.732.011-16.036.315m31.783.249c.419.418.53 10.911.122 11.533l-.264.403H94.191l-.35-.445c-.344-.437-.348-.532-.242-5.625.126-6.06.106-5.975 1.402-6.104 2.621-.26 30.184-.045 30.467.238M235.75 34a.308.308 0 0 0 .046.362c.111.111.207.102.287-.029a.31.31 0 0 0-.045-.362c-.111-.111-.207-.101-.288.029m-1.225.887c-.154.186-.13.319.113.619.417.514.905.34.831-.297-.06-.523-.619-.714-.944-.322m1.916.45c-.056.277-.234.553-.396.613-.405.149-.539.384-.542.943-.003.454-.033.472-.67.412-.648-.062-.917.187-.489.451.097.061.245.29.329.51.237.624.641.499.758-.233.066-.416.22-.689.446-.792.19-.087.427-.304.526-.484.099-.179.274-.429.389-.554.289-.315.273-1.37-.021-1.37-.126 0-.275.227-.33.504m18.485.104c-.061.242-.037.515.054.605.246.247.74 0 .621-.311a1.666 1.666 0 0 1-.101-.499c0-.416-.46-.252-.574.205m-12.156.134c.137.358-.059.572-.433.474-.265-.069-.296-.147-.16-.401.2-.375.464-.408.593-.073M256 36.75c0 .153.081.251.179.218.099-.033.179-.131.179-.218s-.08-.185-.179-.218c-.098-.033-.179.065-.179.218m-16.833.851c0 .176.09.233.263.167.145-.056.37-.101.5-.101s.237-.075.237-.167c0-.092-.225-.167-.5-.167-.348 0-.5.082-.5.268m-1.625 4.015c.068.039.124.197.122.352-.007.745-.91 1.117-1.154.476-.086-.226-.236-.461-.333-.521-.659-.407.657-.704 1.365-.307m-9.459 4.217a.31.31 0 0 0 .046.363c.111.111.207.101.288-.029a.31.31 0 0 0-.046-.363c-.111-.111-.207-.101-.288.029" fill="#7a7a7c"/><path d="M208.503 19.567c-.487.218-.454.289.85 1.804.652.759 1.496 1.744 1.875 2.19.379.445.778.905.888 1.02.174.184 2.362 2.954 3.4 4.305.198.258.399.807.445 1.22.09.793.178.881 2.456 2.439.633.434 1.693 1.522 3.862 3.967 2.58 2.908 2.965 3.359 3.229 3.783.155.25.526.68.824.955.297.275.961 1.025 1.476 1.667.515.641 1.162 1.4 1.439 1.686.277.286.878.952 1.336 1.479.459.527 1.226 1.38 1.705 1.896.479.516.912 1.062.964 1.212.32.945 7.906.643 7.916-.315.001-.069.341-.462.756-.875.414-.413.845-.849.957-.97 2.164-2.353 3.667-3.479 4.901-3.674.689-.109.963-.265 1.568-.892.563-.583.965-.827 1.733-1.05.55-.159 1.113-.33 1.25-.378.138-.048-.237-.193-.833-.321-1.974-.424-2.181-.725-1.296-1.882.175-.229.707-.946 1.182-1.594a49.145 49.145 0 0 1 1.625-2.084c2.413-2.869 5.44-6.437 5.656-6.665.137-.145.475-.551.75-.901a43.81 43.81 0 0 1 1.015-1.238c.283-.331.658-.778.833-.995.175-.217 1.164-1.366 2.197-2.554 2.119-2.435 2.446-2.88 2.293-3.128-.07-.113-1.455-.174-3.932-.174H258l-.625.65c-.763.793-1.119 1.191-2.031 2.267L254 24c-.352.412-1.403 1.65-2.336 2.75a710.14 710.14 0 0 1-3.557 4.167c-.549.641-1.474 1.691-2.056 2.333-1.355 1.496-1.524 1.694-2.401 2.817-.401.513-.777.933-.836.933-.058 0-.67.694-1.36 1.542-.689.848-1.542 1.812-1.895 2.142-.353.331-.919 1.053-1.257 1.605-1.013 1.655-1.476 1.581-3.023-.485-.526-.704-1.019-1.304-1.095-1.334-.075-.029-.638-.653-1.251-1.387a80.97 80.97 0 0 0-1.648-1.92 34.168 34.168 0 0 1-1.118-1.31 31.747 31.747 0 0 0-1-1.179 39.011 39.011 0 0 1-1.25-1.502c-1.195-1.5-2.783-3.38-3.102-3.672-.151-.137-1.231-1.413-2.4-2.833-1.17-1.421-2.305-2.771-2.523-3-.217-.229-.985-1.092-1.706-1.917-2.15-2.46-1.544-2.219-5.725-2.28-1.992-.029-3.773.014-3.958.097m-177.081.159c-.304.222-.284 28.178.021 29.402l.094.377 22.379-.008 22.378-.008.594-.453c.714-.545.847-1.029.695-2.541-.165-1.641.77-1.514-10.859-1.473-12.57.044-10.201.041-19.391.021-8.68-.018-7.982-.01-9.665-.118-1.249-.081-1.668-.3-1.668-.874 0-.12-.159-.376-.353-.57-.423-.424-.377-1.784.079-2.287.151-.167.274-.504.274-.749 0-.482-.238-.6-.394-.195-.052.137-.229.251-.392.253-.324.003-1.432 1.069-1.6 1.539-.067.188-.278.291-.592.291-.701 0-.873.608-1.001 3.529-.058 1.345-.152 2.491-.208 2.547-.267.267-.594-27.884-.329-28.379.187-.349.293-.363 2.776-.363h2.582l.179.458c.176.449.143 5.377-.122 18.458-.083 4.104-.06 5.054.128 5.3.219.285 1.194.298 20.673.288 11.243-.007 20.467.046 20.496.117.244.583-.075 4.518-.372 4.596-.178.047-.324.199-.324.339s-.169.288-.375.328c-.206.041-.043.046.362.011.405-.035.78-.107.833-.16.175-.174.219-5.096.047-5.268-.106-.106-7.258-.158-20.252-.145l-20.087.019-.459-.394c-.334-.288-.458-.549-.457-.963.001-.312.063-5.533.138-11.603.108-8.866.093-11.085-.078-11.291-.293-.353-5.274-.38-5.75-.031m185.183.57c.786.768 3.322 3.707 6.071 7.037a85.169 85.169 0 0 0 2.086 2.417c1.113 1.232 1.553 1.767 3.136 3.814.54.698 1.048 1.269 1.13 1.269.082 0 .197.132.256.292.103.28 2.259 2.84 3.129 3.715.231.232.42.474.42.536 0 .063.489.61 1.087 1.217.597.606 1.201 1.325 1.342 1.597 1.124 2.173 2.527 2.01 3.782-.44.141-.275.582-.809.981-1.187.719-.681 1.828-1.942 2.308-2.625.244-.346.853-1.04 2.292-2.615.39-.426.708-.845.708-.931 0-.087.307-.454.682-.817.376-.362 1.407-1.515 2.292-2.563l2.61-3.086 1.333-1.576c.183-.217.521-.6.75-.85.229-.25.56-.634.735-.853.966-1.206 3.243-3.815 3.801-4.355l.645-.625h3.65c2.007 0 3.685.058 3.729.129.071.115-1.136 1.594-3.568 4.371a102.49 102.49 0 0 0-1.822 2.166 86.513 86.513 0 0 1-1.831 2.167c-.445.504-1.285 1.483-1.866 2.176-3.673 4.377-4.297 5.106-4.617 5.391-.196.175-.356.39-.356.478 0 .089-.206.412-.458.719-1.914 2.327-2.156 3.063-1.147 3.49l.522.22-.5.19c-.275.104-.763.433-1.084.73-.321.298-.995.721-1.5.941-1.42.619-4.5 3.299-4.5 3.917 0 .137-.085.248-.189.248-.211 0-2.311 2.148-2.311 2.364 0 .075-1.462.136-3.25.136-2.526 0-3.25-.047-3.25-.213 0-.117-.131-.338-.291-.492a38.842 38.842 0 0 1-.484-.47 32.19 32.19 0 0 0-.5-.484 16.12 16.12 0 0 1-.888-.983c-.318-.38-.675-.691-.791-.691-.117 0-.212-.107-.212-.238s-.375-.617-.834-1.08c-.458-.463-.833-.891-.833-.95 0-.06-.268-.418-.596-.795a413.35 413.35 0 0 1-1.291-1.502 19.801 19.801 0 0 0-1.155-1.246c-.252-.237-.458-.522-.458-.635 0-.112-.104-.264-.231-.338-.126-.073-.963-.996-1.859-2.05-2.236-2.631-4.104-4.52-5.519-5.583-1.048-.787-1.236-1.013-1.55-1.864-.197-.533-.448-1.044-.558-1.136-.11-.092-.421-.467-.691-.833-.473-.643-1.964-2.478-2.572-3.167-2.749-3.114-4.02-4.681-4.02-4.954 0-.071 1.678-.129 3.73-.129h3.73l.645.629M90.759 26.311c-.27.058 8.181.106 18.781.106h19.272l.885.48c2.079 1.128 2.276 2.074 1.903 9.103-.032.596-.104 3.289-.161 5.985-.057 2.696-.143 4.941-.191 4.989-.363.364-.722-1.138-.738-3.091l-.01-1.2-.441.408c-.577.535-.789.35-1.059-.926-.239-1.125-.289-1.161-.827-.588-.327.348-.388.598-.404 1.656-.03 1.985-1.601 3.101-3.668 2.605-.496-.119-1.115-.17-1.376-.113-.261.057-4.638.086-9.725.065-13.869-.06-18.183.019-18.543.338-.268.237-.327.23-.667-.081a4.915 4.915 0 0 0-.91-.613c-.669-.338-.833-.64-.967-1.78-.158-1.344-.127-1.306-.9-1.1-.51.136-.681.266-.686.522-.003.187-.109.527-.235.755l-.23.415-.198-.435c-.146-.322-.15-.525-.014-.779.288-.54.218-1.282-.154-1.619-.539-.488-.674-.121-.683 1.85-.006 1.112-.095 2.023-.229 2.346-.204.488-.191.556.181.905.241.227.402.566.402.85 0 .745.85 1.52 1.788 1.629 1.191.14 1.121.507-.096.507-.907 0-1.008-.035-1.056-.368-.033-.233-.206-.404-.47-.465-.321-.075-.428-.219-.469-.632-.037-.385-.136-.535-.352-.535-.384 0-.488-1.458-.506-7.083-.007-2.2-.096-4.588-.198-5.306-.181-1.283-.111-5.271.107-6.111.077-.298.063-.346-.051-.167-.554.873-.599 3.277-.274 14.725.134 4.713.606 5.682 3.02 6.196 1.396.298 36.534.368 38.072.076 1.428-.27 2.502-1.156 2.816-2.322.234-.87.538-3.34.442-3.591-.042-.11-.006-2.892.081-6.183.24-9.082-.189-10.64-3.136-11.39-.762-.193-37.23-.225-38.126-.033m48.126.064c-.147.227-.105 16.491.049 18.792.119 1.786.307 2.371 1.108 3.443 1.058 1.417.953 1.407 14.586 1.453 12.15.041 12.339.03 13.622-.76.315-.194 1.037-.216 1.268-.038 1.07.821 2.225.887 15.649.906l9.75.013 1.083-.386c1.242-.442 1.847-.981 2.409-2.146l.395-.821.121-10.079c.096-8.007.078-10.131-.089-10.332-.234-.282-5.046-.379-5.47-.11-.244.155-.292 7.515-.091 13.889l.109 3.45-.592.592-.592.592h-9.778c-6.059 0-9.893-.062-10.082-.163-.593-.317-.628-.927-.547-9.575.094-10.072.472-8.931-2.95-8.923-3.305.007-2.953-1.093-2.78 8.69.155 8.778.147 8.943-.479 9.569l-.402.402h-19.814l-.523-.595-.523-.596.116-8.48c.092-6.789.073-8.532-.098-8.738-.283-.341-5.237-.385-5.455-.049m131.865-.024c-.444.217-.471 4.666-.031 5.106.223.223 1.398.251 9.405.224 8.723-.03 9.169-.017 9.537.281l.386.312.062 5.959.063 5.96-.378.314c-.36.3-.804.316-9.491.321-9.82.006-10.08.027-9.789.792.097.255.155 1.264.128 2.243-.072 2.671-.312 2.539 4.358 2.403 4.974-.144 38.674-.164 39.022-.023.823.335 1.632-4.602.852-5.201-.209-.161-2.351-.209-9.391-.209h-9.12l-.438-.52c-.39-.464-.428-.62-.349-1.458.049-.516.125-3.106.17-5.756.072-4.217.117-4.856.364-5.128.269-.298.696-.312 9.365-.3 8.537.011 9.1-.006 9.367-.288.469-.494.612-4.807.167-5.045-.429-.23-43.786-.217-44.259.013m54.509-.04c-.27.058 8.842.106 20.25.106h20.741l.083 2.206c.057 1.496.023 2.288-.104 2.462-.166.227-2.3.26-18.846.294l-18.659.038-.6.457c-.516.394-.614.581-.703 1.334-.156 1.314-.191 11.575-.041 11.727.164.165 31.541.236 32.734.074 1.135-.154 1.434.015.926.525l-.377.377-14.79-.058-15.373-.062a5.34 5.34 0 0 0-1.203.167c-.677.187-.828.13-2.403-.908-.741-.489-.841-.514-1.177-.294-.449.295-1.634-.012-1.634-.423 0-.242.156-.27 1.774-.319.465-.015.697-.346.537-.764-.072-.186-.367-.25-1.15-.25-.749 0-1.132-.078-1.323-.27-.413-.412-.455-.241-.489 1.969-.031 2.015-.023 2.063.45 2.742.543.778.542 1.284-.003 1.361-.277.04-.394-.053-.475-.377-.059-.236-.225-.495-.369-.575-.218-.122-.27-.635-.318-3.123-.031-1.637-.13-4.041-.22-5.342-.09-1.3-.164-4.096-.164-6.213 0-4.706.11-5.097 1.724-6.122.353-.224.606-.443.562-.487-.132-.132-1.615.942-1.899 1.377-.757 1.155-.857 3.65-.553 13.779.216 7.195.341 7.504 3.264 8.097 1.976.401 35.789.348 37.925-.059 1.901-.362 2.732-1.304 2.885-3.268.349-4.475.365-10.564.029-10.948l-.329-.376-13.591.075c-12.768.07-13.604.092-13.807.37-.288.395-.273 4.463.018 4.704.126.105 4.072.177 10.777.196 5.968.017 10.705.096 10.869.182.939.491 1.096 3.005.233 3.747l-.459.394h-15.668c-10.905 0-15.771-.054-16.005-.18-.792-.424-.851-.984-.72-6.763l.122-5.372.408-.384.409-.384 18.754-.044 18.753-.045.311-.372c.478-.573.477-4.694-.001-4.95-.354-.189-40.206-.216-41.085-.028m-181.108.176c.225.142.185 7.908-.079 15.263-.089 2.498.011 2.911.77 3.165 1.055.353 20.491.202 21.05-.164.716-.469.706-.048.339-14.23-.082-3.184-.059-3.922.126-4.039.256-.162 4.473-.203 4.879-.048.326.125.364 4.302.085 9.316-.393 7.075-.328 8.416.434 8.968.462.334 20.283.449 21.142.123.704-.268.725-.648.55-9.648-.143-7.314-.133-8.578.068-8.706.294-.186 4.825-.197 5.116-.013.334.213-.056 16.276-.459 18.891-.095.614-.172 1.458-.172 1.875 0 .549-.066.76-.239.76-.131 0-.286.151-.345.335-.058.184-.326.449-.594.588-.269.139-.489.325-.489.415 0 .104-4.648.162-12.929.162-12.224 0-12.925-.016-12.869-.292.051-.244.219-.284 1.038-.246.804.037 1.034-.014 1.293-.292.385-.414.465-.415 1.254-.024.593.294.859.303 4.547.144 2.154-.093 6.016-.178 8.583-.188l4.667-.019.052-.458c.042-.361-.016-.458-.27-.458-.392 0-2.861-.607-2.989-.734-.05-.05.258-.241.683-.423 1.16-.497 1.081-.51-3.138-.51-3.408 0-3.899.032-3.815.25.068.179.348.25.984.25.488 0 1.099.083 1.357.184l.469.184-.417.163c-.767.3-3.698-.076-5.551-.712-1.695-.581-3.282-.079-3.282 1.04 0 .431-.053.474-.583.474-.419 0-.584-.073-.584-.261 0-.418.324-.905.601-.905.17 0 .238-.126.203-.375-.051-.357-.125-.375-1.554-.375-2.028 0-2.672-.172-3.411-.912-.756-.755-1.446-.69-1.286.122.233 1.18.269 1.119-.684 1.174-.829.047-.886.079-.98.548-.055.273-.183.469-.286.435-.347-.115-.293-.6.136-1.232.484-.712.536-1.088.189-1.376-.192-.16-.293-.115-.519.23-.154.235-.375.427-.491.427-.115 0-.304.113-.418.25-.114.138-.419.25-.678.25-.274 0-.663.178-.931.426l-.459.426-.29-.384-.289-.384-8.885-.054c-4.886-.029-9.195-.093-9.574-.141-.842-.106-1.87-1.068-2.042-1.91-.102-.497-.19-.569-.858-.698-.409-.079-.805-.202-.881-.274-.293-.28-.943.236-1.042.827-.054.32-.217.996-.363 1.5l-.264.916-.124-.833c-.153-1.033-.421-7.865-.353-9 .028-.458-.029-1.321-.126-1.917-.303-1.857-.308-7.811-.007-7.893.503-.137 4.757-.097 4.984.047m170.585-.053c.362.139.391 4.162.033 4.651-.222.305-.559.315-9.23.267l-9-.049-.527.474-.527.473-.067 2.083c-.186 5.722-.256 9.787-.175 10.112.144.579.636.609 10.257.624l9.083.014-.047 2.164c-.025 1.19-.1 2.202-.166 2.25-.066.047-1.62.049-3.453.003-3.307-.083-3.325-.085-2.24-.305a10.95 10.95 0 0 1 2.227-.166c1.484.071 1.828-.288.971-1.012-.446-.377-.542-.577-.542-1.131v-.674l-.773-.106c-2.294-.314-8.047-.118-8.877.303l-.807.408-.384-.408c-.397-.424-2.834-.633-3.062-.264-.049.08-.317.191-.595.246-.32.064-.576.256-.697.522-.219.481-.319.497-1.181.197-.617-.215-.676-.443-.114-.443.266 0 .49-.312.49-.683 0-.186-.996-.816-1.291-.817-.127 0-.209.227-.209.583 0 .625-.048.652-1.048.592-.735-.045-1.118.21-1.118.744 0 .432.281.581 1.097.581.518 0 .569.044.569.486 0 .81 1.127 1.148 2.597.779.68-.171 1.178-.22 1.295-.126.572.452 1.946.596 3.198.334 1.016-.212 1.401-.224 2.112-.063.707.159.956.152 1.335-.037.479-.239 1.496-.058 1.721.305.058.095-6.485.166-16.831.183-9.31.015-17.058.034-17.218.041-.258.013-.302-.217-.375-1.986-.046-1.1-.139-2.086-.208-2.191-.244-.376.558-.409 9.535-.393 4.999.009 9.314-.049 9.589-.129l.5-.146-.022-1.983c-.012-1.09-.077-3.89-.145-6.222l-.122-4.24-.522-.484-.522-.483-9.025.089c-8.112.08-9.048.063-9.245-.175-.342-.412-.326-4.692.017-4.785.409-.111 43.45-.118 43.739-.007m-225.288.377c-.482.318-1.429 1.344-1.441 1.561-.004.068.312-.197.701-.589.39-.391.896-.836 1.125-.988.23-.153.342-.281.25-.285-.091-.004-.377.131-.635.301m4.405 4.806c-.918.455-.986.822-1.198 6.486-.222 5.907-.165 6.439.73 6.809.577.239 32.408.252 32.974.014.435-.183.515-1.066.494-5.426-.027-5.642-.207-7.039-.987-7.633l-.59-.45-15.43-.04c-14.148-.036-15.476-.017-15.993.24m32.094.587.454.454.066 5.463.066 5.462-.398.584-.398.583-15.943.043-15.942.042-.468-.613-.467-.613.032-2.929c.039-3.506.209-7.816.324-8.222.226-.797-.078-.783 16.598-.744l15.621.036.455.454m240.188 3.508c.108.131.15.824.108 1.792-.038.869-.14 3.517-.226 5.886-.087 2.368-.196 4.344-.243 4.391-.207.208-.422-.174-.42-.744.012-2.308-.485-3.667-.871-2.381-.111.373-.266.677-.343.677-.199 0-.174-1.792.027-1.916.213-.132.217-.866.005-.997-.089-.055-.21.09-.269.323-.14.56-.691.564-.903.007-.356-.936-.722-.503-.619.733l.097 1.149-.447-.119c-.558-.148-.728-1.778-.298-2.851.278-.697.223-.829-.35-.829-.217 0-.568-.113-.779-.252-.33-.215-1.924-.264-11.119-.34l-10.735-.089-.113-2.115c-.074-1.395-.053-2.187.062-2.326.258-.311 27.179-.309 27.436.001M32.433 39.974c-.058.093-.024.22.075.281.257.159.422-.058.208-.272-.12-.12-.213-.123-.283-.009m330.734 1.109c0 .153.08.251.179.218.098-.032.179-.131.179-.218s-.081-.185-.179-.218c-.099-.033-.179.066-.179.218m-194.792 2.203c-.662.084-.705.311-.083.433 1.073.212 1.125.206 1.125-.133 0-.355-.188-.409-1.042-.3m123.714.814c-.298.217-.302.258-.056.505.314.313.634.176.634-.272 0-.434-.196-.513-.578-.233m-97.682.854c-.183.834-.224.879-.798.879-1.226 0-1.629.166-1.354.557.135.193.245.569.245.835 0 .94 1.295.4 1.655-.69.119-.361.42-.777.694-.961.581-.39.583-.411.067-.787-.403-.293-.408-.291-.509.167m94.412.822c-.406.76.707 1.24 1.568.676.571-.375.595-.767.04-.661-.223.042-.628-.034-.9-.169-.469-.234-.504-.227-.708.154M91 45.927c0 .132-.112.24-.25.24-.251 0-.343-.352-.143-.551.155-.156.393.032.393.311m234.571-.149c.137.356-.168.691-.41.45-.181-.181-.052-.728.172-.728.072 0 .179.125.238.278m-286.668-.01c.733.281-.341.677-1.333.491-.721-.136-.736-.384-.028-.472.968-.12 1.094-.122 1.361-.019m89.232.244c-.033.099-.131.18-.218.18s-.186-.081-.218-.18c-.033-.098.065-.179.218-.179.152 0 .251.081.218.179m147.203.446c-.004.5.037.542.532.542.531 0 .533-.003.172-.256-.201-.141-.44-.385-.532-.542-.136-.232-.167-.185-.172.256m1.842-.256c-.007.158-.163.367-.347.465-.246.131-.333.349-.333.829 0 .358-.075.697-.167.754-.453.28-.108.453.761.381.708-.059 1.028-.177 1.352-.501l.425-.425-.591-.195c-.477-.158-.64-.331-.839-.894-.137-.385-.254-.571-.261-.414m7.32.631v.834h.583c.51 0 .584.052.584.413 0 .484.033.494 2.5.742 2.257.227 3.25-.002 3.25-.75 0-.594-.633-.807-2.29-.772-1.087.023-1.132.007-1.38-.472-.327-.632-.562-.629-.69.011-.108.541-.477.828-1.064.828-.376 0-.414-.616-.084-1.375.11-.254.027-.292-.641-.292h-.768v.833m28.353-.125c.049 1.752.533 2.303 1.055 1.202.445-.936.098-1.91-.678-1.91-.359 0-.395.068-.377.708m15.073 1.088c-.107.107-.926-.617-.926-.82 0-.072.206-.241.458-.373l.459-.242.052.67c.028.369.009.713-.043.765m-179.509-.879c0 .168-.085.333-.188.368-.22.073-.442-.408-.298-.642.156-.251.486-.065.486.274m14.25.093c0 .348-.246.434-.422.149-.151-.245.05-.702.254-.576.092.057.168.249.168.427m8.125-.089c-.496.395-.792.397-.792.005 0-.386.032-.404.417-.229.23.105.399.206.375.224m190.967-.24c.062.1.047.247-.033.327-.197.197-.631-.09-.488-.323.146-.235.377-.237.521-.004m-166.134.394c.263.194.375.449.375.851 0 .624.241.777.382.241a.444.444 0 0 1 .426-.334c.99 0 .37-.799-.725-.933-.807-.1-.821-.094-.458.175m84.57.243-1.222.458 1.053.472c.996.447 1.11.463 2.106.293 2.086-.358 2.314-.941.535-1.368a73.506 73.506 0 0 1-1.084-.266c-.091-.025-.716.16-1.388.411M131 47.3c0 .165-.068.371-.15.458-.083.087-.177.305-.21.485-.033.184-.239.368-.474.423-.263.062-.436.233-.469.466-.047.326-.152.367-.917.363-.795-.005-.838-.025-.54-.25.178-.135.463-.245.633-.245.338 0 1.113-.785 1.122-1.136.017-.711 1.005-1.265 1.005-.564m141.919.066c-.131.502-.01.801.323.801.122 0 .264.108.315.24.115.301 1.155.511 1.519.307.244-.136.236-.197-.082-.601-.348-.442-.362-.445-.836-.165-.264.156-.505.251-.533.21a9.869 9.869 0 0 1-.32-.658l-.268-.583-.118.449m-132.002.467c.2.301.478.5.698.5.463 0 .59.207.455.743-.128.513-.667.573-.82.091a.492.492 0 0 0-.437-.334c-.215 0-.389-.169-.5-.486-.093-.268-.277-.528-.408-.578-.405-.156-.263-.436.22-.435.323 0 .556.147.792.499m224.25.5c0 .186-.111.334-.25.334-.254 0-.342-.353-.139-.556.211-.211.389-.11.389.222m-200.685.062c.588.708-.765 1.107-3.679 1.083-2.791-.022-2.55-.141.769-.381.963-.069 1.221-.153 1.549-.507.429-.463 1.063-.554 1.361-.195m2.655.732c.049.348-.009.373-.885.373-1.023 0-1.086-.184-.198-.576.702-.31 1.018-.251 1.083.203m-18.655-.021c.306.214.646.255 1.579.188.654-.047 2.127-.032 3.272.033 1.725.097 1.269.122-2.652.145-2.605.015-4.688-.021-4.628-.08.107-.107 1.535-.526 1.868-.547.094-.007.347.111.561.261M327 49.167l.583.319-1.541.007c-1.533.007-1.957-.17-1.167-.488.614-.246 1.503-.179 2.125.162m3.833-.088c.334.188.998.215 3.345.136 2.028-.068 3.027-.041 3.25.088.243.141-.819.186-4.345.185l-4.666-.002.583-.319c.694-.38 1.265-.407 1.833-.088m33.334.27c0 .083-.563.151-1.25.151-1.265 0-1.514-.08-.929-.297.434-.161 2.179-.044 2.179.146m-269.584-.016c.262.113.191.146-.333.153-.489.006-.6-.034-.417-.153.292-.188.312-.188.75 0m25.736.107c.039.033-1.161.051-2.666.04-1.567-.011-2.523-.072-2.236-.143.471-.116 4.753-.027 4.902.103m-13.935.017c-.843.031-2.268.031-3.167.001s-.209-.055 1.533-.055 2.477.024 1.634.054m250.908.001c-1.077.029-2.84.029-3.917 0s-.196-.053 1.958-.053c2.155 0 3.036.024 1.959.053" fill="#9c9c9d"/></g></svg>