<svg id="svg" version="1.1" xmlns="http://www.w3.org/2000/svg" xmlns:xlink="http://www.w3.org/1999/xlink" width="400" height="400" viewBox="0, 0, 400,400"><g id="svgg"><path id="path0" d="M126.200 82.800 C 125.760 82.989,124.826 83.156,124.124 83.172 C 123.422 83.187,122.736 83.380,122.600 83.600 C 122.464 83.820,122.083 84.000,121.754 84.000 C 117.354 84.000,106.000 95.323,106.000 99.711 C 106.000 100.017,105.868 100.399,105.706 100.560 C 104.517 101.750,104.451 106.061,104.426 184.704 L 104.400 264.008 123.700 263.904 L 143.000 263.800 143.095 206.200 C 143.148 174.520,143.193 148.279,143.195 147.886 C 143.203 146.750,144.557 147.702,146.068 149.906 C 146.783 150.948,147.689 152.149,148.083 152.575 C 148.478 153.002,148.800 153.484,148.800 153.647 C 148.800 153.810,149.032 154.181,149.316 154.471 C 149.600 154.762,151.794 157.700,154.191 161.000 C 156.588 164.300,159.371 168.107,160.375 169.460 C 161.379 170.813,162.502 172.343,162.870 172.860 C 163.239 173.377,165.010 175.777,166.806 178.194 C 168.603 180.610,170.235 182.891,170.434 183.263 C 170.632 183.634,171.027 184.177,171.311 184.469 C 171.594 184.761,172.853 186.440,174.108 188.200 C 177.367 192.770,177.236 192.591,180.670 197.214 C 182.392 199.532,184.148 201.962,184.573 202.614 C 184.999 203.266,185.548 204.002,185.795 204.250 C 186.041 204.497,187.745 206.792,189.581 209.350 L 192.920 214.000 198.760 213.999 L 204.600 213.998 205.400 212.800 C 205.840 212.141,206.335 211.602,206.500 211.601 C 206.665 211.601,206.803 211.375,206.808 211.100 C 206.812 210.825,207.442 209.882,208.208 209.004 C 208.973 208.127,209.600 207.285,209.600 207.133 C 209.600 206.981,209.833 206.619,210.118 206.329 C 210.403 206.038,212.517 203.190,214.815 200.000 C 217.114 196.810,219.215 193.930,219.484 193.600 C 219.753 193.270,220.384 192.421,220.887 191.713 C 223.410 188.159,231.942 176.474,232.516 175.787 C 232.877 175.354,233.584 174.413,234.087 173.695 C 236.522 170.215,243.690 160.419,244.398 159.602 C 244.839 159.094,245.200 158.559,245.200 158.414 C 245.200 158.269,245.521 157.802,245.912 157.375 C 246.304 156.949,248.149 154.481,250.011 151.891 C 253.000 147.736,253.457 147.263,253.899 147.868 C 254.295 148.409,254.400 160.669,254.400 206.280 L 254.400 264.008 273.700 263.904 L 293.000 263.800 293.000 183.320 C 293.000 119.469,292.897 102.737,292.500 102.340 C 292.225 102.065,292.000 101.505,292.000 101.096 C 292.000 99.528,288.822 93.750,286.628 91.332 C 283.333 87.697,280.043 85.510,275.000 83.601 C 269.333 81.456,261.324 82.146,254.835 85.338 C 251.732 86.865,247.499 90.711,244.937 94.332 C 243.898 95.799,242.943 97.090,242.815 97.200 C 242.687 97.310,242.226 97.920,241.791 98.556 C 241.356 99.192,240.640 100.209,240.200 100.817 C 231.655 112.611,228.742 116.611,227.225 118.637 C 226.221 119.977,225.130 121.487,224.800 121.992 C 224.470 122.498,223.822 123.381,223.361 123.956 C 222.900 124.530,219.485 129.230,215.772 134.400 C 212.060 139.570,208.882 143.980,208.709 144.200 C 208.537 144.420,207.632 145.632,206.698 146.893 C 205.063 149.101,204.515 149.851,200.846 154.900 C 198.604 157.985,198.941 158.213,192.600 149.338 C 189.520 145.027,186.685 141.135,186.300 140.689 C 185.915 140.243,185.600 139.770,185.600 139.639 C 185.599 139.433,184.905 138.527,183.208 136.517 C 182.984 136.251,182.800 135.861,182.800 135.650 C 182.800 135.439,182.645 135.207,182.457 135.133 C 182.268 135.060,179.557 131.426,176.433 127.058 C 173.309 122.690,170.403 118.741,169.976 118.282 C 169.549 117.824,169.200 117.316,169.200 117.153 C 169.200 116.990,168.958 116.615,168.663 116.320 C 168.367 116.024,164.645 110.929,160.390 104.997 C 156.136 99.065,152.504 94.029,152.320 93.806 C 151.533 92.852,150.257 91.328,149.459 90.388 C 147.452 88.024,143.915 85.814,138.600 83.603 C 136.046 82.541,128.014 82.021,126.200 82.800 M106.200 295.683 C 104.475 296.672,104.426 296.993,104.413 307.321 L 104.400 317.242 106.500 317.121 L 108.600 317.000 108.711 310.609 C 108.838 303.223,109.002 302.847,110.949 305.465 C 111.741 306.529,112.531 307.580,112.705 307.800 C 112.879 308.020,113.434 308.785,113.938 309.500 C 115.431 311.618,116.264 311.271,118.978 307.395 C 122.528 302.327,122.755 302.507,122.890 310.500 L 123.000 317.000 124.900 317.122 L 126.800 317.244 126.800 306.913 L 126.800 296.582 125.472 295.867 C 123.489 294.799,122.433 295.499,119.205 300.020 C 115.652 304.997,115.749 304.977,113.181 301.298 C 109.488 296.008,107.883 294.718,106.200 295.683 M174.577 295.939 C 162.240 299.969,164.722 317.738,177.654 317.974 C 181.266 318.039,186.376 315.450,185.578 313.958 C 184.789 312.485,183.464 312.207,180.970 312.992 C 173.067 315.478,167.202 307.351,172.743 301.592 C 174.359 299.912,180.026 299.066,181.278 300.318 C 182.639 301.679,186.390 299.634,185.188 298.185 C 183.226 295.822,178.196 294.757,174.577 295.939 M237.350 295.939 C 227.193 299.213,226.507 313.038,236.315 316.791 C 240.945 318.562,245.428 317.338,249.339 313.234 C 251.174 311.309,252.000 310.781,252.000 311.534 C 252.000 313.616,258.792 317.605,262.319 317.594 C 271.900 317.563,276.844 305.892,270.252 298.865 C 265.526 293.826,257.041 294.575,252.924 300.394 C 251.523 302.374,251.780 302.417,249.204 299.767 C 245.352 295.805,241.564 294.581,237.350 295.939 M138.431 297.036 C 137.754 297.605,137.200 298.230,137.200 298.425 C 137.200 298.619,136.728 299.818,136.152 301.089 C 135.576 302.360,134.833 304.030,134.502 304.800 C 134.171 305.570,133.319 307.460,132.608 309.000 C 128.347 318.227,128.430 317.686,131.300 317.521 C 133.370 317.402,133.413 317.373,134.348 315.489 L 135.295 313.578 140.748 313.689 L 146.200 313.800 146.847 315.095 C 147.933 317.269,148.382 317.600,150.249 317.600 C 152.233 317.600,152.558 316.750,151.418 314.532 C 150.710 313.155,148.077 307.456,147.384 305.800 C 146.694 304.154,144.849 300.086,144.055 298.460 C 142.766 295.824,140.541 295.260,138.431 297.036 M149.900 296.432 C 149.422 296.710,149.200 297.336,149.200 298.403 L 149.200 299.966 152.300 300.083 L 155.400 300.200 155.509 308.369 C 155.628 317.365,155.691 317.600,158.006 317.600 C 160.017 317.600,160.000 317.678,160.000 308.183 L 160.000 300.032 163.300 299.916 C 166.987 299.786,167.591 299.179,166.179 297.024 L 165.508 296.000 158.054 296.012 C 153.739 296.019,150.305 296.196,149.900 296.432 M188.800 296.374 C 188.301 296.703,188.180 298.362,188.079 306.273 C 187.933 317.708,187.915 317.600,189.959 317.600 C 192.090 317.600,192.351 317.101,192.484 312.778 L 192.600 309.000 197.250 308.888 C 202.708 308.756,202.386 308.430,202.395 314.100 L 202.400 317.600 203.967 317.600 C 206.967 317.600,206.800 318.191,206.800 307.543 C 206.800 297.215,206.573 295.992,204.654 296.006 C 202.890 296.019,202.611 296.582,202.387 300.565 C 202.125 305.230,202.460 304.943,197.345 304.892 C 192.247 304.842,192.524 305.083,192.320 300.511 C 192.229 298.482,192.062 296.728,191.948 296.615 C 191.498 296.164,189.365 296.001,188.800 296.374 M209.993 297.018 C 209.746 297.667,209.628 301.819,209.693 307.545 L 209.800 317.000 215.000 317.123 C 224.167 317.340,225.876 316.732,227.386 312.719 C 228.096 310.832,227.371 306.800,226.321 306.800 C 225.859 306.800,225.925 305.294,226.400 305.000 C 227.598 304.259,226.833 299.604,225.230 297.885 L 223.659 296.200 217.030 296.073 L 210.401 295.946 209.993 297.018 M275.855 296.739 C 275.261 297.396,275.198 298.594,275.293 307.439 L 275.400 317.400 276.928 317.526 C 279.216 317.714,279.600 317.172,279.600 313.751 C 279.600 309.868,279.972 309.904,284.144 314.200 L 287.446 317.600 289.723 317.600 C 293.093 317.600,293.112 317.639,286.126 310.346 C 282.567 306.631,282.569 306.884,286.048 303.200 C 287.606 301.550,289.133 299.845,289.440 299.411 C 291.218 296.904,288.307 294.709,286.297 297.041 C 285.804 297.614,285.040 298.481,284.600 298.968 C 284.160 299.455,283.112 300.621,282.272 301.559 C 280.274 303.789,279.600 303.543,279.600 300.586 C 279.600 296.697,277.679 294.724,275.855 296.739 M222.398 300.997 C 223.694 303.417,221.770 304.560,216.800 304.324 L 214.200 304.200 214.079 302.100 L 213.958 300.000 217.912 300.000 C 221.715 300.000,221.885 300.038,222.398 300.997 M243.255 300.500 C 247.140 302.552,250.428 307.942,248.300 308.770 C 247.805 308.962,246.860 309.694,246.200 310.396 C 240.788 316.156,232.614 312.509,233.834 304.879 C 234.441 301.084,239.718 298.631,243.255 300.500 M265.305 300.500 C 271.725 304.088,269.569 313.200,262.301 313.200 C 259.445 313.200,257.234 311.795,255.078 308.607 C 253.608 306.435,253.722 305.739,255.951 303.268 C 258.806 300.104,262.592 298.983,265.305 300.500 M142.000 303.702 C 142.000 304.092,142.965 306.434,143.666 307.747 C 144.245 308.830,143.701 309.132,140.970 309.239 C 137.127 309.389,137.082 309.264,139.253 304.440 C 140.345 302.012,142.000 301.567,142.000 303.702 M221.813 308.580 C 223.069 309.105,223.200 309.311,223.200 310.766 C 223.200 312.906,222.551 313.200,217.826 313.200 L 214.000 313.200 214.000 310.867 C 214.000 309.583,214.120 308.413,214.267 308.267 C 214.771 307.762,220.416 307.996,221.813 308.580 " stroke="none" fill="#fafbfb" fill-rule="evenodd"></path><path id="path1" d="M0.000 200.000 L 0.000 400.000 200.000 400.000 L 400.000 400.000 400.000 200.000 L 400.000 0.000 200.000 0.000 L 0.000 0.000 0.000 200.000 M136.600 82.212 C 137.480 82.529,138.594 82.791,139.076 82.794 C 139.558 82.797,140.052 82.960,140.173 83.156 C 140.294 83.351,140.850 83.626,141.409 83.767 C 144.848 84.630,150.513 89.709,154.828 95.800 C 157.483 99.547,159.662 102.520,160.600 103.674 C 160.901 104.044,161.472 104.854,161.870 105.474 C 162.268 106.093,162.910 106.949,163.297 107.375 C 163.684 107.802,164.000 108.284,164.000 108.447 C 164.000 108.610,164.239 108.982,164.531 109.274 C 164.824 109.566,166.484 111.784,168.221 114.203 C 169.957 116.621,171.520 118.780,171.694 119.000 C 171.868 119.220,172.915 120.660,174.021 122.200 C 175.127 123.740,176.281 125.301,176.585 125.668 C 176.889 126.036,177.331 126.697,177.566 127.137 C 177.802 127.577,178.221 128.177,178.497 128.469 C 179.551 129.582,181.200 131.965,181.200 132.373 C 181.200 132.608,181.341 132.800,181.513 132.800 C 181.685 132.800,183.072 134.555,184.595 136.700 C 186.118 138.845,187.508 140.780,187.685 141.000 C 187.862 141.220,189.034 142.840,190.291 144.600 C 191.548 146.360,192.806 148.038,193.088 148.329 C 193.370 148.619,193.600 148.990,193.600 149.153 C 193.600 149.316,193.929 149.803,194.332 150.235 C 194.735 150.667,195.410 151.556,195.832 152.210 C 196.254 152.864,196.822 153.670,197.092 154.000 C 197.363 154.330,197.829 154.939,198.126 155.354 C 198.630 156.054,198.708 156.061,199.234 155.440 C 199.545 155.073,200.025 154.521,200.300 154.215 C 200.575 153.908,200.800 153.479,200.800 153.262 C 200.800 153.045,200.954 152.807,201.141 152.733 C 201.329 152.660,202.722 150.890,204.237 148.800 C 205.752 146.710,207.126 144.820,207.291 144.600 C 208.550 142.914,210.321 140.424,210.876 139.556 C 211.244 138.982,211.799 138.258,212.110 137.947 C 212.421 137.636,213.181 136.580,213.800 135.600 C 214.419 134.620,215.122 133.595,215.363 133.323 C 216.518 132.016,216.800 131.602,216.800 131.217 C 216.800 130.988,216.935 130.800,217.100 130.799 C 217.265 130.799,218.013 129.899,218.763 128.799 C 219.512 127.700,220.277 126.800,220.463 126.800 C 220.648 126.800,220.800 126.621,220.800 126.401 C 220.800 125.970,227.170 116.888,228.183 115.874 C 228.522 115.535,228.800 115.107,228.800 114.924 C 228.800 114.742,229.250 114.107,229.800 113.513 C 230.350 112.920,230.800 112.329,230.800 112.201 C 230.800 111.976,231.224 111.415,232.300 110.215 C 232.575 109.908,232.800 109.479,232.800 109.262 C 232.800 109.045,232.952 108.807,233.138 108.733 C 233.323 108.660,235.863 105.270,238.781 101.200 C 241.699 97.130,244.247 93.740,244.443 93.667 C 244.640 93.593,244.800 93.311,244.800 93.040 C 244.800 90.921,255.687 82.800,258.526 82.800 C 258.843 82.800,259.749 82.530,260.538 82.200 C 262.534 81.366,271.066 81.366,273.062 82.200 C 273.851 82.530,274.802 82.800,275.173 82.800 C 276.167 82.800,281.551 85.521,283.399 86.957 C 288.738 91.105,292.298 96.999,293.760 104.111 C 294.733 108.840,294.740 263.603,293.768 264.575 C 293.206 265.137,290.953 265.196,273.468 265.104 L 253.800 265.000 253.598 206.600 C 253.487 174.480,253.352 148.451,253.298 148.759 C 253.244 149.066,252.598 150.056,251.863 150.959 C 251.127 151.861,248.848 154.937,246.798 157.794 C 244.747 160.650,242.829 163.228,242.535 163.522 C 242.241 163.816,242.000 164.190,242.000 164.353 C 242.000 164.516,241.680 164.998,241.288 165.425 C 240.897 165.851,239.952 167.100,239.188 168.200 C 238.425 169.300,237.699 170.290,237.576 170.400 C 237.453 170.510,236.469 171.860,235.389 173.400 C 233.648 175.884,230.381 180.331,229.071 182.000 C 228.812 182.330,228.254 183.136,227.832 183.790 C 227.410 184.444,226.735 185.333,226.332 185.765 C 225.929 186.197,225.600 186.684,225.600 186.847 C 225.600 187.010,225.366 187.381,225.080 187.671 C 224.794 187.962,223.770 189.280,222.805 190.600 C 221.840 191.920,220.904 193.060,220.725 193.133 C 220.546 193.207,220.400 193.439,220.400 193.650 C 220.400 193.861,219.635 195.038,218.700 196.265 C 217.765 197.492,216.820 198.796,216.600 199.162 C 216.380 199.529,215.795 200.261,215.300 200.790 C 214.805 201.318,214.400 201.884,214.400 202.047 C 214.400 202.210,214.171 202.581,213.892 202.871 C 213.613 203.162,211.954 205.380,210.207 207.800 C 208.459 210.220,206.887 212.260,206.714 212.333 C 206.542 212.407,206.400 212.656,206.400 212.887 C 206.400 214.636,204.508 215.200,198.646 215.200 L 192.932 215.200 191.866 214.003 C 191.280 213.345,190.800 212.708,190.800 212.587 C 190.800 212.375,190.363 211.800,189.300 210.615 C 189.025 210.308,188.800 209.879,188.800 209.662 C 188.800 209.445,188.657 209.207,188.481 209.133 C 188.116 208.981,182.959 202.019,176.887 193.484 C 176.384 192.778,175.752 191.930,175.481 191.600 C 175.210 191.270,173.554 189.020,171.800 186.600 C 168.413 181.926,168.085 181.490,167.300 180.615 C 167.025 180.308,166.800 179.947,166.800 179.812 C 166.800 179.577,166.386 179.026,165.300 177.815 C 165.025 177.508,164.800 177.079,164.800 176.862 C 164.800 176.645,164.653 176.407,164.473 176.333 C 164.292 176.260,162.904 174.490,161.387 172.400 C 159.870 170.310,158.527 168.510,158.402 168.400 C 158.276 168.290,157.576 167.255,156.845 166.100 C 156.114 164.945,155.355 164.000,155.158 164.000 C 154.961 164.000,154.797 163.775,154.792 163.500 C 154.788 163.225,154.156 162.280,153.388 161.400 C 152.620 160.520,151.891 159.485,151.769 159.100 C 151.646 158.715,151.378 158.400,151.173 158.400 C 150.968 158.400,150.800 158.145,150.800 157.833 C 150.800 157.522,150.643 157.207,150.451 157.133 C 150.259 157.060,148.819 155.224,147.251 153.053 C 145.683 150.882,144.396 149.262,144.392 149.453 C 144.388 149.644,144.343 175.592,144.292 207.115 C 144.211 257.558,144.128 264.475,143.600 264.808 C 143.243 265.034,135.094 265.190,123.508 265.194 L 104.015 265.200 103.797 264.300 C 103.292 262.222,103.788 102.452,104.300 101.940 C 104.575 101.665,104.800 101.060,104.800 100.595 C 104.800 100.130,105.250 98.817,105.800 97.677 C 106.350 96.537,106.800 95.423,106.800 95.202 C 106.800 94.981,106.939 94.800,107.109 94.800 C 107.279 94.800,107.735 94.212,108.122 93.493 C 109.360 91.194,115.185 85.600,116.341 85.600 C 116.594 85.600,116.800 85.420,116.800 85.200 C 116.800 84.980,117.022 84.800,117.294 84.800 C 117.566 84.800,118.691 84.369,119.794 83.841 C 124.505 81.589,132.674 80.797,136.600 82.212 M109.825 295.524 C 110.251 295.922,111.305 297.272,112.166 298.524 C 113.028 299.776,113.883 300.800,114.066 300.800 C 114.250 300.800,114.400 300.993,114.400 301.229 C 114.400 303.689,116.270 302.831,118.684 299.265 C 121.450 295.178,121.904 294.800,124.046 294.800 C 127.583 294.800,128.011 295.892,128.066 305.051 C 128.104 311.305,128.586 318.494,128.753 315.300 C 128.779 314.805,128.980 314.400,129.200 314.400 C 129.420 314.400,129.600 314.053,129.600 313.629 C 129.600 313.204,129.870 312.587,130.200 312.257 C 130.530 311.927,130.800 311.391,130.800 311.065 C 130.800 310.740,131.230 309.602,131.755 308.537 C 132.280 307.472,133.023 305.880,133.405 305.000 C 133.787 304.120,134.707 302.121,135.450 300.558 C 136.192 298.995,136.800 297.592,136.800 297.441 C 136.800 295.898,140.385 294.512,142.176 295.362 C 143.450 295.966,145.200 297.872,145.200 298.656 C 145.200 298.839,145.636 299.891,146.170 300.994 C 148.180 305.152,150.400 309.992,150.400 310.217 C 150.400 310.345,150.867 311.473,151.438 312.725 C 152.008 313.976,152.717 315.535,153.012 316.190 C 153.782 317.895,153.182 318.400,150.384 318.400 C 147.731 318.400,146.800 318.137,146.800 317.390 C 146.800 317.101,146.485 316.311,146.100 315.635 L 145.400 314.405 140.575 314.403 L 135.750 314.400 134.884 316.382 L 134.019 318.364 128.405 318.349 C 121.152 318.329,121.521 318.688,121.635 311.740 C 121.737 305.590,121.677 305.417,120.143 307.474 C 119.517 308.313,118.914 309.090,118.802 309.200 C 118.691 309.310,118.406 309.751,118.169 310.180 C 117.932 310.609,117.259 311.317,116.674 311.754 L 115.610 312.549 114.562 311.574 C 113.985 311.038,112.707 309.475,111.722 308.100 C 109.360 304.805,109.398 304.757,109.402 311.100 C 109.407 318.327,109.380 318.400,106.690 318.400 C 103.496 318.400,103.600 318.776,103.600 307.207 C 103.600 297.281,103.626 296.941,104.475 295.887 C 105.563 294.534,108.547 294.332,109.825 295.524 M166.356 295.959 C 167.396 296.930,167.556 297.318,167.348 298.359 C 167.028 299.958,167.385 299.924,168.939 298.208 C 172.882 293.853,179.574 293.454,185.500 297.220 C 187.898 298.744,185.545 301.803,182.217 301.489 C 181.126 301.386,180.166 301.099,180.084 300.851 C 179.868 300.203,176.733 300.295,175.341 300.990 C 171.469 302.921,170.454 308.895,173.600 311.245 C 174.150 311.655,174.817 312.173,175.083 312.396 C 175.862 313.048,180.220 312.899,180.800 312.200 C 181.685 311.134,184.212 311.443,185.586 312.787 L 186.800 313.973 186.800 306.048 C 186.800 297.250,187.031 296.209,189.194 295.261 C 191.650 294.185,193.143 296.027,193.285 300.309 L 193.400 303.800 197.400 303.800 L 201.400 303.800 201.600 300.200 C 201.826 296.136,201.921 295.896,203.573 295.211 C 204.617 294.779,204.910 294.824,205.968 295.577 L 207.174 296.436 207.287 306.644 C 207.424 319.018,207.563 318.474,204.306 318.319 L 201.800 318.200 201.686 314.136 L 201.573 310.072 199.486 309.936 C 198.339 309.861,196.500 309.890,195.400 310.000 L 193.400 310.200 193.200 314.200 L 193.000 318.200 190.710 318.320 C 187.776 318.473,186.802 317.967,186.794 316.286 C 186.791 315.579,186.656 315.198,186.494 315.440 C 184.354 318.645,172.168 319.628,170.867 316.700 C 170.793 316.535,170.500 316.400,170.214 316.400 C 169.929 316.400,169.186 315.725,168.564 314.900 C 167.942 314.075,167.291 313.340,167.117 313.267 C 166.942 313.193,166.800 312.809,166.800 312.412 C 166.800 312.016,166.531 311.176,166.202 310.546 C 165.426 309.056,165.424 304.157,166.200 302.800 C 167.231 300.996,167.015 300.800,164.000 300.800 C 162.460 300.800,161.184 300.935,161.165 301.100 C 161.146 301.265,161.101 305.052,161.065 309.515 C 160.989 318.824,161.138 318.465,157.400 318.303 L 155.000 318.200 154.800 309.600 L 154.600 301.000 151.800 300.800 C 147.552 300.497,146.576 298.685,149.231 296.031 L 150.462 294.800 157.788 294.800 L 165.115 294.800 166.356 295.959 M223.639 295.475 C 226.937 297.111,229.595 302.967,227.600 304.200 C 227.009 304.565,227.138 306.484,227.813 307.376 C 229.112 309.094,228.601 313.616,226.900 315.447 C 224.349 318.192,223.400 318.435,215.719 318.310 L 209.000 318.200 208.894 307.334 L 208.787 296.468 209.848 295.634 C 211.297 294.494,221.424 294.377,223.639 295.475 M245.663 295.896 C 246.838 296.499,248.602 297.827,249.582 298.848 L 251.364 300.704 253.101 298.772 C 258.959 292.257,269.050 293.623,273.019 301.469 L 274.198 303.800 274.403 300.129 C 274.516 298.110,274.697 296.379,274.804 296.282 C 277.707 293.667,280.400 295.470,280.400 300.028 L 280.400 302.508 281.295 301.354 C 282.169 300.227,283.788 298.376,285.403 296.656 C 287.516 294.405,289.483 294.539,290.813 297.025 C 291.505 298.318,289.676 301.045,284.900 305.841 C 283.982 306.762,284.385 307.371,289.209 312.356 C 294.828 318.160,294.858 318.400,289.967 318.400 L 286.832 318.400 285.316 316.747 C 284.482 315.838,283.042 314.309,282.116 313.349 L 280.432 311.603 280.316 314.901 L 280.200 318.200 277.866 318.321 C 274.564 318.492,274.400 318.267,274.400 313.551 C 274.400 311.184,274.240 309.600,274.000 309.600 C 273.780 309.600,273.600 309.828,273.600 310.106 C 273.600 311.634,270.057 316.400,268.922 316.400 C 268.635 316.400,268.399 316.535,268.399 316.700 C 268.394 317.555,264.738 318.459,261.918 318.303 C 257.691 318.069,256.237 317.389,252.937 314.100 C 251.432 312.601,251.170 312.475,250.715 313.029 C 249.483 314.530,247.394 316.400,246.950 316.400 C 246.684 316.400,246.407 316.535,246.333 316.700 C 245.615 318.316,238.545 318.994,235.714 317.718 C 233.910 316.905,230.387 313.459,229.460 311.601 C 228.138 308.951,228.923 300.000,230.477 300.000 C 230.655 300.000,230.800 299.806,230.800 299.569 C 230.800 299.028,233.001 296.800,233.536 296.800 C 233.754 296.800,233.993 296.648,234.067 296.462 C 234.819 294.556,242.335 294.189,245.663 295.896 M214.400 302.000 L 214.400 303.600 217.367 303.600 C 220.934 303.600,221.600 303.386,221.600 302.237 C 221.600 300.746,220.832 300.400,217.520 300.400 L 214.400 300.400 214.400 302.000 M237.928 301.234 C 235.212 302.610,232.654 308.800,234.800 308.800 C 235.020 308.800,235.200 309.039,235.200 309.330 C 235.200 310.325,238.871 312.800,240.347 312.800 C 243.067 312.800,248.763 307.220,247.416 305.874 C 247.077 305.535,246.791 305.109,246.780 304.929 C 246.623 302.297,240.704 299.826,237.928 301.234 M261.000 300.800 C 260.864 301.020,260.448 301.201,260.076 301.202 C 258.740 301.206,255.200 305.159,255.200 306.648 C 255.200 308.234,258.165 311.249,260.662 312.202 C 265.533 314.063,270.013 307.952,267.162 303.338 C 265.895 301.289,261.752 299.582,261.000 300.800 M140.446 303.679 C 140.421 304.052,139.950 305.204,139.400 306.238 C 138.058 308.762,138.076 308.800,140.600 308.800 C 142.995 308.800,143.407 308.236,142.187 306.624 C 141.864 306.196,141.600 305.521,141.600 305.124 C 141.600 304.726,141.433 304.400,141.229 304.400 C 141.025 304.400,140.776 304.085,140.676 303.700 C 140.510 303.065,140.488 303.063,140.446 303.679 M214.558 309.766 C 213.759 311.846,214.477 312.594,217.400 312.728 C 221.593 312.919,223.889 311.510,222.069 309.862 C 221.087 308.973,214.892 308.894,214.558 309.766 " stroke="none" fill="#3b3c44" fill-rule="evenodd"></path><path id="path2" d="M293.600 185.280 C 293.490 228.774,293.535 264.225,293.701 264.059 C 293.867 263.893,293.957 228.307,293.901 184.979 L 293.800 106.200 293.600 185.280 M143.699 206.100 L 143.797 263.800 143.900 206.423 C 143.981 161.131,144.108 148.979,144.501 148.729 C 144.856 148.504,144.798 148.410,144.300 148.406 C 143.636 148.400,143.605 151.375,143.699 206.100 M196.082 214.696 C 197.558 214.773,200.078 214.773,201.682 214.697 C 203.287 214.621,202.080 214.558,199.000 214.558 C 195.920 214.557,194.607 214.619,196.082 214.696 M154.520 295.498 C 156.455 295.572,159.515 295.571,161.320 295.497 C 163.124 295.423,161.540 295.363,157.800 295.364 C 154.060 295.364,152.584 295.425,154.520 295.498 M208.920 299.200 C 208.920 300.410,208.995 300.905,209.087 300.300 C 209.178 299.695,209.178 298.705,209.087 298.100 C 208.995 297.495,208.920 297.990,208.920 299.200 M192.973 301.094 C 192.994 303.548,193.125 304.200,193.600 304.234 C 193.930 304.258,193.982 304.203,193.716 304.112 C 193.415 304.010,193.179 302.828,193.089 300.973 L 192.946 297.997 192.973 301.094 M214.159 300.562 C 214.041 300.871,214.018 301.726,214.108 302.462 C 214.258 303.687,214.277 303.659,214.336 302.125 C 214.396 300.552,214.479 300.441,215.700 300.289 L 217.000 300.128 215.687 300.064 C 214.881 300.025,214.292 300.217,214.159 300.562 M218.705 300.283 C 219.202 300.379,219.922 300.375,220.305 300.275 C 220.687 300.175,220.280 300.096,219.400 300.101 C 218.520 300.105,218.207 300.187,218.705 300.283 M261.700 300.276 C 262.085 300.376,262.715 300.376,263.100 300.276 C 263.485 300.175,263.170 300.093,262.400 300.093 C 261.630 300.093,261.315 300.175,261.700 300.276 M154.969 309.200 C 154.969 313.710,155.027 315.555,155.098 313.300 C 155.170 311.045,155.170 307.355,155.098 305.100 C 155.027 302.845,154.969 304.690,154.969 309.200 M208.967 309.200 C 208.967 313.490,209.026 315.245,209.098 313.100 C 209.170 310.955,209.170 307.445,209.098 305.300 C 209.026 303.155,208.967 304.910,208.967 309.200 M122.088 311.220 C 122.002 316.930,122.202 318.000,123.356 318.000 C 123.575 318.000,123.452 317.775,123.083 317.500 C 122.521 317.080,122.394 316.067,122.295 311.200 L 122.176 305.400 122.088 311.220 M248.032 306.778 C 248.014 307.096,247.509 307.906,246.909 308.578 L 245.818 309.800 247.157 308.544 C 247.900 307.848,248.400 307.046,248.280 306.744 C 248.105 306.306,248.057 306.313,248.032 306.778 M228.093 310.400 C 228.093 311.170,228.175 311.485,228.276 311.100 C 228.376 310.715,228.376 310.085,228.276 309.700 C 228.175 309.315,228.093 309.630,228.093 310.400 M214.101 311.000 C 214.105 311.880,214.187 312.193,214.283 311.695 C 214.379 311.198,214.375 310.478,214.275 310.095 C 214.175 309.713,214.096 310.120,214.101 311.000 M192.942 313.400 C 192.941 315.380,193.008 316.240,193.092 315.312 C 193.176 314.384,193.177 312.764,193.095 311.712 C 193.012 310.660,192.943 311.420,192.942 313.400 M288.200 312.000 C 289.059 312.880,289.852 313.600,289.962 313.600 C 290.072 313.600,289.459 312.880,288.600 312.000 C 287.741 311.120,286.948 310.400,286.838 310.400 C 286.728 310.400,287.341 311.120,288.200 312.000 M176.905 313.087 C 177.514 313.179,178.414 313.177,178.905 313.082 C 179.397 312.987,178.900 312.911,177.800 312.914 C 176.700 312.917,176.297 312.995,176.905 313.087 M127.528 316.429 C 127.377 316.812,127.576 317.242,128.040 317.532 C 128.665 317.923,128.800 317.896,128.800 317.380 C 128.800 317.035,128.634 316.856,128.430 316.981 C 128.227 317.107,127.997 316.893,127.918 316.505 C 127.796 315.897,127.742 315.886,127.528 316.429 M176.707 318.290 C 177.426 318.379,178.506 318.377,179.107 318.286 C 179.708 318.195,179.120 318.122,177.800 318.124 C 176.480 318.126,175.988 318.201,176.707 318.290 " stroke="none" fill="#808285" fill-rule="evenodd"></path><path id="path3" d="M125.600 82.400 C 125.270 82.613,124.550 82.797,124.000 82.808 C 122.823 82.832,120.592 83.963,121.676 83.986 C 122.048 83.994,122.452 83.839,122.574 83.642 C 123.439 82.243,135.378 82.205,138.600 83.592 C 143.006 85.488,144.483 86.269,146.387 87.706 C 147.604 88.625,148.986 89.832,149.459 90.388 C 150.257 91.328,151.533 92.852,152.320 93.806 C 152.504 94.029,156.136 99.065,160.390 104.997 C 164.645 110.929,168.367 116.024,168.663 116.320 C 168.958 116.615,169.200 116.981,169.200 117.133 C 169.200 117.285,169.848 118.127,170.640 119.004 C 172.505 121.070,168.971 116.037,157.600 100.434 C 156.830 99.378,155.161 97.059,153.891 95.283 C 148.516 87.763,143.631 84.280,135.894 82.451 C 133.568 81.900,126.427 81.865,125.600 82.400 M261.919 82.214 C 261.778 82.355,260.933 82.635,260.042 82.835 C 252.856 84.450,248.798 88.009,239.792 100.600 C 236.960 104.560,234.408 108.038,234.121 108.329 C 233.835 108.619,233.600 108.990,233.600 109.153 C 233.600 109.316,233.279 109.798,232.886 110.225 C 232.493 110.651,228.685 115.846,224.422 121.770 C 220.160 127.693,216.437 132.823,216.150 133.170 C 215.862 133.516,215.216 134.384,214.713 135.098 C 210.132 141.611,200.600 154.628,200.335 154.733 C 200.151 154.807,200.000 155.078,200.000 155.337 C 200.000 158.194,197.672 156.024,192.400 148.251 C 192.070 147.765,190.790 146.024,189.556 144.383 C 188.322 142.743,184.211 137.080,180.420 131.800 C 176.630 126.520,173.150 121.840,172.687 121.400 C 172.225 120.960,172.038 120.870,172.272 121.200 C 178.462 129.933,182.186 135.027,182.458 135.133 C 182.646 135.207,182.800 135.439,182.800 135.650 C 182.800 135.861,182.984 136.251,183.208 136.517 C 184.905 138.527,185.599 139.433,185.600 139.639 C 185.600 139.770,185.915 140.243,186.300 140.689 C 186.685 141.135,189.520 145.027,192.600 149.338 C 198.941 158.213,198.604 157.985,200.846 154.900 C 204.515 149.851,205.063 149.101,206.698 146.893 C 207.632 145.632,208.537 144.420,208.709 144.200 C 208.882 143.980,212.060 139.570,215.772 134.400 C 219.485 129.230,222.900 124.530,223.361 123.956 C 223.822 123.381,224.470 122.498,224.800 121.992 C 225.130 121.487,226.221 119.977,227.225 118.637 C 228.742 116.611,231.655 112.611,240.200 100.817 C 240.640 100.209,241.356 99.192,241.791 98.556 C 242.226 97.920,242.687 97.310,242.815 97.200 C 242.943 97.090,243.898 95.799,244.937 94.332 C 250.297 86.757,258.143 82.400,266.422 82.400 C 269.455 82.400,273.683 83.020,274.895 83.643 C 275.854 84.136,276.671 84.111,276.164 83.604 C 275.163 82.603,262.742 81.391,261.919 82.214 M117.886 85.127 C 110.952 89.016,106.468 95.037,104.426 103.200 C 104.098 104.512,104.006 126.653,104.088 184.800 L 104.200 264.600 123.119 264.704 C 135.706 264.773,142.299 264.668,142.819 264.390 C 143.588 263.978,143.600 263.095,143.600 206.186 C 143.600 160.218,143.702 148.402,144.100 148.411 C 144.375 148.418,146.660 151.310,149.178 154.839 C 151.695 158.369,154.170 161.738,154.677 162.328 C 155.184 162.918,155.599 163.522,155.600 163.671 C 155.600 163.821,155.841 164.184,156.135 164.478 C 156.429 164.772,158.348 167.350,160.400 170.206 C 162.451 173.063,165.187 176.809,166.479 178.530 C 167.771 180.252,170.206 183.582,171.891 185.930 C 173.576 188.279,176.952 192.900,179.394 196.200 C 181.835 199.500,185.257 204.180,186.997 206.600 C 188.737 209.020,190.274 211.090,190.411 211.200 C 190.548 211.310,191.005 211.992,191.426 212.716 C 192.403 214.395,192.689 214.453,199.384 214.315 L 204.968 214.200 208.495 209.400 C 210.436 206.760,215.024 200.460,218.692 195.400 C 222.360 190.340,225.550 185.998,225.780 185.752 C 226.011 185.505,229.120 181.275,232.689 176.352 C 236.258 171.428,240.848 165.125,242.889 162.345 C 244.930 159.565,246.911 156.865,247.292 156.345 C 251.501 150.593,253.354 148.159,253.687 147.950 C 253.922 147.803,253.935 147.607,253.719 147.473 C 253.517 147.349,251.838 149.351,249.988 151.923 C 248.138 154.495,246.304 156.949,245.912 157.375 C 245.521 157.802,245.200 158.269,245.200 158.414 C 245.200 158.559,244.839 159.094,244.398 159.602 C 243.690 160.419,236.522 170.215,234.087 173.695 C 233.584 174.413,232.877 175.354,232.516 175.787 C 231.942 176.474,223.410 188.159,220.887 191.713 C 220.384 192.421,219.753 193.270,219.484 193.600 C 219.215 193.930,217.114 196.810,214.815 200.000 C 212.517 203.190,210.403 206.038,210.118 206.329 C 209.833 206.619,209.600 206.981,209.600 207.133 C 209.600 207.285,208.973 208.127,208.208 209.004 C 207.442 209.882,206.812 210.825,206.808 211.100 C 206.803 211.375,206.665 211.601,206.500 211.601 C 206.335 211.602,205.840 212.141,205.400 212.800 L 204.600 213.998 198.760 213.999 L 192.920 214.000 189.581 209.350 C 187.745 206.792,186.041 204.497,185.795 204.250 C 185.548 204.002,184.999 203.266,184.573 202.614 C 184.148 201.962,182.392 199.532,180.670 197.214 C 177.236 192.591,177.367 192.770,174.108 188.200 C 172.853 186.440,171.594 184.761,171.311 184.469 C 171.027 184.177,170.632 183.634,170.434 183.263 C 170.235 182.891,168.603 180.610,166.806 178.194 C 165.010 175.777,163.239 173.377,162.870 172.860 C 162.502 172.343,161.379 170.813,160.375 169.460 C 159.371 168.107,156.588 164.300,154.191 161.000 C 151.794 157.700,149.600 154.762,149.316 154.471 C 149.032 154.181,148.800 153.810,148.800 153.647 C 148.800 153.484,148.478 153.002,148.083 152.575 C 147.689 152.149,146.783 150.948,146.068 149.906 C 144.557 147.702,143.203 146.750,143.195 147.886 C 143.193 148.279,143.148 174.520,143.095 206.200 L 143.000 263.800 123.700 263.904 L 104.400 264.008 104.426 184.704 C 104.451 106.061,104.517 101.750,105.706 100.560 C 105.868 100.399,106.000 100.017,106.000 99.711 C 106.000 96.178,112.844 88.337,118.566 85.314 C 119.905 84.607,120.730 84.034,120.400 84.041 C 120.070 84.048,118.939 84.536,117.886 85.127 M276.833 84.152 C 277.283 84.560,280.376 85.884,280.194 85.590 C 279.937 85.175,277.631 84.000,277.072 84.000 C 276.849 84.000,276.742 84.068,276.833 84.152 M281.800 86.911 C 285.018 89.234,288.788 93.625,290.368 96.892 C 291.929 100.117,292.606 100.747,291.394 97.847 C 289.631 93.628,282.862 85.921,281.007 86.022 C 280.783 86.034,281.140 86.434,281.800 86.911 M292.033 101.020 C 292.015 101.471,292.225 102.065,292.500 102.340 C 292.897 102.737,293.000 119.469,293.000 183.320 L 293.000 263.800 273.701 263.904 L 254.403 264.008 254.300 206.104 L 254.197 148.200 254.099 206.253 L 254.000 264.307 254.900 264.548 C 256.451 264.963,291.463 264.832,292.582 264.407 L 293.617 264.013 293.509 183.507 C 293.408 109.296,293.348 102.891,292.733 101.600 C 292.227 100.539,292.057 100.399,292.033 101.020 M105.559 295.716 L 104.200 296.632 104.200 307.216 L 104.200 317.800 106.187 317.925 C 109.086 318.109,109.200 317.829,109.200 310.524 C 109.200 303.373,109.117 303.449,112.152 307.804 C 115.532 312.655,115.725 312.662,119.092 308.060 C 120.323 306.377,121.401 304.915,121.487 304.812 C 122.056 304.127,122.389 306.578,122.394 311.486 C 122.399 316.695,122.465 317.207,123.174 317.586 C 124.497 318.294,126.721 318.095,127.186 317.226 C 127.674 316.314,127.687 299.120,127.200 297.600 C 127.020 297.038,126.862 301.125,126.840 306.922 L 126.800 317.244 124.900 317.122 L 123.000 317.000 122.890 310.500 C 122.755 302.507,122.528 302.327,118.978 307.395 C 116.264 311.271,115.431 311.618,113.938 309.500 C 113.434 308.785,112.879 308.020,112.705 307.800 C 112.531 307.580,111.741 306.529,110.949 305.465 C 109.002 302.847,108.838 303.223,108.711 310.609 L 108.600 317.000 106.500 317.121 L 104.400 317.242 104.400 307.296 C 104.400 296.519,104.476 296.138,106.768 295.410 C 108.199 294.956,111.055 297.837,114.566 303.276 C 115.547 304.796,116.045 304.446,119.221 299.997 C 122.346 295.620,123.705 294.668,125.266 295.761 C 125.768 296.112,126.363 296.397,126.589 296.393 C 126.815 296.390,126.431 296.022,125.736 295.577 C 124.876 295.026,124.142 294.850,123.440 295.026 C 122.289 295.314,120.464 297.284,118.645 300.200 C 117.746 301.642,115.966 303.600,115.555 303.600 C 115.393 303.600,114.031 301.903,112.530 299.829 C 108.852 294.748,107.862 294.164,105.559 295.716 M176.200 294.983 C 175.980 295.049,174.990 295.339,174.000 295.627 C 164.049 298.524,163.189 313.166,172.730 317.256 C 173.685 317.665,174.856 317.988,175.333 317.974 C 175.812 317.959,175.288 317.645,174.164 317.274 C 163.318 313.685,164.012 298.907,175.173 295.775 C 179.986 294.425,187.060 297.394,184.789 299.812 C 183.843 300.819,181.870 301.161,181.400 300.400 C 181.264 300.180,180.848 300.006,180.476 300.014 C 179.356 300.038,181.645 301.170,182.846 301.186 C 184.104 301.203,186.003 299.805,185.991 298.871 C 185.968 296.997,178.876 294.181,176.200 294.983 M237.000 295.506 C 235.900 295.867,234.940 296.306,234.867 296.481 C 234.793 296.657,234.514 296.800,234.245 296.800 C 233.437 296.800,231.328 299.259,230.128 301.600 C 227.453 306.818,229.668 314.093,234.679 316.544 C 235.515 316.954,236.513 317.449,236.895 317.644 C 239.976 319.222,246.723 317.057,249.690 313.540 L 251.302 311.627 253.151 313.684 C 256.842 317.789,262.447 319.136,266.958 317.002 C 268.946 316.062,272.326 312.992,271.872 312.539 C 271.758 312.424,271.371 312.778,271.013 313.324 C 270.198 314.568,267.559 316.418,265.651 317.082 C 261.774 318.433,257.192 317.134,253.840 313.734 C 252.828 312.708,252.000 311.718,252.000 311.534 C 252.000 310.781,251.174 311.309,249.339 313.234 C 239.128 323.950,223.037 311.965,231.533 299.972 C 235.730 294.048,243.557 293.957,249.204 299.767 C 251.780 302.417,251.523 302.374,252.924 300.394 C 260.592 289.556,278.362 299.214,272.325 310.939 C 272.116 311.345,272.040 311.774,272.157 311.891 C 272.378 312.111,272.776 311.220,273.549 308.772 C 274.107 307.003,274.133 304.929,273.600 304.600 C 273.380 304.464,273.200 303.910,273.200 303.368 C 273.200 298.858,265.346 293.874,260.345 295.212 C 256.702 296.186,252.000 299.343,252.000 300.815 C 252.000 301.632,251.081 301.133,249.671 299.550 C 246.122 295.567,241.402 294.061,237.000 295.506 M210.986 295.581 C 209.213 296.299,209.159 296.639,209.185 307.030 C 209.215 319.016,208.602 317.971,215.604 317.974 C 223.758 317.978,228.052 316.053,227.979 312.428 C 227.962 311.544,227.868 311.624,227.311 313.000 C 225.800 316.735,224.004 317.336,215.000 317.123 L 209.800 317.000 209.693 307.545 C 209.628 301.819,209.746 297.667,209.993 297.018 L 210.401 295.946 217.030 296.073 L 223.659 296.200 225.230 297.885 C 226.833 299.604,227.598 304.259,226.400 305.000 C 225.916 305.299,225.863 306.800,226.336 306.800 C 226.521 306.800,226.918 307.544,227.218 308.454 C 227.518 309.364,227.834 309.897,227.920 309.639 C 228.006 309.381,227.770 308.522,227.394 307.731 C 226.821 306.524,226.780 305.951,227.136 304.178 C 227.976 299.992,226.250 296.801,222.544 295.690 C 220.722 295.145,212.260 295.064,210.986 295.581 M138.800 296.114 C 138.250 296.390,137.400 297.422,136.910 298.408 C 135.628 300.991,132.800 307.212,132.800 307.449 C 132.800 307.646,131.644 310.208,129.750 314.206 C 128.175 317.531,128.353 318.000,131.193 318.000 L 133.587 318.000 134.606 315.988 L 135.625 313.976 140.713 314.088 L 145.800 314.200 146.447 315.495 C 147.594 317.791,147.928 318.000,150.449 318.000 C 152.911 318.000,153.381 317.518,152.400 316.000 C 152.098 315.532,152.011 315.643,152.006 316.500 C 152.000 317.532,151.891 317.600,150.249 317.600 C 148.382 317.600,147.933 317.269,146.847 315.095 L 146.200 313.800 140.748 313.689 L 135.295 313.578 134.348 315.489 C 133.413 317.373,133.370 317.402,131.300 317.521 C 128.430 317.686,128.347 318.227,132.608 309.000 C 133.319 307.460,134.171 305.570,134.502 304.800 C 134.833 304.030,135.576 302.360,136.152 301.089 C 136.728 299.818,137.200 298.634,137.200 298.459 C 137.200 297.800,139.196 296.298,140.474 295.996 C 141.580 295.734,141.634 295.676,140.800 295.647 C 140.250 295.628,139.350 295.838,138.800 296.114 M149.908 295.874 C 149.506 295.980,149.035 296.727,148.784 297.658 C 148.160 299.976,148.665 300.400,152.049 300.400 C 155.389 300.400,154.921 299.085,155.180 309.200 L 155.400 317.800 157.562 317.923 C 160.453 318.088,160.387 318.302,160.394 308.700 L 160.400 300.400 163.167 300.400 C 167.370 300.400,168.483 299.125,166.357 296.744 L 165.513 295.800 166.181 296.924 C 167.550 299.225,167.010 299.786,163.300 299.916 L 160.000 300.032 160.000 308.183 C 160.000 317.678,160.017 317.600,158.006 317.600 C 155.691 317.600,155.628 317.365,155.509 308.369 L 155.400 300.200 152.300 300.083 L 149.200 299.966 149.200 298.407 C 149.200 296.247,149.272 296.227,157.800 295.983 L 165.400 295.766 158.000 295.729 C 153.930 295.709,150.289 295.774,149.908 295.874 M188.576 296.167 C 187.851 296.697,187.792 297.371,187.679 306.457 C 187.528 318.651,187.395 318.072,190.313 317.920 L 192.600 317.800 192.700 314.400 C 192.867 308.746,192.499 309.130,197.615 309.275 C 200.027 309.344,202.001 309.259,202.001 309.087 C 202.000 308.915,199.885 308.825,197.300 308.887 L 192.600 309.000 192.484 312.778 C 192.351 317.101,192.090 317.600,189.959 317.600 C 187.915 317.600,187.933 317.708,188.079 306.273 C 188.213 295.747,188.195 295.812,190.800 296.182 C 191.848 296.331,191.999 296.290,191.400 296.019 C 190.228 295.488,189.450 295.529,188.576 296.167 M202.889 296.223 C 202.074 296.793,202.007 297.136,202.078 300.323 C 202.154 303.702,202.160 303.721,202.280 301.000 C 202.460 296.918,202.623 296.474,204.105 296.046 C 204.950 295.802,205.118 295.660,204.589 295.636 C 204.143 295.616,203.378 295.880,202.889 296.223 M288.700 296.161 C 291.050 297.246,290.638 298.339,286.048 303.200 C 282.569 306.884,282.567 306.631,286.126 310.346 C 293.112 317.639,293.093 317.600,289.723 317.600 L 287.446 317.600 284.144 314.200 C 279.972 309.904,279.600 309.868,279.600 313.751 C 279.600 317.172,279.216 317.714,276.928 317.526 L 275.400 317.400 275.293 307.439 C 275.198 298.594,275.261 297.396,275.855 296.739 C 276.230 296.325,276.327 296.000,276.076 296.000 C 275.006 296.000,274.800 297.831,274.806 307.274 C 274.813 318.422,274.725 318.089,277.638 317.923 L 279.800 317.800 279.916 314.500 C 280.058 310.458,279.911 310.455,283.977 314.600 L 287.312 318.000 290.032 318.000 C 294.210 318.000,294.187 317.956,285.356 308.941 C 283.346 306.889,283.381 306.752,286.848 303.046 C 290.970 298.640,291.506 296.424,288.596 295.812 L 287.400 295.560 288.700 296.161 M142.611 296.560 C 143.388 297.112,143.859 297.923,145.607 301.721 C 146.094 302.777,146.568 303.565,146.662 303.471 C 147.296 302.838,143.242 296.046,142.211 296.013 C 141.997 296.006,142.177 296.252,142.611 296.560 M278.240 296.306 C 279.123 296.896,279.600 298.397,279.600 300.586 C 279.600 303.543,280.274 303.789,282.272 301.559 C 283.112 300.621,284.160 299.455,284.600 298.968 C 286.614 296.739,287.168 296.000,286.826 296.000 C 286.624 296.000,286.130 296.417,285.729 296.927 C 283.937 299.205,280.633 302.800,280.332 302.800 C 280.149 302.800,279.994 301.585,279.987 300.100 C 279.974 297.366,279.428 295.994,278.356 296.006 C 277.986 296.010,277.947 296.111,278.240 296.306 M192.320 300.511 C 192.522 305.032,192.295 304.804,196.626 304.852 C 201.302 304.905,202.000 304.859,202.000 304.500 C 202.001 304.335,199.976 304.200,197.500 304.200 L 193.000 304.200 192.800 300.732 C 192.690 298.824,192.500 297.164,192.377 297.042 C 192.255 296.921,192.229 298.482,192.320 300.511 M206.973 307.400 C 206.973 312.680,207.030 314.785,207.099 312.077 C 207.168 309.369,207.168 305.049,207.099 302.477 C 207.029 299.905,206.972 302.120,206.973 307.400 M177.300 299.876 C 177.685 299.976,178.315 299.976,178.700 299.876 C 179.085 299.775,178.770 299.693,178.000 299.693 C 177.230 299.693,176.915 299.775,177.300 299.876 M174.200 300.471 C 166.320 304.874,172.201 315.750,180.970 312.992 C 183.467 312.207,184.789 312.485,185.581 313.964 C 186.128 314.986,184.535 316.267,181.473 317.269 C 180.210 317.682,179.761 317.957,180.325 317.974 C 181.601 318.010,185.566 316.011,186.064 315.081 C 187.026 313.282,182.766 310.994,181.260 312.500 C 180.470 313.290,175.227 313.146,173.976 312.300 C 169.886 309.535,170.460 302.998,175.001 300.630 C 175.660 300.286,175.930 300.009,175.600 300.015 C 175.270 300.020,174.640 300.225,174.200 300.471 M221.600 300.800 C 222.573 301.773,222.603 302.312,221.738 303.269 C 221.329 303.721,221.256 304.000,221.547 304.000 C 221.805 304.000,222.223 303.548,222.474 302.997 C 222.993 301.858,222.285 300.000,221.332 300.000 C 220.978 300.000,221.068 300.268,221.600 300.800 M237.024 300.524 C 235.783 301.286,234.000 303.325,234.000 303.982 C 234.000 304.314,234.468 303.897,235.040 303.055 C 235.640 302.173,236.782 301.206,237.740 300.771 C 238.730 300.322,239.077 300.024,238.600 300.032 C 238.160 300.040,237.451 300.261,237.024 300.524 M241.800 300.400 C 242.901 300.873,243.292 300.873,243.000 300.400 C 242.864 300.180,242.358 300.013,241.876 300.028 C 241.031 300.055,241.029 300.069,241.800 300.400 M258.837 300.607 C 257.373 301.412,254.029 305.294,254.014 306.207 C 254.001 306.951,255.584 309.660,256.579 310.600 C 258.044 311.982,258.368 311.937,257.123 310.524 C 254.924 308.030,254.269 306.592,254.843 305.519 C 255.727 303.868,258.202 301.489,259.800 300.754 C 260.744 300.319,261.072 300.030,260.600 300.048 C 260.160 300.065,259.367 300.316,258.837 300.607 M264.600 300.628 C 270.984 303.941,269.347 312.800,262.352 312.800 C 261.084 312.800,259.936 312.620,259.800 312.400 C 259.664 312.180,259.338 312.006,259.076 312.013 C 257.433 312.057,260.522 313.200,262.284 313.200 C 267.381 313.200,270.690 308.087,268.443 303.684 C 267.476 301.790,265.265 299.996,263.905 300.002 C 263.627 300.004,263.940 300.285,264.600 300.628 M244.117 301.241 C 244.944 301.723,248.400 306.354,248.400 306.980 C 248.399 307.664,244.558 311.463,243.164 312.158 C 240.097 313.688,236.393 312.576,234.831 309.657 C 234.558 309.148,234.235 308.832,234.112 308.955 C 233.737 309.330,235.968 311.963,237.201 312.600 C 239.851 313.971,243.734 313.020,246.200 310.396 C 246.860 309.694,247.805 308.962,248.300 308.770 C 249.597 308.266,249.418 307.244,247.571 304.607 C 245.901 302.224,244.509 300.827,243.800 300.825 C 243.580 300.825,243.722 301.012,244.117 301.241 M139.179 304.583 C 138.504 306.070,138.023 307.357,138.109 307.443 C 138.195 307.528,138.768 306.474,139.382 305.099 L 140.499 302.600 141.149 303.570 C 141.507 304.104,142.193 305.499,142.672 306.670 L 143.545 308.800 140.806 308.800 C 138.989 308.800,137.999 308.632,137.865 308.300 C 137.719 307.939,137.654 307.933,137.632 308.276 C 137.578 309.087,138.445 309.337,140.970 309.239 C 143.701 309.132,144.245 308.830,143.666 307.747 C 142.965 306.434,142.000 304.092,142.000 303.702 C 142.000 301.501,140.341 302.020,139.179 304.583 M214.356 304.118 C 214.532 304.293,216.099 304.381,217.838 304.315 L 221.000 304.193 217.518 303.997 C 215.603 303.888,214.180 303.943,214.356 304.118 M146.814 304.424 C 146.806 304.766,147.064 305.396,147.387 305.824 C 148.139 306.818,148.148 306.109,147.400 304.800 C 147.034 304.159,146.823 304.024,146.814 304.424 M233.693 306.400 C 233.693 307.170,233.775 307.485,233.876 307.100 C 233.976 306.715,233.976 306.085,233.876 305.700 C 233.775 305.315,233.693 305.630,233.693 306.400 M148.012 307.029 C 147.997 307.563,150.320 312.400,150.592 312.400 C 150.796 312.400,149.188 308.600,148.442 307.318 C 148.212 306.923,148.019 306.793,148.012 307.029 M214.138 308.617 C 214.008 308.957,214.013 309.347,214.151 309.484 C 214.288 309.621,214.400 309.523,214.400 309.267 C 214.400 308.948,215.449 308.802,217.700 308.805 C 222.280 308.813,222.800 308.996,222.800 310.598 C 222.800 312.594,222.150 312.873,217.824 312.728 C 215.720 312.658,213.999 312.735,213.999 312.900 C 214.000 313.359,221.546 313.257,222.426 312.786 C 223.890 312.003,223.493 309.282,221.813 308.580 C 219.856 307.762,214.456 307.788,214.138 308.617 M202.177 313.899 L 202.200 317.800 204.500 317.920 C 205.765 317.986,206.800 317.881,206.800 317.687 C 206.800 317.493,205.817 317.416,204.615 317.515 L 202.430 317.697 202.292 313.847 L 202.154 309.998 202.177 313.899 M150.802 313.224 C 150.801 313.566,151.064 314.196,151.387 314.624 C 152.151 315.634,152.159 315.196,151.402 313.746 C 151.074 313.116,150.804 312.881,150.802 313.224 " stroke="none" fill="#8e949c" fill-rule="evenodd"></path><path id="path4" d="M124.500 82.048 C 123.785 82.254,123.200 82.529,123.200 82.658 C 123.200 82.787,123.605 82.756,124.100 82.589 C 124.595 82.422,127.340 82.163,130.200 82.015 L 135.400 81.745 130.600 81.709 C 127.960 81.689,125.215 81.841,124.500 82.048 M260.600 82.222 C 259.664 82.680,259.620 82.745,260.400 82.520 C 261.724 82.137,271.924 82.118,273.200 82.496 C 273.956 82.720,273.908 82.651,273.000 82.214 C 271.310 81.400,262.271 81.406,260.600 82.222 M139.600 83.400 C 140.150 83.714,140.870 83.977,141.200 83.983 C 141.530 83.990,141.284 83.726,140.654 83.398 C 139.194 82.636,138.267 82.638,139.600 83.400 M256.042 83.637 C 255.075 84.066,254.368 84.502,254.472 84.606 C 254.576 84.710,255.548 84.355,256.631 83.818 C 258.974 82.657,258.548 82.525,256.042 83.637 M116.800 85.200 C 116.800 85.420,116.575 85.600,116.300 85.601 C 116.025 85.602,114.990 86.336,114.000 87.234 L 112.200 88.865 114.041 87.433 C 115.054 86.645,116.067 86.000,116.292 86.000 C 116.518 86.000,116.926 85.730,117.200 85.400 C 117.544 84.985,117.559 84.800,117.249 84.800 C 117.002 84.800,116.800 84.980,116.800 85.200 M252.200 85.835 L 251.000 86.866 252.400 85.963 C 254.196 84.804,254.201 84.800,253.767 84.802 C 253.565 84.803,252.860 85.268,252.200 85.835 M280.600 85.377 C 281.040 85.718,281.850 86.302,282.400 86.675 C 282.950 87.047,284.750 88.710,286.400 90.370 C 288.050 92.029,288.885 92.700,288.255 91.861 C 286.229 89.162,283.000 86.291,280.800 85.236 C 279.850 84.780,279.840 84.787,280.600 85.377 M148.275 88.539 C 149.857 90.019,151.981 92.393,152.996 93.815 C 154.010 95.237,154.937 96.400,155.054 96.400 C 155.959 96.400,148.939 88.341,146.600 86.694 C 145.940 86.229,146.694 87.059,148.275 88.539 M246.541 90.636 C 245.694 91.645,244.944 92.680,244.875 92.936 C 244.806 93.191,245.027 93.056,245.366 92.636 C 245.705 92.216,246.398 91.405,246.907 90.834 C 247.966 89.645,248.530 88.800,248.265 88.800 C 248.165 88.800,247.389 89.626,246.541 90.636 M109.751 91.300 C 108.570 92.648,107.880 93.600,108.084 93.600 C 108.184 93.600,108.845 92.880,109.552 92.000 C 110.925 90.292,111.064 89.801,109.751 91.300 M242.730 95.700 C 240.147 99.177,238.751 101.200,238.932 101.200 C 239.042 101.200,239.819 100.255,240.658 99.100 C 241.497 97.945,242.413 96.761,242.694 96.469 C 243.287 95.853,244.106 94.400,243.862 94.400 C 243.770 94.400,243.261 94.985,242.730 95.700 M156.000 98.000 C 156.470 98.660,156.944 99.200,157.054 99.200 C 157.164 99.200,156.870 98.660,156.400 98.000 C 155.930 97.340,155.456 96.800,155.346 96.800 C 155.236 96.800,155.530 97.340,156.000 98.000 M291.214 96.854 C 291.206 96.994,291.463 97.714,291.784 98.454 C 292.106 99.194,292.369 99.530,292.370 99.200 C 292.372 98.624,291.243 96.334,291.214 96.854 M160.212 103.858 C 163.489 108.492,165.058 110.364,163.768 108.100 C 163.361 107.385,162.898 106.800,162.741 106.800 C 162.583 106.800,162.350 106.472,162.222 106.071 C 162.095 105.669,161.670 104.994,161.279 104.571 C 160.887 104.147,159.987 102.954,159.278 101.920 C 158.570 100.887,157.799 99.923,157.566 99.779 C 157.332 99.635,158.523 101.470,160.212 103.858 M237.600 102.800 C 237.130 103.460,236.836 104.000,236.946 104.000 C 237.056 104.000,237.530 103.460,238.000 102.800 C 238.470 102.140,238.764 101.600,238.654 101.600 C 238.544 101.600,238.070 102.140,237.600 102.800 M293.488 104.000 C 294.267 108.323,294.010 263.966,293.223 264.388 C 292.698 264.669,286.104 264.773,273.319 264.704 L 254.200 264.600 254.099 206.619 C 254.043 174.729,253.863 148.503,253.699 148.339 C 253.534 148.174,253.490 174.356,253.600 206.520 L 253.800 265.000 273.468 265.104 C 290.953 265.196,293.206 265.137,293.768 264.575 C 294.657 263.686,294.668 107.867,293.779 104.600 C 293.480 103.500,293.349 103.230,293.488 104.000 M103.699 183.667 C 103.644 227.814,103.709 264.219,103.843 264.567 C 104.127 265.307,142.444 265.539,143.600 264.808 C 144.128 264.474,144.201 258.022,144.205 210.715 L 144.210 157.000 144.005 210.515 C 143.825 257.496,143.727 264.076,143.200 264.411 C 142.835 264.643,135.068 264.754,123.400 264.696 L 104.200 264.600 103.999 184.000 L 103.797 103.400 103.699 183.667 M235.600 105.600 C 235.130 106.260,234.836 106.800,234.946 106.800 C 235.056 106.800,235.530 106.260,236.000 105.600 C 236.470 104.940,236.764 104.400,236.654 104.400 C 236.544 104.400,236.070 104.940,235.600 105.600 M233.643 108.237 C 233.147 108.807,232.824 109.358,232.927 109.460 C 233.029 109.562,233.505 109.096,233.984 108.423 C 235.048 106.929,234.866 106.830,233.643 108.237 M165.066 110.500 C 165.510 110.995,167.442 113.605,169.360 116.300 C 171.278 118.995,172.931 121.200,173.033 121.200 C 173.241 121.200,172.029 119.236,171.405 118.563 C 171.182 118.322,169.650 116.211,168.000 113.870 C 166.350 111.530,164.834 109.612,164.630 109.608 C 164.427 109.603,164.623 110.005,165.066 110.500 M232.000 110.371 C 232.000 110.576,231.709 111.034,231.352 111.390 C 230.996 111.747,230.797 112.130,230.909 112.242 C 231.021 112.354,231.505 111.896,231.984 111.223 C 232.463 110.550,232.662 110.000,232.427 110.000 C 232.192 110.000,232.000 110.167,232.000 110.371 M229.461 113.840 C 229.054 114.398,228.797 114.930,228.889 115.022 C 228.981 115.115,229.454 114.652,229.940 113.995 C 230.426 113.338,230.684 112.806,230.512 112.813 C 230.340 112.819,229.867 113.282,229.461 113.840 M227.425 116.713 C 226.999 117.311,226.203 118.430,225.656 119.200 L 224.663 120.600 225.631 119.600 C 227.057 118.128,228.890 115.598,228.520 115.613 C 228.344 115.619,227.851 116.114,227.425 116.713 M223.200 122.600 C 222.519 123.590,222.052 124.400,222.162 124.400 C 222.272 124.400,222.919 123.590,223.600 122.600 C 224.281 121.610,224.748 120.800,224.638 120.800 C 224.528 120.800,223.881 121.610,223.200 122.600 M175.218 124.459 C 177.452 127.626,179.013 129.433,177.759 127.400 C 177.352 126.740,176.912 126.110,176.783 126.000 C 176.653 125.890,175.972 124.954,175.268 123.920 C 174.565 122.887,173.799 121.923,173.567 121.779 C 173.334 121.635,174.077 122.841,175.218 124.459 M179.681 130.594 C 180.376 131.581,181.014 132.319,181.098 132.235 C 181.306 132.027,179.074 128.834,178.708 128.815 C 178.548 128.807,178.986 129.607,179.681 130.594 M217.643 130.237 C 217.147 130.807,216.824 131.358,216.927 131.460 C 217.029 131.562,217.505 131.096,217.984 130.423 C 219.048 128.929,218.866 128.830,217.643 130.237 M216.000 132.371 C 216.000 132.576,215.758 132.985,215.463 133.280 C 215.167 133.576,214.426 134.624,213.817 135.609 C 212.463 137.797,213.324 136.958,215.367 134.100 C 216.193 132.945,216.673 132.000,216.434 132.000 C 216.195 132.000,216.000 132.167,216.000 132.371 M182.235 133.877 C 183.308 135.668,188.796 143.200,189.027 143.200 C 189.223 143.200,188.002 141.161,187.591 140.800 C 187.465 140.690,186.217 138.980,184.816 137.000 C 182.066 133.111,181.014 131.838,182.235 133.877 M210.955 139.412 C 210.590 139.969,210.370 140.504,210.467 140.600 C 210.563 140.697,210.958 140.241,211.344 139.588 C 212.198 138.142,211.881 137.999,210.955 139.412 M208.800 142.400 C 208.330 143.060,208.093 143.599,208.273 143.597 C 208.453 143.596,208.907 143.056,209.281 142.397 C 210.158 140.857,209.898 140.858,208.800 142.400 M190.817 145.932 C 191.722 147.215,192.908 148.790,193.453 149.432 L 194.444 150.600 193.731 149.400 C 193.339 148.740,192.918 148.110,192.796 148.000 C 192.674 147.890,191.889 146.855,191.053 145.700 C 190.216 144.545,189.451 143.600,189.352 143.600 C 189.253 143.600,189.913 144.650,190.817 145.932 M252.001 150.105 C 251.482 150.817,250.618 151.985,250.081 152.700 C 249.544 153.415,249.190 154.000,249.294 154.000 C 249.615 154.000,253.299 149.165,253.116 148.982 C 253.021 148.888,252.519 149.393,252.001 150.105 M145.600 150.800 C 146.070 151.460,146.544 152.000,146.654 152.000 C 146.764 152.000,146.470 151.460,146.000 150.800 C 145.530 150.140,145.056 149.600,144.946 149.600 C 144.836 149.600,145.130 150.140,145.600 150.800 M144.109 151.600 C 144.109 152.590,144.187 152.995,144.282 152.500 C 144.378 152.005,144.378 151.195,144.282 150.700 C 144.187 150.205,144.109 150.610,144.109 151.600 M195.200 152.000 C 195.670 152.660,196.142 153.200,196.250 153.200 C 196.357 153.200,196.126 152.660,195.736 152.000 C 195.346 151.340,194.874 150.800,194.687 150.800 C 194.499 150.800,194.730 151.340,195.200 152.000 M201.643 152.237 C 201.147 152.807,200.824 153.358,200.927 153.460 C 201.029 153.562,201.505 153.096,201.984 152.423 C 203.048 150.929,202.866 150.830,201.643 152.237 M147.600 153.600 C 148.070 154.260,148.544 154.800,148.654 154.800 C 148.764 154.800,148.470 154.260,148.000 153.600 C 147.530 152.940,147.056 152.400,146.946 152.400 C 146.836 152.400,147.130 152.940,147.600 153.600 M144.093 155.200 C 144.093 155.970,144.175 156.285,144.276 155.900 C 144.376 155.515,144.376 154.885,144.276 154.500 C 144.175 154.115,144.093 154.430,144.093 155.200 M199.800 154.800 C 199.566 155.537,199.114 155.784,198.270 155.637 C 198.089 155.606,198.050 155.757,198.183 155.973 C 198.316 156.188,198.679 156.268,198.989 156.149 C 199.692 155.879,200.957 154.000,200.436 154.000 C 200.226 154.000,199.940 154.360,199.800 154.800 M248.000 155.600 C 247.530 156.260,247.236 156.800,247.346 156.800 C 247.456 156.800,247.930 156.260,248.400 155.600 C 248.870 154.940,249.164 154.400,249.054 154.400 C 248.944 154.400,248.470 154.940,248.000 155.600 M246.000 158.400 C 245.530 159.060,245.236 159.600,245.346 159.600 C 245.456 159.600,245.930 159.060,246.400 158.400 C 246.870 157.740,247.164 157.200,247.054 157.200 C 246.944 157.200,246.470 157.740,246.000 158.400 M152.170 159.809 C 152.594 160.457,153.384 161.440,153.925 161.993 C 154.621 162.704,154.514 162.432,153.564 161.067 C 152.095 158.959,150.921 157.899,152.170 159.809 M243.648 161.600 C 242.941 162.480,242.506 163.196,242.681 163.191 C 242.996 163.183,245.401 160.000,245.093 160.000 C 245.005 160.000,244.355 160.720,243.648 161.600 M241.355 164.612 C 240.990 165.169,240.770 165.704,240.867 165.800 C 240.963 165.897,241.358 165.441,241.744 164.788 C 242.598 163.342,242.281 163.199,241.355 164.612 M157.519 167.197 C 157.893 167.856,158.347 168.396,158.527 168.397 C 158.707 168.399,158.470 167.860,158.000 167.200 C 156.902 165.658,156.642 165.657,157.519 167.197 M239.200 167.600 C 238.730 168.260,238.436 168.800,238.546 168.800 C 238.656 168.800,239.130 168.260,239.600 167.600 C 240.070 166.940,240.364 166.400,240.254 166.400 C 240.144 166.400,239.670 166.940,239.200 167.600 M160.016 170.563 C 160.768 171.609,161.556 172.573,161.767 172.703 C 161.978 172.833,161.535 172.084,160.784 171.037 C 160.032 169.991,159.244 169.027,159.033 168.897 C 158.822 168.767,159.265 169.516,160.016 170.563 M234.732 173.699 C 233.559 175.294,232.289 177.049,231.909 177.599 C 230.117 180.195,229.877 180.573,230.256 180.200 C 231.460 179.017,237.401 170.800,237.052 170.800 C 236.949 170.800,235.905 172.105,234.732 173.699 M163.074 174.791 C 163.693 175.667,164.333 176.387,164.496 176.391 C 164.900 176.403,162.683 173.234,162.274 173.215 C 162.095 173.207,162.455 173.916,163.074 174.791 M164.814 176.929 C 164.806 177.109,165.054 177.511,165.364 177.821 C 165.675 178.132,166.010 178.614,166.110 178.893 C 166.209 179.172,166.397 179.303,166.528 179.184 C 166.658 179.066,166.329 178.436,165.797 177.784 C 165.264 177.133,164.822 176.748,164.814 176.929 M166.814 179.729 C 166.806 179.909,167.054 180.311,167.364 180.621 C 167.675 180.932,168.010 181.414,168.110 181.693 C 168.209 181.972,168.397 182.103,168.528 181.984 C 168.658 181.866,168.329 181.236,167.797 180.584 C 167.264 179.933,166.822 179.548,166.814 179.729 M169.600 183.600 C 170.070 184.260,170.544 184.800,170.654 184.800 C 170.764 184.800,170.470 184.260,170.000 183.600 C 169.530 182.940,169.056 182.400,168.946 182.400 C 168.836 182.400,169.130 182.940,169.600 183.600 M227.200 184.000 C 226.730 184.660,226.499 185.200,226.687 185.200 C 226.874 185.200,227.346 184.660,227.736 184.000 C 228.126 183.340,228.357 182.800,228.250 182.800 C 228.142 182.800,227.670 183.340,227.200 184.000 M171.600 186.400 C 172.070 187.060,172.544 187.600,172.654 187.600 C 172.764 187.600,172.470 187.060,172.000 186.400 C 171.530 185.740,171.056 185.200,170.946 185.200 C 170.836 185.200,171.130 185.740,171.600 186.400 M225.715 186.100 C 223.952 188.404,223.120 189.741,224.035 188.800 C 225.035 187.772,226.544 185.600,226.258 185.600 C 226.170 185.600,225.926 185.825,225.715 186.100 M174.400 190.198 C 174.730 190.638,175.229 191.240,175.509 191.536 C 175.789 191.833,176.266 192.554,176.568 193.139 C 176.871 193.724,177.519 194.561,178.010 195.001 C 178.500 195.440,178.072 194.610,177.059 193.156 C 176.045 191.701,174.897 190.261,174.508 189.956 C 173.850 189.439,173.842 189.456,174.400 190.198 M222.000 191.200 C 221.530 191.860,221.236 192.400,221.346 192.400 C 221.456 192.400,221.930 191.860,222.400 191.200 C 222.870 190.540,223.164 190.000,223.054 190.000 C 222.944 190.000,222.470 190.540,222.000 191.200 M219.107 195.133 C 218.506 195.940,217.610 197.131,217.115 197.780 C 216.621 198.430,216.441 198.822,216.717 198.651 C 217.330 198.273,220.525 193.991,220.336 193.802 C 220.261 193.728,219.708 194.327,219.107 195.133 M179.600 197.200 C 180.070 197.860,180.544 198.400,180.654 198.400 C 180.764 198.400,180.470 197.860,180.000 197.200 C 179.530 196.540,179.056 196.000,178.946 196.000 C 178.836 196.000,179.130 196.540,179.600 197.200 M182.371 201.100 C 183.262 202.365,184.464 203.940,185.040 204.600 L 186.089 205.800 185.108 204.400 C 182.419 200.562,181.107 198.800,180.937 198.800 C 180.834 198.800,181.479 199.835,182.371 201.100 M212.000 204.800 C 211.530 205.460,211.236 206.000,211.346 206.000 C 211.456 206.000,211.930 205.460,212.400 204.800 C 212.870 204.140,213.164 203.600,213.054 203.600 C 212.944 203.600,212.470 204.140,212.000 204.800 M187.074 207.591 C 187.693 208.467,188.333 209.187,188.496 209.191 C 188.900 209.203,186.683 206.034,186.274 206.015 C 186.095 206.007,186.455 206.716,187.074 207.591 M210.515 206.900 C 208.781 209.167,207.866 210.520,208.209 210.313 C 208.681 210.027,211.337 206.400,211.074 206.400 C 210.977 206.400,210.726 206.625,210.515 206.900 M188.814 209.729 C 188.806 209.909,189.054 210.311,189.364 210.621 C 189.675 210.932,190.010 211.414,190.110 211.693 C 190.209 211.972,190.397 212.103,190.528 211.984 C 190.658 211.866,190.329 211.236,189.797 210.584 C 189.264 209.933,188.822 209.548,188.814 209.729 M190.814 212.503 C 190.806 212.670,191.280 213.345,191.866 214.003 L 192.932 215.200 198.823 215.200 C 203.916 215.200,204.749 215.111,204.966 214.543 C 205.173 214.004,205.113 213.974,204.631 214.374 C 204.214 214.721,202.421 214.824,198.416 214.731 L 192.788 214.600 191.808 213.400 C 191.270 212.740,190.822 212.337,190.814 212.503 M104.475 295.887 C 103.360 297.272,103.084 317.074,104.168 317.973 C 104.993 318.658,108.893 318.363,109.099 317.600 C 109.225 317.133,109.180 317.116,108.893 317.523 C 108.646 317.873,107.809 318.005,106.362 317.923 L 104.200 317.800 104.093 307.429 L 103.986 297.058 105.068 295.929 C 105.663 295.308,105.970 294.800,105.749 294.800 C 105.529 294.800,104.955 295.289,104.475 295.887 M108.435 294.900 C 108.528 294.955,109.226 295.540,109.987 296.200 C 110.747 296.860,111.106 297.040,110.785 296.600 C 110.063 295.613,109.120 294.830,108.633 294.813 C 108.432 294.806,108.343 294.845,108.435 294.900 M139.166 295.332 C 138.018 295.852,136.793 296.966,136.813 297.471 C 136.821 297.652,137.183 297.373,137.618 296.850 C 138.161 296.198,138.969 295.838,140.196 295.699 C 141.180 295.588,141.887 295.341,141.768 295.149 C 141.482 294.685,140.435 294.759,139.166 295.332 M149.600 295.611 L 148.600 296.405 150.164 295.770 C 151.433 295.255,153.026 295.161,158.626 295.268 C 162.420 295.341,165.441 295.265,165.339 295.100 C 164.860 294.328,150.635 294.790,149.600 295.611 M173.400 295.200 C 173.108 295.673,173.499 295.673,174.600 295.200 C 175.371 294.869,175.369 294.855,174.524 294.828 C 174.042 294.813,173.536 294.980,173.400 295.200 M189.400 295.200 C 189.259 295.428,189.604 295.600,190.200 295.600 C 190.796 295.600,191.141 295.428,191.000 295.200 C 190.864 294.980,190.504 294.800,190.200 294.800 C 189.896 294.800,189.536 294.980,189.400 295.200 M203.100 295.429 C 202.495 295.757,202.000 296.116,202.000 296.227 C 202.000 296.338,202.348 296.242,202.774 296.014 C 204.023 295.346,205.509 295.535,206.384 296.475 C 206.833 296.957,207.200 297.149,207.200 296.903 C 207.200 295.518,204.635 294.596,203.100 295.429 M209.854 295.629 C 209.274 296.085,208.800 296.651,208.800 296.887 C 208.800 297.124,209.253 296.828,209.808 296.230 L 210.815 295.143 216.708 295.271 C 221.240 295.370,222.900 295.555,223.900 296.069 C 224.615 296.437,225.200 296.607,225.200 296.446 C 225.200 294.699,211.935 293.992,209.854 295.629 M257.242 295.637 C 256.275 296.066,255.570 296.504,255.677 296.610 C 255.783 296.716,256.394 296.562,257.035 296.266 C 257.676 295.970,258.650 295.531,259.200 295.291 C 259.750 295.051,259.930 294.855,259.600 294.855 C 259.270 294.856,258.209 295.208,257.242 295.637 M276.391 295.418 C 275.432 295.944,275.447 295.954,276.844 295.737 C 279.059 295.394,280.000 296.621,280.000 299.852 C 280.000 301.227,280.135 302.436,280.300 302.538 C 280.692 302.781,280.294 297.152,279.873 296.497 C 279.144 295.364,277.449 294.838,276.391 295.418 M286.800 295.453 C 285.822 296.016,285.832 296.023,287.258 295.778 C 288.088 295.635,289.122 295.726,289.658 295.990 C 290.577 296.442,290.575 296.433,289.600 295.636 C 288.444 294.690,288.160 294.672,286.800 295.453 M143.640 296.842 C 144.278 297.526,144.800 298.276,144.800 298.509 C 144.800 298.742,144.915 298.818,145.056 298.678 C 145.351 298.382,143.329 295.600,142.819 295.600 C 142.632 295.600,143.001 296.159,143.640 296.842 M166.655 296.600 C 167.580 298.179,167.600 298.203,167.600 297.711 C 167.600 297.479,167.229 296.864,166.776 296.344 L 165.953 295.400 166.655 296.600 M171.376 296.187 C 170.949 296.510,170.780 296.775,171.000 296.775 C 171.220 296.775,171.749 296.510,172.176 296.187 C 172.604 295.864,172.773 295.600,172.553 295.600 C 172.333 295.600,171.804 295.864,171.376 296.187 M187.429 296.861 C 186.920 297.883,186.800 299.649,186.800 306.138 C 186.800 313.455,186.746 314.085,186.178 313.376 C 185.581 312.631,185.573 312.636,185.992 313.500 C 187.251 316.099,187.554 314.642,187.679 305.385 C 187.779 297.899,187.902 296.305,188.400 295.991 C 188.748 295.771,188.802 295.610,188.529 295.606 C 188.270 295.603,187.775 296.168,187.429 296.861 M192.272 296.691 C 192.673 297.401,193.066 297.787,193.147 297.549 C 193.228 297.311,192.901 296.730,192.419 296.258 L 191.545 295.400 192.272 296.691 M285.129 296.944 C 284.644 297.443,283.383 298.868,281.438 301.119 C 281.019 301.603,280.775 302.000,280.897 302.000 C 281.018 302.000,282.235 300.740,283.600 299.200 C 285.713 296.817,286.773 295.251,285.129 296.944 M119.519 298.003 C 118.642 299.543,118.902 299.542,120.000 298.000 C 120.470 297.340,120.707 296.801,120.527 296.803 C 120.347 296.804,119.893 297.344,119.519 298.003 M127.341 297.333 C 127.484 297.736,127.600 300.331,127.600 303.099 C 127.600 305.868,127.730 308.004,127.888 307.845 C 128.349 307.384,128.010 297.451,127.518 297.000 C 127.211 296.719,127.159 296.817,127.341 297.333 M148.267 297.067 C 147.803 297.530,147.978 299.939,148.500 300.274 C 149.166 300.703,154.800 301.083,154.800 300.700 C 154.800 300.535,153.585 300.397,152.100 300.394 C 148.685 300.386,148.214 300.103,148.516 298.240 C 148.757 296.758,148.725 296.609,148.267 297.067 M201.597 300.282 C 201.489 302.307,201.543 303.820,201.717 303.645 C 201.892 303.469,201.980 301.812,201.914 299.963 L 201.794 296.600 201.597 300.282 M225.953 297.478 C 226.201 297.960,226.583 298.466,226.802 298.601 C 227.487 299.025,227.237 298.405,226.351 297.483 L 225.501 296.600 225.953 297.478 M253.400 298.400 C 252.541 299.280,252.009 299.985,252.219 299.966 C 252.586 299.934,255.465 296.800,255.128 296.800 C 255.037 296.800,254.259 297.520,253.400 298.400 M270.589 298.509 C 271.458 299.549,272.231 300.400,272.307 300.400 C 272.711 300.400,270.981 298.087,270.070 297.409 C 269.258 296.804,269.380 297.063,270.589 298.509 M290.533 298.000 C 290.533 298.641,290.683 299.072,290.867 298.959 C 291.050 298.845,291.200 298.414,291.200 298.000 C 291.200 297.586,291.050 297.155,290.867 297.041 C 290.683 296.928,290.533 297.359,290.533 298.000 M274.477 300.400 C 274.384 303.487,274.320 303.728,273.787 303.024 C 273.039 302.034,273.051 302.540,273.831 304.778 C 274.395 306.397,274.391 306.708,273.792 308.278 C 273.430 309.225,273.224 310.226,273.335 310.500 C 273.455 310.798,273.550 310.718,273.568 310.300 C 273.586 309.915,273.780 309.600,274.000 309.600 C 274.240 309.600,274.400 311.184,274.400 313.551 C 274.400 318.267,274.564 318.492,277.866 318.321 L 280.200 318.200 280.400 314.889 L 280.600 311.578 281.356 312.589 C 281.772 313.145,282.268 313.600,282.459 313.600 C 282.650 313.600,282.329 313.065,281.747 312.411 C 280.282 310.767,280.000 311.158,280.000 314.843 L 280.000 318.038 277.500 317.919 L 275.000 317.800 274.790 307.400 C 274.674 301.680,274.533 298.530,274.477 300.400 M231.460 298.438 C 231.066 298.899,230.814 299.348,230.902 299.435 C 230.989 299.523,231.451 299.145,231.928 298.597 C 232.405 298.049,232.656 297.600,232.486 297.600 C 232.317 297.600,231.855 297.977,231.460 298.438 M186.032 299.136 C 185.939 300.711,182.594 301.760,180.774 300.786 C 180.337 300.552,180.000 300.532,180.000 300.739 C 180.000 301.194,181.396 301.587,183.038 301.595 C 184.463 301.601,186.611 299.978,186.280 299.146 C 186.103 298.700,186.057 298.698,186.032 299.136 M249.200 298.925 C 249.200 299.521,251.562 301.186,251.818 300.771 C 252.010 300.460,251.959 300.378,251.679 300.551 C 251.433 300.703,250.940 300.374,250.572 299.813 C 250.022 298.974,249.200 298.442,249.200 298.925 M227.392 301.754 C 227.396 303.166,227.535 304.239,227.700 304.138 C 228.071 303.909,228.045 300.856,227.664 299.893 C 227.510 299.504,227.388 300.341,227.392 301.754 M117.106 301.300 C 115.905 302.689,115.564 302.892,115.240 302.412 C 115.022 302.088,114.758 301.908,114.654 302.012 C 114.550 302.116,114.712 302.538,115.012 302.949 C 115.635 303.801,115.811 303.684,117.762 301.100 C 119.281 299.089,118.923 299.198,117.106 301.300 M145.858 301.100 C 146.418 302.464,147.200 303.661,147.200 303.155 C 147.200 302.800,145.590 299.600,145.411 299.600 C 145.317 299.600,145.518 300.275,145.858 301.100 M167.000 300.000 C 166.864 300.220,165.413 300.400,163.776 300.400 C 160.172 300.400,160.679 299.070,160.420 309.200 L 160.200 317.800 157.837 317.922 C 156.230 318.005,155.357 317.877,155.107 317.522 C 154.821 317.116,154.775 317.134,154.901 317.600 C 155.094 318.312,159.436 318.643,160.399 318.019 C 160.895 317.697,161.010 316.233,161.065 309.515 C 161.101 305.052,161.146 301.253,161.165 301.074 C 161.184 300.895,162.572 300.788,164.249 300.837 C 166.733 300.909,167.366 300.803,167.669 300.263 C 168.071 299.544,167.436 299.294,167.000 300.000 M287.137 302.834 C 283.574 306.758,283.520 306.989,285.685 309.004 L 287.400 310.600 285.900 308.983 C 285.075 308.094,284.400 307.141,284.400 306.866 C 284.400 306.590,285.075 305.628,285.900 304.727 C 286.725 303.826,287.580 302.879,287.800 302.623 C 288.020 302.367,288.729 301.582,289.375 300.879 C 290.021 300.175,290.443 299.600,290.312 299.600 C 290.181 299.600,288.752 301.055,287.137 302.834 M229.436 301.626 C 229.042 302.521,228.794 303.328,228.886 303.419 C 228.978 303.511,229.424 302.779,229.878 301.793 C 230.332 300.807,230.579 300.000,230.428 300.000 C 230.277 300.000,229.831 300.732,229.436 301.626 M174.534 300.914 C 171.862 302.412,170.479 306.526,171.798 309.054 C 172.506 310.413,172.611 309.700,171.924 308.193 C 171.013 306.194,173.247 301.200,175.051 301.200 C 175.327 301.200,175.664 301.020,175.800 300.800 C 176.128 300.269,175.600 300.316,174.534 300.914 M221.120 300.880 C 222.853 302.613,221.537 303.520,217.000 303.720 L 214.200 303.843 217.326 303.922 C 220.716 304.007,222.000 303.594,222.000 302.419 C 222.000 301.321,221.579 300.400,221.077 300.400 C 220.785 300.400,220.799 300.559,221.120 300.880 M236.880 301.489 C 235.956 302.089,235.200 302.735,235.200 302.925 C 235.200 303.115,235.754 302.805,236.431 302.236 C 237.108 301.666,237.907 301.200,238.207 301.200 C 238.507 301.200,238.864 301.020,239.000 300.800 C 239.433 300.100,238.611 300.367,236.880 301.489 M244.800 302.686 C 245.570 303.592,246.343 304.348,246.519 304.366 C 247.013 304.419,245.564 302.642,244.423 301.798 C 243.613 301.198,243.692 301.383,244.800 302.686 M257.600 302.400 C 256.861 303.060,256.423 303.595,256.628 303.589 C 257.003 303.578,259.502 301.200,259.139 301.200 C 259.032 301.200,258.339 301.740,257.600 302.400 M166.010 303.177 C 165.359 304.748,165.610 310.184,166.366 310.887 C 166.827 311.315,166.862 311.268,166.577 310.600 C 166.016 309.280,165.894 304.145,166.402 303.196 C 166.656 302.721,166.784 302.251,166.686 302.153 C 166.588 302.055,166.284 302.515,166.010 303.177 M266.764 302.600 C 267.458 303.957,267.987 304.622,267.994 304.144 C 267.997 303.894,267.630 303.264,267.177 302.744 C 266.531 302.002,266.442 301.971,266.764 302.600 M134.085 303.373 C 133.415 304.844,133.478 305.152,134.230 304.079 C 134.576 303.584,134.795 302.984,134.715 302.744 C 134.635 302.505,134.352 302.788,134.085 303.373 M139.868 304.284 C 139.739 304.678,139.365 305.585,139.036 306.300 C 138.708 307.015,138.519 307.600,138.617 307.600 C 138.923 307.600,140.514 303.981,140.302 303.769 C 140.192 303.658,139.996 303.890,139.868 304.284 M147.225 304.200 C 147.225 304.420,147.490 304.949,147.813 305.376 C 148.136 305.804,148.400 305.973,148.400 305.753 C 148.400 305.533,148.136 305.004,147.813 304.576 C 147.490 304.149,147.225 303.980,147.225 304.200 M255.178 305.231 C 254.530 306.141,254.419 306.579,254.751 306.911 C 255.083 307.243,255.200 307.179,255.200 306.666 C 255.200 306.284,255.491 305.528,255.846 304.986 C 256.777 303.565,256.218 303.770,255.178 305.231 M109.200 305.000 C 109.200 305.330,109.371 305.600,109.581 305.600 C 109.790 305.600,110.545 306.448,111.258 307.484 C 112.812 309.744,115.167 312.400,115.616 312.400 C 116.152 312.400,118.400 310.362,118.400 309.875 C 118.400 309.626,117.870 310.002,117.223 310.711 C 115.737 312.337,115.555 312.325,114.028 310.500 C 112.587 308.779,112.623 308.826,110.820 306.300 C 109.337 304.221,109.200 304.112,109.200 305.000 M141.602 305.224 C 141.601 305.566,141.864 306.196,142.187 306.624 C 142.951 307.634,142.959 307.196,142.202 305.746 C 141.874 305.116,141.604 304.881,141.602 305.224 M119.871 307.217 C 119.030 308.308,118.490 309.193,118.671 309.185 C 118.852 309.176,119.499 308.448,120.109 307.567 C 120.719 306.685,121.394 306.073,121.609 306.206 C 121.824 306.338,122.000 306.167,122.000 305.824 C 122.000 304.791,121.478 305.133,119.871 307.217 M226.846 305.701 C 226.821 306.087,227.160 307.075,227.600 307.896 C 228.040 308.716,228.400 309.116,228.400 308.783 C 228.400 308.450,228.152 307.823,227.848 307.389 C 227.545 306.955,227.205 306.240,227.094 305.800 C 226.930 305.147,226.884 305.129,226.846 305.701 M234.093 306.400 C 234.093 307.170,234.175 307.485,234.276 307.100 C 234.376 306.715,234.376 306.085,234.276 305.700 C 234.175 305.315,234.093 305.630,234.093 306.400 M268.101 306.600 C 268.105 307.480,268.187 307.793,268.283 307.295 C 268.379 306.798,268.375 306.078,268.275 305.695 C 268.175 305.313,268.096 305.720,268.101 306.600 M148.418 306.700 C 148.442 307.104,150.359 310.667,150.382 310.351 C 150.410 309.964,148.785 306.400,148.581 306.400 C 148.482 306.400,148.408 306.535,148.418 306.700 M121.686 312.071 C 121.617 316.150,121.719 317.261,122.205 317.748 C 123.016 318.559,134.072 318.505,134.237 317.690 C 134.294 317.410,134.249 317.365,134.137 317.590 C 133.916 318.036,128.700 318.166,128.270 317.737 C 128.125 317.592,128.167 317.277,128.363 317.037 C 128.571 316.781,128.557 315.606,128.329 314.200 C 128.115 312.880,128.026 311.125,128.132 310.300 C 128.244 309.423,128.155 308.800,127.917 308.800 C 127.656 308.800,127.565 310.303,127.663 312.961 C 127.840 317.733,127.681 318.000,124.654 318.000 C 122.213 318.000,122.043 317.629,121.899 311.975 L 121.773 307.000 121.686 312.071 M131.631 308.831 C 131.177 309.770,130.882 310.615,130.975 310.708 C 131.068 310.801,131.515 310.109,131.969 309.169 C 132.423 308.230,132.718 307.385,132.625 307.292 C 132.532 307.199,132.085 307.891,131.631 308.831 M267.632 308.825 C 267.614 309.168,267.222 309.855,266.760 310.351 C 266.298 310.847,266.008 311.341,266.116 311.449 C 266.450 311.783,268.075 309.219,267.863 308.694 C 267.734 308.375,267.652 308.421,267.632 308.825 M216.500 309.091 C 217.325 309.178,218.675 309.178,219.500 309.091 C 220.325 309.005,219.650 308.934,218.000 308.934 C 216.350 308.934,215.675 309.005,216.500 309.091 M194.100 309.481 C 193.605 309.577,193.200 309.834,193.200 310.051 C 193.200 310.269,193.380 310.336,193.600 310.200 C 193.819 310.064,195.734 309.958,197.853 309.964 C 199.973 309.970,201.586 309.852,201.436 309.703 C 201.124 309.391,195.445 309.219,194.100 309.481 M228.800 309.872 C 228.800 310.431,229.975 312.737,230.390 312.994 C 230.576 313.109,230.363 312.438,229.916 311.502 C 228.999 309.581,228.800 309.291,228.800 309.872 M244.779 310.539 C 244.222 311.055,243.504 311.581,243.183 311.707 C 242.697 311.899,242.703 311.942,243.225 311.968 C 243.569 311.986,244.368 311.460,245.000 310.800 C 246.365 309.376,246.219 309.204,244.779 310.539 M235.765 310.703 C 236.552 311.633,238.585 312.810,239.361 312.786 C 239.603 312.779,239.140 312.460,238.332 312.078 C 237.525 311.695,236.445 311.026,235.932 310.591 L 235.000 309.800 235.765 310.703 M172.591 310.786 C 172.961 311.384,175.202 312.889,175.183 312.527 C 175.174 312.347,174.534 311.797,173.762 311.305 C 172.990 310.812,172.463 310.579,172.591 310.786 M201.777 314.299 L 201.800 318.200 204.158 318.322 C 205.455 318.389,206.662 318.299,206.840 318.122 C 207.018 317.945,206.008 317.860,204.597 317.933 L 202.030 318.067 201.892 314.233 L 201.754 310.398 201.777 314.299 M271.852 313.021 C 271.233 313.999,270.269 315.160,269.710 315.600 C 269.150 316.040,268.861 316.400,269.068 316.400 C 269.819 316.400,273.536 311.802,273.120 311.387 C 273.041 311.308,272.470 312.043,271.852 313.021 M180.749 312.300 C 180.270 312.911,180.277 312.940,180.805 312.530 C 181.138 312.271,182.128 311.986,183.005 311.897 L 184.600 311.734 182.949 311.667 C 181.793 311.620,181.133 311.810,180.749 312.300 M228.000 312.438 C 228.000 312.899,227.670 313.754,227.266 314.338 C 225.955 316.233,225.904 316.633,227.156 315.200 C 228.196 314.009,228.895 311.600,228.200 311.600 C 228.090 311.600,228.000 311.977,228.000 312.438 M264.000 312.200 C 263.450 312.514,263.180 312.772,263.400 312.772 C 263.620 312.772,264.250 312.514,264.800 312.200 C 265.350 311.886,265.620 311.628,265.400 311.628 C 265.180 311.628,264.550 311.886,264.000 312.200 M129.790 312.830 C 129.412 314.022,129.727 314.115,130.267 312.971 C 130.519 312.437,130.574 312.000,130.389 312.000 C 130.205 312.000,129.935 312.374,129.790 312.830 M166.800 312.351 C 166.800 312.617,167.275 313.322,167.856 313.917 L 168.912 315.000 167.986 313.600 C 166.767 311.759,166.800 311.793,166.800 312.351 M250.787 312.440 C 250.289 312.774,250.299 312.816,250.852 312.717 C 251.210 312.653,251.895 313.050,252.374 313.600 C 253.080 314.410,253.169 314.442,252.844 313.767 C 252.223 312.475,251.464 311.985,250.787 312.440 M151.200 312.878 C 151.200 313.005,151.469 313.624,151.798 314.254 C 152.126 314.884,152.390 315.130,152.385 314.800 C 152.379 314.470,152.110 313.851,151.787 313.424 C 151.464 312.996,151.200 312.751,151.200 312.878 M248.515 314.810 C 247.589 315.685,246.967 316.400,247.132 316.400 C 247.471 316.400,250.400 313.712,250.400 313.401 C 250.400 313.060,250.253 313.170,248.515 314.810 M232.000 315.000 C 232.746 315.770,233.447 316.400,233.557 316.400 C 233.667 316.400,233.146 315.770,232.400 315.000 C 231.654 314.230,230.953 313.600,230.843 313.600 C 230.733 313.600,231.254 314.230,232.000 315.000 M140.700 314.299 C 143.395 314.368,145.600 314.565,145.600 314.736 C 145.600 314.907,145.879 315.396,146.219 315.824 C 146.766 316.509,146.765 316.448,146.209 315.300 L 145.579 314.000 140.690 314.086 L 135.800 314.173 140.700 314.299 M283.271 314.544 C 283.562 314.844,284.482 315.834,285.316 316.744 L 286.832 318.400 289.967 318.400 C 293.908 318.400,294.486 317.910,292.767 316.028 C 292.103 315.301,291.480 314.787,291.382 314.885 C 291.283 314.983,291.652 315.486,292.202 316.001 C 293.942 317.636,293.547 318.000,290.034 318.000 L 286.868 318.000 285.134 316.005 C 284.180 314.907,283.252 314.007,283.071 314.005 C 282.891 314.002,282.981 314.245,283.271 314.544 M253.600 314.757 C 253.600 314.950,254.050 315.403,254.600 315.763 C 255.150 316.124,255.600 316.357,255.600 316.281 C 255.600 316.206,255.150 315.753,254.600 315.275 C 254.050 314.797,253.600 314.563,253.600 314.757 M185.800 315.600 C 184.947 316.543,185.257 316.686,186.171 315.771 C 186.743 315.200,186.800 315.253,186.800 316.357 C 186.800 318.477,192.862 319.485,193.073 317.400 C 193.140 316.743,193.117 316.728,192.944 317.318 C 192.766 317.927,192.357 318.018,190.267 317.918 L 187.800 317.800 187.676 316.300 C 187.536 314.613,186.906 314.378,185.800 315.600 M169.200 315.800 C 169.474 316.130,169.878 316.400,170.098 316.400 C 170.321 316.400,170.278 316.135,170.000 315.800 C 169.726 315.470,169.322 315.200,169.102 315.200 C 168.879 315.200,168.922 315.465,169.200 315.800 M208.870 317.400 C 209.055 318.438,223.133 318.661,224.081 317.641 C 224.518 317.171,224.473 317.139,223.800 317.439 C 222.070 318.211,209.872 318.111,209.273 317.319 C 208.757 316.638,208.736 316.642,208.870 317.400 M146.800 317.477 C 146.800 318.637,152.376 318.830,153.232 317.700 C 153.682 317.104,153.678 317.075,153.201 317.500 C 152.480 318.143,147.918 318.158,147.280 317.520 C 146.959 317.199,146.800 317.185,146.800 317.477 M172.716 317.826 C 173.208 318.171,174.102 318.378,174.705 318.286 C 175.737 318.129,175.726 318.116,174.524 318.060 C 173.822 318.027,173.136 317.820,173.000 317.600 C 172.864 317.380,172.543 317.200,172.287 317.200 C 172.031 317.200,172.224 317.482,172.716 317.826 M182.687 317.446 C 182.551 317.582,181.846 317.833,181.120 318.005 C 179.972 318.277,179.933 318.323,180.824 318.359 C 181.386 318.382,182.196 318.136,182.624 317.813 C 183.051 317.490,183.295 317.220,183.167 317.213 C 183.038 317.206,182.822 317.311,182.687 317.446 M236.000 317.758 C 236.679 318.175,238.026 318.372,240.200 318.372 C 242.374 318.372,243.721 318.175,244.400 317.758 C 244.950 317.421,245.040 317.292,244.600 317.472 C 244.160 317.652,242.180 317.799,240.200 317.799 C 238.220 317.799,236.240 317.652,235.800 317.472 C 235.360 317.292,235.450 317.421,236.000 317.758 M258.400 317.758 C 259.065 318.166,260.405 318.372,262.400 318.372 C 264.395 318.372,265.735 318.166,266.400 317.758 C 266.950 317.421,267.040 317.292,266.600 317.471 C 266.160 317.650,264.270 317.797,262.400 317.797 C 260.530 317.797,258.640 317.650,258.200 317.471 C 257.760 317.292,257.850 317.421,258.400 317.758 " stroke="none" fill="#696e72" fill-rule="evenodd"></path></g></svg>