<svg xmlns="http://www.w3.org/2000/svg" xmlns:xlink="http://www.w3.org/1999/xlink" width="50" zoomAndPan="magnify" viewBox="0 0 37.5 37.499999" height="50" preserveAspectRatio="xMidYMid meet" version="1.0"><defs><clipPath id="acdce1bf5e"><path d="M 0 0 L 37.007812 0 L 37.007812 37.007812 L 0 37.007812 Z M 0 0 " clip-rule="nonzero"/></clipPath></defs><g clip-path="url(#acdce1bf5e)"><path fill="#ffffff" d="M 0 0 L 37.5 0 L 37.5 45 L 0 45 Z M 0 0 " fill-opacity="1" fill-rule="nonzero"/><path fill="#ffffff" d="M 0 0 L 37.5 0 L 37.5 37.5 L 0 37.5 Z M 0 0 " fill-opacity="1" fill-rule="nonzero"/><path fill="#ffffff" d="M 0 0 L 37.5 0 L 37.5 37.5 L 0 37.5 Z M 0 0 " fill-opacity="1" fill-rule="nonzero"/><path fill="#0c1323" d="M 0 18.75 L 0 37.5 L 37.5 37.5 L 37.5 0 L 0 0 L 0 18.75 M 20.453125 15.597656 C 20.507812 15.621094 20.550781 15.664062 20.550781 15.703125 C 20.550781 15.738281 20.617188 15.902344 20.699219 16.0625 C 20.78125 16.222656 20.851562 16.371094 20.851562 16.394531 C 20.851562 16.414062 20.882812 16.476562 20.921875 16.53125 C 20.960938 16.585938 21.003906 16.6875 21.015625 16.753906 C 21.03125 16.820312 21.058594 16.882812 21.078125 16.894531 C 21.117188 16.917969 21.601562 17.898438 21.601562 17.953125 C 21.601562 17.972656 21.632812 18.03125 21.671875 18.082031 C 21.710938 18.128906 21.785156 18.273438 21.835938 18.394531 C 21.976562 18.734375 22.261719 19.34375 22.300781 19.398438 C 22.320312 19.421875 22.398438 19.582031 22.476562 19.753906 C 22.671875 20.179688 22.679688 20.175781 21.960938 20.175781 C 21.308594 20.175781 21.269531 20.160156 21.167969 19.894531 C 21.085938 19.679688 21.082031 19.679688 20.304688 19.695312 L 19.671875 19.707031 L 19.414062 20.167969 L 18.847656 20.183594 C 18.128906 20.203125 18.007812 20.148438 18.167969 19.875 C 18.226562 19.777344 18.386719 19.449219 18.964844 18.261719 C 19.511719 17.140625 19.613281 16.917969 19.613281 16.863281 C 19.613281 16.835938 19.644531 16.78125 19.6875 16.742188 C 19.730469 16.707031 19.761719 16.65625 19.765625 16.636719 C 19.765625 16.613281 19.796875 16.527344 19.835938 16.445312 C 19.878906 16.359375 19.910156 16.273438 19.910156 16.25 C 19.910156 16.226562 19.9375 16.199219 19.96875 16.1875 C 20 16.175781 20.023438 16.132812 20.023438 16.097656 C 20.023438 16.0625 20.066406 15.964844 20.117188 15.882812 C 20.167969 15.796875 20.210938 15.703125 20.210938 15.667969 C 20.210938 15.632812 20.242188 15.597656 20.277344 15.589844 C 20.3125 15.578125 20.347656 15.570312 20.351562 15.566406 C 20.355469 15.566406 20.402344 15.578125 20.453125 15.597656 M 24.578125 15.777344 C 24.589844 15.792969 24.675781 15.824219 24.761719 15.847656 C 25.570312 16.070312 26.265625 16.816406 25.875 17.035156 C 25.804688 17.074219 25.710938 17.136719 25.667969 17.175781 C 25.320312 17.488281 25.066406 17.5 24.804688 17.21875 C 24.160156 16.523438 22.921875 17.105469 23.035156 18.046875 C 23.082031 18.429688 23.367188 18.9375 23.535156 18.9375 C 23.558594 18.9375 23.65625 18.972656 23.753906 19.015625 C 24.101562 19.167969 24.542969 19.039062 24.859375 18.6875 C 25.136719 18.382812 25.109375 18.386719 25.535156 18.601562 C 26.058594 18.871094 26.210938 19.015625 26.0625 19.105469 C 26.042969 19.117188 26.023438 19.15625 26.023438 19.191406 C 26.023438 19.296875 25.398438 19.867188 25.152344 19.988281 C 24.792969 20.167969 24.582031 20.214844 24.089844 20.21875 C 23.5625 20.222656 23.566406 20.222656 23.0625 20.003906 C 22.796875 19.886719 22.683594 19.804688 22.621094 19.675781 C 22.507812 19.449219 21.972656 18.332031 21.898438 18.175781 C 21.753906 17.859375 21.867188 17.226562 22.152344 16.800781 C 22.289062 16.59375 22.65625 16.199219 22.710938 16.199219 C 22.738281 16.199219 22.777344 16.167969 22.800781 16.125 C 22.820312 16.082031 22.855469 16.050781 22.875 16.050781 C 22.894531 16.050781 23 16.011719 23.109375 15.960938 C 23.320312 15.863281 23.511719 15.800781 23.664062 15.777344 C 23.828125 15.75 24.550781 15.75 24.578125 15.777344 M 7.539062 15.847656 C 8.933594 16.011719 9.351562 17.964844 8.164062 18.78125 C 7.875 18.980469 7.363281 19.085938 6.691406 19.085938 C 6.664062 19.085938 6.648438 19.253906 6.648438 19.578125 C 6.648438 19.941406 6.632812 20.082031 6.59375 20.121094 C 6.523438 20.191406 5.742188 20.214844 5.589844 20.152344 L 5.476562 20.105469 L 5.476562 18.003906 C 5.476562 15.953125 5.476562 15.902344 5.550781 15.851562 C 5.628906 15.796875 7.082031 15.792969 7.539062 15.847656 M 10.089844 15.867188 C 10.207031 15.945312 10.210938 20.042969 10.09375 20.140625 C 9.996094 20.21875 9.136719 20.214844 9.054688 20.132812 C 8.96875 20.050781 8.972656 15.902344 9.054688 15.839844 C 9.136719 15.777344 9.992188 15.800781 10.089844 15.867188 M 11.546875 15.859375 C 11.605469 15.917969 11.679688 16.019531 12 16.476562 C 12.03125 16.519531 12.078125 16.570312 12.101562 16.585938 C 12.128906 16.601562 12.148438 16.632812 12.148438 16.65625 C 12.148438 16.679688 12.214844 16.773438 12.289062 16.871094 C 12.480469 17.101562 12.601562 17.277344 12.601562 17.316406 C 12.601562 17.335938 12.652344 17.398438 12.710938 17.457031 C 12.773438 17.515625 12.824219 17.578125 12.824219 17.597656 C 12.824219 17.644531 13.175781 18.113281 13.210938 18.113281 C 13.230469 18.113281 13.238281 17.625 13.234375 17.03125 C 13.226562 16.339844 13.238281 15.929688 13.265625 15.882812 C 13.332031 15.761719 14.359375 15.78125 14.363281 15.902344 C 14.390625 16.875 14.355469 20.085938 14.316406 20.125 C 14.257812 20.183594 14.21875 20.1875 13.675781 20.179688 L 13.238281 20.175781 L 13.097656 19.960938 C 13.023438 19.839844 12.890625 19.652344 12.800781 19.542969 C 12.710938 19.433594 12.636719 19.324219 12.636719 19.304688 C 12.636719 19.28125 12.585938 19.203125 12.523438 19.128906 C 12.34375 18.917969 11.964844 18.363281 11.960938 18.308594 C 11.960938 18.285156 11.945312 18.261719 11.925781 18.261719 C 11.902344 18.261719 11.871094 18.222656 11.851562 18.171875 C 11.746094 17.898438 11.40625 17.632812 11.453125 17.859375 C 11.492188 18.054688 11.480469 20.023438 11.4375 20.097656 C 11.394531 20.183594 10.585938 20.230469 10.425781 20.160156 L 10.332031 20.117188 L 10.3125 18.054688 C 10.300781 16.921875 10.300781 15.972656 10.308594 15.941406 C 10.355469 15.78125 11.398438 15.710938 11.546875 15.859375 M 15.75 15.847656 C 15.800781 15.863281 16.085938 16.203125 16.085938 16.25 C 16.085938 16.28125 16.410156 16.753906 16.476562 16.820312 C 16.570312 16.914062 16.757812 17.195312 16.800781 17.304688 C 16.820312 17.355469 16.851562 17.398438 16.871094 17.398438 C 16.890625 17.398438 17.003906 17.542969 17.117188 17.714844 C 17.457031 18.222656 17.433594 18.261719 17.445312 17.132812 C 17.453125 16.582031 17.441406 16.105469 17.421875 16.058594 C 17.332031 15.835938 18.222656 15.664062 18.515625 15.847656 L 18.601562 15.902344 L 18.601562 17.28125 C 18.601562 18.707031 18.597656 18.738281 18.449219 18.976562 C 18.429688 19.007812 18.382812 19.089844 18.351562 19.164062 C 18.253906 19.367188 18.089844 19.699219 18.046875 19.78125 C 18.027344 19.824219 17.976562 19.921875 17.9375 20.007812 C 17.824219 20.242188 17.53125 20.25 17.375 20.023438 C 17.316406 19.941406 17.179688 19.753906 17.070312 19.609375 C 16.964844 19.46875 16.875 19.332031 16.875 19.3125 C 16.875 19.292969 16.828125 19.222656 16.769531 19.15625 C 16.671875 19.039062 16.574219 18.902344 16.480469 18.753906 C 16.460938 18.722656 16.378906 18.617188 16.304688 18.519531 C 16.226562 18.425781 16.164062 18.332031 16.164062 18.3125 C 16.164062 18.292969 16.101562 18.207031 16.03125 18.121094 C 15.960938 18.039062 15.898438 17.953125 15.898438 17.933594 C 15.898438 17.882812 15.765625 17.769531 15.738281 17.800781 C 15.722656 17.8125 15.710938 18.332031 15.710938 18.953125 C 15.710938 19.785156 15.699219 20.097656 15.667969 20.128906 C 15.597656 20.199219 14.703125 20.191406 14.597656 20.117188 L 14.519531 20.0625 L 14.53125 17.976562 C 14.542969 16.015625 14.550781 15.890625 14.613281 15.839844 C 14.679688 15.789062 15.578125 15.792969 15.75 15.847656 M 27.320312 15.878906 C 27.367188 15.9375 27.375 16.222656 27.375 17.496094 L 27.375 19.039062 L 27.570312 19.0625 C 28 19.113281 28.734375 19.09375 28.808594 19.023438 C 28.871094 18.964844 28.882812 18.964844 28.9375 19.019531 C 29.015625 19.097656 29.019531 20.046875 28.941406 20.125 C 28.863281 20.203125 26.335938 20.203125 26.246094 20.125 C 26.167969 20.058594 26.140625 15.992188 26.21875 15.851562 C 26.277344 15.742188 27.242188 15.769531 27.320312 15.878906 M 31.964844 15.859375 C 32.050781 15.933594 32.054688 16.765625 31.964844 16.855469 C 31.914062 16.90625 31.789062 16.914062 31.117188 16.910156 C 30.683594 16.910156 30.324219 16.914062 30.316406 16.917969 C 30.3125 16.925781 30.300781 17.039062 30.292969 17.175781 L 30.28125 17.417969 L 31.105469 17.425781 C 32.097656 17.433594 32.023438 17.386719 32.023438 18.003906 C 32.023438 18.5625 32.089844 18.523438 31.09375 18.523438 L 30.304688 18.523438 L 30.289062 18.628906 C 30.273438 18.714844 30.277344 18.84375 30.296875 19.039062 C 30.300781 19.078125 30.484375 19.085938 31.089844 19.085938 C 32.09375 19.085938 32.023438 19.050781 32.023438 19.609375 C 32.023438 20.238281 32.167969 20.179688 30.539062 20.175781 C 29.800781 20.175781 29.179688 20.15625 29.164062 20.140625 C 29.105469 20.085938 29.089844 15.917969 29.148438 15.871094 C 29.257812 15.777344 31.851562 15.765625 31.964844 15.859375 M 6.699219 16.90625 C 6.605469 17.007812 6.609375 17.851562 6.703125 17.945312 C 6.789062 18.035156 7.28125 18 7.421875 17.898438 C 7.761719 17.640625 7.746094 17.101562 7.394531 16.964844 C 7.320312 16.933594 7.226562 16.894531 7.191406 16.875 C 7.078125 16.808594 6.769531 16.828125 6.699219 16.90625 M 20.234375 18.414062 C 20.113281 18.679688 20.113281 18.675781 20.347656 18.695312 C 20.539062 18.710938 20.683594 18.664062 20.597656 18.609375 C 20.574219 18.59375 20.523438 18.496094 20.488281 18.394531 C 20.394531 18.144531 20.359375 18.148438 20.234375 18.414062 M 31.949219 21.074219 C 31.972656 21.117188 31.984375 21.324219 31.980469 21.570312 L 31.96875 21.992188 L 18.824219 22.003906 C 11.597656 22.007812 5.644531 22.003906 5.597656 21.992188 C 5.511719 21.972656 5.464844 21.246094 5.535156 21.058594 C 5.574219 20.953125 31.894531 20.96875 31.949219 21.074219 " fill-opacity="1" fill-rule="evenodd"/></g><path fill="#ebeded" d="M 20.210938 15.957031 C 20.148438 16.089844 20.078125 16.207031 20.058594 16.21875 C 20.039062 16.230469 20.023438 16.277344 20.023438 16.324219 C 20.019531 16.371094 19.988281 16.457031 19.949219 16.519531 C 19.910156 16.582031 19.859375 16.664062 19.839844 16.707031 C 19.644531 17.140625 19.445312 17.554688 19.199219 18.054688 C 19.039062 18.386719 18.851562 18.765625 18.789062 18.898438 C 18.722656 19.035156 18.65625 19.167969 18.636719 19.199219 C 18.195312 19.984375 18.207031 20.042969 18.808594 20.054688 L 19.300781 20.066406 L 19.429688 19.847656 C 19.585938 19.582031 19.609375 19.578125 20.507812 19.597656 C 21.183594 19.613281 21.160156 19.605469 21.300781 19.867188 L 21.394531 20.042969 L 21.910156 20.054688 C 22.5 20.066406 22.5 20.066406 22.335938 19.738281 C 22.285156 19.636719 22.191406 19.4375 22.125 19.292969 C 22.011719 19.046875 21.851562 18.710938 21.621094 18.226562 C 21.566406 18.113281 21.503906 17.992188 21.484375 17.960938 C 21.464844 17.929688 21.347656 17.6875 21.222656 17.417969 C 21.097656 17.152344 20.972656 16.890625 20.941406 16.835938 C 20.914062 16.785156 20.863281 16.683594 20.828125 16.613281 C 20.347656 15.574219 20.375 15.605469 20.210938 15.957031 M 23.644531 15.914062 C 23.285156 15.976562 22.863281 16.1875 22.644531 16.414062 C 22.273438 16.796875 22.230469 16.855469 22.105469 17.160156 C 22 17.410156 21.972656 17.527344 21.964844 17.765625 L 21.957031 18.054688 L 22.265625 18.679688 C 22.4375 19.023438 22.574219 19.316406 22.574219 19.332031 C 22.574219 19.347656 22.625 19.433594 22.6875 19.523438 C 22.75 19.617188 22.800781 19.707031 22.800781 19.726562 C 22.800781 19.9375 24.5 20.253906 24.617188 20.0625 C 24.632812 20.042969 24.667969 20.023438 24.699219 20.023438 C 24.757812 20.023438 25.035156 19.910156 25.21875 19.8125 C 25.28125 19.777344 25.46875 19.609375 25.640625 19.4375 C 26 19.074219 26.023438 18.992188 25.808594 18.882812 C 25.730469 18.84375 25.59375 18.765625 25.5 18.707031 C 25.203125 18.527344 25.164062 18.53125 24.980469 18.753906 C 24.601562 19.222656 23.617188 19.351562 23.371094 18.964844 C 23.355469 18.9375 23.300781 18.890625 23.25 18.855469 C 22.996094 18.695312 22.839844 18.042969 22.953125 17.632812 C 23.140625 16.96875 23.839844 16.632812 24.542969 16.875 C 24.746094 16.945312 25.085938 17.230469 25.085938 17.328125 C 25.085938 17.347656 25.113281 17.363281 25.144531 17.363281 C 25.175781 17.363281 25.199219 17.347656 25.199219 17.332031 C 25.199219 17.3125 25.332031 17.21875 25.492188 17.125 C 25.941406 16.855469 25.9375 16.859375 25.855469 16.738281 C 25.722656 16.539062 25.1875 16.085938 25.078125 16.085938 C 25.023438 16.085938 24.609375 15.921875 24.574219 15.886719 C 24.535156 15.847656 23.929688 15.867188 23.644531 15.914062 M 5.605469 15.980469 C 5.59375 16.007812 5.589844 16.933594 5.597656 18.039062 L 5.605469 20.042969 L 6.011719 20.054688 C 6.5625 20.070312 6.539062 20.089844 6.527344 19.558594 C 6.515625 18.949219 6.523438 18.9375 7 18.9375 C 7.566406 18.9375 7.789062 18.886719 8.085938 18.679688 C 9.070312 18 8.964844 16.585938 7.894531 16.082031 L 7.632812 15.957031 L 6.628906 15.941406 C 5.8125 15.933594 5.621094 15.941406 5.605469 15.980469 M 9.125 15.984375 C 9.085938 16.046875 9.0625 19.527344 9.101562 19.820312 L 9.132812 20.042969 L 9.503906 20.054688 C 9.710938 20.0625 9.917969 20.054688 9.964844 20.042969 L 10.050781 20.023438 L 10.042969 17.988281 L 10.03125 15.957031 L 9.59375 15.945312 C 9.269531 15.9375 9.148438 15.949219 9.125 15.984375 M 10.476562 15.980469 C 10.429688 16.0625 10.410156 19.890625 10.460938 19.984375 C 10.5 20.0625 10.523438 20.0625 10.941406 20.054688 L 11.382812 20.042969 L 11.390625 18.804688 C 11.402344 17.246094 11.390625 17.273438 11.800781 17.894531 C 11.914062 18.066406 12.058594 18.261719 12.117188 18.328125 C 12.175781 18.398438 12.226562 18.46875 12.226562 18.492188 C 12.226562 18.515625 12.300781 18.628906 12.390625 18.75 C 12.480469 18.867188 12.574219 19.003906 12.597656 19.046875 C 12.625 19.09375 12.671875 19.160156 12.707031 19.199219 C 12.742188 19.238281 12.796875 19.308594 12.832031 19.355469 C 12.871094 19.40625 12.929688 19.484375 12.96875 19.539062 C 13.007812 19.589844 13.085938 19.71875 13.140625 19.824219 C 13.195312 19.929688 13.269531 20.027344 13.300781 20.039062 C 13.386719 20.074219 14.148438 20.066406 14.203125 20.03125 C 14.242188 20.007812 14.25 19.570312 14.242188 17.980469 L 14.230469 15.957031 L 13.332031 15.957031 L 13.3125 17.136719 C 13.300781 17.789062 13.289062 18.324219 13.28125 18.328125 C 13.25 18.367188 13.171875 18.296875 12.988281 18.046875 C 12.714844 17.683594 12.601562 17.515625 12.601562 17.488281 C 12.601562 17.476562 12.5625 17.425781 12.515625 17.382812 C 12.46875 17.335938 12.371094 17.210938 12.300781 17.101562 C 12.226562 16.996094 12.09375 16.804688 12 16.679688 C 11.90625 16.554688 11.800781 16.402344 11.765625 16.339844 C 11.730469 16.277344 11.640625 16.160156 11.5625 16.082031 L 11.421875 15.9375 L 10.964844 15.9375 C 10.65625 15.9375 10.496094 15.953125 10.476562 15.980469 M 14.6875 15.960938 C 14.632812 16.015625 14.660156 19.976562 14.714844 20.023438 C 14.75 20.050781 14.90625 20.0625 15.175781 20.054688 L 15.582031 20.042969 L 15.601562 18.769531 C 15.617188 17.660156 15.625 17.496094 15.675781 17.507812 C 15.769531 17.527344 15.894531 17.664062 15.976562 17.835938 C 16.019531 17.925781 16.070312 18 16.082031 18 C 16.097656 18 16.148438 18.066406 16.195312 18.148438 C 16.242188 18.234375 16.296875 18.300781 16.316406 18.300781 C 16.335938 18.300781 16.375 18.347656 16.398438 18.402344 C 16.421875 18.460938 16.515625 18.609375 16.605469 18.730469 C 16.773438 18.96875 16.792969 18.992188 17.199219 19.589844 C 17.6875 20.300781 17.683594 20.300781 18.316406 18.96875 L 18.488281 18.605469 L 18.484375 17.3125 C 18.480469 15.792969 18.53125 15.929688 17.976562 15.945312 L 17.570312 15.957031 L 17.550781 17.109375 C 17.53125 18.171875 17.503906 18.441406 17.425781 18.335938 C 17.417969 18.324219 17.3125 18.1875 17.191406 18.03125 C 16.953125 17.722656 16.800781 17.488281 16.800781 17.4375 C 16.800781 17.417969 16.765625 17.394531 16.726562 17.382812 C 16.683594 17.367188 16.648438 17.335938 16.648438 17.308594 C 16.648438 17.285156 16.582031 17.171875 16.5 17.058594 C 16.421875 16.949219 16.316406 16.800781 16.265625 16.730469 C 16.21875 16.664062 16.136719 16.550781 16.078125 16.480469 C 16.019531 16.414062 15.976562 16.347656 15.976562 16.332031 C 15.976562 16.316406 15.90625 16.222656 15.820312 16.121094 L 15.667969 15.9375 L 15.191406 15.9375 C 14.925781 15.9375 14.703125 15.949219 14.6875 15.960938 M 26.324219 16.011719 C 26.273438 16.105469 26.277344 19.902344 26.328125 19.996094 C 26.382812 20.097656 28.859375 20.097656 28.886719 19.996094 C 28.898438 19.960938 28.90625 19.777344 28.910156 19.585938 C 28.917969 19.136719 28.957031 19.15625 28.042969 19.164062 C 27.375 19.171875 27.324219 19.167969 27.273438 19.101562 C 27.230469 19.042969 27.222656 18.757812 27.226562 17.523438 C 27.230469 16.695312 27.21875 16 27.207031 15.976562 C 27.15625 15.894531 26.371094 15.925781 26.324219 16.011719 M 29.273438 15.964844 C 29.234375 16.03125 29.230469 19.984375 29.269531 20.023438 C 29.296875 20.050781 29.726562 20.058594 30.601562 20.054688 L 31.894531 20.042969 L 31.90625 19.621094 L 31.914062 19.199219 L 31.078125 19.199219 C 30.105469 19.199219 30.164062 19.226562 30.15625 18.78125 C 30.148438 18.398438 30.105469 18.414062 31.070312 18.402344 L 31.894531 18.394531 L 31.90625 18.003906 C 31.917969 17.515625 31.988281 17.550781 31.027344 17.550781 C 30.105469 17.550781 30.152344 17.570312 30.167969 17.164062 C 30.179688 16.769531 30.128906 16.789062 31.074219 16.785156 L 31.894531 16.78125 L 31.894531 15.957031 L 30.59375 15.945312 C 29.878906 15.941406 29.285156 15.949219 29.273438 15.964844 M 7.480469 16.863281 C 7.867188 17.046875 7.894531 17.710938 7.527344 17.980469 C 7.386719 18.082031 6.644531 18.117188 6.570312 18.027344 C 6.535156 17.988281 6.527344 17.804688 6.535156 17.398438 L 6.542969 16.820312 L 6.636719 16.792969 C 6.792969 16.746094 7.324219 16.789062 7.480469 16.863281 M 20.472656 18.097656 C 20.515625 18.152344 20.550781 18.214844 20.550781 18.234375 C 20.550781 18.253906 20.59375 18.355469 20.644531 18.457031 C 20.746094 18.65625 20.738281 18.785156 20.632812 18.789062 C 19.976562 18.824219 19.921875 18.78125 20.105469 18.410156 C 20.167969 18.277344 20.234375 18.128906 20.253906 18.085938 C 20.296875 17.972656 20.378906 17.976562 20.472656 18.097656 " fill-opacity="1" fill-rule="evenodd"/><path fill="#e45511" d="M 5.640625 21.117188 C 5.441406 21.335938 5.597656 21.894531 5.871094 21.945312 C 6.199219 22.003906 31.683594 21.980469 31.796875 21.921875 C 32.019531 21.804688 32.007812 21.148438 31.78125 21.0625 C 31.746094 21.046875 25.867188 21.039062 18.714844 21.039062 L 5.710938 21.039062 L 5.640625 21.117188 " fill-opacity="1" fill-rule="evenodd"/><path fill="#5b5250" d="M 20.277344 15.589844 C 20.242188 15.597656 20.210938 15.632812 20.210938 15.667969 C 20.210938 15.703125 20.167969 15.796875 20.117188 15.882812 C 20.066406 15.964844 20.023438 16.0625 20.023438 16.097656 C 20.023438 16.132812 20 16.175781 19.96875 16.1875 C 19.9375 16.199219 19.910156 16.226562 19.910156 16.25 C 19.910156 16.273438 19.878906 16.359375 19.835938 16.445312 C 19.796875 16.527344 19.765625 16.613281 19.765625 16.636719 C 19.761719 16.65625 19.730469 16.707031 19.6875 16.742188 C 19.644531 16.78125 19.613281 16.835938 19.613281 16.863281 C 19.613281 16.917969 19.511719 17.140625 18.964844 18.261719 C 18.386719 19.449219 18.226562 19.777344 18.167969 19.875 C 18.007812 20.148438 18.128906 20.203125 18.847656 20.183594 L 19.414062 20.167969 L 19.671875 19.707031 L 20.304688 19.695312 C 21.082031 19.679688 21.085938 19.679688 21.167969 19.894531 C 21.269531 20.160156 21.308594 20.175781 21.960938 20.175781 C 22.679688 20.175781 22.671875 20.179688 22.476562 19.753906 C 22.398438 19.582031 22.320312 19.421875 22.300781 19.398438 C 22.261719 19.34375 21.976562 18.734375 21.835938 18.394531 C 21.785156 18.273438 21.710938 18.128906 21.671875 18.082031 C 21.632812 18.03125 21.601562 17.972656 21.601562 17.953125 C 21.601562 17.898438 21.117188 16.917969 21.078125 16.894531 C 21.058594 16.882812 21.03125 16.820312 21.015625 16.753906 C 21.003906 16.6875 20.960938 16.585938 20.921875 16.53125 C 20.882812 16.476562 20.851562 16.414062 20.851562 16.394531 C 20.851562 16.371094 20.78125 16.222656 20.699219 16.0625 C 20.617188 15.902344 20.550781 15.738281 20.550781 15.703125 C 20.550781 15.652344 20.390625 15.542969 20.351562 15.566406 C 20.347656 15.570312 20.3125 15.578125 20.277344 15.589844 M 20.578125 15.941406 C 20.769531 16.320312 21.421875 17.675781 21.550781 17.960938 C 21.605469 18.074219 21.667969 18.195312 21.691406 18.226562 C 21.71875 18.257812 21.765625 18.347656 21.796875 18.429688 C 21.828125 18.515625 21.964844 18.808594 22.097656 19.085938 C 22.648438 20.246094 22.664062 20.136719 21.972656 20.136719 C 21.414062 20.136719 21.328125 20.113281 21.261719 19.945312 C 21.148438 19.652344 21.144531 19.648438 20.363281 19.648438 C 19.578125 19.648438 19.621094 19.636719 19.457031 19.949219 L 19.367188 20.117188 L 18.808594 20.117188 C 18.078125 20.117188 18.097656 20.171875 18.507812 19.332031 C 19.226562 17.847656 19.542969 17.1875 19.683594 16.875 C 19.707031 16.824219 19.738281 16.757812 19.757812 16.726562 C 19.773438 16.695312 19.828125 16.585938 19.875 16.480469 C 19.921875 16.378906 19.972656 16.269531 19.988281 16.238281 C 20.007812 16.207031 20.074219 16.070312 20.140625 15.9375 C 20.359375 15.507812 20.359375 15.507812 20.578125 15.941406 M 23.664062 15.777344 C 23.511719 15.800781 23.320312 15.863281 23.109375 15.960938 C 23 16.011719 22.894531 16.050781 22.875 16.050781 C 22.855469 16.050781 22.820312 16.082031 22.800781 16.125 C 22.777344 16.167969 22.738281 16.199219 22.710938 16.199219 C 22.65625 16.199219 22.289062 16.59375 22.152344 16.800781 C 21.867188 17.226562 21.753906 17.859375 21.898438 18.175781 C 21.972656 18.332031 22.507812 19.449219 22.621094 19.675781 C 22.695312 19.828125 22.871094 19.9375 23.382812 20.140625 C 23.804688 20.308594 24.652344 20.238281 25.152344 19.988281 C 25.398438 19.867188 26.023438 19.296875 26.023438 19.191406 C 26.023438 19.15625 26.042969 19.117188 26.0625 19.105469 C 26.210938 19.015625 26.058594 18.871094 25.535156 18.601562 C 25.109375 18.386719 25.136719 18.382812 24.859375 18.6875 C 24.542969 19.039062 24.101562 19.167969 23.753906 19.015625 C 23.65625 18.972656 23.558594 18.9375 23.535156 18.9375 C 23.367188 18.9375 23.082031 18.429688 23.035156 18.046875 C 22.921875 17.105469 24.160156 16.523438 24.804688 17.21875 C 25.066406 17.5 25.320312 17.488281 25.667969 17.175781 C 25.710938 17.136719 25.804688 17.074219 25.875 17.035156 C 26.082031 16.917969 26.058594 16.75 25.796875 16.492188 C 25.429688 16.125 25.160156 15.957031 24.761719 15.847656 C 24.675781 15.824219 24.589844 15.792969 24.578125 15.777344 C 24.550781 15.75 23.828125 15.75 23.664062 15.777344 M 5.550781 15.851562 C 5.476562 15.902344 5.476562 15.953125 5.476562 18.003906 L 5.476562 20.105469 L 5.589844 20.152344 C 5.742188 20.214844 6.523438 20.191406 6.59375 20.121094 C 6.632812 20.082031 6.648438 19.941406 6.648438 19.578125 C 6.648438 19.253906 6.664062 19.085938 6.691406 19.085938 C 7.363281 19.085938 7.875 18.980469 8.164062 18.78125 C 9.351562 17.964844 8.933594 16.011719 7.539062 15.847656 C 7.082031 15.792969 5.628906 15.796875 5.550781 15.851562 M 9.054688 15.839844 C 8.972656 15.902344 8.96875 20.050781 9.054688 20.132812 C 9.136719 20.214844 9.996094 20.21875 10.09375 20.140625 C 10.210938 20.042969 10.207031 15.945312 10.089844 15.867188 C 9.992188 15.800781 9.136719 15.777344 9.054688 15.839844 M 10.441406 15.839844 C 10.28125 15.910156 10.292969 15.753906 10.3125 18.054688 L 10.332031 20.117188 L 10.425781 20.160156 C 10.585938 20.230469 11.394531 20.183594 11.4375 20.097656 C 11.480469 20.023438 11.492188 18.054688 11.453125 17.859375 C 11.421875 17.710938 11.46875 17.703125 11.589844 17.832031 C 11.757812 18.003906 11.816406 18.078125 11.851562 18.171875 C 11.871094 18.222656 11.902344 18.261719 11.925781 18.261719 C 11.945312 18.261719 11.960938 18.285156 11.960938 18.308594 C 11.964844 18.363281 12.34375 18.917969 12.523438 19.128906 C 12.585938 19.203125 12.636719 19.28125 12.636719 19.304688 C 12.636719 19.324219 12.710938 19.433594 12.800781 19.542969 C 12.890625 19.652344 13.023438 19.839844 13.097656 19.960938 L 13.238281 20.175781 L 13.675781 20.179688 C 14.21875 20.1875 14.257812 20.183594 14.316406 20.125 C 14.355469 20.085938 14.390625 16.875 14.363281 15.902344 C 14.359375 15.78125 13.332031 15.761719 13.265625 15.882812 C 13.238281 15.929688 13.226562 16.339844 13.234375 17.03125 C 13.238281 17.625 13.230469 18.113281 13.210938 18.113281 C 13.175781 18.113281 12.824219 17.644531 12.824219 17.597656 C 12.824219 17.578125 12.773438 17.515625 12.710938 17.457031 C 12.652344 17.398438 12.601562 17.335938 12.601562 17.316406 C 12.601562 17.277344 12.480469 17.101562 12.289062 16.871094 C 12.214844 16.773438 12.148438 16.679688 12.148438 16.65625 C 12.148438 16.632812 12.128906 16.601562 12.101562 16.585938 C 12.078125 16.570312 12.03125 16.519531 12 16.476562 C 11.46875 15.71875 11.570312 15.789062 11.015625 15.789062 C 10.714844 15.789062 10.515625 15.808594 10.441406 15.839844 M 14.613281 15.839844 C 14.550781 15.890625 14.542969 16.015625 14.53125 17.976562 L 14.519531 20.0625 L 14.597656 20.117188 C 14.703125 20.191406 15.597656 20.199219 15.667969 20.128906 C 15.699219 20.097656 15.710938 19.785156 15.710938 18.953125 C 15.710938 18.332031 15.722656 17.8125 15.738281 17.800781 C 15.765625 17.769531 15.898438 17.882812 15.898438 17.933594 C 15.898438 17.953125 15.960938 18.039062 16.03125 18.121094 C 16.101562 18.207031 16.164062 18.292969 16.164062 18.3125 C 16.164062 18.332031 16.226562 18.425781 16.304688 18.519531 C 16.378906 18.617188 16.460938 18.722656 16.480469 18.753906 C 16.574219 18.902344 16.671875 19.039062 16.769531 19.15625 C 16.828125 19.222656 16.875 19.292969 16.875 19.3125 C 16.875 19.332031 16.964844 19.46875 17.070312 19.609375 C 17.179688 19.753906 17.316406 19.941406 17.375 20.023438 C 17.558594 20.289062 18.089844 20.144531 17.988281 19.859375 C 17.980469 19.835938 17.941406 19.882812 17.902344 19.960938 C 17.761719 20.253906 17.535156 20.191406 17.261719 19.777344 C 17.152344 19.613281 17.042969 19.457031 17.019531 19.425781 C 16.992188 19.398438 16.902344 19.269531 16.816406 19.144531 C 16.570312 18.785156 16.484375 18.65625 16.433594 18.597656 C 16.277344 18.410156 16.199219 18.304688 16.199219 18.273438 C 16.199219 18.253906 16.140625 18.167969 16.070312 18.085938 C 15.996094 18 15.9375 17.914062 15.9375 17.894531 C 15.9375 17.84375 15.730469 17.625 15.683594 17.625 C 15.65625 17.625 15.644531 18.039062 15.644531 18.828125 C 15.644531 20.257812 15.6875 20.136719 15.148438 20.136719 C 14.523438 20.136719 14.585938 20.382812 14.585938 17.980469 C 14.585938 15.597656 14.507812 15.863281 15.199219 15.863281 L 15.6875 15.863281 L 15.867188 16.058594 C 15.96875 16.167969 16.050781 16.273438 16.050781 16.296875 C 16.050781 16.320312 16.082031 16.367188 16.125 16.40625 C 16.167969 16.445312 16.199219 16.488281 16.199219 16.507812 C 16.199219 16.53125 16.253906 16.613281 16.320312 16.699219 C 16.453125 16.863281 16.480469 16.902344 16.703125 17.234375 C 16.78125 17.355469 16.859375 17.464844 16.875 17.476562 C 16.890625 17.484375 16.980469 17.613281 17.074219 17.757812 C 17.28125 18.070312 17.425781 18.246094 17.453125 18.222656 C 17.464844 18.210938 17.472656 17.691406 17.476562 17.070312 C 17.480469 15.738281 17.425781 15.863281 18.027344 15.863281 C 18.621094 15.863281 18.566406 15.714844 18.554688 17.308594 L 18.542969 18.65625 L 18.273438 19.214844 C 17.992188 19.789062 17.980469 19.816406 18.03125 19.785156 C 18.054688 19.769531 18.125 19.636719 18.351562 19.164062 C 18.382812 19.089844 18.429688 19.007812 18.449219 18.976562 C 18.597656 18.738281 18.601562 18.707031 18.601562 17.28125 L 18.601562 15.902344 L 18.515625 15.847656 C 18.222656 15.664062 17.332031 15.835938 17.421875 16.058594 C 17.441406 16.105469 17.453125 16.582031 17.445312 17.132812 C 17.433594 18.261719 17.457031 18.222656 17.117188 17.714844 C 17.003906 17.542969 16.890625 17.398438 16.871094 17.398438 C 16.851562 17.398438 16.820312 17.355469 16.800781 17.304688 C 16.757812 17.195312 16.570312 16.914062 16.476562 16.820312 C 16.410156 16.753906 16.085938 16.28125 16.085938 16.25 C 16.085938 16.203125 15.800781 15.863281 15.75 15.847656 C 15.578125 15.792969 14.679688 15.789062 14.613281 15.839844 M 26.21875 15.851562 C 26.140625 15.992188 26.167969 20.058594 26.246094 20.125 C 26.335938 20.203125 28.863281 20.203125 28.941406 20.125 C 29.019531 20.046875 29.015625 19.097656 28.9375 19.019531 C 28.882812 18.964844 28.871094 18.964844 28.808594 19.023438 C 28.734375 19.09375 28 19.113281 27.570312 19.0625 L 27.375 19.039062 L 27.375 17.496094 C 27.375 16.222656 27.367188 15.9375 27.320312 15.878906 C 27.242188 15.769531 26.277344 15.742188 26.21875 15.851562 M 29.289062 15.816406 C 29.089844 15.847656 29.097656 15.757812 29.113281 18.007812 C 29.125 19.164062 29.144531 20.121094 29.164062 20.140625 C 29.179688 20.15625 29.800781 20.175781 30.539062 20.175781 C 32.167969 20.179688 32.023438 20.238281 32.023438 19.609375 C 32.023438 19.050781 32.09375 19.085938 31.089844 19.085938 C 30.484375 19.085938 30.300781 19.078125 30.296875 19.039062 C 30.277344 18.84375 30.273438 18.714844 30.289062 18.628906 L 30.304688 18.523438 L 31.09375 18.523438 C 32.089844 18.523438 32.023438 18.5625 32.023438 18.003906 C 32.023438 17.386719 32.097656 17.433594 31.105469 17.425781 L 30.28125 17.417969 L 30.292969 17.175781 C 30.300781 17.039062 30.3125 16.925781 30.316406 16.917969 C 30.324219 16.914062 30.683594 16.910156 31.117188 16.910156 C 31.789062 16.914062 31.914062 16.90625 31.964844 16.855469 C 32.054688 16.765625 32.050781 15.933594 31.964844 15.859375 C 31.902344 15.808594 29.554688 15.773438 29.289062 15.816406 M 24.617188 15.863281 C 24.632812 15.882812 24.6875 15.898438 24.742188 15.898438 C 24.800781 15.898438 24.878906 15.921875 24.917969 15.953125 C 24.960938 15.980469 25.035156 16.015625 25.082031 16.03125 C 25.320312 16.105469 25.910156 16.609375 25.964844 16.785156 C 25.992188 16.878906 25.96875 16.90625 25.726562 17.066406 C 25.125 17.464844 25.125 17.464844 24.917969 17.226562 C 24.617188 16.882812 24.21875 16.765625 23.78125 16.894531 C 23.292969 17.039062 23.085938 17.300781 22.96875 17.914062 C 22.941406 18.042969 23.070312 18.527344 23.152344 18.628906 C 23.722656 19.316406 24.511719 19.300781 25.015625 18.59375 C 25.058594 18.535156 25.117188 18.488281 25.148438 18.488281 C 25.210938 18.488281 25.710938 18.730469 25.792969 18.800781 C 25.824219 18.820312 25.882812 18.859375 25.925781 18.878906 C 26.261719 19.046875 25.558594 19.785156 24.804688 20.0625 C 24.472656 20.183594 24.46875 20.1875 23.972656 20.164062 L 23.476562 20.140625 L 22.742188 19.78125 L 22.460938 19.214844 C 21.84375 17.972656 21.859375 18.019531 21.898438 17.699219 C 22 16.835938 22.71875 16.023438 23.523438 15.863281 C 23.753906 15.820312 24.589844 15.816406 24.617188 15.863281 M 7.535156 15.902344 C 8.929688 16.128906 9.285156 17.902344 8.105469 18.75 C 7.859375 18.925781 7.679688 18.972656 7.082031 19.003906 L 6.617188 19.03125 L 6.609375 19.546875 C 6.597656 20.160156 6.632812 20.121094 6.046875 20.132812 C 5.449219 20.140625 5.511719 20.402344 5.511719 18 C 5.511719 16.078125 5.515625 15.9375 5.578125 15.902344 C 5.664062 15.851562 7.222656 15.851562 7.535156 15.902344 M 10.050781 15.898438 C 10.117188 15.941406 10.113281 15.855469 10.121094 18.148438 C 10.128906 20.367188 10.191406 20.136719 9.589844 20.136719 C 8.96875 20.136719 9.039062 20.402344 9.039062 18.007812 C 9.039062 16.457031 9.046875 15.941406 9.082031 15.90625 C 9.136719 15.851562 9.964844 15.84375 10.050781 15.898438 M 11.558594 15.964844 C 11.652344 16.066406 11.730469 16.171875 12.023438 16.601562 C 12.097656 16.710938 12.171875 16.800781 12.191406 16.800781 C 12.210938 16.800781 12.226562 16.816406 12.226562 16.835938 C 12.226562 16.855469 12.328125 17.011719 12.449219 17.183594 C 12.574219 17.351562 12.75 17.601562 12.84375 17.738281 C 13.289062 18.390625 13.277344 18.402344 13.273438 17.058594 C 13.269531 16.257812 13.28125 15.957031 13.3125 15.917969 C 13.386719 15.828125 14.1875 15.839844 14.277344 15.929688 C 14.371094 16.019531 14.34375 20.042969 14.25 20.101562 C 14.128906 20.175781 13.199219 20.136719 13.199219 20.054688 C 13.199219 20.015625 12.894531 19.550781 12.636719 19.199219 C 12.441406 18.933594 12.179688 18.5625 12.132812 18.480469 C 12.109375 18.445312 12.035156 18.335938 11.964844 18.238281 C 11.894531 18.136719 11.792969 17.988281 11.734375 17.90625 C 11.59375 17.703125 11.4375 17.558594 11.433594 17.628906 C 11.433594 17.65625 11.433594 18.1875 11.4375 18.804688 C 11.441406 19.515625 11.429688 19.96875 11.402344 20.035156 L 11.363281 20.136719 L 10.917969 20.136719 C 10.585938 20.136719 10.460938 20.125 10.429688 20.085938 C 10.347656 19.988281 10.367188 15.96875 10.449219 15.910156 C 10.59375 15.804688 11.445312 15.847656 11.558594 15.964844 M 27.253906 15.90625 C 27.289062 15.941406 27.300781 16.34375 27.300781 17.496094 C 27.300781 18.6875 27.3125 19.050781 27.347656 19.078125 C 27.375 19.097656 27.703125 19.117188 28.105469 19.121094 C 29.007812 19.132812 28.949219 19.097656 28.949219 19.632812 C 28.949219 20.0625 28.949219 20.066406 28.855469 20.101562 C 28.6875 20.164062 26.34375 20.148438 26.289062 20.082031 C 26.226562 20.007812 26.230469 15.988281 26.292969 15.914062 C 26.347656 15.847656 27.1875 15.839844 27.253906 15.90625 M 31.949219 15.9375 C 32 16.03125 31.992188 16.726562 31.941406 16.789062 C 31.914062 16.824219 31.695312 16.835938 31.082031 16.835938 L 30.265625 16.835938 L 30.242188 16.921875 C 30.230469 16.972656 30.226562 17.109375 30.230469 17.234375 L 30.242188 17.457031 L 31.078125 17.476562 C 32.058594 17.496094 31.988281 17.457031 31.988281 17.980469 C 31.988281 18.507812 32.058594 18.464844 31.078125 18.488281 L 30.242188 18.507812 L 30.234375 18.785156 C 30.21875 19.160156 30.175781 19.144531 31.109375 19.144531 C 31.785156 19.144531 31.921875 19.152344 31.949219 19.199219 C 32.015625 19.300781 31.996094 20.011719 31.929688 20.078125 C 31.855469 20.148438 29.378906 20.167969 29.246094 20.097656 C 29.140625 20.042969 29.132812 15.964844 29.242188 15.902344 C 29.386719 15.820312 31.902344 15.851562 31.949219 15.9375 M 6.664062 16.824219 C 6.605469 16.84375 6.597656 16.894531 6.609375 17.429688 L 6.617188 18.019531 L 7.003906 18.015625 L 7.386719 18.015625 L 7.519531 17.886719 C 8.066406 17.355469 7.472656 16.617188 6.664062 16.824219 M 7.191406 16.875 C 7.226562 16.894531 7.320312 16.933594 7.394531 16.964844 C 7.746094 17.101562 7.761719 17.640625 7.421875 17.898438 C 7.28125 18 6.789062 18.035156 6.703125 17.945312 C 6.609375 17.851562 6.605469 17.007812 6.699219 16.90625 C 6.769531 16.828125 7.078125 16.808594 7.191406 16.875 M 20.199219 18.347656 C 20.03125 18.710938 20.050781 18.75 20.410156 18.75 C 20.691406 18.75 20.699219 18.722656 20.523438 18.34375 C 20.351562 17.972656 20.375 17.972656 20.199219 18.347656 M 20.488281 18.394531 C 20.523438 18.496094 20.574219 18.59375 20.597656 18.609375 C 20.683594 18.664062 20.539062 18.710938 20.347656 18.695312 C 20.113281 18.675781 20.113281 18.679688 20.234375 18.414062 C 20.359375 18.148438 20.394531 18.144531 20.488281 18.394531 M 5.535156 21.058594 C 5.523438 21.09375 5.511719 21.308594 5.511719 21.542969 C 5.511719 22.015625 5.511719 22.011719 5.777344 22.011719 C 5.972656 22.011719 5.996094 21.953125 5.808594 21.925781 C 5.617188 21.902344 5.636719 21.925781 5.585938 21.617188 C 5.542969 21.339844 5.558594 21.207031 5.652344 21.101562 C 5.710938 21.035156 31.609375 20.996094 31.78125 21.0625 C 31.996094 21.144531 32.019531 21.820312 31.808594 21.921875 C 31.773438 21.941406 26.019531 21.964844 18.863281 21.976562 L 5.980469 21.992188 L 31.96875 21.992188 L 31.980469 21.570312 C 31.984375 21.324219 31.972656 21.117188 31.949219 21.074219 C 31.894531 20.96875 5.574219 20.953125 5.535156 21.058594 " fill-opacity="1" fill-rule="evenodd"/><path fill="#848c8e" d="M 20.300781 15.644531 C 20.28125 15.671875 20.210938 15.804688 20.140625 15.9375 C 20.074219 16.070312 20.007812 16.207031 19.988281 16.238281 C 19.972656 16.269531 19.921875 16.378906 19.875 16.480469 C 19.828125 16.585938 19.773438 16.695312 19.757812 16.726562 C 19.738281 16.757812 19.707031 16.824219 19.683594 16.875 C 19.542969 17.1875 19.226562 17.847656 18.507812 19.332031 C 18.097656 20.171875 18.078125 20.117188 18.808594 20.117188 L 19.367188 20.117188 L 19.457031 19.949219 C 19.621094 19.636719 19.578125 19.648438 20.363281 19.648438 C 21.144531 19.648438 21.148438 19.652344 21.261719 19.945312 C 21.328125 20.113281 21.414062 20.136719 21.972656 20.136719 C 22.664062 20.136719 22.648438 20.246094 22.097656 19.085938 C 21.964844 18.808594 21.828125 18.515625 21.796875 18.429688 C 21.765625 18.347656 21.71875 18.257812 21.691406 18.226562 C 21.667969 18.195312 21.605469 18.074219 21.550781 17.960938 C 21.5 17.847656 21.296875 17.417969 21.097656 17.007812 C 20.40625 15.570312 20.382812 15.53125 20.300781 15.644531 M 20.585938 16.097656 C 20.6875 16.308594 20.792969 16.539062 20.828125 16.613281 C 20.863281 16.683594 20.914062 16.785156 20.941406 16.835938 C 20.972656 16.890625 21.097656 17.152344 21.222656 17.417969 C 21.347656 17.6875 21.464844 17.929688 21.484375 17.960938 C 21.503906 17.992188 21.566406 18.113281 21.621094 18.226562 C 21.851562 18.710938 22.011719 19.046875 22.125 19.292969 C 22.191406 19.4375 22.285156 19.636719 22.335938 19.738281 C 22.5 20.066406 22.5 20.066406 21.910156 20.054688 L 21.394531 20.042969 L 21.300781 19.867188 C 21.160156 19.605469 21.183594 19.613281 20.507812 19.597656 C 19.609375 19.578125 19.585938 19.582031 19.429688 19.847656 L 19.300781 20.066406 L 18.808594 20.054688 C 18.207031 20.042969 18.195312 19.984375 18.636719 19.199219 C 18.65625 19.167969 18.722656 19.035156 18.789062 18.898438 C 18.851562 18.765625 19.039062 18.386719 19.199219 18.054688 C 19.445312 17.554688 19.644531 17.140625 19.839844 16.707031 C 19.859375 16.664062 19.910156 16.582031 19.949219 16.519531 C 19.988281 16.457031 20.019531 16.371094 20.023438 16.324219 C 20.023438 16.277344 20.039062 16.230469 20.058594 16.21875 C 20.078125 16.207031 20.148438 16.089844 20.210938 15.957031 C 20.359375 15.640625 20.371094 15.644531 20.585938 16.097656 M 23.523438 15.863281 C 22.71875 16.023438 22 16.835938 21.898438 17.699219 C 21.859375 18.019531 21.84375 17.972656 22.460938 19.214844 L 22.742188 19.78125 L 23.476562 20.140625 L 23.972656 20.164062 C 24.46875 20.1875 24.472656 20.183594 24.804688 20.0625 C 25.558594 19.785156 26.261719 19.046875 25.925781 18.878906 C 25.882812 18.859375 25.824219 18.820312 25.792969 18.800781 C 25.710938 18.730469 25.210938 18.488281 25.148438 18.488281 C 25.117188 18.488281 25.058594 18.535156 25.015625 18.59375 C 24.511719 19.300781 23.722656 19.316406 23.152344 18.628906 C 23.070312 18.527344 22.941406 18.042969 22.96875 17.914062 C 23.085938 17.300781 23.292969 17.039062 23.78125 16.894531 C 24.21875 16.765625 24.617188 16.882812 24.917969 17.226562 C 25.125 17.464844 25.125 17.464844 25.726562 17.066406 C 25.96875 16.90625 25.992188 16.878906 25.964844 16.785156 C 25.910156 16.609375 25.320312 16.105469 25.082031 16.03125 C 25.035156 16.015625 24.960938 15.980469 24.917969 15.953125 C 24.878906 15.921875 24.800781 15.898438 24.742188 15.898438 C 24.6875 15.898438 24.632812 15.882812 24.617188 15.863281 C 24.589844 15.816406 23.753906 15.820312 23.523438 15.863281 M 5.578125 15.902344 C 5.515625 15.9375 5.511719 16.078125 5.511719 18 C 5.511719 20.402344 5.449219 20.140625 6.046875 20.132812 C 6.632812 20.121094 6.597656 20.160156 6.609375 19.546875 L 6.617188 19.03125 L 7.082031 19.003906 C 7.679688 18.972656 7.859375 18.925781 8.105469 18.75 C 9.285156 17.902344 8.929688 16.128906 7.535156 15.902344 C 7.222656 15.851562 5.664062 15.851562 5.578125 15.902344 M 9.082031 15.90625 C 9.046875 15.941406 9.039062 16.457031 9.039062 18.007812 C 9.039062 20.402344 8.96875 20.136719 9.589844 20.136719 C 10.191406 20.136719 10.128906 20.367188 10.121094 18.148438 C 10.113281 15.855469 10.117188 15.941406 10.050781 15.898438 C 9.964844 15.84375 9.136719 15.851562 9.082031 15.90625 M 10.449219 15.910156 C 10.367188 15.972656 10.347656 19.988281 10.429688 20.085938 C 10.480469 20.148438 11.367188 20.144531 11.386719 20.082031 C 11.394531 20.058594 11.238281 20.046875 10.953125 20.054688 C 10.523438 20.066406 10.503906 20.0625 10.460938 19.984375 C 10.410156 19.890625 10.425781 16.0625 10.476562 15.980469 C 10.496094 15.953125 10.65625 15.9375 10.964844 15.9375 L 11.421875 15.9375 L 11.5625 16.082031 C 11.640625 16.160156 11.730469 16.277344 11.765625 16.339844 C 11.800781 16.402344 11.90625 16.554688 12 16.679688 C 12.09375 16.804688 12.226562 16.996094 12.300781 17.101562 C 12.371094 17.210938 12.46875 17.335938 12.515625 17.382812 C 12.5625 17.425781 12.601562 17.476562 12.601562 17.488281 C 12.601562 17.515625 12.714844 17.683594 12.988281 18.046875 C 13.171875 18.296875 13.25 18.367188 13.28125 18.328125 C 13.289062 18.324219 13.300781 17.789062 13.3125 17.136719 L 13.332031 15.957031 L 14.230469 15.957031 L 14.242188 17.980469 C 14.25 19.570312 14.242188 20.007812 14.203125 20.03125 C 14.148438 20.066406 13.386719 20.074219 13.300781 20.039062 C 13.269531 20.027344 13.195312 19.929688 13.140625 19.824219 C 13.085938 19.71875 13.007812 19.589844 12.96875 19.539062 C 12.929688 19.484375 12.871094 19.40625 12.832031 19.355469 C 12.796875 19.308594 12.742188 19.238281 12.707031 19.199219 C 12.671875 19.160156 12.625 19.09375 12.597656 19.046875 C 12.574219 19.003906 12.480469 18.867188 12.390625 18.75 C 12.300781 18.628906 12.226562 18.515625 12.226562 18.492188 C 12.226562 18.46875 12.175781 18.398438 12.117188 18.328125 C 12.058594 18.261719 11.921875 18.070312 11.8125 17.90625 C 11.542969 17.496094 11.398438 17.390625 11.402344 17.597656 C 11.402344 17.652344 11.410156 17.664062 11.429688 17.632812 C 11.460938 17.585938 11.605469 17.71875 11.769531 17.957031 C 11.816406 18.023438 11.910156 18.15625 11.976562 18.25 C 12.039062 18.34375 12.109375 18.445312 12.132812 18.480469 C 12.179688 18.5625 12.441406 18.933594 12.636719 19.199219 C 12.894531 19.550781 13.199219 20.015625 13.199219 20.054688 C 13.199219 20.136719 14.128906 20.175781 14.25 20.101562 C 14.34375 20.042969 14.371094 16.019531 14.277344 15.929688 C 14.1875 15.839844 13.386719 15.828125 13.3125 15.917969 C 13.28125 15.957031 13.269531 16.257812 13.273438 17.058594 C 13.277344 18.402344 13.289062 18.390625 12.84375 17.738281 C 12.75 17.601562 12.574219 17.351562 12.449219 17.183594 C 12.328125 17.011719 12.226562 16.855469 12.226562 16.835938 C 12.226562 16.816406 12.210938 16.800781 12.191406 16.800781 C 12.171875 16.800781 12.097656 16.710938 12.023438 16.601562 C 11.476562 15.804688 11.558594 15.863281 10.988281 15.863281 C 10.660156 15.863281 10.492188 15.878906 10.449219 15.910156 M 14.648438 15.910156 C 14.539062 15.992188 14.554688 19.980469 14.667969 20.070312 C 14.773438 20.160156 15.527344 20.167969 15.597656 20.082031 C 15.632812 20.042969 15.644531 19.710938 15.644531 18.828125 C 15.644531 18.039062 15.65625 17.625 15.683594 17.625 C 15.730469 17.625 15.9375 17.84375 15.9375 17.894531 C 15.9375 17.914062 15.996094 18 16.070312 18.085938 C 16.140625 18.167969 16.199219 18.253906 16.199219 18.273438 C 16.199219 18.304688 16.277344 18.410156 16.433594 18.597656 C 16.484375 18.65625 16.570312 18.785156 16.816406 19.144531 C 16.902344 19.269531 16.992188 19.398438 17.019531 19.425781 C 17.042969 19.457031 17.152344 19.613281 17.261719 19.777344 C 17.464844 20.085938 17.578125 20.167969 17.75 20.125 C 17.839844 20.101562 17.855469 20.074219 18.289062 19.179688 L 18.542969 18.65625 L 18.554688 17.308594 C 18.566406 15.714844 18.621094 15.863281 18.027344 15.863281 C 17.425781 15.863281 17.480469 15.738281 17.476562 17.070312 C 17.472656 17.691406 17.464844 18.210938 17.453125 18.222656 C 17.425781 18.246094 17.28125 18.070312 17.074219 17.757812 C 16.980469 17.613281 16.890625 17.484375 16.875 17.476562 C 16.859375 17.464844 16.78125 17.355469 16.703125 17.234375 C 16.480469 16.902344 16.453125 16.863281 16.320312 16.699219 C 16.253906 16.613281 16.199219 16.53125 16.199219 16.507812 C 16.199219 16.488281 16.167969 16.445312 16.125 16.40625 C 16.082031 16.367188 16.050781 16.320312 16.050781 16.296875 C 16.050781 16.273438 15.96875 16.167969 15.867188 16.058594 L 15.6875 15.863281 L 15.199219 15.863281 C 14.867188 15.863281 14.695312 15.878906 14.648438 15.910156 M 24.574219 15.886719 C 24.609375 15.921875 25.023438 16.085938 25.078125 16.085938 C 25.1875 16.085938 25.722656 16.539062 25.855469 16.738281 C 25.9375 16.859375 25.941406 16.855469 25.492188 17.125 C 25.332031 17.21875 25.199219 17.3125 25.199219 17.332031 C 25.199219 17.347656 25.175781 17.363281 25.144531 17.363281 C 25.113281 17.363281 25.085938 17.347656 25.085938 17.328125 C 25.085938 17.230469 24.746094 16.945312 24.542969 16.875 C 23.839844 16.632812 23.140625 16.96875 22.953125 17.632812 C 22.839844 18.042969 22.996094 18.695312 23.25 18.855469 C 23.300781 18.890625 23.355469 18.9375 23.371094 18.964844 C 23.617188 19.351562 24.601562 19.222656 24.980469 18.753906 C 25.164062 18.53125 25.203125 18.527344 25.5 18.707031 C 25.59375 18.765625 25.730469 18.84375 25.808594 18.882812 C 26.023438 18.992188 26 19.074219 25.640625 19.4375 C 25.46875 19.609375 25.28125 19.777344 25.21875 19.8125 C 25.035156 19.910156 24.757812 20.023438 24.699219 20.023438 C 24.667969 20.023438 24.632812 20.042969 24.617188 20.0625 C 24.5 20.253906 22.800781 19.9375 22.800781 19.726562 C 22.800781 19.707031 22.75 19.617188 22.6875 19.523438 C 22.625 19.433594 22.574219 19.347656 22.574219 19.332031 C 22.574219 19.316406 22.4375 19.023438 22.265625 18.679688 L 21.957031 18.054688 L 21.964844 17.765625 C 21.976562 17.417969 22.15625 16.929688 22.351562 16.722656 C 22.730469 16.308594 22.835938 16.222656 23.101562 16.097656 C 23.472656 15.917969 24.464844 15.777344 24.574219 15.886719 M 26.292969 15.914062 C 26.230469 15.988281 26.226562 20.007812 26.289062 20.082031 C 26.34375 20.148438 28.6875 20.164062 28.855469 20.101562 C 28.949219 20.066406 28.949219 20.0625 28.949219 19.632812 C 28.949219 19.097656 29.007812 19.132812 28.105469 19.121094 C 27.703125 19.117188 27.375 19.097656 27.347656 19.078125 C 27.3125 19.050781 27.300781 18.6875 27.300781 17.496094 C 27.300781 16.34375 27.289062 15.941406 27.253906 15.90625 C 27.1875 15.839844 26.347656 15.847656 26.292969 15.914062 M 29.242188 15.902344 C 29.132812 15.964844 29.140625 20.042969 29.246094 20.097656 C 29.378906 20.167969 31.855469 20.148438 31.929688 20.078125 C 31.996094 20.011719 32.015625 19.300781 31.949219 19.199219 C 31.921875 19.152344 31.785156 19.144531 31.109375 19.144531 C 30.175781 19.144531 30.21875 19.160156 30.234375 18.785156 L 30.242188 18.507812 L 31.078125 18.488281 C 32.058594 18.464844 31.988281 18.507812 31.988281 17.980469 C 31.988281 17.457031 32.058594 17.496094 31.078125 17.476562 L 30.242188 17.457031 L 30.230469 17.234375 C 30.226562 17.109375 30.230469 16.972656 30.242188 16.921875 L 30.265625 16.835938 L 31.082031 16.835938 C 32.042969 16.835938 31.972656 16.871094 31.984375 16.378906 C 31.996094 15.8125 32.132812 15.863281 30.609375 15.863281 C 29.792969 15.863281 29.28125 15.878906 29.242188 15.902344 M 7.894531 16.082031 C 8.964844 16.585938 9.070312 18 8.085938 18.679688 C 7.789062 18.886719 7.566406 18.9375 7 18.9375 C 6.523438 18.9375 6.515625 18.949219 6.527344 19.558594 C 6.539062 20.089844 6.5625 20.070312 6.011719 20.054688 L 5.605469 20.042969 L 5.597656 18.039062 C 5.589844 16.933594 5.59375 16.007812 5.605469 15.980469 C 5.621094 15.941406 5.8125 15.933594 6.628906 15.941406 L 7.632812 15.957031 L 7.894531 16.082031 M 10.042969 17.988281 L 10.050781 20.023438 L 9.964844 20.042969 C 9.917969 20.054688 9.710938 20.0625 9.503906 20.054688 L 9.132812 20.042969 L 9.101562 19.820312 C 9.0625 19.527344 9.085938 16.046875 9.125 15.984375 C 9.148438 15.949219 9.269531 15.9375 9.59375 15.945312 L 10.03125 15.957031 L 10.042969 17.988281 M 15.820312 16.121094 C 15.90625 16.222656 15.976562 16.316406 15.976562 16.332031 C 15.976562 16.347656 16.019531 16.414062 16.078125 16.480469 C 16.136719 16.550781 16.21875 16.664062 16.265625 16.730469 C 16.316406 16.800781 16.421875 16.949219 16.5 17.058594 C 16.582031 17.171875 16.648438 17.285156 16.648438 17.308594 C 16.648438 17.335938 16.683594 17.367188 16.726562 17.382812 C 16.765625 17.394531 16.800781 17.417969 16.800781 17.4375 C 16.800781 17.488281 16.953125 17.722656 17.191406 18.03125 C 17.3125 18.1875 17.417969 18.324219 17.425781 18.335938 C 17.503906 18.441406 17.53125 18.171875 17.550781 17.109375 L 17.570312 15.957031 L 17.976562 15.945312 C 18.53125 15.929688 18.480469 15.792969 18.484375 17.3125 L 18.488281 18.605469 L 18.316406 18.96875 C 17.683594 20.300781 17.6875 20.300781 17.199219 19.589844 C 16.792969 18.992188 16.773438 18.96875 16.605469 18.730469 C 16.515625 18.609375 16.421875 18.460938 16.398438 18.402344 C 16.375 18.347656 16.335938 18.300781 16.316406 18.300781 C 16.296875 18.300781 16.242188 18.234375 16.195312 18.148438 C 16.148438 18.066406 16.097656 18 16.082031 18 C 16.070312 18 16.019531 17.925781 15.976562 17.835938 C 15.894531 17.664062 15.769531 17.527344 15.675781 17.507812 C 15.625 17.496094 15.617188 17.660156 15.601562 18.769531 L 15.582031 20.042969 L 15.175781 20.054688 C 14.90625 20.0625 14.75 20.050781 14.714844 20.023438 C 14.660156 19.976562 14.632812 16.015625 14.6875 15.960938 C 14.703125 15.949219 14.925781 15.9375 15.191406 15.9375 L 15.667969 15.9375 L 15.820312 16.121094 M 27.207031 15.976562 C 27.21875 16 27.230469 16.695312 27.226562 17.523438 C 27.222656 18.757812 27.230469 19.042969 27.273438 19.101562 C 27.324219 19.167969 27.375 19.171875 28.042969 19.164062 C 28.957031 19.15625 28.917969 19.136719 28.910156 19.585938 C 28.90625 19.777344 28.898438 19.960938 28.886719 19.996094 C 28.859375 20.097656 26.382812 20.097656 26.328125 19.996094 C 26.277344 19.902344 26.273438 16.105469 26.324219 16.011719 C 26.371094 15.925781 27.15625 15.894531 27.207031 15.976562 M 31.894531 16.367188 L 31.894531 16.78125 L 31.074219 16.785156 C 30.128906 16.789062 30.179688 16.769531 30.167969 17.164062 C 30.152344 17.570312 30.105469 17.550781 31.027344 17.550781 C 31.988281 17.550781 31.917969 17.515625 31.90625 18.003906 L 31.894531 18.394531 L 31.070312 18.402344 C 30.105469 18.414062 30.148438 18.398438 30.15625 18.78125 C 30.164062 19.226562 30.105469 19.199219 31.078125 19.199219 L 31.914062 19.199219 L 31.90625 19.621094 L 31.894531 20.042969 L 30.601562 20.054688 C 29.726562 20.058594 29.296875 20.050781 29.269531 20.023438 C 29.230469 19.984375 29.234375 16.03125 29.273438 15.964844 C 29.285156 15.949219 29.878906 15.941406 30.59375 15.945312 L 31.894531 15.957031 L 31.894531 16.367188 M 6.636719 16.796875 L 6.542969 16.820312 L 6.535156 17.398438 C 6.519531 18.121094 6.496094 18.085938 7.015625 18.070312 C 7.484375 18.054688 7.574219 18.011719 7.714844 17.738281 C 7.921875 17.332031 7.664062 16.796875 7.265625 16.800781 C 7.210938 16.800781 7.25 16.832031 7.378906 16.894531 C 7.789062 17.082031 7.855469 17.5625 7.519531 17.886719 L 7.386719 18.015625 L 7.003906 18.015625 L 6.617188 18.019531 L 6.609375 17.429688 L 6.597656 16.839844 L 6.722656 16.820312 C 6.789062 16.808594 6.917969 16.792969 7.011719 16.789062 C 7.144531 16.777344 7.132812 16.773438 6.957031 16.773438 C 6.832031 16.769531 6.6875 16.78125 6.636719 16.796875 M 11.417969 18.9375 C 11.417969 19.523438 11.421875 19.765625 11.429688 19.472656 C 11.433594 19.179688 11.433594 18.695312 11.429688 18.402344 C 11.421875 18.109375 11.417969 18.351562 11.417969 18.9375 M 20.253906 18.085938 C 20.234375 18.128906 20.167969 18.277344 20.105469 18.410156 C 19.921875 18.78125 19.976562 18.824219 20.632812 18.789062 C 20.738281 18.785156 20.746094 18.65625 20.644531 18.457031 C 20.59375 18.355469 20.550781 18.253906 20.550781 18.234375 C 20.550781 18.070312 20.304688 17.949219 20.253906 18.085938 M 20.523438 18.34375 C 20.699219 18.722656 20.691406 18.75 20.410156 18.75 C 20.050781 18.75 20.03125 18.710938 20.199219 18.347656 C 20.375 17.972656 20.351562 17.972656 20.523438 18.34375 " fill-opacity="1" fill-rule="evenodd"/></svg>