<svg xmlns="http://www.w3.org/2000/svg" width="50" viewBox="0 0 37.5 37.5" height="50" version="1.0"><defs><clipPath id="a"><path d="M0 0h37.008v37.008H0Zm0 0"/></clipPath></defs><g clip-path="url(#a)"><path fill="#fff" d="M0 0h37.5v45H0Zm0 0"/><path fill="#fff" d="M0 0h37.5v37.5H0Zm0 0"/><path fill="#fff" d="M0 0h37.5v37.5H0Zm0 0"/><path fill="#0c1323" d="M0 18.75V37.5h37.5V0H0v18.75m20.453-3.152c.055.023.098.066.098.105 0 .035.066.2.148.36.082.16.153.308.153.332 0 .02.03.082.07.136a.66.66 0 0 1 .094.223c.015.066.043.129.062.14.04.024.524 1.004.524 1.06 0 .019.03.077.07.128.039.047.113.191.164.313.14.34.426.949.465 1.003.02.024.097.184.176.356.195.426.203.422-.516.422-.652 0-.691-.016-.793-.281-.082-.215-.086-.215-.863-.2l-.633.012-.258.461-.566.016c-.72.02-.84-.036-.68-.309.059-.098.219-.426.797-1.613.547-1.121.648-1.344.648-1.399 0-.027.032-.082.075-.12a.254.254 0 0 0 .078-.106c0-.024.03-.11.07-.192a.757.757 0 0 0 .074-.195c0-.023.027-.05.059-.063.031-.011.054-.054.054-.09 0-.035.043-.132.094-.214a.672.672 0 0 0 .094-.215c0-.035.031-.07.066-.078.035-.012.07-.02.075-.024.003 0 .05.012.101.032m4.125.18a.623.623 0 0 0 .184.07c.808.222 1.504.968 1.113 1.187-.07.04-.164.102-.207.14-.348.313-.602.325-.863.044-.645-.696-1.883-.114-1.77.828.047.383.332.89.5.89.024 0 .121.036.219.079.348.152.789.023 1.105-.328.278-.305.25-.301.676-.086.524.27.676.414.527.503-.019.012-.039.051-.039.086 0 .106-.625.676-.87.797-.36.18-.571.227-1.063.23-.527.005-.524.005-1.027-.214-.266-.117-.38-.2-.442-.328-.113-.227-.648-1.344-.723-1.5-.144-.317-.03-.95.254-1.375.137-.207.504-.602.559-.602.027 0 .066-.031.09-.074.02-.043.054-.074.074-.074.02 0 .125-.04.234-.09.211-.098.403-.16.555-.184.164-.027.887-.027.914 0m-17.039.07c1.395.165 1.813 2.118.625 2.934-.289.2-.8.305-1.473.305-.027 0-.043.168-.043.492 0 .363-.015.504-.054.543-.07.07-.852.094-1.004.031l-.113-.047v-2.101c0-2.05 0-2.102.074-2.152.078-.055 1.531-.059 1.988-.004m2.55.02c.118.077.122 4.175.005 4.273-.098.078-.957.074-1.04-.008-.085-.082-.081-4.23 0-4.293.083-.063.938-.04 1.036.027m1.457-.008c.058.059.133.16.453.618a.57.57 0 0 0 .102.109c.027.016.046.047.046.07 0 .024.067.117.141.215.191.23.313.406.313.445 0 .02.05.082.109.141.062.059.113.121.113.14 0 .048.352.516.387.516.02 0 .027-.488.023-1.082-.007-.691.004-1.101.032-1.148.066-.121 1.093-.102 1.097.02.028.972-.008 4.183-.047 4.222-.058.059-.097.063-.64.055l-.438-.004-.14-.215a4.49 4.49 0 0 0-.297-.418c-.09-.11-.164-.219-.164-.238a.544.544 0 0 0-.114-.176c-.18-.211-.558-.766-.562-.82 0-.024-.016-.047-.035-.047-.024 0-.055-.04-.074-.09-.106-.274-.446-.54-.399-.313.04.196.027 2.164-.015 2.239-.043.086-.852.132-1.012.062l-.094-.043-.02-2.062a72.085 72.085 0 0 1-.003-2.114c.046-.16 1.09-.23 1.238-.082m4.203-.011c.05.015.336.355.336.402 0 .031.324.504.39.57.094.094.282.375.325.485.02.05.05.093.07.093.02 0 .133.145.246.317.34.508.317.547.328-.582.008-.551-.004-1.028-.023-1.074-.09-.223.8-.395 1.094-.211l.086.054v1.38c0 1.425-.004 1.456-.153 1.695a1.54 1.54 0 0 0-.097.187 33.85 33.85 0 0 1-.305.617c-.02.043-.07.14-.11.227-.113.234-.406.242-.562.015a22.51 22.51 0 0 0-.305-.414c-.105-.14-.195-.277-.195-.297 0-.019-.047-.09-.105-.156a3.821 3.821 0 0 1-.29-.402c-.02-.031-.101-.137-.175-.234a.825.825 0 0 1-.14-.207.829.829 0 0 0-.134-.192.759.759 0 0 1-.133-.187c0-.051-.132-.164-.16-.133-.015.012-.027.531-.027 1.152 0 .832-.012 1.145-.043 1.176-.07.07-.965.062-1.07-.012l-.078-.055.011-2.085c.012-1.961.02-2.086.082-2.137.067-.05.965-.047 1.137.008m11.57.03c.047.06.055.345.055 1.618v1.543l.195.023c.43.051 1.164.032 1.239-.039.062-.058.074-.058.128-.003.079.078.083 1.027.004 1.105-.078.078-2.605.078-2.695 0-.078-.066-.105-4.133-.027-4.273.058-.11 1.023-.082 1.101.027m4.645-.02c.086.075.09.907 0 .996-.05.051-.176.06-.848.055-.433 0-.793.004-.8.008a2.474 2.474 0 0 0-.024.258l-.012.242.824.008c.993.008.918-.04.918.578 0 .558.067.52-.93.52h-.788l-.016.105c-.016.086-.012.215.008.41.004.04.187.047.793.047 1.004 0 .933-.035.933.523 0 .63.145.57-1.484.567-.738 0-1.36-.02-1.375-.035-.059-.055-.074-4.223-.016-4.27.11-.094 2.704-.105 2.817-.012M6.699 16.906c-.094.102-.09.946.004 1.04.086.09.578.054.719-.048.34-.257.324-.796-.027-.933-.075-.031-.168-.07-.204-.09-.113-.066-.421-.047-.492.031m13.535 1.508c-.12.266-.12.262.114.281.191.016.336-.03.25-.086a.64.64 0 0 1-.11-.214c-.093-.25-.129-.247-.254.02m11.715 2.66c.024.042.035.25.031.495l-.011.422-13.145.012c-7.226.004-13.18 0-13.226-.012-.086-.02-.133-.746-.063-.933.04-.106 26.36-.09 26.414.015" fill-rule="evenodd"/></g><path fill="#ebeded" d="M20.21 15.957c-.062.133-.132.25-.151.262-.02.011-.036.058-.036.105a.533.533 0 0 1-.074.196c-.039.062-.09.144-.11.187-.194.434-.394.848-.64 1.348-.16.332-.347.71-.41.843-.066.137-.133.27-.152.301-.442.785-.43.844.172.856l.492.011.129-.218c.156-.266.18-.27 1.078-.25.676.015.652.007.793.27l.094.175.515.012c.59.011.59.011.426-.317-.05-.101-.145-.3-.211-.445-.113-.246-.273-.582-.504-1.066a4.5 4.5 0 0 0-.137-.266c-.02-.031-.136-.273-.261-.543a17.558 17.558 0 0 0-.395-.805c-.48-1.039-.453-1.008-.617-.656m3.434-.043c-.36.063-.782.274-1 .5-.372.383-.415.441-.54.746-.105.25-.132.367-.14.606l-.008.289.309.625c.172.343.308.636.308.652 0 .016.051.102.113.191a.89.89 0 0 1 .114.204c0 .21 1.699.527 1.816.335.016-.019.051-.039.082-.039.059 0 .336-.113.52-.21.062-.036.25-.204.422-.375.359-.364.382-.446.168-.555a4.542 4.542 0 0 1-.309-.176c-.297-.18-.336-.176-.52.047-.378.469-1.363.598-1.609.21a.493.493 0 0 0-.121-.109c-.254-.16-.41-.812-.297-1.222.188-.664.887-1 1.59-.758.203.07.543.355.543.453 0 .02.027.035.059.035.03 0 .054-.015.054-.031 0-.02.133-.113.293-.207.45-.27.445-.266.363-.387-.132-.199-.668-.652-.777-.652-.055 0-.469-.164-.504-.2-.039-.038-.644-.019-.93.028m-18.039.066c-.011.028-.015.954-.007 2.06l.007 2.003.407.012c.55.015.527.035.515-.496-.011-.61-.004-.622.473-.622.566 0 .79-.05 1.086-.257.984-.68.879-2.094-.191-2.598l-.262-.125-1.004-.016c-.816-.007-1.008 0-1.024.04m3.52.003c-.04.063-.063 3.543-.023 3.836l.03.223.372.012c.207.008.414 0 .46-.012l.087-.02-.008-2.035-.012-2.031-.437-.012c-.324-.008-.446.004-.469.04m1.352-.005c-.047.082-.067 3.91-.016 4.004.039.078.062.078.48.07l.442-.011.008-1.238c.011-1.559 0-1.532.41-.91.113.171.258.367.316.433.059.07.11.14.11.164 0 .024.074.137.164.258.09.117.183.254.207.297.027.047.074.113.109.152a7.484 7.484 0 0 1 .262.34c.039.05.117.18.172.285.054.106.129.203.16.215.086.035.847.027.902-.008.04-.023.047-.46.04-2.05l-.013-2.024h-.898l-.02 1.18a30.138 30.138 0 0 1-.03 1.191c-.032.04-.11-.031-.294-.281-.273-.363-.386-.531-.386-.559a.343.343 0 0 0-.086-.105 2.126 2.126 0 0 1-.215-.281c-.074-.106-.207-.297-.301-.422a4.352 4.352 0 0 1-.234-.34 1.484 1.484 0 0 0-.204-.258l-.14-.145h-.457c-.309 0-.469.016-.488.043m4.21-.02c-.054.056-.027 4.017.028 4.063.035.028.191.04.46.032l.407-.012.02-1.273c.015-1.11.023-1.274.074-1.262.094.02.219.156.3.328.044.09.094.164.106.164.016 0 .066.066.113.148.047.086.102.153.121.153.02 0 .059.047.082.101.024.059.118.207.207.328.168.239.188.262.594.86.488.71.485.71 1.117-.621l.172-.364-.004-1.293c-.004-1.519.047-1.382-.507-1.367l-.407.012-.02 1.152c-.019 1.063-.046 1.332-.124 1.227a25.739 25.739 0 0 0-.235-.305c-.238-.308-.39-.543-.39-.593 0-.02-.035-.043-.074-.055-.043-.016-.079-.047-.079-.074 0-.024-.066-.137-.148-.25l-.234-.329a4.628 4.628 0 0 0-.188-.25.499.499 0 0 1-.101-.148c0-.016-.07-.11-.157-.21l-.152-.184h-.477c-.265 0-.488.011-.504.023m11.637.05c-.05.094-.047 3.891.004 3.985.055.102 2.531.102 2.559 0 .011-.035.02-.219.023-.41.008-.45.047-.43-.867-.422-.668.008-.719.004-.77-.062-.043-.059-.05-.344-.046-1.579.003-.828-.008-1.523-.02-1.546-.05-.082-.836-.051-.883.035m2.95-.047c-.04.066-.044 4.02-.004 4.058.027.028.457.036 1.332.032l1.293-.012.011-.422.008-.422h-.836c-.973 0-.914.028-.922-.418-.008-.383-.05-.367.914-.379l.825-.007.011-.391c.012-.488.082-.453-.879-.453-.922 0-.875.02-.859-.387.012-.394-.04-.375.906-.379l.82-.004v-.824l-1.3-.012c-.715-.004-1.309.004-1.32.02m-21.794.898c.387.184.415.848.047 1.117-.14.102-.882.137-.957.047-.035-.039-.043-.222-.035-.629l.008-.578.094-.027c.156-.047.687-.004.843.07m12.993 1.235a.395.395 0 0 1 .078.136c0 .02.043.121.094.223.101.2.093.328-.012.332-.656.035-.711-.008-.528-.379.063-.133.13-.281.149-.324.043-.113.125-.11.219.012" fill-rule="evenodd"/><path fill="#e45511" d="M5.64 21.117c-.199.219-.042.778.231.828.328.059 25.813.035 25.926-.023.223-.117.21-.774-.016-.86-.035-.015-5.914-.023-13.066-.023H5.71l-.07.078" fill-rule="evenodd"/><path fill="#5b5250" d="M20.277 15.59c-.035.008-.066.043-.066.078a.672.672 0 0 1-.094.215.638.638 0 0 0-.094.215c0 .035-.023.078-.054.09-.032.011-.059.039-.059.062s-.031.11-.074.195a.792.792 0 0 0-.07.192.254.254 0 0 1-.078.105c-.043.04-.075.094-.075.121 0 .055-.101.278-.648 1.399-.578 1.187-.738 1.515-.797 1.613-.16.273-.04.328.68.309l.566-.016.258-.461.633-.012c.777-.015.78-.015.863.2.102.265.14.28.793.28.719 0 .71.005.516-.421a3.594 3.594 0 0 0-.176-.356c-.04-.054-.324-.664-.465-1.003a1.687 1.687 0 0 0-.164-.313.355.355 0 0 1-.07-.129c0-.055-.485-1.035-.524-1.058-.02-.012-.047-.075-.062-.141a.66.66 0 0 0-.094-.223.402.402 0 0 1-.07-.136c0-.024-.07-.172-.153-.332-.082-.16-.148-.325-.148-.36 0-.05-.16-.16-.2-.137-.003.004-.038.012-.074.024m.301.351c.192.38.844 1.735.973 2.02.054.113.117.234.14.266a.86.86 0 0 1 .106.203c.031.086.168.379.3.656.551 1.16.567 1.05-.124 1.05-.559 0-.645-.023-.711-.19-.114-.294-.117-.298-.899-.298-.785 0-.742-.011-.906.301l-.09.168h-.558c-.73 0-.711.055-.301-.785a137.666 137.666 0 0 0 1.176-2.457 1.74 1.74 0 0 1 .074-.148c.015-.032.07-.141.117-.247l.113-.242c.02-.031.086-.168.153-.3.218-.43.218-.43.437.003m3.086-.164a2.174 2.174 0 0 0-.555.184c-.109.05-.214.09-.234.09-.02 0-.055.031-.074.074-.024.043-.063.074-.09.074-.055 0-.422.395-.559.602-.285.426-.398 1.058-.254 1.375.075.156.61 1.273.723 1.5.074.152.25.262.762.465.422.168 1.27.097 1.77-.153.245-.12.87-.691.87-.797 0-.035.02-.074.04-.086.148-.09-.004-.234-.528-.503-.426-.215-.398-.22-.676.085-.316.352-.757.481-1.105.329a1.077 1.077 0 0 0-.219-.078c-.168 0-.453-.508-.5-.891-.113-.942 1.125-1.524 1.77-.828.261.281.515.27.863-.043.043-.04.137-.102.207-.14.207-.118.184-.286-.078-.544-.367-.367-.637-.535-1.035-.644a.623.623 0 0 1-.184-.07c-.027-.028-.75-.028-.914 0m-18.113.074c-.074.05-.074.101-.074 2.152v2.101l.113.047c.152.063.933.04 1.004-.03.039-.04.054-.18.054-.544 0-.324.016-.492.043-.492.672 0 1.184-.106 1.473-.305 1.188-.816.77-2.77-.625-2.933-.457-.055-1.91-.051-1.988.004m3.504-.012c-.082.062-.086 4.21 0 4.293.082.082.941.086 1.039.008.117-.098.113-4.196-.004-4.274-.098-.066-.953-.09-1.035-.027m1.386 0c-.16.07-.148-.086-.129 2.215l.02 2.062.094.043c.16.07.969.024 1.011-.062.043-.075.055-2.043.016-2.239-.031-.148.016-.156.137-.027.168.172.226.246.262.34.02.05.05.09.074.09.02 0 .035.023.035.047.004.054.383.609.562.82a.544.544 0 0 1 .114.176c0 .02.074.129.164.238.09.11.222.297.297.418l.14.215.438.004c.543.008.582.004.64-.055.04-.04.075-3.25.047-4.223-.004-.12-1.031-.14-1.097-.02-.028.048-.04.458-.032 1.15.004.593-.004 1.081-.023 1.081-.035 0-.387-.468-.387-.515 0-.02-.05-.082-.113-.141-.059-.059-.11-.121-.11-.14 0-.04-.12-.215-.312-.446-.074-.098-.14-.191-.14-.215 0-.023-.02-.054-.047-.07a.57.57 0 0 1-.102-.11c-.531-.757-.43-.687-.984-.687-.301 0-.5.02-.575.05m4.172 0c-.062.052-.07.177-.082 2.138l-.011 2.085.078.055c.105.074 1 .082 1.07.012.031-.031.043-.344.043-1.176 0-.621.012-1.14.027-1.152.028-.031.16.082.16.133 0 .02.063.105.133.187.07.086.133.172.133.192 0 .019.063.113.14.207.075.097.157.203.176.234.094.148.192.285.29.402a.492.492 0 0 1 .105.157c0 .019.09.156.195.296.11.145.246.332.305.414.184.266.715.122.613-.164-.008-.023-.047.024-.086.102-.14.293-.367.23-.64-.184-.11-.164-.219-.32-.242-.351a3.9 3.9 0 0 1-.204-.281c-.246-.36-.332-.489-.382-.547-.157-.188-.235-.293-.235-.325a.702.702 0 0 0-.129-.187.712.712 0 0 1-.133-.191c0-.051-.207-.27-.253-.27-.028 0-.04.414-.04 1.203 0 1.43.043 1.309-.496 1.309-.625 0-.562.246-.562-2.157 0-2.382-.078-2.117.613-2.117h.489l.18.196c.1.109.183.214.183.238 0 .023.031.07.074.11.043.038.074.081.074.1 0 .024.055.106.121.192.133.164.16.203.383.535.078.121.156.23.172.243.016.007.105.136.2.28.206.313.35.49.378.466.012-.012.02-.532.024-1.153.003-1.332-.051-1.207.55-1.207.594 0 .54-.148.528 1.446l-.012 1.347-.27.559c-.28.574-.293.601-.242.57.024-.015.094-.148.32-.62a1.54 1.54 0 0 1 .098-.188c.149-.239.153-.27.153-1.696v-1.379l-.086-.054c-.293-.184-1.184-.012-1.094.21.02.047.031.524.023 1.075-.011 1.129.012 1.09-.328.582-.113-.172-.226-.317-.246-.317-.02 0-.05-.043-.07-.093-.043-.11-.23-.39-.324-.485-.067-.066-.391-.539-.391-.57 0-.047-.285-.387-.336-.402-.172-.055-1.07-.059-1.137-.008m11.606.012c-.078.14-.051 4.207.027 4.273.09.078 2.617.078 2.695 0 .079-.078.075-1.027-.003-1.105-.055-.055-.067-.055-.13.003-.074.07-.808.09-1.238.04l-.195-.024v-1.543c0-1.273-.008-1.558-.055-1.617-.078-.11-1.043-.137-1.101-.027m3.07-.036c-.2.032-.191-.058-.176 2.192.012 1.156.032 2.113.051 2.133.016.015.637.035 1.375.035 1.629.004 1.484.062 1.484-.567 0-.558.07-.523-.933-.523-.606 0-.79-.008-.793-.047a1.635 1.635 0 0 1-.008-.41l.016-.106h.789c.996 0 .93.04.93-.52 0-.616.074-.57-.919-.577l-.824-.008.012-.242c.008-.137.02-.25.023-.258.008-.004.368-.008.801-.008.672.004.797-.004.848-.055.09-.09.086-.921 0-.996-.063-.05-2.41-.086-2.676-.043m-4.672.047c.016.02.07.035.125.035.059 0 .137.024.176.055a.9.9 0 0 0 .164.078c.238.074.828.578.883.754.027.094.004.121-.238.281-.602.399-.602.399-.809.16-.3-.343-.7-.46-1.137-.331-.488.144-.695.406-.812 1.02-.028.128.101.612.183.714.57.687 1.36.672 1.864-.035.043-.059.101-.106.132-.106.063 0 .563.242.645.313.031.02.09.058.133.078.336.168-.367.906-1.121 1.183-.332.122-.336.125-.832.102l-.496-.023-.735-.36-.281-.566c-.617-1.242-.602-1.195-.563-1.516.102-.863.82-1.676 1.625-1.836.23-.043 1.067-.047 1.094 0m-17.082.04c1.395.226 1.75 2 .57 2.847-.246.176-.425.223-1.023.254l-.465.027-.008.516c-.011.613.024.574-.562.586-.598.008-.535.27-.535-2.133 0-1.922.004-2.063.066-2.098.086-.05 1.645-.05 1.957 0m2.516-.004c.066.043.062-.043.07 2.25.008 2.22.07 1.989-.531 1.989-.621 0-.55.265-.55-2.13 0-1.55.007-2.066.042-2.1.055-.055.883-.063.969-.009m1.508.067c.093.101.171.207.464.637.075.109.149.199.168.199.02 0 .036.015.036.035 0 .02.101.176.222.348.125.168.301.418.395.554.445.653.433.664.43-.68-.004-.8.007-1.101.039-1.14.074-.09.874-.078.964.012.094.09.067 4.113-.027 4.172-.121.074-1.05.035-1.05-.047 0-.04-.305-.504-.563-.856a15.264 15.264 0 0 1-.504-.719 9.593 9.593 0 0 0-.168-.242l-.23-.332c-.141-.203-.297-.347-.301-.277 0 .027 0 .558.004 1.176.003.71-.008 1.164-.036 1.23l-.039.102h-.445c-.332 0-.457-.012-.488-.051-.082-.098-.063-4.117.02-4.176.144-.105.995-.062 1.109.055m15.695-.059c.035.035.047.438.047 1.59 0 1.192.012 1.555.047 1.582.027.02.355.04.757.043.903.012.844-.023.844.512 0 .43 0 .433-.094.469-.168.062-2.511.046-2.566-.02-.062-.074-.059-4.094.004-4.168.055-.066.895-.074.96-.008m4.696.031c.051.094.043.79-.008.852-.027.035-.246.047-.859.047h-.816l-.024.086a1.72 1.72 0 0 0-.012.312l.012.223.836.02c.98.02.91-.02.91.503 0 .528.07.485-.91.508l-.836.02-.008.277c-.015.375-.058.36.875.36.676 0 .813.007.84.054.067.102.047.813-.02.88-.074.07-2.55.089-2.683.019-.105-.055-.113-4.133-.004-4.196.145-.082 2.66-.05 2.707.036m-25.285.886c-.059.02-.066.07-.055.606l.008.59.387-.004h.383l.133-.13c.546-.53-.047-1.269-.856-1.062m.527.051c.036.02.13.059.204.09.351.137.367.676.027.933-.14.102-.633.137-.719.047-.094-.093-.098-.937-.004-1.039.07-.078.38-.097.492-.031M20.2 18.348c-.168.363-.148.402.211.402.281 0 .29-.027.113-.406-.171-.371-.148-.371-.324.004m.29.047a.64.64 0 0 0 .109.214c.086.055-.059.102-.25.086-.235-.02-.235-.015-.114-.28.125-.267.16-.27.254-.02M5.535 21.059c-.012.035-.023.25-.023.484 0 .473 0 .469.265.469.196 0 .22-.059.032-.086-.192-.024-.172 0-.223-.309-.043-.277-.027-.41.066-.515.059-.067 25.957-.106 26.13-.04.214.083.238.758.027.86-.036.02-5.79.043-12.946.055l-12.883.015H31.97l.011-.422c.004-.246-.007-.453-.03-.496-.055-.105-26.376-.12-26.415-.015" fill-rule="evenodd"/><path fill="#848c8e" d="M20.3 15.645c-.019.027-.09.16-.16.293-.066.132-.132.269-.152.3l-.113.242a6.373 6.373 0 0 1-.117.247 1.74 1.74 0 0 0-.074.148c-.141.313-.457.973-1.176 2.457-.41.84-.43.785.3.785h.56l.089-.168c.164-.312.121-.3.906-.3.782 0 .785.003.899.296.066.168.152.192.71.192.692 0 .676.11.126-1.051-.133-.277-.27-.57-.301-.656a.86.86 0 0 0-.106-.203 2.668 2.668 0 0 1-.14-.266c-.051-.113-.254-.543-.453-.953-.692-1.438-.715-1.477-.797-1.363m.285.453c.102.21.207.441.242.515.035.07.086.172.113.223.032.055.157.316.282.582.125.27.242.512.261.543a4.5 4.5 0 0 1 .137.266c.23.484.39.82.504 1.066.066.145.16.344.21.445.165.328.165.328-.425.317l-.515-.012-.094-.176c-.14-.262-.117-.254-.793-.27-.899-.019-.922-.015-1.078.25l-.13.22-.491-.012c-.602-.012-.614-.07-.172-.856.02-.031.086-.164.152-.3.063-.133.25-.512.41-.844.246-.5.446-.914.64-1.348.02-.043.071-.125.11-.187a.533.533 0 0 0 .074-.196c0-.047.016-.094.036-.105.02-.012.09-.13.152-.262.148-.316.16-.312.375.14m2.937-.234c-.804.16-1.523.973-1.625 1.836-.039.32-.054.274.563 1.516l.281.566.735.36.496.023c.496.023.5.02.832-.102.754-.277 1.457-1.015 1.12-1.183-.042-.02-.1-.059-.132-.078-.082-.07-.582-.313-.645-.313-.03 0-.09.047-.132.106-.504.707-1.293.722-1.864.035-.082-.102-.21-.586-.183-.715.117-.613.324-.875.812-1.02a1.042 1.042 0 0 1 1.137.333c.207.238.207.238.809-.16.242-.16.265-.188.238-.282-.055-.176-.645-.68-.883-.754a.9.9 0 0 1-.164-.078.323.323 0 0 0-.176-.055c-.055 0-.11-.015-.125-.035-.027-.047-.863-.043-1.094 0m-17.945.04c-.062.034-.066.175-.066 2.097 0 2.402-.063 2.14.535 2.133.586-.012.55.027.562-.586l.008-.516.465-.027c.598-.031.777-.078 1.023-.254 1.18-.848.825-2.621-.57-2.848-.312-.05-1.87-.05-1.957 0m3.504.004c-.035.035-.043.551-.043 2.102 0 2.394-.07 2.129.55 2.129.602 0 .54.23.532-1.989-.008-2.293-.004-2.207-.07-2.25-.086-.054-.914-.046-.969.008m1.367.004c-.082.063-.101 4.078-.02 4.176.051.062.938.059.958-.004.008-.023-.149-.035-.434-.027-.43.011-.45.008-.492-.07-.05-.094-.035-3.922.016-4.005.02-.027.18-.043.488-.043h.457l.14.145c.079.078.168.195.204.258.035.062.14.215.234.34.094.125.227.316.3.422.071.109.169.234.216.28a.343.343 0 0 1 .086.106c0 .028.113.196.386.559.184.25.262.32.293.281.008-.004.02-.539.031-1.191l.02-1.18h.898l.012 2.023c.008 1.59 0 2.028-.039 2.051-.055.035-.816.043-.902.008-.031-.012-.106-.11-.16-.215a2.453 2.453 0 0 0-.172-.285 7.484 7.484 0 0 0-.262-.34 1.077 1.077 0 0 1-.11-.152 3.484 3.484 0 0 0-.206-.297c-.09-.121-.164-.234-.164-.258 0-.023-.051-.094-.11-.164a5.503 5.503 0 0 1-.305-.422c-.269-.41-.414-.515-.41-.308 0 .054.008.066.028.035.03-.047.175.086.34.324.046.066.14.2.207.293.062.094.132.195.156.23.047.082.308.454.504.72.258.35.562.816.562.855 0 .082.93.12 1.051.047.094-.059.121-4.082.027-4.172-.09-.09-.89-.102-.964-.012-.032.039-.043.34-.04 1.14.004 1.344.016 1.333-.43.68-.093-.136-.269-.386-.394-.554-.12-.172-.222-.329-.222-.348a.035.035 0 0 0-.036-.035c-.02 0-.093-.09-.168-.2-.546-.796-.464-.738-1.035-.738-.328 0-.496.016-.539.047m4.2 0c-.11.082-.094 4.07.019 4.16.105.09.86.098.93.012.035-.039.047-.371.047-1.254 0-.789.011-1.203.039-1.203.046 0 .254.219.254.27 0 .02.058.105.132.19.07.083.13.169.13.188 0 .032.077.137.234.325.05.058.136.187.382.547a3.9 3.9 0 0 0 .204.28c.023.032.132.188.242.352.203.309.316.391.488.348.09-.023.105-.05.54-.945l.253-.524.012-1.347c.011-1.594.066-1.446-.528-1.446-.601 0-.547-.125-.55 1.207-.004.621-.012 1.14-.024 1.153-.027.023-.172-.153-.379-.465a2.295 2.295 0 0 0-.199-.281 2.148 2.148 0 0 1-.172-.243 5.588 5.588 0 0 0-.383-.535c-.066-.086-.12-.168-.12-.191 0-.02-.032-.063-.075-.102-.043-.039-.074-.086-.074-.11 0-.023-.082-.128-.184-.237l-.18-.196H15.2c-.332 0-.504.016-.55.047m9.925-.023c.035.035.45.199.504.199.11 0 .645.453.777.652.082.121.086.117-.363.387-.16.094-.293.188-.293.207 0 .016-.023.031-.054.031-.032 0-.06-.015-.06-.035 0-.098-.339-.383-.542-.453-.703-.242-1.402.094-1.59.758-.113.41.043 1.062.297 1.222.05.036.105.082.121.11.246.387 1.23.258 1.61-.211.183-.223.222-.227.519-.047.094.059.23.137.309.176.214.11.191.191-.168.555-.172.171-.36.34-.422.375-.184.097-.461.21-.52.21a.117.117 0 0 0-.082.04c-.117.19-1.816-.125-1.816-.336a.89.89 0 0 0-.113-.204.928.928 0 0 1-.114-.191c0-.016-.137-.309-.308-.652l-.309-.625.008-.29c.012-.347.191-.835.387-1.042.378-.414.484-.5.75-.625.37-.18 1.363-.32 1.472-.211m1.719.027c-.063.074-.066 4.094-.004 4.168.055.066 2.398.082 2.566.02.094-.036.094-.04.094-.47 0-.534.059-.5-.844-.51-.402-.005-.73-.024-.757-.044-.035-.027-.047-.39-.047-1.582 0-1.152-.012-1.555-.047-1.59-.067-.066-.906-.058-.961.008m2.95-.012c-.11.063-.102 4.141.003 4.196.133.07 2.61.05 2.684-.02.066-.066.086-.777.02-.879-.028-.047-.165-.054-.84-.054-.934 0-.891.015-.876-.36l.008-.277.836-.02c.98-.023.91.02.91-.508 0-.523.07-.484-.91-.503l-.836-.02-.012-.223a1.72 1.72 0 0 1 .012-.312l.024-.086h.816c.961 0 .89.035.902-.457.012-.567.149-.516-1.375-.516-.816 0-1.328.016-1.367.04m-21.347.179c1.07.504 1.175 1.918.19 2.598-.296.207-.519.258-1.085.258-.477 0-.484.011-.473.62.012.532.035.512-.515.497l-.407-.012-.007-2.004c-.008-1.105-.004-2.031.007-2.059.016-.039.207-.046 1.024-.039l1.004.016.262.125m2.148 1.906.008 2.035-.086.02c-.047.012-.254.02-.461.012l-.371-.012-.031-.223c-.04-.293-.016-3.773.023-3.836.023-.035.145-.046.469-.039l.437.012.012 2.031m5.777-1.867c.086.102.157.195.157.211 0 .016.043.082.101.148.059.07.14.184.188.25l.234.329c.082.113.148.226.148.25 0 .027.036.058.079.074.039.012.074.035.074.055 0 .05.152.285.39.593l.235.305c.078.105.105-.164.125-1.227l.02-1.152.406-.012c.554-.015.503-.152.507 1.367l.004 1.293-.172.364c-.632 1.332-.628 1.332-1.117.62-.406-.597-.426-.62-.594-.859a2.14 2.14 0 0 1-.207-.328c-.023-.054-.062-.101-.082-.101-.02 0-.074-.067-.12-.153-.048-.082-.098-.148-.114-.148a.502.502 0 0 1-.105-.164c-.082-.172-.207-.309-.301-.328-.051-.012-.059.152-.074 1.262l-.02 1.273-.406.012c-.27.008-.426-.004-.461-.032-.055-.046-.082-4.007-.027-4.062.015-.012.238-.024.503-.024h.477l.152.184m11.387-.144c.012.023.023.718.02 1.546-.004 1.235.003 1.52.046 1.579.051.066.102.07.77.062.914-.008.875-.027.867.422a3.098 3.098 0 0 1-.023.41c-.028.102-2.504.102-2.559 0-.05-.094-.055-3.89-.004-3.984.047-.086.832-.117.883-.035m4.688.39v.414l-.82.004c-.946.004-.895-.015-.907.38-.016.405-.063.386.86.386.96 0 .89-.035.878.453l-.011.39-.825.008c-.965.012-.922-.004-.914.38.008.445-.05.417.922.417h.836l-.008.422-.011.422-1.293.012c-.875.004-1.305-.004-1.332-.032-.04-.039-.036-3.992.003-4.058.012-.016.606-.024 1.32-.02l1.302.012v.41m-25.258.43-.094.023-.008.578c-.015.723-.039.688.48.672.47-.015.56-.058.7-.332.207-.406-.05-.941-.45-.937-.054 0-.015.031.114.094.41.187.476.668.14.992l-.132.129h-.383l-.387.004-.008-.59-.011-.59.125-.02c.066-.011.195-.027.289-.03.133-.013.12-.017-.055-.017a1.346 1.346 0 0 0-.32.024m4.781 2.14c0 .586.004.829.012.536.004-.293.004-.778 0-1.07-.008-.294-.012-.051-.012.535m8.836-.852c-.02.043-.086.191-.149.324-.183.371-.128.414.528.38.105-.005.113-.134.012-.333a1.19 1.19 0 0 1-.094-.223c0-.164-.246-.285-.297-.148m.27.258c.175.379.167.406-.114.406-.36 0-.379-.04-.21-.402.175-.375.152-.375.323-.004" fill-rule="evenodd"/></svg>
