<svg xmlns="http://www.w3.org/2000/svg" xmlns:xlink="http://www.w3.org/1999/xlink" width="50" zoomAndPan="magnify" viewBox="0 0 37.5 37.499999" height="50" preserveAspectRatio="xMidYMid meet" version="1.0"><defs><clipPath id="d2fc5d9aa8"><path d="M 0 0 L 37.007812 0 L 37.007812 37.007812 L 0 37.007812 Z M 0 0 " clip-rule="nonzero"/></clipPath><clipPath id="77aa19700f"><path d="M 0 14.828125 L 25 14.828125 L 25 22.328125 L 0 22.328125 Z M 0 14.828125 " clip-rule="nonzero"/></clipPath><clipPath id="c19946920b"><path d="M 24 14.828125 L 37.007812 14.828125 L 37.007812 22.328125 L 24 22.328125 Z M 24 14.828125 " clip-rule="nonzero"/></clipPath></defs><g clip-path="url(#d2fc5d9aa8)"><path fill="#ffffff" d="M 0 0 L 37.5 0 L 37.5 45 L 0 45 Z M 0 0 " fill-opacity="1" fill-rule="nonzero"/><path fill="#ffffff" d="M 0 0 L 37.5 0 L 37.5 37.5 L 0 37.5 Z M 0 0 " fill-opacity="1" fill-rule="nonzero"/><path fill="#ffffff" d="M 0 0 L 37.5 0 L 37.5 37.5 L 0 37.5 Z M 0 0 " fill-opacity="1" fill-rule="nonzero"/></g><g clip-path="url(#77aa19700f)"><path fill="#ed1b42" d="M 6.582031 22.261719 C 6.191406 22.261719 5.878906 22.199219 5.644531 22.074219 C 5.40625 21.953125 5.226562 21.78125 5.101562 21.566406 C 5.003906 21.40625 4.941406 21.25 4.90625 21.097656 C 4.875 20.945312 4.863281 20.753906 4.863281 20.527344 C 4.863281 20.304688 4.886719 20.027344 4.933594 19.699219 C 4.992188 19.328125 5.058594 18.957031 5.140625 18.589844 C 5.253906 18.078125 5.351562 17.648438 5.441406 17.300781 C 5.527344 16.953125 5.613281 16.664062 5.695312 16.433594 C 5.777344 16.203125 5.867188 16.011719 5.960938 15.867188 C 6.054688 15.722656 6.160156 15.59375 6.277344 15.480469 C 6.480469 15.285156 6.699219 15.140625 6.941406 15.050781 C 7.179688 14.960938 7.476562 14.914062 7.832031 14.914062 C 8.21875 14.914062 8.53125 14.976562 8.769531 15.101562 C 9.003906 15.226562 9.183594 15.394531 9.308594 15.609375 C 9.40625 15.773438 9.472656 15.929688 9.503906 16.078125 C 9.535156 16.230469 9.550781 16.421875 9.550781 16.648438 C 9.550781 16.871094 9.523438 17.148438 9.476562 17.476562 C 9.417969 17.851562 9.351562 18.21875 9.269531 18.589844 C 9.15625 19.105469 9.058594 19.539062 8.972656 19.878906 C 8.882812 20.222656 8.800781 20.511719 8.714844 20.742188 C 8.632812 20.976562 8.542969 21.164062 8.449219 21.308594 C 8.359375 21.449219 8.253906 21.578125 8.132812 21.695312 C 7.929688 21.894531 7.710938 22.035156 7.472656 22.125 C 7.230469 22.21875 6.933594 22.261719 6.582031 22.261719 Z M 10.570312 14.996094 L 11.964844 14.996094 L 10.488281 22.183594 L 9.089844 22.183594 Z M 12.617188 14.996094 L 13.753906 14.996094 L 14.503906 18.640625 L 15.199219 14.996094 L 16.597656 14.996094 L 15.117188 22.183594 L 14.035156 22.183594 L 13.273438 18.546875 L 12.535156 22.183594 L 11.136719 22.183594 Z M 18.082031 16.207031 L 16.894531 16.207031 L 17.144531 14.996094 L 20.917969 14.996094 L 20.667969 16.207031 L 19.480469 16.207031 L 18.25 22.183594 L 16.855469 22.183594 Z M 21.882812 22.261719 C 21.535156 22.261719 21.25 22.222656 21.03125 22.144531 C 20.8125 22.070312 20.628906 21.957031 20.476562 21.808594 C 20.226562 21.566406 20.101562 21.25 20.101562 20.859375 C 20.101562 20.652344 20.125 20.410156 20.171875 20.132812 L 21.570312 20.132812 C 21.554688 20.21875 21.546875 20.296875 21.539062 20.363281 C 21.53125 20.425781 21.527344 20.484375 21.527344 20.546875 C 21.527344 20.714844 21.566406 20.835938 21.640625 20.910156 C 21.683594 20.949219 21.734375 20.984375 21.792969 21.011719 C 21.851562 21.039062 21.921875 21.050781 22.007812 21.050781 C 22.09375 21.050781 22.183594 21.039062 22.265625 21.015625 C 22.34375 20.992188 22.417969 20.945312 22.484375 20.878906 C 22.5625 20.804688 22.621094 20.722656 22.65625 20.628906 C 22.695312 20.53125 22.730469 20.410156 22.765625 20.253906 C 22.789062 20.152344 22.800781 20.054688 22.808594 19.957031 C 22.816406 19.859375 22.820312 19.78125 22.820312 19.71875 C 22.820312 19.578125 22.777344 19.464844 22.695312 19.375 C 22.609375 19.289062 22.488281 19.207031 22.328125 19.132812 L 21.609375 18.800781 C 21.320312 18.664062 21.113281 18.5 20.992188 18.300781 C 20.871094 18.101562 20.808594 17.878906 20.808594 17.628906 C 20.808594 17.476562 20.816406 17.332031 20.828125 17.199219 C 20.84375 17.070312 20.867188 16.925781 20.902344 16.769531 C 20.957031 16.515625 21.035156 16.273438 21.132812 16.039062 C 21.230469 15.808594 21.359375 15.609375 21.527344 15.449219 C 21.699219 15.28125 21.898438 15.148438 22.121094 15.054688 C 22.34375 14.960938 22.636719 14.914062 23.007812 14.914062 C 23.359375 14.914062 23.640625 14.953125 23.851562 15.03125 C 24.058594 15.105469 24.238281 15.21875 24.390625 15.367188 C 24.503906 15.476562 24.585938 15.613281 24.640625 15.777344 C 24.699219 15.941406 24.726562 16.117188 24.726562 16.296875 C 24.726562 16.398438 24.722656 16.507812 24.714844 16.628906 C 24.707031 16.75 24.691406 16.882812 24.664062 17.023438 L 23.265625 17.023438 C 23.289062 16.921875 23.300781 16.835938 23.308594 16.765625 C 23.316406 16.695312 23.320312 16.632812 23.320312 16.578125 C 23.320312 16.410156 23.285156 16.292969 23.214844 16.226562 C 23.179688 16.195312 23.144531 16.171875 23.101562 16.152344 C 23.050781 16.128906 22.988281 16.117188 22.914062 16.117188 C 22.753906 16.117188 22.621094 16.164062 22.515625 16.265625 C 22.453125 16.328125 22.40625 16.40625 22.367188 16.507812 C 22.332031 16.59375 22.304688 16.683594 22.289062 16.769531 C 22.253906 16.941406 22.234375 17.085938 22.234375 17.214844 C 22.234375 17.445312 22.359375 17.613281 22.609375 17.71875 L 23.203125 17.992188 C 23.59375 18.167969 23.867188 18.351562 24.023438 18.546875 C 24.179688 18.742188 24.257812 18.996094 24.257812 19.304688 C 24.257812 19.445312 24.25 19.597656 24.238281 19.757812 C 24.222656 19.929688 24.195312 20.097656 24.164062 20.265625 C 24.128906 20.441406 24.085938 20.617188 24.03125 20.789062 C 23.988281 20.9375 23.9375 21.066406 23.886719 21.183594 C 23.839844 21.289062 23.78125 21.390625 23.714844 21.484375 C 23.652344 21.574219 23.582031 21.652344 23.507812 21.726562 C 23.320312 21.910156 23.105469 22.042969 22.855469 22.132812 C 22.609375 22.21875 22.285156 22.261719 21.882812 22.261719 Z M 4.980469 15.871094 C 4.921875 15.695312 4.824219 15.539062 4.6875 15.410156 C 4.539062 15.261719 4.363281 15.15625 4.160156 15.089844 C 3.964844 15.027344 3.699219 14.996094 3.363281 14.996094 L 1.480469 14.996094 L 0 22.183594 L 1.394531 22.183594 L 1.789062 20.261719 C 1.875 19.695312 0.953125 19.578125 0.953125 19.578125 L 2.613281 19.578125 C 2.925781 19.578125 3.207031 19.542969 3.457031 19.476562 C 3.710938 19.410156 3.933594 19.289062 4.125 19.117188 C 4.320312 18.945312 4.488281 18.714844 4.625 18.417969 C 4.765625 18.121094 4.882812 17.742188 4.980469 17.285156 C 5.007812 17.144531 5.03125 17.003906 5.042969 16.863281 C 5.054688 16.707031 5.0625 16.5625 5.0625 16.429688 C 5.0625 16.234375 5.035156 16.046875 4.980469 15.871094 Z M 3.628906 17.015625 C 3.613281 17.121094 3.597656 17.210938 3.582031 17.285156 C 3.507812 17.644531 3.410156 17.910156 3.292969 18.09375 C 3.171875 18.277344 2.972656 18.367188 2.6875 18.367188 L 2.175781 18.367188 L 2.625 16.207031 L 3.105469 16.207031 C 3.3125 16.207031 3.457031 16.25 3.535156 16.332031 C 3.617188 16.417969 3.65625 16.546875 3.65625 16.722656 C 3.65625 16.808594 3.648438 16.90625 3.628906 17.015625 Z M 6.714844 21.050781 C 6.8125 21.050781 6.894531 21.035156 6.964844 21 C 7.035156 20.96875 7.101562 20.917969 7.164062 20.859375 C 7.226562 20.800781 7.285156 20.71875 7.335938 20.617188 C 7.386719 20.515625 7.441406 20.378906 7.492188 20.203125 C 7.542969 20.027344 7.601562 19.808594 7.664062 19.546875 C 7.726562 19.285156 7.796875 18.964844 7.871094 18.589844 C 7.90625 18.414062 7.941406 18.234375 7.976562 18.054688 C 8.011719 17.871094 8.039062 17.695312 8.066406 17.527344 C 8.089844 17.359375 8.109375 17.203125 8.128906 17.054688 C 8.144531 16.90625 8.152344 16.777344 8.152344 16.671875 C 8.152344 16.503906 8.121094 16.371094 8.054688 16.273438 C 7.988281 16.175781 7.867188 16.125 7.695312 16.125 C 7.597656 16.125 7.515625 16.140625 7.445312 16.175781 C 7.371094 16.210938 7.304688 16.261719 7.246094 16.316406 C 7.183594 16.378906 7.128906 16.457031 7.074219 16.558594 C 7.023438 16.660156 6.972656 16.796875 6.917969 16.972656 C 6.855469 17.191406 6.796875 17.410156 6.746094 17.628906 C 6.683594 17.890625 6.613281 18.210938 6.539062 18.589844 C 6.503906 18.761719 6.46875 18.941406 6.433594 19.125 C 6.398438 19.304688 6.367188 19.480469 6.339844 19.648438 C 6.3125 19.804688 6.292969 19.964844 6.277344 20.121094 C 6.265625 20.269531 6.257812 20.398438 6.257812 20.507812 C 6.257812 20.675781 6.289062 20.808594 6.355469 20.90625 C 6.421875 21.003906 6.542969 21.050781 6.714844 21.050781 Z M 6.714844 21.050781 " fill-opacity="1" fill-rule="evenodd"/></g><g clip-path="url(#c19946920b)"><path fill="#000000" d="M 30.363281 14.996094 L 28.882812 22.183594 L 32.136719 22.183594 L 32.386719 20.96875 L 30.53125 20.96875 L 30.90625 19.132812 L 32.5 19.132812 L 32.75 17.921875 L 31.15625 17.921875 L 31.511719 16.207031 L 34.660156 16.207031 L 33.429688 22.183594 L 34.824219 22.183594 L 36.054688 16.207031 L 37.242188 16.207031 L 37.492188 14.996094 Z M 29.070312 15.480469 C 28.933594 15.296875 28.753906 15.171875 28.53125 15.101562 C 28.3125 15.03125 28.039062 14.996094 27.703125 14.996094 L 25.796875 14.996094 L 24.320312 22.179688 L 26.359375 22.179688 C 26.757812 22.179688 27.070312 22.152344 27.308594 22.097656 C 27.542969 22.039062 27.757812 21.925781 27.953125 21.757812 C 28.046875 21.675781 28.128906 21.585938 28.199219 21.484375 C 28.277344 21.375 28.347656 21.253906 28.402344 21.132812 C 28.464844 20.996094 28.523438 20.84375 28.574219 20.671875 C 28.625 20.5 28.675781 20.300781 28.726562 20.070312 C 28.761719 19.917969 28.78125 19.777344 28.792969 19.652344 C 28.804688 19.527344 28.808594 19.417969 28.808594 19.316406 C 28.808594 19.058594 28.746094 18.847656 28.621094 18.679688 C 28.582031 18.628906 28.542969 18.585938 28.496094 18.542969 C 28.445312 18.496094 28.390625 18.460938 28.328125 18.425781 C 28.40625 18.398438 28.480469 18.359375 28.546875 18.316406 C 28.609375 18.277344 28.667969 18.230469 28.726562 18.183594 C 28.898438 18.035156 29.019531 17.867188 29.089844 17.679688 C 29.160156 17.492188 29.21875 17.28125 29.265625 17.054688 C 29.300781 16.90625 29.324219 16.773438 29.335938 16.660156 C 29.34375 16.546875 29.351562 16.453125 29.351562 16.378906 C 29.351562 16.019531 29.257812 15.722656 29.070312 15.480469 Z M 27.339844 20.023438 C 27.3125 20.167969 27.269531 20.3125 27.21875 20.457031 C 27.175781 20.578125 27.117188 20.675781 27.054688 20.75 C 26.988281 20.824219 26.902344 20.878906 26.804688 20.914062 C 26.703125 20.953125 26.574219 20.96875 26.421875 20.96875 L 25.964844 20.96875 L 26.230469 19.6875 C 26.316406 19.121094 25.394531 19.003906 25.394531 19.003906 L 26.828125 19.003906 C 27.03125 19.003906 27.175781 19.042969 27.265625 19.128906 C 27.355469 19.210938 27.402344 19.347656 27.402344 19.539062 C 27.402344 19.671875 27.382812 19.832031 27.339844 20.023438 Z M 27.871094 17.054688 C 27.816406 17.328125 27.726562 17.53125 27.601562 17.660156 C 27.476562 17.789062 27.273438 17.851562 26.996094 17.851562 L 26.601562 17.851562 L 26.945312 16.207031 L 27.382812 16.207031 C 27.597656 16.207031 27.742188 16.246094 27.8125 16.328125 C 27.886719 16.40625 27.921875 16.523438 27.921875 16.671875 C 27.921875 16.769531 27.90625 16.898438 27.871094 17.054688 Z M 27.871094 17.054688 " fill-opacity="1" fill-rule="evenodd"/></g></svg>