<svg id="sport_logo" xmlns="http://www.w3.org/2000/svg"
	xmlns:xlink="http://www.w3.org/1999/xlink" viewBox="0 0 300 300">
    <g fill="orange">
        <path  opacity="0.88" d="M85.05,114.6c-9.75-9.75-21.3-14.55-35.1-14.55c-13.8,0-25.5,4.8-35.4,14.55C4.8,124.35,0,136.05,0,149.85
        s4.95,25.5,14.55,35.25c9.75,9.75,21.45,14.55,35.25,14.55s25.5-4.95,35.25-14.55c9.15-9.15,13.95-19.95,14.55-32.55
        c0-0.9,0-1.8,0-2.7c0-0.45,0-0.9,0-1.35C99.3,135.3,94.5,124.05,85.05,114.6z M64.35,163.95c-3.9,3.9-8.85,5.85-14.4,5.85
        S39.9,167.85,36,163.95c-3.9-3.9-5.85-8.55-5.85-14.1c0-5.55,1.95-10.2,5.85-14.1c3.75-3.9,8.55-5.85,14.1-5.85
        c5.55,0,10.2,1.95,14.25,5.85c3.9,3.9,5.85,8.55,5.85,14.1C70.2,155.4,68.25,160.05,64.35,163.95z" />
        <path opacity="0.88" d="M185.25,114.6c-9.75-9.75-21.3-14.55-35.1-14.55c-13.8,0-25.65,4.8-35.4,14.55
        c-9.75,9.75-14.55,21.45-14.55,35.25s4.8,25.5,14.55,35.25s21.6,14.55,35.4,14.55c13.8,0,25.35-4.95,35.1-14.55
        c9.15-9.15,13.95-19.95,14.55-32.55c0-0.9,0-1.8,0-2.7c0-0.45,0-0.9,0-1.35C199.5,135.3,194.7,124.05,185.25,114.6z M164.4,163.95
        c-3.9,3.9-8.7,5.85-14.25,5.85c-5.55,0-10.2-1.95-14.1-5.85c-3.9-3.9-5.85-8.55-5.85-14.1c0-5.55,1.95-10.2,5.85-14.1
        c3.9-3.9,8.55-5.85,14.1-5.85c5.55,0,10.35,1.95,14.25,5.85c3.9,3.9,5.85,8.55,5.85,14.1C170.25,155.4,168.3,160.05,164.4,163.95z" />
        <path opacity="0.88" d="M285.45,114.6c-9.75-9.75-21.45-14.55-35.1-14.55c-13.65,0-25.65,4.8-35.4,14.55
        c-9.75,9.75-14.55,21.45-14.55,35.25s4.8,25.5,14.55,35.25s21.6,14.55,35.4,14.55c13.8,0,25.5-4.95,35.1-14.55
        c9.15-9.15,13.95-19.95,14.55-32.55c0-0.9,0-1.8,0-2.7c0-0.45,0-0.9,0-1.35C299.7,135.3,294.9,124.05,285.45,114.6z M264.6,163.95
        c-3.9,3.9-8.7,5.85-14.4,5.85c-5.55,0-10.05-1.95-13.95-5.85s-5.85-8.55-5.85-14.1c0-5.55,1.95-10.2,5.85-14.1
        c3.9-3.9,8.4-5.7,13.95-5.7s10.35,1.8,14.4,5.7c4.05,3.9,5.85,8.55,5.85,14.1C270.45,155.4,268.5,160.05,264.6,163.95z" />
        <path opacity="0.88" d="M85.05,45C75.3,35.25,63.6,30.45,49.8,30.45S24.3,35.25,14.55,45S0,66.45,0,80.25s4.95,25.5,14.55,35.25
        c9.75,9.75,21.45,14.4,35.25,14.4s25.5-4.65,35.25-14.4C94.2,106.35,99,95.4,99.6,82.95c0-0.9,0-1.8,0-2.7c0-0.45,0-0.9,0-1.35
        C99.3,65.7,94.5,54.45,85.05,45z M64.2,94.35c-3.9,3.9-8.85,5.85-14.4,5.85s-10.05-1.95-13.95-5.85c-3.9-3.9-5.85-8.55-5.85-14.1
        s1.95-10.2,5.85-14.1c3.9-3.9,8.55-5.85,13.95-5.85c5.55,0,10.5,1.95,14.4,5.85c3.9,3.9,5.85,8.55,5.85,14.1S68.1,90.45,64.2,94.35
        z" />
        <path opacity="0.88" d="M185.25,45c-9.75-9.75-21.3-14.55-35.1-14.55c-13.8,0-25.65,4.8-35.4,14.55S100.2,66.45,100.2,80.25
        s4.8,25.5,14.55,35.25c9.75,9.75,21.6,14.4,35.4,14.4c13.8,0,25.35-4.65,35.1-14.4c9.15-9.15,13.95-20.1,14.55-32.55
        c0-0.9,0-1.8,0-2.7c0-0.45,0-0.9,0-1.35C199.5,65.7,194.7,54.45,185.25,45z M164.4,94.35c-3.9,3.9-8.7,5.85-14.25,5.85
        c-5.55,0-10.2-1.95-14.1-5.85c-3.9-3.9-5.85-8.55-5.85-14.1s1.95-10.2,5.85-14.1c3.9-3.9,8.55-5.85,14.1-5.85
        c5.55,0,10.35,1.95,14.25,5.85c3.9,3.9,5.85,8.55,5.85,14.1S168.3,90.45,164.4,94.35z" />
        <path opacity="0.88" d="M285.45,45c-9.75-9.75-21.45-14.55-35.1-14.55c-13.65,0-25.5,4.8-35.4,14.55S200.4,66.45,200.4,80.25
        s4.8,25.5,14.55,35.25c9.75,9.75,21.6,14.55,35.4,14.55c13.8,0,25.5-4.95,35.1-14.55c9.15-9.15,13.95-20.1,14.55-32.55
        c0-1.05,0-1.8,0-2.7c0-0.45,0-0.9,0-1.35C299.7,65.7,294.9,54.45,285.45,45z M264.6,94.35c-3.9,3.9-8.7,5.85-14.4,5.85
        c-5.55,0-10.05-1.95-13.95-5.85c-3.9-3.9-5.85-8.55-5.85-14.1s1.95-10.2,5.85-14.1c3.9-3.9,8.4-5.85,13.95-5.85
        c5.55,0,10.5,1.95,14.4,5.85c3.9,3.9,5.85,8.55,5.85,14.1S268.5,90.45,264.6,94.35z" />
        <path d="M112.2,248.4l3.45-6.15c2.85,2.55,7.2,5.1,12.15,5.25c3.9,0,6.45-1.35,6.45-3.9c0-1.65-1.35-3-4.8-4.2
        c-11.1-4.05-14.4-6.9-14.4-12.9c0-6.45,6-10.95,14.1-10.8c5.55,0.15,9.6,2.4,12,4.35l-2.4,6.9c-1.8-1.35-6.6-3.9-9.75-3.9
        c-2.4,0-5.1,0.75-5.1,3.15c0,2.1,1.95,3.3,6,4.95c7.35,3.15,12.6,5.55,12.75,12c0,6.9-5.7,11.4-14.85,11.55
        C120.3,254.55,114.45,250.95,112.2,248.4z" />
        <path d="M170.1,215.55c-5.7,0-9.9,2.55-12.3,6.6v-5.85h-8.7v53.25h8.7v-21.9c2.4,4.05,6.45,6.6,12.3,6.6
        c11.1,0,18.6-8.25,18.6-19.35C188.7,223.95,181.35,215.7,170.1,215.55z M169.2,245.85c-5.85,0-10.5-4.5-10.5-10.95v-0.15
        c0-6.45,4.8-10.8,10.65-10.8c6,0,10.5,4.35,10.5,10.8C179.85,241.35,175.2,245.85,169.2,245.85z" />
        <path d="M214.35,215.55c-11.1,0-19.35,8.4-19.35,19.35c0,11.1,8.25,19.2,19.35,19.2c11.1,0,19.35-8.25,19.35-19.2
        v-0.15C233.7,223.65,225.3,215.55,214.35,215.55z M214.35,245.7c-5.85,0-10.65-4.35-10.65-10.8v-0.15c0-6.45,4.65-10.95,10.5-10.95
        c6,0,10.65,4.5,10.65,11.1C224.85,241.35,220.35,245.85,214.35,245.7z" />
        <path d="M240.9,216.3h8.7v7.5c2.55-5.1,7.2-7.95,12.75-7.95v8.25h-1.05c-6.15,0-11.7,4.95-11.7,10.5v18.75h-8.7V216.3z
        " />
        <path d="M272.55,243.15v-18.6h-4.8v-8.25h4.8v-10.35h8.7v10.35h10.35v8.25h-10.35v16.8c0,3.15,1.8,4.8,4.5,4.8
        c1.8,0,3.9-0.3,5.85-0.9v7.2c-1.95,1.05-5.4,1.8-8.1,1.8C276.75,254.25,272.55,250.65,272.55,243.15z" />
    </g>
</svg>
