<svg xmlns="http://www.w3.org/2000/svg" width="120" height="91"><path fill-rule="evenodd" fill="#316094" d="M33.655 73.619c11.637 0 19.792-6.175 19.792-16.546v-.158c0-9.183-6.1-13.379-17.812-16.229-10.608-2.533-13.142-4.433-13.142-8.708v-.159c0-3.642 3.325-6.571 9.025-6.571 5.067 0 10.054 1.979 15.042 5.7l5.225-7.363a30.717 30.717 0 0 0-20.108-6.967c-11 0-18.921 6.571-18.921 16.071v.158c0 10.212 6.65 13.7 18.446 16.546 10.292 2.375 12.508 4.512 12.508 8.471v.158c0 4.2-3.8 6.967-9.817 6.967-6.887 0-12.192-2.612-17.5-7.2l-5.858 6.967a34.136 34.136 0 0 0 23.12 8.863Zm27.313-.792H70.7V49.473h26.446v23.355h9.738V17.411h-9.738v23.037H70.7V17.411h-9.733v55.417Z"/><path fill="#316094" d="M0 85h120v6H0z"/><path data-name="Rectangle 4 copy" fill="#316094" d="M0 0h120v6H0z"/></svg>