<svg xmlns="http://www.w3.org/2000/svg" xmlns:xlink="http://www.w3.org/1999/xlink" width="50" zoomAndPan="magnify" viewBox="0 0 37.5 37.499999" height="50" preserveAspectRatio="xMidYMid meet" version="1.0"><defs><clipPath id="62e538e1ee"><path d="M 0 0 L 37.007812 0 L 37.007812 37.007812 L 0 37.007812 Z M 0 0 " clip-rule="nonzero"/></clipPath><clipPath id="811290b8ec"><path d="M 0 32 L 37.007812 32 L 37.007812 34.585938 L 0 34.585938 Z M 0 32 " clip-rule="nonzero"/></clipPath><clipPath id="2ede63ffcf"><path d="M 0 3.085938 L 37.007812 3.085938 L 37.007812 6 L 0 6 Z M 0 3.085938 " clip-rule="nonzero"/></clipPath></defs><g clip-path="url(#62e538e1ee)"><path fill="#ffffff" d="M 0 0 L 37.5 0 L 37.5 45 L 0 45 Z M 0 0 " fill-opacity="1" fill-rule="nonzero"/><path fill="#ffffff" d="M 0 0 L 37.5 0 L 37.5 37.5 L 0 37.5 Z M 0 0 " fill-opacity="1" fill-rule="nonzero"/><path fill="#ffffff" d="M 0 0 L 37.5 0 L 37.5 37.5 L 0 37.5 Z M 0 0 " fill-opacity="1" fill-rule="nonzero"/></g><path fill="#316094" d="M 9.660156 28.570312 C 13.660156 28.570312 16.464844 26.433594 16.464844 22.84375 L 16.464844 22.789062 C 16.464844 19.609375 14.367188 18.15625 10.339844 17.171875 C 6.695312 16.292969 5.824219 15.636719 5.824219 14.15625 L 5.824219 14.101562 C 5.824219 12.839844 6.96875 11.828125 8.925781 11.828125 C 10.667969 11.828125 12.382812 12.511719 14.097656 13.800781 L 15.894531 11.25 C 14.921875 10.449219 13.839844 9.839844 12.652344 9.421875 C 11.460938 9.007812 10.238281 8.8125 8.980469 8.839844 C 5.199219 8.839844 2.476562 11.113281 2.476562 14.402344 L 2.476562 14.457031 C 2.476562 17.992188 4.761719 19.199219 8.816406 20.183594 C 12.355469 21.007812 13.117188 21.746094 13.117188 23.117188 L 13.117188 23.171875 C 13.117188 24.625 11.8125 25.582031 9.742188 25.582031 C 7.375 25.582031 5.550781 24.679688 3.726562 23.089844 L 1.714844 25.503906 C 2.800781 26.496094 4.03125 27.257812 5.402344 27.789062 C 6.773438 28.316406 8.191406 28.578125 9.660156 28.570312 Z M 19.050781 28.296875 L 22.394531 28.296875 L 22.394531 20.210938 L 31.484375 20.210938 L 31.484375 28.296875 L 34.832031 28.296875 L 34.832031 9.113281 L 31.484375 9.113281 L 31.484375 17.089844 L 22.394531 17.089844 L 22.394531 9.113281 L 19.050781 9.113281 Z M 19.050781 28.296875 " fill-opacity="1" fill-rule="evenodd"/><g clip-path="url(#811290b8ec)"><path fill="#316094" d="M -1.90625 32.511719 L 39.339844 32.511719 L 39.339844 34.585938 L -1.90625 34.585938 Z M -1.90625 32.511719 " fill-opacity="1" fill-rule="nonzero"/></g><g clip-path="url(#2ede63ffcf)"><path fill="#316094" d="M -1.90625 3.085938 L 39.339844 3.085938 L 39.339844 5.164062 L -1.90625 5.164062 Z M -1.90625 3.085938 " fill-opacity="1" fill-rule="nonzero"/></g></svg>