<svg version="1.0" xmlns="http://www.w3.org/2000/svg" width="186.667" height="186.667" viewBox="0 0 140 140"><path d="M0 70v70h140V0H0v70zm137.3-17.4c.3.3-1 4.3-2.9 8.8l-3.5 8.3 3.6 9.8c1.9 5.3 3.3 10.1 3 10.5-.8 1.3-5.5-.2-5.6-1.9 0-.9-.9-3.4-1.9-5.6l-1.9-4v5.2c-.1 5-.3 5.3-2.6 5.3H123V71.5c0-10 .4-17.5.9-17.5s1.6-.3 2.5-.6c1.3-.5 1.6.3 1.7 4.7 0 3 .3 4.7.6 3.9 3-7.6 4.4-10 6.1-10 1 0 2.1.3 2.5.6zM14.4 55.2c.9 1.2 1.6 4.2 1.6 6.5 0 3.9-.2 4.3-2.5 4.3s-2.5-.4-2.5-4.5c0-3.3-.4-4.5-1.5-4.5S8 58.2 8 61.6c0 4 .5 5.1 4 8.6 3.7 3.8 4 4.5 4 9.7 0 6.2-.5 7.3-3.7 9-5.6 2.9-9.3-.3-9.3-8.1 0-2.7.4-4.8.9-4.8s1.6-.3 2.5-.6c1.3-.5 1.6.2 1.6 4.5 0 3.9.4 5.1 1.5 5.1s1.5-1.2 1.5-4.6c0-4.1-.5-5.3-4-9-3.6-4-4-4.8-4-9.8C3 55.1 4.6 53 9.5 53c2.4 0 3.9.7 4.9 2.2zm8.4 14c.2 12.3.5 14.8 1.7 14.8 1.3 0 1.5-2.4 1.5-14.5V55h5v14.3c0 16.8-.7 18.7-7 18.7-2.9 0-4.2-.5-5-1.9-.5-1.1-1-8.6-1-17.1 0-15.1 0-15.1 2.3-14.8 2.2.3 2.2.6 2.5 15zM119 56c1.8 1.8 2 3.3 2 15.1 0 7.2-.5 13.9-1 15-1.5 2.7-8 2.6-10.6-.2-1.5-1.7-2-4-2.2-12.3-.4-12.1.5-16.6 3.9-18.3 3.4-1.8 5.6-1.6 7.9.7zm-74.4 2.1c1.4 1.5 1.9 3.5 1.8 7.1-.1 5.3-.9 6.4-5.6 7.5-2.7.5-2.8.7-2.8 7.4s-.1 6.9-2.5 6.9H33V56h4.8c3.7 0 5.4.5 6.8 2.1zm15.2.7c-.2 1.1-1.5 1.8-3.6 2-3 .3-3.2.6-3.2 4.3 0 3.5.3 3.9 2.5 3.9 1.8 0 2.5.5 2.5 2s-.7 2-2.5 2c-2.3 0-2.5.4-2.5 4.5 0 4.5 0 4.5 3.5 4.5 2.8 0 3.5.4 3.5 2 0 1.8-.7 2-5.9 2h-5.9l-.1-14.2c0-7.8.2-14.4.4-14.7.1-.3 2.8-.4 6-.3 4.6.3 5.6.7 5.3 2zm30.1.1c.5.9.9 6.9 1 13.3 0 13.5-.1 13.8-8.8 13.8H77V57.1l4.3-.3c5.5-.4 7.6.1 8.6 2.1zm14.9-1.7c.8.8 1.2 5.4 1.2 13.9 0 14.3-.7 15.9-6.4 15.9-6.5 0-7.1-1.4-7.1-15.3 0-9 .4-12.8 1.4-14 1.6-2 9.1-2.3 10.9-.5zm-31.3 1.5c1.3 1.3 1.5 2.8 1.1 7.2-.9 8.2-.9 11.1-.1 15.9.7 4 .7 4.2-1.6 3.9-1.9-.3-2.5-1.4-3.7-6.6-.8-3.5-1.7-6-2-5.6-.4.3-.7 3.2-.7 6.3-.1 5.1-.4 5.7-2.3 6-2.2.3-2.2.2-2.2-14.2V57h4.9c3.3 0 5.5.6 6.6 1.7z"/><path d="M113 70.9c0 10.2.2 12.1 1.5 12.1s1.5-1.7 1.3-11.7c-.2-8.2-.7-11.8-1.5-12.1-1-.3-1.3 2.5-1.3 11.7zM38 64.5c0 3.9.3 4.6 1.8 4.3 1.3-.2 1.7-1.3 1.7-4.3s-.4-4.1-1.7-4.3c-1.5-.3-1.8.4-1.8 4.3zM83 65c0 2.9.4 4 1.3 3.7.6-.2 1.2-1.9 1.2-3.7 0-1.8-.6-3.5-1.2-3.8-.9-.2-1.3.9-1.3 3.8zM83 77.6c0 5.9 2.4 5.5 2.8-.4.2-3.3 0-4.2-1.2-4.2S83 74.1 83 77.6zM98 71c0 9.1.3 11 1.5 11s1.5-1.9 1.5-11-.3-11-1.5-11S98 61.9 98 71zM66.4 63.4c-.8 3.5-.1 6 1.9 6.4 1.4.3 1.7-.4 1.7-4.2 0-3.4-.4-4.6-1.5-4.6-.8 0-1.7 1.1-2.1 2.4z"/></svg>
