<svg id="svg" version="1.1" xmlns="http://www.w3.org/2000/svg" xmlns:xlink="http://www.w3.org/1999/xlink" width="400" height="400.39100684261973" viewBox="0, 0, 400,400.39100684261973"><g id="svgg"><path id="path0" d="M4.627 131.428 C 4.312 131.658,4.295 133.314,4.346 157.968 L 4.401 184.262 4.839 186.186 C 9.777 207.881,33.811 217.700,52.193 205.533 C 58.703 201.223,63.088 194.749,65.142 186.413 L 65.575 184.653 65.637 158.040 L 65.699 131.426 65.254 131.307 C 64.125 131.005,45.198 131.175,44.882 131.490 C 44.606 131.766,44.575 134.311,44.572 156.563 C 44.571 177.405,44.526 181.496,44.291 182.379 C 42.060 190.761,30.668 192.179,26.617 184.578 C 25.355 182.212,25.415 183.630,25.415 156.357 L 25.415 131.564 24.914 131.373 C 24.114 131.069,5.047 131.121,4.627 131.428 M81.411 131.390 C 81.061 131.493,80.712 131.778,80.580 132.069 C 80.335 132.606,80.230 207.667,80.473 208.300 C 80.801 209.154,81.208 209.189,90.914 209.189 L 100.128 209.189 100.699 208.617 L 101.271 208.046 101.282 185.792 L 101.293 163.539 101.784 164.614 C 102.422 166.009,110.636 184.781,112.219 188.458 C 112.888 190.014,113.636 191.729,113.881 192.271 C 114.126 192.812,114.830 194.399,115.447 195.797 C 116.063 197.195,117.381 200.186,118.377 202.444 C 119.372 204.702,120.386 207.016,120.630 207.585 C 121.359 209.290,120.727 209.206,132.471 209.145 L 142.752 209.091 143.126 208.629 C 143.552 208.103,143.731 132.762,143.308 131.973 C 142.918 131.244,142.142 131.183,133.236 131.183 C 124.330 131.183,123.553 131.244,123.163 131.973 C 123.042 132.199,122.972 139.506,122.972 151.893 C 122.972 162.653,122.906 171.455,122.825 171.454 C 122.744 171.452,121.694 169.143,120.491 166.322 C 111.386 144.973,105.753 132.077,105.357 131.672 C 104.936 131.241,82.797 130.981,81.411 131.390 M158.984 131.371 C 157.914 131.839,157.967 129.843,157.967 170.150 C 157.967 208.676,157.961 208.376,158.756 208.802 C 159.555 209.229,178.055 209.042,178.495 208.602 C 178.883 208.214,178.886 207.950,178.886 170.193 L 178.886 132.176 178.458 131.777 C 178.058 131.405,177.783 131.378,174.286 131.378 C 172.227 131.378,168.043 131.333,164.988 131.277 C 161.471 131.213,159.268 131.247,158.984 131.371 M194.505 131.409 C 193.509 131.758,193.548 130.145,193.548 170.390 C 193.548 207.950,193.551 208.214,193.939 208.602 C 194.477 209.140,234.419 209.221,237.461 208.691 C 256.222 205.419,263.367 182.347,249.802 168.844 L 247.865 166.916 248.436 166.302 C 248.751 165.965,249.210 165.469,249.456 165.200 C 259.877 153.829,252.768 134.349,237.186 131.577 C 235.638 131.302,195.267 131.143,194.505 131.409 M269.049 131.308 C 267.753 131.597,267.849 128.490,267.843 170.315 L 267.836 207.990 268.278 208.491 L 268.719 208.991 296.546 209.041 L 324.374 209.091 324.748 208.629 C 325.103 208.192,325.122 207.760,325.122 200.286 L 325.122 192.404 324.607 191.999 C 324.095 191.595,324.002 191.593,306.425 191.593 L 288.759 191.593 288.759 184.751 L 288.759 177.908 298.402 177.908 L 308.045 177.908 308.470 177.456 C 308.893 177.005,309.169 162.232,308.774 161.201 C 308.446 160.346,308.052 160.313,298.149 160.313 L 288.753 160.313 288.804 154.594 L 288.856 148.876 305.517 148.876 L 322.177 148.876 322.623 148.431 L 323.069 147.986 323.125 140.168 L 323.180 132.351 322.694 131.865 L 322.207 131.378 299.471 131.378 C 286.966 131.377,275.108 131.339,273.118 131.292 C 271.129 131.245,269.298 131.252,269.049 131.308 M335.884 131.413 C 334.913 131.773,334.897 131.907,334.897 140.100 C 334.897 147.347,334.917 147.782,335.271 148.219 L 335.645 148.680 345.144 148.735 L 354.643 148.789 354.643 178.466 L 354.643 208.143 355.083 208.543 C 355.957 209.337,375.363 209.356,376.000 208.563 C 376.026 208.531,376.092 195.088,376.147 178.690 L 376.246 148.876 385.963 148.778 C 393.563 148.702,395.735 148.625,395.934 148.427 C 396.218 148.143,396.510 133.219,396.248 132.415 C 395.896 131.337,397.689 131.400,365.724 131.338 C 349.509 131.306,336.081 131.340,335.884 131.413 M232.195 147.482 C 235.649 149.396,236.130 153.861,233.170 156.522 C 231.591 157.942,231.399 157.967,222.056 157.967 L 213.881 157.967 213.881 152.387 L 213.881 146.808 222.532 146.864 L 231.183 146.921 232.195 147.482 M232.698 175.014 C 237.751 177.382,239.022 184.130,235.160 188.094 C 232.829 190.487,232.162 190.616,222.051 190.616 L 213.881 190.616 213.881 182.495 L 213.881 174.374 222.727 174.430 L 231.574 174.487 232.698 175.014 " stroke="none" fill="#040404" fill-rule="evenodd"></path><path id="path1" d="M0.000 200.196 L 0.000 400.391 200.000 400.391 L 400.000 400.391 400.000 200.196 L 400.000 0.000 200.000 0.000 L 0.000 0.000 0.000 200.196 M25.355 131.427 C 25.442 131.562,25.557 143.065,25.611 156.989 L 25.709 182.307 26.168 183.446 C 29.098 190.707,39.165 191.541,43.114 184.848 C 44.576 182.373,44.462 184.571,44.573 156.500 L 44.673 131.281 55.230 131.281 L 65.787 131.281 65.787 157.869 C 65.787 187.391,65.874 185.257,64.489 189.541 C 61.963 197.353,55.647 204.544,48.279 207.997 C 29.390 216.849,7.511 205.083,4.405 184.402 C 4.008 181.758,3.947 131.811,4.340 131.417 C 4.688 131.070,25.130 131.080,25.355 131.427 M105.438 131.464 C 105.633 131.612,107.596 135.943,109.799 141.087 C 112.002 146.231,115.329 153.959,117.192 158.260 C 119.055 162.561,121.052 167.175,121.629 168.514 L 122.678 170.948 122.776 151.439 L 122.874 131.930 123.335 131.556 C 124.076 130.957,142.424 130.978,143.069 131.579 C 143.729 132.194,143.708 130.772,143.651 170.620 L 143.597 208.396 143.152 208.841 L 142.707 209.286 132.175 209.286 C 119.739 209.286,121.393 209.802,119.456 205.317 C 117.444 200.659,116.687 198.930,111.821 187.879 C 107.309 177.633,105.689 173.928,102.973 167.648 L 101.369 163.938 101.319 186.156 L 101.269 208.373 100.662 208.884 L 100.055 209.395 90.600 209.341 L 81.145 209.286 80.699 208.841 L 80.254 208.396 80.203 170.522 C 80.149 130.925,80.131 131.836,81.001 131.415 C 81.707 131.074,104.985 131.121,105.438 131.464 M178.601 131.663 L 179.081 132.143 179.081 170.150 L 179.081 208.158 178.676 208.674 L 178.271 209.189 168.599 209.189 L 158.927 209.189 158.447 208.709 L 157.967 208.229 157.967 170.186 L 157.967 132.143 158.447 131.663 L 158.927 131.183 168.524 131.183 L 178.121 131.183 178.601 131.663 M236.852 131.387 C 253.127 133.721,260.244 154.165,248.909 166.021 L 248.032 166.939 249.534 168.342 C 263.656 181.530,256.641 205.260,237.549 208.881 C 236.140 209.149,233.223 209.189,215.121 209.189 L 194.313 209.189 193.833 208.709 L 193.353 208.229 193.353 170.186 L 193.353 132.143 193.833 131.663 L 194.313 131.183 214.898 131.187 C 227.616 131.189,236.007 131.266,236.852 131.387 M322.716 131.654 L 323.265 132.126 323.325 139.621 C 323.366 144.754,323.316 147.352,323.166 147.865 C 322.756 149.264,323.582 149.209,305.255 149.052 L 288.948 148.912 289.000 154.504 L 289.052 160.097 298.631 160.218 L 308.211 160.339 308.651 160.826 L 309.091 161.312 309.091 169.228 L 309.091 177.144 308.611 177.624 L 308.131 178.104 298.555 178.104 L 288.979 178.104 288.912 180.205 C 288.874 181.361,288.847 184.330,288.850 186.804 L 288.856 191.300 306.549 191.354 C 323.641 191.406,324.259 191.421,324.731 191.783 L 325.220 192.157 325.275 200.193 L 325.330 208.229 324.753 208.806 L 324.175 209.384 312.381 209.384 C 284.478 209.384,268.664 209.159,268.233 208.758 C 267.842 208.393,267.840 208.215,267.840 170.267 L 267.840 132.143 268.320 131.663 L 268.799 131.183 295.484 131.183 L 322.168 131.183 322.716 131.654 M392.170 131.312 C 395.413 131.430,395.777 131.478,396.112 131.838 C 396.687 132.455,396.683 147.703,396.107 148.414 L 395.734 148.876 386.088 148.974 L 376.442 149.071 376.344 178.734 L 376.246 208.396 375.800 208.841 L 375.354 209.286 365.536 209.225 C 355.596 209.163,355.014 209.120,354.731 208.428 C 354.661 208.255,354.617 194.809,354.635 178.549 L 354.668 148.984 345.157 148.930 L 335.645 148.876 335.174 148.327 L 334.702 147.779 334.702 139.998 L 334.702 132.217 335.181 131.700 L 335.661 131.183 362.129 131.183 C 376.687 131.183,390.206 131.241,392.170 131.312 M214.076 152.395 L 214.076 157.771 222.434 157.769 C 230.778 157.767,230.793 157.767,231.769 157.311 C 235.240 155.692,236.000 151.005,233.202 148.478 C 231.562 146.996,231.794 147.028,222.434 147.023 L 214.076 147.019 214.076 152.395 M214.076 182.393 L 214.076 190.420 222.239 190.418 C 232.314 190.415,232.789 190.321,235.064 187.889 C 238.809 183.886,237.646 177.672,232.693 175.223 L 231.204 174.487 222.640 174.427 L 214.076 174.367 214.076 182.393 M100.258 230.331 C 113.225 232.728,120.363 247.300,114.467 259.335 C 108.914 270.669,94.022 274.108,84.235 266.317 C 69.805 254.831,76.408 232.195,94.819 230.032 C 95.768 229.920,98.998 230.098,100.258 230.331 M142.229 230.401 C 155.664 233.161,162.402 248.961,155.204 260.826 C 145.893 276.174,122.857 272.603,118.523 255.140 C 114.930 240.665,127.638 227.403,142.229 230.401 M182.146 230.118 C 198.884 232.371,205.574 253.376,193.275 265.058 C 180.472 277.220,159.548 268.173,159.465 250.440 C 159.406 237.879,169.907 228.470,182.146 230.118 M225.340 230.377 C 240.847 233.725,246.552 253.352,235.294 264.622 C 222.497 277.434,201.103 268.506,201.080 250.342 C 201.062 237.139,212.617 227.630,225.340 230.377 M267.351 230.485 C 290.338 236.379,286.253 270.478,262.561 270.472 C 237.515 270.466,235.299 233.794,260.117 230.032 C 261.503 229.822,265.820 230.093,267.351 230.485 M309.189 230.580 C 324.080 234.428,329.336 253.387,318.573 264.428 C 308.249 275.019,290.652 271.480,285.357 257.748 C 279.363 242.204,293.187 226.444,309.189 230.580 " stroke="none" fill="#fbfbfb" fill-rule="evenodd"></path><path id="path2" d="M178.397 230.429 C 177.537 230.583,176.569 230.703,176.246 230.696 C 175.536 230.681,174.205 231.064,173.803 231.399 C 173.641 231.533,173.157 231.671,172.727 231.706 C 172.140 231.754,171.951 231.850,171.970 232.096 C 171.984 232.287,171.890 232.383,171.743 232.326 C 171.605 232.273,171.198 232.382,170.839 232.567 C 170.227 232.884,170.203 232.884,170.463 232.571 C 170.719 232.262,170.700 232.255,170.213 232.477 C 169.852 232.641,169.761 232.764,169.926 232.865 C 170.090 232.966,169.968 233.126,169.542 233.369 C 169.198 233.564,168.917 233.788,168.916 233.865 C 168.916 233.942,168.761 233.948,168.573 233.877 C 168.273 233.765,168.264 233.790,168.499 234.079 C 168.805 234.455,168.670 234.500,168.117 234.205 C 167.835 234.054,167.750 234.062,167.788 234.238 C 167.816 234.368,167.657 234.570,167.433 234.687 C 167.209 234.805,167.059 235.000,167.100 235.122 C 167.141 235.244,166.928 235.528,166.627 235.754 C 166.326 235.979,165.950 236.275,165.792 236.410 C 165.633 236.546,165.398 236.632,165.269 236.603 C 165.140 236.573,164.979 236.638,164.912 236.747 C 164.838 236.866,164.918 236.896,165.112 236.822 C 165.393 236.714,165.402 236.750,165.185 237.098 C 165.048 237.318,164.830 237.457,164.702 237.408 C 164.574 237.359,164.414 237.461,164.347 237.636 C 164.280 237.810,164.128 237.892,164.008 237.818 C 163.865 237.729,163.830 237.809,163.907 238.051 C 163.981 238.286,163.850 238.622,163.542 238.979 C 163.278 239.287,163.009 239.705,162.945 239.907 C 162.880 240.109,162.736 240.274,162.624 240.274 C 162.503 240.274,162.471 240.489,162.546 240.811 C 162.644 241.234,162.624 241.286,162.453 241.056 C 162.283 240.826,162.262 240.882,162.358 241.316 C 162.433 241.658,162.405 241.825,162.287 241.752 C 162.025 241.590,161.156 243.130,160.986 244.056 C 160.890 244.584,160.798 244.730,160.679 244.545 C 160.575 244.384,160.556 244.528,160.631 244.916 C 160.705 245.306,160.659 245.664,160.510 245.844 C 160.376 246.005,160.315 246.320,160.373 246.543 C 160.431 246.767,160.354 247.432,160.201 248.020 C 160.047 248.609,159.935 249.372,159.951 249.716 C 159.976 250.243,160.002 250.203,160.117 249.462 C 160.212 248.852,160.257 249.300,160.263 250.929 C 160.271 253.129,160.256 253.226,160.014 252.493 C 159.840 251.964,159.751 251.851,159.741 252.143 C 159.733 252.381,159.906 253.033,160.126 253.591 C 160.347 254.150,160.482 254.722,160.428 254.863 C 160.300 255.197,160.636 255.406,160.783 255.084 C 160.844 254.949,160.846 255.147,160.787 255.523 C 160.707 256.034,160.732 256.133,160.884 255.914 C 161.159 255.521,161.151 255.832,160.873 256.367 C 160.751 256.602,160.722 256.727,160.809 256.645 C 160.979 256.487,161.478 257.729,161.483 258.320 C 161.485 258.538,161.573 258.620,161.712 258.534 C 161.868 258.438,161.903 258.529,161.825 258.828 C 161.752 259.106,161.812 259.300,161.990 259.368 C 162.143 259.427,162.268 259.600,162.268 259.753 C 162.268 259.907,162.400 260.082,162.561 260.144 C 162.722 260.206,162.858 260.357,162.862 260.480 C 162.867 260.603,163.131 261.008,163.449 261.381 C 163.767 261.753,164.027 262.153,164.027 262.270 C 164.027 262.386,164.381 262.827,164.814 263.249 C 165.246 263.672,165.555 264.134,165.500 264.277 C 165.445 264.420,165.477 264.489,165.570 264.431 C 165.664 264.374,166.054 264.539,166.436 264.798 C 166.915 265.123,167.166 265.199,167.240 265.040 C 167.299 264.913,167.300 265.002,167.242 265.238 C 167.165 265.552,167.270 265.755,167.633 265.993 C 167.906 266.172,168.086 266.389,168.033 266.474 C 167.980 266.560,168.103 266.587,168.306 266.534 C 168.509 266.481,168.734 266.533,168.807 266.650 C 168.879 266.767,169.117 266.862,169.336 266.862 C 169.563 266.862,169.775 267.022,169.831 267.237 C 169.885 267.443,170.141 267.664,170.400 267.729 C 170.658 267.794,170.870 267.927,170.870 268.025 C 170.870 268.129,171.108 268.135,171.444 268.039 C 171.892 267.910,171.995 267.932,171.916 268.139 C 171.860 268.285,171.668 268.438,171.489 268.480 C 171.310 268.522,171.603 268.622,172.141 268.701 C 173.568 268.913,173.763 268.991,173.409 269.210 C 173.180 269.351,173.201 269.386,173.512 269.382 C 174.299 269.373,178.015 269.837,178.299 269.979 C 178.683 270.172,181.264 270.215,181.555 270.033 C 181.679 269.956,181.392 269.884,180.917 269.874 C 179.930 269.852,179.806 269.781,179.977 269.334 C 180.131 268.932,180.450 268.913,180.450 269.306 C 180.450 269.565,180.966 269.714,181.508 269.612 C 181.606 269.593,181.928 269.678,182.223 269.801 C 182.636 269.972,182.866 269.965,183.218 269.772 C 183.470 269.634,183.854 269.543,184.073 269.569 C 184.578 269.629,185.679 269.173,185.652 268.915 C 185.640 268.807,185.843 268.689,186.102 268.653 C 186.550 268.590,187.097 268.200,187.097 267.945 C 187.097 267.879,186.927 267.917,186.719 268.028 C 186.200 268.306,186.029 268.282,186.289 267.968 C 186.409 267.824,186.442 267.629,186.362 267.535 C 186.282 267.441,186.363 267.475,186.542 267.611 C 186.761 267.778,186.908 267.792,186.993 267.654 C 187.177 267.356,187.548 267.402,187.430 267.707 C 187.376 267.849,187.520 268.083,187.752 268.227 C 188.147 268.473,188.155 268.467,187.879 268.127 C 187.685 267.887,187.672 267.817,187.842 267.919 C 188.203 268.136,189.247 267.661,189.250 267.278 C 189.253 267.001,189.278 266.998,189.446 267.253 C 189.606 267.498,189.658 267.473,189.759 267.107 C 189.825 266.865,189.962 266.667,190.064 266.667 C 190.165 266.667,190.194 266.755,190.127 266.862 C 189.958 267.136,190.293 267.107,190.577 266.823 C 190.901 266.499,190.870 266.321,190.469 266.205 C 190.219 266.132,190.237 266.115,190.537 266.142 C 190.762 266.162,191.109 266.046,191.307 265.885 C 191.637 265.615,191.655 265.623,191.521 265.982 C 191.284 266.616,191.730 266.074,192.168 265.195 C 192.381 264.768,192.559 264.524,192.563 264.653 C 192.567 264.782,193.143 264.321,193.842 263.629 C 195.006 262.476,195.413 261.962,194.917 262.268 C 194.809 262.334,194.721 262.252,194.721 262.084 C 194.721 261.916,194.843 261.779,194.991 261.779 C 195.139 261.779,195.369 261.648,195.502 261.488 C 195.635 261.328,195.835 261.253,195.947 261.323 C 196.060 261.393,196.092 261.355,196.020 261.237 C 195.840 260.946,196.289 260.020,196.610 260.020 C 196.754 260.020,196.872 259.886,196.872 259.724 C 196.872 259.561,196.950 259.275,197.046 259.088 C 197.412 258.376,197.721 257.570,197.685 257.419 C 197.664 257.332,197.781 257.128,197.944 256.965 C 198.107 256.802,198.240 256.408,198.240 256.089 C 198.240 255.771,198.372 255.195,198.534 254.809 C 198.695 254.423,198.827 253.936,198.827 253.728 C 198.827 253.520,198.895 253.392,198.979 253.443 C 199.244 253.607,199.085 247.525,198.816 247.201 C 198.615 246.959,198.637 246.933,198.946 247.043 C 199.249 247.150,199.272 247.126,199.071 246.910 C 198.937 246.766,198.827 246.496,198.827 246.312 C 198.827 246.127,198.728 245.943,198.607 245.902 C 198.486 245.862,198.343 245.372,198.289 244.815 C 198.235 244.257,198.124 243.841,198.042 243.892 C 197.960 243.943,197.835 243.597,197.764 243.124 C 197.693 242.651,197.516 242.218,197.370 242.162 C 197.224 242.105,197.047 241.797,196.976 241.476 C 196.906 241.155,196.721 240.844,196.567 240.785 C 196.412 240.726,196.285 240.449,196.285 240.171 C 196.285 239.883,196.201 239.716,196.090 239.785 C 195.982 239.851,195.894 239.782,195.894 239.631 C 195.894 239.480,195.715 239.195,195.497 238.997 C 195.278 238.799,195.138 238.535,195.185 238.411 C 195.343 237.999,194.949 237.586,194.724 237.928 C 194.556 238.184,194.532 238.182,194.529 237.909 C 194.527 237.738,194.350 237.438,194.135 237.243 C 193.920 237.049,193.743 236.793,193.742 236.675 C 193.741 236.416,192.778 235.942,192.546 236.086 C 192.454 236.142,192.438 236.037,192.509 235.853 C 192.601 235.613,192.566 235.561,192.389 235.671 C 192.190 235.794,192.188 235.733,192.382 235.361 C 192.515 235.106,192.553 234.964,192.467 235.044 C 192.380 235.125,192.147 235.045,191.948 234.865 C 191.750 234.685,191.391 234.522,191.151 234.502 C 190.894 234.480,190.723 234.343,190.737 234.169 C 190.752 233.971,190.638 233.904,190.394 233.968 C 189.988 234.074,189.889 233.726,190.274 233.543 C 190.408 233.479,190.319 233.464,190.077 233.509 C 189.811 233.558,189.539 233.459,189.392 233.258 C 189.142 232.914,187.615 232.258,187.065 232.258 C 186.894 232.258,186.645 232.127,186.512 231.967 C 186.379 231.807,186.202 231.718,186.117 231.771 C 186.033 231.823,185.679 231.745,185.329 231.598 C 184.739 231.350,184.720 231.315,185.065 231.096 C 185.378 230.896,185.382 230.877,185.091 230.967 C 184.902 231.026,184.523 230.989,184.249 230.885 C 183.920 230.759,183.792 230.761,183.871 230.890 C 183.938 230.997,183.805 231.085,183.578 231.085 C 183.350 231.085,183.211 231.008,183.269 230.915 C 183.396 230.710,181.858 230.459,180.677 230.493 C 180.132 230.508,179.874 230.444,179.955 230.312 C 180.025 230.200,180.055 230.117,180.021 230.128 C 179.988 230.139,179.257 230.275,178.397 230.429 M217.400 230.386 C 206.246 232.754,198.958 243.953,201.559 254.727 C 205.503 271.067,225.896 275.987,236.347 263.119 C 237.787 261.346,237.887 261.194,238.829 259.371 C 240.983 255.200,241.829 247.575,240.370 245.491 C 240.226 245.285,240.150 245.005,240.203 244.869 C 240.565 243.924,237.732 238.794,235.562 236.468 C 233.503 234.261,229.041 231.399,227.071 231.022 C 226.859 230.981,226.554 230.902,226.393 230.845 C 225.166 230.411,224.164 230.276,221.603 230.202 C 219.557 230.142,218.287 230.198,217.400 230.386 M258.651 230.412 C 237.832 235.114,237.188 264.515,257.785 269.918 C 275.327 274.519,289.369 253.941,279.030 238.783 C 274.619 232.316,265.962 228.760,258.651 230.412 M300.521 230.315 C 287.627 232.608,280.199 247.532,286.124 259.238 C 293.698 274.199,314.616 274.214,321.994 259.264 C 329.278 244.504,316.627 227.449,300.521 230.315 M181.215 230.764 C 181.171 230.803,180.694 230.885,180.156 230.947 C 179.528 231.020,179.318 231.000,179.570 230.891 C 179.943 230.729,181.385 230.618,181.215 230.764 M181.836 231.265 C 181.684 231.361,181.442 231.395,181.298 231.339 C 180.885 231.181,180.990 231.085,181.574 231.088 C 181.965 231.090,182.036 231.139,181.836 231.265 M186.804 231.867 C 186.870 231.975,187.117 232.056,187.353 232.049 C 187.766 232.036,187.767 232.029,187.390 231.867 C 186.852 231.636,186.661 231.636,186.804 231.867 M187.195 232.649 C 187.508 232.784,187.441 232.820,186.852 232.831 C 186.449 232.838,186.119 232.757,186.119 232.649 C 186.119 232.416,186.651 232.416,187.195 232.649 M172.043 233.322 C 172.043 233.633,171.688 233.924,171.517 233.752 C 171.356 233.592,171.607 233.040,171.841 233.040 C 171.952 233.040,172.043 233.167,172.043 233.322 M171.261 233.590 C 171.261 233.878,170.459 234.615,170.272 234.499 C 170.056 234.366,170.019 233.563,170.235 233.688 C 170.315 233.735,170.557 233.702,170.772 233.616 C 170.987 233.529,171.185 233.452,171.212 233.445 C 171.239 233.437,171.261 233.502,171.261 233.590 M188.270 233.724 C 188.270 233.886,188.143 234.018,187.988 234.018 C 187.661 234.018,187.441 233.739,187.623 233.556 C 187.857 233.322,188.270 233.430,188.270 233.724 M190.376 234.521 C 190.406 234.536,190.172 234.539,189.856 234.527 C 189.417 234.511,189.330 234.448,189.486 234.260 C 189.648 234.064,189.756 234.062,190.006 234.253 C 190.180 234.385,190.347 234.506,190.376 234.521 M187.488 234.397 C 187.488 234.499,187.300 234.545,187.070 234.501 C 186.438 234.380,186.378 234.213,186.966 234.213 C 187.253 234.213,187.488 234.296,187.488 234.397 M191.055 235.875 C 191.106 236.144,191.072 236.364,190.980 236.364 C 190.887 236.364,190.811 236.144,190.811 235.875 C 190.811 235.606,190.845 235.386,190.886 235.386 C 190.928 235.386,191.003 235.606,191.055 235.875 M193.353 237.513 C 193.353 237.700,192.235 237.657,192.040 237.462 C 191.974 237.396,192.242 237.341,192.636 237.341 C 193.030 237.341,193.353 237.418,193.353 237.513 M194.526 238.710 C 194.698 239.032,194.674 239.103,194.386 239.116 C 194.181 239.125,194.138 239.172,194.282 239.230 C 194.416 239.284,194.526 239.508,194.526 239.727 C 194.526 240.058,194.476 240.085,194.235 239.884 C 194.060 239.739,193.962 239.378,193.990 238.981 C 194.044 238.230,194.221 238.140,194.526 238.710 M165.163 240.029 C 165.115 240.618,165.016 240.775,164.663 240.825 C 164.147 240.898,164.112 240.665,164.521 239.873 C 164.934 239.074,165.236 239.148,165.163 240.029 M195.121 240.735 C 194.860 240.996,194.422 240.600,194.619 240.281 C 194.720 240.117,194.830 240.121,195.040 240.295 C 195.237 240.459,195.262 240.593,195.121 240.735 M162.659 243.586 C 162.659 243.794,162.571 244.020,162.463 244.086 C 162.352 244.155,162.268 243.990,162.268 243.707 C 162.268 243.431,162.356 243.206,162.463 243.206 C 162.571 243.206,162.659 243.377,162.659 243.586 M159.911 247.437 C 159.804 247.720,159.760 247.997,159.814 248.051 C 159.902 248.140,159.999 247.934,160.228 247.165 C 160.366 246.700,160.107 246.923,159.911 247.437 M198.096 250.587 C 198.137 252.119,198.098 253.372,198.010 253.372 C 197.921 253.372,197.860 251.987,197.872 250.293 C 197.899 246.618,197.995 246.744,198.096 250.587 M160.905 253.030 C 160.761 253.390,160.729 253.309,160.729 252.590 C 160.729 251.872,160.761 251.791,160.905 252.151 C 161.011 252.413,161.011 252.768,160.905 253.030 M162.659 256.414 C 162.659 257.322,162.392 257.584,162.204 256.862 C 162.062 256.319,162.264 255.302,162.487 255.440 C 162.582 255.498,162.659 255.937,162.659 256.414 M165.187 260.187 C 165.179 260.364,165.105 260.682,165.022 260.895 C 164.771 261.538,164.445 260.695,164.591 259.781 C 164.637 259.494,165.200 259.878,165.187 260.187 M191.300 264.907 C 191.300 265.266,191.190 265.595,191.056 265.640 C 190.886 265.697,190.811 265.472,190.811 264.907 C 190.811 264.342,190.886 264.118,191.056 264.174 C 191.190 264.219,191.300 264.549,191.300 264.907 M168.659 265.445 C 168.610 265.633,168.569 265.479,168.569 265.103 C 168.569 264.726,168.610 264.572,168.659 264.761 C 168.708 264.949,168.708 265.257,168.659 265.445 M187.488 266.113 C 187.488 266.202,187.246 266.274,186.950 266.273 C 186.596 266.271,186.498 266.215,186.665 266.110 C 186.992 265.902,187.488 265.904,187.488 266.113 M189.756 266.177 C 189.552 266.332,189.310 266.412,189.219 266.356 C 188.895 266.156,189.058 265.969,189.589 265.932 C 190.097 265.897,190.106 265.911,189.756 266.177 M170.816 266.471 C 170.781 266.936,170.733 266.949,170.369 266.585 C 170.156 266.372,170.148 266.284,170.334 266.209 C 170.770 266.033,170.846 266.075,170.816 266.471 M188.270 266.764 C 188.270 266.926,188.143 267.058,187.988 267.058 C 187.661 267.058,187.441 266.779,187.623 266.596 C 187.857 266.363,188.270 266.470,188.270 266.764 M171.912 267.139 C 171.970 267.292,171.901 267.461,171.757 267.517 C 171.536 267.601,171.493 267.381,171.637 266.911 C 171.678 266.777,171.817 266.892,171.912 267.139 M179.390 269.404 C 179.543 269.404,179.668 269.492,179.668 269.599 C 179.668 269.821,179.019 269.851,178.310 269.661 C 177.867 269.543,177.859 269.523,178.212 269.385 C 178.421 269.303,178.710 269.273,178.853 269.320 C 178.996 269.366,179.238 269.404,179.390 269.404 " stroke="none" fill="#50b14c" fill-rule="evenodd"></path><path id="path3" d="M371.408 131.329 C 374.875 131.359,380.550 131.359,384.018 131.329 C 387.485 131.299,384.648 131.275,377.713 131.275 C 370.777 131.275,367.940 131.299,371.408 131.329 M323.256 140.078 C 323.256 144.272,323.282 145.959,323.314 143.829 C 323.345 141.698,323.345 138.267,323.313 136.204 C 323.282 134.141,323.256 135.885,323.256 140.078 M213.969 147.070 C 213.917 147.206,213.898 149.692,213.926 152.593 L 213.978 157.869 222.043 157.872 L 230.108 157.876 222.092 157.821 L 214.076 157.767 214.076 152.395 L 214.076 147.023 222.141 146.970 L 230.205 146.916 222.135 146.870 C 215.773 146.833,214.044 146.875,213.969 147.070 M339.651 148.925 C 341.674 148.956,344.929 148.956,346.885 148.924 C 348.840 148.893,347.185 148.867,343.206 148.867 C 339.228 148.867,337.628 148.893,339.651 148.925 M311.779 149.120 C 313.634 149.152,316.669 149.152,318.524 149.120 C 320.379 149.088,318.861 149.061,315.152 149.061 C 311.442 149.061,309.924 149.088,311.779 149.120 M288.844 154.839 C 288.844 157.581,288.871 158.702,288.905 157.331 C 288.938 155.960,288.938 153.717,288.905 152.346 C 288.871 150.975,288.844 152.097,288.844 154.839 M291.251 160.263 C 292.353 160.298,294.157 160.298,295.259 160.263 C 296.361 160.228,295.459 160.200,293.255 160.200 C 291.051 160.200,290.149 160.228,291.251 160.263 M213.975 182.454 L 213.978 190.518 221.799 190.521 L 229.619 190.525 221.850 190.470 L 214.081 190.416 214.026 182.402 L 213.972 174.389 213.975 182.454 M288.830 180.156 C 288.830 181.232,288.863 181.647,288.903 181.078 C 288.943 180.510,288.942 179.631,288.902 179.123 C 288.862 178.616,288.829 179.081,288.830 180.156 M256.950 185.533 C 256.950 186.124,256.987 186.366,257.032 186.070 C 257.076 185.775,257.076 185.291,257.032 184.995 C 256.987 184.699,256.950 184.941,256.950 185.533 M234.885 188.123 L 234.311 188.759 234.946 188.184 C 235.539 187.649,235.671 187.488,235.520 187.488 C 235.487 187.488,235.201 187.774,234.885 188.123 M321.359 191.541 C 321.816 191.582,322.564 191.582,323.021 191.541 C 323.478 191.500,323.104 191.466,322.190 191.466 C 321.276 191.466,320.902 191.500,321.359 191.541 M249.942 202.395 L 249.169 203.226 250.000 202.453 C 250.773 201.734,250.921 201.564,250.773 201.564 C 250.741 201.564,250.367 201.938,249.942 202.395 M86.182 209.335 C 88.797 209.366,93.019 209.366,95.566 209.335 C 98.112 209.304,95.973 209.279,90.811 209.279 C 85.650 209.279,83.567 209.304,86.182 209.335 M127.028 209.335 C 129.851 209.366,134.470 209.366,137.292 209.335 C 140.115 209.305,137.805 209.280,132.160 209.280 C 126.515 209.280,124.206 209.305,127.028 209.335 M298.500 209.335 C 303.266 209.364,311.008 209.364,315.704 209.335 C 320.400 209.306,316.500 209.282,307.038 209.282 C 297.576 209.282,293.733 209.306,298.500 209.335 M370.146 209.334 C 371.093 209.370,372.588 209.370,373.470 209.334 C 374.352 209.298,373.578 209.268,371.750 209.269 C 369.922 209.269,369.200 209.298,370.146 209.334 M94.819 230.032 C 76.408 232.195,69.805 254.831,84.235 266.317 C 97.312 276.727,116.410 267.186,116.410 250.244 C 116.410 238.227,106.225 228.692,94.819 230.032 M135.247 230.117 C 123.551 231.744,115.650 243.565,118.523 255.140 C 122.857 272.603,145.893 276.174,155.204 260.826 C 164.000 246.327,151.955 227.794,135.247 230.117 M176.491 230.157 C 175.765 230.262,175.171 230.417,175.171 230.500 C 175.171 230.726,176.579 230.853,177.028 230.668 C 177.626 230.421,180.054 230.153,179.934 230.347 C 179.876 230.440,180.211 230.506,180.677 230.493 C 181.858 230.459,183.396 230.710,183.269 230.915 C 183.211 231.008,183.350 231.085,183.578 231.085 C 183.805 231.085,183.938 230.997,183.871 230.890 C 183.792 230.761,183.920 230.759,184.249 230.885 C 184.523 230.989,184.902 231.026,185.091 230.967 C 185.382 230.877,185.378 230.896,185.065 231.096 C 184.720 231.315,184.739 231.350,185.329 231.598 C 185.679 231.745,186.033 231.823,186.117 231.771 C 186.202 231.718,186.379 231.807,186.512 231.967 C 186.645 232.127,186.894 232.258,187.065 232.258 C 187.615 232.258,189.142 232.914,189.392 233.258 C 189.539 233.459,189.811 233.558,190.077 233.509 C 190.319 233.464,190.408 233.479,190.274 233.543 C 189.889 233.726,189.988 234.074,190.394 233.968 C 190.638 233.904,190.752 233.971,190.737 234.169 C 190.723 234.343,190.894 234.480,191.151 234.502 C 191.391 234.522,191.750 234.685,191.948 234.865 C 192.147 235.045,192.380 235.125,192.467 235.044 C 192.553 234.964,192.515 235.106,192.382 235.361 C 192.188 235.733,192.190 235.794,192.389 235.671 C 192.566 235.561,192.601 235.613,192.509 235.853 C 192.438 236.037,192.454 236.142,192.546 236.086 C 192.778 235.942,193.741 236.416,193.742 236.675 C 193.743 236.793,193.920 237.049,194.135 237.243 C 194.350 237.438,194.527 237.738,194.529 237.909 C 194.532 238.182,194.556 238.184,194.724 237.928 C 194.951 237.583,195.343 238.001,195.183 238.416 C 195.134 238.543,195.230 238.759,195.395 238.896 C 195.560 239.033,195.638 239.237,195.569 239.349 C 195.496 239.467,195.538 239.494,195.669 239.413 C 195.804 239.329,195.894 239.400,195.894 239.589 C 195.894 239.763,195.982 239.851,196.090 239.785 C 196.201 239.716,196.285 239.883,196.285 240.171 C 196.285 240.449,196.412 240.726,196.567 240.785 C 196.721 240.844,196.906 241.155,196.976 241.476 C 197.047 241.797,197.236 242.110,197.398 242.172 C 197.610 242.254,197.659 242.454,197.575 242.892 C 197.492 243.328,197.513 243.417,197.651 243.206 C 197.801 242.977,197.844 243.033,197.846 243.462 C 197.848 243.764,197.926 243.964,198.020 243.906 C 198.114 243.848,198.235 244.257,198.289 244.815 C 198.343 245.372,198.486 245.862,198.607 245.902 C 198.728 245.943,198.827 246.127,198.827 246.312 C 198.827 246.496,198.937 246.766,199.071 246.910 C 199.272 247.126,199.249 247.150,198.946 247.043 C 198.635 246.933,198.615 246.959,198.819 247.204 C 199.082 247.521,199.242 252.839,199.005 253.372 C 198.662 254.143,198.239 255.675,198.240 256.144 C 198.240 256.432,198.107 256.802,197.944 256.965 C 197.781 257.128,197.664 257.332,197.685 257.419 C 197.721 257.570,197.412 258.376,197.046 259.088 C 196.950 259.275,196.872 259.561,196.872 259.724 C 196.872 259.886,196.754 260.020,196.610 260.020 C 196.289 260.020,195.840 260.946,196.020 261.237 C 196.092 261.355,196.060 261.393,195.947 261.323 C 195.835 261.253,195.635 261.328,195.502 261.488 C 195.369 261.648,195.139 261.779,194.991 261.779 C 194.843 261.779,194.721 261.916,194.721 262.084 C 194.721 262.252,194.809 262.334,194.917 262.268 C 195.413 261.962,195.006 262.476,193.842 263.629 C 193.143 264.321,192.567 264.782,192.563 264.653 C 192.559 264.524,192.381 264.768,192.168 265.195 C 191.730 266.074,191.284 266.616,191.521 265.982 C 191.655 265.623,191.637 265.615,191.307 265.885 C 191.109 266.046,190.762 266.162,190.537 266.142 C 190.237 266.115,190.219 266.132,190.469 266.205 C 190.870 266.321,190.901 266.499,190.577 266.823 C 190.293 267.107,189.958 267.136,190.127 266.862 C 190.194 266.755,190.165 266.667,190.064 266.667 C 189.962 266.667,189.825 266.865,189.759 267.107 C 189.658 267.473,189.606 267.498,189.446 267.253 C 189.278 266.998,189.253 267.001,189.250 267.278 C 189.247 267.661,188.203 268.136,187.842 267.919 C 187.672 267.817,187.685 267.887,187.879 268.127 C 188.155 268.467,188.147 268.473,187.752 268.227 C 187.520 268.083,187.376 267.849,187.430 267.707 C 187.548 267.402,187.177 267.356,186.993 267.654 C 186.908 267.792,186.761 267.778,186.542 267.611 C 186.363 267.475,186.282 267.441,186.362 267.535 C 186.442 267.629,186.409 267.824,186.289 267.968 C 186.029 268.282,186.200 268.306,186.719 268.028 C 186.927 267.917,187.097 267.879,187.097 267.945 C 187.097 268.200,186.550 268.590,186.102 268.653 C 185.843 268.689,185.659 268.804,185.694 268.907 C 185.782 269.170,185.140 269.383,184.555 269.284 C 184.116 269.210,184.106 269.222,184.457 269.397 C 184.799 269.568,184.774 269.588,184.262 269.558 C 183.939 269.539,183.470 269.636,183.218 269.773 C 182.866 269.965,182.636 269.972,182.223 269.801 C 181.928 269.678,181.606 269.593,181.508 269.612 C 180.966 269.714,180.450 269.565,180.450 269.306 C 180.450 268.913,180.131 268.932,179.977 269.334 C 179.806 269.781,179.930 269.852,180.917 269.874 C 181.392 269.884,181.679 269.956,181.555 270.033 C 181.264 270.215,178.683 270.172,178.299 269.979 C 178.138 269.898,177.097 269.743,175.986 269.634 C 174.650 269.503,173.850 269.331,173.625 269.126 C 173.437 268.956,173.026 268.808,172.712 268.798 C 172.047 268.775,171.001 268.475,171.484 268.446 C 171.661 268.435,171.853 268.302,171.912 268.150 C 171.996 267.930,171.901 267.908,171.444 268.039 C 171.108 268.135,170.870 268.129,170.870 268.025 C 170.870 267.927,170.658 267.794,170.400 267.729 C 170.141 267.664,169.885 267.443,169.831 267.237 C 169.775 267.022,169.563 266.862,169.336 266.862 C 169.117 266.862,168.879 266.767,168.807 266.650 C 168.734 266.533,168.509 266.481,168.306 266.534 C 168.103 266.587,167.980 266.560,168.033 266.474 C 168.086 266.389,167.906 266.172,167.633 265.993 C 167.270 265.755,167.165 265.552,167.242 265.238 C 167.300 265.002,167.299 264.913,167.240 265.040 C 167.166 265.199,166.915 265.123,166.436 264.798 C 166.054 264.539,165.664 264.374,165.570 264.431 C 165.477 264.489,165.445 264.420,165.500 264.277 C 165.555 264.134,165.246 263.672,164.814 263.249 C 164.381 262.827,164.027 262.386,164.027 262.270 C 164.027 262.153,163.767 261.753,163.449 261.381 C 163.131 261.008,162.867 260.603,162.862 260.480 C 162.858 260.357,162.722 260.206,162.561 260.144 C 162.400 260.082,162.268 259.907,162.268 259.753 C 162.268 259.600,162.143 259.427,161.990 259.368 C 161.812 259.300,161.752 259.106,161.825 258.828 C 161.903 258.529,161.868 258.438,161.712 258.534 C 161.573 258.620,161.485 258.538,161.483 258.320 C 161.478 257.729,160.979 256.487,160.809 256.645 C 160.722 256.727,160.751 256.602,160.873 256.367 C 161.151 255.832,161.159 255.521,160.884 255.914 C 160.732 256.133,160.707 256.034,160.787 255.523 C 160.846 255.147,160.844 254.949,160.783 255.084 C 160.636 255.406,160.300 255.197,160.428 254.863 C 160.482 254.722,160.347 254.150,160.126 253.591 C 159.906 253.033,159.733 252.381,159.741 252.143 C 159.751 251.851,159.840 251.964,160.014 252.493 C 160.256 253.226,160.271 253.129,160.263 250.929 C 160.257 249.300,160.212 248.852,160.117 249.462 C 160.002 250.203,159.976 250.243,159.951 249.716 C 159.935 249.372,160.050 248.599,160.206 247.999 C 160.363 247.398,160.439 246.772,160.376 246.607 C 160.313 246.443,160.354 246.116,160.468 245.881 C 160.582 245.647,160.780 244.971,160.907 244.379 C 161.171 243.153,162.000 241.574,162.287 241.752 C 162.405 241.825,162.433 241.658,162.358 241.316 C 162.262 240.882,162.283 240.826,162.453 241.056 C 162.624 241.286,162.644 241.234,162.546 240.811 C 162.471 240.489,162.503 240.274,162.624 240.274 C 162.736 240.274,162.880 240.109,162.945 239.907 C 163.009 239.705,163.278 239.287,163.542 238.979 C 163.850 238.622,163.981 238.286,163.907 238.051 C 163.830 237.809,163.865 237.729,164.008 237.818 C 164.128 237.892,164.280 237.810,164.347 237.636 C 164.414 237.461,164.569 237.357,164.691 237.404 C 164.813 237.451,165.122 237.214,165.379 236.877 C 165.635 236.541,166.118 236.088,166.451 235.871 C 166.785 235.654,167.058 235.346,167.058 235.187 C 167.058 235.028,167.234 234.802,167.449 234.686 C 167.664 234.570,167.816 234.368,167.788 234.238 C 167.750 234.062,167.835 234.054,168.117 234.205 C 168.670 234.500,168.805 234.455,168.499 234.079 C 168.264 233.790,168.273 233.765,168.573 233.877 C 168.761 233.948,168.916 233.942,168.916 233.865 C 168.917 233.788,169.198 233.564,169.542 233.369 C 169.968 233.126,170.090 232.966,169.926 232.865 C 169.761 232.764,169.852 232.641,170.213 232.477 C 170.700 232.255,170.719 232.262,170.463 232.571 C 170.203 232.884,170.227 232.884,170.839 232.567 C 171.198 232.382,171.605 232.273,171.743 232.326 C 171.890 232.383,171.984 232.287,171.970 232.096 C 171.951 231.850,172.140 231.754,172.727 231.706 C 173.157 231.671,173.665 231.502,173.855 231.331 C 174.080 231.127,174.554 231.020,175.223 231.024 C 175.786 231.027,176.070 230.993,175.855 230.949 C 175.640 230.905,175.281 230.779,175.057 230.668 C 173.671 229.984,167.468 233.394,164.812 236.301 C 153.174 249.034,161.403 269.701,178.438 270.518 C 181.293 270.655,186.347 269.930,186.037 269.428 C 185.995 269.361,186.166 269.294,186.415 269.279 C 188.462 269.156,193.389 265.491,195.676 262.390 C 196.826 260.830,198.308 257.937,198.158 257.544 C 198.098 257.389,198.124 257.308,198.214 257.364 C 198.676 257.650,199.606 252.958,199.606 250.342 C 199.606 247.620,198.667 242.845,198.189 243.140 C 198.068 243.215,198.043 243.172,198.128 243.035 C 198.320 242.725,197.264 240.500,196.128 238.819 C 191.774 232.378,184.200 229.036,176.491 230.157 M220.095 230.056 C 220.663 230.096,221.542 230.096,222.050 230.055 C 222.557 230.015,222.092 229.983,221.017 229.983 C 219.941 229.984,219.526 230.017,220.095 230.056 M261.535 230.056 C 262.099 230.096,263.023 230.096,263.587 230.056 C 264.152 230.017,263.690 229.984,262.561 229.984 C 261.432 229.984,260.970 230.017,261.535 230.056 M303.086 230.057 C 303.709 230.096,304.676 230.095,305.237 230.056 C 305.797 230.017,305.288 229.985,304.106 229.985 C 302.923 229.986,302.464 230.018,303.086 230.057 M223.509 230.242 C 223.697 230.291,224.005 230.291,224.194 230.242 C 224.382 230.193,224.228 230.153,223.851 230.153 C 223.475 230.153,223.321 230.193,223.509 230.242 M225.415 230.530 C 225.792 230.643,226.232 230.783,226.393 230.842 C 226.554 230.900,226.859 230.981,227.071 231.022 C 229.041 231.399,233.503 234.261,235.562 236.468 C 237.814 238.882,240.562 243.927,240.176 244.940 C 240.084 245.183,240.110 245.205,240.284 245.032 C 240.998 244.324,238.259 239.069,235.691 236.220 C 233.315 233.584,228.552 230.878,225.513 230.438 L 224.731 230.325 225.415 230.530 M215.543 230.694 C 215.296 230.800,215.260 230.862,215.445 230.862 C 215.606 230.862,215.914 230.786,216.129 230.694 C 216.375 230.588,216.412 230.526,216.227 230.526 C 216.065 230.526,215.758 230.602,215.543 230.694 M179.570 230.891 C 179.318 231.000,179.528 231.020,180.156 230.947 C 180.694 230.885,181.171 230.803,181.215 230.764 C 181.385 230.618,179.943 230.729,179.570 230.891 M213.378 231.462 C 209.012 233.236,205.271 236.760,203.046 241.194 C 202.018 243.241,202.200 243.202,203.294 241.141 C 205.865 236.299,208.887 233.637,214.663 231.128 C 215.745 230.658,214.667 230.938,213.378 231.462 M181.036 231.162 C 181.036 231.352,181.587 231.423,181.836 231.265 C 182.036 231.139,181.965 231.090,181.574 231.088 C 181.278 231.086,181.036 231.120,181.036 231.162 M253.470 232.083 C 252.825 232.409,252.209 232.766,252.102 232.878 C 251.932 233.054,254.705 231.749,254.920 231.551 C 255.174 231.317,254.492 231.568,253.470 232.083 M294.677 232.237 C 293.456 232.885,291.977 233.894,290.649 234.986 C 290.053 235.475,287.714 238.223,287.330 238.884 C 286.812 239.776,287.055 239.625,287.688 238.661 C 289.116 236.487,292.170 233.795,294.819 232.374 C 295.733 231.884,296.393 231.483,296.285 231.484 C 296.178 231.485,295.454 231.824,294.677 232.237 M313.099 232.218 C 316.822 234.207,319.234 236.559,321.762 240.665 C 321.993 241.041,322.185 241.284,322.186 241.205 C 322.233 239.172,314.031 231.418,311.903 231.481 C 311.808 231.484,312.346 231.815,313.099 232.218 M187.390 231.867 C 187.767 232.029,187.766 232.036,187.353 232.049 C 187.117 232.056,186.870 231.975,186.804 231.867 C 186.661 231.636,186.852 231.636,187.390 231.867 M272.288 232.604 C 272.960 233.005,273.928 233.627,274.438 233.987 C 275.348 234.627,275.354 234.629,274.750 234.056 C 274.140 233.477,271.539 231.863,271.227 231.871 C 271.138 231.873,271.616 232.203,272.288 232.604 M186.119 232.649 C 186.119 232.757,186.449 232.838,186.852 232.831 C 187.441 232.820,187.508 232.784,187.195 232.649 C 186.651 232.416,186.119 232.416,186.119 232.649 M171.524 233.342 C 171.460 233.508,171.457 233.692,171.517 233.752 C 171.688 233.924,172.043 233.633,172.043 233.322 C 172.043 232.947,171.670 232.961,171.524 233.342 M250.208 234.179 C 247.911 236.007,245.934 238.385,244.694 240.811 C 244.118 241.938,244.519 241.486,245.241 240.195 C 246.494 237.954,248.512 235.678,250.724 234.007 C 251.727 233.250,251.944 233.040,251.723 233.040 C 251.677 233.040,250.995 233.552,250.208 234.179 M170.772 233.616 C 170.557 233.702,170.315 233.735,170.235 233.688 C 170.019 233.563,170.056 234.366,170.272 234.499 C 170.459 234.615,171.261 233.878,171.261 233.590 C 171.261 233.502,171.239 233.437,171.212 233.445 C 171.185 233.452,170.987 233.529,170.772 233.616 M187.623 233.556 C 187.441 233.739,187.661 234.018,187.988 234.018 C 188.143 234.018,188.270 233.886,188.270 233.724 C 188.270 233.430,187.857 233.322,187.623 233.556 M189.486 234.260 C 189.330 234.448,189.417 234.511,189.856 234.527 C 190.172 234.539,190.406 234.536,190.376 234.521 C 190.347 234.506,190.180 234.385,190.006 234.253 C 189.756 234.062,189.648 234.064,189.486 234.260 M186.549 234.317 C 186.749 234.517,187.488 234.580,187.488 234.397 C 187.488 234.296,187.253 234.213,186.966 234.213 C 186.680 234.213,186.492 234.260,186.549 234.317 M276.363 235.582 C 276.911 236.173,277.557 236.877,277.800 237.146 C 278.647 238.086,279.815 239.939,280.677 241.712 C 281.156 242.695,281.488 243.280,281.415 243.011 C 280.880 241.021,278.716 237.701,276.699 235.777 C 275.477 234.611,275.449 234.595,276.363 235.582 M190.811 235.875 C 190.811 236.144,190.887 236.364,190.980 236.364 C 191.072 236.364,191.106 236.144,191.055 235.875 C 191.003 235.606,190.928 235.386,190.886 235.386 C 190.845 235.386,190.811 235.606,190.811 235.875 M192.040 237.462 C 192.235 237.657,193.353 237.700,193.353 237.513 C 193.353 237.418,193.030 237.341,192.636 237.341 C 192.242 237.341,191.974 237.396,192.040 237.462 M193.990 238.981 C 193.962 239.378,194.060 239.739,194.235 239.884 C 194.476 240.085,194.526 240.058,194.526 239.727 C 194.526 239.508,194.416 239.284,194.282 239.230 C 194.138 239.172,194.181 239.125,194.386 239.116 C 194.674 239.103,194.698 239.032,194.526 238.710 C 194.221 238.140,194.044 238.230,193.990 238.981 M164.521 239.873 C 164.112 240.665,164.147 240.898,164.663 240.825 C 165.016 240.775,165.115 240.618,165.163 240.029 C 165.236 239.148,164.934 239.074,164.521 239.873 M194.619 240.281 C 194.422 240.600,194.860 240.996,195.121 240.735 C 195.262 240.593,195.237 240.459,195.040 240.295 C 194.830 240.121,194.720 240.117,194.619 240.281 M322.206 241.471 C 322.197 241.538,322.360 241.978,322.568 242.448 C 323.058 243.556,323.714 245.958,323.928 247.426 C 324.057 248.311,324.103 248.416,324.121 247.875 C 324.163 246.630,322.334 240.514,322.206 241.471 M201.978 243.616 C 201.858 243.961,201.766 244.339,201.773 244.457 C 201.781 244.576,201.913 244.328,202.067 243.908 C 202.221 243.487,202.313 243.108,202.272 243.067 C 202.230 243.025,202.098 243.272,201.978 243.616 M162.268 243.707 C 162.268 243.990,162.352 244.155,162.463 244.086 C 162.571 244.020,162.659 243.794,162.659 243.586 C 162.659 243.377,162.571 243.206,162.463 243.206 C 162.356 243.206,162.268 243.431,162.268 243.707 M201.282 246.247 C 201.208 246.640,201.187 247.000,201.235 247.048 C 201.282 247.095,201.382 246.814,201.455 246.421 C 201.529 246.029,201.550 245.669,201.502 245.621 C 201.455 245.573,201.355 245.855,201.282 246.247 M160.228 247.165 C 159.999 247.934,159.902 248.140,159.814 248.051 C 159.703 247.940,160.055 246.921,160.204 246.921 C 160.257 246.921,160.268 247.031,160.228 247.165 M197.872 250.293 C 197.860 251.987,197.921 253.372,198.010 253.372 C 198.155 253.372,198.110 248.201,197.959 247.507 C 197.924 247.346,197.885 248.600,197.872 250.293 M201.027 248.387 C 201.029 248.817,201.069 248.970,201.116 248.727 C 201.163 248.484,201.161 248.132,201.112 247.945 C 201.063 247.758,201.025 247.957,201.027 248.387 M282.579 250.244 C 282.579 251.696,282.610 252.290,282.647 251.564 C 282.685 250.838,282.685 249.651,282.647 248.925 C 282.610 248.199,282.579 248.793,282.579 250.244 M242.497 250.342 C 242.498 251.525,242.530 251.984,242.569 251.361 C 242.608 250.739,242.607 249.771,242.568 249.211 C 242.529 248.650,242.497 249.159,242.497 250.342 M241.124 250.244 C 241.124 251.158,241.158 251.532,241.199 251.075 C 241.240 250.618,241.240 249.870,241.199 249.413 C 241.158 248.957,241.124 249.330,241.124 250.244 M283.938 250.342 C 283.939 251.202,283.973 251.530,284.014 251.070 C 284.056 250.610,284.055 249.906,284.013 249.506 C 283.971 249.106,283.937 249.482,283.938 250.342 M324.205 250.147 C 324.206 250.792,324.243 251.032,324.286 250.681 C 324.330 250.329,324.329 249.802,324.284 249.508 C 324.240 249.214,324.204 249.501,324.205 250.147 M201.027 252.102 C 201.029 252.532,201.069 252.685,201.116 252.442 C 201.163 252.198,201.161 251.846,201.112 251.659 C 201.063 251.473,201.025 251.672,201.027 252.102 M160.729 252.590 C 160.729 253.309,160.761 253.390,160.905 253.030 C 161.011 252.768,161.011 252.413,160.905 252.151 C 160.761 251.791,160.729 251.872,160.729 252.590 M323.995 252.786 C 323.995 253.162,324.035 253.316,324.084 253.128 C 324.133 252.940,324.133 252.632,324.084 252.444 C 324.035 252.256,323.995 252.410,323.995 252.786 M323.675 254.370 C 323.604 254.818,323.583 255.222,323.630 255.269 C 323.677 255.316,323.776 254.990,323.851 254.545 C 323.927 254.101,323.947 253.696,323.897 253.646 C 323.847 253.596,323.747 253.921,323.675 254.370 M240.215 255.939 C 240.022 256.596,239.904 257.174,239.953 257.222 C 240.067 257.337,240.705 255.155,240.626 254.921 C 240.594 254.824,240.409 255.282,240.215 255.939 M162.205 255.888 C 162.078 256.523,162.231 257.283,162.486 257.283 C 162.711 257.283,162.712 255.579,162.487 255.440 C 162.393 255.382,162.266 255.583,162.205 255.888 M323.092 256.627 C 321.946 260.327,318.894 264.563,315.882 266.635 C 315.373 266.985,314.956 267.316,314.956 267.370 C 314.956 268.224,320.019 263.148,321.293 261.015 C 322.242 259.427,323.641 256.065,323.513 255.681 C 323.477 255.572,323.287 255.997,323.092 256.627 M281.276 257.453 C 280.061 260.889,277.060 264.749,273.962 266.859 C 272.268 268.013,271.792 268.404,272.532 268.034 C 275.192 266.700,278.430 263.392,280.235 260.164 C 280.968 258.853,281.969 256.365,281.875 256.087 C 281.844 255.995,281.574 256.609,281.276 257.453 M201.969 256.741 C 201.946 256.972,202.583 258.479,202.668 258.394 C 202.710 258.352,202.574 257.930,202.364 257.458 C 202.154 256.985,201.976 256.662,201.969 256.741 M238.861 259.299 C 238.357 260.287,237.787 261.302,237.594 261.555 C 234.923 265.061,233.205 266.565,229.814 268.366 C 227.917 269.374,228.054 269.471,230.032 268.520 C 233.866 266.676,237.507 262.902,239.340 258.874 C 240.191 257.005,239.901 257.262,238.861 259.299 M202.737 258.798 C 202.737 258.891,202.865 259.138,203.021 259.347 C 203.294 259.713,203.300 259.711,203.192 259.283 C 203.081 258.842,202.737 258.475,202.737 258.798 M285.826 258.921 C 285.826 259.131,286.408 260.215,286.520 260.215 C 286.574 260.215,286.473 259.929,286.295 259.580 C 285.932 258.866,285.826 258.717,285.826 258.921 M164.591 259.781 C 164.445 260.695,164.771 261.538,165.022 260.895 C 165.263 260.277,165.223 259.874,164.907 259.753 C 164.746 259.691,164.604 259.704,164.591 259.781 M203.394 260.117 C 204.052 261.832,207.460 265.592,209.740 267.120 C 211.155 268.068,214.038 269.507,214.199 269.346 C 214.247 269.298,213.809 269.066,213.225 268.829 C 209.956 267.502,205.851 263.900,204.022 260.753 C 203.501 259.856,203.163 259.514,203.394 260.117 M287.024 261.162 C 288.525 263.909,293.306 268.092,295.894 268.924 C 296.109 268.993,295.626 268.675,294.819 268.217 C 291.868 266.542,289.593 264.526,287.884 262.072 C 286.681 260.345,286.434 260.083,287.024 261.162 M245.675 261.437 C 247.144 263.906,250.613 267.030,253.513 268.497 C 255.104 269.302,255.004 269.097,253.372 268.209 C 250.552 266.674,248.158 264.603,246.448 262.219 C 245.789 261.301,245.298 260.804,245.675 261.437 M190.811 264.907 C 190.811 265.472,190.886 265.697,191.056 265.640 C 191.190 265.595,191.300 265.266,191.300 264.907 C 191.300 264.549,191.190 264.219,191.056 264.174 C 190.886 264.118,190.811 264.342,190.811 264.907 M168.569 265.103 C 168.569 265.479,168.610 265.633,168.659 265.445 C 168.708 265.257,168.708 264.949,168.659 264.761 C 168.610 264.572,168.569 264.726,168.569 265.103 M186.665 266.110 C 186.498 266.215,186.596 266.271,186.950 266.273 C 187.246 266.274,187.488 266.202,187.488 266.113 C 187.488 265.904,186.992 265.902,186.665 266.110 M189.052 266.111 C 189.052 266.413,189.402 266.446,189.756 266.177 C 190.106 265.911,190.097 265.897,189.589 265.932 C 189.294 265.953,189.052 266.034,189.052 266.111 M170.334 266.209 C 170.148 266.284,170.156 266.372,170.369 266.585 C 170.733 266.949,170.781 266.936,170.816 266.471 C 170.846 266.075,170.770 266.033,170.334 266.209 M187.623 266.596 C 187.441 266.779,187.661 267.058,187.988 267.058 C 188.143 267.058,188.270 266.926,188.270 266.764 C 188.270 266.470,187.857 266.363,187.623 266.596 M171.637 266.911 C 171.493 267.381,171.536 267.601,171.757 267.517 C 171.901 267.461,171.970 267.292,171.912 267.139 C 171.817 266.892,171.678 266.777,171.637 266.911 M313.001 268.426 C 312.625 268.632,312.387 268.805,312.473 268.809 C 312.680 268.820,313.783 268.246,313.783 268.128 C 313.783 268.000,313.772 268.004,313.001 268.426 M270.772 268.719 C 270.288 268.979,269.980 269.191,270.088 269.191 C 270.196 269.191,270.679 268.979,271.163 268.719 C 271.647 268.460,271.955 268.248,271.848 268.248 C 271.740 268.248,271.256 268.460,270.772 268.719 M178.212 269.385 C 177.859 269.523,177.867 269.543,178.310 269.661 C 179.019 269.851,179.668 269.821,179.668 269.599 C 179.668 269.492,179.543 269.404,179.390 269.404 C 179.238 269.404,178.996 269.366,178.853 269.320 C 178.710 269.273,178.421 269.303,178.212 269.385 M268.817 269.501 C 268.441 269.646,268.265 269.768,268.426 269.771 C 268.587 269.774,268.983 269.656,269.306 269.509 C 270.061 269.163,269.710 269.158,268.817 269.501 M216.129 269.990 C 216.344 270.083,216.696 270.156,216.911 270.152 C 217.225 270.148,217.206 270.116,216.813 269.990 C 216.145 269.776,215.631 269.776,216.129 269.990 M224.438 270.186 C 223.781 270.396,224.491 270.396,225.318 270.186 C 225.845 270.052,225.854 270.036,225.415 270.033 C 225.147 270.031,224.707 270.100,224.438 270.186 M222.678 270.381 L 221.994 270.525 222.716 270.551 C 223.113 270.565,223.492 270.489,223.558 270.381 C 223.689 270.169,223.686 270.169,222.678 270.381 M218.915 270.519 C 219.157 270.566,219.553 270.566,219.795 270.519 C 220.037 270.473,219.839 270.434,219.355 270.434 C 218.871 270.434,218.673 270.473,218.915 270.519 M260.364 270.520 C 260.607 270.566,260.959 270.564,261.146 270.516 C 261.333 270.467,261.134 270.428,260.704 270.431 C 260.274 270.433,260.121 270.473,260.364 270.520 M264.079 270.520 C 264.322 270.566,264.674 270.564,264.861 270.516 C 265.047 270.467,264.848 270.428,264.418 270.431 C 263.988 270.433,263.835 270.473,264.079 270.520 M301.811 270.520 C 302.054 270.566,302.406 270.564,302.593 270.516 C 302.780 270.467,302.581 270.428,302.151 270.431 C 301.720 270.433,301.567 270.473,301.811 270.520 " stroke="none" fill="#8ccb89" fill-rule="evenodd"></path><path id="path4" d="M169.562 131.329 C 171.155 131.362,173.706 131.362,175.232 131.329 C 176.758 131.296,175.455 131.269,172.336 131.269 C 169.218 131.269,167.970 131.296,169.562 131.329 M211.584 131.329 C 213.815 131.361,217.466 131.361,219.697 131.329 C 221.928 131.298,220.103 131.272,215.640 131.272 C 211.178 131.272,209.352 131.298,211.584 131.329 M230.262 131.328 C 230.938 131.366,231.994 131.366,232.608 131.327 C 233.222 131.288,232.669 131.257,231.378 131.257 C 230.088 131.258,229.586 131.289,230.262 131.328 M234.653 131.318 C 234.841 131.367,235.149 131.367,235.337 131.318 C 235.525 131.268,235.371 131.228,234.995 131.228 C 234.619 131.228,234.465 131.268,234.653 131.318 M286.183 131.329 C 292.778 131.358,303.511 131.358,310.035 131.329 C 316.559 131.301,311.163 131.277,298.045 131.277 C 284.927 131.277,279.589 131.301,286.183 131.329 M345.420 131.329 C 349.111 131.359,355.093 131.359,358.714 131.329 C 362.335 131.300,359.316 131.275,352.004 131.275 C 344.692 131.275,341.729 131.300,345.420 131.329 M65.784 157.185 C 65.784 171.325,65.807 177.109,65.836 170.039 C 65.864 162.969,65.864 151.400,65.836 144.330 C 65.807 137.261,65.784 143.045,65.784 157.185 M4.200 156.891 C 4.200 170.762,4.224 176.466,4.252 169.566 C 4.281 162.665,4.281 151.316,4.252 144.346 C 4.224 137.375,4.200 143.021,4.200 156.891 M193.555 132.147 C 193.417 132.405,193.368 144.552,193.401 170.320 L 193.449 208.113 193.547 170.186 C 193.602 149.326,193.717 132.148,193.804 132.014 C 193.891 131.879,193.916 131.769,193.860 131.769 C 193.804 131.769,193.667 131.939,193.555 132.147 M25.510 156.794 C 25.510 170.396,25.534 175.960,25.562 169.159 C 25.591 162.358,25.591 151.229,25.562 144.428 C 25.534 137.627,25.510 143.192,25.510 156.794 M122.776 151.808 C 122.722 162.561,122.700 171.395,122.727 171.440 C 122.940 171.795,122.968 169.024,122.924 151.791 L 122.874 132.258 122.776 151.808 M178.981 170.186 C 178.981 191.046,179.004 199.551,179.032 189.085 C 179.060 178.620,179.060 161.552,179.032 151.157 C 179.004 140.763,178.981 149.326,178.981 170.186 M80.252 170.283 C 80.252 191.090,80.275 199.602,80.303 189.198 C 80.331 178.795,80.331 161.772,80.303 151.369 C 80.275 140.965,80.252 149.477,80.252 170.283 M143.595 170.283 C 143.595 191.090,143.618 199.602,143.646 189.198 C 143.674 178.795,143.674 161.772,143.646 151.369 C 143.618 140.965,143.595 149.477,143.595 170.283 M334.791 140.078 C 334.791 144.272,334.817 145.959,334.848 143.829 C 334.880 141.698,334.880 138.267,334.848 136.204 C 334.817 134.141,334.791 135.885,334.791 140.078 M396.374 140.860 C 396.374 144.731,396.400 146.342,396.432 144.441 C 396.464 142.539,396.464 139.372,396.432 137.403 C 396.400 135.433,396.374 136.989,396.374 140.860 M248.192 137.243 C 248.830 137.889,249.396 138.416,249.450 138.416 C 249.504 138.416,249.026 137.889,248.387 137.243 C 247.749 136.598,247.182 136.070,247.129 136.070 C 247.075 136.070,247.553 136.598,248.192 137.243 M232.063 147.470 C 232.063 147.516,232.436 147.800,232.893 148.101 C 233.350 148.402,233.621 148.524,233.495 148.371 C 233.252 148.078,232.063 147.329,232.063 147.470 M288.886 148.925 C 288.804 149.058,296.251 149.056,305.279 148.920 C 307.214 148.890,304.338 148.847,298.887 148.822 C 293.437 148.798,288.936 148.844,288.886 148.925 M351.369 148.923 C 351.987 148.961,352.999 148.961,353.617 148.923 C 354.235 148.884,353.729 148.852,352.493 148.852 C 351.256 148.852,350.750 148.884,351.369 148.923 M376.239 149.022 C 376.188 149.157,376.169 162.507,376.197 178.690 L 376.248 208.113 376.296 178.545 L 376.344 148.977 385.875 148.925 L 395.406 148.872 385.869 148.825 C 378.384 148.788,376.312 148.831,376.239 149.022 M234.274 149.740 C 234.506 150.164,234.726 150.481,234.762 150.444 C 234.857 150.350,234.251 149.215,234.034 149.081 C 233.934 149.020,234.042 149.316,234.274 149.740 M235.048 152.493 C 235.048 152.977,235.086 153.174,235.133 152.933 C 235.180 152.691,235.180 152.295,235.133 152.053 C 235.086 151.811,235.048 152.009,235.048 152.493 M308.016 160.539 C 308.231 160.656,308.517 160.890,308.651 161.059 C 308.785 161.227,308.895 161.265,308.895 161.143 C 308.895 160.895,308.136 160.310,307.826 160.319 C 307.715 160.322,307.801 160.421,308.016 160.539 M308.984 169.110 C 308.984 173.358,309.010 175.095,309.042 172.972 C 309.073 170.848,309.073 167.373,309.042 165.249 C 309.010 163.126,308.984 164.863,308.984 169.110 M248.501 166.205 L 247.833 166.982 248.298 167.411 L 248.764 167.840 248.394 167.395 C 248.025 166.951,248.026 166.948,248.783 166.173 C 249.200 165.746,249.458 165.403,249.355 165.412 C 249.253 165.422,248.869 165.778,248.501 166.205 M249.951 168.915 C 250.371 169.345,250.759 169.697,250.812 169.697 C 250.866 169.697,250.567 169.345,250.147 168.915 C 249.727 168.485,249.339 168.133,249.285 168.133 C 249.231 168.133,249.531 168.485,249.951 168.915 M288.758 178.055 C 288.758 178.188,295.812 178.186,304.594 178.049 C 306.476 178.020,303.683 177.976,298.387 177.952 C 293.091 177.928,288.759 177.974,288.758 178.055 M237.394 182.405 C 237.394 182.889,237.433 183.087,237.479 182.845 C 237.526 182.603,237.526 182.207,237.479 181.965 C 237.433 181.723,237.394 181.921,237.394 182.405 M232.845 189.638 C 232.468 189.844,232.231 190.017,232.317 190.021 C 232.524 190.032,233.627 189.459,233.627 189.340 C 233.627 189.212,233.615 189.216,232.845 189.638 M34.262 189.585 C 34.665 189.627,35.325 189.627,35.728 189.585 C 36.131 189.543,35.802 189.509,34.995 189.509 C 34.189 189.509,33.859 189.543,34.262 189.585 M296.613 191.544 C 300.987 191.574,308.201 191.574,312.644 191.544 C 317.088 191.515,313.509 191.491,304.692 191.491 C 295.875 191.491,292.239 191.515,296.613 191.544 M325.211 200.391 C 325.211 204.638,325.237 206.376,325.269 204.252 C 325.300 202.129,325.300 198.653,325.269 196.530 C 325.237 194.406,325.211 196.144,325.211 200.391 M249.947 202.199 L 248.387 203.812 250.000 202.253 C 251.498 200.805,251.702 200.587,251.559 200.587 C 251.530 200.587,250.804 201.312,249.947 202.199 M56.689 201.906 L 55.621 203.030 56.745 201.962 C 57.789 200.969,57.959 200.782,57.813 200.782 C 57.783 200.782,57.277 201.288,56.689 201.906 M13.099 201.857 C 13.463 202.234,13.806 202.542,13.860 202.542 C 13.913 202.542,13.659 202.234,13.294 201.857 C 12.929 201.481,12.587 201.173,12.533 201.173 C 12.480 201.173,12.734 201.481,13.099 201.857 M354.517 205.767 C 354.517 206.735,354.550 207.156,354.591 206.702 C 354.632 206.248,354.632 205.456,354.592 204.942 C 354.551 204.428,354.518 204.800,354.517 205.767 M19.550 206.737 C 19.550 206.791,19.902 207.014,20.332 207.234 C 20.762 207.453,21.114 207.589,21.114 207.535 C 21.114 207.481,20.762 207.258,20.332 207.038 C 19.902 206.819,19.550 206.683,19.550 206.737 M375.269 208.902 C 374.946 209.050,374.819 209.175,374.987 209.180 C 375.155 209.185,375.463 209.059,375.671 208.902 C 376.135 208.551,376.036 208.551,375.269 208.902 M163.783 209.140 C 166.391 209.170,170.657 209.170,173.265 209.140 C 175.872 209.109,173.739 209.084,168.524 209.084 C 163.309 209.084,161.175 209.109,163.783 209.140 M204.741 209.140 C 210.413 209.169,219.695 209.169,225.367 209.140 C 231.039 209.111,226.398 209.087,215.054 209.087 C 203.710 209.087,199.069 209.111,204.741 209.140 M274.047 209.140 C 276.977 209.170,281.772 209.170,284.702 209.140 C 287.632 209.109,285.235 209.084,279.374 209.084 C 273.514 209.084,271.117 209.109,274.047 209.140 M358.798 209.139 C 360.599 209.172,363.546 209.172,365.347 209.139 C 367.148 209.107,365.674 209.081,362.072 209.081 C 358.470 209.081,356.997 209.107,358.798 209.139 M34.066 210.896 C 34.577 210.937,35.413 210.937,35.924 210.896 C 36.435 210.856,36.017 210.823,34.995 210.823 C 33.974 210.823,33.556 210.856,34.066 210.896 " stroke="none" fill="#7c7c7c" fill-rule="evenodd"></path></g></svg>