<svg xmlns="http://www.w3.org/2000/svg" xmlns:xlink="http://www.w3.org/1999/xlink" width="50" zoomAndPan="magnify" viewBox="0 0 37.5 37.499999" height="50" preserveAspectRatio="xMidYMid meet" version="1.0"><defs><clipPath id="79a8a66b25"><path d="M 0 0 L 37.007812 0 L 37.007812 37.007812 L 0 37.007812 Z M 0 0 " clip-rule="nonzero"/></clipPath><clipPath id="7cf8b2dee8"><path d="M 0 12 L 37.007812 12 L 37.007812 20 L 0 20 Z M 0 12 " clip-rule="nonzero"/></clipPath><clipPath id="4519661184"><path d="M 0 0 L 37.007812 0 L 37.007812 37.007812 L 0 37.007812 Z M 0 0 " clip-rule="nonzero"/></clipPath><clipPath id="71b161d1f8"><path d="M 0 12 L 37.007812 12 L 37.007812 20 L 0 20 Z M 0 12 " clip-rule="nonzero"/></clipPath></defs><g clip-path="url(#79a8a66b25)"><path fill="#ffffff" d="M 0 0 L 37.5 0 L 37.5 45 L 0 45 Z M 0 0 " fill-opacity="1" fill-rule="nonzero"/><path fill="#ffffff" d="M 0 0 L 37.5 0 L 37.5 37.5 L 0 37.5 Z M 0 0 " fill-opacity="1" fill-rule="nonzero"/><path fill="#ffffff" d="M 0 0 L 37.5 0 L 37.5 37.5 L 0 37.5 Z M 0 0 " fill-opacity="1" fill-rule="nonzero"/></g><g clip-path="url(#7cf8b2dee8)"><path fill="#040404" d="M 0.453125 12.308594 C 0.421875 12.332031 0.421875 12.484375 0.425781 14.796875 L 0.429688 17.257812 L 0.472656 17.4375 C 0.933594 19.46875 3.183594 20.390625 4.90625 19.25 C 5.515625 18.847656 5.925781 18.238281 6.121094 17.460938 L 6.160156 17.292969 L 6.164062 14.800781 L 6.171875 12.308594 L 6.128906 12.296875 C 6.023438 12.269531 4.25 12.285156 4.222656 12.316406 C 4.195312 12.339844 4.191406 12.578125 4.191406 14.664062 C 4.191406 16.617188 4.1875 17 4.167969 17.082031 C 3.957031 17.867188 2.890625 18 2.511719 17.289062 C 2.394531 17.066406 2.398438 17.199219 2.398438 14.644531 L 2.398438 12.320312 L 2.351562 12.304688 C 2.277344 12.277344 0.492188 12.28125 0.453125 12.308594 M 7.644531 12.304688 C 7.609375 12.316406 7.578125 12.34375 7.566406 12.371094 C 7.542969 12.417969 7.53125 19.449219 7.554688 19.507812 C 7.585938 19.589844 7.625 19.59375 8.53125 19.59375 L 9.394531 19.59375 L 9.503906 19.484375 L 9.503906 15.316406 L 9.550781 15.417969 C 9.609375 15.546875 10.378906 17.304688 10.527344 17.652344 C 10.578125 17.769531 10.632812 17.890625 10.683594 18.007812 C 10.707031 18.058594 10.773438 18.207031 10.832031 18.339844 L 11.105469 18.960938 C 11.175781 19.121094 11.246094 19.28125 11.316406 19.441406 C 11.382812 19.601562 11.324219 19.59375 12.425781 19.589844 L 13.386719 19.582031 L 13.421875 19.539062 C 13.464844 19.492188 13.480469 12.433594 13.441406 12.359375 C 13.402344 12.292969 13.332031 12.285156 12.496094 12.285156 C 11.664062 12.285156 11.589844 12.292969 11.554688 12.359375 C 11.542969 12.382812 11.535156 13.066406 11.535156 14.226562 C 11.535156 15.234375 11.53125 16.058594 11.523438 16.058594 C 11.515625 16.058594 11.414062 15.839844 11.304688 15.578125 C 10.449219 13.578125 9.921875 12.371094 9.886719 12.332031 C 9.847656 12.292969 7.773438 12.265625 7.644531 12.304688 M 14.910156 12.304688 C 14.808594 12.347656 14.8125 12.160156 14.8125 15.9375 C 14.8125 19.542969 14.8125 19.515625 14.886719 19.554688 C 14.960938 19.597656 16.695312 19.578125 16.734375 19.539062 C 16.773438 19.5 16.773438 19.476562 16.773438 15.941406 L 16.773438 12.378906 L 16.730469 12.34375 C 16.695312 12.308594 16.667969 12.304688 16.339844 12.304688 C 16.148438 12.304688 15.757812 12.300781 15.472656 12.296875 C 15.140625 12.289062 14.933594 12.292969 14.910156 12.304688 M 18.234375 12.308594 C 18.140625 12.339844 18.144531 12.1875 18.144531 15.957031 C 18.144531 19.476562 18.144531 19.5 18.183594 19.539062 C 18.234375 19.585938 21.972656 19.59375 22.257812 19.546875 C 24.015625 19.238281 24.683594 17.078125 23.414062 15.8125 L 23.234375 15.632812 L 23.285156 15.574219 C 23.316406 15.542969 23.359375 15.496094 23.382812 15.472656 C 24.359375 14.40625 23.691406 12.582031 22.234375 12.324219 C 22.085938 12.296875 18.308594 12.28125 18.234375 12.308594 M 25.21875 12.296875 C 25.09375 12.324219 25.105469 12.035156 25.105469 15.953125 L 25.101562 19.480469 L 25.1875 19.574219 L 30.398438 19.582031 L 30.433594 19.539062 C 30.46875 19.5 30.46875 19.457031 30.46875 18.757812 L 30.46875 18.019531 L 30.421875 17.980469 C 30.371094 17.945312 30.363281 17.945312 28.71875 17.945312 L 27.0625 17.945312 L 27.0625 16.664062 L 28.871094 16.664062 L 28.910156 16.621094 C 28.949219 16.578125 28.972656 15.195312 28.9375 15.097656 C 28.90625 15.019531 28.871094 15.015625 27.941406 15.015625 L 27.0625 15.015625 L 27.070312 13.945312 L 30.191406 13.945312 L 30.277344 13.859375 L 30.28125 13.128906 L 30.285156 12.394531 L 30.195312 12.304688 L 28.066406 12.304688 C 26.894531 12.304688 25.785156 12.300781 25.597656 12.296875 C 25.410156 12.292969 25.242188 12.292969 25.21875 12.296875 M 31.476562 12.308594 C 31.386719 12.339844 31.382812 12.355469 31.382812 13.121094 C 31.382812 13.800781 31.386719 13.839844 31.417969 13.882812 L 31.453125 13.925781 L 33.234375 13.933594 L 33.234375 19.496094 L 33.273438 19.53125 C 33.355469 19.605469 35.175781 19.609375 35.234375 19.535156 C 35.234375 19.53125 35.242188 18.273438 35.246094 16.734375 L 35.257812 13.945312 L 36.167969 13.933594 C 36.878906 13.925781 37.082031 13.921875 37.101562 13.902344 C 37.128906 13.875 37.15625 12.476562 37.128906 12.402344 C 37.097656 12.300781 37.265625 12.308594 34.269531 12.300781 C 32.753906 12.296875 31.496094 12.300781 31.476562 12.308594 M 21.765625 13.8125 C 22.089844 13.992188 22.132812 14.410156 21.855469 14.660156 C 21.707031 14.792969 21.691406 14.796875 20.816406 14.796875 L 20.050781 14.796875 L 20.050781 13.75 L 20.859375 13.753906 L 21.671875 13.761719 L 21.765625 13.8125 M 21.8125 16.390625 C 22.285156 16.613281 22.40625 17.246094 22.042969 17.617188 C 21.824219 17.839844 21.761719 17.851562 20.816406 17.851562 L 20.050781 17.851562 L 20.050781 16.332031 L 20.878906 16.335938 L 21.707031 16.34375 L 21.8125 16.390625 " fill-opacity="1" fill-rule="evenodd"/></g><g clip-path="url(#4519661184)"><path fill="#fbfbfb" d="M 0.0195312 18.75 L 0.0195312 37.5 L 37.480469 37.5 L 37.480469 0 L 0.0195312 0 L 0.0195312 18.75 M 2.394531 12.308594 C 2.402344 12.320312 2.410156 13.398438 2.417969 14.703125 L 2.425781 17.074219 L 2.46875 17.179688 C 2.742188 17.859375 3.6875 17.9375 4.054688 17.3125 C 4.191406 17.082031 4.183594 17.285156 4.191406 14.65625 L 4.203125 12.296875 L 6.179688 12.296875 L 6.179688 14.785156 C 6.179688 17.550781 6.1875 17.351562 6.058594 17.753906 C 5.820312 18.484375 5.230469 19.15625 4.539062 19.480469 C 2.769531 20.308594 0.722656 19.207031 0.429688 17.269531 C 0.394531 17.023438 0.386719 12.34375 0.425781 12.308594 C 0.457031 12.277344 2.371094 12.277344 2.394531 12.308594 M 9.894531 12.3125 C 9.910156 12.328125 10.09375 12.730469 10.300781 13.214844 C 10.507812 13.695312 10.820312 14.417969 10.996094 14.824219 C 11.167969 15.226562 11.355469 15.65625 11.410156 15.78125 L 11.507812 16.011719 L 11.515625 14.183594 L 11.527344 12.355469 L 11.570312 12.320312 C 11.640625 12.265625 13.359375 12.265625 13.417969 12.324219 C 13.480469 12.382812 13.476562 12.246094 13.472656 15.980469 L 13.46875 19.519531 L 13.425781 19.558594 L 13.382812 19.601562 L 12.398438 19.601562 C 11.234375 19.601562 11.386719 19.648438 11.207031 19.230469 C 11.019531 18.792969 10.945312 18.632812 10.492188 17.597656 C 10.070312 16.636719 9.917969 16.289062 9.664062 15.703125 L 9.511719 15.355469 L 9.507812 17.433594 L 9.503906 19.515625 L 9.445312 19.5625 L 9.390625 19.613281 L 8.503906 19.605469 L 7.617188 19.601562 L 7.578125 19.558594 L 7.535156 19.519531 L 7.53125 15.972656 C 7.523438 12.261719 7.523438 12.347656 7.605469 12.308594 C 7.671875 12.277344 9.851562 12.28125 9.894531 12.3125 M 16.746094 12.332031 L 16.789062 12.375 L 16.789062 19.496094 L 16.753906 19.542969 L 16.714844 19.59375 L 14.902344 19.59375 L 14.859375 19.546875 L 14.8125 19.503906 L 14.8125 12.375 L 14.859375 12.332031 L 14.902344 12.285156 L 16.699219 12.285156 L 16.746094 12.332031 M 22.203125 12.304688 C 23.726562 12.523438 24.390625 14.4375 23.332031 15.550781 L 23.25 15.636719 L 23.390625 15.765625 C 24.710938 17 24.054688 19.222656 22.265625 19.5625 C 22.136719 19.589844 21.863281 19.59375 20.167969 19.59375 L 18.21875 19.59375 L 18.128906 19.503906 L 18.128906 12.375 L 18.21875 12.285156 L 20.144531 12.285156 C 21.335938 12.285156 22.121094 12.292969 22.203125 12.304688 M 30.242188 12.332031 L 30.292969 12.375 L 30.300781 13.078125 C 30.304688 13.558594 30.300781 13.800781 30.285156 13.847656 C 30.246094 13.980469 30.324219 13.976562 28.609375 13.960938 L 27.082031 13.945312 L 27.085938 14.46875 L 27.089844 14.996094 L 27.988281 15.003906 L 28.886719 15.015625 L 28.925781 15.0625 L 28.96875 15.109375 L 28.96875 16.589844 L 28.878906 16.679688 L 27.082031 16.679688 L 27.078125 16.878906 C 27.074219 16.984375 27.070312 17.265625 27.070312 17.496094 L 27.070312 17.917969 L 28.730469 17.921875 C 30.328125 17.925781 30.386719 17.929688 30.433594 17.960938 L 30.476562 17.996094 L 30.484375 18.75 L 30.488281 19.503906 L 30.433594 19.554688 L 30.378906 19.609375 L 29.277344 19.609375 C 26.660156 19.609375 25.179688 19.589844 25.140625 19.550781 C 25.105469 19.519531 25.105469 19.5 25.105469 15.945312 L 25.105469 12.375 L 25.195312 12.285156 L 30.191406 12.285156 L 30.242188 12.332031 M 36.75 12.296875 C 37.050781 12.308594 37.085938 12.3125 37.117188 12.347656 C 37.171875 12.40625 37.171875 13.832031 37.117188 13.898438 L 37.082031 13.945312 L 36.179688 13.953125 L 35.273438 13.960938 L 35.265625 16.738281 L 35.257812 19.519531 L 35.214844 19.558594 L 35.171875 19.601562 L 34.253906 19.59375 C 33.324219 19.589844 33.269531 19.585938 33.242188 19.519531 C 33.234375 19.503906 33.230469 18.246094 33.234375 16.722656 L 33.234375 13.953125 L 31.453125 13.945312 L 31.410156 13.890625 L 31.367188 13.839844 L 31.367188 12.382812 L 31.410156 12.335938 L 31.457031 12.285156 L 33.933594 12.285156 C 35.296875 12.285156 36.5625 12.292969 36.75 12.296875 M 20.066406 14.273438 L 20.066406 14.777344 L 20.851562 14.777344 C 21.632812 14.777344 21.632812 14.777344 21.726562 14.734375 C 22.050781 14.582031 22.121094 14.144531 21.859375 13.90625 C 21.707031 13.765625 21.726562 13.769531 20.851562 13.769531 L 20.066406 13.769531 L 20.066406 14.273438 M 20.066406 17.082031 L 20.066406 17.835938 L 20.832031 17.835938 C 21.777344 17.832031 21.820312 17.824219 22.035156 17.597656 C 22.386719 17.222656 22.277344 16.640625 21.8125 16.410156 L 21.671875 16.34375 L 20.871094 16.335938 L 20.066406 16.332031 L 20.066406 17.082031 M 9.410156 21.574219 C 10.621094 21.796875 11.292969 23.160156 10.738281 24.289062 C 10.21875 25.351562 8.824219 25.671875 7.90625 24.941406 C 6.554688 23.867188 7.175781 21.746094 8.898438 21.542969 C 8.988281 21.535156 9.289062 21.550781 9.410156 21.574219 M 13.339844 21.578125 C 14.597656 21.835938 15.230469 23.316406 14.554688 24.429688 C 13.683594 25.867188 11.523438 25.53125 11.117188 23.894531 C 10.78125 22.539062 11.972656 21.296875 13.339844 21.578125 M 17.078125 21.550781 C 18.644531 21.761719 19.273438 23.730469 18.121094 24.824219 C 16.921875 25.964844 14.960938 25.117188 14.953125 23.457031 C 14.949219 22.28125 15.929688 21.398438 17.078125 21.550781 M 21.125 21.578125 C 22.574219 21.890625 23.109375 23.730469 22.054688 24.785156 C 20.855469 25.984375 18.851562 25.148438 18.851562 23.445312 C 18.847656 22.210938 19.933594 21.320312 21.125 21.578125 M 25.058594 21.585938 C 27.210938 22.140625 26.828125 25.332031 24.609375 25.332031 C 22.261719 25.332031 22.054688 21.898438 24.378906 21.542969 C 24.511719 21.523438 24.914062 21.550781 25.058594 21.585938 M 28.976562 21.597656 C 30.371094 21.957031 30.863281 23.730469 29.855469 24.765625 C 28.886719 25.757812 27.242188 25.425781 26.746094 24.140625 C 26.183594 22.683594 27.476562 21.207031 28.976562 21.597656 " fill-opacity="1" fill-rule="evenodd"/></g><path fill="#50b14c" d="M 16.726562 21.582031 C 16.644531 21.597656 16.554688 21.605469 16.523438 21.605469 C 16.457031 21.605469 16.335938 21.640625 16.296875 21.671875 C 16.28125 21.683594 16.234375 21.699219 16.195312 21.703125 C 16.140625 21.707031 16.121094 21.714844 16.125 21.738281 C 16.125 21.753906 16.117188 21.765625 16.101562 21.757812 C 16.089844 21.753906 16.050781 21.765625 16.019531 21.78125 C 15.960938 21.8125 15.960938 21.8125 15.984375 21.78125 C 16.007812 21.753906 16.003906 21.753906 15.960938 21.773438 C 15.925781 21.789062 15.917969 21.800781 15.933594 21.808594 C 15.949219 21.820312 15.9375 21.835938 15.898438 21.855469 C 15.863281 21.875 15.839844 21.894531 15.839844 21.902344 C 15.839844 21.910156 15.824219 21.910156 15.804688 21.90625 C 15.777344 21.894531 15.777344 21.894531 15.800781 21.921875 C 15.828125 21.957031 15.816406 21.964844 15.765625 21.933594 C 15.738281 21.921875 15.730469 21.921875 15.734375 21.9375 C 15.734375 21.949219 15.722656 21.96875 15.699219 21.980469 C 15.679688 21.992188 15.664062 22.007812 15.667969 22.019531 C 15.671875 22.03125 15.652344 22.058594 15.625 22.082031 C 15.597656 22.101562 15.5625 22.128906 15.546875 22.140625 C 15.53125 22.15625 15.507812 22.164062 15.496094 22.160156 C 15.484375 22.15625 15.472656 22.160156 15.464844 22.171875 C 15.457031 22.183594 15.464844 22.1875 15.484375 22.179688 C 15.507812 22.171875 15.507812 22.171875 15.488281 22.207031 C 15.476562 22.226562 15.457031 22.238281 15.445312 22.234375 C 15.433594 22.230469 15.417969 22.238281 15.410156 22.257812 C 15.40625 22.273438 15.390625 22.28125 15.378906 22.273438 C 15.367188 22.265625 15.363281 22.273438 15.371094 22.296875 C 15.375 22.316406 15.363281 22.347656 15.335938 22.382812 C 15.3125 22.410156 15.285156 22.449219 15.28125 22.46875 C 15.273438 22.488281 15.261719 22.503906 15.25 22.503906 C 15.238281 22.503906 15.234375 22.523438 15.242188 22.554688 C 15.25 22.59375 15.25 22.597656 15.234375 22.578125 C 15.21875 22.554688 15.214844 22.5625 15.222656 22.601562 C 15.230469 22.632812 15.230469 22.648438 15.21875 22.640625 C 15.191406 22.625 15.113281 22.769531 15.097656 22.859375 C 15.085938 22.90625 15.078125 22.921875 15.066406 22.902344 C 15.058594 22.886719 15.054688 22.902344 15.0625 22.9375 C 15.070312 22.976562 15.066406 23.007812 15.050781 23.023438 C 15.039062 23.039062 15.03125 23.070312 15.039062 23.089844 C 15.042969 23.113281 15.035156 23.175781 15.023438 23.230469 C 15.007812 23.285156 14.996094 23.355469 15 23.386719 C 15 23.4375 15.003906 23.433594 15.015625 23.363281 C 15.023438 23.308594 15.027344 23.347656 15.027344 23.5 C 15.027344 23.707031 15.027344 23.714844 15.003906 23.648438 C 14.988281 23.597656 14.980469 23.589844 14.980469 23.617188 C 14.980469 23.636719 14.996094 23.699219 15.015625 23.75 C 15.035156 23.804688 15.046875 23.855469 15.042969 23.871094 C 15.03125 23.902344 15.0625 23.921875 15.078125 23.890625 C 15.082031 23.878906 15.082031 23.898438 15.078125 23.933594 C 15.070312 23.980469 15.070312 23.988281 15.085938 23.96875 C 15.113281 23.933594 15.113281 23.960938 15.085938 24.011719 C 15.074219 24.03125 15.070312 24.042969 15.078125 24.035156 C 15.09375 24.023438 15.140625 24.136719 15.140625 24.195312 C 15.144531 24.214844 15.152344 24.222656 15.164062 24.214844 C 15.179688 24.203125 15.183594 24.214844 15.175781 24.242188 C 15.167969 24.265625 15.171875 24.285156 15.191406 24.292969 C 15.207031 24.296875 15.214844 24.3125 15.214844 24.328125 C 15.214844 24.34375 15.226562 24.359375 15.242188 24.363281 C 15.257812 24.371094 15.269531 24.382812 15.273438 24.394531 C 15.273438 24.40625 15.296875 24.445312 15.328125 24.480469 C 15.355469 24.515625 15.378906 24.554688 15.378906 24.5625 C 15.378906 24.574219 15.414062 24.617188 15.453125 24.65625 C 15.496094 24.695312 15.523438 24.738281 15.519531 24.75 C 15.511719 24.765625 15.515625 24.773438 15.523438 24.765625 C 15.535156 24.761719 15.570312 24.777344 15.605469 24.800781 C 15.652344 24.832031 15.675781 24.839844 15.683594 24.824219 C 15.6875 24.8125 15.6875 24.820312 15.683594 24.839844 C 15.675781 24.871094 15.683594 24.890625 15.71875 24.914062 C 15.742188 24.929688 15.761719 24.949219 15.757812 24.957031 C 15.75 24.964844 15.761719 24.96875 15.78125 24.964844 C 15.800781 24.957031 15.820312 24.964844 15.828125 24.972656 C 15.835938 24.984375 15.859375 24.992188 15.878906 24.992188 C 15.902344 24.992188 15.917969 25.003906 15.925781 25.027344 C 15.929688 25.046875 15.953125 25.070312 15.976562 25.074219 C 16 25.082031 16.023438 25.09375 16.023438 25.101562 C 16.023438 25.113281 16.042969 25.113281 16.074219 25.105469 C 16.117188 25.09375 16.128906 25.09375 16.121094 25.113281 C 16.113281 25.128906 16.097656 25.140625 16.078125 25.144531 C 16.0625 25.148438 16.089844 25.160156 16.140625 25.167969 C 16.273438 25.1875 16.292969 25.191406 16.257812 25.214844 C 16.238281 25.226562 16.238281 25.230469 16.269531 25.230469 C 16.34375 25.230469 16.691406 25.273438 16.71875 25.285156 C 16.753906 25.304688 16.996094 25.308594 17.023438 25.289062 C 17.035156 25.285156 17.007812 25.277344 16.960938 25.277344 C 16.871094 25.273438 16.859375 25.265625 16.875 25.226562 C 16.890625 25.1875 16.917969 25.1875 16.917969 25.222656 C 16.917969 25.246094 16.96875 25.261719 17.019531 25.25 C 17.027344 25.25 17.058594 25.257812 17.085938 25.269531 C 17.125 25.285156 17.144531 25.285156 17.179688 25.265625 C 17.203125 25.253906 17.238281 25.246094 17.257812 25.246094 C 17.304688 25.253906 17.410156 25.210938 17.40625 25.1875 C 17.40625 25.175781 17.425781 25.164062 17.449219 25.160156 C 17.492188 25.15625 17.542969 25.121094 17.542969 25.09375 C 17.542969 25.089844 17.527344 25.09375 17.507812 25.101562 C 17.457031 25.128906 17.441406 25.125 17.464844 25.097656 C 17.476562 25.082031 17.480469 25.066406 17.472656 25.058594 C 17.464844 25.046875 17.472656 25.050781 17.488281 25.0625 C 17.511719 25.078125 17.523438 25.082031 17.53125 25.066406 C 17.550781 25.039062 17.582031 25.042969 17.574219 25.074219 C 17.566406 25.085938 17.582031 25.109375 17.601562 25.121094 C 17.640625 25.144531 17.640625 25.144531 17.613281 25.113281 C 17.597656 25.089844 17.59375 25.082031 17.609375 25.09375 C 17.644531 25.113281 17.742188 25.070312 17.742188 25.03125 C 17.742188 25.007812 17.746094 25.007812 17.761719 25.03125 C 17.777344 25.054688 17.78125 25.050781 17.789062 25.015625 C 17.796875 24.996094 17.808594 24.976562 17.820312 24.976562 C 17.828125 24.976562 17.832031 24.984375 17.824219 24.992188 C 17.808594 25.019531 17.839844 25.015625 17.867188 24.988281 C 17.898438 24.960938 17.894531 24.941406 17.855469 24.933594 C 17.832031 24.925781 17.835938 24.925781 17.863281 24.925781 C 17.886719 24.929688 17.917969 24.917969 17.9375 24.902344 C 17.964844 24.878906 17.96875 24.878906 17.957031 24.910156 C 17.933594 24.972656 17.976562 24.921875 18.015625 24.835938 C 18.035156 24.796875 18.054688 24.773438 18.054688 24.785156 C 18.054688 24.800781 18.109375 24.757812 18.171875 24.691406 C 18.28125 24.582031 18.320312 24.535156 18.273438 24.5625 C 18.265625 24.570312 18.253906 24.5625 18.253906 24.546875 C 18.253906 24.53125 18.265625 24.519531 18.28125 24.519531 C 18.292969 24.519531 18.316406 24.503906 18.328125 24.492188 C 18.339844 24.476562 18.359375 24.46875 18.371094 24.476562 C 18.382812 24.480469 18.382812 24.476562 18.378906 24.46875 C 18.359375 24.441406 18.402344 24.351562 18.433594 24.351562 C 18.445312 24.351562 18.457031 24.339844 18.457031 24.324219 C 18.457031 24.308594 18.464844 24.285156 18.472656 24.265625 C 18.507812 24.199219 18.535156 24.125 18.53125 24.109375 C 18.53125 24.101562 18.542969 24.082031 18.558594 24.066406 C 18.574219 24.050781 18.585938 24.015625 18.585938 23.984375 C 18.585938 23.957031 18.597656 23.902344 18.613281 23.863281 C 18.628906 23.828125 18.640625 23.785156 18.640625 23.765625 C 18.640625 23.746094 18.648438 23.730469 18.65625 23.738281 C 18.679688 23.753906 18.664062 23.183594 18.640625 23.152344 C 18.621094 23.128906 18.621094 23.128906 18.652344 23.136719 C 18.679688 23.148438 18.683594 23.144531 18.664062 23.125 C 18.648438 23.109375 18.640625 23.089844 18.640625 23.070312 C 18.640625 23.050781 18.632812 23.035156 18.621094 23.03125 C 18.609375 23.027344 18.59375 22.980469 18.589844 22.929688 C 18.585938 22.875 18.574219 22.835938 18.566406 22.84375 C 18.558594 22.847656 18.546875 22.816406 18.539062 22.769531 C 18.535156 22.726562 18.515625 22.6875 18.503906 22.679688 C 18.488281 22.675781 18.472656 22.644531 18.464844 22.617188 C 18.460938 22.585938 18.441406 22.558594 18.429688 22.550781 C 18.414062 22.546875 18.402344 22.519531 18.402344 22.492188 C 18.402344 22.46875 18.394531 22.453125 18.382812 22.457031 C 18.375 22.464844 18.367188 22.457031 18.367188 22.445312 C 18.367188 22.429688 18.347656 22.402344 18.328125 22.382812 C 18.308594 22.367188 18.292969 22.339844 18.300781 22.328125 C 18.3125 22.289062 18.277344 22.25 18.253906 22.285156 C 18.238281 22.308594 18.238281 22.308594 18.238281 22.28125 C 18.238281 22.265625 18.222656 22.238281 18.199219 22.21875 C 18.179688 22.203125 18.164062 22.175781 18.164062 22.167969 C 18.164062 22.140625 18.074219 22.097656 18.050781 22.113281 C 18.042969 22.117188 18.042969 22.105469 18.046875 22.089844 C 18.058594 22.066406 18.054688 22.0625 18.039062 22.074219 C 18.019531 22.085938 18.019531 22.078125 18.035156 22.042969 C 18.050781 22.019531 18.050781 22.007812 18.042969 22.015625 C 18.035156 22.019531 18.015625 22.015625 17.996094 21.996094 C 17.976562 21.980469 17.945312 21.964844 17.921875 21.964844 C 17.898438 21.960938 17.882812 21.949219 17.882812 21.933594 C 17.882812 21.914062 17.875 21.90625 17.851562 21.914062 C 17.8125 21.921875 17.804688 21.890625 17.839844 21.875 C 17.851562 21.867188 17.84375 21.867188 17.820312 21.871094 C 17.792969 21.875 17.773438 21.867188 17.757812 21.847656 C 17.734375 21.8125 17.589844 21.753906 17.539062 21.753906 C 17.523438 21.753906 17.5 21.742188 17.488281 21.726562 C 17.472656 21.710938 17.457031 21.703125 17.449219 21.707031 C 17.441406 21.710938 17.410156 21.703125 17.375 21.691406 C 17.320312 21.667969 17.320312 21.664062 17.351562 21.644531 C 17.378906 21.625 17.382812 21.625 17.355469 21.632812 C 17.335938 21.636719 17.300781 21.632812 17.273438 21.625 C 17.242188 21.613281 17.230469 21.613281 17.238281 21.625 C 17.246094 21.636719 17.234375 21.644531 17.210938 21.644531 C 17.191406 21.644531 17.175781 21.636719 17.183594 21.628906 C 17.195312 21.609375 17.050781 21.585938 16.941406 21.585938 C 16.890625 21.589844 16.863281 21.582031 16.871094 21.570312 C 16.878906 21.558594 16.882812 21.550781 16.878906 21.554688 C 16.828125 21.5625 16.777344 21.574219 16.726562 21.582031 M 20.378906 21.578125 C 19.335938 21.800781 18.652344 22.847656 18.894531 23.855469 C 19.265625 25.386719 21.175781 25.847656 22.152344 24.644531 C 22.289062 24.476562 22.296875 24.464844 22.386719 24.292969 C 22.589844 23.902344 22.667969 23.1875 22.53125 22.992188 C 22.515625 22.972656 22.511719 22.945312 22.515625 22.933594 C 22.550781 22.84375 22.285156 22.363281 22.082031 22.148438 C 21.886719 21.941406 21.46875 21.671875 21.285156 21.636719 C 21.265625 21.632812 21.242188 21.628906 21.222656 21.621094 C 21.105469 21.578125 21.011719 21.566406 20.773438 21.558594 C 20.582031 21.554688 20.460938 21.558594 20.378906 21.578125 M 24.242188 21.578125 C 22.292969 22.019531 22.234375 24.773438 24.160156 25.28125 C 25.804688 25.710938 27.121094 23.785156 26.152344 22.363281 C 25.738281 21.757812 24.929688 21.425781 24.242188 21.578125 M 28.164062 21.570312 C 26.957031 21.785156 26.261719 23.183594 26.816406 24.28125 C 27.527344 25.679688 29.484375 25.683594 30.175781 24.28125 C 30.859375 22.898438 29.671875 21.300781 28.164062 21.570312 M 16.992188 21.613281 C 16.988281 21.617188 16.941406 21.625 16.890625 21.628906 C 16.832031 21.636719 16.8125 21.636719 16.835938 21.625 C 16.871094 21.609375 17.007812 21.597656 16.992188 21.613281 M 17.046875 21.660156 C 17.035156 21.667969 17.011719 21.671875 17 21.667969 C 16.960938 21.652344 16.96875 21.644531 17.023438 21.644531 C 17.0625 21.644531 17.066406 21.648438 17.046875 21.660156 M 17.515625 21.714844 C 17.519531 21.726562 17.542969 21.734375 17.566406 21.734375 C 17.605469 21.730469 17.605469 21.730469 17.570312 21.714844 C 17.519531 21.695312 17.5 21.695312 17.515625 21.714844 M 17.550781 21.789062 C 17.578125 21.800781 17.574219 21.804688 17.519531 21.804688 C 17.480469 21.808594 17.449219 21.800781 17.449219 21.789062 C 17.449219 21.769531 17.5 21.769531 17.550781 21.789062 M 16.132812 21.851562 C 16.132812 21.882812 16.097656 21.910156 16.082031 21.894531 C 16.066406 21.878906 16.089844 21.824219 16.113281 21.824219 C 16.125 21.824219 16.132812 21.839844 16.132812 21.851562 M 16.058594 21.878906 C 16.058594 21.90625 15.984375 21.972656 15.964844 21.960938 C 15.945312 21.949219 15.941406 21.875 15.960938 21.886719 C 15.96875 21.890625 15.992188 21.886719 16.011719 21.878906 C 16.03125 21.871094 16.050781 21.863281 16.054688 21.863281 C 16.054688 21.863281 16.058594 21.871094 16.058594 21.878906 M 17.652344 21.890625 C 17.652344 21.90625 17.644531 21.917969 17.625 21.917969 C 17.59375 21.917969 17.574219 21.890625 17.589844 21.875 C 17.613281 21.851562 17.652344 21.863281 17.652344 21.890625 M 17.847656 21.964844 C 17.851562 21.964844 17.828125 21.964844 17.800781 21.964844 C 17.757812 21.964844 17.75 21.957031 17.765625 21.941406 C 17.78125 21.921875 17.789062 21.921875 17.8125 21.941406 C 17.832031 21.953125 17.847656 21.964844 17.847656 21.964844 M 17.578125 21.953125 C 17.578125 21.960938 17.558594 21.96875 17.539062 21.964844 C 17.480469 21.953125 17.472656 21.9375 17.527344 21.9375 C 17.554688 21.9375 17.578125 21.945312 17.578125 21.953125 M 17.914062 22.089844 C 17.917969 22.117188 17.914062 22.136719 17.90625 22.136719 C 17.898438 22.136719 17.890625 22.117188 17.890625 22.089844 C 17.890625 22.066406 17.890625 22.046875 17.894531 22.046875 C 17.898438 22.046875 17.90625 22.066406 17.914062 22.089844 M 18.128906 22.246094 C 18.128906 22.261719 18.023438 22.257812 18.003906 22.242188 C 18 22.234375 18.023438 22.230469 18.058594 22.230469 C 18.097656 22.230469 18.128906 22.234375 18.128906 22.246094 M 18.238281 22.355469 C 18.253906 22.386719 18.25 22.394531 18.222656 22.394531 C 18.203125 22.394531 18.199219 22.402344 18.214844 22.40625 C 18.226562 22.410156 18.238281 22.433594 18.238281 22.453125 C 18.238281 22.484375 18.234375 22.484375 18.210938 22.46875 C 18.195312 22.453125 18.183594 22.417969 18.1875 22.382812 C 18.191406 22.3125 18.207031 22.304688 18.238281 22.355469 M 15.488281 22.480469 C 15.484375 22.535156 15.472656 22.550781 15.441406 22.554688 C 15.390625 22.5625 15.390625 22.539062 15.425781 22.464844 C 15.464844 22.390625 15.492188 22.398438 15.488281 22.480469 M 18.292969 22.546875 C 18.269531 22.570312 18.226562 22.535156 18.246094 22.503906 C 18.253906 22.488281 18.265625 22.488281 18.285156 22.503906 C 18.304688 22.519531 18.304688 22.535156 18.292969 22.546875 M 15.253906 22.8125 C 15.253906 22.832031 15.246094 22.855469 15.234375 22.859375 C 15.222656 22.867188 15.214844 22.851562 15.214844 22.824219 C 15.214844 22.800781 15.222656 22.777344 15.234375 22.777344 C 15.246094 22.777344 15.253906 22.792969 15.253906 22.8125 M 14.996094 23.175781 C 14.984375 23.199219 14.980469 23.226562 14.984375 23.230469 C 14.996094 23.242188 15.003906 23.222656 15.023438 23.148438 C 15.039062 23.105469 15.015625 23.125 14.996094 23.175781 M 18.570312 23.46875 C 18.574219 23.613281 18.570312 23.730469 18.5625 23.730469 C 18.554688 23.730469 18.550781 23.601562 18.550781 23.441406 C 18.554688 23.097656 18.5625 23.109375 18.570312 23.46875 M 15.089844 23.699219 C 15.074219 23.730469 15.070312 23.722656 15.070312 23.65625 C 15.070312 23.589844 15.074219 23.582031 15.089844 23.617188 C 15.097656 23.640625 15.097656 23.675781 15.089844 23.699219 M 15.253906 24.015625 C 15.253906 24.101562 15.226562 24.125 15.210938 24.058594 C 15.195312 24.007812 15.214844 23.910156 15.238281 23.925781 C 15.246094 23.929688 15.253906 23.96875 15.253906 24.015625 M 15.488281 24.367188 C 15.488281 24.390625 15.480469 24.414062 15.472656 24.433594 C 15.449219 24.496094 15.421875 24.417969 15.433594 24.332031 C 15.4375 24.304688 15.492188 24.339844 15.488281 24.367188 M 17.933594 24.8125 C 17.933594 24.84375 17.925781 24.875 17.914062 24.878906 C 17.894531 24.886719 17.890625 24.863281 17.890625 24.8125 C 17.890625 24.757812 17.894531 24.738281 17.914062 24.742188 C 17.925781 24.746094 17.933594 24.777344 17.933594 24.8125 M 15.816406 24.859375 C 15.808594 24.878906 15.804688 24.863281 15.804688 24.828125 C 15.804688 24.792969 15.808594 24.78125 15.816406 24.796875 C 15.820312 24.820312 15.820312 24.839844 15.816406 24.859375 M 17.578125 24.921875 C 17.578125 24.933594 17.554688 24.9375 17.527344 24.9375 C 17.496094 24.9375 17.484375 24.933594 17.5 24.921875 C 17.53125 24.902344 17.578125 24.902344 17.578125 24.921875 M 17.789062 24.929688 C 17.769531 24.945312 17.75 24.953125 17.742188 24.945312 C 17.710938 24.929688 17.726562 24.910156 17.773438 24.90625 C 17.824219 24.902344 17.824219 24.90625 17.789062 24.929688 M 16.015625 24.957031 C 16.011719 25 16.007812 25.003906 15.976562 24.96875 C 15.953125 24.949219 15.953125 24.941406 15.972656 24.933594 C 16.011719 24.917969 16.019531 24.921875 16.015625 24.957031 M 17.652344 24.984375 C 17.652344 25.003906 17.644531 25.011719 17.625 25.011719 C 17.59375 25.011719 17.574219 24.984375 17.589844 24.96875 C 17.613281 24.945312 17.652344 24.957031 17.652344 24.984375 M 16.121094 25.019531 C 16.125 25.035156 16.117188 25.050781 16.105469 25.054688 C 16.085938 25.0625 16.078125 25.042969 16.09375 25 C 16.097656 24.984375 16.109375 24.996094 16.121094 25.019531 M 16.820312 25.230469 C 16.835938 25.230469 16.847656 25.238281 16.847656 25.25 C 16.847656 25.269531 16.785156 25.273438 16.71875 25.257812 C 16.675781 25.246094 16.675781 25.242188 16.710938 25.230469 C 16.730469 25.222656 16.757812 25.21875 16.769531 25.222656 C 16.78125 25.226562 16.804688 25.230469 16.820312 25.230469 " fill-opacity="1" fill-rule="evenodd"/><path fill="#8ccb89" d="M 34.804688 12.300781 C 35.128906 12.304688 35.660156 12.304688 35.984375 12.300781 C 36.308594 12.296875 36.042969 12.296875 35.394531 12.296875 C 34.746094 12.296875 34.480469 12.296875 34.804688 12.300781 M 30.292969 13.121094 C 30.292969 13.511719 30.296875 13.671875 30.300781 13.472656 C 30.300781 13.269531 30.300781 12.949219 30.300781 12.757812 C 30.296875 12.5625 30.292969 12.726562 30.292969 13.121094 M 20.058594 13.773438 C 20.054688 13.785156 20.050781 14.019531 20.054688 14.292969 L 20.058594 14.785156 L 21.570312 14.785156 L 20.820312 14.78125 L 20.066406 14.777344 L 20.066406 13.769531 L 20.824219 13.765625 L 21.578125 13.761719 L 20.824219 13.753906 C 20.226562 13.753906 20.066406 13.757812 20.058594 13.773438 M 31.828125 13.949219 C 32.019531 13.949219 32.324219 13.949219 32.507812 13.949219 C 32.691406 13.945312 32.535156 13.941406 32.164062 13.941406 C 31.789062 13.941406 31.640625 13.945312 31.828125 13.949219 M 29.21875 13.964844 C 29.394531 13.96875 29.675781 13.96875 29.851562 13.964844 C 30.023438 13.964844 29.882812 13.960938 29.535156 13.960938 C 29.1875 13.960938 29.046875 13.964844 29.21875 13.964844 M 27.070312 14.503906 C 27.070312 14.757812 27.074219 14.863281 27.078125 14.734375 C 27.078125 14.605469 27.078125 14.398438 27.078125 14.269531 C 27.074219 14.140625 27.070312 14.246094 27.070312 14.503906 M 27.296875 15.011719 C 27.398438 15.011719 27.570312 15.011719 27.671875 15.011719 C 27.773438 15.007812 27.691406 15.003906 27.484375 15.003906 C 27.277344 15.003906 27.191406 15.007812 27.296875 15.011719 M 20.058594 17.089844 L 20.058594 17.84375 L 21.523438 17.84375 L 20.070312 17.835938 L 20.0625 17.082031 L 20.058594 16.332031 L 20.058594 17.089844 M 27.070312 16.875 C 27.070312 16.972656 27.074219 17.011719 27.078125 16.960938 C 27.082031 16.90625 27.082031 16.824219 27.078125 16.777344 C 27.074219 16.730469 27.070312 16.773438 27.070312 16.875 M 24.082031 17.375 C 24.082031 17.433594 24.085938 17.453125 24.089844 17.425781 C 24.09375 17.394531 24.09375 17.359375 24.089844 17.328125 C 24.085938 17.296875 24.082031 17.320312 24.082031 17.375 M 22.015625 17.621094 L 21.964844 17.679688 L 22.023438 17.625 C 22.078125 17.574219 22.089844 17.558594 22.078125 17.558594 C 22.074219 17.558594 22.046875 17.585938 22.015625 17.621094 M 30.117188 17.9375 C 30.160156 17.941406 30.230469 17.941406 30.273438 17.9375 C 30.316406 17.9375 30.28125 17.933594 30.195312 17.933594 C 30.109375 17.933594 30.074219 17.9375 30.117188 17.9375 M 23.425781 18.957031 L 23.355469 19.035156 L 23.433594 18.960938 C 23.503906 18.894531 23.519531 18.878906 23.503906 18.878906 C 23.503906 18.878906 23.46875 18.914062 23.425781 18.957031 M 8.089844 19.605469 C 8.335938 19.609375 8.730469 19.609375 8.96875 19.605469 C 9.207031 19.601562 9.007812 19.601562 8.523438 19.601562 C 8.039062 19.601562 7.84375 19.601562 8.089844 19.605469 M 11.914062 19.605469 C 12.179688 19.609375 12.613281 19.609375 12.875 19.605469 C 13.140625 19.601562 12.925781 19.601562 12.394531 19.601562 C 11.867188 19.601562 11.652344 19.601562 11.914062 19.605469 M 27.976562 19.605469 C 28.421875 19.609375 29.148438 19.609375 29.585938 19.605469 C 30.027344 19.601562 29.660156 19.601562 28.773438 19.601562 C 27.890625 19.601562 27.527344 19.601562 27.976562 19.605469 M 34.6875 19.605469 C 34.773438 19.609375 34.914062 19.609375 34.996094 19.605469 C 35.078125 19.601562 35.007812 19.601562 34.835938 19.601562 C 34.664062 19.601562 34.597656 19.601562 34.6875 19.605469 M 8.898438 21.542969 C 7.175781 21.746094 6.554688 23.867188 7.90625 24.941406 C 9.132812 25.917969 10.921875 25.023438 10.921875 23.4375 C 10.921875 22.3125 9.96875 21.417969 8.898438 21.542969 M 12.683594 21.550781 C 11.589844 21.703125 10.851562 22.8125 11.117188 23.894531 C 11.523438 25.53125 13.683594 25.867188 14.554688 24.429688 C 15.378906 23.070312 14.25 21.335938 12.683594 21.550781 M 16.546875 21.554688 C 16.480469 21.566406 16.425781 21.582031 16.425781 21.589844 C 16.425781 21.609375 16.554688 21.621094 16.597656 21.605469 C 16.65625 21.582031 16.882812 21.554688 16.871094 21.574219 C 16.863281 21.582031 16.898438 21.589844 16.941406 21.585938 C 17.050781 21.585938 17.195312 21.609375 17.183594 21.628906 C 17.175781 21.636719 17.191406 21.644531 17.210938 21.644531 C 17.234375 21.644531 17.246094 21.636719 17.238281 21.625 C 17.230469 21.613281 17.242188 21.613281 17.273438 21.625 C 17.300781 21.632812 17.335938 21.636719 17.355469 21.632812 C 17.382812 21.625 17.378906 21.625 17.351562 21.644531 C 17.320312 21.664062 17.320312 21.667969 17.375 21.691406 C 17.410156 21.703125 17.441406 21.710938 17.449219 21.707031 C 17.457031 21.703125 17.472656 21.710938 17.488281 21.726562 C 17.5 21.742188 17.523438 21.753906 17.539062 21.753906 C 17.589844 21.753906 17.734375 21.8125 17.757812 21.847656 C 17.769531 21.867188 17.796875 21.875 17.820312 21.871094 C 17.84375 21.867188 17.851562 21.867188 17.839844 21.875 C 17.804688 21.890625 17.8125 21.921875 17.851562 21.914062 C 17.875 21.90625 17.882812 21.914062 17.882812 21.933594 C 17.882812 21.949219 17.898438 21.960938 17.921875 21.964844 C 17.945312 21.964844 17.976562 21.980469 17.996094 21.996094 C 18.015625 22.015625 18.035156 22.019531 18.042969 22.015625 C 18.050781 22.007812 18.050781 22.019531 18.035156 22.042969 C 18.019531 22.078125 18.019531 22.085938 18.039062 22.074219 C 18.054688 22.0625 18.058594 22.066406 18.046875 22.089844 C 18.042969 22.105469 18.042969 22.117188 18.050781 22.113281 C 18.074219 22.097656 18.164062 22.140625 18.164062 22.167969 C 18.164062 22.175781 18.179688 22.203125 18.199219 22.21875 C 18.222656 22.238281 18.238281 22.265625 18.238281 22.28125 C 18.238281 22.308594 18.238281 22.308594 18.253906 22.285156 C 18.277344 22.25 18.3125 22.289062 18.300781 22.328125 C 18.292969 22.339844 18.304688 22.363281 18.320312 22.375 C 18.335938 22.386719 18.339844 22.40625 18.335938 22.417969 C 18.328125 22.429688 18.332031 22.429688 18.34375 22.421875 C 18.355469 22.414062 18.367188 22.421875 18.367188 22.441406 C 18.367188 22.457031 18.375 22.464844 18.382812 22.457031 C 18.394531 22.453125 18.402344 22.46875 18.402344 22.492188 C 18.402344 22.519531 18.414062 22.546875 18.429688 22.550781 C 18.441406 22.558594 18.460938 22.585938 18.464844 22.617188 C 18.472656 22.644531 18.492188 22.675781 18.507812 22.679688 C 18.527344 22.6875 18.53125 22.707031 18.523438 22.75 C 18.515625 22.789062 18.515625 22.796875 18.53125 22.777344 C 18.542969 22.757812 18.546875 22.761719 18.546875 22.800781 C 18.546875 22.832031 18.554688 22.847656 18.566406 22.84375 C 18.574219 22.839844 18.585938 22.875 18.589844 22.929688 C 18.59375 22.980469 18.609375 23.027344 18.621094 23.03125 C 18.632812 23.035156 18.640625 23.050781 18.640625 23.070312 C 18.640625 23.085938 18.652344 23.113281 18.664062 23.125 C 18.683594 23.144531 18.679688 23.148438 18.652344 23.136719 C 18.621094 23.128906 18.621094 23.128906 18.640625 23.152344 C 18.664062 23.183594 18.679688 23.679688 18.65625 23.730469 C 18.625 23.800781 18.585938 23.945312 18.585938 23.988281 C 18.585938 24.015625 18.574219 24.050781 18.558594 24.066406 C 18.542969 24.082031 18.53125 24.101562 18.53125 24.109375 C 18.535156 24.125 18.507812 24.199219 18.472656 24.265625 C 18.464844 24.285156 18.457031 24.304688 18.457031 24.324219 C 18.457031 24.339844 18.445312 24.351562 18.433594 24.351562 C 18.402344 24.351562 18.359375 24.441406 18.378906 24.46875 C 18.382812 24.476562 18.382812 24.480469 18.371094 24.476562 C 18.359375 24.46875 18.339844 24.476562 18.328125 24.492188 C 18.316406 24.503906 18.292969 24.519531 18.28125 24.519531 C 18.265625 24.519531 18.253906 24.53125 18.253906 24.546875 C 18.253906 24.5625 18.265625 24.570312 18.273438 24.5625 C 18.320312 24.535156 18.28125 24.582031 18.171875 24.691406 C 18.109375 24.757812 18.054688 24.800781 18.054688 24.785156 C 18.054688 24.773438 18.035156 24.796875 18.015625 24.835938 C 17.976562 24.921875 17.933594 24.972656 17.957031 24.910156 C 17.96875 24.878906 17.964844 24.878906 17.9375 24.902344 C 17.917969 24.917969 17.886719 24.929688 17.863281 24.925781 C 17.835938 24.925781 17.832031 24.925781 17.855469 24.933594 C 17.894531 24.941406 17.898438 24.960938 17.867188 24.988281 C 17.839844 25.015625 17.808594 25.019531 17.824219 24.992188 C 17.832031 24.984375 17.828125 24.976562 17.820312 24.976562 C 17.808594 24.976562 17.796875 24.996094 17.789062 25.015625 C 17.78125 25.050781 17.777344 25.054688 17.761719 25.03125 C 17.746094 25.007812 17.742188 25.007812 17.742188 25.03125 C 17.742188 25.070312 17.644531 25.113281 17.609375 25.09375 C 17.59375 25.082031 17.597656 25.089844 17.613281 25.113281 C 17.640625 25.144531 17.640625 25.144531 17.601562 25.121094 C 17.582031 25.109375 17.566406 25.085938 17.574219 25.074219 C 17.582031 25.042969 17.550781 25.039062 17.53125 25.066406 C 17.523438 25.082031 17.511719 25.078125 17.488281 25.0625 C 17.472656 25.050781 17.464844 25.046875 17.472656 25.058594 C 17.480469 25.066406 17.476562 25.082031 17.464844 25.097656 C 17.441406 25.125 17.457031 25.128906 17.507812 25.101562 C 17.527344 25.09375 17.542969 25.089844 17.542969 25.09375 C 17.542969 25.121094 17.492188 25.15625 17.449219 25.160156 C 17.425781 25.164062 17.40625 25.175781 17.410156 25.183594 C 17.417969 25.210938 17.359375 25.230469 17.304688 25.222656 C 17.261719 25.214844 17.261719 25.214844 17.292969 25.230469 C 17.328125 25.246094 17.324219 25.25 17.277344 25.246094 C 17.246094 25.246094 17.203125 25.253906 17.179688 25.265625 C 17.144531 25.285156 17.125 25.285156 17.085938 25.269531 C 17.058594 25.257812 17.027344 25.25 17.019531 25.25 C 16.96875 25.261719 16.917969 25.246094 16.917969 25.222656 C 16.917969 25.1875 16.890625 25.1875 16.875 25.226562 C 16.859375 25.265625 16.871094 25.273438 16.960938 25.277344 C 17.007812 25.277344 17.035156 25.285156 17.023438 25.289062 C 16.996094 25.308594 16.753906 25.304688 16.71875 25.285156 C 16.703125 25.277344 16.605469 25.265625 16.5 25.253906 C 16.375 25.242188 16.300781 25.226562 16.28125 25.207031 C 16.261719 25.191406 16.222656 25.175781 16.195312 25.175781 C 16.132812 25.171875 16.035156 25.144531 16.078125 25.140625 C 16.097656 25.140625 16.113281 25.128906 16.121094 25.113281 C 16.128906 25.09375 16.117188 25.09375 16.074219 25.105469 C 16.042969 25.113281 16.023438 25.113281 16.023438 25.101562 C 16.023438 25.09375 16 25.082031 15.976562 25.074219 C 15.953125 25.070312 15.929688 25.046875 15.925781 25.027344 C 15.917969 25.003906 15.902344 24.992188 15.878906 24.992188 C 15.859375 24.992188 15.835938 24.984375 15.828125 24.972656 C 15.820312 24.964844 15.800781 24.957031 15.78125 24.964844 C 15.761719 24.96875 15.75 24.964844 15.757812 24.957031 C 15.761719 24.949219 15.742188 24.929688 15.71875 24.914062 C 15.683594 24.890625 15.675781 24.871094 15.683594 24.839844 C 15.6875 24.820312 15.6875 24.8125 15.683594 24.824219 C 15.675781 24.839844 15.652344 24.832031 15.605469 24.800781 C 15.570312 24.777344 15.535156 24.761719 15.523438 24.765625 C 15.515625 24.773438 15.511719 24.765625 15.519531 24.75 C 15.523438 24.738281 15.496094 24.695312 15.453125 24.65625 C 15.414062 24.617188 15.378906 24.574219 15.378906 24.5625 C 15.378906 24.554688 15.355469 24.515625 15.328125 24.480469 C 15.296875 24.445312 15.273438 24.40625 15.273438 24.394531 C 15.269531 24.382812 15.257812 24.371094 15.242188 24.363281 C 15.226562 24.359375 15.214844 24.34375 15.214844 24.328125 C 15.214844 24.3125 15.207031 24.296875 15.191406 24.292969 C 15.171875 24.285156 15.167969 24.265625 15.175781 24.242188 C 15.183594 24.214844 15.179688 24.203125 15.164062 24.214844 C 15.152344 24.222656 15.144531 24.214844 15.140625 24.195312 C 15.140625 24.136719 15.09375 24.023438 15.078125 24.035156 C 15.070312 24.042969 15.074219 24.03125 15.085938 24.011719 C 15.113281 23.960938 15.113281 23.933594 15.085938 23.96875 C 15.070312 23.988281 15.070312 23.980469 15.078125 23.933594 C 15.082031 23.898438 15.082031 23.878906 15.078125 23.890625 C 15.0625 23.921875 15.03125 23.902344 15.042969 23.871094 C 15.046875 23.855469 15.035156 23.804688 15.015625 23.75 C 14.996094 23.699219 14.980469 23.636719 14.980469 23.617188 C 14.980469 23.589844 14.988281 23.597656 15.003906 23.648438 C 15.027344 23.714844 15.027344 23.707031 15.027344 23.5 C 15.027344 23.347656 15.023438 23.308594 15.015625 23.363281 C 15.003906 23.433594 15 23.4375 15 23.386719 C 14.996094 23.355469 15.007812 23.285156 15.023438 23.226562 C 15.039062 23.171875 15.042969 23.113281 15.039062 23.097656 C 15.03125 23.082031 15.035156 23.050781 15.046875 23.027344 C 15.058594 23.007812 15.078125 22.945312 15.089844 22.886719 C 15.113281 22.773438 15.191406 22.625 15.21875 22.640625 C 15.230469 22.648438 15.230469 22.632812 15.222656 22.601562 C 15.214844 22.5625 15.21875 22.554688 15.234375 22.578125 C 15.25 22.597656 15.25 22.59375 15.242188 22.554688 C 15.234375 22.523438 15.238281 22.503906 15.25 22.503906 C 15.261719 22.503906 15.273438 22.488281 15.28125 22.46875 C 15.285156 22.449219 15.3125 22.410156 15.335938 22.382812 C 15.363281 22.347656 15.375 22.316406 15.371094 22.296875 C 15.363281 22.273438 15.367188 22.265625 15.378906 22.273438 C 15.390625 22.28125 15.40625 22.273438 15.410156 22.257812 C 15.417969 22.238281 15.429688 22.230469 15.441406 22.234375 C 15.453125 22.238281 15.484375 22.21875 15.507812 22.183594 C 15.535156 22.148438 15.570312 22.117188 15.609375 22.089844 C 15.640625 22.070312 15.664062 22.042969 15.664062 22.027344 C 15.664062 22.011719 15.679688 21.992188 15.703125 21.980469 C 15.722656 21.96875 15.734375 21.949219 15.734375 21.9375 C 15.730469 21.921875 15.738281 21.921875 15.765625 21.933594 C 15.816406 21.964844 15.828125 21.957031 15.800781 21.921875 C 15.777344 21.894531 15.777344 21.894531 15.804688 21.90625 C 15.824219 21.910156 15.839844 21.910156 15.839844 21.902344 C 15.839844 21.894531 15.863281 21.875 15.898438 21.855469 C 15.9375 21.835938 15.949219 21.820312 15.933594 21.808594 C 15.917969 21.800781 15.925781 21.789062 15.960938 21.773438 C 16.003906 21.753906 16.007812 21.753906 15.984375 21.78125 C 15.960938 21.8125 15.960938 21.8125 16.019531 21.78125 C 16.050781 21.765625 16.089844 21.753906 16.101562 21.757812 C 16.117188 21.765625 16.125 21.753906 16.125 21.738281 C 16.121094 21.714844 16.140625 21.707031 16.195312 21.703125 C 16.234375 21.699219 16.285156 21.683594 16.300781 21.667969 C 16.324219 21.648438 16.367188 21.636719 16.429688 21.636719 C 16.480469 21.636719 16.507812 21.632812 16.488281 21.628906 C 16.460938 21.625 16.4375 21.617188 16.414062 21.605469 C 16.285156 21.539062 15.703125 21.859375 15.453125 22.132812 C 14.363281 23.324219 15.136719 25.261719 16.730469 25.335938 C 16.996094 25.347656 17.472656 25.28125 17.441406 25.234375 C 17.4375 25.226562 17.453125 25.222656 17.476562 25.21875 C 17.667969 25.207031 18.128906 24.867188 18.34375 24.574219 C 18.453125 24.429688 18.589844 24.15625 18.578125 24.121094 C 18.570312 24.105469 18.574219 24.097656 18.582031 24.105469 C 18.625 24.132812 18.714844 23.691406 18.714844 23.445312 C 18.714844 23.191406 18.625 22.746094 18.582031 22.773438 C 18.570312 22.777344 18.566406 22.773438 18.574219 22.761719 C 18.59375 22.734375 18.492188 22.523438 18.386719 22.367188 C 17.980469 21.765625 17.269531 21.449219 16.546875 21.554688 M 20.632812 21.546875 C 20.683594 21.550781 20.769531 21.550781 20.816406 21.546875 C 20.863281 21.542969 20.820312 21.539062 20.71875 21.539062 C 20.617188 21.539062 20.578125 21.542969 20.632812 21.546875 M 24.511719 21.546875 C 24.566406 21.550781 24.652344 21.550781 24.707031 21.546875 C 24.757812 21.542969 24.714844 21.539062 24.609375 21.539062 C 24.503906 21.539062 24.460938 21.542969 24.511719 21.546875 M 28.40625 21.546875 C 28.464844 21.550781 28.554688 21.550781 28.605469 21.546875 C 28.660156 21.542969 28.609375 21.539062 28.5 21.539062 C 28.390625 21.539062 28.347656 21.542969 28.40625 21.546875 M 20.953125 21.5625 C 20.96875 21.570312 21 21.570312 21.015625 21.5625 C 21.035156 21.558594 21.019531 21.554688 20.984375 21.554688 C 20.949219 21.554688 20.933594 21.558594 20.953125 21.5625 M 21.128906 21.589844 C 21.164062 21.601562 21.207031 21.613281 21.222656 21.621094 C 21.238281 21.625 21.265625 21.632812 21.285156 21.636719 C 21.46875 21.671875 21.886719 21.941406 22.082031 22.148438 C 22.292969 22.375 22.550781 22.847656 22.511719 22.941406 C 22.503906 22.964844 22.507812 22.964844 22.523438 22.949219 C 22.589844 22.882812 22.332031 22.390625 22.09375 22.125 C 21.871094 21.878906 21.425781 21.625 21.140625 21.582031 L 21.066406 21.570312 L 21.128906 21.589844 M 20.207031 21.605469 C 20.183594 21.617188 20.179688 21.621094 20.195312 21.621094 C 20.210938 21.621094 20.242188 21.613281 20.261719 21.605469 C 20.285156 21.597656 20.289062 21.589844 20.269531 21.589844 C 20.253906 21.589844 20.226562 21.597656 20.207031 21.605469 M 16.835938 21.625 C 16.8125 21.636719 16.832031 21.636719 16.890625 21.628906 C 16.941406 21.625 16.988281 21.617188 16.992188 21.613281 C 17.007812 21.597656 16.871094 21.609375 16.835938 21.625 M 20.003906 21.679688 C 19.59375 21.84375 19.242188 22.175781 19.035156 22.589844 C 18.9375 22.78125 18.957031 22.777344 19.058594 22.585938 C 19.300781 22.132812 19.582031 21.882812 20.125 21.648438 C 20.226562 21.601562 20.125 21.628906 20.003906 21.679688 M 16.972656 21.648438 C 16.972656 21.667969 17.027344 21.675781 17.046875 21.660156 C 17.066406 21.648438 17.0625 21.644531 17.023438 21.644531 C 16.996094 21.644531 16.972656 21.644531 16.972656 21.648438 M 23.757812 21.738281 C 23.699219 21.765625 23.640625 21.800781 23.628906 21.8125 C 23.613281 21.828125 23.875 21.707031 23.894531 21.6875 C 23.917969 21.664062 23.855469 21.6875 23.757812 21.738281 M 27.617188 21.75 C 27.503906 21.8125 27.363281 21.90625 27.238281 22.007812 C 27.183594 22.054688 26.964844 22.3125 26.929688 22.375 C 26.878906 22.457031 26.902344 22.441406 26.960938 22.351562 C 27.097656 22.148438 27.382812 21.898438 27.628906 21.765625 C 27.714844 21.71875 27.777344 21.679688 27.769531 21.679688 C 27.757812 21.679688 27.691406 21.710938 27.617188 21.75 M 29.34375 21.75 C 29.691406 21.933594 29.917969 22.15625 30.152344 22.539062 C 30.175781 22.574219 30.195312 22.597656 30.195312 22.589844 C 30.199219 22.402344 29.429688 21.675781 29.230469 21.679688 C 29.222656 21.679688 29.273438 21.710938 29.34375 21.75 M 17.570312 21.714844 C 17.605469 21.730469 17.605469 21.730469 17.566406 21.734375 C 17.542969 21.734375 17.519531 21.726562 17.515625 21.714844 C 17.5 21.695312 17.519531 21.695312 17.570312 21.714844 M 25.519531 21.785156 C 25.589844 21.828125 25.65625 21.871094 25.722656 21.914062 C 25.808594 21.976562 25.808594 21.976562 25.75 21.921875 C 25.695312 21.867188 25.449219 21.714844 25.421875 21.714844 C 25.414062 21.71875 25.457031 21.746094 25.519531 21.785156 M 17.449219 21.789062 C 17.449219 21.800781 17.480469 21.808594 17.519531 21.804688 C 17.574219 21.804688 17.578125 21.800781 17.550781 21.789062 C 17.5 21.769531 17.449219 21.769531 17.449219 21.789062 M 16.082031 21.855469 C 16.078125 21.871094 16.078125 21.886719 16.082031 21.894531 C 16.097656 21.910156 16.132812 21.882812 16.132812 21.851562 C 16.132812 21.816406 16.097656 21.820312 16.082031 21.855469 M 23.453125 21.933594 C 23.238281 22.105469 23.050781 22.328125 22.9375 22.554688 C 22.882812 22.660156 22.917969 22.617188 22.988281 22.496094 C 23.105469 22.285156 23.292969 22.074219 23.5 21.917969 C 23.59375 21.847656 23.613281 21.824219 23.59375 21.824219 C 23.589844 21.824219 23.527344 21.875 23.453125 21.933594 M 16.011719 21.878906 C 15.992188 21.886719 15.96875 21.890625 15.960938 21.886719 C 15.941406 21.875 15.945312 21.949219 15.964844 21.960938 C 15.984375 21.972656 16.058594 21.90625 16.058594 21.878906 C 16.058594 21.871094 16.054688 21.863281 16.054688 21.863281 C 16.050781 21.863281 16.03125 21.871094 16.011719 21.878906 M 17.589844 21.875 C 17.574219 21.890625 17.59375 21.917969 17.625 21.917969 C 17.644531 21.917969 17.652344 21.90625 17.652344 21.890625 C 17.652344 21.863281 17.613281 21.851562 17.589844 21.875 M 17.765625 21.941406 C 17.75 21.957031 17.757812 21.964844 17.800781 21.964844 C 17.828125 21.964844 17.851562 21.964844 17.847656 21.964844 C 17.835938 21.957031 17.824219 21.949219 17.8125 21.941406 C 17.789062 21.921875 17.78125 21.921875 17.765625 21.941406 M 17.488281 21.945312 C 17.507812 21.964844 17.578125 21.96875 17.578125 21.953125 C 17.578125 21.945312 17.554688 21.9375 17.527344 21.9375 C 17.503906 21.9375 17.484375 21.941406 17.488281 21.945312 M 25.902344 22.0625 C 25.945312 22.113281 25.992188 22.160156 26.035156 22.210938 C 26.117188 22.296875 26.226562 22.472656 26.304688 22.636719 C 26.351562 22.730469 26.382812 22.785156 26.375 22.761719 C 26.324219 22.574219 26.121094 22.261719 25.933594 22.082031 C 25.820312 21.972656 25.816406 21.972656 25.902344 22.0625 M 17.890625 22.089844 C 17.890625 22.117188 17.898438 22.136719 17.90625 22.136719 C 17.914062 22.136719 17.917969 22.117188 17.914062 22.089844 C 17.90625 22.066406 17.898438 22.046875 17.894531 22.046875 C 17.890625 22.046875 17.890625 22.066406 17.890625 22.089844 M 18.003906 22.242188 C 18.023438 22.257812 18.128906 22.261719 18.128906 22.246094 C 18.128906 22.234375 18.097656 22.230469 18.058594 22.230469 C 18.023438 22.230469 18 22.234375 18.003906 22.242188 M 18.1875 22.382812 C 18.183594 22.417969 18.195312 22.453125 18.210938 22.46875 C 18.234375 22.484375 18.238281 22.484375 18.238281 22.453125 C 18.238281 22.433594 18.226562 22.410156 18.214844 22.40625 C 18.199219 22.402344 18.203125 22.394531 18.222656 22.394531 C 18.25 22.394531 18.253906 22.386719 18.238281 22.355469 C 18.207031 22.304688 18.191406 22.3125 18.1875 22.382812 M 15.425781 22.464844 C 15.390625 22.539062 15.390625 22.5625 15.441406 22.554688 C 15.472656 22.550781 15.484375 22.535156 15.488281 22.480469 C 15.492188 22.398438 15.464844 22.390625 15.425781 22.464844 M 18.246094 22.503906 C 18.226562 22.535156 18.269531 22.570312 18.292969 22.546875 C 18.304688 22.535156 18.304688 22.519531 18.285156 22.503906 C 18.265625 22.488281 18.253906 22.488281 18.246094 22.503906 M 30.195312 22.617188 C 30.195312 22.621094 30.210938 22.664062 30.230469 22.707031 C 30.277344 22.8125 30.335938 23.035156 30.355469 23.171875 C 30.367188 23.257812 30.375 23.265625 30.375 23.214844 C 30.378906 23.097656 30.207031 22.527344 30.195312 22.617188 M 18.933594 22.816406 C 18.925781 22.847656 18.914062 22.882812 18.917969 22.894531 C 18.917969 22.90625 18.929688 22.882812 18.945312 22.84375 C 18.957031 22.804688 18.964844 22.769531 18.960938 22.765625 C 18.957031 22.761719 18.945312 22.785156 18.933594 22.816406 M 15.214844 22.824219 C 15.214844 22.851562 15.222656 22.867188 15.234375 22.859375 C 15.246094 22.855469 15.253906 22.832031 15.253906 22.8125 C 15.253906 22.792969 15.246094 22.777344 15.234375 22.777344 C 15.222656 22.777344 15.214844 22.800781 15.214844 22.824219 M 18.871094 23.0625 C 18.863281 23.101562 18.859375 23.132812 18.867188 23.136719 C 18.871094 23.140625 18.878906 23.117188 18.886719 23.078125 C 18.894531 23.042969 18.894531 23.007812 18.890625 23.003906 C 18.886719 23 18.875 23.027344 18.871094 23.0625 M 15.023438 23.148438 C 15.003906 23.222656 14.996094 23.242188 14.984375 23.230469 C 14.976562 23.222656 15.007812 23.125 15.023438 23.125 C 15.027344 23.125 15.027344 23.136719 15.023438 23.148438 M 18.550781 23.441406 C 18.550781 23.601562 18.554688 23.730469 18.5625 23.730469 C 18.578125 23.730469 18.574219 23.246094 18.558594 23.179688 C 18.554688 23.167969 18.550781 23.285156 18.550781 23.441406 M 18.847656 23.261719 C 18.847656 23.304688 18.851562 23.316406 18.855469 23.296875 C 18.859375 23.273438 18.859375 23.238281 18.855469 23.222656 C 18.847656 23.203125 18.847656 23.222656 18.847656 23.261719 M 26.484375 23.4375 C 26.484375 23.574219 26.488281 23.628906 26.492188 23.5625 C 26.496094 23.480469 26.496094 23.394531 26.492188 23.3125 C 26.488281 23.246094 26.484375 23.300781 26.484375 23.4375 M 22.730469 23.445312 C 22.730469 23.558594 22.734375 23.601562 22.738281 23.542969 C 22.742188 23.484375 22.742188 23.394531 22.738281 23.339844 C 22.734375 23.289062 22.730469 23.335938 22.730469 23.445312 M 22.601562 23.4375 C 22.601562 23.523438 22.605469 23.558594 22.609375 23.515625 C 22.613281 23.472656 22.613281 23.402344 22.609375 23.359375 C 22.605469 23.316406 22.601562 23.351562 22.601562 23.4375 M 26.613281 23.445312 C 26.613281 23.527344 26.613281 23.558594 26.617188 23.515625 C 26.621094 23.464844 26.621094 23.417969 26.617188 23.367188 C 26.613281 23.332031 26.613281 23.367188 26.613281 23.445312 M 30.382812 23.429688 C 30.382812 23.488281 30.386719 23.511719 30.390625 23.476562 C 30.394531 23.441406 30.394531 23.40625 30.390625 23.367188 C 30.386719 23.339844 30.382812 23.367188 30.382812 23.429688 M 18.847656 23.613281 C 18.847656 23.652344 18.851562 23.667969 18.855469 23.644531 C 18.859375 23.621094 18.859375 23.585938 18.855469 23.570312 C 18.847656 23.550781 18.847656 23.570312 18.847656 23.613281 M 15.070312 23.65625 C 15.070312 23.722656 15.074219 23.730469 15.089844 23.699219 C 15.097656 23.671875 15.097656 23.644531 15.089844 23.617188 C 15.074219 23.582031 15.070312 23.589844 15.070312 23.65625 M 30.363281 23.675781 C 30.363281 23.710938 30.367188 23.726562 30.371094 23.707031 C 30.375 23.6875 30.375 23.664062 30.371094 23.644531 C 30.367188 23.625 30.363281 23.640625 30.363281 23.675781 M 30.332031 23.824219 C 30.328125 23.867188 30.324219 23.902344 30.328125 23.90625 C 30.332031 23.914062 30.34375 23.882812 30.351562 23.839844 C 30.355469 23.796875 30.359375 23.761719 30.355469 23.757812 C 30.347656 23.75 30.339844 23.78125 30.332031 23.824219 M 22.515625 23.972656 C 22.5 24.03125 22.488281 24.085938 22.492188 24.089844 C 22.503906 24.101562 22.5625 23.898438 22.554688 23.875 C 22.550781 23.867188 22.535156 23.910156 22.515625 23.972656 M 15.210938 23.964844 C 15.199219 24.027344 15.210938 24.097656 15.238281 24.097656 C 15.257812 24.097656 15.257812 23.9375 15.238281 23.925781 C 15.226562 23.917969 15.214844 23.9375 15.210938 23.964844 M 30.277344 24.035156 C 30.171875 24.382812 29.886719 24.777344 29.601562 24.972656 C 29.554688 25.003906 29.515625 25.035156 29.515625 25.042969 C 29.515625 25.121094 29.992188 24.644531 30.109375 24.445312 C 30.199219 24.296875 30.328125 23.984375 30.316406 23.945312 C 30.316406 23.9375 30.296875 23.976562 30.277344 24.035156 M 26.363281 24.113281 C 26.25 24.433594 25.96875 24.796875 25.675781 24.992188 C 25.519531 25.101562 25.472656 25.136719 25.542969 25.105469 C 25.792969 24.980469 26.09375 24.667969 26.265625 24.367188 C 26.332031 24.242188 26.425781 24.011719 26.417969 23.984375 C 26.414062 23.976562 26.390625 24.035156 26.363281 24.113281 M 18.933594 24.046875 C 18.933594 24.066406 18.992188 24.207031 19 24.199219 C 19.003906 24.195312 18.992188 24.15625 18.972656 24.113281 C 18.953125 24.070312 18.933594 24.039062 18.933594 24.046875 M 22.390625 24.285156 C 22.34375 24.378906 22.289062 24.472656 22.269531 24.496094 C 22.019531 24.824219 21.859375 24.964844 21.542969 25.132812 C 21.363281 25.230469 21.378906 25.238281 21.5625 25.148438 C 21.921875 24.976562 22.261719 24.621094 22.433594 24.246094 C 22.515625 24.070312 22.488281 24.09375 22.390625 24.285156 M 19.007812 24.238281 C 19.007812 24.246094 19.019531 24.269531 19.03125 24.289062 C 19.058594 24.324219 19.058594 24.324219 19.050781 24.285156 C 19.039062 24.242188 19.007812 24.207031 19.007812 24.238281 M 26.789062 24.25 C 26.789062 24.269531 26.84375 24.371094 26.851562 24.371094 C 26.859375 24.371094 26.847656 24.34375 26.832031 24.3125 C 26.796875 24.246094 26.789062 24.230469 26.789062 24.25 M 15.433594 24.332031 C 15.421875 24.417969 15.449219 24.496094 15.472656 24.433594 C 15.496094 24.378906 15.492188 24.339844 15.464844 24.328125 C 15.449219 24.320312 15.433594 24.324219 15.433594 24.332031 M 19.066406 24.363281 C 19.128906 24.523438 19.449219 24.875 19.664062 25.019531 C 19.792969 25.105469 20.066406 25.242188 20.078125 25.226562 C 20.085938 25.222656 20.042969 25.199219 19.988281 25.179688 C 19.683594 25.054688 19.296875 24.714844 19.125 24.421875 C 19.078125 24.335938 19.046875 24.304688 19.066406 24.363281 M 26.902344 24.460938 C 27.042969 24.71875 27.488281 25.109375 27.730469 25.1875 C 27.75 25.195312 27.707031 25.164062 27.628906 25.121094 C 27.355469 24.964844 27.140625 24.773438 26.980469 24.546875 C 26.867188 24.382812 26.84375 24.359375 26.902344 24.460938 M 23.027344 24.484375 C 23.164062 24.71875 23.492188 25.007812 23.761719 25.148438 C 23.910156 25.222656 23.902344 25.203125 23.75 25.121094 C 23.484375 24.976562 23.261719 24.78125 23.101562 24.558594 C 23.039062 24.472656 22.992188 24.425781 23.027344 24.484375 M 17.890625 24.8125 C 17.890625 24.863281 17.894531 24.886719 17.914062 24.878906 C 17.925781 24.875 17.933594 24.84375 17.933594 24.8125 C 17.933594 24.777344 17.925781 24.746094 17.914062 24.742188 C 17.894531 24.738281 17.890625 24.757812 17.890625 24.8125 M 15.804688 24.828125 C 15.804688 24.863281 15.808594 24.878906 15.816406 24.859375 C 15.820312 24.839844 15.820312 24.820312 15.816406 24.796875 C 15.808594 24.78125 15.804688 24.792969 15.804688 24.828125 M 17.5 24.921875 C 17.484375 24.933594 17.496094 24.9375 17.527344 24.9375 C 17.554688 24.9375 17.578125 24.933594 17.578125 24.921875 C 17.578125 24.902344 17.53125 24.902344 17.5 24.921875 M 17.726562 24.921875 C 17.726562 24.953125 17.757812 24.953125 17.789062 24.929688 C 17.824219 24.90625 17.824219 24.902344 17.773438 24.90625 C 17.746094 24.910156 17.726562 24.917969 17.726562 24.921875 M 15.972656 24.933594 C 15.953125 24.941406 15.953125 24.949219 15.976562 24.96875 C 16.007812 25.003906 16.011719 25 16.015625 24.957031 C 16.019531 24.921875 16.011719 24.917969 15.972656 24.933594 M 17.589844 24.96875 C 17.574219 24.984375 17.59375 25.011719 17.625 25.011719 C 17.644531 25.011719 17.652344 25.003906 17.652344 24.984375 C 17.652344 24.957031 17.613281 24.945312 17.589844 24.96875 M 16.09375 25 C 16.082031 25.042969 16.085938 25.0625 16.105469 25.054688 C 16.117188 25.050781 16.125 25.035156 16.121094 25.019531 C 16.109375 24.996094 16.097656 24.984375 16.09375 25 M 29.332031 25.140625 C 29.296875 25.160156 29.277344 25.175781 29.285156 25.175781 C 29.304688 25.175781 29.40625 25.125 29.40625 25.113281 C 29.40625 25.101562 29.40625 25.101562 29.332031 25.140625 M 25.378906 25.167969 C 25.332031 25.191406 25.304688 25.210938 25.3125 25.210938 C 25.324219 25.210938 25.371094 25.191406 25.414062 25.167969 C 25.460938 25.144531 25.488281 25.125 25.480469 25.125 C 25.46875 25.125 25.421875 25.144531 25.378906 25.167969 M 16.710938 25.230469 C 16.675781 25.242188 16.675781 25.246094 16.71875 25.257812 C 16.785156 25.273438 16.847656 25.269531 16.847656 25.25 C 16.847656 25.238281 16.835938 25.230469 16.820312 25.230469 C 16.804688 25.230469 16.78125 25.226562 16.769531 25.222656 C 16.757812 25.21875 16.730469 25.222656 16.710938 25.230469 M 25.195312 25.242188 C 25.160156 25.253906 25.144531 25.265625 25.160156 25.265625 C 25.171875 25.265625 25.210938 25.253906 25.242188 25.242188 C 25.3125 25.210938 25.277344 25.207031 25.195312 25.242188 M 20.261719 25.285156 C 20.28125 25.296875 20.3125 25.300781 20.332031 25.300781 C 20.363281 25.300781 20.363281 25.296875 20.324219 25.285156 C 20.261719 25.265625 20.214844 25.265625 20.261719 25.285156 M 21.039062 25.304688 C 20.976562 25.324219 21.042969 25.324219 21.121094 25.304688 C 21.171875 25.292969 21.171875 25.292969 21.128906 25.289062 C 21.097656 25.292969 21.070312 25.296875 21.039062 25.304688 M 20.875 25.324219 L 20.808594 25.335938 L 20.878906 25.339844 C 20.914062 25.339844 20.949219 25.332031 20.957031 25.324219 C 20.96875 25.304688 20.96875 25.304688 20.875 25.324219 M 20.523438 25.335938 C 20.542969 25.339844 20.582031 25.339844 20.605469 25.335938 C 20.625 25.332031 20.609375 25.328125 20.5625 25.328125 C 20.515625 25.328125 20.5 25.332031 20.523438 25.335938 M 24.402344 25.335938 C 24.425781 25.339844 24.460938 25.339844 24.476562 25.335938 C 24.496094 25.332031 24.476562 25.328125 24.433594 25.328125 C 24.394531 25.328125 24.378906 25.332031 24.402344 25.335938 M 24.75 25.335938 C 24.773438 25.339844 24.808594 25.339844 24.824219 25.335938 C 24.84375 25.332031 24.824219 25.328125 24.785156 25.328125 C 24.742188 25.328125 24.730469 25.332031 24.75 25.335938 M 28.285156 25.335938 C 28.308594 25.339844 28.339844 25.339844 28.359375 25.335938 C 28.375 25.332031 28.359375 25.328125 28.316406 25.328125 C 28.277344 25.328125 28.261719 25.332031 28.285156 25.335938 " fill-opacity="1" fill-rule="evenodd"/><g clip-path="url(#71b161d1f8)"><path fill="#7c7c7c" d="M 15.898438 12.300781 C 16.046875 12.304688 16.289062 12.304688 16.429688 12.300781 C 16.574219 12.296875 16.449219 12.292969 16.160156 12.292969 C 15.867188 12.292969 15.75 12.296875 15.898438 12.300781 M 19.835938 12.300781 C 20.042969 12.304688 20.386719 12.304688 20.59375 12.300781 C 20.804688 12.296875 20.632812 12.292969 20.214844 12.292969 C 19.796875 12.292969 19.625 12.296875 19.835938 12.300781 M 21.585938 12.300781 C 21.648438 12.304688 21.746094 12.304688 21.804688 12.300781 C 21.863281 12.296875 21.808594 12.292969 21.6875 12.292969 C 21.566406 12.292969 21.519531 12.296875 21.585938 12.300781 M 21.996094 12.300781 C 22.011719 12.304688 22.042969 12.304688 22.058594 12.300781 C 22.078125 12.292969 22.0625 12.289062 22.027344 12.289062 C 21.992188 12.289062 21.976562 12.292969 21.996094 12.300781 M 26.820312 12.300781 C 27.4375 12.304688 28.445312 12.304688 29.054688 12.300781 C 29.667969 12.296875 29.160156 12.296875 27.933594 12.296875 C 26.703125 12.296875 26.203125 12.296875 26.820312 12.300781 M 32.371094 12.300781 C 32.714844 12.304688 33.277344 12.304688 33.613281 12.300781 C 33.953125 12.296875 33.671875 12.296875 32.988281 12.296875 C 32.300781 12.296875 32.023438 12.296875 32.371094 12.300781 M 6.179688 14.722656 C 6.179688 16.046875 6.183594 16.585938 6.183594 15.925781 C 6.1875 15.261719 6.1875 14.179688 6.183594 13.519531 C 6.183594 12.855469 6.179688 13.398438 6.179688 14.722656 M 0.410156 14.695312 C 0.410156 15.992188 0.414062 16.527344 0.417969 15.882812 C 0.417969 15.234375 0.417969 14.171875 0.417969 13.519531 C 0.414062 12.867188 0.410156 13.394531 0.410156 14.695312 M 18.144531 12.375 C 18.132812 12.402344 18.128906 13.539062 18.132812 15.953125 L 18.136719 19.492188 L 18.144531 15.9375 C 18.152344 13.984375 18.160156 12.375 18.167969 12.363281 C 18.179688 12.351562 18.179688 12.339844 18.175781 12.339844 C 18.167969 12.339844 18.15625 12.355469 18.144531 12.375 M 2.40625 14.683594 C 2.40625 15.960938 2.410156 16.480469 2.414062 15.84375 C 2.414062 15.207031 2.414062 14.164062 2.414062 13.527344 C 2.410156 12.890625 2.40625 13.410156 2.40625 14.683594 M 11.515625 14.21875 C 11.511719 15.226562 11.511719 16.050781 11.511719 16.058594 C 11.53125 16.089844 11.535156 15.832031 11.53125 14.214844 L 11.527344 12.386719 L 11.515625 14.21875 M 16.78125 15.9375 C 16.78125 17.894531 16.785156 18.691406 16.785156 17.710938 C 16.789062 16.730469 16.789062 15.128906 16.785156 14.15625 C 16.785156 13.183594 16.78125 13.984375 16.78125 15.9375 M 7.535156 15.949219 C 7.535156 17.898438 7.535156 18.695312 7.539062 17.71875 C 7.542969 16.746094 7.542969 15.152344 7.539062 14.175781 C 7.535156 13.203125 7.535156 14 7.535156 15.949219 M 13.46875 15.949219 C 13.46875 17.898438 13.46875 18.695312 13.472656 17.71875 C 13.472656 16.746094 13.472656 15.152344 13.472656 14.175781 C 13.46875 13.203125 13.46875 14 13.46875 15.949219 M 31.375 13.121094 C 31.375 13.511719 31.375 13.671875 31.378906 13.472656 C 31.382812 13.269531 31.382812 12.949219 31.378906 12.757812 C 31.375 12.5625 31.375 12.726562 31.375 13.121094 M 37.140625 13.191406 C 37.140625 13.554688 37.144531 13.707031 37.148438 13.527344 C 37.152344 13.351562 37.152344 13.054688 37.148438 12.867188 C 37.144531 12.683594 37.140625 12.832031 37.140625 13.191406 M 23.261719 12.855469 C 23.324219 12.914062 23.375 12.964844 23.382812 12.964844 C 23.386719 12.964844 23.339844 12.914062 23.28125 12.855469 C 23.222656 12.792969 23.167969 12.742188 23.164062 12.742188 C 23.160156 12.742188 23.203125 12.792969 23.261719 12.855469 M 21.753906 13.8125 C 21.753906 13.816406 21.789062 13.84375 21.832031 13.871094 C 21.875 13.898438 21.898438 13.910156 21.886719 13.894531 C 21.863281 13.867188 21.753906 13.796875 21.753906 13.8125 M 27.074219 13.949219 C 27.066406 13.960938 27.765625 13.960938 28.609375 13.949219 C 28.792969 13.945312 28.523438 13.941406 28.011719 13.9375 C 27.5 13.9375 27.078125 13.941406 27.074219 13.949219 M 32.925781 13.949219 C 32.984375 13.953125 33.078125 13.953125 33.136719 13.949219 C 33.195312 13.945312 33.148438 13.941406 33.03125 13.941406 C 32.917969 13.941406 32.867188 13.945312 32.925781 13.949219 M 35.257812 13.957031 C 35.25 13.96875 35.25 15.21875 35.253906 16.734375 L 35.257812 19.492188 L 35.265625 13.953125 L 36.160156 13.949219 L 37.050781 13.941406 L 36.15625 13.9375 C 35.457031 13.933594 35.261719 13.9375 35.257812 13.957031 M 21.960938 14.023438 C 21.980469 14.0625 22.003906 14.09375 22.003906 14.089844 C 22.015625 14.082031 21.957031 13.976562 21.9375 13.960938 C 21.929688 13.957031 21.9375 13.984375 21.960938 14.023438 M 22.03125 14.28125 C 22.03125 14.328125 22.035156 14.347656 22.039062 14.324219 C 22.046875 14.296875 22.046875 14.269531 22.039062 14.242188 C 22.035156 14.21875 22.03125 14.238281 22.03125 14.28125 M 28.867188 15.035156 C 28.886719 15.046875 28.914062 15.070312 28.925781 15.085938 C 28.9375 15.101562 28.949219 15.105469 28.949219 15.09375 C 28.949219 15.070312 28.878906 15.015625 28.847656 15.015625 C 28.839844 15.015625 28.847656 15.023438 28.867188 15.035156 M 28.957031 15.839844 C 28.957031 16.238281 28.960938 16.398438 28.960938 16.199219 C 28.964844 16 28.964844 15.675781 28.960938 15.476562 C 28.960938 15.277344 28.957031 15.441406 28.957031 15.839844 M 23.292969 15.566406 L 23.230469 15.640625 L 23.316406 15.71875 L 23.28125 15.679688 C 23.246094 15.636719 23.246094 15.636719 23.320312 15.5625 C 23.359375 15.523438 23.382812 15.492188 23.371094 15.492188 C 23.363281 15.492188 23.328125 15.527344 23.292969 15.566406 M 23.429688 15.820312 C 23.46875 15.859375 23.503906 15.894531 23.507812 15.894531 C 23.515625 15.894531 23.484375 15.859375 23.445312 15.820312 C 23.40625 15.78125 23.371094 15.746094 23.367188 15.746094 C 23.359375 15.746094 23.390625 15.78125 23.429688 15.820312 M 27.0625 16.675781 C 27.0625 16.6875 27.722656 16.6875 28.546875 16.675781 C 28.722656 16.671875 28.460938 16.667969 27.964844 16.667969 C 27.46875 16.664062 27.0625 16.667969 27.0625 16.675781 M 22.253906 17.082031 C 22.253906 17.128906 22.257812 17.148438 22.261719 17.125 C 22.265625 17.097656 22.265625 17.070312 22.261719 17.042969 C 22.257812 17.019531 22.253906 17.039062 22.253906 17.082031 M 21.828125 17.761719 C 21.789062 17.78125 21.769531 17.796875 21.777344 17.796875 C 21.796875 17.796875 21.898438 17.746094 21.898438 17.734375 C 21.898438 17.722656 21.898438 17.722656 21.828125 17.761719 M 3.226562 17.757812 C 3.273438 17.761719 3.320312 17.761719 3.363281 17.757812 C 3.402344 17.753906 3.371094 17.75 3.296875 17.75 C 3.21875 17.75 3.191406 17.753906 3.226562 17.757812 M 27.796875 17.941406 C 28.207031 17.941406 28.882812 17.941406 29.300781 17.941406 C 29.714844 17.9375 29.382812 17.933594 28.554688 17.933594 C 27.730469 17.933594 27.390625 17.9375 27.796875 17.941406 M 30.476562 18.769531 C 30.476562 19.167969 30.480469 19.328125 30.484375 19.128906 C 30.484375 18.890625 30.484375 18.648438 30.484375 18.40625 C 30.480469 18.207031 30.476562 18.371094 30.476562 18.769531 M 23.429688 18.9375 L 23.28125 19.089844 L 23.433594 18.941406 C 23.574219 18.808594 23.59375 18.785156 23.578125 18.785156 C 23.578125 18.785156 23.507812 18.855469 23.429688 18.9375 M 5.328125 18.910156 L 5.226562 19.015625 L 5.332031 18.914062 C 5.429688 18.824219 5.445312 18.804688 5.433594 18.804688 C 5.429688 18.804688 5.382812 18.851562 5.328125 18.910156 M 1.246094 18.90625 C 1.277344 18.941406 1.3125 18.96875 1.316406 18.96875 C 1.320312 18.96875 1.296875 18.941406 1.261719 18.90625 C 1.230469 18.871094 1.195312 18.839844 1.191406 18.839844 C 1.1875 18.839844 1.210938 18.871094 1.246094 18.90625 M 33.222656 19.273438 C 33.222656 19.363281 33.226562 19.402344 33.230469 19.359375 C 33.234375 19.316406 33.234375 19.242188 33.230469 19.195312 C 33.226562 19.144531 33.222656 19.179688 33.222656 19.273438 M 1.847656 19.363281 C 1.847656 19.367188 1.882812 19.386719 1.921875 19.410156 C 1.960938 19.429688 1.996094 19.441406 1.996094 19.4375 C 1.996094 19.433594 1.960938 19.410156 1.921875 19.390625 C 1.882812 19.371094 1.847656 19.359375 1.847656 19.363281 M 35.164062 19.566406 C 35.136719 19.578125 35.125 19.589844 35.140625 19.589844 C 35.15625 19.59375 35.183594 19.582031 35.203125 19.566406 C 35.246094 19.53125 35.238281 19.53125 35.164062 19.566406 M 15.359375 19.585938 C 15.601562 19.589844 16 19.589844 16.246094 19.585938 C 16.488281 19.585938 16.289062 19.582031 15.800781 19.582031 C 15.3125 19.582031 15.113281 19.585938 15.359375 19.585938 M 19.195312 19.585938 C 19.726562 19.589844 20.59375 19.589844 21.125 19.585938 C 21.65625 19.585938 21.222656 19.582031 20.160156 19.582031 C 19.097656 19.582031 18.664062 19.585938 19.195312 19.585938 M 25.683594 19.585938 C 25.960938 19.589844 26.410156 19.589844 26.683594 19.585938 C 26.957031 19.585938 26.734375 19.582031 26.183594 19.582031 C 25.636719 19.582031 25.410156 19.585938 25.683594 19.585938 M 33.621094 19.585938 C 33.792969 19.589844 34.066406 19.589844 34.234375 19.585938 C 34.40625 19.585938 34.265625 19.582031 33.929688 19.582031 C 33.59375 19.582031 33.453125 19.585938 33.621094 19.585938 M 3.207031 19.753906 C 3.257812 19.757812 3.335938 19.757812 3.382812 19.753906 C 3.429688 19.75 3.390625 19.746094 3.296875 19.746094 C 3.199219 19.746094 3.160156 19.75 3.207031 19.753906 " fill-opacity="1" fill-rule="evenodd"/></g></svg>