<svg xmlns="http://www.w3.org/2000/svg" width="400" height="400.391"><g fill-rule="evenodd"><path d="M4.627 131.428c-.315.23-.332 1.886-.281 26.54l.055 26.294.438 1.924c4.938 21.695 28.972 31.514 47.354 19.347 6.51-4.31 10.895-10.784 12.949-19.12l.433-1.76.062-26.613.062-26.614-.445-.119c-1.129-.302-20.056-.132-20.372.183-.276.276-.307 2.821-.31 25.073-.001 20.842-.046 24.933-.281 25.816-2.231 8.382-13.623 9.8-17.674 2.199-1.262-2.366-1.202-.948-1.202-28.221v-24.793l-.501-.191c-.8-.304-19.867-.252-20.287.055m76.784-.038c-.35.103-.699.388-.831.679-.245.537-.35 75.598-.107 76.231.328.854.735.889 10.441.889h9.214l.571-.572.572-.571.011-22.254.011-22.253.491 1.075c.638 1.395 8.852 20.167 10.435 23.844a336.168 336.168 0 0 0 1.662 3.813c.245.541.949 2.128 1.566 3.526l2.93 6.647a996.005 996.005 0 0 1 2.253 5.141c.729 1.705.097 1.621 11.841 1.56l10.281-.054.374-.462c.426-.526.605-75.867.182-76.656-.39-.729-1.166-.79-10.072-.79-8.906 0-9.683.061-10.073.79-.121.226-.191 7.533-.191 19.92 0 10.76-.066 19.562-.147 19.561-.081-.002-1.131-2.311-2.334-5.132-9.105-21.349-14.738-34.245-15.134-34.65-.421-.431-22.56-.691-23.946-.282m77.573-.019c-1.07.468-1.017-1.528-1.017 38.779 0 38.526-.006 38.226.789 38.652.799.427 19.299.24 19.739-.2.388-.388.391-.652.391-38.409v-38.017l-.428-.399c-.4-.372-.675-.399-4.172-.399-2.059 0-6.243-.045-9.298-.101-3.517-.064-5.72-.03-6.004.094m35.521.038c-.996.349-.957-1.264-.957 38.981 0 37.56.003 37.824.391 38.212.538.538 40.48.619 43.522.089 18.761-3.272 25.906-26.344 12.341-39.847l-1.937-1.928.571-.614c.315-.337.774-.833 1.02-1.102 10.421-11.371 3.312-30.851-12.27-33.623-1.548-.275-41.919-.434-42.681-.168m74.544-.101c-1.296.289-1.2-2.818-1.206 39.007l-.007 37.675.442.501.441.5 27.827.05 27.828.05.374-.462c.355-.437.374-.869.374-8.343v-7.882l-.515-.405c-.512-.404-.605-.406-18.182-.406h-17.666v-13.685h19.286l.425-.452c.423-.451.699-15.224.304-16.255-.328-.855-.722-.888-10.625-.888h-9.396l.051-5.719.052-5.718h33.321l.446-.445.446-.445.056-7.818.055-7.817-.486-.486-.487-.487h-22.736c-12.505-.001-24.363-.039-26.353-.086-1.989-.047-3.82-.04-4.069.016m66.835.105c-.971.36-.987.494-.987 8.687 0 7.247.02 7.682.374 8.119l.374.461 9.499.055 9.499.054v59.354l.44.4c.874.794 20.28.813 20.917.02.026-.032.092-13.475.147-29.873l.099-29.814 9.717-.098c7.6-.076 9.772-.153 9.971-.351.284-.284.576-15.208.314-16.012-.352-1.078 1.441-1.015-30.524-1.077-16.215-.032-29.643.002-29.84.075m-103.689 16.069c3.454 1.914 3.935 6.379.975 9.04-1.579 1.42-1.771 1.445-11.114 1.445h-8.175v-11.159l8.651.056 8.651.057 1.012.561m.503 27.532c5.053 2.368 6.324 9.116 2.462 13.08-2.331 2.393-2.998 2.522-13.109 2.522h-8.17v-16.242l8.846.056 8.847.057 1.124.527" fill="#040404"/><path d="M0 200.196v200.195h400V0H0v200.196m25.355-68.769c.087.135.202 11.638.256 25.562l.098 25.318.459 1.139c2.93 7.261 12.997 8.095 16.946 1.402 1.462-2.475 1.348-.277 1.459-28.348l.1-25.219h21.114v26.588c0 29.522.087 27.388-1.298 31.672-2.526 7.812-8.842 15.003-16.21 18.456-18.889 8.852-40.768-2.914-43.874-23.595-.397-2.644-.458-52.591-.065-52.985.348-.347 20.79-.337 21.015.01m80.083.037c.195.148 2.158 4.479 4.361 9.623 2.203 5.144 5.53 12.872 7.393 17.173 1.863 4.301 3.86 8.915 4.437 10.254l1.049 2.434.098-19.509.098-19.509.461-.374c.741-.599 19.089-.578 19.734.023.66.615.639-.807.582 39.041l-.054 37.776-.445.445-.445.445h-10.532c-12.436 0-10.782.516-12.719-3.969-2.012-4.658-2.769-6.387-7.635-17.438-4.512-10.246-6.132-13.951-8.848-20.231l-1.604-3.71-.05 22.218-.05 22.217-.607.511-.607.511-9.455-.054-9.455-.055-.446-.445-.445-.445-.051-37.874c-.054-39.597-.072-38.686.798-39.107.706-.341 23.984-.294 24.437.049m73.163.199.48.48v76.015l-.405.516-.405.515h-19.344l-.48-.48-.48-.48v-76.086l.48-.48.48-.48h19.194l.48.48m58.251-.276c16.275 2.334 23.392 22.778 12.057 34.634l-.877.918 1.502 1.403c14.122 13.188 7.107 36.918-11.985 40.539-1.409.268-4.326.308-22.428.308h-20.808l-.48-.48-.48-.48v-76.086l.48-.48.48-.48 20.585.004c12.718.002 21.109.079 21.954.2m85.864.267.549.472.06 7.495c.041 5.133-.009 7.731-.159 8.244-.41 1.399.416 1.344-17.911 1.187l-16.307-.14.052 5.592.052 5.593 9.579.121 9.58.121.44.487.44.486v15.832l-.48.48-.48.48h-19.152l-.067 2.101c-.038 1.156-.065 4.125-.062 6.599l.006 4.496 17.693.054c17.092.052 17.71.067 18.182.429l.489.374.055 8.036.055 8.036-.577.577-.578.578h-11.794c-27.903 0-43.717-.225-44.148-.626-.391-.365-.393-.543-.393-38.491v-38.124l.48-.48.479-.48h53.369l.548.471m69.454-.342c3.243.118 3.607.166 3.942.526.575.617.571 15.865-.005 16.576l-.373.462-9.646.098-9.646.097-.098 29.663-.098 29.662-.446.445-.446.445-9.818-.061c-9.94-.062-10.522-.105-10.805-.797-.07-.173-.114-13.619-.096-29.879l.033-29.565-9.511-.054-9.512-.054-.471-.549-.472-.548v-15.562l.479-.517.48-.517h26.468c14.558 0 28.077.058 30.041.129m-178.094 21.083v5.376l8.358-.002c8.344-.002 8.359-.002 9.335-.458 3.471-1.619 4.231-6.306 1.433-8.833-1.64-1.482-1.408-1.45-10.768-1.455l-8.358-.004v5.376m0 29.998v8.027l8.163-.002c10.075-.003 10.55-.097 12.825-2.529 3.745-4.003 2.582-10.217-2.371-12.666l-1.489-.736-8.564-.06-8.564-.06v8.026m-113.818 47.938c12.967 2.397 20.105 16.969 14.209 29.004-5.553 11.334-20.445 14.773-30.232 6.982-14.43-11.486-7.827-34.122 10.584-36.285.949-.112 4.179.066 5.439.299m41.971.07c13.435 2.76 20.173 18.56 12.975 30.425-9.311 15.348-32.347 11.777-36.681-5.686-3.593-14.475 9.115-27.737 23.706-24.739m39.917-.283c16.738 2.253 23.428 23.258 11.129 34.94-12.803 12.162-33.727 3.115-33.81-14.618-.059-12.561 10.442-21.97 22.681-20.322m43.194.259c15.507 3.348 21.212 22.975 9.954 34.245-12.797 12.812-34.191 3.884-34.214-14.28-.018-13.203 11.537-22.712 24.26-19.965m42.011.108c22.987 5.894 18.902 39.993-4.79 39.987-25.046-.006-27.262-36.678-2.444-40.44 1.386-.21 5.703.061 7.234.453m41.838.095c14.891 3.848 20.147 22.807 9.384 33.848-10.324 10.591-27.921 7.052-33.216-6.68-5.994-15.544 7.83-31.304 23.832-27.168" fill="#fbfbfb"/><path d="M178.397 230.429c-.86.154-1.828.274-2.151.267-.71-.015-2.041.368-2.443.703-.162.134-.646.272-1.076.307-.587.048-.776.144-.757.39.014.191-.08.287-.227.23-.138-.053-.545.056-.904.241-.612.317-.636.317-.376.004.256-.309.237-.316-.25-.094-.361.164-.452.287-.287.388.164.101.042.261-.384.504-.344.195-.625.419-.626.496 0 .077-.155.083-.343.012-.3-.112-.309-.087-.074.202.306.376.171.421-.382.126-.282-.151-.367-.143-.329.033.028.13-.131.332-.355.449-.224.118-.374.313-.333.435.041.122-.172.406-.473.632-.301.225-.677.521-.835.656-.159.136-.394.222-.523.193a.353.353 0 0 0-.357.144c-.074.119.006.149.2.075.281-.108.29-.072.073.276-.137.22-.355.359-.483.31-.128-.049-.288.053-.355.228-.067.174-.219.256-.339.182-.143-.089-.178-.009-.101.233.074.235-.057.571-.365.928-.264.308-.533.726-.597.928-.065.202-.209.367-.321.367-.121 0-.153.215-.078.537.098.423.078.475-.093.245-.17-.23-.191-.174-.095.26.075.342.047.509-.071.436-.262-.162-1.131 1.378-1.301 2.304-.096.528-.188.674-.307.489-.104-.161-.123-.017-.048.371.074.39.028.748-.121.928-.134.161-.195.476-.137.699.058.224-.019.889-.172 1.477-.154.589-.266 1.352-.25 1.696.025.527.051.487.166-.254.095-.61.14-.162.146 1.467.008 2.2-.007 2.297-.249 1.564-.174-.529-.263-.642-.273-.35-.008.238.165.89.385 1.448.221.559.356 1.131.302 1.272-.128.334.208.543.355.221.061-.135.063.063.004.439-.08.511-.055.61.097.391.275-.393.267-.082-.011.453-.122.235-.151.36-.064.278.17-.158.669 1.084.674 1.675.002.218.09.3.229.214.156-.096.191-.005.113.294-.073.278-.013.472.165.54a.453.453 0 0 1 .278.385c0 .154.132.329.293.391.161.062.297.213.301.336.005.123.269.528.587.901.318.372.578.772.578.889 0 .116.354.557.787.979.432.423.741.885.686 1.028-.055.143-.023.212.07.154.094-.057.484.108.866.367.479.325.73.401.804.242.059-.127.06-.038.002.198-.077.314.028.517.391.755.273.179.453.396.4.481-.053.086.07.113.273.06.203-.053.428-.001.501.116.072.117.31.212.529.212a.52.52 0 0 1 .495.375c.054.206.31.427.569.492.258.065.47.198.47.296 0 .104.238.11.574.014.448-.129.551-.107.472.1-.056.146-.248.299-.427.341-.179.042.114.142.652.221 1.427.212 1.622.29 1.268.509-.229.141-.208.176.103.172.787-.009 4.503.455 4.787.597.384.193 2.965.236 3.256.054.124-.077-.163-.149-.638-.159-.987-.022-1.111-.093-.94-.54.154-.402.473-.421.473-.028 0 .259.516.408 1.058.306.098-.019.42.066.715.189.413.171.643.164.995-.029.252-.138.636-.229.855-.203.505.06 1.606-.396 1.579-.654-.012-.108.191-.226.45-.262.448-.063.995-.453.995-.708 0-.066-.17-.028-.378.083-.519.278-.69.254-.43-.06.12-.144.153-.339.073-.433-.08-.094.001-.06.18.076.219.167.366.181.451.043.184-.298.555-.252.437.053-.054.142.09.376.322.52.395.246.403.24.127-.1-.194-.24-.207-.31-.037-.208.361.217 1.405-.258 1.408-.641.003-.277.028-.28.196-.025.16.245.212.22.313-.146.066-.242.203-.44.305-.44.101 0 .13.088.063.195-.169.274.166.245.45-.039.324-.324.293-.502-.108-.618-.25-.073-.232-.09.068-.063.225.02.572-.096.77-.257.33-.27.348-.262.214.097-.237.634.209.092.647-.787.213-.427.391-.671.395-.542.004.129.58-.332 1.279-1.024 1.164-1.153 1.571-1.667 1.075-1.361-.108.066-.196-.016-.196-.184 0-.168.122-.305.27-.305.148 0 .378-.131.511-.291.133-.16.333-.235.445-.165.113.07.145.032.073-.086-.18-.291.269-1.217.59-1.217.144 0 .262-.134.262-.296 0-.163.078-.449.174-.636.366-.712.675-1.518.639-1.669-.021-.087.096-.291.259-.454.163-.163.296-.557.296-.876 0-.318.132-.894.294-1.28.161-.386.293-.873.293-1.081 0-.208.068-.336.152-.285.265.164.106-5.918-.163-6.242-.201-.242-.179-.268.13-.158.303.107.326.083.125-.133a1.025 1.025 0 0 1-.244-.598c0-.185-.099-.369-.22-.41-.121-.04-.264-.53-.318-1.087-.054-.558-.165-.974-.247-.923-.082.051-.207-.295-.278-.768-.071-.473-.248-.906-.394-.962-.146-.057-.323-.365-.394-.686-.07-.321-.255-.632-.409-.691-.155-.059-.282-.336-.282-.614 0-.288-.084-.455-.195-.386-.108.066-.196-.003-.196-.154s-.179-.436-.397-.634c-.219-.198-.359-.462-.312-.586.158-.412-.236-.825-.461-.483-.168.256-.192.254-.195-.019-.002-.171-.179-.471-.394-.666-.215-.194-.392-.45-.393-.568-.001-.259-.964-.733-1.196-.589-.092.056-.108-.049-.037-.233.092-.24.057-.292-.12-.182-.199.123-.201.062-.007-.31.133-.255.171-.397.085-.317-.087.081-.32.001-.519-.179-.198-.18-.557-.343-.797-.363-.257-.022-.428-.159-.414-.333.015-.198-.099-.265-.343-.201-.406.106-.505-.242-.12-.425.134-.064.045-.079-.197-.034a.695.695 0 0 1-.685-.251c-.25-.344-1.777-1-2.327-1-.171 0-.42-.131-.553-.291-.133-.16-.31-.249-.395-.196-.084.052-.438-.026-.788-.173-.59-.248-.609-.283-.264-.502.313-.2.317-.219.026-.129-.189.059-.568.022-.842-.082-.329-.126-.457-.124-.378.005.067.107-.066.195-.293.195-.228 0-.367-.077-.309-.17.127-.205-1.411-.456-2.592-.422-.545.015-.803-.049-.722-.181.07-.112.1-.195.066-.184a76.9 76.9 0 0 1-1.624.301m39.003-.043c-11.154 2.368-18.442 13.567-15.841 24.341 3.944 16.34 24.337 21.26 34.788 8.392 1.44-1.773 1.54-1.925 2.482-3.748 2.154-4.171 3-11.796 1.541-13.88-.144-.206-.22-.486-.167-.622.362-.945-2.471-6.075-4.641-8.401-2.059-2.207-6.521-5.069-8.491-5.446a5.762 5.762 0 0 1-.678-.177c-1.227-.434-2.229-.569-4.79-.643-2.046-.06-3.316-.004-4.203.184m41.251.026c-20.819 4.702-21.463 34.103-.866 39.506 17.542 4.601 31.584-15.977 21.245-31.135-4.411-6.467-13.068-10.023-20.379-8.371m41.87-.097c-12.894 2.293-20.322 17.217-14.397 28.923 7.574 14.961 28.492 14.976 35.87.026 7.284-14.76-5.367-31.815-21.473-28.949m-119.306.449c-.044.039-.521.121-1.059.183-.628.073-.838.053-.586-.056.373-.162 1.815-.273 1.645-.127m.621.501c-.152.096-.394.13-.538.074-.413-.158-.308-.254.276-.251.391.002.462.051.262.177m4.968.602c.066.108.313.189.549.182.413-.013.414-.02.037-.182-.538-.231-.729-.231-.586 0m.391.782c.313.135.246.171-.343.182-.403.007-.733-.074-.733-.182 0-.233.532-.233 1.076 0m-15.152.673c0 .311-.355.602-.526.43-.161-.16.09-.712.324-.712.111 0 .202.127.202.282m-.782.268c0 .288-.802 1.025-.989.909-.216-.133-.253-.936-.037-.811.08.047.322.014.537-.072.215-.087.413-.164.44-.171.027-.008.049.057.049.145m17.009.134a.289.289 0 0 1-.282.294c-.327 0-.547-.279-.365-.462.234-.234.647-.126.647.168m2.106.797c.03.015-.204.018-.52.006-.439-.016-.526-.079-.37-.267.162-.196.27-.198.52-.007.174.132.341.253.37.268m-2.888-.124c0 .102-.188.148-.418.104-.632-.121-.692-.288-.104-.288.287 0 .522.083.522.184m3.567 1.478c.051.269.017.489-.075.489-.093 0-.169-.22-.169-.489s.034-.489.075-.489c.042 0 .117.22.169.489m2.298 1.638c0 .187-1.118.144-1.313-.051-.066-.066.202-.121.596-.121.394 0 .717.077.717.172m1.173 1.197c.172.322.148.393-.14.406-.205.009-.248.056-.104.114.134.054.244.278.244.497 0 .331-.05.358-.291.157-.175-.145-.273-.506-.245-.903.054-.751.231-.841.536-.271m-29.363 1.319c-.048.589-.147.746-.5.796-.516.073-.551-.16-.142-.952.413-.799.715-.725.642.156m29.958.706c-.261.261-.699-.135-.502-.454.101-.164.211-.16.421.014.197.164.222.298.081.44m-32.462 2.851c0 .208-.088.434-.196.5-.111.069-.195-.096-.195-.379 0-.276.088-.501.195-.501.108 0 .196.171.196.38m-2.748 3.851c-.107.283-.151.56-.097.614.088.089.185-.117.414-.886.138-.465-.121-.242-.317.272m38.185 3.15c.041 1.532.002 2.785-.086 2.785-.089 0-.15-1.385-.138-3.079.027-3.675.123-3.549.224.294m-37.191 2.443c-.144.36-.176.279-.176-.44 0-.718.032-.799.176-.439.106.262.106.617 0 .879m1.754 3.384c0 .908-.267 1.17-.455.448-.142-.543.06-1.56.283-1.422.095.058.172.497.172.974m2.528 3.773a2.72 2.72 0 0 1-.165.708c-.251.643-.577-.2-.431-1.114.046-.287.609.097.596.406m26.113 4.72c0 .359-.11.688-.244.733-.17.057-.245-.168-.245-.733s.075-.789.245-.733c.134.045.244.375.244.733m-22.641.538c-.049.188-.09.034-.09-.342 0-.377.041-.531.09-.342a1.61 1.61 0 0 1 0 .684m18.829.668c0 .089-.242.161-.538.16-.354-.002-.452-.058-.285-.163.327-.208.823-.206.823.003m2.268.064c-.204.155-.446.235-.537.179-.324-.2-.161-.387.37-.424.508-.035.517-.021.167.245m-18.94.294c-.035.465-.083.478-.447.114-.213-.213-.221-.301-.035-.376.436-.176.512-.134.482.262m17.454.293a.289.289 0 0 1-.282.294c-.327 0-.547-.279-.365-.462.234-.233.647-.126.647.168m-16.358.375c.058.153-.011.322-.155.378-.221.084-.264-.136-.12-.606.041-.134.18-.019.275.228m7.478 2.265c.153 0 .278.088.278.195 0 .222-.649.252-1.358.062-.443-.118-.451-.138-.098-.276.209-.082.498-.112.641-.065.143.046.385.084.537.084" fill="#50b14c"/><path d="M371.408 131.329c3.467.03 9.142.03 12.61 0 3.467-.03.63-.054-6.305-.054-6.936 0-9.773.024-6.305.054m-48.152 8.749c0 4.194.026 5.881.058 3.751.031-2.131.031-5.562-.001-7.625-.031-2.063-.057-.319-.057 3.874m-109.287 6.992c-.052.136-.071 2.622-.043 5.523l.052 5.276 8.065.003 8.065.004-8.016-.055-8.016-.054v-10.744l8.065-.053 8.064-.054-8.07-.046c-6.362-.037-8.091.005-8.166.2m125.682 1.855c2.023.031 5.278.031 7.234-.001 1.955-.031.3-.057-3.679-.057-3.978 0-5.578.026-3.555.058m-27.872.195c1.855.032 4.89.032 6.745 0 1.855-.032.337-.059-3.372-.059-3.71 0-5.228.027-3.373.059m-22.935 5.719c0 2.742.027 3.863.061 2.492.033-1.371.033-3.614 0-4.985-.034-1.371-.061-.249-.061 2.493m2.407 5.424c1.102.035 2.906.035 4.008 0 1.102-.035.2-.063-2.004-.063s-3.106.028-2.004.063m-77.276 22.191.003 8.064 7.821.003 7.82.004-7.769-.055-7.769-.054-.055-8.014-.054-8.013.003 8.065m74.855-2.298c0 1.076.033 1.491.073.922.04-.568.039-1.447-.001-1.955-.04-.507-.073-.042-.072 1.033m-31.88 5.377c0 .591.037.833.082.537a4.394 4.394 0 0 0 0-1.075c-.045-.296-.082-.054-.082.538m-22.065 2.59-.574.636.635-.575c.593-.535.725-.696.574-.696-.033 0-.319.286-.635.635m86.474 3.418c.457.041 1.205.041 1.662 0 .457-.041.083-.075-.831-.075-.914 0-1.288.034-.831.075m-71.417 10.854-.773.831.831-.773c.773-.719.921-.889.773-.889-.032 0-.406.374-.831.831m-163.76 6.94c2.615.031 6.837.031 9.384 0 2.546-.031.407-.056-4.755-.056-5.161 0-7.244.025-4.629.056m40.846 0c2.823.031 7.442.031 10.264 0 2.823-.03.513-.055-5.132-.055s-7.954.025-5.132.055m171.472 0c4.766.029 12.508.029 17.204 0 4.696-.029.796-.053-8.666-.053s-13.305.024-8.538.053m71.646-.001c.947.036 2.442.036 3.324 0 .882-.036.108-.066-1.72-.065-1.828 0-2.55.029-1.604.065M94.819 230.032c-18.411 2.163-25.014 24.799-10.584 36.285 13.077 10.41 32.175.869 32.175-16.073 0-12.017-10.185-21.552-21.591-20.212m40.428.085c-11.696 1.627-19.597 13.448-16.724 25.023 4.334 17.463 27.37 21.034 36.681 5.686 8.796-14.499-3.249-33.032-19.957-30.709m41.244.04c-.726.105-1.32.26-1.32.343 0 .226 1.408.353 1.857.168.598-.247 3.026-.515 2.906-.321-.058.093.277.159.743.146 1.181-.034 2.719.217 2.592.422-.058.093.081.17.309.17.227 0 .36-.088.293-.195-.079-.129.049-.131.378-.005.274.104.653.141.842.082.291-.09.287-.071-.026.129-.345.219-.326.254.264.502.35.147.704.225.788.173.085-.053.262.036.395.196s.382.291.553.291c.55 0 2.077.656 2.327 1 .147.201.419.3.685.251.242-.045.331-.03.197.034-.385.183-.286.531.12.425.244-.064.358.003.343.201-.014.174.157.311.414.333.24.02.599.183.797.363.199.18.432.26.519.179.086-.08.048.062-.085.317-.194.372-.192.433.007.31.177-.11.212-.058.12.182-.071.184-.055.289.037.233.232-.144 1.195.33 1.196.589.001.118.178.374.393.568.215.195.392.495.394.666.003.273.027.275.195.019.227-.345.619.073.459.488-.049.127.047.343.212.48.165.137.243.341.174.453-.073.118-.031.145.1.064.135-.084.225-.013.225.176 0 .174.088.262.196.196.111-.069.195.098.195.386 0 .278.127.555.282.614.154.059.339.37.409.691.071.321.26.634.422.696.212.082.261.282.177.72-.083.436-.062.525.076.314.15-.229.193-.173.195.256.002.302.08.502.174.444.094-.058.215.351.269.909.054.557.197 1.047.318 1.087.121.041.22.225.22.41 0 .184.11.454.244.598.201.216.178.24-.125.133-.311-.11-.331-.084-.127.161.263.317.423 5.635.186 6.168-.343.771-.766 2.303-.765 2.772 0 .288-.133.658-.296.821-.163.163-.28.367-.259.454.036.151-.273.957-.639 1.669a1.691 1.691 0 0 0-.174.636c0 .162-.118.296-.262.296-.321 0-.77.926-.59 1.217.072.118.04.156-.073.086-.112-.07-.312.005-.445.165s-.363.291-.511.291c-.148 0-.27.137-.27.305 0 .168.088.25.196.184.496-.306.089.208-1.075 1.361-.699.692-1.275 1.153-1.279 1.024-.004-.129-.182.115-.395.542-.438.879-.884 1.421-.647.787.134-.359.116-.367-.214-.097-.198.161-.545.277-.77.257-.3-.027-.318-.01-.068.063.401.116.432.294.108.618-.284.284-.619.313-.45.039.067-.107.038-.195-.063-.195-.102 0-.239.198-.305.44-.101.366-.153.391-.313.146-.168-.255-.193-.252-.196.025-.003.383-1.047.858-1.408.641-.17-.102-.157-.032.037.208.276.34.268.346-.127.1-.232-.144-.376-.378-.322-.52.118-.305-.253-.351-.437-.053-.085.138-.232.124-.451-.043-.179-.136-.26-.17-.18-.076.08.094.047.289-.073.433-.26.314-.089.338.43.06.208-.111.378-.149.378-.083 0 .255-.547.645-.995.708-.259.036-.443.151-.408.254.088.263-.554.476-1.139.377-.439-.074-.449-.062-.098.113.342.171.317.191-.195.161-.323-.019-.792.078-1.044.215-.352.192-.582.199-.995.028-.295-.123-.617-.208-.715-.189-.542.102-1.058-.047-1.058-.306 0-.393-.319-.374-.473.028-.171.447-.047.518.94.54.475.01.762.082.638.159-.291.182-2.872.139-3.256-.054-.161-.081-1.202-.236-2.313-.345-1.336-.131-2.136-.303-2.361-.508-.188-.17-.599-.318-.913-.328-.665-.023-1.711-.323-1.228-.352.177-.011.369-.144.428-.296.084-.22-.011-.242-.468-.111-.336.096-.574.09-.574-.014 0-.098-.212-.231-.47-.296-.259-.065-.515-.286-.569-.492a.52.52 0 0 0-.495-.375c-.219 0-.457-.095-.529-.212-.073-.117-.298-.169-.501-.116-.203.053-.326.026-.273-.06.053-.085-.127-.302-.4-.481-.363-.238-.468-.441-.391-.755.058-.236.057-.325-.002-.198-.074.159-.325.083-.804-.242-.382-.259-.772-.424-.866-.367-.093.058-.125-.011-.07-.154.055-.143-.254-.605-.686-1.028-.433-.422-.787-.863-.787-.979 0-.117-.26-.517-.578-.889-.318-.373-.582-.778-.587-.901-.004-.123-.14-.274-.301-.336-.161-.062-.293-.237-.293-.391a.453.453 0 0 0-.278-.385c-.178-.068-.238-.262-.165-.54.078-.299.043-.39-.113-.294-.139.086-.227.004-.229-.214-.005-.591-.504-1.833-.674-1.675-.087.082-.058-.043.064-.278.278-.535.286-.846.011-.453-.152.219-.177.12-.097-.391.059-.376.057-.574-.004-.439-.147.322-.483.113-.355-.221.054-.141-.081-.713-.302-1.272-.22-.558-.393-1.21-.385-1.448.01-.292.099-.179.273.35.242.733.257.636.249-1.564-.006-1.629-.051-2.077-.146-1.467-.115.741-.141.781-.166.254-.016-.344.099-1.117.255-1.717.157-.601.233-1.227.17-1.392-.063-.164-.022-.491.092-.726.114-.234.312-.91.439-1.502.264-1.226 1.093-2.805 1.38-2.627.118.073.146-.094.071-.436-.096-.434-.075-.49.095-.26.171.23.191.178.093-.245-.075-.322-.043-.537.078-.537.112 0 .256-.165.321-.367.064-.202.333-.62.597-.928.308-.357.439-.693.365-.928-.077-.242-.042-.322.101-.233.12.074.272-.008.339-.182.067-.175.222-.279.344-.232.122.047.431-.19.688-.527a5.19 5.19 0 0 1 1.072-1.006c.334-.217.607-.525.607-.684 0-.159.176-.385.391-.501.215-.116.367-.318.339-.448-.038-.176.047-.184.329-.033.553.295.688.25.382-.126-.235-.289-.226-.314.074-.202.188.071.343.065.343-.012.001-.077.282-.301.626-.496.426-.243.548-.403.384-.504-.165-.101-.074-.224.287-.388.487-.222.506-.215.25.094-.26.313-.236.313.376-.004.359-.185.766-.294.904-.241.147.057.241-.039.227-.23-.019-.246.17-.342.757-.39.43-.035.938-.204 1.128-.375.225-.204.699-.311 1.368-.307.563.003.847-.031.632-.075a3.971 3.971 0 0 1-.798-.281c-1.386-.684-7.589 2.726-10.245 5.633-11.638 12.733-3.409 33.4 13.626 34.217 2.855.137 7.909-.588 7.599-1.09-.042-.067.129-.134.378-.149 2.047-.123 6.974-3.788 9.261-6.889 1.15-1.56 2.632-4.453 2.482-4.846-.06-.155-.034-.236.056-.18.462.286 1.392-4.406 1.392-7.022 0-2.722-.939-7.497-1.417-7.202-.121.075-.146.032-.061-.105.192-.31-.864-2.535-2-4.216-4.354-6.441-11.928-9.783-19.637-8.662m43.604-.101c.568.04 1.447.04 1.955-.001.507-.04.042-.072-1.033-.072-1.076.001-1.491.034-.922.073m41.44 0c.564.04 1.488.04 2.052 0 .565-.039.103-.072-1.026-.072s-1.591.033-1.026.072m41.551.001c.623.039 1.59.038 2.151-.001.56-.039.051-.071-1.131-.071-1.183.001-1.642.033-1.02.072m-79.577.185c.188.049.496.049.685 0 .188-.049.034-.089-.343-.089-.376 0-.53.04-.342.089m1.906.288c.377.113.817.253.978.312.161.058.466.139.678.18 1.97.377 6.432 3.239 8.491 5.446 2.252 2.414 5 7.459 4.614 8.472-.092.243-.066.265.108.092.714-.708-2.025-5.963-4.593-8.812-2.376-2.636-7.139-5.342-10.178-5.782l-.782-.113.684.205m-9.872.164c-.247.106-.283.168-.098.168.161 0 .469-.076.684-.168.246-.106.283-.168.098-.168-.162 0-.469.076-.684.168m-35.973.197c-.252.109-.042.129.586.056.538-.062 1.015-.144 1.059-.183.17-.146-1.272-.035-1.645.127m33.808.571c-4.366 1.774-8.107 5.298-10.332 9.732-1.028 2.047-.846 2.008.248-.053 2.571-4.842 5.593-7.504 11.369-10.013 1.082-.47.004-.19-1.285.334m-32.342-.3c0 .19.551.261.8.103.2-.126.129-.175-.262-.177-.296-.002-.538.032-.538.074m72.434.921c-.645.326-1.261.683-1.368.795-.17.176 2.603-1.129 2.818-1.327.254-.234-.428.017-1.45.532m41.207.154c-1.221.648-2.7 1.657-4.028 2.749-.596.489-2.935 3.237-3.319 3.898-.518.892-.275.741.358-.223 1.428-2.174 4.482-4.866 7.131-6.287.914-.49 1.574-.891 1.466-.89-.107.001-.831.34-1.608.753m18.422-.019c3.723 1.989 6.135 4.341 8.663 8.447.231.376.423.619.424.54.047-2.033-8.155-9.787-10.283-9.724-.095.003.443.334 1.196.737m-125.709-.351c.377.162.376.169-.037.182-.236.007-.483-.074-.549-.182-.143-.231.048-.231.586 0m84.898.737a40.9 40.9 0 0 1 2.15 1.383c.91.64.916.642.312.069-.61-.579-3.211-2.193-3.523-2.185-.089.002.389.332 1.061.733m-86.169.045c0 .108.33.189.733.182.589-.011.656-.047.343-.182-.544-.233-1.076-.233-1.076 0m-14.595.693c-.064.166-.067.35-.007.41.171.172.526-.119.526-.43 0-.375-.373-.361-.519.02m78.684.837c-2.297 1.828-4.274 4.206-5.514 6.632-.576 1.127-.175.675.547-.616 1.253-2.241 3.271-4.517 5.483-6.188 1.003-.757 1.22-.967.999-.967-.046 0-.728.512-1.515 1.139m-79.436-.563c-.215.086-.457.119-.537.072-.216-.125-.179.678.037.811.187.116.989-.621.989-.909 0-.088-.022-.153-.049-.145-.027.007-.225.084-.44.171m16.851-.06c-.182.183.038.462.365.462a.289.289 0 0 0 .282-.294c0-.294-.413-.402-.647-.168m1.863.704c-.156.188-.069.251.37.267.316.012.55.009.52-.006a6.508 6.508 0 0 1-.37-.268c-.25-.191-.358-.189-.52.007m-2.937.057c.2.2.939.263.939.08 0-.101-.235-.184-.522-.184-.286 0-.474.047-.417.104m89.814 1.265a217.77 217.77 0 0 1 1.437 1.564c.847.94 2.015 2.793 2.877 4.566.479.983.811 1.568.738 1.299-.535-1.99-2.699-5.31-4.716-7.234-1.222-1.166-1.25-1.182-.336-.195m-85.552.293c0 .269.076.489.169.489.092 0 .126-.22.075-.489-.052-.269-.127-.489-.169-.489-.041 0-.075.22-.075.489m1.229 1.587c.195.195 1.313.238 1.313.051 0-.095-.323-.172-.717-.172-.394 0-.662.055-.596.121m1.95 1.519c-.028.397.07.758.245.903.241.201.291.174.291-.157 0-.219-.11-.443-.244-.497-.144-.058-.101-.105.104-.114.288-.013.312-.084.14-.406-.305-.57-.482-.48-.536.271m-29.469.892c-.409.792-.374 1.025.142.952.353-.05.452-.207.5-.796.073-.881-.229-.955-.642-.156m30.098.408c-.197.319.241.715.502.454.141-.142.116-.276-.081-.44-.21-.174-.32-.178-.421-.014m127.587 1.19c-.009.067.154.507.362.977.49 1.108 1.146 3.51 1.36 4.978.129.885.175.99.193.449.042-1.245-1.787-7.361-1.915-6.404m-120.228 2.145c-.12.345-.212.723-.205.841.008.119.14-.129.294-.549.154-.421.246-.8.205-.841-.042-.042-.174.205-.294.549m-39.71.091c0 .283.084.448.195.379.108-.066.196-.292.196-.5 0-.209-.088-.38-.196-.38-.107 0-.195.225-.195.501m39.014 2.54c-.074.393-.095.753-.047.801.047.047.147-.234.22-.627.074-.392.095-.752.047-.8-.047-.048-.147.234-.22.626m-41.054.918c-.229.769-.326.975-.414.886-.111-.111.241-1.13.39-1.13.053 0 .064.11.024.244m37.644 3.128c-.012 1.694.049 3.079.138 3.079.145 0 .1-5.171-.051-5.865-.035-.161-.074 1.093-.087 2.786m3.155-1.906c.002.43.042.583.089.34.047-.243.045-.595-.004-.782-.049-.187-.087.012-.085.442m81.552 1.857c0 1.452.031 2.046.068 1.32a30.56 30.56 0 0 0 0-2.639c-.037-.726-.068-.132-.068 1.319m-40.082.098c.001 1.183.033 1.642.072 1.019.039-.622.038-1.59-.001-2.15-.039-.561-.071-.052-.071 1.131m-1.373-.098c0 .914.034 1.288.075.831.041-.457.041-1.205 0-1.662-.041-.456-.075-.083-.075.831m42.814.098c.001.86.035 1.188.076.728a9.71 9.71 0 0 0-.001-1.564c-.042-.4-.076-.024-.075.836m40.267-.195c.001.645.038.885.081.534a5.157 5.157 0 0 0-.002-1.173c-.044-.294-.08-.007-.079.639m-123.178 1.955c.002.43.042.583.089.34.047-.244.045-.596-.004-.783-.049-.186-.087.013-.085.443m-40.298.488c0 .719.032.8.176.44a1.255 1.255 0 0 0 0-.879c-.144-.36-.176-.279-.176.439m163.266.196c0 .376.04.53.089.342a1.61 1.61 0 0 0 0-.684c-.049-.188-.089-.034-.089.342m-.32 1.584c-.071.448-.092.852-.045.899.047.047.146-.279.221-.724.076-.444.096-.849.046-.899-.05-.05-.15.275-.222.724m-83.46 1.569c-.193.657-.311 1.235-.262 1.283.114.115.752-2.067.673-2.301-.032-.097-.217.361-.411 1.018m-78.01-.051c-.127.635.026 1.395.281 1.395.225 0 .226-1.704.001-1.843-.094-.058-.221.143-.282.448m160.887.739c-1.146 3.7-4.198 7.936-7.21 10.008-.509.35-.926.681-.926.735 0 .854 5.063-4.222 6.337-6.355.949-1.588 2.348-4.95 2.22-5.334-.036-.109-.226.316-.421.946m-41.816.826c-1.215 3.436-4.216 7.296-7.314 9.406-1.694 1.154-2.17 1.545-1.43 1.175 2.66-1.334 5.898-4.642 7.703-7.87.733-1.311 1.734-3.799 1.64-4.077-.031-.092-.301.522-.599 1.366m-79.307-.712c-.023.231.614 1.738.699 1.653.042-.042-.094-.464-.304-.936-.21-.473-.388-.796-.395-.717m36.892 2.558c-.504.988-1.074 2.003-1.267 2.256-2.671 3.506-4.389 5.01-7.78 6.811-1.897 1.008-1.76 1.105.218.154 3.834-1.844 7.475-5.618 9.308-9.646.851-1.869.561-1.612-.479.425m-36.124-.501c0 .093.128.34.284.549.273.366.279.364.171-.064-.111-.441-.455-.808-.455-.485m83.089.123c0 .21.582 1.294.694 1.294.054 0-.047-.286-.225-.635-.363-.714-.469-.863-.469-.659m-121.235.86c-.146.914.18 1.757.431 1.114.241-.618.201-1.021-.115-1.142-.161-.062-.303-.049-.316.028m38.803.336c.658 1.715 4.066 5.475 6.346 7.003 1.415.948 4.298 2.387 4.459 2.226.048-.048-.39-.28-.974-.517-3.269-1.327-7.374-4.929-9.203-8.076-.521-.897-.859-1.239-.628-.636m83.63 1.045c1.501 2.747 6.282 6.93 8.87 7.762.215.069-.268-.249-1.075-.707-2.951-1.675-5.226-3.691-6.935-6.145-1.203-1.727-1.45-1.989-.86-.91m-41.349.275c1.469 2.469 4.938 5.593 7.838 7.06 1.591.805 1.491.6-.141-.288-2.82-1.535-5.214-3.606-6.924-5.99-.659-.918-1.15-1.415-.773-.782m-54.864 3.47c0 .565.075.79.245.733.134-.045.244-.374.244-.733 0-.358-.11-.688-.244-.733-.17-.056-.245.168-.245.733m-22.242.196c0 .376.041.53.09.342a1.61 1.61 0 0 0 0-.684c-.049-.189-.09-.035-.09.342m18.096 1.007c-.167.105-.069.161.285.163.296.001.538-.071.538-.16 0-.209-.496-.211-.823-.003m2.387.001c0 .302.35.335.704.066.35-.266.341-.28-.167-.245-.295.021-.537.102-.537.179m-18.718.098c-.186.075-.178.163.035.376.364.364.412.351.447-.114.03-.396-.046-.438-.482-.262m17.289.387c-.182.183.038.462.365.462a.289.289 0 0 0 .282-.294c0-.294-.413-.401-.647-.168m-15.986.315c-.144.47-.101.69.12.606.144-.056.213-.225.155-.378-.095-.247-.234-.362-.275-.228m141.364 1.515c-.376.206-.614.379-.528.383.207.011 1.31-.563 1.31-.681 0-.128-.011-.124-.782.298m-42.229.293c-.484.26-.792.472-.684.472.108 0 .591-.212 1.075-.472.484-.259.792-.471.685-.471-.108 0-.592.212-1.076.471m-92.56.666c-.353.138-.345.158.098.276.709.19 1.358.16 1.358-.062 0-.107-.125-.195-.278-.195-.152 0-.394-.038-.537-.084-.143-.047-.432-.017-.641.065m90.605.116c-.376.145-.552.267-.391.27.161.003.557-.115.88-.262.755-.346.404-.351-.489-.008m-52.688.489c.215.093.567.166.782.162.314-.004.295-.036-.098-.162-.668-.214-1.182-.214-.684 0m8.309.196c-.657.21.053.21.88 0 .527-.134.536-.15.097-.153a3.772 3.772 0 0 0-.977.153m-1.76.195-.684.144.722.026c.397.014.776-.062.842-.17.131-.212.128-.212-.88 0m-3.763.138c.242.047.638.047.88 0 .242-.046.044-.085-.44-.085s-.682.039-.44.085m41.449.001c.243.046.595.044.782-.004.187-.049-.012-.088-.442-.085-.43.002-.583.042-.34.089m3.715 0c.243.046.595.044.782-.004.186-.049-.013-.088-.443-.085-.43.002-.583.042-.339.089m37.732 0c.243.046.595.044.782-.004.187-.049-.012-.088-.442-.085-.431.002-.584.042-.34.089" fill="#8ccb89"/><path d="M169.562 131.329c1.593.033 4.144.033 5.67 0 1.526-.033.223-.06-2.896-.06-3.118 0-4.366.027-2.774.06m42.022 0c2.231.032 5.882.032 8.113 0 2.231-.031.406-.057-4.057-.057-4.462 0-6.288.026-4.056.057m18.678-.001c.676.038 1.732.038 2.346-.001.614-.039.061-.07-1.23-.07-1.29.001-1.792.032-1.116.071m4.391-.01c.188.049.496.049.684 0 .188-.05.034-.09-.342-.09s-.53.04-.342.09m51.53.011c6.595.029 17.328.029 23.852 0 6.524-.028 1.128-.052-11.99-.052s-18.456.024-11.862.052m59.237 0c3.691.03 9.673.03 13.294 0 3.621-.029.602-.054-6.71-.054s-10.275.025-6.584.054M65.784 157.185c0 14.14.023 19.924.052 12.854.028-7.07.028-18.639 0-25.709-.029-7.069-.052-1.285-.052 12.855M4.2 156.891c0 13.871.024 19.575.052 12.675.029-6.901.029-18.25 0-25.22-.028-6.971-.052-1.325-.052 12.545m189.355-24.744c-.138.258-.187 12.405-.154 38.173l.048 37.793.098-37.927c.055-20.86.17-38.038.257-38.172.087-.135.112-.245.056-.245s-.193.17-.305.378M25.51 156.794c0 13.602.024 19.166.052 12.365.029-6.801.029-17.93 0-24.731-.028-6.801-.052-1.236-.052 12.366m97.266-4.986c-.054 10.753-.076 19.587-.049 19.632.213.355.241-2.416.197-19.649l-.05-19.533-.098 19.55m56.205 18.378c0 20.86.023 29.365.051 18.899.028-10.465.028-27.533 0-37.928-.028-10.394-.051-1.831-.051 19.029m-98.729.097c0 20.807.023 29.319.051 18.915.028-10.403.028-27.426 0-37.829-.028-10.404-.051-1.892-.051 18.914m63.343 0c0 20.807.023 29.319.051 18.915.028-10.403.028-27.426 0-37.829-.028-10.404-.051-1.892-.051 18.914m191.196-30.205c0 4.194.026 5.881.057 3.751.032-2.131.032-5.562 0-7.625-.031-2.063-.057-.319-.057 3.874m61.583.782c0 3.871.026 5.482.058 3.581.032-1.902.032-5.069 0-7.038-.032-1.97-.058-.414-.058 3.457m-148.182-3.617c.638.646 1.204 1.173 1.258 1.173.054 0-.424-.527-1.063-1.173-.638-.645-1.205-1.173-1.258-1.173-.054 0 .424.528 1.063 1.173m-16.129 10.227c0 .046.373.33.83.631.457.301.728.423.602.27-.243-.293-1.432-1.042-1.432-.901m56.823 1.455c-.082.133 7.365.131 16.393-.005 1.935-.03-.941-.073-6.392-.098-5.45-.024-9.951.022-10.001.103m62.483-.002c.618.038 1.63.038 2.248 0 .618-.039.112-.071-1.124-.071-1.237 0-1.743.032-1.124.071m24.87.099c-.051.135-.07 13.485-.042 29.668l.051 29.423.048-29.568.048-29.568 9.531-.052 9.531-.053-9.537-.047c-7.485-.037-9.557.006-9.63.197m-141.965.718c.232.424.452.741.488.704.095-.094-.511-1.229-.728-1.363-.1-.061.008.235.24.659m.774 2.753c0 .484.038.681.085.44a2.764 2.764 0 0 0 0-.88c-.047-.242-.085-.044-.085.44m72.968 8.046c.215.117.501.351.635.52.134.168.244.206.244.084 0-.248-.759-.833-1.069-.824-.111.003-.025.102.19.22m.968 8.571c0 4.248.026 5.985.058 3.862.031-2.124.031-5.599 0-7.723-.032-2.123-.058-.386-.058 3.861m-60.483-2.905-.668.777.465.429.466.429-.37-.445c-.369-.444-.368-.447.389-1.222.417-.427.675-.77.572-.761-.102.01-.486.366-.854.793m1.45 2.71c.42.43.808.782.861.782.054 0-.245-.352-.665-.782-.42-.43-.808-.782-.862-.782-.054 0 .246.352.666.782m38.807 9.14c0 .133 7.054.131 15.836-.006 1.882-.029-.911-.073-6.207-.097-5.296-.024-9.628.022-9.629.103m-51.364 4.35c0 .484.039.682.085.44a2.764 2.764 0 0 0 0-.88c-.046-.242-.085-.044-.085.44m-4.549 7.233c-.377.206-.614.379-.528.383.207.011 1.31-.562 1.31-.681 0-.128-.012-.124-.782.298m-198.583-.053a8.544 8.544 0 0 0 1.466 0c.403-.042.074-.076-.733-.076-.806 0-1.136.034-.733.076m262.351 1.959c4.374.03 11.588.03 16.031 0 4.444-.029.865-.053-7.952-.053s-12.453.024-8.079.053m28.598 8.847c0 4.247.026 5.985.058 3.861a320.6 320.6 0 0 0 0-7.722c-.032-2.124-.058-.386-.058 3.861m-75.264 1.808-1.56 1.613 1.613-1.559c1.498-1.448 1.702-1.666 1.559-1.666-.029 0-.755.725-1.612 1.612m-193.258-.293-1.068 1.124 1.124-1.068c1.044-.993 1.214-1.18 1.068-1.18-.03 0-.536.506-1.124 1.124m-43.59-.049c.364.377.707.685.761.685.053 0-.201-.308-.566-.685-.365-.376-.707-.684-.761-.684-.053 0 .201.308.566.684m341.418 3.91c0 .968.033 1.389.074.935.041-.454.041-1.246.001-1.76-.041-.514-.074-.142-.075.825m-334.967.97c0 .054.352.277.782.497.43.219.782.355.782.301 0-.054-.352-.277-.782-.497-.43-.219-.782-.355-.782-.301m355.719 2.165c-.323.148-.45.273-.282.278.168.005.476-.121.684-.278.464-.351.365-.351-.402 0m-211.486.238c2.608.03 6.874.03 9.482 0 2.607-.031.474-.056-4.741-.056s-7.349.025-4.741.056m40.958 0c5.672.029 14.954.029 20.626 0 5.672-.029 1.031-.053-10.313-.053-11.344 0-15.985.024-10.313.053m69.306 0c2.93.03 7.725.03 10.655 0 2.93-.031.533-.056-5.328-.056-5.86 0-8.257.025-5.327.056m84.751-.001c1.801.033 4.748.033 6.549 0 1.801-.032.327-.058-3.275-.058s-5.075.026-3.274.058m-324.732 1.757c.511.041 1.347.041 1.858 0 .511-.04.093-.073-.929-.073-1.021 0-1.439.033-.929.073" fill="#7c7c7c"/></g></svg>