<?xml version="1.0" standalone="no"?>
<!DOCTYPE svg PUBLIC "-//W3C//DTD SVG 20010904//EN"
 "http://www.w3.org/TR/2001/REC-SVG-20010904/DTD/svg10.dtd">
<svg version="1.0" xmlns="http://www.w3.org/2000/svg"
 width="140.000000pt" height="140.000000pt" viewBox="0 0 140.000000 140.000000"
 preserveAspectRatio="xMidYMid meet">

<g transform="translate(0.000000,140.000000) scale(0.100000,-0.100000)"
fill="#000000" stroke="none">
<path d="M0 700 l0 -700 700 0 700 0 0 700 0 700 -700 0 -700 0 0 -700z m570
282 c0 -5 -7 -17 -15 -28 -20 -26 -19 -34 5 -34 11 0 20 -3 20 -7 0 -5 5 -36
10 -70 7 -40 7 -70 0 -87 -18 -49 5 -25 69 69 l64 95 85 0 c71 0 83 -2 78 -15
-7 -20 7 -19 46 5 18 11 45 20 61 20 34 0 67 -32 67 -66 0 -22 -22 -134 -36
-181 -2 -8 -19 -13 -40 -13 -41 0 -39 -11 -13 116 14 72 9 94 -24 94 -38 0
-67 -41 -88 -125 -10 -43 -19 -79 -19 -81 0 -2 -16 -4 -35 -4 -43 0 -43 3 -10
130 16 63 21 98 14 105 -6 6 -12 6 -17 0 -71 -104 -97 -142 -104 -150 -5 -5
-27 -35 -49 -65 -50 -68 -69 -79 -143 -80 -49 0 -57 2 -52 16 3 9 6 20 6 25 0
5 18 9 40 9 53 0 57 12 37 122 -17 96 -23 111 -37 88 -5 -8 -37 -56 -72 -107
l-63 -92 -44 -1 -44 0 5 84 c2 47 1 83 -3 80 -5 -2 -33 -40 -64 -84 -54 -77
-58 -80 -96 -80 l-39 0 0 106 c0 58 -5 114 -10 125 -10 17 -7 19 35 19 l45 0
0 -53 c0 -28 -4 -68 -10 -86 -10 -37 -5 -55 10 -31 4 8 32 50 61 92 52 74 56
78 93 78 l39 0 -5 -90 c-3 -49 -4 -90 -3 -90 2 0 16 19 32 43 15 23 54 79 86
125 54 75 61 82 93 82 19 0 34 -4 34 -8z m768 -68 c27 -18 28 -55 4 -164 l-17
-75 -37 -3 c-21 -2 -38 -2 -38 0 0 2 7 35 15 73 8 39 15 85 15 103 0 27 -3 32
-24 32 -44 0 -75 -38 -92 -115 -9 -38 -18 -76 -20 -82 -4 -14 -74 -18 -74 -5
0 4 11 54 24 112 17 74 21 109 14 118 -8 9 0 12 36 12 34 0 46 -4 46 -15 0
-19 -2 -19 45 5 47 24 73 25 103 4z m-480 -310 c30 -21 30 -77 1 -98 -19 -13
-20 -16 -7 -35 20 -28 11 -67 -20 -91 -20 -17 -40 -20 -113 -20 -49 0 -89 3
-89 8 0 4 11 54 25 111 18 72 22 108 15 115 -21 21 -7 26 78 26 63 0 94 -4
110 -16z m270 -1 c-3 -15 -16 -18 -80 -21 -69 -3 -76 -5 -82 -25 -12 -45 -9
-47 65 -47 62 0 70 -2 67 -17 -3 -15 -16 -19 -75 -21 -72 -3 -73 -3 -81 -35
-5 -18 -7 -35 -5 -39 2 -4 30 -5 61 -2 58 5 90 -5 78 -25 -5 -7 -43 -11 -102
-11 -93 0 -94 0 -89 23 38 164 45 203 40 218 -6 18 1 19 100 19 96 0 106 -2
103 -17z m232 -3 c0 -17 -7 -20 -44 -20 l-44 0 -22 -92 c-29 -128 -29 -128
-51 -128 -23 0 -23 -5 1 100 27 118 27 120 -15 120 -28 0 -35 4 -35 20 0 19 7
20 105 20 98 0 105 -1 105 -20z"/>
<path d="M716 558 c-11 -44 -8 -48 42 -48 55 0 86 18 80 46 -3 16 -13 20 -59
22 -52 3 -57 1 -63 -20z"/>
<path d="M695 458 c-3 -7 -6 -24 -7 -38 -3 -23 1 -25 37 -28 53 -3 90 17 90
48 0 23 -4 25 -58 28 -40 2 -59 -1 -62 -10z"/>
</g>
</svg>
