<svg width="581" height="599" viewBox="0 0 581 599" fill="none" xmlns="http://www.w3.org/2000/svg">
<g filter="url(#filter0_d)">
<path d="M563.047 330.784L566.5 327.658V323V21V10.5H556H290.5H25H14.5V21V323V327.693L17.9969 330.823L284.997 569.823L292.04 576.128L299.047 569.784L563.047 330.784Z" stroke="black" stroke-width="21"/>
</g>
<g filter="url(#filter1_d)">
<path d="M291 519L528 292.508V99" stroke="black" stroke-width="20"/>
</g>
<path d="M89.8 165H74.2L95.4 109H111.4L132.6 165H117L113.4 155H93.4L89.8 165ZM97 144.6H109.8L103.4 125.8L97 144.6ZM150.997 153.8H180.197V165H136.597V109H150.997V153.8ZM200.216 153.8H229.416V165H185.816V109H200.216V153.8ZM78.12 233.4C92.7333 234.2 102.627 234.6 107.8 234.6C109.027 234.6 109.987 234.253 110.68 233.56C111.427 232.813 111.8 231.827 111.8 230.6V223.4H93.4C87.8 223.4 83.72 222.147 81.16 219.64C78.6533 217.08 77.4 213 77.4 207.4V205C77.4 199.4 78.6533 195.347 81.16 192.84C83.72 190.28 87.8 189 93.4 189H121.48V200.2H96.6C93.4 200.2 91.8 201.8 91.8 205V206.6C91.8 209.8 93.4 211.4 96.6 211.4H111C116.227 211.4 120.067 212.627 122.52 215.08C124.973 217.533 126.2 221.373 126.2 226.6V230.6C126.2 235.827 124.973 239.667 122.52 242.12C120.067 244.573 116.227 245.8 111 245.8C108.28 245.8 105.4 245.747 102.36 245.64L95 245.32C89.56 245.053 83.9333 244.68 78.12 244.2V233.4ZM133.394 189H166.994C172.594 189 176.647 190.28 179.154 192.84C181.714 195.347 182.994 199.4 182.994 205V213C182.994 218.6 181.714 222.68 179.154 225.24C176.647 227.747 172.594 229 166.994 229H147.794V245H133.394V189ZM168.594 205C168.594 201.8 166.994 200.2 163.794 200.2H147.794V217.8H163.794C166.994 217.8 168.594 216.2 168.594 213V205ZM190.191 189H223.791C229.391 189 233.444 190.28 235.951 192.84C238.511 195.347 239.791 199.4 239.791 205V212.2C239.791 216.627 239.044 220.067 237.551 222.52C236.111 224.973 233.791 226.6 230.591 227.4L240.591 245H224.991L215.791 228.2H204.591V245H190.191V189ZM225.391 205C225.391 201.8 223.791 200.2 220.591 200.2H204.591V217H220.591C223.791 217 225.391 215.4 225.391 212.2V205ZM292.169 245H247.769V189H292.169V200.2H262.169V211H285.769V222.2H262.169V233.8H292.169V245ZM308.55 245H292.95L314.15 189H330.15L351.35 245H335.75L332.15 235H312.15L308.55 245ZM315.75 224.6H328.55L322.15 205.8L315.75 224.6ZM386.547 189C392.574 189 397.134 190.573 400.227 193.72C403.374 196.813 404.947 201.373 404.947 207.4V226.6C404.947 232.627 403.374 237.213 400.227 240.36C397.134 243.453 392.574 245 386.547 245H355.347V189H386.547ZM390.547 207.4C390.547 202.6 388.147 200.2 383.347 200.2H369.747V233.8H383.347C388.147 233.8 390.547 231.4 390.547 226.6V207.4ZM411.245 233.4C425.858 234.2 435.752 234.6 440.925 234.6C442.152 234.6 443.112 234.253 443.805 233.56C444.552 232.813 444.925 231.827 444.925 230.6V223.4H426.525C420.925 223.4 416.845 222.147 414.285 219.64C411.778 217.08 410.525 213 410.525 207.4V205C410.525 199.4 411.778 195.347 414.285 192.84C416.845 190.28 420.925 189 426.525 189H454.605V200.2H429.725C426.525 200.2 424.925 201.8 424.925 205V206.6C424.925 209.8 426.525 211.4 429.725 211.4H444.125C449.352 211.4 453.192 212.627 455.645 215.08C458.098 217.533 459.325 221.373 459.325 226.6V230.6C459.325 235.827 458.098 239.667 455.645 242.12C453.192 244.573 449.352 245.8 444.125 245.8C441.405 245.8 438.525 245.747 435.485 245.64L428.125 245.32C422.685 245.053 417.058 244.68 411.245 244.2V233.4Z" fill="black"/>
<path d="M241.2 362.4H254.8V373.6H241.2V387.2H230V373.6H216.4V362.4H230V348.8H241.2V362.4ZM300.388 409.6H285.988V340H300.388V409.6ZM331.556 373.6V362.4H364.356V373.6H331.556Z" fill="black"/>
<defs>
<filter id="filter0_d" x="0" y="0" width="581" height="598.255" filterUnits="userSpaceOnUse" color-interpolation-filters="sRGB">
<feFlood flood-opacity="0" result="BackgroundImageFix"/>
<feColorMatrix in="SourceAlpha" type="matrix" values="0 0 0 0 0 0 0 0 0 0 0 0 0 0 0 0 0 0 127 0"/>
<feOffset dy="4"/>
<feGaussianBlur stdDeviation="2"/>
<feColorMatrix type="matrix" values="0 0 0 0 0 0 0 0 0 0 0 0 0 0 0 0 0 0 0.25 0"/>
<feBlend mode="normal" in2="BackgroundImageFix" result="effect1_dropShadow"/>
<feBlend mode="normal" in="SourceGraphic" in2="effect1_dropShadow" result="shape"/>
</filter>
<filter id="filter1_d" x="280.091" y="99" width="261.909" height="435.23" filterUnits="userSpaceOnUse" color-interpolation-filters="sRGB">
<feFlood flood-opacity="0" result="BackgroundImageFix"/>
<feColorMatrix in="SourceAlpha" type="matrix" values="0 0 0 0 0 0 0 0 0 0 0 0 0 0 0 0 0 0 127 0"/>
<feOffset dy="4"/>
<feGaussianBlur stdDeviation="2"/>
<feColorMatrix type="matrix" values="0 0 0 0 0 0 0 0 0 0 0 0 0 0 0 0 0 0 0.25 0"/>
<feBlend mode="normal" in2="BackgroundImageFix" result="effect1_dropShadow"/>
<feBlend mode="normal" in="SourceGraphic" in2="effect1_dropShadow" result="shape"/>
</filter>
</defs>
</svg>
