<svg width="97" height="65" viewBox="0 0 97 65" fill="none" xmlns="http://www.w3.org/2000/svg">
<path fill-rule="evenodd" clip-rule="evenodd" d="M0 7.94331e-06C6.49138 4.21518 97 12.8635 97 12.8635C25.6106 48.1531 7.46288 65 7.46288 65C9.31288 56.3672 10.0686 48.5096 10.0994 41.4581C14.6944 43.3797 22.4345 44.8368 35.309 43.6742L39.9657 37.6763L9.68306 31.9574C7.80198 11.3135 0 7.94331e-06 0 7.94331e-06Z" fill="#31427A"/>
<path fill-rule="evenodd" clip-rule="evenodd" d="M4.96497 1.53395C7.86385 6.4781 12.2581 16.4124 13.4299 32.6547L9.68305 31.9574C7.80198 11.3135 0 7.94331e-06 0 7.94331e-06C0.72486 0.464351 2.45178 0.97585 4.96497 1.53395ZM13.7229 42.6669C13.661 48.2307 13.2449 54.3837 12.3351 61.1407C8.85042 63.729 7.46288 65 7.46288 65C9.31287 56.3672 10.0686 48.5096 10.0994 41.4581C11.1325 41.8917 12.3351 42.3104 13.7229 42.6669Z" fill="#EA3A39"/>
<path fill-rule="evenodd" clip-rule="evenodd" d="M13.2604 18.2258C13.2604 18.2258 35.078 -6.46329 63.7108 11.0187C63.7108 11.0187 73.7486 17.5434 65.6072 26.6567C65.6072 26.6567 43.6971 54.3989 13.4456 38.2496C13.4456 38.2496 8.38812 33.3829 8.38812 31.1049C8.38812 28.7954 7.87936 25.2154 10.2228 23.1389C12.5822 21.0618 13.2604 18.2258 13.2604 18.2258Z" fill="#EA3A39"/>
<path fill-rule="evenodd" clip-rule="evenodd" d="M15.326 39.2711C15.326 39.2711 2.75983 34.079 5.79736 27.5697C5.79736 27.5697 11.6564 9.17337 38.4082 3.28388C38.4082 3.28388 60.2564 0.509455 70.4792 16.6129C70.4792 16.6129 66.8094 40.4335 33.5357 45.3312C33.5357 45.3312 11.8877 47.7485 4.42505 37.4269C4.42505 37.4269 13.3216 46.3074 37.9455 42.1072C37.9455 42.1072 59.5317 38.1863 67.4574 20.1462C67.4574 20.1462 68.5364 16.9846 64.4505 13.7919C64.4505 13.7919 44.7143 -6.75919 16.5442 16.3799C16.5442 16.3799 31.3463 9.34368 41.8465 8.19697L45.1307 10.7234C45.1307 10.7234 58.7458 11.5289 65.5604 17.0151C65.5604 17.0151 52.0537 11.4208 45.1307 14.0243L41.168 17.3097C41.168 17.3097 23.9298 15.8373 15.403 20.8436C12.7203 22.2538 8.29526 25.2918 8.63436 29.8016C8.64965 30.0341 8.68073 30.2664 8.72687 30.5145C9.15869 32.7928 10.9165 35.7219 15.326 39.2711Z" fill="#31427A"/>
<path fill-rule="evenodd" clip-rule="evenodd" d="M20.2758 17.311C20.2758 17.311 27.6767 12.5844 40.0116 10.7247L43.0647 12.1655L40.7056 14.475C40.7056 14.475 26.5819 15.0021 20.2758 17.311Z" fill="white"/>
<path fill-rule="evenodd" clip-rule="evenodd" d="M63.4792 16.2268C63.4792 16.2268 67.5497 18.3188 65.4684 20.5507C65.4684 20.5507 64.1272 22.4103 61.675 24.4563C61.675 24.4563 65.4684 21.9149 66.7941 19.1715C66.7941 19.1715 66.9796 18.2722 67.7191 19.1249C67.7191 19.1249 68.1204 15.7463 66.5634 15.1106C66.5634 15.1106 68.2131 18.4431 66.1622 17.358C66.1622 17.358 64.4661 16.4903 63.4792 16.2268Z" fill="#31427A"/>
<path fill-rule="evenodd" clip-rule="evenodd" d="M53.3031 31.7856V31.5532C53.5344 31.5532 53.7662 31.6152 53.9814 31.7392C54.2127 31.8631 54.3827 32.0334 54.5058 32.266C54.6443 32.4831 54.7061 32.7154 54.7061 32.948C54.7061 33.1961 54.6443 33.4284 54.5212 33.6609C54.3976 33.8779 54.2127 34.0484 53.9969 34.1724C53.7662 34.2963 53.5344 34.3583 53.3031 34.3583V34.1258C53.5035 34.1258 53.6884 34.0792 53.8738 33.9708C54.0587 33.8779 54.2127 33.7227 54.3209 33.537C54.4131 33.351 54.4749 33.1649 54.4749 32.948C54.4749 32.7466 54.4131 32.5605 54.3054 32.3743C54.2127 32.1884 54.0587 32.0491 53.8738 31.9407C53.6884 31.8475 53.488 31.7856 53.3031 31.7856ZM53.3031 33.1649C53.3495 33.2269 53.4268 33.3354 53.5189 33.4904L53.6575 33.7383H53.9505L53.7662 33.444C53.6729 33.289 53.6111 33.1961 53.5498 33.1339C53.5035 33.1029 53.4726 33.0719 53.4113 33.0563C53.5498 33.041 53.6426 32.9946 53.7347 32.9172C53.812 32.8394 53.8429 32.7311 53.8429 32.6225C53.8429 32.5451 53.8275 32.4831 53.7811 32.4212C53.7347 32.3433 53.6575 32.2969 53.5808 32.2816C53.5189 32.2504 53.4268 32.235 53.3031 32.235V32.4365C53.365 32.4365 53.4113 32.4521 53.4417 32.4675C53.488 32.4831 53.5189 32.4985 53.5498 32.5295C53.5808 32.5605 53.5808 32.6071 53.5808 32.6534C53.5808 32.7154 53.5653 32.7774 53.5035 32.8086C53.4726 32.855 53.3959 32.8704 53.3031 32.8704V33.1649ZM53.3031 31.7856C53.1028 31.7856 52.9024 31.8475 52.717 31.9407C52.5321 32.0491 52.3936 32.1884 52.2854 32.3743C52.1778 32.5605 52.1314 32.7466 52.1314 32.948C52.1314 33.1649 52.1778 33.351 52.2854 33.537C52.3781 33.7227 52.5321 33.8779 52.717 33.9708C52.9024 34.0792 53.0873 34.1258 53.3031 34.1258V34.3583C53.0564 34.3583 52.8252 34.2963 52.5939 34.1724C52.3781 34.0484 52.2087 33.8779 52.085 33.6609C51.9614 33.4284 51.9001 33.1961 51.9001 32.948C51.9001 32.7154 51.9614 32.4831 52.085 32.266C52.2087 32.0334 52.3781 31.8631 52.6094 31.7392C52.8252 31.6152 53.0564 31.5532 53.3031 31.5532V31.7856ZM53.3031 32.235C53.2722 32.235 53.2413 32.235 53.1955 32.235H52.6866V33.7383H52.9333V33.0875H53.0719C53.1491 33.0875 53.2259 33.1029 53.2568 33.1339C53.2722 33.1495 53.2877 33.1649 53.3031 33.1649V32.8704C53.2722 32.886 53.2413 32.886 53.2259 32.886H52.9333V32.4365H53.1955C53.2413 32.4365 53.2722 32.4365 53.3031 32.4365V32.235ZM47.9837 32.266V30.1892H48.3847C48.4153 28.8719 48.4924 27.2442 48.6002 25.292C48.3691 26.1596 48.1531 26.9347 47.9837 27.6165V22.6879H51.0209L51.1136 34.3429H48.0453L48.1839 32.266H47.9837ZM47.9837 22.6879V27.6165C47.6904 28.7016 47.4901 29.5538 47.3513 30.1892H47.9837V32.266H47.1049L46.6269 34.3429H43.4967L46.6577 22.6879H47.9837ZM40.1509 32.266V30.1892H40.5518C40.5827 28.8719 40.6596 27.2442 40.783 25.292C40.5363 26.1596 40.3358 26.9347 40.1509 27.6165V22.6879H43.2039L43.2964 34.3429H40.2125L40.3513 32.266H40.1509ZM40.1509 22.6879V27.6165C39.8581 28.7016 39.6573 29.5538 39.5187 30.1892H40.1509V32.266H39.2719L38.7939 34.3429H36.0648V32.855L38.8249 22.6879H40.1509ZM36.0648 27.7718H36.1882L36.3424 26.6711C36.4967 25.571 36.512 24.7649 36.4042 24.2534C36.3579 23.9899 36.2346 23.7419 36.0648 23.525V27.7718ZM36.0648 23.525V27.7718H33.166L33.4436 25.7413C33.5361 25.1522 33.5517 24.7805 33.5053 24.6407C33.4591 24.4859 33.3358 24.4082 33.1045 24.4082C32.8577 24.4082 32.6882 24.5014 32.5957 24.6873C32.5032 24.8576 32.4261 25.2454 32.3336 25.834L31.5779 31.2587C31.5009 31.8319 31.4854 32.204 31.5318 32.3743C31.5779 32.5295 31.7167 32.6225 31.948 32.6225C32.1639 32.6225 32.3336 32.5295 32.4261 32.3743C32.5187 32.204 32.611 31.7856 32.7035 31.1502L32.904 29.693H35.926L35.8645 30.1429C35.6949 31.3517 35.4789 32.204 35.2478 32.6998C35.0009 33.1961 34.5691 33.6453 33.9372 34.0172C33.3048 34.4049 32.5649 34.5908 31.7014 34.5908C30.8224 34.5908 30.1131 34.4357 29.589 34.1104C29.0494 33.7849 28.7411 33.351 28.6331 32.7774C28.6175 32.7154 28.6022 32.6381 28.6022 32.5605V31.2121C28.6175 30.9022 28.6639 30.5765 28.71 30.2203L29.1882 26.811C29.296 25.9583 29.4193 25.338 29.5273 24.9197C29.6506 24.4859 29.882 24.0826 30.2056 23.6953C30.5603 23.3081 30.9921 22.998 31.5318 22.7811C32.0561 22.5486 32.6574 22.4399 33.3203 22.4399C34.1991 22.4399 34.9084 22.6108 35.4481 22.9514C35.7102 23.1223 35.9107 23.3081 36.0648 23.525ZM36.0648 32.855L35.6639 34.3429H36.0648V32.855ZM28.6022 22.9203L28.6331 22.6879H28.6022V22.9203ZM28.6022 22.6879V22.9203L26.9986 34.3429H24.3619L23.5295 29.0578L22.7893 34.3429H20.2606L21.8795 22.6879H24.4082L25.3642 27.9421L26.1044 22.6879H28.6022ZM28.6022 31.2121C28.5559 31.7545 28.5559 32.2196 28.6022 32.5605V31.2121Z" fill="white"/>
</svg>
