<svg id="svg" version="1.1" xmlns="http://www.w3.org/2000/svg" xmlns:xlink="http://www.w3.org/1999/xlink" width="400" height="400" viewBox="0, 0, 400,400"><g id="svgg"><path id="path0" d="M24.610 15.897 C 23.516 15.982,22.436 16.199,22.210 16.379 C 21.985 16.560,21.228 16.830,20.529 16.979 C 18.903 17.327,17.327 18.903,16.979 20.529 C 16.830 21.228,16.503 22.053,16.254 22.361 C 15.547 23.236,15.609 144.870,16.317 145.106 C 16.713 145.238,16.725 145.408,16.369 145.838 C 15.681 146.666,16.089 151.060,16.931 151.902 C 17.408 152.379,18.290 152.583,19.904 152.590 C 21.167 152.596,22.328 152.778,22.483 152.997 C 22.661 153.246,22.959 153.187,23.283 152.838 C 23.710 152.379,23.696 152.331,23.200 152.560 C 22.870 152.712,22.989 152.547,23.465 152.193 C 24.174 151.665,24.270 151.341,23.999 150.397 C 23.817 149.763,23.796 149.189,23.952 149.122 C 24.108 149.055,24.019 147.380,23.756 145.400 C 23.060 140.175,23.186 26.173,23.889 24.947 C 24.158 24.478,24.698 23.938,25.089 23.747 C 25.487 23.553,105.826 23.360,207.400 23.310 C 307.280 23.260,389.368 23.215,389.818 23.210 C 390.467 23.202,390.656 22.909,390.731 21.800 C 390.783 21.030,390.671 20.400,390.482 20.400 C 390.293 20.400,390.218 19.860,390.315 19.199 C 390.586 17.351,389.485 15.980,387.681 15.922 C 383.603 15.789,26.318 15.765,24.610 15.897 M100.600 108.436 C 96.663 109.002,96.507 109.138,96.796 111.761 C 96.932 112.996,96.881 114.230,96.684 114.503 C 96.436 114.845,96.395 114.782,96.550 114.300 C 96.674 113.915,96.601 113.600,96.387 113.600 C 96.174 113.600,96.000 113.735,96.000 113.900 C 96.000 114.065,94.815 114.200,93.368 114.200 C 89.969 114.200,88.400 115.080,88.400 116.985 C 88.400 118.468,86.777 120.400,85.531 120.400 C 84.321 120.400,82.817 121.599,81.988 123.224 C 81.351 124.472,80.951 124.772,79.623 124.996 C 77.624 125.334,76.402 127.049,76.030 130.039 C 75.940 130.762,74.360 132.012,73.440 132.088 C 71.057 132.286,70.607 133.469,70.533 139.733 C 70.496 142.850,70.398 146.783,70.315 148.473 C 70.232 150.163,70.307 151.457,70.482 151.349 C 70.657 151.241,70.800 151.411,70.800 151.727 C 70.800 152.043,71.105 152.549,71.477 152.851 C 71.960 153.243,72.066 153.254,71.847 152.891 C 71.610 152.496,71.931 152.436,73.271 152.623 C 74.553 152.802,74.845 152.754,74.400 152.438 C 74.030 152.176,73.983 152.010,74.276 152.006 C 74.538 152.003,74.869 152.189,75.012 152.419 C 75.186 152.701,75.477 152.668,75.897 152.319 C 76.241 152.034,76.630 151.800,76.761 151.800 C 76.893 151.800,76.955 151.665,76.900 151.500 C 76.845 151.335,76.980 151.200,77.200 151.200 C 77.420 151.200,77.600 151.001,77.600 150.757 C 77.600 150.514,77.339 150.414,77.020 150.537 C 76.634 150.685,76.515 150.567,76.662 150.182 C 76.784 149.864,77.026 149.693,77.200 149.800 C 77.569 150.028,78.013 149.031,77.972 148.067 C 77.949 147.526,77.872 147.551,77.564 148.200 C 77.246 148.869,77.226 148.836,77.445 148.000 C 77.662 147.169,77.938 140.705,77.988 135.295 C 78.000 133.998,78.010 133.992,79.600 134.246 C 80.717 134.425,81.200 134.358,81.200 134.024 C 81.200 133.737,81.503 133.642,81.958 133.787 C 82.955 134.103,84.103 132.955,83.787 131.958 C 83.642 131.503,83.737 131.200,84.024 131.200 C 84.358 131.200,84.425 130.717,84.246 129.600 C 84.063 128.456,84.134 127.984,84.495 127.943 C 84.773 127.912,85.360 127.853,85.800 127.812 C 86.240 127.771,86.926 127.706,87.324 127.668 C 87.788 127.625,87.940 127.421,87.747 127.100 C 87.552 126.776,87.690 126.798,88.140 127.163 C 89.318 128.119,90.091 126.857,90.137 123.901 C 90.164 122.224,90.686 121.891,93.287 121.891 C 94.119 121.891,94.800 121.755,94.800 121.590 C 94.800 121.424,95.115 121.314,95.500 121.344 C 95.939 121.379,96.179 121.139,96.144 120.700 C 96.114 120.315,96.217 120.000,96.374 120.000 C 96.530 120.000,96.685 118.985,96.718 117.745 C 96.751 116.504,96.857 115.410,96.953 115.313 C 97.253 115.013,99.200 114.895,99.200 115.176 C 99.200 115.322,101.360 115.441,104.000 115.440 C 106.640 115.439,108.800 115.325,108.800 115.188 C 108.800 115.051,109.385 115.010,110.100 115.098 C 111.149 115.226,111.284 115.167,110.800 114.791 C 110.201 114.325,110.677 114.417,112.300 115.081 C 112.575 115.194,112.800 115.092,112.800 114.855 C 112.800 114.619,113.041 114.518,113.336 114.631 C 113.990 114.882,114.969 113.797,114.611 113.218 C 114.469 112.988,114.563 112.800,114.819 112.800 C 115.076 112.800,115.194 112.575,115.081 112.300 C 114.446 110.746,114.329 110.206,114.756 110.800 C 115.106 111.286,115.189 111.192,115.194 110.300 C 115.200 109.269,115.086 109.197,113.400 109.150 C 112.410 109.123,111.465 109.066,111.300 109.025 C 111.135 108.984,109.650 108.818,108.000 108.654 C 106.350 108.491,104.550 108.298,104.000 108.224 C 103.450 108.150,101.920 108.246,100.600 108.436 M129.400 108.814 C 128.520 108.991,126.565 109.178,125.055 109.230 L 122.310 109.324 122.509 111.087 C 122.772 113.420,124.154 114.949,125.718 114.636 C 126.472 114.486,126.751 114.555,126.570 114.849 C 126.384 115.150,126.811 115.214,127.950 115.054 C 128.858 114.927,129.600 114.965,129.600 115.139 C 129.600 115.540,139.240 115.494,139.872 115.089 C 140.586 114.633,140.865 115.396,140.936 118.000 C 141.012 120.791,141.479 121.382,143.611 121.382 C 144.485 121.382,145.200 121.527,145.200 121.703 C 145.200 121.880,145.824 121.983,146.586 121.932 C 148.172 121.825,148.237 121.869,149.135 123.668 C 149.569 124.538,150.484 125.351,151.771 126.012 C 152.854 126.568,153.813 127.288,153.901 127.612 C 154.038 128.117,153.995 128.115,153.593 127.600 C 153.203 127.101,153.172 127.135,153.408 127.800 C 153.564 128.240,153.823 129.144,153.984 129.809 C 154.598 132.361,156.062 133.600,158.460 133.600 C 158.867 133.600,159.244 133.645,159.297 133.700 C 159.350 133.755,159.521 167.190,159.677 208.000 C 160.011 295.395,159.839 286.514,161.196 286.315 C 161.781 286.229,162.478 286.393,162.745 286.680 C 163.298 287.271,164.000 287.370,164.000 286.855 C 164.000 286.666,164.426 286.592,164.946 286.692 C 166.541 286.997,166.540 287.065,166.693 210.000 C 166.858 126.992,167.047 132.652,164.092 132.247 C 163.096 132.111,162.003 131.774,161.664 131.499 C 161.150 131.084,161.106 131.101,161.400 131.600 C 161.701 132.111,161.656 132.121,161.101 131.671 C 160.741 131.380,160.546 130.885,160.667 130.571 C 160.787 130.257,160.716 130.000,160.508 130.000 C 160.301 130.000,160.188 129.235,160.256 128.300 C 160.824 120.606,160.902 120.752,156.306 120.871 C 153.760 120.937,153.316 121.048,153.495 121.575 C 153.639 121.997,153.515 121.953,153.114 121.439 C 152.741 120.959,152.328 120.797,151.999 121.001 C 151.668 121.205,151.574 121.166,151.741 120.896 C 151.886 120.661,151.779 120.377,151.502 120.265 C 151.122 120.110,151.146 119.958,151.600 119.637 C 152.041 119.325,152.061 119.211,151.676 119.206 C 151.388 119.203,151.264 119.020,151.400 118.800 C 151.536 118.580,151.469 118.400,151.251 118.400 C 150.796 118.400,150.885 116.850,151.389 115.983 C 151.576 115.662,151.594 115.520,151.431 115.667 C 151.267 115.814,150.124 115.587,148.892 115.163 C 147.659 114.739,145.808 114.349,144.778 114.296 C 143.624 114.237,142.968 114.033,143.070 113.764 C 143.162 113.524,142.969 113.106,142.642 112.835 C 142.315 112.564,142.143 112.092,142.260 111.787 C 142.377 111.482,142.263 110.596,142.005 109.816 L 141.538 108.400 136.269 108.446 C 133.371 108.471,130.280 108.637,129.400 108.814 M270.705 108.862 C 270.257 109.209,269.972 110.062,269.905 111.262 C 269.847 112.286,269.665 113.040,269.500 112.938 C 269.238 112.776,269.054 113.323,269.130 114.033 C 269.144 114.162,268.941 114.286,268.678 114.309 C 268.415 114.332,267.570 114.439,266.800 114.547 C 266.030 114.655,264.050 114.856,262.400 114.994 C 258.918 115.285,258.769 115.383,258.673 117.447 C 258.575 119.537,258.069 119.957,255.331 120.219 C 252.204 120.519,251.674 121.113,251.494 124.523 C 251.414 126.020,251.496 127.336,251.675 127.446 C 251.854 127.557,252.000 127.997,252.000 128.424 C 252.000 128.851,252.199 129.200,252.443 129.200 C 252.686 129.200,252.782 128.930,252.655 128.600 C 252.470 128.118,252.835 127.989,254.513 127.945 C 258.350 127.845,258.731 127.802,259.066 127.436 C 259.264 127.220,259.169 127.206,258.832 127.401 C 258.386 127.660,258.337 127.567,258.605 126.966 C 258.919 126.259,259.098 124.832,259.171 122.453 C 259.194 121.709,259.371 121.551,260.000 121.716 C 260.440 121.831,260.800 121.762,260.800 121.563 C 260.800 121.363,260.991 121.200,261.224 121.200 C 261.457 121.200,261.536 121.380,261.400 121.600 C 261.260 121.827,261.596 122.000,262.176 122.000 C 262.739 122.000,263.200 121.820,263.200 121.600 C 263.200 121.380,263.650 121.200,264.200 121.200 C 264.750 121.200,265.200 121.357,265.200 121.548 C 265.200 121.962,268.464 121.408,269.597 120.802 C 270.609 120.260,271.178 119.171,271.532 117.100 L 271.816 115.437 276.908 115.433 C 279.709 115.431,282.000 115.275,282.000 115.088 C 282.000 114.900,282.335 114.852,282.744 114.982 C 283.201 115.127,283.701 114.945,284.044 114.509 C 284.560 113.851,284.544 113.843,283.830 114.400 C 282.541 115.405,284.274 112.924,286.200 111.008 L 287.800 109.417 285.200 109.124 C 279.180 108.447,271.422 108.306,270.705 108.862 M304.600 108.602 C 304.380 108.679,302.616 108.862,300.679 109.008 C 298.289 109.190,297.208 109.424,297.313 109.738 C 297.397 109.992,297.662 110.200,297.900 110.200 C 298.138 110.200,298.483 110.364,298.667 110.564 C 298.864 110.780,298.769 110.794,298.432 110.599 C 298.009 110.353,297.929 110.439,298.119 110.934 C 298.286 111.369,298.171 111.600,297.787 111.600 C 297.009 111.600,297.029 113.178,297.823 114.311 C 298.479 115.248,299.200 115.491,299.200 114.776 C 299.200 114.543,299.029 114.458,298.820 114.588 C 298.611 114.717,298.251 114.469,298.020 114.037 C 297.491 113.049,297.483 112.400,298.000 112.400 C 298.220 112.400,298.400 112.748,298.400 113.173 C 298.400 113.598,298.763 114.061,299.206 114.202 C 299.649 114.343,299.896 114.644,299.756 114.872 C 299.595 115.132,299.798 115.191,300.304 115.030 C 300.746 114.890,301.579 114.990,302.154 115.252 C 302.944 115.612,303.445 115.617,304.200 115.273 C 304.750 115.022,305.200 114.960,305.200 115.135 C 305.200 115.310,306.820 115.441,308.800 115.426 C 310.780 115.412,312.400 115.529,312.400 115.687 C 312.400 116.243,315.251 118.816,315.617 118.590 C 315.835 118.455,315.882 118.890,315.732 119.642 C 315.531 120.647,315.590 120.854,316.006 120.597 C 316.391 120.358,316.466 120.451,316.281 120.934 C 316.140 121.300,316.184 121.600,316.379 121.600 C 316.574 121.600,316.824 121.375,316.935 121.100 C 317.064 120.781,317.148 120.835,317.168 121.250 C 317.194 121.779,317.641 121.890,319.582 121.850 C 321.688 121.806,322.011 121.904,322.373 122.700 C 322.635 123.274,322.641 123.600,322.391 123.600 C 321.636 123.600,321.974 126.374,322.834 127.234 C 323.507 127.907,324.060 128.042,325.703 127.934 L 327.739 127.800 328.204 129.606 C 328.460 130.600,328.648 131.891,328.623 132.475 C 328.597 133.060,328.717 133.452,328.888 133.346 C 329.060 133.240,329.200 133.354,329.200 133.600 C 329.200 133.846,329.380 133.936,329.600 133.800 C 329.820 133.664,330.000 133.717,330.000 133.917 C 330.000 134.118,331.165 134.285,332.590 134.289 C 335.576 134.297,335.486 134.397,336.138 130.340 C 336.453 128.383,335.491 125.963,334.320 125.764 C 330.944 125.191,330.614 124.980,330.103 123.068 C 329.600 121.189,328.636 120.459,326.465 120.314 C 325.280 120.235,323.949 118.883,323.992 117.804 C 324.060 116.081,323.876 115.537,323.039 114.989 C 321.920 114.255,317.344 114.096,316.673 114.767 C 316.013 115.427,314.671 115.313,314.937 114.620 C 315.093 114.213,314.967 114.114,314.514 114.288 C 314.084 114.453,313.965 114.380,314.158 114.068 C 314.321 113.804,314.219 113.588,313.924 113.572 C 313.636 113.556,313.760 113.389,314.200 113.200 C 314.640 113.011,314.775 112.844,314.500 112.828 C 313.791 112.788,313.878 111.622,314.612 111.340 C 315.142 111.137,315.128 111.027,314.512 110.523 C 314.120 110.203,314.023 110.053,314.295 110.191 C 314.602 110.346,314.712 110.236,314.583 109.900 C 314.172 108.830,306.727 107.862,304.600 108.602 M287.825 110.351 C 287.477 111.025,286.521 112.032,285.703 112.589 C 283.957 113.775,284.413 113.955,286.281 112.816 C 287.500 112.073,289.083 109.750,288.659 109.326 C 288.549 109.216,288.174 109.677,287.825 110.351 M124.866 112.671 C 125.630 113.483,125.635 113.534,124.942 113.435 C 124.109 113.316,123.202 111.813,123.231 110.600 C 123.248 109.923,123.312 109.954,123.649 110.800 C 123.869 111.350,124.416 112.192,124.866 112.671 M288.406 111.789 C 288.115 112.333,287.140 113.159,286.238 113.625 C 284.823 114.358,284.763 114.437,285.800 114.205 C 287.424 113.843,289.721 111.588,289.100 110.966 C 289.009 110.876,288.697 111.246,288.406 111.789 M270.800 118.418 C 270.800 119.021,268.931 120.803,268.318 120.784 C 268.033 120.775,268.283 120.506,268.873 120.186 C 269.462 119.865,270.060 119.243,270.199 118.802 C 270.472 117.942,270.800 117.733,270.800 118.418 M150.600 120.000 C 150.464 120.220,150.554 120.400,150.800 120.400 C 151.046 120.400,151.135 120.582,150.998 120.803 C 150.861 121.025,151.165 121.375,151.674 121.580 C 152.569 121.941,152.563 121.951,151.500 121.889 C 150.721 121.844,150.400 121.610,150.400 121.089 C 150.400 120.607,150.228 120.456,149.900 120.653 C 149.560 120.857,149.576 120.737,149.949 120.277 C 150.543 119.544,151.002 119.349,150.600 120.000 M250.800 128.024 C 250.800 128.257,250.620 128.336,250.400 128.200 C 250.180 128.064,250.000 128.047,250.000 128.162 C 250.000 128.278,250.321 128.544,250.714 128.754 C 251.285 129.059,251.429 128.982,251.429 128.368 C 251.429 127.946,251.287 127.600,251.114 127.600 C 250.941 127.600,250.800 127.791,250.800 128.024 M249.200 129.950 C 248.870 130.088,248.545 130.455,248.477 130.768 C 248.376 131.237,248.463 131.246,248.977 130.819 C 249.488 130.395,249.726 130.401,250.300 130.851 C 250.948 131.359,250.956 131.340,250.413 130.600 C 250.090 130.160,249.820 129.778,249.813 129.750 C 249.806 129.723,249.530 129.813,249.200 129.950 M249.961 206.633 C 249.916 288.323,249.991 281.000,249.200 281.000 C 248.783 281.000,248.623 280.633,248.674 279.800 C 248.715 279.140,248.657 278.915,248.545 279.300 C 248.433 279.685,247.995 280.000,247.571 280.000 C 246.932 280.000,246.798 280.292,246.789 281.700 C 246.775 284.087,246.384 289.702,246.192 290.292 C 245.696 291.812,246.961 293.041,249.000 293.020 C 250.456 293.006,250.970 293.144,250.890 293.530 C 250.830 293.821,250.968 293.944,251.197 293.802 C 251.426 293.661,251.507 293.373,251.377 293.162 C 251.247 292.952,251.289 292.806,251.470 292.837 C 252.488 293.014,252.661 292.611,252.687 290.003 C 252.701 288.465,252.598 287.277,252.457 287.364 C 252.316 287.451,252.162 287.000,252.116 286.361 C 252.059 285.572,252.219 285.200,252.616 285.200 C 253.017 285.200,253.200 284.761,253.200 283.800 C 253.200 282.035,252.421 281.944,252.340 283.700 C 252.284 284.910,252.269 284.924,252.113 283.900 C 252.022 283.295,251.605 282.617,251.188 282.394 C 250.447 281.997,250.428 280.237,250.407 208.320 C 250.396 167.803,250.299 134.566,250.193 134.460 C 250.087 134.353,249.982 166.832,249.961 206.633 M250.893 206.500 C 250.945 246.155,251.034 273.740,251.092 267.800 C 251.361 240.299,251.367 134.400,251.100 134.400 C 250.935 134.400,250.842 166.845,250.893 206.500 M340.414 137.405 C 340.406 137.628,339.499 137.792,338.394 137.771 C 337.157 137.747,336.217 137.938,335.941 138.271 C 335.603 138.678,335.360 138.699,334.947 138.356 C 334.505 137.989,334.406 138.123,334.432 139.051 C 334.449 139.683,334.554 139.975,334.665 139.700 C 334.776 139.425,335.060 139.200,335.295 139.200 C 335.531 139.200,335.423 139.532,335.056 139.938 C 334.331 140.740,334.127 147.816,334.842 147.374 C 335.037 147.253,335.018 147.626,334.799 148.203 C 334.164 149.873,334.297 151.199,335.100 151.206 C 335.654 151.211,335.685 151.285,335.249 151.561 C 334.473 152.053,335.107 152.883,336.034 152.589 C 336.455 152.456,336.800 152.502,336.800 152.693 C 336.800 152.884,337.970 153.062,339.400 153.090 C 340.874 153.119,342.000 152.970,342.000 152.747 C 342.000 152.530,342.144 152.442,342.319 152.550 C 343.953 153.560,344.121 148.770,342.610 144.267 C 342.054 142.613,341.594 140.751,341.586 140.129 C 341.573 139.095,340.447 136.476,340.414 137.405 M159.200 292.400 C 159.200 293.890,156.650 296.594,154.878 296.983 C 154.088 297.156,153.607 297.548,153.477 298.124 C 153.091 299.831,153.181 307.141,153.592 307.395 C 153.816 307.534,153.997 307.862,153.994 308.124 C 153.990 308.418,153.824 308.370,153.559 308.000 C 153.215 307.518,153.169 307.577,153.328 308.300 C 153.566 309.385,153.358 309.537,151.466 309.665 C 150.660 309.719,149.997 309.952,149.994 310.182 C 149.991 310.412,149.823 310.340,149.623 310.023 C 149.327 309.555,149.061 309.535,148.229 309.914 C 147.171 310.396,146.767 311.995,147.700 312.006 C 148.084 312.011,148.088 312.083,147.719 312.318 C 147.454 312.486,147.119 313.363,146.975 314.266 L 146.712 315.908 144.496 316.092 C 141.810 316.315,141.324 316.857,140.964 320.034 L 140.702 322.351 138.851 322.139 C 135.662 321.774,133.798 323.160,135.300 324.779 C 135.708 325.219,135.671 325.272,135.100 325.071 C 134.510 324.864,134.400 325.074,134.400 326.413 C 134.400 327.994,134.394 328.000,132.824 328.000 C 131.957 328.000,131.133 328.185,130.993 328.411 C 130.849 328.645,129.931 328.740,128.870 328.632 C 127.595 328.503,127.255 328.554,127.800 328.793 C 128.240 328.986,128.364 329.156,128.076 329.172 C 127.788 329.187,127.654 329.363,127.777 329.563 C 127.900 329.762,127.613 329.824,127.138 329.700 C 126.495 329.532,126.358 329.608,126.599 329.999 C 126.812 330.343,126.768 330.427,126.470 330.243 C 125.809 329.834,124.504 330.656,123.824 331.910 C 123.396 332.697,123.228 332.805,123.216 332.296 C 123.196 331.417,125.417 329.040,125.951 329.370 C 126.168 329.504,126.458 329.430,126.596 329.207 C 126.910 328.698,125.573 328.678,124.275 329.171 C 123.225 329.571,122.400 331.369,122.400 333.260 C 122.400 333.964,122.188 334.400,121.847 334.400 C 121.542 334.400,121.199 334.760,121.084 335.200 C 120.969 335.640,121.038 336.000,121.237 336.000 C 121.437 336.000,121.600 335.730,121.600 335.400 C 121.600 335.070,121.870 334.800,122.200 334.800 C 122.544 334.800,122.817 334.416,122.840 333.900 C 122.878 333.037,122.893 333.041,123.200 334.000 C 123.469 334.840,123.529 334.872,123.574 334.200 C 123.604 333.760,123.904 332.950,124.242 332.400 C 124.647 331.740,124.760 331.672,124.576 332.200 C 123.779 334.486,123.847 334.798,125.153 334.850 C 126.556 334.906,126.651 334.916,130.800 335.398 C 135.307 335.922,135.778 335.702,136.151 332.894 C 136.496 330.298,136.920 329.773,138.760 329.664 C 140.758 329.546,143.173 328.573,143.417 327.787 C 143.518 327.464,143.719 326.885,143.864 326.500 C 144.008 326.115,144.104 325.681,144.075 325.535 C 144.047 325.389,144.527 325.095,145.143 324.880 C 145.758 324.665,146.769 324.020,147.389 323.445 C 148.009 322.870,148.654 322.400,148.821 322.400 C 148.988 322.400,149.037 322.061,148.928 321.647 C 148.654 320.599,150.126 319.346,151.978 319.050 C 153.882 318.745,154.738 317.192,154.893 313.754 C 155.019 310.975,155.511 310.431,157.910 310.413 C 160.631 310.392,161.772 304.239,160.057 298.834 C 159.433 296.867,159.298 295.675,159.479 293.734 C 159.609 292.340,159.600 291.200,159.458 291.200 C 159.316 291.200,159.200 291.740,159.200 292.400 M254.211 297.583 C 254.081 297.793,253.710 297.864,253.387 297.740 C 253.005 297.593,252.789 297.774,252.769 298.257 C 252.753 298.666,252.688 299.270,252.627 299.600 C 252.565 299.930,252.390 301.910,252.238 304.000 C 252.085 306.090,251.867 308.176,251.753 308.637 C 251.418 309.986,253.366 312.012,254.835 311.841 C 255.485 311.765,256.115 311.863,256.236 312.058 C 256.357 312.253,256.602 312.322,256.782 312.211 C 257.150 311.984,258.136 313.035,258.218 313.740 C 258.248 313.993,258.510 316.050,258.802 318.310 L 259.332 322.420 261.686 322.350 C 264.601 322.262,264.757 322.420,265.070 325.764 C 265.361 328.880,265.092 328.703,269.861 328.928 C 273.294 329.090,275.634 329.832,274.931 330.536 C 274.786 330.681,274.832 330.800,275.033 330.800 C 275.235 330.800,275.423 331.430,275.450 332.200 C 275.478 332.970,275.522 333.842,275.550 334.137 C 275.650 335.215,278.128 336.132,280.130 335.831 C 281.155 335.678,282.129 335.545,282.296 335.537 C 282.463 335.528,282.960 335.327,283.400 335.089 C 283.840 334.851,284.740 334.688,285.400 334.725 C 287.701 334.858,287.852 334.244,285.967 332.414 C 284.425 330.918,283.649 329.600,284.309 329.600 C 285.173 329.600,287.917 331.364,288.489 332.287 C 289.023 333.148,289.181 333.235,289.189 332.669 C 289.207 331.457,287.055 329.650,285.250 329.362 C 284.350 329.218,283.693 328.973,283.789 328.818 C 284.015 328.453,282.733 328.547,282.093 328.943 C 281.809 329.118,281.600 329.048,281.600 328.777 C 281.600 328.504,281.265 328.394,280.799 328.516 C 280.309 328.644,280.098 328.565,280.254 328.313 C 280.417 328.049,280.008 327.958,279.117 328.062 C 277.728 328.224,276.407 327.490,277.204 326.998 C 279.023 325.873,276.371 322.408,273.681 322.395 C 271.649 322.384,270.855 321.962,270.589 320.750 C 270.220 319.070,268.585 317.304,267.095 316.977 C 265.415 316.608,264.827 315.744,265.102 314.048 C 265.282 312.940,265.217 312.741,264.762 313.015 C 264.284 313.303,264.282 313.253,264.747 312.679 C 265.214 312.103,265.198 311.857,264.638 311.002 C 263.933 309.927,262.993 309.687,262.665 310.500 C 262.550 310.784,262.449 310.679,262.432 310.258 C 262.405 309.637,262.138 309.541,260.800 309.669 L 259.200 309.821 259.139 306.811 C 259.105 305.155,259.109 303.080,259.147 302.200 C 259.194 301.093,259.005 300.446,258.531 300.100 C 258.155 299.825,258.061 299.600,258.324 299.600 C 259.117 299.600,258.858 298.486,257.911 297.823 C 256.929 297.135,254.582 296.982,254.211 297.583 M286.700 331.935 C 287.910 333.169,288.182 333.698,288.037 334.530 C 288.006 334.711,288.172 334.741,288.407 334.596 C 288.988 334.237,287.695 332.082,286.400 331.250 C 285.600 330.737,285.660 330.874,286.700 331.935 M285.825 333.300 L 287.000 334.600 285.700 333.425 C 284.985 332.779,284.400 332.194,284.400 332.125 C 284.400 331.816,284.730 332.088,285.825 333.300 M289.206 333.876 C 289.203 334.138,289.362 334.453,289.560 334.575 C 289.758 334.698,289.883 335.338,289.837 335.999 C 289.792 336.660,289.860 337.200,289.990 337.200 C 290.120 337.200,290.179 338.006,290.121 338.990 C 289.984 341.327,290.518 341.600,295.226 341.600 C 299.666 341.600,301.082 342.278,302.422 345.045 C 303.357 346.977,303.579 387.821,302.661 389.100 C 302.417 389.440,302.502 389.600,302.927 389.600 C 303.271 389.600,303.681 389.808,303.838 390.062 C 304.027 390.367,303.946 390.414,303.600 390.200 C 303.254 389.986,303.173 390.033,303.362 390.338 C 303.711 390.903,305.460 390.950,305.797 390.405 C 305.937 390.178,305.777 390.111,305.421 390.247 C 305.079 390.378,304.800 390.307,304.800 390.089 C 304.800 389.743,306.039 389.221,306.900 389.205 C 307.306 389.198,307.097 390.120,306.600 390.530 C 306.362 390.727,306.442 390.793,306.800 390.694 C 307.169 390.591,307.369 390.120,307.320 389.470 C 307.271 388.829,307.428 388.450,307.720 388.507 C 307.984 388.558,308.147 388.283,308.081 387.895 C 308.016 387.507,308.231 387.086,308.558 386.961 C 309.027 386.781,309.069 386.506,308.752 385.674 C 308.470 384.931,308.481 384.573,308.792 384.469 C 309.096 384.368,309.106 384.169,308.823 383.828 C 308.533 383.478,308.566 383.333,308.938 383.333 C 309.288 383.333,309.500 384.011,309.574 385.367 C 309.781 389.139,309.813 389.399,310.147 389.927 C 310.331 390.217,310.733 390.358,311.040 390.240 C 311.348 390.122,311.600 390.192,311.600 390.397 C 311.600 390.938,338.705 390.878,339.040 390.336 C 339.211 390.059,339.418 390.101,339.644 390.457 C 339.912 390.880,339.989 390.845,339.994 390.300 C 339.997 389.915,340.191 389.600,340.424 389.600 C 340.657 389.600,340.747 389.762,340.624 389.961 C 340.274 390.528,344.061 389.269,344.847 388.557 C 345.779 387.714,346.525 384.328,345.872 383.912 C 345.553 383.710,345.616 383.610,346.065 383.606 C 346.999 383.598,347.107 361.553,346.178 360.781 C 345.865 360.522,345.679 360.195,345.766 360.055 C 345.852 359.915,344.823 359.749,343.480 359.686 C 340.546 359.549,340.832 359.813,340.763 357.177 C 340.697 354.689,339.950 353.200,338.767 353.200 C 338.277 353.200,338.061 353.375,338.225 353.640 C 338.417 353.951,338.278 353.963,337.748 353.681 C 336.729 353.137,317.562 353.143,316.900 353.687 C 316.553 353.972,316.400 353.961,316.400 353.649 C 316.400 353.391,315.710 353.200,314.776 353.200 C 313.883 353.200,313.241 353.342,313.348 353.516 C 313.456 353.690,312.962 353.765,312.250 353.682 C 310.473 353.474,309.868 354.348,309.720 357.336 C 309.652 358.691,309.425 359.858,309.213 359.929 C 308.985 360.005,309.022 360.366,309.304 360.819 C 309.653 361.377,309.662 361.698,309.335 362.025 C 309.009 362.351,308.809 362.338,308.583 361.973 C 308.385 361.653,308.441 361.578,308.738 361.762 C 308.992 361.919,309.200 361.857,309.200 361.624 C 309.200 361.391,309.046 361.200,308.857 361.200 C 308.324 361.200,308.265 347.245,308.795 346.606 C 309.107 346.230,309.112 345.993,308.813 345.808 C 308.579 345.663,308.522 345.332,308.688 345.072 C 309.140 344.361,309.177 335.967,308.726 336.246 C 308.517 336.375,308.404 336.147,308.473 335.740 C 308.569 335.181,308.380 335.023,307.700 335.095 C 307.205 335.148,306.800 335.032,306.800 334.837 C 306.800 334.351,298.321 334.412,297.700 334.903 C 297.366 335.167,297.200 335.158,297.200 334.876 C 297.200 334.613,295.824 334.448,293.530 334.437 C 291.007 334.426,289.758 334.261,289.536 333.910 C 289.304 333.544,289.211 333.535,289.206 333.876 M105.314 335.153 C 105.709 335.640,105.694 335.690,105.239 335.416 C 104.868 335.192,104.496 335.327,104.139 335.815 C 103.843 336.221,103.600 336.375,103.600 336.156 C 103.600 335.938,103.816 335.544,104.080 335.280 C 104.445 334.915,104.447 334.800,104.088 334.800 C 103.384 334.800,103.029 336.712,103.604 337.405 C 103.947 337.818,103.961 338.000,103.649 338.000 C 103.085 338.000,103.040 341.854,103.600 342.200 C 103.820 342.336,103.997 342.662,103.994 342.924 C 103.990 343.255,103.887 343.241,103.655 342.876 C 103.440 342.537,103.322 342.818,103.320 343.676 C 103.319 344.404,103.394 344.685,103.488 344.300 C 103.630 343.717,104.123 343.600,106.445 343.600 C 108.466 343.600,109.674 343.374,110.841 342.779 C 111.780 342.300,113.896 341.799,115.925 341.576 C 121.380 340.976,121.558 340.915,121.428 339.694 C 121.366 339.113,121.111 338.570,120.861 338.487 C 120.554 338.385,120.601 338.142,121.004 337.739 C 121.869 336.874,121.737 336.455,120.635 336.576 C 119.914 336.655,119.729 336.529,119.903 336.076 C 120.045 335.707,119.969 335.572,119.710 335.732 C 119.476 335.877,119.185 335.737,119.064 335.422 C 118.914 335.031,119.186 334.797,119.922 334.684 C 120.596 334.582,120.326 334.500,119.200 334.466 C 117.906 334.427,117.569 334.521,118.000 334.800 C 118.361 335.033,118.410 335.190,118.124 335.194 C 117.862 335.197,117.536 335.020,117.400 334.800 C 117.264 334.580,116.343 334.400,115.353 334.400 C 114.019 334.400,113.631 334.530,113.853 334.900 C 114.090 335.294,114.027 335.298,113.556 334.917 C 112.589 334.135,104.674 334.361,105.314 335.153 M292.400 335.242 C 292.400 335.439,292.130 335.600,291.800 335.600 C 291.470 335.600,291.070 335.613,290.910 335.630 C 290.750 335.647,290.571 335.512,290.510 335.330 C 290.450 335.149,290.850 334.974,291.400 334.942 C 291.950 334.911,292.400 335.046,292.400 335.242 M307.295 355.463 C 307.353 357.918,307.265 359.842,307.100 359.739 C 306.935 359.637,306.834 356.638,306.876 353.076 C 306.952 346.504,307.105 347.372,307.295 355.463 " stroke="none" fill="#faaa64" fill-rule="evenodd"></path><path id="path1" d="M390.000 25.000 C 390.000 25.645,389.286 25.745,385.600 25.616 C 384.390 25.573,303.333 25.460,205.474 25.365 L 27.547 25.191 26.371 26.367 L 25.195 27.544 25.203 84.500 L 25.211 141.456 26.297 143.132 L 27.384 144.807 46.949 144.704 L 66.514 144.600 67.357 143.469 C 68.082 142.496,68.174 141.935,68.018 139.469 C 67.576 132.523,68.040 130.748,70.782 128.901 C 72.457 127.772,74.800 124.270,74.800 122.897 C 74.800 121.668,77.986 118.400,79.183 118.400 C 79.607 118.400,80.066 118.217,80.204 117.993 C 80.342 117.770,80.623 117.691,80.828 117.817 C 81.032 117.944,81.200 117.898,81.200 117.717 C 81.200 117.535,82.013 116.537,83.008 115.499 C 84.687 113.747,86.028 112.953,89.600 111.594 C 91.014 111.056,92.400 109.918,92.400 109.295 C 92.400 108.838,94.789 106.604,95.874 106.048 C 97.922 104.998,106.996 105.856,108.714 107.263 C 109.091 107.572,110.165 107.815,111.100 107.803 C 112.035 107.791,112.800 107.951,112.800 108.158 C 112.800 108.364,112.914 108.420,113.053 108.281 C 113.192 108.142,113.687 108.247,114.153 108.514 C 115.028 109.015,123.251 109.601,122.965 109.142 C 122.721 108.750,123.978 108.355,126.200 108.125 C 127.300 108.011,128.580 107.679,129.043 107.387 C 133.779 104.404,143.724 105.116,146.615 108.645 C 148.313 110.716,150.458 111.756,153.469 111.967 C 154.327 112.027,156.424 114.079,157.217 115.634 C 157.826 116.827,158.366 117.277,159.646 117.661 C 161.792 118.304,163.228 119.786,164.121 122.279 C 164.639 123.726,165.249 124.561,166.290 125.247 C 168.573 126.750,169.184 127.911,169.841 131.992 C 170.602 136.719,170.443 285.776,169.674 289.539 C 169.305 291.342,166.814 297.209,166.804 296.300 C 166.802 296.135,166.426 296.374,165.969 296.831 C 165.512 297.288,164.882 297.564,164.569 297.443 C 164.236 297.316,164.000 297.469,164.000 297.813 C 164.000 298.136,163.865 298.400,163.700 298.400 C 163.402 298.400,163.391 299.275,163.599 306.200 C 163.743 310.992,162.591 313.251,159.504 314.231 C 157.917 314.734,157.548 315.610,157.009 320.141 C 156.736 322.442,155.628 323.999,153.418 325.191 C 152.185 325.855,151.158 326.777,150.702 327.629 C 149.780 329.351,147.131 331.815,146.145 331.869 C 142.723 332.056,140.000 333.286,140.000 334.646 C 140.000 335.171,139.850 335.600,139.668 335.600 C 139.485 335.600,139.118 336.006,138.853 336.501 C 137.783 338.500,134.076 339.159,128.625 338.319 C 128.019 338.226,127.767 338.540,127.471 339.758 C 126.647 343.156,124.395 344.519,119.664 344.486 C 116.756 344.465,115.859 344.624,114.077 345.471 L 111.954 346.481 112.089 363.741 C 112.200 377.941,112.331 381.284,112.829 382.600 C 113.363 384.011,113.414 384.954,113.220 389.924 C 113.209 390.212,113.056 390.358,112.881 390.250 C 112.705 390.142,112.300 390.218,111.981 390.420 C 111.627 390.644,148.202 390.788,205.600 390.788 C 266.562 390.788,299.588 390.651,299.200 390.400 C 298.729 390.095,298.718 390.011,299.149 390.006 C 299.582 390.001,299.597 389.878,299.218 389.422 C 298.883 389.018,298.811 387.838,298.981 385.522 C 299.327 380.784,299.694 348.029,299.413 346.910 C 298.988 345.218,297.163 344.497,293.845 344.710 C 289.439 344.993,283.200 342.077,283.200 339.735 C 283.200 339.537,282.705 339.336,282.100 339.289 C 277.030 338.897,274.116 338.179,272.409 336.901 C 270.880 335.757,269.033 333.921,269.086 333.600 C 269.105 333.490,268.958 333.445,268.760 333.500 C 268.562 333.555,268.400 333.390,268.400 333.133 C 268.400 332.877,268.300 332.766,268.179 332.888 C 267.097 333.970,262.678 331.062,261.587 328.550 C 261.041 327.291,260.352 326.602,258.683 325.648 C 256.475 324.384,255.804 323.421,255.444 321.000 C 255.346 320.340,255.228 319.755,255.183 319.700 C 255.079 319.574,254.916 318.929,254.850 318.384 C 254.784 317.838,251.679 314.800,251.186 314.800 C 250.725 314.800,249.357 311.882,249.012 310.162 C 248.875 309.481,249.038 307.605,249.374 305.994 C 250.067 302.673,249.934 302.317,247.646 301.362 C 243.521 299.638,242.990 298.041,243.206 288.000 C 243.502 274.165,243.419 133.582,243.112 130.591 C 242.757 127.126,243.468 125.724,246.047 124.800 C 247.345 124.335,247.896 123.839,248.493 122.600 C 250.043 119.381,250.385 118.990,252.669 117.806 C 254.229 116.997,255.178 116.205,255.548 115.400 C 256.520 113.287,258.433 111.604,260.181 111.325 C 261.359 111.136,262.343 110.542,263.871 109.098 C 267.806 105.376,276.509 104.367,281.668 107.035 C 282.291 107.357,282.800 107.513,282.800 107.382 C 282.800 107.250,283.083 107.426,283.429 107.771 C 283.774 108.117,284.269 108.410,284.529 108.423 C 286.449 108.517,288.192 108.832,288.501 109.141 C 289.419 110.059,285.880 113.932,284.571 113.441 C 284.039 113.241,283.087 114.683,283.559 114.975 C 285.119 115.939,289.290 113.156,289.357 111.105 C 289.416 109.321,289.674 109.213,293.900 109.206 C 295.935 109.203,297.600 109.045,297.600 108.855 C 297.600 108.452,300.255 107.650,305.653 106.423 C 309.689 105.506,315.485 105.482,317.154 106.376 C 318.162 106.915,320.000 109.123,320.000 109.795 C 320.000 110.296,322.978 112.000,323.854 112.000 C 324.495 112.000,326.599 114.079,327.434 115.538 C 327.855 116.274,328.830 117.204,329.600 117.605 C 330.370 118.007,332.019 119.249,333.264 120.367 C 334.509 121.485,335.724 122.400,335.964 122.400 C 336.204 122.400,336.400 122.642,336.400 122.938 C 336.400 123.234,336.739 123.783,337.153 124.157 C 337.567 124.532,338.203 125.898,338.566 127.193 C 339.120 129.168,339.550 129.819,341.229 131.224 C 343.796 133.374,344.293 134.386,344.636 138.170 C 344.804 140.027,345.253 141.934,345.758 142.933 L 346.600 144.600 362.948 144.705 C 378.092 144.801,379.484 144.753,381.856 144.041 C 384.182 143.343,386.204 143.262,388.600 143.769 C 389.040 143.863,389.535 143.953,389.700 143.969 C 389.865 143.986,390.000 144.461,390.000 145.024 C 390.000 145.591,390.175 145.939,390.392 145.805 C 390.939 145.467,390.947 24.400,390.400 24.400 C 390.180 24.400,390.000 24.670,390.000 25.000 M291.600 104.224 C 291.600 104.952,291.384 105.200,290.751 105.200 C 290.086 105.200,289.999 105.084,290.348 104.663 C 290.593 104.368,290.687 104.020,290.556 103.890 C 290.200 103.533,290.800 102.753,291.228 103.017 C 291.432 103.144,291.600 103.687,291.600 104.224 M292.367 107.456 C 292.458 107.535,291.963 107.600,291.267 107.600 C 290.570 107.600,290.000 107.417,290.000 107.192 C 290.000 106.834,291.889 107.044,292.367 107.456 M123.410 111.195 C 123.524 111.962,123.919 112.862,124.287 113.195 C 124.869 113.722,124.899 113.722,124.514 113.200 C 124.271 112.870,123.876 111.970,123.637 111.200 L 123.203 109.800 123.410 111.195 M288.869 111.870 C 288.240 113.046,287.096 113.916,285.800 114.205 C 284.763 114.437,284.823 114.358,286.238 113.625 C 287.140 113.159,288.115 112.333,288.406 111.789 C 288.697 111.246,289.009 110.876,289.100 110.966 C 289.191 111.057,289.087 111.464,288.869 111.870 M297.488 113.187 C 297.352 113.707,297.430 113.905,297.705 113.735 C 297.976 113.568,298.043 113.711,297.885 114.122 C 297.748 114.481,297.795 114.873,297.990 114.994 C 298.649 115.401,298.799 114.490,298.248 113.428 C 297.736 112.441,297.687 112.425,297.488 113.187 M300.764 115.231 C 300.353 115.491,300.499 115.589,301.300 115.594 C 302.494 115.601,302.710 115.404,301.864 115.080 C 301.569 114.967,301.074 115.035,300.764 115.231 M270.199 118.802 C 270.060 119.243,269.462 119.865,268.873 120.186 C 268.283 120.506,268.033 120.775,268.318 120.784 C 268.931 120.803,270.800 119.021,270.800 118.418 C 270.800 117.733,270.472 117.942,270.199 118.802 M270.927 119.188 C 270.636 119.958,269.972 120.626,269.133 120.990 C 267.639 121.639,268.175 121.818,269.781 121.207 C 270.747 120.840,271.774 119.123,271.507 118.322 C 271.442 118.126,271.181 118.516,270.927 119.188 M82.844 132.947 C 82.487 133.377,82.480 133.602,82.815 133.810 C 83.468 134.213,84.277 133.317,83.743 132.783 C 83.454 132.494,83.178 132.544,82.844 132.947 M159.396 212.800 C 159.396 256.030,159.443 273.715,159.500 252.100 C 159.557 230.485,159.557 195.115,159.500 173.500 C 159.443 151.885,159.396 169.570,159.396 212.800 M390.041 150.129 C 389.997 151.347,389.345 152.222,388.395 152.341 C 388.068 152.382,387.306 152.471,386.703 152.538 C 386.099 152.606,385.484 152.782,385.336 152.930 C 384.907 153.360,386.774 153.242,387.626 152.786 C 388.160 152.500,388.400 152.500,388.400 152.786 C 388.400 153.432,390.398 153.272,390.653 152.605 C 390.779 152.278,390.702 151.333,390.482 150.505 C 390.119 149.138,390.079 149.103,390.041 150.129 M25.600 152.833 C 24.785 153.067,24.915 153.128,26.300 153.160 C 27.235 153.182,28.000 153.131,28.000 153.047 C 28.000 152.697,26.530 152.566,25.600 152.833 M66.594 152.834 C 65.989 153.070,66.157 153.150,67.300 153.172 C 68.125 153.187,68.800 153.131,68.800 153.047 C 68.800 152.690,67.325 152.548,66.594 152.834 M379.900 153.093 C 380.835 153.177,382.365 153.177,383.300 153.093 C 384.235 153.009,383.470 152.940,381.600 152.940 C 379.730 152.940,378.965 153.009,379.900 153.093 M126.302 328.691 C 126.579 328.789,126.710 329.021,126.595 329.208 C 126.413 329.503,128.705 329.029,129.028 328.705 C 129.094 328.639,128.395 328.569,127.474 328.550 C 126.553 328.530,126.026 328.594,126.302 328.691 M286.649 329.775 C 287.992 330.360,289.207 331.800,289.189 332.789 C 289.183 333.152,288.898 332.948,288.489 332.287 C 287.817 331.202,284.574 329.292,284.140 329.726 C 284.021 329.846,284.660 330.320,285.561 330.780 C 286.499 331.259,287.634 332.304,288.214 333.223 C 289.047 334.542,290.000 335.038,290.000 334.153 C 290.000 334.043,289.801 334.076,289.557 334.226 C 289.257 334.412,289.204 334.217,289.393 333.621 C 289.963 331.826,287.859 329.157,285.920 329.216 C 285.634 329.224,285.962 329.476,286.649 329.775 M123.841 330.863 C 123.488 331.366,123.201 332.053,123.201 332.389 C 123.202 332.725,123.572 332.395,124.023 331.655 C 124.959 330.120,124.811 329.478,123.841 330.863 M103.783 363.200 C 103.783 372.330,103.835 376.065,103.900 371.500 C 103.964 366.935,103.964 359.465,103.900 354.900 C 103.835 350.335,103.783 354.070,103.783 363.200 M103.569 388.676 C 103.553 388.854,103.479 389.308,103.407 389.685 C 103.268 390.409,104.493 391.037,105.196 390.602 C 105.664 390.313,105.744 389.577,105.300 389.647 C 104.523 389.770,103.975 389.564,104.183 389.228 C 104.309 389.023,104.230 388.742,104.007 388.604 C 103.783 388.466,103.586 388.498,103.569 388.676 " stroke="none" fill="#f48424" fill-rule="evenodd"></path><path id="path2" d="M25.694 24.411 C 23.974 25.109,23.986 24.658,24.095 85.340 C 24.195 141.165,24.233 143.881,24.940 145.600 C 25.749 147.569,26.037 151.626,25.400 152.094 C 25.156 152.273,25.207 152.390,25.529 152.394 C 25.819 152.397,26.327 152.130,26.657 151.800 C 27.533 150.925,28.000 151.064,28.000 152.200 L 28.000 153.200 47.047 153.200 C 65.777 153.200,66.090 153.187,65.888 152.415 C 65.775 151.983,65.920 151.433,66.210 151.192 C 66.622 150.850,66.693 150.924,66.534 151.532 C 66.422 151.960,66.538 152.438,66.792 152.595 C 67.088 152.778,67.208 152.619,67.127 152.149 C 67.051 151.712,67.242 151.414,67.600 151.408 C 68.057 151.401,68.204 150.876,68.217 149.199 C 68.227 147.785,68.513 146.501,69.017 145.600 C 69.688 144.400,69.800 143.418,69.800 138.734 C 69.800 132.669,70.133 131.829,73.018 130.620 C 73.913 130.245,74.570 129.432,75.496 127.555 C 77.157 124.184,78.762 122.600,82.889 120.259 C 85.780 118.620,86.404 118.080,86.916 116.777 C 87.574 115.103,89.186 113.891,91.800 113.108 C 93.789 112.512,94.364 111.964,94.851 110.200 C 95.483 107.913,100.881 106.750,105.672 107.869 C 108.247 108.471,109.097 108.525,108.580 108.054 C 107.857 107.397,104.190 106.719,101.800 106.802 C 97.362 106.954,96.755 107.025,96.477 107.423 C 96.325 107.640,95.705 108.133,95.100 108.518 C 94.495 108.903,94.000 109.439,94.000 109.709 C 93.999 109.979,93.549 110.723,93.000 111.362 C 92.450 112.001,92.000 112.409,92.000 112.267 C 92.000 111.908,87.669 113.856,86.130 114.907 C 85.432 115.384,84.947 115.915,85.054 116.087 C 85.160 116.259,85.087 116.400,84.891 116.400 C 84.695 116.400,84.313 116.815,84.041 117.323 C 83.549 118.243,81.554 119.456,78.686 120.578 C 77.543 121.026,77.026 121.543,76.579 122.686 C 76.253 123.519,75.743 124.740,75.445 125.400 C 75.148 126.060,74.705 127.096,74.460 127.701 C 74.180 128.395,73.343 129.130,72.199 129.686 C 69.263 131.112,68.481 133.208,68.951 138.391 C 69.230 141.470,69.197 142.659,68.812 143.378 C 68.533 143.898,68.446 144.566,68.617 144.862 C 68.788 145.158,68.791 145.276,68.623 145.126 C 68.455 144.975,67.931 145.298,67.459 145.843 L 66.600 146.836 47.445 146.810 C 27.913 146.785,24.960 146.559,25.827 145.156 C 25.948 144.960,25.872 144.800,25.657 144.800 C 24.504 144.800,24.400 139.815,24.402 84.480 C 24.405 22.851,24.300 25.473,26.791 24.802 C 28.374 24.376,386.480 24.374,387.460 24.800 C 387.713 24.910,387.983 24.820,388.060 24.600 C 388.244 24.075,26.988 23.887,25.694 24.411 M139.105 106.628 C 139.047 106.686,137.920 106.778,136.600 106.834 C 135.280 106.889,133.660 107.087,133.000 107.274 C 132.340 107.460,131.265 107.710,130.612 107.828 C 129.959 107.946,129.329 108.148,129.212 108.277 C 129.095 108.406,129.810 108.374,130.800 108.206 C 138.335 106.930,143.997 107.659,144.001 109.906 C 144.007 112.333,145.689 113.318,152.160 114.682 C 153.786 115.025,154.199 115.470,154.581 117.288 C 154.841 118.527,155.910 119.223,157.975 119.497 C 161.039 119.904,161.904 121.087,162.061 125.085 L 162.174 127.971 164.056 128.453 C 166.043 128.962,166.356 129.327,167.397 132.350 C 168.325 135.046,168.308 282.202,167.379 286.275 C 166.156 291.636,164.847 292.760,161.928 290.955 C 161.748 290.844,161.600 290.943,161.600 291.176 C 161.600 292.059,160.803 291.553,160.536 290.500 L 160.257 289.400 159.903 290.754 C 159.655 291.704,159.694 292.242,160.033 292.554 C 160.399 292.891,160.439 292.863,160.197 292.438 C 159.977 292.053,160.028 291.970,160.358 292.174 C 160.730 292.404,160.731 292.601,160.362 293.045 C 160.100 293.361,159.957 293.666,160.043 293.723 C 160.129 293.780,160.525 294.076,160.923 294.381 C 161.524 294.843,161.625 294.844,161.523 294.391 C 161.455 294.092,161.736 293.775,162.147 293.685 C 162.615 293.584,162.793 293.687,162.624 293.962 C 162.227 294.603,162.646 294.497,163.371 293.771 C 163.717 293.426,164.000 293.336,164.000 293.571 C 164.000 294.291,165.432 294.049,166.200 293.200 C 166.598 292.760,166.784 292.400,166.613 292.400 C 166.442 292.400,166.490 292.174,166.720 291.897 C 167.831 290.558,168.449 287.432,168.834 281.200 C 169.502 270.415,169.110 133.444,168.406 131.400 C 168.102 130.520,167.884 129.674,167.920 129.521 C 168.001 129.179,165.670 126.832,164.397 125.972 C 163.885 125.627,163.467 125.042,163.467 124.672 C 163.467 124.302,163.296 124.000,163.087 124.000 C 162.878 124.000,162.797 123.528,162.907 122.950 C 163.201 121.417,160.846 118.924,158.561 118.348 C 157.247 118.017,156.705 117.633,156.316 116.756 C 156.035 116.120,155.690 115.600,155.549 115.600 C 155.408 115.600,155.199 115.240,155.084 114.800 C 154.969 114.360,154.588 114.000,154.237 114.000 C 153.887 114.000,153.600 113.850,153.600 113.667 C 153.600 113.483,153.375 113.321,153.100 113.307 C 152.624 113.282,149.787 112.902,148.303 112.665 C 147.598 112.553,145.174 110.800,145.723 110.800 C 145.887 110.800,145.751 110.278,145.421 109.641 C 144.626 108.103,139.890 105.844,139.105 106.628 M271.600 106.687 C 268.907 107.587,265.952 109.298,266.159 109.837 C 266.291 110.180,266.220 110.336,265.995 110.197 C 265.778 110.063,265.600 110.313,265.600 110.753 C 265.600 111.984,264.934 112.237,260.850 112.558 C 259.000 112.703,257.719 113.741,256.337 116.214 C 255.953 116.902,254.729 117.904,253.421 118.600 C 251.105 119.833,249.808 121.341,249.378 123.301 C 249.212 124.058,248.659 124.660,247.666 125.167 C 244.458 126.804,244.794 117.798,244.590 207.647 C 244.490 251.731,244.389 289.106,244.365 290.701 C 244.279 296.362,245.645 299.175,248.552 299.325 C 250.578 299.430,252.206 303.230,250.821 304.620 C 248.735 306.714,250.936 314.221,253.757 314.635 C 255.132 314.837,256.401 316.119,256.440 317.346 C 256.583 321.881,257.798 324.800,259.542 324.800 C 260.767 324.800,261.934 325.802,262.359 327.220 C 263.070 329.596,264.761 331.037,267.171 331.322 C 269.869 331.641,272.000 332.675,272.000 333.664 C 272.000 334.089,272.450 334.886,273.000 335.436 C 273.550 335.986,274.000 336.310,274.000 336.156 C 274.000 336.002,274.315 336.137,274.700 336.455 C 275.822 337.384,278.250 338.053,279.426 337.758 C 280.477 337.494,281.422 337.357,282.924 337.251 C 283.322 337.223,283.565 337.065,283.465 336.900 C 282.908 335.985,285.108 335.235,285.853 336.085 C 286.264 336.554,286.364 336.799,286.074 336.629 C 285.659 336.386,285.610 336.645,285.840 337.861 C 286.000 338.707,286.153 339.810,286.181 340.310 C 286.272 341.949,289.990 343.534,293.400 343.388 C 296.976 343.235,298.455 343.702,300.012 345.474 L 301.263 346.900 301.053 365.150 C 300.937 375.187,300.788 384.870,300.721 386.666 C 300.635 388.993,300.726 389.828,301.037 389.569 C 301.277 389.370,301.621 389.340,301.801 389.503 C 301.981 389.667,301.970 389.530,301.777 389.200 C 301.584 388.869,301.481 379.171,301.547 367.600 L 301.668 346.600 300.734 345.241 C 299.286 343.134,297.526 342.400,293.920 342.400 C 288.571 342.400,287.611 341.510,287.984 336.900 C 288.033 336.305,287.836 336.000,287.405 336.000 C 287.046 336.000,286.856 335.832,286.983 335.627 C 287.449 334.874,284.947 335.018,283.200 335.846 C 278.720 337.968,274.435 336.807,273.818 333.304 C 273.245 330.050,273.178 330.000,269.384 330.000 C 265.100 330.000,264.574 329.721,263.792 327.032 C 263.175 324.909,261.980 323.867,260.163 323.867 C 258.842 323.867,258.102 322.252,257.864 318.852 C 257.648 315.771,256.880 313.519,256.092 313.656 C 252.480 314.286,250.319 310.546,251.357 305.458 C 251.722 303.666,251.950 301.300,251.863 300.200 C 251.681 297.894,251.862 297.200,252.643 297.200 C 252.949 297.200,253.200 297.050,253.200 296.867 C 253.200 296.684,252.795 296.567,252.300 296.607 C 251.661 296.660,251.439 296.895,251.536 297.419 C 251.643 298.002,251.557 298.062,251.125 297.704 C 250.825 297.455,249.698 297.195,248.620 297.126 L 246.660 297.000 245.779 294.109 C 244.914 291.268,244.827 288.783,245.489 285.800 C 245.903 283.932,246.071 135.040,245.663 131.400 C 245.249 127.708,245.538 127.090,248.024 126.345 C 249.587 125.877,250.400 124.737,250.400 123.012 C 250.400 121.557,252.225 119.677,254.129 119.170 C 256.147 118.633,257.040 117.895,257.394 116.471 C 257.963 114.176,259.016 113.600,262.641 113.600 C 266.323 113.600,266.950 113.272,267.414 111.104 C 268.240 107.237,273.798 106.358,283.000 108.640 C 283.621 108.794,283.666 108.755,283.200 108.465 C 281.738 107.557,273.003 106.218,271.600 106.687 M305.668 107.448 C 302.354 108.262,302.732 108.542,306.380 107.976 C 309.356 107.514,315.705 108.073,316.595 108.875 C 316.987 109.228,317.021 109.365,317.139 111.090 C 317.214 112.178,319.033 113.200,320.895 113.200 C 322.451 113.200,324.737 114.919,324.984 116.274 C 325.264 117.803,325.949 118.704,327.152 119.123 C 328.500 119.593,331.600 122.268,331.600 122.960 C 331.600 123.503,333.650 124.800,334.507 124.800 C 335.713 124.800,337.200 127.689,337.200 130.032 C 337.200 132.701,337.977 134.000,339.574 134.000 C 340.900 134.000,341.445 134.554,341.740 136.200 C 342.581 140.902,343.808 144.703,345.033 146.400 C 345.499 147.045,345.571 151.529,345.127 152.214 C 344.976 152.448,345.183 152.629,345.600 152.629 C 346.008 152.629,346.254 152.487,346.147 152.314 C 346.040 152.141,346.143 152.000,346.376 152.000 C 346.609 152.000,346.800 152.270,346.800 152.600 C 346.800 153.123,348.822 153.200,362.600 153.200 L 378.400 153.200 378.400 151.376 C 378.400 150.243,378.554 149.648,378.807 149.804 C 379.030 149.942,379.109 150.223,378.983 150.428 C 378.856 150.632,379.134 150.800,379.600 150.800 C 380.066 150.800,380.336 150.980,380.200 151.200 C 379.971 151.571,381.180 151.732,384.067 151.715 C 384.783 151.710,385.067 151.880,384.932 152.232 C 384.804 152.566,385.023 152.734,385.535 152.695 C 386.214 152.644,386.273 152.507,385.912 151.817 C 385.499 151.029,385.512 151.025,386.273 151.700 C 387.244 152.561,387.884 152.624,387.192 151.791 C 386.764 151.274,386.802 151.223,387.443 151.455 C 387.860 151.605,388.071 151.585,387.914 151.411 C 387.757 151.237,387.892 150.719,388.214 150.258 C 388.536 149.798,388.800 149.123,388.800 148.758 C 388.800 148.392,389.173 147.996,389.630 147.876 C 390.628 147.615,390.109 146.211,388.913 145.936 C 387.812 145.682,383.246 145.916,380.800 146.350 C 379.590 146.566,371.458 146.755,362.729 146.771 C 345.059 146.803,346.097 146.964,344.927 144.016 C 344.617 143.237,344.207 142.240,344.015 141.800 C 343.823 141.360,343.453 139.573,343.193 137.829 C 342.696 134.506,341.717 132.618,340.246 132.151 C 338.996 131.754,338.308 130.874,337.994 129.269 C 337.572 127.109,337.442 126.691,337.000 126.064 C 336.244 124.991,333.843 122.800,333.422 122.798 C 333.190 122.797,332.390 122.077,331.644 121.198 C 330.898 120.319,330.120 119.600,329.915 119.600 C 329.710 119.600,329.306 119.375,329.016 119.100 C 328.726 118.825,328.019 118.260,327.444 117.844 C 326.870 117.428,326.400 116.921,326.400 116.717 C 326.400 116.513,325.927 115.726,325.348 114.967 C 324.352 113.661,323.509 113.144,320.513 112.004 C 319.806 111.734,319.123 111.188,318.997 110.790 C 317.912 107.373,312.006 105.892,305.668 107.448 M126.900 108.676 C 127.285 108.776,127.915 108.776,128.300 108.676 C 128.685 108.575,128.370 108.493,127.600 108.493 C 126.830 108.493,126.515 108.575,126.900 108.676 M298.200 108.800 C 297.908 109.273,298.299 109.273,299.400 108.800 C 300.171 108.469,300.169 108.455,299.324 108.428 C 298.842 108.413,298.336 108.580,298.200 108.800 M252.996 207.200 C 252.996 248.670,253.043 265.635,253.100 244.900 C 253.157 224.165,253.157 190.235,253.100 169.500 C 253.043 148.765,252.996 165.730,252.996 207.200 M389.772 148.726 C 388.967 149.290,388.012 151.160,388.404 151.403 C 388.622 151.537,388.822 151.547,388.850 151.424 C 388.878 151.301,388.945 151.020,389.000 150.800 C 389.055 150.580,389.125 150.175,389.156 149.900 C 389.196 149.547,389.340 149.577,389.644 150.000 C 390.010 150.510,390.042 150.496,389.855 149.913 C 389.600 149.117,390.231 148.546,390.534 149.298 C 390.679 149.657,390.746 149.665,390.768 149.324 C 390.810 148.703,390.267 148.379,389.772 148.726 M159.600 294.976 C 159.600 295.293,159.825 295.682,160.100 295.841 C 160.375 295.999,160.467 295.981,160.303 295.801 C 160.140 295.621,160.207 295.232,160.452 294.937 C 160.794 294.525,160.747 294.400,160.249 294.400 C 159.892 294.400,159.600 294.659,159.600 294.976 M160.838 299.204 C 162.889 304.600,161.637 311.077,158.353 312.061 C 156.653 312.571,155.913 313.556,155.466 315.905 C 154.839 319.205,153.622 321.095,151.463 322.125 C 149.727 322.954,146.965 325.200,147.683 325.200 C 147.806 325.200,147.678 325.875,147.399 326.700 C 146.911 328.145,146.748 328.248,142.977 329.508 C 138.396 331.040,138.104 331.238,137.763 333.057 C 137.147 336.343,134.598 337.410,130.373 336.154 C 127.832 335.399,126.038 335.215,125.749 335.682 C 125.637 335.864,125.377 335.909,125.172 335.782 C 124.624 335.444,124.000 337.388,124.000 339.436 C 124.000 341.611,123.533 341.857,118.708 342.229 C 115.207 342.499,112.643 343.186,110.490 344.429 C 108.871 345.363,105.329 345.400,104.300 344.493 C 103.915 344.154,103.600 344.069,103.600 344.305 C 103.600 344.540,103.825 344.824,104.100 344.935 C 104.500 345.096,104.500 345.143,104.100 345.168 C 103.825 345.186,103.600 345.391,103.600 345.624 C 103.600 345.857,103.735 345.964,103.900 345.862 C 104.065 345.760,104.200 354.389,104.200 365.038 C 104.200 375.687,104.067 384.400,103.904 384.400 C 103.741 384.400,103.559 375.805,103.500 365.300 L 103.392 346.200 103.302 365.400 C 103.249 376.682,103.365 384.842,103.583 385.187 C 103.819 385.560,103.796 385.963,103.520 386.296 C 103.281 386.584,103.202 386.935,103.343 387.076 C 103.484 387.218,103.603 387.078,103.606 386.767 C 103.611 386.300,103.681 386.306,104.000 386.800 C 104.526 387.614,104.499 388.109,103.948 387.768 C 103.671 387.597,103.574 387.704,103.698 388.044 C 103.809 388.350,104.103 388.555,104.350 388.500 C 104.598 388.445,104.800 388.670,104.800 389.000 C 104.800 389.330,105.092 389.600,105.449 389.600 C 105.934 389.600,105.990 389.731,105.669 390.116 C 105.345 390.507,105.433 390.647,106.029 390.692 C 106.463 390.725,106.725 390.603,106.613 390.421 C 106.501 390.240,106.767 389.997,107.204 389.883 C 107.660 389.764,108.000 389.873,108.000 390.137 C 108.000 390.833,111.486 390.873,111.752 390.181 C 111.869 389.876,111.794 389.520,111.586 389.391 C 111.377 389.262,111.230 387.952,111.258 386.478 C 111.286 385.005,111.115 382.720,110.877 381.400 C 109.976 376.405,110.079 346.427,111.000 345.728 C 112.979 344.225,115.434 343.488,118.909 343.354 C 122.316 343.223,123.005 343.038,124.524 341.845 C 125.192 341.321,125.687 339.601,125.661 337.900 C 125.655 337.515,125.844 337.200,126.081 337.200 C 126.318 337.200,126.727 336.906,126.990 336.546 C 127.428 335.947,127.652 335.962,129.719 336.735 C 134.420 338.494,137.157 337.608,138.851 333.778 C 139.640 331.995,140.669 331.148,142.258 330.974 C 144.735 330.702,147.593 329.532,148.310 328.496 C 149.579 326.664,149.780 326.241,149.222 326.586 C 148.835 326.826,148.817 326.716,149.144 326.105 C 149.643 325.172,151.318 324.008,152.484 323.784 C 153.483 323.591,154.856 322.414,154.588 321.981 C 154.482 321.809,154.566 321.608,154.774 321.534 C 154.982 321.460,155.248 320.950,155.364 320.400 C 155.480 319.850,155.767 318.680,156.003 317.800 C 156.239 316.920,156.476 316.020,156.531 315.800 C 156.767 314.853,157.503 314.052,159.000 313.110 C 162.125 311.145,162.200 310.953,162.200 304.976 C 162.200 301.240,162.050 299.489,161.700 299.140 C 161.425 298.865,161.200 298.316,161.200 297.920 C 161.200 297.524,160.947 297.200,160.638 297.200 C 160.183 297.200,160.221 297.579,160.838 299.204 M105.100 371.500 C 105.035 376.065,104.983 372.330,104.983 363.200 C 104.983 354.070,105.035 350.335,105.100 354.900 C 105.164 359.465,105.164 366.935,105.100 371.500 " stroke="none" fill="#f4943c" fill-rule="evenodd"></path><path id="path3" d="M26.063 23.593 C 24.350 24.004,24.017 24.361,23.580 26.251 C 23.007 28.728,23.179 141.023,23.762 145.400 C 24.026 147.380,24.142 149.090,24.021 149.200 C 23.613 149.570,23.766 151.544,24.187 151.340 C 24.414 151.231,24.330 151.380,24.000 151.672 C 23.670 151.964,23.355 152.427,23.300 152.701 C 23.158 153.409,23.978 153.322,24.255 152.600 C 24.382 152.270,24.736 152.000,25.043 152.000 C 26.010 152.000,25.944 148.078,24.934 145.600 C 23.806 142.834,23.788 26.041,24.914 24.914 C 25.598 24.231,33.508 24.196,207.681 24.113 C 325.723 24.057,389.872 23.888,390.125 23.635 C 390.605 23.155,28.061 23.114,26.063 23.593 M100.127 107.659 C 96.165 108.003,95.349 108.395,94.851 110.200 C 94.364 111.964,93.789 112.512,91.800 113.108 C 89.186 113.891,87.574 115.103,86.916 116.777 C 86.404 118.080,85.780 118.620,82.889 120.259 C 78.762 122.600,77.157 124.184,75.496 127.555 C 74.570 129.432,73.913 130.245,73.018 130.620 C 70.133 131.829,69.800 132.669,69.800 138.734 C 69.800 143.495,69.692 144.406,68.966 145.800 C 67.616 148.393,68.145 153.099,69.681 152.150 C 69.856 152.042,70.000 152.154,70.000 152.400 C 70.000 152.646,70.180 152.736,70.400 152.600 C 70.620 152.464,70.800 152.543,70.800 152.776 C 70.800 153.009,70.963 153.200,71.162 153.200 C 71.362 153.200,71.320 152.765,71.069 152.234 C 70.818 151.703,70.512 151.331,70.389 151.407 C 70.265 151.483,70.232 150.163,70.315 148.473 C 70.398 146.783,70.496 142.850,70.533 139.733 C 70.607 133.469,71.057 132.286,73.440 132.088 C 74.360 132.012,75.940 130.762,76.030 130.039 C 76.402 127.049,77.624 125.334,79.623 124.996 C 80.951 124.772,81.351 124.472,81.988 123.224 C 82.817 121.599,84.321 120.400,85.531 120.400 C 86.777 120.400,88.400 118.468,88.400 116.985 C 88.400 115.080,89.969 114.200,93.368 114.200 C 94.815 114.200,96.000 114.065,96.000 113.900 C 96.000 113.735,96.174 113.600,96.387 113.600 C 96.601 113.600,96.674 113.915,96.550 114.300 C 96.395 114.782,96.436 114.845,96.684 114.503 C 96.881 114.230,96.932 113.003,96.797 111.777 C 96.599 109.976,96.674 109.481,97.188 109.206 C 98.147 108.693,103.134 108.119,105.400 108.262 C 107.601 108.400,107.458 108.200,105.000 107.700 C 104.120 107.522,101.927 107.503,100.127 107.659 M136.276 107.651 C 129.881 108.008,129.895 108.400,136.302 108.400 L 141.538 108.400 142.005 109.816 C 142.263 110.596,142.377 111.482,142.260 111.787 C 142.143 112.092,142.315 112.564,142.642 112.835 C 142.969 113.106,143.162 113.524,143.070 113.764 C 142.968 114.033,143.624 114.237,144.778 114.296 C 145.808 114.349,147.659 114.739,148.892 115.163 C 150.124 115.587,151.267 115.814,151.431 115.667 C 151.594 115.520,151.576 115.662,151.389 115.983 C 150.885 116.850,150.796 118.400,151.251 118.400 C 151.469 118.400,151.536 118.580,151.400 118.800 C 151.264 119.020,151.388 119.203,151.676 119.206 C 152.061 119.211,152.041 119.325,151.600 119.637 C 151.146 119.958,151.122 120.110,151.502 120.265 C 151.779 120.377,151.886 120.661,151.741 120.896 C 151.574 121.166,151.668 121.205,151.999 121.001 C 152.328 120.797,152.741 120.959,153.114 121.439 C 153.515 121.953,153.639 121.997,153.495 121.575 C 153.316 121.048,153.760 120.937,156.306 120.871 C 160.902 120.752,160.824 120.606,160.256 128.300 C 160.188 129.235,160.301 130.000,160.508 130.000 C 160.716 130.000,160.787 130.257,160.667 130.571 C 160.546 130.885,160.741 131.380,161.101 131.671 C 161.656 132.121,161.701 132.111,161.400 131.600 C 161.106 131.101,161.150 131.084,161.664 131.499 C 162.003 131.774,163.096 132.111,164.092 132.247 C 167.047 132.652,166.858 126.992,166.693 210.000 C 166.540 287.065,166.541 286.997,164.946 286.692 C 164.426 286.592,164.000 286.666,164.000 286.855 C 164.000 287.370,163.298 287.271,162.745 286.680 C 162.478 286.393,161.752 286.234,161.131 286.325 C 160.008 286.490,160.004 286.483,160.249 284.695 C 160.401 283.585,160.315 282.613,160.022 282.150 C 159.414 281.185,159.789 288.474,160.444 290.354 C 160.858 291.543,161.600 292.071,161.600 291.176 C 161.600 290.943,161.748 290.844,161.928 290.955 C 164.847 292.760,166.156 291.636,167.379 286.275 C 168.308 282.202,168.325 135.046,167.397 132.350 C 166.356 129.327,166.043 128.962,164.056 128.453 L 162.174 127.971 162.061 125.085 C 161.904 121.087,161.039 119.904,157.975 119.497 C 155.910 119.223,154.841 118.527,154.581 117.288 C 154.199 115.470,153.786 115.025,152.160 114.682 C 145.606 113.301,145.053 113.011,144.193 110.509 C 143.282 107.858,141.848 107.340,136.276 107.651 M270.347 107.935 C 268.216 108.946,267.713 109.475,267.426 111.001 C 267.004 113.250,266.360 113.600,262.641 113.600 C 259.016 113.600,257.963 114.176,257.394 116.471 C 257.040 117.895,256.147 118.633,254.129 119.170 C 252.225 119.677,250.400 121.557,250.400 123.012 C 250.400 124.737,249.587 125.877,248.024 126.345 C 245.538 127.090,245.249 127.708,245.663 131.400 C 246.071 135.040,245.903 283.932,245.489 285.800 C 244.827 288.783,244.914 291.268,245.779 294.109 L 246.660 297.000 248.620 297.126 C 249.698 297.195,250.825 297.455,251.125 297.704 C 251.558 298.063,251.643 297.996,251.536 297.378 C 251.439 296.821,251.599 296.633,252.100 296.718 C 252.672 296.814,252.800 296.535,252.800 295.194 C 252.800 293.992,252.666 293.631,252.300 293.845 C 252.025 294.006,252.095 293.792,252.455 293.369 C 253.484 292.162,253.413 285.200,252.373 285.200 C 252.185 285.200,252.070 285.722,252.116 286.361 C 252.162 287.000,252.316 287.451,252.457 287.364 C 252.598 287.277,252.701 288.465,252.687 290.003 C 252.661 292.611,252.488 293.014,251.470 292.837 C 251.289 292.806,251.247 292.952,251.377 293.162 C 251.507 293.373,251.426 293.661,251.197 293.802 C 250.968 293.944,250.830 293.821,250.890 293.530 C 250.970 293.144,250.456 293.006,249.000 293.020 C 246.961 293.041,245.696 291.812,246.192 290.292 C 246.384 289.702,246.775 284.087,246.789 281.700 C 246.798 280.292,246.932 280.000,247.571 280.000 C 247.995 280.000,248.433 279.685,248.545 279.300 C 248.657 278.915,248.715 279.140,248.674 279.800 C 248.623 280.633,248.783 281.000,249.200 281.000 C 249.991 281.000,249.916 288.323,249.961 206.633 C 249.982 166.832,250.087 134.353,250.193 134.460 C 250.299 134.566,250.396 167.803,250.407 208.320 C 250.429 281.113,250.438 281.992,251.215 282.408 C 251.674 282.654,252.019 283.278,252.046 283.914 C 252.082 284.767,252.163 284.657,252.424 283.400 C 252.607 282.520,252.767 247.960,252.781 206.600 C 252.795 165.240,252.916 130.997,253.049 130.505 C 253.215 129.890,253.089 129.532,252.645 129.362 C 252.290 129.226,252.000 128.784,252.000 128.381 C 252.000 127.977,251.854 127.557,251.675 127.446 C 251.496 127.336,251.414 126.020,251.494 124.523 C 251.674 121.113,252.204 120.519,255.331 120.219 C 258.069 119.957,258.575 119.537,258.673 117.447 C 258.769 115.383,258.918 115.285,262.400 114.994 C 264.050 114.856,266.030 114.655,266.800 114.547 C 267.570 114.439,268.415 114.332,268.678 114.309 C 268.941 114.286,269.144 114.162,269.130 114.033 C 269.054 113.323,269.238 112.776,269.500 112.938 C 269.665 113.040,269.847 112.286,269.905 111.262 C 270.064 108.428,270.411 108.296,277.200 108.486 C 282.586 108.637,282.818 108.615,280.454 108.172 C 275.590 107.261,271.946 107.175,270.347 107.935 M304.400 108.225 L 301.000 108.729 305.523 108.506 C 310.358 108.268,314.179 108.848,314.575 109.880 C 314.711 110.234,314.608 110.349,314.295 110.191 C 314.023 110.053,314.120 110.203,314.512 110.523 C 315.128 111.027,315.142 111.137,314.612 111.340 C 313.878 111.622,313.791 112.788,314.500 112.828 C 314.775 112.844,314.640 113.011,314.200 113.200 C 313.760 113.389,313.636 113.556,313.924 113.572 C 314.219 113.588,314.321 113.804,314.158 114.068 C 313.965 114.380,314.084 114.453,314.514 114.288 C 314.967 114.114,315.093 114.213,314.937 114.620 C 314.671 115.313,316.013 115.427,316.673 114.767 C 317.344 114.096,321.920 114.255,323.039 114.989 C 323.876 115.537,324.060 116.081,323.992 117.804 C 323.949 118.883,325.280 120.235,326.465 120.314 C 328.636 120.459,329.600 121.189,330.103 123.068 C 330.614 124.980,330.944 125.191,334.320 125.764 C 335.905 126.034,336.679 129.563,335.775 132.400 C 335.740 132.510,335.571 133.200,335.399 133.932 C 335.201 134.777,334.976 135.085,334.785 134.775 C 334.618 134.506,334.534 135.107,334.597 136.110 C 334.747 138.488,335.076 139.024,335.940 138.294 C 336.317 137.975,337.414 137.750,338.500 137.768 C 339.545 137.786,340.406 137.620,340.414 137.400 C 340.447 136.475,341.573 139.098,341.586 140.129 C 341.594 140.751,342.054 142.613,342.610 144.267 C 343.705 147.530,344.027 151.889,343.210 152.394 C 342.896 152.588,343.049 152.772,343.658 152.931 C 345.219 153.339,346.308 148.166,345.033 146.400 C 343.808 144.703,342.581 140.902,341.740 136.200 C 341.445 134.554,340.900 134.000,339.574 134.000 C 337.977 134.000,337.200 132.701,337.200 130.032 C 337.200 127.689,335.713 124.800,334.507 124.800 C 333.650 124.800,331.600 123.503,331.600 122.960 C 331.600 122.268,328.500 119.593,327.152 119.123 C 325.949 118.704,325.264 117.803,324.984 116.274 C 324.737 114.919,322.451 113.200,320.895 113.200 C 319.033 113.200,317.214 112.178,317.139 111.090 C 317.021 109.365,316.987 109.228,316.595 108.878 C 316.144 108.476,310.310 107.563,308.800 107.658 C 308.250 107.693,306.270 107.948,304.400 108.225 M126.305 109.083 C 126.802 109.179,127.522 109.175,127.905 109.075 C 128.287 108.975,127.880 108.896,127.000 108.901 C 126.120 108.905,125.807 108.987,126.305 109.083 M286.283 111.226 C 284.235 113.335,284.156 113.713,286.044 112.368 C 286.950 111.724,288.840 109.103,288.310 109.226 C 288.250 109.240,287.337 110.140,286.283 111.226 M297.867 110.267 C 297.463 110.670,297.547 111.600,297.987 111.600 C 298.201 111.600,298.260 111.300,298.119 110.934 C 297.934 110.451,298.009 110.358,298.394 110.596 C 298.746 110.814,298.828 110.769,298.638 110.462 C 298.307 109.926,298.227 109.906,297.867 110.267 M97.085 115.280 C 96.800 115.461,97.137 115.590,97.900 115.594 C 98.615 115.597,99.200 115.459,99.200 115.286 C 99.200 114.882,97.718 114.877,97.085 115.280 M149.949 120.277 C 149.576 120.737,149.560 120.857,149.900 120.653 C 150.208 120.468,150.400 120.575,150.400 120.934 C 150.400 121.253,150.695 121.628,151.057 121.766 C 151.575 121.965,151.618 121.904,151.260 121.472 C 151.011 121.172,150.925 120.808,151.070 120.663 C 151.215 120.518,151.113 120.400,150.843 120.400 C 150.573 120.400,150.464 120.220,150.600 120.000 C 151.002 119.349,150.543 119.544,149.949 120.277 M263.600 121.600 C 264.383 122.106,265.200 122.106,265.200 121.600 C 265.200 121.380,264.705 121.203,264.100 121.206 C 263.243 121.211,263.132 121.298,263.600 121.600 M251.429 128.368 C 251.429 128.982,251.285 129.059,250.714 128.754 C 250.321 128.544,250.000 128.278,250.000 128.162 C 250.000 128.047,250.180 128.064,250.400 128.200 C 250.620 128.336,250.800 128.257,250.800 128.024 C 250.800 127.791,250.941 127.600,251.114 127.600 C 251.287 127.600,251.429 127.946,251.429 128.368 M250.413 130.600 C 250.956 131.340,250.948 131.359,250.300 130.851 C 249.726 130.401,249.488 130.395,248.977 130.819 C 248.463 131.246,248.376 131.237,248.477 130.768 C 248.569 130.342,249.735 129.454,249.813 129.750 C 249.820 129.778,250.090 130.160,250.413 130.600 M251.299 195.700 C 251.243 229.415,251.150 261.860,251.092 267.800 C 251.034 273.740,250.945 246.155,250.893 206.500 C 250.842 166.845,250.935 134.400,251.100 134.400 C 251.265 134.400,251.354 161.985,251.299 195.700 M251.867 299.556 C 251.937 301.010,251.702 303.666,251.343 305.458 C 250.325 310.555,252.486 314.285,256.092 313.656 C 256.880 313.519,257.648 315.771,257.864 318.852 C 258.102 322.252,258.842 323.867,260.163 323.867 C 261.980 323.867,263.175 324.909,263.792 327.032 C 264.574 329.721,265.100 330.000,269.384 330.000 C 273.178 330.000,273.245 330.050,273.818 333.304 C 274.500 337.171,281.660 338.303,284.416 334.980 C 284.972 334.311,284.937 334.309,283.704 334.946 C 282.991 335.315,282.315 335.602,282.201 335.584 C 282.086 335.566,281.155 335.678,280.130 335.831 C 278.128 336.132,275.650 335.215,275.550 334.137 C 275.522 333.842,275.478 332.970,275.450 332.200 C 275.423 331.430,275.235 330.800,275.033 330.800 C 274.832 330.800,274.786 330.681,274.931 330.536 C 275.634 329.832,273.294 329.090,269.861 328.928 C 265.092 328.703,265.361 328.880,265.070 325.764 C 264.757 322.420,264.601 322.262,261.686 322.350 L 259.332 322.420 258.802 318.310 C 258.510 316.050,258.248 313.993,258.218 313.740 C 258.136 313.035,257.150 311.984,256.782 312.211 C 256.602 312.322,256.357 312.253,256.236 312.058 C 256.115 311.863,255.485 311.765,254.835 311.841 C 253.374 312.011,251.424 309.990,251.742 308.637 C 251.850 308.176,252.051 306.360,252.188 304.600 C 252.522 300.316,252.805 297.915,253.017 297.573 C 253.112 297.418,252.865 297.206,252.466 297.101 C 251.810 296.930,251.753 297.167,251.867 299.556 M159.710 297.709 C 160.600 300.030,160.867 302.114,160.651 305.058 C 160.302 309.814,160.004 310.397,157.910 310.413 C 155.511 310.431,155.019 310.975,154.893 313.754 C 154.738 317.192,153.882 318.745,151.978 319.050 C 150.126 319.346,148.654 320.599,148.928 321.647 C 149.037 322.061,148.988 322.400,148.821 322.400 C 148.654 322.400,148.009 322.870,147.389 323.445 C 146.769 324.020,145.758 324.665,145.143 324.880 C 144.527 325.095,144.047 325.389,144.075 325.535 C 144.104 325.681,144.008 326.115,143.864 326.500 C 143.719 326.885,143.518 327.464,143.417 327.787 C 143.173 328.573,140.758 329.546,138.760 329.664 C 136.920 329.773,136.496 330.298,136.151 332.894 C 135.778 335.702,135.307 335.922,130.800 335.398 C 126.651 334.916,126.556 334.906,125.153 334.850 C 123.847 334.798,123.779 334.486,124.576 332.200 C 124.760 331.672,124.647 331.740,124.242 332.400 C 123.904 332.950,123.622 333.715,123.614 334.100 C 123.605 334.576,123.280 334.800,122.600 334.800 C 121.978 334.800,121.600 335.027,121.600 335.400 C 121.600 335.730,121.437 336.000,121.237 336.000 C 121.038 336.000,120.961 335.669,121.067 335.265 C 121.229 334.647,121.068 334.558,120.058 334.706 C 119.237 334.827,118.924 335.059,119.070 335.439 C 119.188 335.745,119.476 335.877,119.710 335.732 C 119.969 335.572,120.045 335.707,119.903 336.076 C 119.729 336.529,119.914 336.655,120.635 336.576 C 121.737 336.455,121.869 336.874,121.004 337.739 C 120.601 338.142,120.554 338.385,120.861 338.487 C 121.111 338.570,121.366 339.113,121.428 339.694 C 121.558 340.915,121.380 340.976,115.925 341.576 C 113.896 341.799,111.780 342.300,110.841 342.779 C 109.662 343.381,108.467 343.600,106.367 343.600 C 104.016 343.600,103.582 343.696,103.948 344.137 C 104.193 344.432,104.310 344.757,104.208 344.858 C 103.567 345.500,109.311 345.109,110.484 344.432 C 112.643 343.186,115.204 342.500,118.708 342.229 C 123.533 341.857,124.000 341.611,124.000 339.436 C 124.000 337.388,124.624 335.444,125.172 335.782 C 125.377 335.909,125.637 335.864,125.749 335.682 C 126.038 335.215,127.832 335.399,130.373 336.154 C 134.598 337.410,137.147 336.343,137.763 333.057 C 138.104 331.238,138.396 331.040,142.977 329.508 C 146.748 328.248,146.911 328.145,147.399 326.700 C 147.678 325.875,147.806 325.200,147.683 325.200 C 146.965 325.200,149.727 322.954,151.463 322.125 C 153.622 321.095,154.839 319.205,155.466 315.905 C 155.913 313.556,156.653 312.571,158.353 312.061 C 160.988 311.272,161.600 310.000,161.600 305.310 C 161.600 301.389,160.861 297.932,159.895 297.335 C 159.626 297.169,159.556 297.309,159.710 297.709 M285.709 332.136 C 286.749 333.091,287.600 334.118,287.600 334.418 C 287.600 334.717,286.835 334.251,285.901 333.381 C 284.218 331.815,284.214 331.814,285.546 333.266 C 286.889 334.730,286.890 334.733,285.946 334.912 C 285.095 335.073,285.113 335.097,286.124 335.146 C 286.760 335.176,287.140 335.373,287.000 335.600 C 286.864 335.820,287.046 336.000,287.405 336.000 C 287.836 336.000,288.033 336.305,287.984 336.900 C 287.611 341.510,288.571 342.400,293.920 342.400 C 297.526 342.400,299.286 343.134,300.734 345.241 L 301.668 346.600 301.547 367.600 C 301.481 379.150,301.557 388.810,301.716 389.066 C 301.875 389.322,301.779 389.616,301.502 389.718 C 301.223 389.822,301.518 390.110,302.165 390.367 C 302.993 390.696,303.454 390.706,303.758 390.402 C 304.062 390.098,303.925 389.905,303.285 389.738 C 302.716 389.589,302.501 389.336,302.701 389.051 C 303.592 387.790,303.332 346.925,302.422 345.045 C 301.082 342.278,299.666 341.600,295.226 341.600 C 290.518 341.600,289.984 341.327,290.121 338.990 C 290.179 338.006,290.120 337.200,289.990 337.200 C 289.860 337.200,289.791 336.672,289.835 336.027 C 289.918 334.834,289.141 334.142,288.302 334.661 C 288.068 334.805,287.984 334.750,288.115 334.537 C 288.455 333.988,287.094 332.050,285.743 331.159 C 283.762 329.853,283.745 330.333,285.709 332.136 M290.510 335.330 C 290.571 335.512,290.750 335.647,290.910 335.630 C 291.070 335.613,291.470 335.600,291.800 335.600 C 292.130 335.600,292.400 335.439,292.400 335.242 C 292.400 335.046,291.950 334.911,291.400 334.942 C 290.850 334.974,290.450 335.149,290.510 335.330 M308.600 345.200 C 308.464 345.420,308.498 345.603,308.676 345.606 C 308.854 345.609,308.730 345.787,308.400 346.000 C 308.070 346.213,307.980 346.391,308.200 346.394 C 308.454 346.398,308.578 349.098,308.541 353.800 C 308.508 357.870,308.635 361.200,308.822 361.200 C 309.010 361.200,309.164 357.510,309.165 353.000 C 309.167 345.026,309.119 344.360,308.600 345.200 M306.876 353.076 C 306.834 356.638,306.935 359.637,307.100 359.739 C 307.265 359.842,307.353 357.918,307.295 355.463 C 307.105 347.372,306.952 346.504,306.876 353.076 M324.700 353.482 C 325.195 353.578,326.005 353.578,326.500 353.482 C 326.995 353.387,326.590 353.309,325.600 353.309 C 324.610 353.309,324.205 353.387,324.700 353.482 M308.428 384.700 C 308.538 385.873,309.146 386.526,309.172 385.500 C 309.187 384.895,309.020 384.400,308.800 384.400 C 308.580 384.400,308.413 384.535,308.428 384.700 M308.339 387.100 C 308.306 387.265,308.252 387.670,308.220 388.000 C 308.189 388.330,307.924 388.548,307.632 388.484 C 307.294 388.409,307.190 388.598,307.346 389.004 C 307.481 389.356,307.422 389.537,307.214 389.409 C 306.707 389.096,304.800 389.595,304.800 390.041 C 304.800 390.332,305.970 390.298,306.800 389.984 C 306.910 389.942,307.294 389.936,307.652 389.971 C 308.316 390.035,309.026 388.289,308.610 387.616 C 308.492 387.425,308.621 387.177,308.898 387.066 C 309.297 386.905,309.297 386.857,308.900 386.832 C 308.625 386.814,308.373 386.935,308.339 387.100 " stroke="none" fill="#f4944c" fill-rule="evenodd"></path><path id="path4" d="M26.517 24.842 C 24.347 25.471,24.405 23.832,24.402 84.480 C 24.400 139.815,24.504 144.800,25.657 144.800 C 25.872 144.800,25.948 144.960,25.827 145.156 C 24.960 146.559,27.913 146.785,47.445 146.810 L 66.600 146.836 67.459 145.843 C 67.931 145.298,68.455 144.975,68.623 145.126 C 68.791 145.276,68.788 145.158,68.617 144.862 C 68.446 144.566,68.533 143.898,68.812 143.378 C 69.197 142.659,69.230 141.470,68.951 138.391 C 68.481 133.208,69.263 131.112,72.199 129.686 C 73.343 129.130,74.180 128.395,74.460 127.701 C 74.705 127.096,75.148 126.060,75.445 125.400 C 75.743 124.740,76.253 123.519,76.579 122.686 C 77.026 121.543,77.543 121.026,78.686 120.578 C 81.554 119.456,83.549 118.243,84.041 117.323 C 84.313 116.815,84.695 116.400,84.891 116.400 C 85.087 116.400,85.160 116.259,85.054 116.087 C 84.947 115.915,85.432 115.384,86.130 114.907 C 87.669 113.856,92.000 111.908,92.000 112.267 C 92.000 112.409,92.450 112.001,93.000 111.362 C 93.549 110.723,93.999 109.979,94.000 109.709 C 94.000 109.439,94.495 108.903,95.100 108.518 C 95.705 108.133,96.325 107.640,96.477 107.423 C 97.259 106.306,106.909 106.772,108.600 108.008 C 108.820 108.169,110.132 108.407,111.516 108.537 C 112.901 108.667,114.251 108.883,114.516 109.016 C 114.782 109.150,114.658 108.982,114.241 108.642 C 113.824 108.303,113.329 108.120,113.141 108.236 C 112.953 108.352,112.800 108.297,112.800 108.114 C 112.800 107.931,112.035 107.791,111.100 107.803 C 110.165 107.815,109.091 107.572,108.714 107.263 C 106.996 105.856,97.922 104.998,95.874 106.048 C 94.789 106.604,92.400 108.838,92.400 109.295 C 92.400 109.918,91.014 111.056,89.600 111.594 C 86.028 112.953,84.687 113.747,83.008 115.499 C 82.013 116.537,81.200 117.535,81.200 117.717 C 81.200 117.898,81.032 117.944,80.828 117.817 C 80.623 117.691,80.342 117.770,80.204 117.993 C 80.066 118.217,79.607 118.400,79.183 118.400 C 77.986 118.400,74.800 121.668,74.800 122.897 C 74.800 124.270,72.457 127.772,70.782 128.901 C 68.040 130.748,67.576 132.523,68.018 139.469 C 68.174 141.935,68.082 142.496,67.357 143.469 L 66.514 144.600 46.949 144.704 L 27.384 144.807 26.297 143.132 L 25.211 141.456 25.203 84.500 L 25.195 27.544 26.371 26.367 L 27.547 25.191 205.474 25.365 C 303.333 25.460,384.390 25.573,385.600 25.616 C 388.892 25.731,390.000 25.638,390.000 25.247 C 390.000 24.815,388.465 24.371,388.239 24.738 C 388.150 24.882,386.125 24.886,383.739 24.746 C 376.646 24.330,27.959 24.425,26.517 24.842 M290.588 103.220 C 290.440 103.458,290.426 103.760,290.556 103.890 C 290.687 104.020,290.593 104.368,290.348 104.663 C 289.999 105.084,290.086 105.200,290.751 105.200 C 291.384 105.200,291.600 104.952,291.600 104.224 C 291.600 103.140,291.003 102.548,290.588 103.220 M137.151 105.627 C 133.628 105.938,130.151 106.702,129.000 107.420 C 128.560 107.694,127.265 108.012,126.123 108.126 C 124.981 108.241,123.721 108.526,123.323 108.760 C 122.728 109.111,122.812 109.152,123.800 108.991 C 124.460 108.883,126.080 108.624,127.400 108.415 C 130.115 107.985,130.934 107.818,132.850 107.302 C 133.593 107.102,135.190 106.889,136.400 106.829 C 137.610 106.768,139.140 106.681,139.800 106.635 C 141.441 106.521,144.721 108.287,145.436 109.670 C 145.758 110.292,145.887 110.800,145.723 110.800 C 145.174 110.800,147.598 112.553,148.303 112.665 C 149.787 112.902,152.624 113.282,153.100 113.307 C 153.375 113.321,153.600 113.462,153.600 113.620 C 153.600 113.778,153.960 114.001,154.400 114.116 C 154.840 114.231,155.200 114.612,155.200 114.963 C 155.200 115.313,155.336 115.600,155.502 115.600 C 155.669 115.600,156.035 116.120,156.316 116.756 C 156.705 117.633,157.247 118.017,158.561 118.348 C 160.846 118.924,163.201 121.417,162.907 122.950 C 162.797 123.528,162.878 124.000,163.087 124.000 C 163.296 124.000,163.467 124.302,163.467 124.672 C 163.467 125.042,163.885 125.627,164.397 125.972 C 165.670 126.832,168.001 129.179,167.920 129.521 C 167.884 129.674,168.102 130.520,168.406 131.400 C 169.110 133.444,169.502 270.415,168.834 281.200 C 168.449 287.432,167.831 290.558,166.720 291.897 C 166.490 292.174,166.442 292.400,166.613 292.400 C 166.784 292.400,166.598 292.760,166.200 293.200 C 165.432 294.049,164.000 294.291,164.000 293.571 C 164.000 293.336,163.717 293.426,163.371 293.771 C 162.646 294.497,162.227 294.603,162.624 293.962 C 162.793 293.687,162.615 293.584,162.147 293.685 C 161.736 293.775,161.446 294.064,161.501 294.328 C 161.578 294.693,161.410 294.688,160.801 294.308 C 159.889 293.738,159.715 293.116,160.560 293.440 C 160.867 293.558,161.237 293.464,161.380 293.232 C 161.541 292.972,161.396 292.904,161.004 293.054 C 160.654 293.188,160.420 293.141,160.484 292.949 C 160.548 292.757,160.420 292.510,160.200 292.400 C 159.980 292.290,159.743 292.695,159.673 293.300 C 159.579 294.123,159.720 294.400,160.235 294.400 C 160.877 294.400,160.879 294.450,160.262 295.131 C 159.346 296.143,159.417 297.200,160.400 297.200 C 160.904 297.200,161.200 297.467,161.200 297.920 C 161.200 298.316,161.425 298.865,161.700 299.140 C 162.050 299.489,162.200 301.240,162.200 304.976 C 162.200 310.953,162.125 311.145,159.000 313.110 C 157.503 314.052,156.767 314.853,156.531 315.800 C 156.476 316.020,156.239 316.920,156.003 317.800 C 155.767 318.680,155.480 319.850,155.364 320.400 C 155.248 320.950,154.982 321.460,154.774 321.534 C 154.566 321.608,154.482 321.809,154.588 321.981 C 154.856 322.414,153.483 323.591,152.484 323.784 C 151.318 324.008,149.643 325.172,149.144 326.105 C 148.817 326.716,148.835 326.826,149.222 326.586 C 149.780 326.241,149.579 326.664,148.310 328.496 C 147.593 329.532,144.735 330.702,142.258 330.974 C 140.669 331.148,139.640 331.995,138.851 333.778 C 137.157 337.608,134.420 338.494,129.719 336.735 C 127.652 335.962,127.428 335.947,126.990 336.546 C 126.727 336.906,126.318 337.200,126.081 337.200 C 125.844 337.200,125.655 337.515,125.661 337.900 C 125.687 339.601,125.192 341.321,124.524 341.845 C 123.005 343.038,122.316 343.223,118.909 343.354 C 115.434 343.488,112.979 344.225,111.000 345.728 C 110.080 346.427,109.976 376.404,110.877 381.400 C 111.115 382.720,111.288 384.955,111.262 386.367 C 111.234 387.865,111.419 389.199,111.707 389.567 C 112.144 390.128,112.119 390.137,111.490 389.643 C 110.854 389.143,109.960 389.293,110.479 389.812 C 110.946 390.279,113.201 390.327,113.220 389.871 C 113.422 385.201,113.358 383.995,112.829 382.600 C 112.331 381.284,112.200 377.941,112.089 363.741 L 111.954 346.481 114.077 345.471 C 115.859 344.624,116.756 344.465,119.664 344.486 C 124.395 344.519,126.647 343.156,127.471 339.758 C 127.767 338.540,128.019 338.226,128.625 338.319 C 134.076 339.159,137.783 338.500,138.853 336.501 C 139.118 336.006,139.485 335.600,139.668 335.600 C 139.850 335.600,140.000 335.171,140.000 334.646 C 140.000 333.286,142.723 332.056,146.145 331.869 C 147.131 331.815,149.780 329.351,150.702 327.629 C 151.158 326.777,152.185 325.855,153.418 325.191 C 155.628 323.999,156.736 322.442,157.009 320.141 C 157.548 315.610,157.917 314.734,159.504 314.231 C 162.591 313.251,163.743 310.992,163.599 306.200 C 163.391 299.275,163.402 298.400,163.700 298.400 C 163.865 298.400,164.000 298.136,164.000 297.813 C 164.000 297.469,164.236 297.316,164.569 297.443 C 164.882 297.564,165.512 297.288,165.969 296.831 C 166.426 296.374,166.802 296.135,166.804 296.300 C 166.814 297.209,169.305 291.342,169.674 289.539 C 170.443 285.776,170.602 136.719,169.841 131.992 C 169.184 127.911,168.573 126.750,166.290 125.247 C 165.249 124.561,164.639 123.726,164.121 122.279 C 163.228 119.786,161.792 118.304,159.646 117.661 C 158.366 117.277,157.826 116.827,157.217 115.634 C 156.424 114.079,154.327 112.027,153.469 111.967 C 150.458 111.756,148.313 110.716,146.615 108.645 C 144.373 105.908,142.117 105.189,137.151 105.627 M268.882 106.193 C 266.598 106.917,265.510 107.547,263.876 109.093 C 262.344 110.542,261.360 111.136,260.181 111.325 C 258.433 111.604,256.520 113.287,255.548 115.400 C 255.178 116.205,254.229 116.997,252.669 117.806 C 250.385 118.990,250.043 119.381,248.493 122.600 C 247.896 123.839,247.345 124.335,246.047 124.800 C 243.468 125.724,242.757 127.126,243.112 130.591 C 243.419 133.582,243.502 274.165,243.206 288.000 C 242.990 298.041,243.521 299.638,247.646 301.362 C 249.934 302.317,250.067 302.673,249.374 305.994 C 249.038 307.605,248.875 309.481,249.012 310.162 C 249.357 311.882,250.725 314.800,251.186 314.800 C 251.679 314.800,254.784 317.838,254.850 318.384 C 254.916 318.929,255.079 319.574,255.183 319.700 C 255.228 319.755,255.346 320.340,255.444 321.000 C 255.804 323.421,256.475 324.384,258.683 325.648 C 260.352 326.602,261.041 327.291,261.587 328.550 C 262.678 331.062,267.097 333.970,268.179 332.888 C 268.300 332.766,268.400 332.877,268.400 333.133 C 268.400 333.390,268.535 333.555,268.700 333.500 C 268.865 333.445,269.090 333.574,269.200 333.787 C 270.838 336.960,275.014 338.741,282.100 339.289 C 282.705 339.336,283.200 339.537,283.200 339.735 C 283.200 342.077,289.439 344.993,293.845 344.710 C 297.163 344.497,298.988 345.218,299.413 346.910 C 299.694 348.030,299.327 380.782,298.980 385.534 C 298.772 388.384,298.840 388.981,299.446 389.651 C 300.128 390.405,300.126 390.424,299.378 390.153 C 298.950 389.999,298.730 390.016,298.888 390.191 C 299.047 390.366,299.848 390.563,300.668 390.628 C 301.567 390.699,301.949 390.616,301.629 390.418 C 301.304 390.217,301.225 389.877,301.426 389.545 C 301.685 389.113,301.634 389.097,301.177 389.466 C 300.682 389.866,300.617 389.469,300.721 386.666 C 300.788 384.870,300.937 375.187,301.053 365.150 L 301.263 346.900 300.012 345.474 C 298.455 343.702,296.976 343.235,293.400 343.388 C 289.990 343.534,286.272 341.949,286.181 340.310 C 286.153 339.810,286.000 338.707,285.840 337.861 C 285.610 336.646,285.660 336.385,286.074 336.625 C 286.364 336.792,286.164 336.450,285.630 335.865 C 284.666 334.806,284.143 334.461,284.583 335.173 C 284.710 335.378,284.452 335.799,284.009 336.109 C 283.567 336.418,283.324 336.791,283.469 336.936 C 283.614 337.081,283.388 337.223,282.967 337.251 C 281.460 337.351,280.495 337.489,279.426 337.758 C 278.250 338.053,275.822 337.384,274.700 336.455 C 274.315 336.137,274.000 336.002,274.000 336.156 C 274.000 336.310,273.550 335.986,273.000 335.436 C 272.450 334.886,272.000 334.089,272.000 333.664 C 272.000 332.675,269.869 331.641,267.171 331.322 C 264.761 331.037,263.070 329.596,262.359 327.220 C 261.934 325.802,260.767 324.800,259.542 324.800 C 257.798 324.800,256.583 321.881,256.440 317.346 C 256.401 316.119,255.132 314.837,253.757 314.635 C 250.936 314.221,248.735 306.714,250.821 304.620 C 252.206 303.230,250.578 299.430,248.552 299.325 C 245.645 299.175,244.279 296.362,244.365 290.701 C 244.389 289.106,244.490 251.731,244.590 207.647 C 244.794 117.798,244.458 126.804,247.666 125.167 C 248.659 124.660,249.212 124.058,249.378 123.301 C 249.808 121.341,251.105 119.833,253.421 118.600 C 254.729 117.904,255.953 116.902,256.337 116.214 C 257.719 113.741,259.000 112.703,260.850 112.558 C 264.934 112.237,265.600 111.984,265.600 110.753 C 265.600 110.313,265.778 110.063,265.995 110.197 C 266.220 110.336,266.291 110.180,266.159 109.837 C 265.491 108.097,272.974 106.136,277.200 106.945 C 280.237 107.525,282.770 108.176,283.600 108.589 C 284.574 109.074,288.764 109.431,288.325 108.992 C 288.137 108.803,286.115 108.501,284.529 108.423 C 284.269 108.410,283.774 108.117,283.429 107.771 C 283.083 107.426,282.800 107.250,282.800 107.382 C 282.800 107.513,282.305 107.365,281.700 107.052 C 280.754 106.564,278.622 106.165,273.000 105.425 C 272.340 105.338,270.487 105.683,268.882 106.193 M307.400 106.019 C 306.740 106.229,304.760 106.692,303.000 107.048 C 301.240 107.404,299.530 107.860,299.200 108.063 C 298.259 108.639,302.996 108.204,306.200 107.419 C 312.410 105.897,317.903 107.344,318.997 110.790 C 319.123 111.188,319.806 111.734,320.513 112.004 C 323.509 113.144,324.352 113.661,325.348 114.967 C 325.927 115.726,326.400 116.513,326.400 116.717 C 326.400 116.921,326.870 117.428,327.444 117.844 C 328.019 118.260,328.726 118.825,329.016 119.100 C 329.306 119.375,329.710 119.600,329.915 119.600 C 330.120 119.600,330.898 120.319,331.644 121.198 C 332.390 122.077,333.190 122.797,333.422 122.798 C 333.843 122.800,336.244 124.991,337.000 126.064 C 337.442 126.691,337.572 127.109,337.994 129.269 C 338.308 130.874,338.996 131.754,340.246 132.151 C 341.717 132.618,342.696 134.506,343.193 137.829 C 343.453 139.573,343.823 141.360,344.015 141.800 C 344.207 142.240,344.617 143.237,344.927 144.016 C 346.097 146.964,345.059 146.803,362.729 146.771 C 371.458 146.755,379.590 146.563,380.800 146.345 C 384.592 145.662,389.234 145.759,389.800 146.533 C 390.437 147.403,390.617 147.374,390.691 146.391 C 390.724 145.947,390.582 145.687,390.376 145.815 C 390.169 145.943,390.000 145.587,390.000 145.024 C 390.000 144.461,389.865 143.986,389.700 143.969 C 389.535 143.953,389.040 143.863,388.600 143.769 C 386.204 143.262,384.182 143.343,381.856 144.041 C 379.484 144.753,378.092 144.801,362.948 144.705 L 346.600 144.600 345.758 142.933 C 345.253 141.934,344.804 140.027,344.636 138.170 C 344.293 134.386,343.796 133.374,341.229 131.224 C 339.550 129.819,339.120 129.168,338.566 127.193 C 338.203 125.898,337.567 124.532,337.153 124.157 C 336.739 123.783,336.400 123.234,336.400 122.938 C 336.400 122.642,336.204 122.400,335.964 122.400 C 335.724 122.400,334.509 121.485,333.264 120.367 C 332.019 119.249,330.370 118.007,329.600 117.605 C 328.830 117.204,327.855 116.274,327.434 115.538 C 326.599 114.079,324.495 112.000,323.854 112.000 C 322.978 112.000,320.000 110.296,320.000 109.795 C 320.000 109.117,318.159 106.913,317.134 106.365 C 316.078 105.799,308.892 105.544,307.400 106.019 M290.000 107.192 C 290.000 107.417,290.570 107.600,291.267 107.600 C 292.723 107.600,292.670 107.425,291.100 107.049 C 290.447 106.892,290.000 106.950,290.000 107.192 M388.933 148.562 C 388.933 148.885,389.177 149.030,389.506 148.904 C 389.991 148.718,389.999 148.813,389.553 149.526 C 389.240 150.028,388.923 150.199,388.769 149.951 C 388.515 149.539,387.807 150.686,387.936 151.300 C 387.971 151.465,387.790 151.600,387.533 151.600 C 387.277 151.600,387.199 151.733,387.362 151.895 C 388.243 152.777,390.000 151.863,389.768 150.643 C 389.689 150.226,389.748 149.686,389.901 149.443 C 390.434 148.591,390.323 148.000,389.631 148.000 C 389.247 148.000,388.933 148.253,388.933 148.562 M378.400 151.147 L 378.400 152.741 381.762 152.871 C 384.849 152.989,385.093 152.943,384.751 152.307 C 384.546 151.925,384.069 151.639,383.689 151.670 C 381.864 151.820,379.974 151.566,380.200 151.200 C 380.336 150.980,380.066 150.800,379.600 150.800 C 379.134 150.800,378.856 150.632,378.983 150.428 C 379.109 150.223,379.030 149.942,378.807 149.804 C 378.557 149.650,378.400 150.169,378.400 151.147 M66.111 151.249 C 65.864 151.496,65.758 151.946,65.874 152.249 C 66.212 153.128,66.600 152.888,66.600 151.800 C 66.600 151.250,66.591 150.800,66.580 150.800 C 66.569 150.800,66.358 151.002,66.111 151.249 M26.618 151.839 C 26.267 152.190,25.714 152.376,25.390 152.251 C 25.065 152.127,24.800 152.199,24.800 152.413 C 24.800 152.924,26.283 152.913,26.600 152.400 C 26.736 152.180,27.027 152.000,27.247 152.000 C 27.467 152.000,27.536 152.180,27.400 152.400 C 27.264 152.620,27.343 152.800,27.576 152.800 C 27.809 152.800,28.000 152.440,28.000 152.000 C 28.000 151.035,27.482 150.975,26.618 151.839 M385.848 151.782 C 386.082 152.391,387.543 153.412,387.782 153.132 C 387.844 153.060,387.379 152.582,386.749 152.071 C 385.939 151.414,385.675 151.330,385.848 151.782 M68.276 152.278 C 68.127 152.519,68.288 152.825,68.635 152.958 C 69.649 153.347,70.000 153.243,70.000 152.551 C 70.000 152.040,69.881 152.001,69.439 152.368 C 69.009 152.724,68.839 152.717,68.712 152.336 C 68.597 151.990,68.464 151.973,68.276 152.278 M345.376 152.587 C 344.674 153.119,344.667 153.176,345.300 153.187 C 345.685 153.194,346.000 153.009,346.000 152.776 C 346.000 152.543,346.180 152.464,346.400 152.600 C 346.620 152.736,346.800 152.657,346.800 152.424 C 346.800 151.836,346.292 151.894,345.376 152.587 M159.728 288.800 C 159.728 290.230,159.801 290.815,159.889 290.100 C 159.978 289.385,159.978 288.215,159.889 287.500 C 159.801 286.785,159.728 287.370,159.728 288.800 M104.983 363.200 C 104.983 372.330,105.035 376.065,105.100 371.500 C 105.164 366.935,105.164 359.465,105.100 354.900 C 105.035 350.335,104.983 354.070,104.983 363.200 M103.728 382.000 C 103.728 383.430,103.801 384.015,103.889 383.300 C 103.978 382.585,103.978 381.415,103.889 380.700 C 103.801 379.985,103.728 380.570,103.728 382.000 M107.021 389.961 C 106.278 390.252,106.283 390.276,107.121 390.495 C 107.719 390.652,108.000 390.545,108.000 390.163 C 108.000 389.853,107.955 389.613,107.900 389.628 C 107.845 389.644,107.450 389.793,107.021 389.961 " stroke="none" fill="#f48c3c" fill-rule="evenodd"></path></g></svg>